%TF.GenerationSoftware,KiCad,Pcbnew,9.0.0*%
%TF.CreationDate,2025-03-27T10:14:56+02:00*%
%TF.ProjectId,,58585858-5858-4585-9858-585858585858,rev?*%
%TF.SameCoordinates,Original*%
%TF.FileFunction,Copper,L1,Top*%
%TF.FilePolarity,Positive*%
%FSLAX46Y46*%
G04 Gerber Fmt 4.6, Leading zero omitted, Abs format (unit mm)*
G04 Created by KiCad (PCBNEW 9.0.0) date 2025-03-27 10:14:56*
%MOMM*%
%LPD*%
G01*
G04 APERTURE LIST*
G04 Aperture macros list*
%AMRoundRect*
0 Rectangle with rounded corners*
0 $1 Rounding radius*
0 $2 $3 $4 $5 $6 $7 $8 $9 X,Y pos of 4 corners*
0 Add a 4 corners polygon primitive as box body*
4,1,4,$2,$3,$4,$5,$6,$7,$8,$9,$2,$3,0*
0 Add four circle primitives for the rounded corners*
1,1,$1+$1,$2,$3*
1,1,$1+$1,$4,$5*
1,1,$1+$1,$6,$7*
1,1,$1+$1,$8,$9*
0 Add four rect primitives between the rounded corners*
20,1,$1+$1,$2,$3,$4,$5,0*
20,1,$1+$1,$4,$5,$6,$7,0*
20,1,$1+$1,$6,$7,$8,$9,0*
20,1,$1+$1,$8,$9,$2,$3,0*%
%AMFreePoly0*
4,1,9,3.862500,-0.866500,0.737500,-0.866500,0.737500,-0.450000,-0.737500,-0.450000,-0.737500,0.450000,0.737500,0.450000,0.737500,0.866500,3.862500,0.866500,3.862500,-0.866500,3.862500,-0.866500,$1*%
%AMFreePoly1*
4,1,30,0.400000,-4.000000,-0.400000,-4.000000,-2.400000,-4.000000,-2.400000,-3.200000,-0.400000,-3.200000,-0.400000,-2.800000,-2.400000,-2.800000,-2.400000,-2.000000,-0.400000,-2.000000,-0.400000,-1.600000,-2.400000,-1.600000,-2.400000,-0.800000,-0.400000,-0.800000,-0.400000,-0.400000,-2.400000,-0.400000,-2.400000,0.400000,-0.400000,0.400000,-0.400000,0.800000,-2.400000,0.800000,-2.400000,1.600000,
-0.400000,1.600000,-0.400000,2.000000,-2.400000,2.000000,-2.400000,2.800000,-0.400000,2.800000,-0.400000,3.200000,-2.400000,3.200000,-2.400000,4.000000,0.400000,4.000000,0.400000,-4.000000,0.400000,-4.000000,$1*%
%AMFreePoly2*
4,1,13,2.850000,-5.050000,1.450000,-5.050000,1.450000,-4.350000,-1.450000,-4.350000,-1.450000,-4.850000,-5.150000,-4.850000,-5.150000,4.850000,-1.450000,4.850000,-1.450000,4.350000,1.450000,4.350000,1.450000,5.050000,2.850000,5.050000,2.850000,-5.050000,2.850000,-5.050000,$1*%
G04 Aperture macros list end*
%TA.AperFunction,SMDPad,CuDef*%
%ADD10RoundRect,0.100000X-0.680000X-0.100000X0.680000X-0.100000X0.680000X0.100000X-0.680000X0.100000X0*%
%TD*%
%TA.AperFunction,SMDPad,CuDef*%
%ADD11RoundRect,0.225000X-0.425000X-0.225000X0.425000X-0.225000X0.425000X0.225000X-0.425000X0.225000X0*%
%TD*%
%TA.AperFunction,SMDPad,CuDef*%
%ADD12FreePoly0,0.000000*%
%TD*%
%TA.AperFunction,SMDPad,CuDef*%
%ADD13RoundRect,0.150000X-0.825000X-0.150000X0.825000X-0.150000X0.825000X0.150000X-0.825000X0.150000X0*%
%TD*%
%TA.AperFunction,HeatsinkPad*%
%ADD14C,0.500000*%
%TD*%
%TA.AperFunction,HeatsinkPad*%
%ADD15R,2.410000X3.300000*%
%TD*%
%TA.AperFunction,SMDPad,CuDef*%
%ADD16RoundRect,0.075000X-0.247500X-0.075000X0.247500X-0.075000X0.247500X0.075000X-0.247500X0.075000X0*%
%TD*%
%TA.AperFunction,HeatsinkPad*%
%ADD17R,1.010000X1.700000*%
%TD*%
%TA.AperFunction,SMDPad,CuDef*%
%ADD18RoundRect,0.150000X-0.512500X-0.150000X0.512500X-0.150000X0.512500X0.150000X-0.512500X0.150000X0*%
%TD*%
%TA.AperFunction,SMDPad,CuDef*%
%ADD19RoundRect,0.100000X-0.637500X-0.100000X0.637500X-0.100000X0.637500X0.100000X-0.637500X0.100000X0*%
%TD*%
%TA.AperFunction,ComponentPad*%
%ADD20O,2.200000X3.500000*%
%TD*%
%TA.AperFunction,ComponentPad*%
%ADD21R,1.500000X2.500000*%
%TD*%
%TA.AperFunction,ComponentPad*%
%ADD22O,1.500000X2.500000*%
%TD*%
%TA.AperFunction,SMDPad,CuDef*%
%ADD23RoundRect,0.250000X-0.400000X-0.625000X0.400000X-0.625000X0.400000X0.625000X-0.400000X0.625000X0*%
%TD*%
%TA.AperFunction,SMDPad,CuDef*%
%ADD24RoundRect,0.243600X-1.406400X-0.771400X1.406400X-0.771400X1.406400X0.771400X-1.406400X0.771400X0*%
%TD*%
%TA.AperFunction,SMDPad,CuDef*%
%ADD25RoundRect,0.190000X-0.510000X-0.190000X0.510000X-0.190000X0.510000X0.190000X-0.510000X0.190000X0*%
%TD*%
%TA.AperFunction,SMDPad,CuDef*%
%ADD26RoundRect,0.100000X-0.217500X-0.100000X0.217500X-0.100000X0.217500X0.100000X-0.217500X0.100000X0*%
%TD*%
%TA.AperFunction,SMDPad,CuDef*%
%ADD27RoundRect,0.250000X-0.350000X-0.450000X0.350000X-0.450000X0.350000X0.450000X-0.350000X0.450000X0*%
%TD*%
%TA.AperFunction,SMDPad,CuDef*%
%ADD28RoundRect,0.237500X-0.250000X-0.237500X0.250000X-0.237500X0.250000X0.237500X-0.250000X0.237500X0*%
%TD*%
%TA.AperFunction,SMDPad,CuDef*%
%ADD29R,2.800000X0.800000*%
%TD*%
%TA.AperFunction,SMDPad,CuDef*%
%ADD30FreePoly1,0.000000*%
%TD*%
%TA.AperFunction,SMDPad,CuDef*%
%ADD31FreePoly2,0.000000*%
%TD*%
%TA.AperFunction,SMDPad,CuDef*%
%ADD32RoundRect,0.250001X-0.462499X-0.849999X0.462499X-0.849999X0.462499X0.849999X-0.462499X0.849999X0*%
%TD*%
%TA.AperFunction,SMDPad,CuDef*%
%ADD33RoundRect,0.175000X-0.175000X-0.425000X0.175000X-0.425000X0.175000X0.425000X-0.175000X0.425000X0*%
%TD*%
%TA.AperFunction,SMDPad,CuDef*%
%ADD34RoundRect,0.190000X0.190000X0.410000X-0.190000X0.410000X-0.190000X-0.410000X0.190000X-0.410000X0*%
%TD*%
%TA.AperFunction,SMDPad,CuDef*%
%ADD35RoundRect,0.200000X0.200000X0.400000X-0.200000X0.400000X-0.200000X-0.400000X0.200000X-0.400000X0*%
%TD*%
%TA.AperFunction,SMDPad,CuDef*%
%ADD36RoundRect,0.175000X0.175000X0.425000X-0.175000X0.425000X-0.175000X-0.425000X0.175000X-0.425000X0*%
%TD*%
%TA.AperFunction,SMDPad,CuDef*%
%ADD37RoundRect,0.190000X-0.190000X-0.410000X0.190000X-0.410000X0.190000X0.410000X-0.190000X0.410000X0*%
%TD*%
%TA.AperFunction,SMDPad,CuDef*%
%ADD38RoundRect,0.200000X-0.200000X-0.400000X0.200000X-0.400000X0.200000X0.400000X-0.200000X0.400000X0*%
%TD*%
%TA.AperFunction,HeatsinkPad*%
%ADD39O,1.100000X1.700000*%
%TD*%
%TA.AperFunction,SMDPad,CuDef*%
%ADD40RoundRect,0.250000X-1.000000X-0.650000X1.000000X-0.650000X1.000000X0.650000X-1.000000X0.650000X0*%
%TD*%
%TA.AperFunction,SMDPad,CuDef*%
%ADD41RoundRect,0.250000X-0.337500X-0.475000X0.337500X-0.475000X0.337500X0.475000X-0.337500X0.475000X0*%
%TD*%
G04 APERTURE END LIST*
D10*
%TO.P,U10,1,IN+*%
%TO.N,Net-(U10-IN+)*%
X143800000Y-104540000D03*
%TO.P,U10,2,IN-*%
%TO.N,Net-(U10-IN-)*%
X143800000Y-105190000D03*
%TO.P,U10,3,GND*%
%TO.N,GND*%
X143800000Y-105850000D03*
%TO.P,U10,4,VS*%
%TO.N,/3V3 Out*%
X143800000Y-106500000D03*
%TO.P,U10,5,SCL*%
%TO.N,/I2C1_SCL*%
X146500000Y-106500000D03*
%TO.P,U10,6,SDA*%
%TO.N,/I2C1_SDA*%
X146500000Y-105850000D03*
%TO.P,U10,7,A0*%
%TO.N,GND*%
X146500000Y-105190000D03*
%TO.P,U10,8,A1*%
%TO.N,/3V3 Out*%
X146500000Y-104540000D03*
%TD*%
D11*
%TO.P,U9,1,OUT*%
%TO.N,/5V*%
X144710000Y-97100000D03*
D12*
%TO.P,U9,2,GND*%
%TO.N,GND*%
X144797500Y-98600000D03*
D11*
%TO.P,U9,3,IN*%
%TO.N,/HV*%
X144710000Y-100100000D03*
%TD*%
D13*
%TO.P,U8,1,TEMP*%
%TO.N,GND*%
X168585000Y-79345000D03*
%TO.P,U8,2,PROG*%
%TO.N,Net-(U8-PROG)*%
X168585000Y-80615000D03*
%TO.P,U8,3,GND*%
%TO.N,GND*%
X168585000Y-81885000D03*
%TO.P,U8,4,V_{CC}*%
%TO.N,/5V*%
X168585000Y-83155000D03*
%TO.P,U8,5,BAT*%
%TO.N,/Vbat*%
X173535000Y-83155000D03*
%TO.P,U8,6,~{STDBY}*%
%TO.N,Net-(U8-~{STDBY})*%
X173535000Y-81885000D03*
%TO.P,U8,7,~{CHRG}*%
%TO.N,Net-(U8-~{CHRG})*%
X173535000Y-80615000D03*
%TO.P,U8,8,CE*%
%TO.N,/5V*%
X173535000Y-79345000D03*
D14*
%TO.P,U8,9,EPAD*%
%TO.N,GND*%
X170360000Y-80050000D03*
X170360000Y-81250000D03*
X170360000Y-82450000D03*
D15*
X171060000Y-81250000D03*
D14*
X171760000Y-80050000D03*
X171760000Y-81250000D03*
X171760000Y-82450000D03*
%TD*%
D16*
%TO.P,U6,1,CC1*%
%TO.N,Net-(J2-CC1)*%
X138667500Y-95965000D03*
%TO.P,U6,2,VBUS*%
%TO.N,/HV*%
X138667500Y-96615000D03*
%TO.P,U6,3,VSET*%
%TO.N,Net-(U6-VSET)*%
X138667500Y-97265000D03*
%TO.P,U6,4,D+*%
%TO.N,unconnected-(U6-D+-Pad4)*%
X140722500Y-97265000D03*
%TO.P,U6,5,D-*%
%TO.N,unconnected-(U6-D--Pad5)*%
X140722500Y-96615000D03*
%TO.P,U6,6,CC2*%
%TO.N,Net-(J2-CC2)*%
X140722500Y-95965000D03*
D17*
%TO.P,U6,7,GND*%
%TO.N,GND*%
X139695000Y-96615000D03*
%TD*%
D18*
%TO.P,U5,1,SW*%
%TO.N,Net-(D2-A)*%
X168272500Y-85925000D03*
%TO.P,U5,2,GND*%
%TO.N,GND*%
X168272500Y-86875000D03*
%TO.P,U5,3,NC*%
%TO.N,unconnected-(U5-NC-Pad3)*%
X168272500Y-87825000D03*
%TO.P,U5,4,VOUT*%
%TO.N,/5V Out*%
X170547500Y-87825000D03*
%TO.P,U5,5,NC*%
%TO.N,unconnected-(U5-NC-Pad5)*%
X170547500Y-85925000D03*
%TD*%
D11*
%TO.P,U4,1,OUT*%
%TO.N,/3V3 Out*%
X144710000Y-90975000D03*
D12*
%TO.P,U4,2,GND*%
%TO.N,GND*%
X144797500Y-92475000D03*
D11*
%TO.P,U4,3,IN*%
%TO.N,/Battery*%
X144710000Y-93975000D03*
%TD*%
D13*
%TO.P,U3,1,ENA*%
%TO.N,/CTRL_EXT_LOAD1*%
X168585000Y-72765000D03*
%TO.P,U3,2,FLGA*%
%TO.N,unconnected-(U3-FLGA-Pad2)*%
X168585000Y-74035000D03*
%TO.P,U3,3,FLGB*%
%TO.N,unconnected-(U3-FLGB-Pad3)*%
X168585000Y-75305000D03*
%TO.P,U3,4,ENB*%
%TO.N,/CTRL_EXT_LOAD2*%
X168585000Y-76575000D03*
%TO.P,U3,5,OUTB*%
%TO.N,/EXT_LOAD2_OUT*%
X173535000Y-76575000D03*
%TO.P,U3,6,GND*%
%TO.N,GND*%
X173535000Y-75305000D03*
%TO.P,U3,7,IN*%
%TO.N,/5V Out*%
X173535000Y-74035000D03*
%TO.P,U3,8,OUTA*%
%TO.N,/EXT_LOAD1_OUT*%
X173535000Y-72765000D03*
%TD*%
D19*
%TO.P,U2,1,~{SLEEP}*%
%TO.N,/3V3 Out*%
X159602500Y-78925000D03*
%TO.P,U2,2,AOUT1*%
%TO.N,/MOTOR3_A_OUT*%
X159602500Y-79575000D03*
%TO.P,U2,3,AISEN*%
%TO.N,Net-(U2-AISEN)*%
X159602500Y-80225000D03*
%TO.P,U2,4,AOUT2*%
%TO.N,/MOTOR3_B_OUT*%
X159602500Y-80875000D03*
%TO.P,U2,5,BOUT2*%
X159602500Y-81525000D03*
%TO.P,U2,6,BISEN*%
%TO.N,Net-(U2-BISEN)*%
X159602500Y-82175000D03*
%TO.P,U2,7,BOUT1*%
%TO.N,/MOTOR3_A_OUT*%
X159602500Y-82825000D03*
%TO.P,U2,8,~{FAULT}*%
%TO.N,unconnected-(U2-~{FAULT}-Pad8)*%
X159602500Y-83475000D03*
%TO.P,U2,9,BIN1*%
%TO.N,/MOTOR4_CTRL1*%
X165327500Y-83475000D03*
%TO.P,U2,10,BIN2*%
%TO.N,/MOTOR4_CTRL2*%
X165327500Y-82825000D03*
%TO.P,U2,11,VCP*%
%TO.N,Net-(U2-VCP)*%
X165327500Y-82175000D03*
%TO.P,U2,12,VM*%
%TO.N,/Battery*%
X165327500Y-81525000D03*
%TO.P,U2,13,GND*%
%TO.N,GND*%
X165327500Y-80875000D03*
%TO.P,U2,14,VINT*%
%TO.N,Net-(U2-VINT)*%
X165327500Y-80225000D03*
%TO.P,U2,15,AIN2*%
%TO.N,/MOTOR3_CTRL2*%
X165327500Y-79575000D03*
%TO.P,U2,16,AIN1*%
%TO.N,/MOTOR3_CTRL1*%
X165327500Y-78925000D03*
%TD*%
%TO.P,U1,1,~{SLEEP}*%
%TO.N,/3V3 Out*%
X159602500Y-72335000D03*
%TO.P,U1,2,AOUT1*%
%TO.N,/MOTOR1_A_OUT*%
X159602500Y-72985000D03*
%TO.P,U1,3,AISEN*%
%TO.N,Net-(U1-AISEN)*%
X159602500Y-73635000D03*
%TO.P,U1,4,AOUT2*%
%TO.N,/MOTOR1_B_OUT*%
X159602500Y-74285000D03*
%TO.P,U1,5,BOUT2*%
%TO.N,/Motor2_B_OUT*%
X159602500Y-74935000D03*
%TO.P,U1,6,BISEN*%
%TO.N,Net-(U1-BISEN)*%
X159602500Y-75585000D03*
%TO.P,U1,7,BOUT1*%
%TO.N,/Motor2_A_OUT*%
X159602500Y-76235000D03*
%TO.P,U1,8,~{FAULT}*%
%TO.N,unconnected-(U1-~{FAULT}-Pad8)*%
X159602500Y-76885000D03*
%TO.P,U1,9,BIN1*%
%TO.N,/MOTOR2_CTRL1*%
X165327500Y-76885000D03*
%TO.P,U1,10,BIN2*%
%TO.N,/MOTOR2_CTRL2*%
X165327500Y-76235000D03*
%TO.P,U1,11,VCP*%
%TO.N,Net-(U1-VCP)*%
X165327500Y-75585000D03*
%TO.P,U1,12,VM*%
%TO.N,/Battery*%
X165327500Y-74935000D03*
%TO.P,U1,13,GND*%
%TO.N,GND*%
X165327500Y-74285000D03*
%TO.P,U1,14,VINT*%
%TO.N,Net-(U1-VINT)*%
X165327500Y-73635000D03*
%TO.P,U1,15,AIN2*%
%TO.N,/MOTOR1_CTRL2*%
X165327500Y-72985000D03*
%TO.P,U1,16,AIN1*%
%TO.N,/MOTOR1_CTRL1*%
X165327500Y-72335000D03*
%TD*%
D20*
%TO.P,SW1,*%
%TO.N,*%
X166410000Y-92600000D03*
X174610000Y-92600000D03*
D21*
%TO.P,SW1,1,A*%
%TO.N,/Battery*%
X168510000Y-92600000D03*
D22*
%TO.P,SW1,2,B*%
%TO.N,Net-(SW1-B)*%
X170510000Y-92600000D03*
%TO.P,SW1,3,C*%
%TO.N,unconnected-(SW1-C-Pad3)*%
X172510000Y-92600000D03*
%TD*%
D23*
%TO.P,R16,1*%
%TO.N,/I2C1_SCL*%
X138760000Y-89410000D03*
%TO.P,R16,2*%
%TO.N,/3V3 Out*%
X141860000Y-89410000D03*
%TD*%
%TO.P,R15,1*%
%TO.N,/I2C1_SDA*%
X138760000Y-86120000D03*
%TO.P,R15,2*%
%TO.N,/3V3 Out*%
X141860000Y-86120000D03*
%TD*%
D24*
%TO.P,R14,1,1*%
%TO.N,/Vbat*%
X177500000Y-105500000D03*
D25*
%TO.P,R14,2,2*%
%TO.N,Net-(U10-IN+)*%
X176550000Y-107405000D03*
%TO.P,R14,3,3*%
%TO.N,Net-(U10-IN-)*%
X183410000Y-104865000D03*
D24*
%TO.P,R14,4,4*%
%TO.N,Net-(SW1-B)*%
X182460000Y-106770000D03*
%TD*%
D26*
%TO.P,R12,1*%
%TO.N,Net-(U8-PROG)*%
X150432500Y-107170000D03*
%TO.P,R12,2*%
%TO.N,GND*%
X151247500Y-107170000D03*
%TD*%
D27*
%TO.P,R11,1*%
%TO.N,Net-(D2-A)*%
X138710000Y-103360000D03*
%TO.P,R11,2*%
%TO.N,Net-(C13-Pad1)*%
X140710000Y-103360000D03*
%TD*%
D26*
%TO.P,R8,1*%
%TO.N,Net-(Q2-D)*%
X150432500Y-105420000D03*
%TO.P,R8,2*%
%TO.N,Net-(U8-PROG)*%
X151247500Y-105420000D03*
%TD*%
D28*
%TO.P,R7,1*%
%TO.N,GND*%
X138597500Y-106090000D03*
%TO.P,R7,2*%
%TO.N,Net-(U6-VSET)*%
X140422500Y-106090000D03*
%TD*%
D26*
%TO.P,R6,1*%
%TO.N,Net-(D3-K)*%
X150432500Y-103670000D03*
%TO.P,R6,2*%
%TO.N,Net-(U8-~{STDBY})*%
X151247500Y-103670000D03*
%TD*%
%TO.P,R5,1*%
%TO.N,Net-(D1-K)*%
X150432500Y-101920000D03*
%TO.P,R5,2*%
%TO.N,Net-(U8-~{CHRG})*%
X151247500Y-101920000D03*
%TD*%
D23*
%TO.P,R4,1*%
%TO.N,GND*%
X138760000Y-82830000D03*
%TO.P,R4,2*%
%TO.N,Net-(U2-BISEN)*%
X141860000Y-82830000D03*
%TD*%
%TO.P,R3,1*%
%TO.N,GND*%
X138760000Y-79540000D03*
%TO.P,R3,2*%
%TO.N,Net-(U2-AISEN)*%
X141860000Y-79540000D03*
%TD*%
%TO.P,R2,1*%
%TO.N,GND*%
X138760000Y-76250000D03*
%TO.P,R2,2*%
%TO.N,Net-(U1-BISEN)*%
X141860000Y-76250000D03*
%TD*%
%TO.P,R1,1*%
%TO.N,GND*%
X138760000Y-72960000D03*
%TO.P,R1,2*%
%TO.N,Net-(U1-AISEN)*%
X141860000Y-72960000D03*
%TD*%
D29*
%TO.P,Q2,1,D*%
%TO.N,Net-(Q2-D)*%
X151610000Y-91025000D03*
D30*
%TO.P,Q2,2,G*%
%TO.N,/FAST_CHARGE_CTRL*%
X152610000Y-95825000D03*
D31*
%TO.P,Q2,3,S*%
%TO.N,GND*%
X160660000Y-95225000D03*
%TD*%
D32*
%TO.P,L1,1,1*%
%TO.N,/Battery*%
X138817500Y-92930000D03*
%TO.P,L1,2,2*%
%TO.N,Net-(D2-A)*%
X141142500Y-92930000D03*
%TD*%
D33*
%TO.P,J2,A5,CC1*%
%TO.N,Net-(J2-CC1)*%
X130820000Y-73120000D03*
D34*
%TO.P,J2,A9,VBUS*%
%TO.N,/HV*%
X132840000Y-73120000D03*
D35*
%TO.P,J2,A12,GND*%
%TO.N,GND*%
X134070000Y-73120000D03*
D36*
%TO.P,J2,B5,CC2*%
%TO.N,Net-(J2-CC2)*%
X131820000Y-73120000D03*
D37*
%TO.P,J2,B9,VBUS*%
%TO.N,/HV*%
X129800000Y-73120000D03*
D38*
%TO.P,J2,B12,GND*%
%TO.N,GND*%
X128570000Y-73120000D03*
D39*
%TO.P,J2,S1,Shield*%
X127000000Y-73200000D03*
X127000000Y-77000000D03*
X135640000Y-73200000D03*
X135640000Y-77000000D03*
%TD*%
D26*
%TO.P,D3,1,K*%
%TO.N,Net-(D3-K)*%
X138562500Y-101010000D03*
%TO.P,D3,2,A*%
%TO.N,/5V*%
X139377500Y-101010000D03*
%TD*%
D40*
%TO.P,D2,1,K*%
%TO.N,/5V Out*%
X159785000Y-86770000D03*
%TO.P,D2,2,A*%
%TO.N,Net-(D2-A)*%
X163785000Y-86770000D03*
%TD*%
D26*
%TO.P,D1,1,K*%
%TO.N,Net-(D1-K)*%
X138562500Y-99260000D03*
%TO.P,D1,2,A*%
%TO.N,/5V*%
X139377500Y-99260000D03*
%TD*%
D41*
%TO.P,C16,1*%
%TO.N,/5V*%
X154272500Y-78840000D03*
%TO.P,C16,2*%
%TO.N,GND*%
X156347500Y-78840000D03*
%TD*%
%TO.P,C15,1*%
%TO.N,/HV*%
X154272500Y-75830000D03*
%TO.P,C15,2*%
%TO.N,GND*%
X156347500Y-75830000D03*
%TD*%
%TO.P,C13,1*%
%TO.N,Net-(C13-Pad1)*%
X154272500Y-72820000D03*
%TO.P,C13,2*%
%TO.N,/5V Out*%
X156347500Y-72820000D03*
%TD*%
%TO.P,C12,1*%
%TO.N,GND*%
X149462500Y-87870000D03*
%TO.P,C12,2*%
%TO.N,/HV*%
X151537500Y-87870000D03*
%TD*%
%TO.P,C11,1*%
%TO.N,/5V Out*%
X149462500Y-84860000D03*
%TO.P,C11,2*%
%TO.N,GND*%
X151537500Y-84860000D03*
%TD*%
%TO.P,C10,1*%
%TO.N,/Battery*%
X149462500Y-81850000D03*
%TO.P,C10,2*%
%TO.N,GND*%
X151537500Y-81850000D03*
%TD*%
%TO.P,C9,1*%
%TO.N,/3V3 Out*%
X149462500Y-78840000D03*
%TO.P,C9,2*%
%TO.N,GND*%
X151537500Y-78840000D03*
%TD*%
%TO.P,C8,1*%
%TO.N,/Vbat*%
X149462500Y-75830000D03*
%TO.P,C8,2*%
%TO.N,GND*%
X151537500Y-75830000D03*
%TD*%
%TO.P,C7,1*%
%TO.N,/5V*%
X149462500Y-72820000D03*
%TO.P,C7,2*%
%TO.N,GND*%
X151537500Y-72820000D03*
%TD*%
%TO.P,C6,1*%
%TO.N,GND*%
X144652500Y-87870000D03*
%TO.P,C6,2*%
%TO.N,Net-(U2-VINT)*%
X146727500Y-87870000D03*
%TD*%
%TO.P,C5,1*%
%TO.N,/Battery*%
X144652500Y-84860000D03*
%TO.P,C5,2*%
%TO.N,GND*%
X146727500Y-84860000D03*
%TD*%
%TO.P,C4,1*%
%TO.N,/Battery*%
X144652500Y-81850000D03*
%TO.P,C4,2*%
%TO.N,Net-(U2-VCP)*%
X146727500Y-81850000D03*
%TD*%
%TO.P,C3,1*%
%TO.N,/Battery*%
X144652500Y-78840000D03*
%TO.P,C3,2*%
%TO.N,Net-(U1-VCP)*%
X146727500Y-78840000D03*
%TD*%
%TO.P,C2,1*%
%TO.N,GND*%
X144652500Y-75830000D03*
%TO.P,C2,2*%
%TO.N,Net-(U1-VINT)*%
X146727500Y-75830000D03*
%TD*%
%TO.P,C1,1*%
%TO.N,/Battery*%
X144652500Y-72820000D03*
%TO.P,C1,2*%
%TO.N,GND*%
X146727500Y-72820000D03*
%TD*%
M02*
