%TF.GenerationSoftware,KiCad,Pcbnew,9.0.0*%
%TF.CreationDate,2025-03-27T10:14:57+02:00*%
%TF.ProjectId,,58585858-5858-4585-9858-585858585858,rev?*%
%TF.SameCoordinates,Original*%
%TF.FileFunction,Soldermask,Top*%
%TF.FilePolarity,Negative*%
%FSLAX46Y46*%
G04 Gerber Fmt 4.6, Leading zero omitted, Abs format (unit mm)*
G04 Created by KiCad (PCBNEW 9.0.0) date 2025-03-27 10:14:57*
%MOMM*%
%LPD*%
G01*
G04 APERTURE LIST*
G04 Aperture macros list*
%AMRoundRect*
0 Rectangle with rounded corners*
0 $1 Rounding radius*
0 $2 $3 $4 $5 $6 $7 $8 $9 X,Y pos of 4 corners*
0 Add a 4 corners polygon primitive as box body*
4,1,4,$2,$3,$4,$5,$6,$7,$8,$9,$2,$3,0*
0 Add four circle primitives for the rounded corners*
1,1,$1+$1,$2,$3*
1,1,$1+$1,$4,$5*
1,1,$1+$1,$6,$7*
1,1,$1+$1,$8,$9*
0 Add four rect primitives between the rounded corners*
20,1,$1+$1,$2,$3,$4,$5,0*
20,1,$1+$1,$4,$5,$6,$7,0*
20,1,$1+$1,$6,$7,$8,$9,0*
20,1,$1+$1,$8,$9,$2,$3,0*%
%AMFreePoly0*
4,1,9,3.862500,-0.866500,0.737500,-0.866500,0.737500,-0.450000,-0.737500,-0.450000,-0.737500,0.450000,0.737500,0.450000,0.737500,0.866500,3.862500,0.866500,3.862500,-0.866500,3.862500,-0.866500,$1*%
%AMFreePoly1*
4,1,30,0.400000,-4.000000,-0.400000,-4.000000,-2.400000,-4.000000,-2.400000,-3.200000,-0.400000,-3.200000,-0.400000,-2.800000,-2.400000,-2.800000,-2.400000,-2.000000,-0.400000,-2.000000,-0.400000,-1.600000,-2.400000,-1.600000,-2.400000,-0.800000,-0.400000,-0.800000,-0.400000,-0.400000,-2.400000,-0.400000,-2.400000,0.400000,-0.400000,0.400000,-0.400000,0.800000,-2.400000,0.800000,-2.400000,1.600000,
-0.400000,1.600000,-0.400000,2.000000,-2.400000,2.000000,-2.400000,2.800000,-0.400000,2.800000,-0.400000,3.200000,-2.400000,3.200000,-2.400000,4.000000,0.400000,4.000000,0.400000,-4.000000,0.400000,-4.000000,$1*%
%AMFreePoly2*
4,1,13,2.850000,-5.050000,1.450000,-5.050000,1.450000,-4.350000,-1.450000,-4.350000,-1.450000,-4.850000,-5.150000,-4.850000,-5.150000,4.850000,-1.450000,4.850000,-1.450000,4.350000,1.450000,4.350000,1.450000,5.050000,2.850000,5.050000,2.850000,-5.050000,2.850000,-5.050000,$1*%
G04 Aperture macros list end*
%ADD10RoundRect,0.100000X-0.680000X-0.100000X0.680000X-0.100000X0.680000X0.100000X-0.680000X0.100000X0*%
%ADD11RoundRect,0.225000X-0.425000X-0.225000X0.425000X-0.225000X0.425000X0.225000X-0.425000X0.225000X0*%
%ADD12FreePoly0,0.000000*%
%ADD13RoundRect,0.150000X-0.825000X-0.150000X0.825000X-0.150000X0.825000X0.150000X-0.825000X0.150000X0*%
%ADD14R,2.410000X3.300000*%
%ADD15RoundRect,0.075000X-0.247500X-0.075000X0.247500X-0.075000X0.247500X0.075000X-0.247500X0.075000X0*%
%ADD16R,1.010000X1.700000*%
%ADD17RoundRect,0.150000X-0.512500X-0.150000X0.512500X-0.150000X0.512500X0.150000X-0.512500X0.150000X0*%
%ADD18RoundRect,0.100000X-0.637500X-0.100000X0.637500X-0.100000X0.637500X0.100000X-0.637500X0.100000X0*%
%ADD19O,2.200000X3.500000*%
%ADD20R,1.500000X2.500000*%
%ADD21O,1.500000X2.500000*%
%ADD22RoundRect,0.250000X-0.400000X-0.625000X0.400000X-0.625000X0.400000X0.625000X-0.400000X0.625000X0*%
%ADD23RoundRect,0.243600X-1.406400X-0.771400X1.406400X-0.771400X1.406400X0.771400X-1.406400X0.771400X0*%
%ADD24RoundRect,0.190000X-0.510000X-0.190000X0.510000X-0.190000X0.510000X0.190000X-0.510000X0.190000X0*%
%ADD25RoundRect,0.100000X-0.217500X-0.100000X0.217500X-0.100000X0.217500X0.100000X-0.217500X0.100000X0*%
%ADD26RoundRect,0.250000X-0.350000X-0.450000X0.350000X-0.450000X0.350000X0.450000X-0.350000X0.450000X0*%
%ADD27RoundRect,0.237500X-0.250000X-0.237500X0.250000X-0.237500X0.250000X0.237500X-0.250000X0.237500X0*%
%ADD28R,2.800000X0.800000*%
%ADD29FreePoly1,0.000000*%
%ADD30FreePoly2,0.000000*%
%ADD31RoundRect,0.250001X-0.462499X-0.849999X0.462499X-0.849999X0.462499X0.849999X-0.462499X0.849999X0*%
%ADD32RoundRect,0.175000X-0.175000X-0.425000X0.175000X-0.425000X0.175000X0.425000X-0.175000X0.425000X0*%
%ADD33RoundRect,0.190000X0.190000X0.410000X-0.190000X0.410000X-0.190000X-0.410000X0.190000X-0.410000X0*%
%ADD34RoundRect,0.200000X0.200000X0.400000X-0.200000X0.400000X-0.200000X-0.400000X0.200000X-0.400000X0*%
%ADD35RoundRect,0.175000X0.175000X0.425000X-0.175000X0.425000X-0.175000X-0.425000X0.175000X-0.425000X0*%
%ADD36RoundRect,0.190000X-0.190000X-0.410000X0.190000X-0.410000X0.190000X0.410000X-0.190000X0.410000X0*%
%ADD37RoundRect,0.200000X-0.200000X-0.400000X0.200000X-0.400000X0.200000X0.400000X-0.200000X0.400000X0*%
%ADD38O,1.100000X1.700000*%
%ADD39RoundRect,0.250000X-1.000000X-0.650000X1.000000X-0.650000X1.000000X0.650000X-1.000000X0.650000X0*%
%ADD40RoundRect,0.250000X-0.337500X-0.475000X0.337500X-0.475000X0.337500X0.475000X-0.337500X0.475000X0*%
G04 APERTURE END LIST*
D10*
%TO.C,U10*%
X143800000Y-104540000D03*
X143800000Y-105190000D03*
X143800000Y-105850000D03*
X143800000Y-106500000D03*
X146500000Y-106500000D03*
X146500000Y-105850000D03*
X146500000Y-105190000D03*
X146500000Y-104540000D03*
%TD*%
D11*
%TO.C,U9*%
X144710000Y-97100000D03*
D12*
X144797500Y-98600000D03*
D11*
X144710000Y-100100000D03*
%TD*%
D13*
%TO.C,U8*%
X168585000Y-79345000D03*
X168585000Y-80615000D03*
X168585000Y-81885000D03*
X168585000Y-83155000D03*
X173535000Y-83155000D03*
X173535000Y-81885000D03*
X173535000Y-80615000D03*
X173535000Y-79345000D03*
D14*
X171060000Y-81250000D03*
%TD*%
D15*
%TO.C,U6*%
X138667500Y-95965000D03*
X138667500Y-96615000D03*
X138667500Y-97265000D03*
X140722500Y-97265000D03*
X140722500Y-96615000D03*
X140722500Y-95965000D03*
D16*
X139695000Y-96615000D03*
%TD*%
D17*
%TO.C,U5*%
X168272500Y-85925000D03*
X168272500Y-86875000D03*
X168272500Y-87825000D03*
X170547500Y-87825000D03*
X170547500Y-85925000D03*
%TD*%
D11*
%TO.C,U4*%
X144710000Y-90975000D03*
D12*
X144797500Y-92475000D03*
D11*
X144710000Y-93975000D03*
%TD*%
D13*
%TO.C,U3*%
X168585000Y-72765000D03*
X168585000Y-74035000D03*
X168585000Y-75305000D03*
X168585000Y-76575000D03*
X173535000Y-76575000D03*
X173535000Y-75305000D03*
X173535000Y-74035000D03*
X173535000Y-72765000D03*
%TD*%
D18*
%TO.C,U2*%
X159602500Y-78925000D03*
X159602500Y-79575000D03*
X159602500Y-80225000D03*
X159602500Y-80875000D03*
X159602500Y-81525000D03*
X159602500Y-82175000D03*
X159602500Y-82825000D03*
X159602500Y-83475000D03*
X165327500Y-83475000D03*
X165327500Y-82825000D03*
X165327500Y-82175000D03*
X165327500Y-81525000D03*
X165327500Y-80875000D03*
X165327500Y-80225000D03*
X165327500Y-79575000D03*
X165327500Y-78925000D03*
%TD*%
%TO.C,U1*%
X159602500Y-72335000D03*
X159602500Y-72985000D03*
X159602500Y-73635000D03*
X159602500Y-74285000D03*
X159602500Y-74935000D03*
X159602500Y-75585000D03*
X159602500Y-76235000D03*
X159602500Y-76885000D03*
X165327500Y-76885000D03*
X165327500Y-76235000D03*
X165327500Y-75585000D03*
X165327500Y-74935000D03*
X165327500Y-74285000D03*
X165327500Y-73635000D03*
X165327500Y-72985000D03*
X165327500Y-72335000D03*
%TD*%
D19*
%TO.C,SW1*%
X166410000Y-92600000D03*
X174610000Y-92600000D03*
D20*
X168510000Y-92600000D03*
D21*
X170510000Y-92600000D03*
X172510000Y-92600000D03*
%TD*%
D22*
%TO.C,R16*%
X138760000Y-89410000D03*
X141860000Y-89410000D03*
%TD*%
%TO.C,R15*%
X138760000Y-86120000D03*
X141860000Y-86120000D03*
%TD*%
D23*
%TO.C,R14*%
X177500000Y-105500000D03*
D24*
X176550000Y-107405000D03*
X183410000Y-104865000D03*
D23*
X182460000Y-106770000D03*
%TD*%
D25*
%TO.C,R12*%
X150432500Y-107170000D03*
X151247500Y-107170000D03*
%TD*%
D26*
%TO.C,R11*%
X138710000Y-103360000D03*
X140710000Y-103360000D03*
%TD*%
D25*
%TO.C,R8*%
X150432500Y-105420000D03*
X151247500Y-105420000D03*
%TD*%
D27*
%TO.C,R7*%
X138597500Y-106090000D03*
X140422500Y-106090000D03*
%TD*%
D25*
%TO.C,R6*%
X150432500Y-103670000D03*
X151247500Y-103670000D03*
%TD*%
%TO.C,R5*%
X150432500Y-101920000D03*
X151247500Y-101920000D03*
%TD*%
D22*
%TO.C,R4*%
X138760000Y-82830000D03*
X141860000Y-82830000D03*
%TD*%
%TO.C,R3*%
X138760000Y-79540000D03*
X141860000Y-79540000D03*
%TD*%
%TO.C,R2*%
X138760000Y-76250000D03*
X141860000Y-76250000D03*
%TD*%
%TO.C,R1*%
X138760000Y-72960000D03*
X141860000Y-72960000D03*
%TD*%
D28*
%TO.C,Q2*%
X151610000Y-91025000D03*
D29*
X152610000Y-95825000D03*
D30*
X160660000Y-95225000D03*
%TD*%
D31*
%TO.C,L1*%
X138817500Y-92930000D03*
X141142500Y-92930000D03*
%TD*%
D32*
%TO.C,J2*%
X130820000Y-73120000D03*
D33*
X132840000Y-73120000D03*
D34*
X134070000Y-73120000D03*
D35*
X131820000Y-73120000D03*
D36*
X129800000Y-73120000D03*
D37*
X128570000Y-73120000D03*
D38*
X127000000Y-73200000D03*
X127000000Y-77000000D03*
X135640000Y-73200000D03*
X135640000Y-77000000D03*
%TD*%
D25*
%TO.C,D3*%
X138562500Y-101010000D03*
X139377500Y-101010000D03*
%TD*%
D39*
%TO.C,D2*%
X159785000Y-86770000D03*
X163785000Y-86770000D03*
%TD*%
D25*
%TO.C,D1*%
X138562500Y-99260000D03*
X139377500Y-99260000D03*
%TD*%
D40*
%TO.C,C16*%
X154272500Y-78840000D03*
X156347500Y-78840000D03*
%TD*%
%TO.C,C15*%
X154272500Y-75830000D03*
X156347500Y-75830000D03*
%TD*%
%TO.C,C13*%
X154272500Y-72820000D03*
X156347500Y-72820000D03*
%TD*%
%TO.C,C12*%
X149462500Y-87870000D03*
X151537500Y-87870000D03*
%TD*%
%TO.C,C11*%
X149462500Y-84860000D03*
X151537500Y-84860000D03*
%TD*%
%TO.C,C10*%
X149462500Y-81850000D03*
X151537500Y-81850000D03*
%TD*%
%TO.C,C9*%
X149462500Y-78840000D03*
X151537500Y-78840000D03*
%TD*%
%TO.C,C8*%
X149462500Y-75830000D03*
X151537500Y-75830000D03*
%TD*%
%TO.C,C7*%
X149462500Y-72820000D03*
X151537500Y-72820000D03*
%TD*%
%TO.C,C6*%
X144652500Y-87870000D03*
X146727500Y-87870000D03*
%TD*%
%TO.C,C5*%
X144652500Y-84860000D03*
X146727500Y-84860000D03*
%TD*%
%TO.C,C4*%
X144652500Y-81850000D03*
X146727500Y-81850000D03*
%TD*%
%TO.C,C3*%
X144652500Y-78840000D03*
X146727500Y-78840000D03*
%TD*%
%TO.C,C2*%
X144652500Y-75830000D03*
X146727500Y-75830000D03*
%TD*%
%TO.C,C1*%
X144652500Y-72820000D03*
X146727500Y-72820000D03*
%TD*%
M02*
