%TF.GenerationSoftware,KiCad,Pcbnew,9.0.0*%
%TF.CreationDate,2025-03-28T12:19:08+02:00*%
%TF.ProjectId,EEE3088F_2025_Project,45454533-3038-4384-965f-323032355f50,rev?*%
%TF.SameCoordinates,Original*%
%TF.FileFunction,Copper,L1,Top*%
%TF.FilePolarity,Positive*%
%FSLAX46Y46*%
G04 Gerber Fmt 4.6, Leading zero omitted, Abs format (unit mm)*
G04 Created by KiCad (PCBNEW 9.0.0) date 2025-03-28 12:19:08*
%MOMM*%
%LPD*%
G01*
G04 APERTURE LIST*
G04 Aperture macros list*
%AMRoundRect*
0 Rectangle with rounded corners*
0 $1 Rounding radius*
0 $2 $3 $4 $5 $6 $7 $8 $9 X,Y pos of 4 corners*
0 Add a 4 corners polygon primitive as box body*
4,1,4,$2,$3,$4,$5,$6,$7,$8,$9,$2,$3,0*
0 Add four circle primitives for the rounded corners*
1,1,$1+$1,$2,$3*
1,1,$1+$1,$4,$5*
1,1,$1+$1,$6,$7*
1,1,$1+$1,$8,$9*
0 Add four rect primitives between the rounded corners*
20,1,$1+$1,$2,$3,$4,$5,0*
20,1,$1+$1,$4,$5,$6,$7,0*
20,1,$1+$1,$6,$7,$8,$9,0*
20,1,$1+$1,$8,$9,$2,$3,0*%
%AMFreePoly0*
4,1,9,3.862500,-0.866500,0.737500,-0.866500,0.737500,-0.450000,-0.737500,-0.450000,-0.737500,0.450000,0.737500,0.450000,0.737500,0.866500,3.862500,0.866500,3.862500,-0.866500,3.862500,-0.866500,$1*%
G04 Aperture macros list end*
%TA.AperFunction,SMDPad,CuDef*%
%ADD10RoundRect,0.100000X-0.680000X-0.100000X0.680000X-0.100000X0.680000X0.100000X-0.680000X0.100000X0*%
%TD*%
%TA.AperFunction,SMDPad,CuDef*%
%ADD11R,1.000000X1.500000*%
%TD*%
%TA.AperFunction,SMDPad,CuDef*%
%ADD12R,0.622500X1.105000*%
%TD*%
%TA.AperFunction,SMDPad,CuDef*%
%ADD13RoundRect,0.250000X-0.337500X-0.475000X0.337500X-0.475000X0.337500X0.475000X-0.337500X0.475000X0*%
%TD*%
%TA.AperFunction,SMDPad,CuDef*%
%ADD14RoundRect,0.250000X-0.350000X-0.450000X0.350000X-0.450000X0.350000X0.450000X-0.350000X0.450000X0*%
%TD*%
%TA.AperFunction,ComponentPad*%
%ADD15C,2.000000*%
%TD*%
%TA.AperFunction,SMDPad,CuDef*%
%ADD16R,1.207500X1.701000*%
%TD*%
%TA.AperFunction,SMDPad,CuDef*%
%ADD17R,1.282500X3.456000*%
%TD*%
%TA.AperFunction,SMDPad,CuDef*%
%ADD18RoundRect,0.250001X-0.462499X-0.849999X0.462499X-0.849999X0.462499X0.849999X-0.462499X0.849999X0*%
%TD*%
%TA.AperFunction,ComponentPad*%
%ADD19C,5.600000*%
%TD*%
%TA.AperFunction,SMDPad,CuDef*%
%ADD20RoundRect,0.100000X-0.217500X-0.100000X0.217500X-0.100000X0.217500X0.100000X-0.217500X0.100000X0*%
%TD*%
%TA.AperFunction,SMDPad,CuDef*%
%ADD21RoundRect,0.150000X-0.825000X-0.150000X0.825000X-0.150000X0.825000X0.150000X-0.825000X0.150000X0*%
%TD*%
%TA.AperFunction,HeatsinkPad*%
%ADD22C,0.500000*%
%TD*%
%TA.AperFunction,HeatsinkPad*%
%ADD23R,2.410000X3.300000*%
%TD*%
%TA.AperFunction,ComponentPad*%
%ADD24RoundRect,0.250000X0.350000X0.625000X-0.350000X0.625000X-0.350000X-0.625000X0.350000X-0.625000X0*%
%TD*%
%TA.AperFunction,ComponentPad*%
%ADD25O,1.200000X1.750000*%
%TD*%
%TA.AperFunction,SMDPad,CuDef*%
%ADD26RoundRect,0.100000X-0.637500X-0.100000X0.637500X-0.100000X0.637500X0.100000X-0.637500X0.100000X0*%
%TD*%
%TA.AperFunction,ComponentPad*%
%ADD27R,1.700000X1.700000*%
%TD*%
%TA.AperFunction,ComponentPad*%
%ADD28O,1.700000X1.700000*%
%TD*%
%TA.AperFunction,SMDPad,CuDef*%
%ADD29RoundRect,0.175000X0.175000X0.425000X-0.175000X0.425000X-0.175000X-0.425000X0.175000X-0.425000X0*%
%TD*%
%TA.AperFunction,SMDPad,CuDef*%
%ADD30RoundRect,0.190000X-0.190000X-0.410000X0.190000X-0.410000X0.190000X0.410000X-0.190000X0.410000X0*%
%TD*%
%TA.AperFunction,SMDPad,CuDef*%
%ADD31RoundRect,0.200000X-0.200000X-0.400000X0.200000X-0.400000X0.200000X0.400000X-0.200000X0.400000X0*%
%TD*%
%TA.AperFunction,SMDPad,CuDef*%
%ADD32RoundRect,0.175000X-0.175000X-0.425000X0.175000X-0.425000X0.175000X0.425000X-0.175000X0.425000X0*%
%TD*%
%TA.AperFunction,SMDPad,CuDef*%
%ADD33RoundRect,0.190000X0.190000X0.410000X-0.190000X0.410000X-0.190000X-0.410000X0.190000X-0.410000X0*%
%TD*%
%TA.AperFunction,SMDPad,CuDef*%
%ADD34RoundRect,0.200000X0.200000X0.400000X-0.200000X0.400000X-0.200000X-0.400000X0.200000X-0.400000X0*%
%TD*%
%TA.AperFunction,HeatsinkPad*%
%ADD35O,1.100000X1.700000*%
%TD*%
%TA.AperFunction,SMDPad,CuDef*%
%ADD36RoundRect,0.237500X-0.250000X-0.237500X0.250000X-0.237500X0.250000X0.237500X-0.250000X0.237500X0*%
%TD*%
%TA.AperFunction,SMDPad,CuDef*%
%ADD37RoundRect,0.150000X-0.512500X-0.150000X0.512500X-0.150000X0.512500X0.150000X-0.512500X0.150000X0*%
%TD*%
%TA.AperFunction,SMDPad,CuDef*%
%ADD38RoundRect,0.225000X-0.425000X-0.225000X0.425000X-0.225000X0.425000X0.225000X-0.425000X0.225000X0*%
%TD*%
%TA.AperFunction,SMDPad,CuDef*%
%ADD39FreePoly0,0.000000*%
%TD*%
%TA.AperFunction,SMDPad,CuDef*%
%ADD40RoundRect,0.250000X-1.000000X-0.650000X1.000000X-0.650000X1.000000X0.650000X-1.000000X0.650000X0*%
%TD*%
%TA.AperFunction,ComponentPad*%
%ADD41O,3.500000X2.200000*%
%TD*%
%TA.AperFunction,ComponentPad*%
%ADD42R,2.500000X1.500000*%
%TD*%
%TA.AperFunction,ComponentPad*%
%ADD43O,2.500000X1.500000*%
%TD*%
%TA.AperFunction,SMDPad,CuDef*%
%ADD44RoundRect,0.075000X-0.247500X-0.075000X0.247500X-0.075000X0.247500X0.075000X-0.247500X0.075000X0*%
%TD*%
%TA.AperFunction,HeatsinkPad*%
%ADD45R,1.010000X1.700000*%
%TD*%
%TA.AperFunction,ViaPad*%
%ADD46C,0.600000*%
%TD*%
%TA.AperFunction,Conductor*%
%ADD47C,0.200000*%
%TD*%
G04 APERTURE END LIST*
D10*
%TO.P,U10,1,IN+*%
%TO.N,/IN+*%
X65000000Y-91000000D03*
%TO.P,U10,2,IN-*%
%TO.N,/IN-*%
X65000000Y-91650000D03*
%TO.P,U10,3,GND*%
%TO.N,GND*%
X65000000Y-92310000D03*
%TO.P,U10,4,VS*%
%TO.N,/3V3 Out*%
X65000000Y-92960000D03*
%TO.P,U10,5,SCL*%
%TO.N,/I2C1_SCL*%
X67700000Y-92960000D03*
%TO.P,U10,6,SDA*%
%TO.N,/I2C1_SDA*%
X67700000Y-92310000D03*
%TO.P,U10,7,A0*%
%TO.N,GND*%
X67700000Y-91650000D03*
%TO.P,U10,8,A1*%
%TO.N,/3V3 Out*%
X67700000Y-91000000D03*
%TD*%
D11*
%TO.P,JP2,1,A*%
%TO.N,Net-(JP2-A)*%
X73000000Y-86000000D03*
%TO.P,JP2,2,B*%
%TO.N,Net-(JP1-A)*%
X74300000Y-86000000D03*
%TD*%
D12*
%TO.P,U11,1,OUT*%
%TO.N,/EXT_LOAD2_OUT*%
X118551000Y-81000000D03*
%TO.P,U11,2,GND*%
%TO.N,GND*%
X119500000Y-81000000D03*
%TO.P,U11,3,~{FLG}*%
%TO.N,unconnected-(U11-~{FLG}-Pad3)*%
X120450000Y-81000000D03*
%TO.P,U11,4,EN*%
%TO.N,/CTRL_EXT_LOAD2*%
X120450000Y-78400000D03*
%TO.P,U11,5,IN*%
%TO.N,/5V Out*%
X118551000Y-78400000D03*
%TD*%
D13*
%TO.P,C7,1*%
%TO.N,/5V*%
X64925000Y-82000000D03*
%TO.P,C7,2*%
%TO.N,GND*%
X67000000Y-82000000D03*
%TD*%
D14*
%TO.P,R11,1*%
%TO.N,Net-(D2-A)*%
X100000000Y-105000000D03*
%TO.P,R11,2*%
%TO.N,Net-(C13-Pad1)*%
X102000000Y-105000000D03*
%TD*%
D12*
%TO.P,U4,1,VIN*%
%TO.N,/Battery*%
X71101000Y-116500000D03*
%TO.P,U4,2,GND*%
%TO.N,GND*%
X72050000Y-116500000D03*
%TO.P,U4,3,EN*%
%TO.N,/Battery*%
X73000000Y-116500000D03*
%TO.P,U4,4,NC*%
%TO.N,unconnected-(U4-NC-Pad4)*%
X73000000Y-113900000D03*
%TO.P,U4,5,VOUT*%
%TO.N,Net-(JP4-B)*%
X71101000Y-113900000D03*
%TD*%
D15*
%TO.P,TP6,1,1*%
%TO.N,Net-(JP3-B)*%
X103000000Y-92500000D03*
%TD*%
D16*
%TO.P,R3,1*%
%TO.N,GND*%
X46042000Y-84689500D03*
%TO.P,R3,2*%
%TO.N,Net-(U2-AISEN)*%
X49000000Y-84689500D03*
%TD*%
D17*
%TO.P,R9,1*%
%TO.N,/IN+*%
X54000000Y-91000000D03*
%TO.P,R9,2*%
%TO.N,/IN-*%
X60133000Y-91000000D03*
%TD*%
D18*
%TO.P,L1,1,1*%
%TO.N,/Battery*%
X101000000Y-98500000D03*
%TO.P,L1,2,2*%
%TO.N,Net-(D2-A)*%
X103325000Y-98500000D03*
%TD*%
D19*
%TO.P,H2,1*%
%TO.N,GND*%
X84500000Y-91000000D03*
%TD*%
D13*
%TO.P,C3,1*%
%TO.N,/Battery*%
X100348800Y-110000000D03*
%TO.P,C3,2*%
%TO.N,Net-(U1-VCP)*%
X102423800Y-110000000D03*
%TD*%
D15*
%TO.P,TP1,1,1*%
%TO.N,/IN-*%
X97000000Y-116500000D03*
%TD*%
D20*
%TO.P,R8,1*%
%TO.N,Net-(Q2-D)*%
X60185000Y-102250000D03*
%TO.P,R8,2*%
%TO.N,Net-(JP1-A)*%
X61000000Y-102250000D03*
%TD*%
D11*
%TO.P,JP1,1,A*%
%TO.N,Net-(JP1-A)*%
X63200000Y-85500000D03*
%TO.P,JP1,2,B*%
X64500000Y-85500000D03*
%TD*%
D21*
%TO.P,U8,1,TEMP*%
%TO.N,GND*%
X69500000Y-78500000D03*
%TO.P,U8,2,PROG*%
%TO.N,Net-(JP1-A)*%
X69500000Y-79770000D03*
%TO.P,U8,3,GND*%
%TO.N,GND*%
X69500000Y-81040000D03*
%TO.P,U8,4,V_{CC}*%
%TO.N,/5V*%
X69500000Y-82310000D03*
%TO.P,U8,5,BAT*%
%TO.N,/IN+*%
X74450000Y-82310000D03*
%TO.P,U8,6,~{STDBY}*%
%TO.N,Net-(U8-~{STDBY})*%
X74450000Y-81040000D03*
%TO.P,U8,7,~{CHRG}*%
%TO.N,Net-(U8-~{CHRG})*%
X74450000Y-79770000D03*
%TO.P,U8,8,CE*%
%TO.N,/5V*%
X74450000Y-78500000D03*
D22*
%TO.P,U8,9,EPAD*%
%TO.N,GND*%
X71275000Y-79205000D03*
X71275000Y-80405000D03*
X71275000Y-81605000D03*
D23*
X71975000Y-80405000D03*
D22*
X72675000Y-79205000D03*
X72675000Y-80405000D03*
X72675000Y-81605000D03*
%TD*%
D24*
%TO.P,J3,1,Pin_1*%
%TO.N,GND*%
X96500000Y-82700000D03*
D25*
%TO.P,J3,2,Pin_2*%
%TO.N,/IN+*%
X94500000Y-82700000D03*
%TD*%
D16*
%TO.P,R16,1*%
%TO.N,/I2C1_SCL*%
X46042000Y-95500000D03*
%TO.P,R16,2*%
%TO.N,/3V3 Out*%
X49000000Y-95500000D03*
%TD*%
D15*
%TO.P,TP8,1,1*%
%TO.N,Net-(U2-AISEN)*%
X113000000Y-79000000D03*
%TD*%
D26*
%TO.P,U1,1,~{SLEEP}*%
%TO.N,/3V3 Out*%
X115775000Y-101850000D03*
%TO.P,U1,2,AOUT1*%
%TO.N,/MOTOR1_A_OUT*%
X115775000Y-102500000D03*
%TO.P,U1,3,AISEN*%
%TO.N,Net-(U1-AISEN)*%
X115775000Y-103150000D03*
%TO.P,U1,4,AOUT2*%
%TO.N,/MOTOR1_B_OUT*%
X115775000Y-103800000D03*
%TO.P,U1,5,BOUT2*%
%TO.N,/Motor2_B_OUT*%
X115775000Y-104450000D03*
%TO.P,U1,6,BISEN*%
%TO.N,Net-(U1-BISEN)*%
X115775000Y-105100000D03*
%TO.P,U1,7,BOUT1*%
%TO.N,/Motor2_A_OUT*%
X115775000Y-105750000D03*
%TO.P,U1,8,~{FAULT}*%
%TO.N,unconnected-(U1-~{FAULT}-Pad8)*%
X115775000Y-106400000D03*
%TO.P,U1,9,BIN1*%
%TO.N,/MOTOR2_CTRL1*%
X121500000Y-106400000D03*
%TO.P,U1,10,BIN2*%
%TO.N,/MOTOR2_CTRL2*%
X121500000Y-105750000D03*
%TO.P,U1,11,VCP*%
%TO.N,Net-(U1-VCP)*%
X121500000Y-105100000D03*
%TO.P,U1,12,VM*%
%TO.N,/Battery*%
X121500000Y-104450000D03*
%TO.P,U1,13,GND*%
%TO.N,GND*%
X121500000Y-103800000D03*
%TO.P,U1,14,VINT*%
%TO.N,Net-(U1-VINT)*%
X121500000Y-103150000D03*
%TO.P,U1,15,AIN2*%
%TO.N,/MOTOR1_CTRL2*%
X121500000Y-102500000D03*
%TO.P,U1,16,AIN1*%
%TO.N,/MOTOR1_CTRL1*%
X121500000Y-101850000D03*
%TD*%
D20*
%TO.P,C16,1*%
%TO.N,Net-(JP3-B)*%
X67525000Y-97000000D03*
%TO.P,C16,2*%
%TO.N,GND*%
X68340000Y-97000000D03*
%TD*%
D16*
%TO.P,R4,1*%
%TO.N,GND*%
X46042000Y-88000000D03*
%TO.P,R4,2*%
%TO.N,Net-(U2-BISEN)*%
X49000000Y-88000000D03*
%TD*%
D13*
%TO.P,C14,1*%
%TO.N,/Battery*%
X67000000Y-114500000D03*
%TO.P,C14,2*%
%TO.N,GND*%
X69075000Y-114500000D03*
%TD*%
D16*
%TO.P,R1,1*%
%TO.N,GND*%
X46042000Y-78068500D03*
%TO.P,R1,2*%
%TO.N,Net-(U1-AISEN)*%
X49000000Y-78068500D03*
%TD*%
D13*
%TO.P,C2,1*%
%TO.N,GND*%
X113500000Y-110000000D03*
%TO.P,C2,2*%
%TO.N,Net-(U1-VINT)*%
X115575000Y-110000000D03*
%TD*%
%TO.P,C13,1*%
%TO.N,Net-(C13-Pad1)*%
X109925000Y-103000000D03*
%TO.P,C13,2*%
%TO.N,/5V Out*%
X112000000Y-103000000D03*
%TD*%
D27*
%TO.P,J1,1,Pin_1*%
%TO.N,/Motor2_B_OUT*%
X103600000Y-124500000D03*
D28*
%TO.P,J1,2,Pin_2*%
%TO.N,/Motor2_A_OUT*%
X103600000Y-127040000D03*
%TO.P,J1,3,Pin_3*%
%TO.N,/Motor4_A_OUT*%
X101060000Y-124500000D03*
%TO.P,J1,4,Pin_4*%
%TO.N,/MOTOR2_CTRL1*%
X101060000Y-127040000D03*
%TO.P,J1,5,Pin_5*%
%TO.N,/Motor4_B_OUT*%
X98520000Y-124500000D03*
%TO.P,J1,6,Pin_6*%
%TO.N,/MOTOR2_CTRL2*%
X98520000Y-127040000D03*
%TO.P,J1,7,Pin_7*%
%TO.N,/CTRL_EXT_LOAD2*%
X95980000Y-124500000D03*
%TO.P,J1,8,Pin_8*%
%TO.N,/MOTOR4_CTRL1*%
X95980000Y-127040000D03*
%TO.P,J1,9,Pin_9*%
%TO.N,/USART2_RX*%
X93440000Y-124500000D03*
%TO.P,J1,10,Pin_10*%
%TO.N,/MOTOR4_CTRL2*%
X93440000Y-127040000D03*
%TO.P,J1,11,Pin_11*%
%TO.N,/EXT_LOAD2_OUT*%
X90900000Y-124500000D03*
%TO.P,J1,12,Pin_12*%
%TO.N,/USART2_TX*%
X90900000Y-127040000D03*
%TO.P,J1,13,Pin_13*%
%TO.N,/FAST_CHARGE_CTRL*%
X88360000Y-124500000D03*
%TO.P,J1,14,Pin_14*%
%TO.N,/Battery*%
X88360000Y-127040000D03*
%TO.P,J1,15,Pin_15*%
%TO.N,unconnected-(J1-Pin_15-Pad15)*%
X85820000Y-124500000D03*
%TO.P,J1,16,Pin_16*%
%TO.N,/I2C1_SCL*%
X85820000Y-127040000D03*
%TO.P,J1,17,Pin_17*%
%TO.N,/I2C1_SDA*%
X83280000Y-124500000D03*
%TO.P,J1,18,Pin_18*%
%TO.N,/3V3 Out*%
X83280000Y-127040000D03*
%TO.P,J1,19,Pin_19*%
%TO.N,GND*%
X80740000Y-124500000D03*
%TO.P,J1,20,Pin_20*%
%TO.N,/5V Out*%
X80740000Y-127040000D03*
%TO.P,J1,21,Pin_21*%
%TO.N,/EXT_LOAD1_OUT*%
X78200000Y-124500000D03*
%TO.P,J1,22,Pin_22*%
%TO.N,/HV*%
X78200000Y-127040000D03*
%TO.P,J1,23,Pin_23*%
%TO.N,GND*%
X75660000Y-124500000D03*
%TO.P,J1,24,Pin_24*%
%TO.N,/MOTOR3_CTRL1*%
X75660000Y-127040000D03*
%TO.P,J1,25,Pin_25*%
%TO.N,/CTRL_EXT_LOAD1*%
X73120000Y-124500000D03*
%TO.P,J1,26,Pin_26*%
%TO.N,/MOTOR3_CTRL2*%
X73120000Y-127040000D03*
%TO.P,J1,27,Pin_27*%
%TO.N,/MOTOR3_A_OUT*%
X70580000Y-124500000D03*
%TO.P,J1,28,Pin_28*%
%TO.N,/MOTOR1_CTRL1*%
X70580000Y-127040000D03*
%TO.P,J1,29,Pin_29*%
%TO.N,/MOTOR3_B_OUT*%
X68040000Y-124500000D03*
%TO.P,J1,30,Pin_30*%
%TO.N,/MOTOR1_CTRL2*%
X68040000Y-127040000D03*
%TO.P,J1,31,Pin_31*%
%TO.N,/MOTOR1_B_OUT*%
X65500000Y-124500000D03*
%TO.P,J1,32,Pin_32*%
%TO.N,/MOTOR1_A_OUT*%
X65500000Y-127040000D03*
%TD*%
D20*
%TO.P,C15,1*%
%TO.N,/HV*%
X70025000Y-97000000D03*
%TO.P,C15,2*%
%TO.N,GND*%
X70840000Y-97000000D03*
%TD*%
D29*
%TO.P,J2,A5,CC1*%
%TO.N,Net-(J2-CC1)*%
X57680000Y-82380000D03*
D30*
%TO.P,J2,A9,VBUS*%
%TO.N,/HV*%
X55660000Y-82380000D03*
D31*
%TO.P,J2,A12,GND*%
%TO.N,GND*%
X54430000Y-82380000D03*
D32*
%TO.P,J2,B5,CC2*%
%TO.N,Net-(J2-CC2)*%
X56680000Y-82380000D03*
D33*
%TO.P,J2,B9,VBUS*%
%TO.N,/HV*%
X58700000Y-82380000D03*
D34*
%TO.P,J2,B12,GND*%
%TO.N,GND*%
X59930000Y-82380000D03*
D35*
%TO.P,J2,S1,Shield*%
X61500000Y-82300000D03*
X61500000Y-78500000D03*
X52860000Y-82300000D03*
X52860000Y-78500000D03*
%TD*%
D13*
%TO.P,C5,1*%
%TO.N,/Battery*%
X111000000Y-94000000D03*
%TO.P,C5,2*%
%TO.N,GND*%
X113075000Y-94000000D03*
%TD*%
D19*
%TO.P,H1,1*%
%TO.N,GND*%
X84500000Y-81000000D03*
%TD*%
D20*
%TO.P,R12,1*%
%TO.N,Net-(JP2-A)*%
X60185000Y-104000000D03*
%TO.P,R12,2*%
%TO.N,GND*%
X61000000Y-104000000D03*
%TD*%
D36*
%TO.P,R7,1*%
%TO.N,GND*%
X54675000Y-98000000D03*
%TO.P,R7,2*%
%TO.N,Net-(U6-VSET)*%
X56500000Y-98000000D03*
%TD*%
D20*
%TO.P,D1,1,K*%
%TO.N,Net-(D1-K)*%
X54660000Y-111000000D03*
%TO.P,D1,2,A*%
%TO.N,/5V*%
X55475000Y-111000000D03*
%TD*%
D15*
%TO.P,TP12,1,1*%
%TO.N,Net-(JP4-B)*%
X96000000Y-106860000D03*
%TD*%
D13*
%TO.P,C8,1*%
%TO.N,/IN+*%
X64925000Y-78500000D03*
%TO.P,C8,2*%
%TO.N,GND*%
X67000000Y-78500000D03*
%TD*%
%TO.P,C12,1*%
%TO.N,GND*%
X105925000Y-109500000D03*
%TO.P,C12,2*%
%TO.N,/HV*%
X108000000Y-109500000D03*
%TD*%
D26*
%TO.P,U2,1,~{SLEEP}*%
%TO.N,/3V3 Out*%
X115775000Y-93350000D03*
%TO.P,U2,2,AOUT1*%
%TO.N,/MOTOR3_A_OUT*%
X115775000Y-94000000D03*
%TO.P,U2,3,AISEN*%
%TO.N,Net-(U2-AISEN)*%
X115775000Y-94650000D03*
%TO.P,U2,4,AOUT2*%
%TO.N,/MOTOR3_B_OUT*%
X115775000Y-95300000D03*
%TO.P,U2,5,BOUT2*%
X115775000Y-95950000D03*
%TO.P,U2,6,BISEN*%
%TO.N,Net-(U2-BISEN)*%
X115775000Y-96600000D03*
%TO.P,U2,7,BOUT1*%
%TO.N,/MOTOR3_A_OUT*%
X115775000Y-97250000D03*
%TO.P,U2,8,~{FAULT}*%
%TO.N,unconnected-(U2-~{FAULT}-Pad8)*%
X115775000Y-97900000D03*
%TO.P,U2,9,BIN1*%
%TO.N,/MOTOR4_CTRL1*%
X121500000Y-97900000D03*
%TO.P,U2,10,BIN2*%
%TO.N,/MOTOR4_CTRL2*%
X121500000Y-97250000D03*
%TO.P,U2,11,VCP*%
%TO.N,Net-(U2-VCP)*%
X121500000Y-96600000D03*
%TO.P,U2,12,VM*%
%TO.N,/Battery*%
X121500000Y-95950000D03*
%TO.P,U2,13,GND*%
%TO.N,GND*%
X121500000Y-95300000D03*
%TO.P,U2,14,VINT*%
%TO.N,Net-(U2-VINT)*%
X121500000Y-94650000D03*
%TO.P,U2,15,AIN2*%
%TO.N,/MOTOR3_CTRL2*%
X121500000Y-94000000D03*
%TO.P,U2,16,AIN1*%
%TO.N,/MOTOR3_CTRL1*%
X121500000Y-93350000D03*
%TD*%
D20*
%TO.P,R6,1*%
%TO.N,Net-(D3-K)*%
X60185000Y-100500000D03*
%TO.P,R6,2*%
%TO.N,Net-(U8-~{STDBY})*%
X61000000Y-100500000D03*
%TD*%
D37*
%TO.P,Q2,1,D*%
%TO.N,Net-(Q2-D)*%
X105225000Y-86550000D03*
%TO.P,Q2,2,G*%
%TO.N,/FAST_CHARGE_CTRL*%
X105225000Y-88450000D03*
%TO.P,Q2,3,S*%
%TO.N,GND*%
X107500000Y-87500000D03*
%TD*%
D15*
%TO.P,TP7,1,1*%
%TO.N,/5V Out*%
X108000000Y-116500000D03*
%TD*%
D37*
%TO.P,U5,1,SW*%
%TO.N,Net-(D2-A)*%
X94500000Y-98050000D03*
%TO.P,U5,2,GND*%
%TO.N,GND*%
X94500000Y-99000000D03*
%TO.P,U5,3,NC*%
%TO.N,unconnected-(U5-NC-Pad3)*%
X94500000Y-99950000D03*
%TO.P,U5,4,VOUT*%
%TO.N,/5V Out*%
X96775000Y-99950000D03*
%TO.P,U5,5,NC*%
%TO.N,unconnected-(U5-NC-Pad5)*%
X96775000Y-98050000D03*
%TD*%
D15*
%TO.P,TP10,1,1*%
%TO.N,/EXT_LOAD2_OUT*%
X76500000Y-108500000D03*
%TD*%
D13*
%TO.P,C6,1*%
%TO.N,GND*%
X111000000Y-97500000D03*
%TO.P,C6,2*%
%TO.N,Net-(U2-VINT)*%
X113075000Y-97500000D03*
%TD*%
D15*
%TO.P,TP4,1,1*%
%TO.N,/5V*%
X96000000Y-89000000D03*
%TD*%
D13*
%TO.P,C1,1*%
%TO.N,/Battery*%
X118000000Y-110000000D03*
%TO.P,C1,2*%
%TO.N,GND*%
X120075000Y-110000000D03*
%TD*%
%TO.P,C11,1*%
%TO.N,/5V Out*%
X94425000Y-94000000D03*
%TO.P,C11,2*%
%TO.N,GND*%
X96500000Y-94000000D03*
%TD*%
D15*
%TO.P,TP2,1,1*%
%TO.N,/EXT_LOAD1_OUT*%
X102000000Y-116500000D03*
%TD*%
D16*
%TO.P,R15,1*%
%TO.N,/I2C1_SDA*%
X46042000Y-92000000D03*
%TO.P,R15,2*%
%TO.N,/3V3 Out*%
X49000000Y-92000000D03*
%TD*%
D20*
%TO.P,R5,1*%
%TO.N,Net-(D1-K)*%
X60185000Y-98750000D03*
%TO.P,R5,2*%
%TO.N,Net-(U8-~{CHRG})*%
X61000000Y-98750000D03*
%TD*%
D38*
%TO.P,U9,1,OUT*%
%TO.N,Net-(JP3-B)*%
X72500000Y-90500000D03*
D39*
%TO.P,U9,2,GND*%
%TO.N,GND*%
X72587500Y-92000000D03*
D38*
%TO.P,U9,3,IN*%
%TO.N,/HV*%
X72500000Y-93500000D03*
%TD*%
D19*
%TO.P,H3,1*%
%TO.N,GND*%
X84550000Y-101000000D03*
%TD*%
D15*
%TO.P,TP3,1,1*%
%TO.N,Net-(Q2-D)*%
X105500000Y-79000000D03*
%TD*%
%TO.P,TP9,1,1*%
%TO.N,Net-(U1-AISEN)*%
X61000000Y-114000000D03*
%TD*%
D40*
%TO.P,D2,1,K*%
%TO.N,/5V Out*%
X67045000Y-108310000D03*
%TO.P,D2,2,A*%
%TO.N,Net-(D2-A)*%
X71045000Y-108310000D03*
%TD*%
D13*
%TO.P,C17,1*%
%TO.N,Net-(JP4-B)*%
X66925000Y-119000000D03*
%TO.P,C17,2*%
%TO.N,GND*%
X69000000Y-119000000D03*
%TD*%
D20*
%TO.P,D3,1,K*%
%TO.N,Net-(D3-K)*%
X54660000Y-114500000D03*
%TO.P,D3,2,A*%
%TO.N,/5V*%
X55475000Y-114500000D03*
%TD*%
D41*
%TO.P,SW1,*%
%TO.N,*%
X46500000Y-98900000D03*
X46500000Y-107100000D03*
D42*
%TO.P,SW1,1,A*%
%TO.N,/Battery*%
X46500000Y-101000000D03*
D43*
%TO.P,SW1,2,B*%
%TO.N,/IN-*%
X46500000Y-103000000D03*
%TO.P,SW1,3,C*%
%TO.N,unconnected-(SW1-C-Pad3)*%
X46500000Y-105000000D03*
%TD*%
D16*
%TO.P,R2,1*%
%TO.N,GND*%
X46042000Y-81379000D03*
%TO.P,R2,2*%
%TO.N,Net-(U1-BISEN)*%
X49000000Y-81379000D03*
%TD*%
D44*
%TO.P,U6,1,CC1*%
%TO.N,Net-(J2-CC1)*%
X54945000Y-105000000D03*
%TO.P,U6,2,VBUS*%
%TO.N,/HV*%
X54945000Y-105650000D03*
%TO.P,U6,3,VSET*%
%TO.N,Net-(U6-VSET)*%
X54945000Y-106300000D03*
%TO.P,U6,4,D+*%
%TO.N,unconnected-(U6-D+-Pad4)*%
X57000000Y-106300000D03*
%TO.P,U6,5,D-*%
%TO.N,unconnected-(U6-D--Pad5)*%
X57000000Y-105650000D03*
%TO.P,U6,6,CC2*%
%TO.N,Net-(J2-CC2)*%
X57000000Y-105000000D03*
D45*
%TO.P,U6,7,GND*%
%TO.N,GND*%
X55972500Y-105650000D03*
%TD*%
D11*
%TO.P,JP4,1,A*%
%TO.N,/3V3 Out*%
X76700000Y-115500000D03*
%TO.P,JP4,2,B*%
%TO.N,Net-(JP4-B)*%
X78000000Y-115500000D03*
%TD*%
%TO.P,JP3,1,A*%
%TO.N,/5V*%
X74000000Y-98500000D03*
%TO.P,JP3,2,B*%
%TO.N,Net-(JP3-B)*%
X75300000Y-98500000D03*
%TD*%
D12*
%TO.P,U7,1,OUT*%
%TO.N,/EXT_LOAD1_OUT*%
X118601000Y-88500000D03*
%TO.P,U7,2,GND*%
%TO.N,GND*%
X119550000Y-88500000D03*
%TO.P,U7,3,~{FLG}*%
%TO.N,unconnected-(U7-~{FLG}-Pad3)*%
X120500000Y-88500000D03*
%TO.P,U7,4,EN*%
%TO.N,/CTRL_EXT_LOAD1*%
X120500000Y-85900000D03*
%TO.P,U7,5,IN*%
%TO.N,/5V Out*%
X118601000Y-85900000D03*
%TD*%
D13*
%TO.P,C4,1*%
%TO.N,/Battery*%
X89500000Y-114699500D03*
%TO.P,C4,2*%
%TO.N,Net-(U2-VCP)*%
X91575000Y-114699500D03*
%TD*%
D46*
%TO.N,GND*%
X109874400Y-97780100D03*
X120248800Y-95300000D03*
X46042000Y-86067100D03*
X62109400Y-86601700D03*
X114952000Y-85168200D03*
X61651300Y-98090500D03*
X76693000Y-85669500D03*
X99491100Y-116384000D03*
X68968700Y-78235400D03*
X74012000Y-91556000D03*
X66274300Y-100546000D03*
X103219000Y-114462000D03*
X118000000Y-94783700D03*
X74040100Y-87257700D03*
X60531500Y-77243900D03*
X60438600Y-94665900D03*
X61033300Y-112100000D03*
X51589000Y-92245500D03*
X57484900Y-112610000D03*
X56391500Y-90500100D03*
X81717100Y-100270000D03*
X58535000Y-119052000D03*
X76360300Y-92007400D03*
X59916300Y-105766000D03*
X81495400Y-91011600D03*
X56099000Y-107024000D03*
X83724300Y-117011000D03*
X52547800Y-87739600D03*
X53775900Y-80975300D03*
X57714800Y-93739900D03*
X112369900Y-109824300D03*
X67547200Y-112460000D03*
X113891000Y-94783700D03*
X59339300Y-76923500D03*
X118645000Y-79966900D03*
X90652100Y-97996500D03*
X95150600Y-119825000D03*
X102050000Y-95535900D03*
X70246300Y-86346600D03*
X68987800Y-86077500D03*
X115816000Y-79852700D03*
X66409200Y-97769900D03*
X71592100Y-97633400D03*
X68967200Y-79037200D03*
X84873600Y-113770000D03*
X79322900Y-92609700D03*
X66162500Y-82119500D03*
X69042100Y-107168000D03*
X60561600Y-86849300D03*
X46042000Y-76679300D03*
X62949900Y-101090000D03*
X99971800Y-89202200D03*
X52687400Y-114605000D03*
X72820200Y-76571500D03*
X72249100Y-80841500D03*
X119550000Y-89570200D03*
X56736000Y-88644200D03*
X104826200Y-109597500D03*
X59023200Y-85038100D03*
X73136200Y-112617000D03*
X121201700Y-110314500D03*
X80334100Y-104873000D03*
X82666300Y-112428000D03*
X80527800Y-102213000D03*
X60423500Y-103956000D03*
X64700800Y-113386000D03*
X50391900Y-96477100D03*
X52673400Y-102247000D03*
X96501600Y-113561000D03*
X53533100Y-88923900D03*
X120247700Y-103800000D03*
X77564000Y-92189200D03*
X95705100Y-94494400D03*
X68996100Y-91052600D03*
X109630000Y-96771300D03*
X79026500Y-84903600D03*
X66207200Y-89533600D03*
X90913000Y-79501100D03*
X69278700Y-106052000D03*
X46042000Y-89388500D03*
X104967000Y-82008300D03*
X57516100Y-113463000D03*
X84610000Y-118260000D03*
X80362500Y-114182000D03*
X53666800Y-97769900D03*
X60898100Y-103280600D03*
X113208000Y-88000000D03*
X68125700Y-95946200D03*
X46042000Y-82758200D03*
X99971800Y-85825100D03*
X58315400Y-89268400D03*
X62863400Y-88771400D03*
X55567300Y-89282200D03*
X68057600Y-85105100D03*
X57316600Y-100756000D03*
X96944300Y-104740000D03*
X72833600Y-99957900D03*
X97815700Y-91143700D03*
X54351200Y-88662600D03*
X69760300Y-115719200D03*
X55772000Y-93240500D03*
X67232600Y-83216800D03*
X79418300Y-97986600D03*
X65898200Y-102304000D03*
X60086200Y-117838000D03*
X88362200Y-82802400D03*
X107500000Y-86685200D03*
X68087900Y-97860800D03*
X90971700Y-113387000D03*
X88329400Y-98033100D03*
X64427900Y-100654000D03*
X62079000Y-95440300D03*
X79325100Y-78928600D03*
X56809400Y-110320000D03*
X93321900Y-99000000D03*
X105777000Y-82838900D03*
X63709100Y-92310000D03*
X81338400Y-114294000D03*
X66027800Y-80671000D03*
X61769800Y-108727000D03*
X50631000Y-80275500D03*
X77096700Y-97328700D03*
X55500000Y-85050300D03*
X58534900Y-93432600D03*
X82668600Y-93035000D03*
X56396700Y-116136000D03*
X95232100Y-115735000D03*
X88273300Y-112901000D03*
X65890100Y-105257000D03*
X66913700Y-103096000D03*
X97450000Y-95990000D03*
X70103200Y-119509900D03*
X73852400Y-110804000D03*
X60027500Y-88502400D03*
X72629500Y-79246500D03*
X72050000Y-115416500D03*
X107634000Y-96640900D03*
X75475400Y-102305000D03*
%TO.N,/Battery*%
X70377000Y-96222900D03*
X63997200Y-96431600D03*
X65030300Y-115706800D03*
X71583200Y-96372900D03*
X58678900Y-103022000D03*
X114023400Y-100125900D03*
X69199300Y-95045200D03*
X114023400Y-95677000D03*
X62878600Y-95853300D03*
X117397000Y-109147000D03*
X84319800Y-112762000D03*
%TO.N,Net-(U1-VINT)*%
X119824000Y-102874600D03*
X120882600Y-107300800D03*
%TO.N,Net-(U1-VCP)*%
X102580000Y-96387400D03*
X102851000Y-109240000D03*
X80180500Y-92330300D03*
X79928700Y-96347100D03*
%TO.N,Net-(U2-VCP)*%
X62569200Y-80991300D03*
X61812300Y-89322500D03*
X71192900Y-88933000D03*
X64689300Y-79567200D03*
X92657400Y-110973100D03*
X90805200Y-94828100D03*
X72959800Y-97126900D03*
%TO.N,/5V*%
X65178800Y-82091900D03*
X74848700Y-77691900D03*
X73898800Y-97899100D03*
X73999000Y-99547000D03*
X78876100Y-117877000D03*
X71101700Y-82942300D03*
X82092700Y-87523200D03*
X97069400Y-88811300D03*
X76752600Y-112930000D03*
X75730500Y-88894000D03*
%TO.N,Net-(JP3-B)*%
X74971300Y-96135500D03*
X71659400Y-90579300D03*
X73869000Y-94233700D03*
X58678300Y-91343300D03*
X61986300Y-97284300D03*
X74072100Y-90061200D03*
X66123700Y-76997700D03*
%TO.N,/3V3 Out*%
X115129200Y-99715100D03*
X66349000Y-91805500D03*
X64513400Y-93019600D03*
X115129200Y-92418800D03*
X76509600Y-115033000D03*
%TO.N,/5V Out*%
X97713500Y-93668300D03*
X66531800Y-108343000D03*
X105755200Y-95845300D03*
X79619400Y-116414700D03*
X105755200Y-104107300D03*
X66419300Y-107258000D03*
X113559600Y-86250100D03*
X76738400Y-110486900D03*
X96804300Y-99061100D03*
%TO.N,/HV*%
X66401100Y-104242000D03*
X62341900Y-102531000D03*
X74743800Y-113228900D03*
X53961000Y-104630700D03*
X109305100Y-109658800D03*
X53589000Y-85910400D03*
X54363200Y-103172000D03*
X99502400Y-91183200D03*
X52850000Y-84131500D03*
X69522300Y-102442300D03*
X74635200Y-114726000D03*
X113824000Y-89168500D03*
X101829000Y-88000000D03*
X70187800Y-97868200D03*
%TO.N,Net-(C13-Pad1)*%
X102087000Y-105073000D03*
%TO.N,Net-(D1-K)*%
X53223800Y-99239100D03*
X52670800Y-109716300D03*
%TO.N,Net-(D2-A)*%
X94854800Y-105877600D03*
X95108400Y-97916700D03*
%TO.N,Net-(D3-K)*%
X50577400Y-109716300D03*
X51890700Y-101674600D03*
%TO.N,Net-(J2-CC1)*%
X53956900Y-87136700D03*
X51041600Y-103331700D03*
%TO.N,Net-(J2-CC2)*%
X56594900Y-83582900D03*
X57133100Y-104653000D03*
%TO.N,/FAST_CHARGE_CTRL*%
X91857900Y-123499400D03*
X75942800Y-122746600D03*
X61667700Y-91767200D03*
X103340900Y-88156200D03*
%TO.N,Net-(Q2-D)*%
X88429600Y-92739600D03*
X74106200Y-100399100D03*
X105447000Y-79434500D03*
X76511200Y-94008400D03*
X88429600Y-86223000D03*
%TO.N,Net-(U1-AISEN)*%
X57014300Y-106977500D03*
X75820100Y-100517000D03*
X56454300Y-91880800D03*
X58754500Y-105760700D03*
X62141500Y-113583000D03*
%TO.N,Net-(U1-BISEN)*%
X81448300Y-103156500D03*
X76830900Y-103799000D03*
X83300300Y-111320200D03*
X73453200Y-77166400D03*
X55660500Y-76133300D03*
%TO.N,Net-(U2-AISEN)*%
X48762100Y-86344700D03*
X79026500Y-80289400D03*
X70320600Y-101771000D03*
X114034900Y-92849300D03*
X49038400Y-98537200D03*
X70217100Y-99841800D03*
X83699500Y-97639800D03*
%TO.N,Net-(U2-BISEN)*%
X116050100Y-79022000D03*
X77814500Y-76499900D03*
X117182300Y-95600100D03*
%TO.N,Net-(U8-~{CHRG})*%
X52517900Y-92109800D03*
X52759400Y-98569500D03*
X70097000Y-104808500D03*
X68795800Y-101834100D03*
X63264500Y-98593000D03*
X63149700Y-102479900D03*
X92129800Y-105104700D03*
X77252700Y-79000600D03*
%TO.N,Net-(U8-~{STDBY})*%
X87256100Y-120637300D03*
X60102900Y-101389200D03*
X74462300Y-80509900D03*
X54234800Y-120162000D03*
X88534800Y-103897000D03*
X97882500Y-104694900D03*
X93969800Y-79657000D03*
%TO.N,Net-(U6-VSET)*%
X55852900Y-97997400D03*
X78781500Y-108011000D03*
X54109200Y-105885300D03*
X76847000Y-105798800D03*
%TO.N,Net-(JP1-A)*%
X62977000Y-85762900D03*
X69061000Y-80189600D03*
X62637400Y-87851800D03*
X68797500Y-101006100D03*
%TO.N,Net-(JP4-B)*%
X70574200Y-115284700D03*
X89279600Y-85197500D03*
X77550300Y-115707000D03*
X80598000Y-85507000D03*
X71460400Y-84195200D03*
X75691400Y-84201000D03*
X67729400Y-118642000D03*
%TO.N,/IN-*%
X71297800Y-87214800D03*
X59846200Y-89847600D03*
X60572300Y-89254200D03*
X73860100Y-96682100D03*
X88616900Y-100470000D03*
X50135500Y-94130500D03*
X49893300Y-103212000D03*
%TO.N,/IN+*%
X69993000Y-89842100D03*
X64857000Y-78652800D03*
X53711600Y-91310000D03*
X64592800Y-86790500D03*
X71560900Y-104763000D03*
%TO.N,/I2C1_SDA*%
X76751400Y-86738900D03*
X74294200Y-102842000D03*
X79785000Y-101770000D03*
%TO.N,/I2C1_SCL*%
X77763300Y-91104700D03*
X80289700Y-103799000D03*
X82087800Y-103981000D03*
%TO.N,unconnected-(SW1-C-Pad3)*%
X73072600Y-78217300D03*
X47159300Y-97222200D03*
X52533300Y-79853700D03*
%TO.N,/Motor2_A_OUT*%
X48663000Y-102654100D03*
X63637500Y-77840300D03*
X107578900Y-106753900D03*
X48663000Y-116845200D03*
X87929700Y-116141000D03*
X59338200Y-78983500D03*
X54723900Y-101997200D03*
X64480100Y-76997700D03*
X106479700Y-118237900D03*
%TO.N,/MOTOR1_CTRL2*%
X118088400Y-104250300D03*
X118088400Y-128493100D03*
%TO.N,/MOTOR1_B_OUT*%
X85785400Y-112358300D03*
X87672900Y-104919200D03*
X68170900Y-83020000D03*
X88023900Y-112010600D03*
X94677200Y-114491500D03*
X70717100Y-117922900D03*
X101052800Y-112702500D03*
X92844200Y-112603800D03*
X68364700Y-117727100D03*
X64902900Y-118606600D03*
X73108600Y-104186400D03*
X102135400Y-106417500D03*
X85385500Y-115964200D03*
%TO.N,/MOTOR1_A_OUT*%
X103384400Y-122116400D03*
X104990300Y-101047100D03*
%TO.N,/MOTOR2_CTRL2*%
X103925900Y-116259100D03*
X120636200Y-112700900D03*
X87468300Y-123022400D03*
X120223000Y-105846600D03*
X82799800Y-104645000D03*
%TO.N,/MOTOR1_CTRL1*%
X121851900Y-120259900D03*
X112160800Y-76305900D03*
X69412500Y-122344900D03*
X78722900Y-76633300D03*
X119674400Y-101651400D03*
X118369700Y-102965500D03*
%TO.N,/MOTOR2_CTRL1*%
X119621300Y-126469700D03*
X64333100Y-83905100D03*
X119621300Y-106635800D03*
X55658000Y-86519100D03*
X45441300Y-118666900D03*
X102330000Y-119424600D03*
X65720200Y-83587300D03*
%TO.N,/Motor2_B_OUT*%
X63617400Y-80946400D03*
X54315100Y-79546300D03*
X63155100Y-78915200D03*
X44440700Y-119540200D03*
X106835900Y-105795000D03*
X105608600Y-119609600D03*
%TO.N,/MOTOR3_A_OUT*%
X111062900Y-92268600D03*
X50995600Y-121660000D03*
X111062900Y-90679100D03*
X108266900Y-121603200D03*
%TO.N,/MOTOR4_CTRL2*%
X89589300Y-95593300D03*
%TO.N,/MOTOR3_B_OUT*%
X78471400Y-109715000D03*
X94167000Y-90974900D03*
X68687000Y-104674800D03*
X93580600Y-107261600D03*
X65498900Y-113959600D03*
X75990300Y-104142400D03*
X66941800Y-95834600D03*
%TO.N,/MOTOR3_CTRL2*%
X105603600Y-125287400D03*
X112557100Y-90411800D03*
%TO.N,unconnected-(U2-~{FAULT}-Pad8)*%
X66787600Y-98636100D03*
%TO.N,/MOTOR4_CTRL1*%
X65198000Y-80289900D03*
X62138200Y-85702100D03*
X51321900Y-88441100D03*
X96175200Y-119055600D03*
X49284100Y-118065200D03*
X99971800Y-108074500D03*
%TO.N,/MOTOR3_CTRL1*%
X72509100Y-106030600D03*
X72125700Y-110283700D03*
X74517100Y-106200500D03*
X76913700Y-87604200D03*
X75948100Y-80484400D03*
X66428000Y-109972000D03*
X74117100Y-76690600D03*
X69369600Y-77031900D03*
X71306800Y-76854400D03*
%TO.N,/CTRL_EXT_LOAD2*%
X96628300Y-121464300D03*
X121250600Y-79700000D03*
X122536700Y-120864000D03*
%TO.N,/EXT_LOAD1_OUT*%
X61889900Y-107044000D03*
X109029000Y-88334200D03*
X73567200Y-123047400D03*
X102992000Y-116200000D03*
X97495500Y-125556000D03*
X109029000Y-79957000D03*
X76601600Y-83177900D03*
X67473800Y-110807700D03*
%TO.N,/CTRL_EXT_LOAD1*%
X61644200Y-109936000D03*
X62709900Y-91767300D03*
X70001400Y-85073400D03*
X64390200Y-89569200D03*
X70577200Y-88397400D03*
X61737200Y-92782800D03*
%TO.N,/EXT_LOAD2_OUT*%
X90971700Y-109715000D03*
X118437800Y-82942200D03*
X90900000Y-116510600D03*
X118697500Y-112317200D03*
%TO.N,unconnected-(U5-NC-Pad5)*%
X98901100Y-104746000D03*
%TO.N,Net-(JP2-A)*%
X102851000Y-82816000D03*
X66507100Y-84187500D03*
X66973800Y-86336700D03*
%TD*%
D47*
%TO.N,GND*%
X119321100Y-79966900D02*
X119500000Y-80145800D01*
X105925000Y-109500000D02*
X105827500Y-109597500D01*
X46042000Y-81379000D02*
X46042000Y-82758200D01*
X68340000Y-97608700D02*
X68340000Y-97000000D01*
X113891000Y-94783700D02*
X113858700Y-94783700D01*
X61000000Y-104000000D02*
X61000000Y-103382500D01*
X94500000Y-99000000D02*
X93321900Y-99000000D01*
X69235400Y-78235400D02*
X69500000Y-78500000D01*
X69698500Y-80841500D02*
X69500000Y-81040000D01*
X74012000Y-91556000D02*
X73031500Y-91556000D01*
X68996100Y-91052600D02*
X68398700Y-91650000D01*
X105827500Y-109597500D02*
X104826200Y-109597500D01*
X69000000Y-119000000D02*
X69509900Y-119509900D01*
X61500000Y-82300000D02*
X61500000Y-83451700D01*
X53358300Y-83451700D02*
X54430000Y-82380000D01*
X119550000Y-89570200D02*
X119550000Y-88500000D01*
X121500000Y-103800000D02*
X120247700Y-103800000D01*
X110719900Y-97780100D02*
X111000000Y-97500000D01*
X68398700Y-91650000D02*
X67700000Y-91650000D01*
X61500000Y-83451700D02*
X61001700Y-83451700D01*
X46042000Y-84689500D02*
X46042000Y-86067100D01*
X107500000Y-87500000D02*
X107500000Y-86685200D01*
X120389500Y-110314500D02*
X120075000Y-110000000D01*
X119500000Y-81000000D02*
X119500000Y-80145800D01*
X61001700Y-83451700D02*
X59930000Y-82380000D01*
X55972500Y-106897500D02*
X55972500Y-105650000D01*
X96005600Y-94494400D02*
X96500000Y-94000000D01*
X109874400Y-97780100D02*
X110719900Y-97780100D01*
X53666800Y-97769900D02*
X54444900Y-97769900D01*
X121500000Y-95300000D02*
X120248800Y-95300000D01*
X61000000Y-103382500D02*
X60898100Y-103280600D01*
X54444900Y-97769900D02*
X54675000Y-98000000D01*
X52860000Y-83451700D02*
X53358300Y-83451700D01*
X66162500Y-82119500D02*
X66880500Y-82119500D01*
X56099000Y-107024000D02*
X55972500Y-106897500D01*
X121201700Y-110314500D02*
X120389500Y-110314500D01*
X72675000Y-80405000D02*
X71975000Y-80405000D01*
X66880500Y-82119500D02*
X67000000Y-82000000D01*
X65000000Y-92310000D02*
X63709100Y-92310000D01*
X73031500Y-91556000D02*
X72587500Y-92000000D01*
X71473400Y-97633400D02*
X71592100Y-97633400D01*
X72050000Y-115416500D02*
X72050000Y-116500000D01*
X52860000Y-82300000D02*
X52860000Y-83451700D01*
X113500000Y-110000000D02*
X113324300Y-109824300D01*
X46042000Y-76679300D02*
X46042000Y-78068500D01*
X72249100Y-80841500D02*
X69698500Y-80841500D01*
X69509900Y-119509900D02*
X70103200Y-119509900D01*
X46042000Y-88000000D02*
X46042000Y-89388500D01*
X68968700Y-78235400D02*
X69235400Y-78235400D01*
X95705100Y-94494400D02*
X96005600Y-94494400D01*
X69075000Y-114500000D02*
X69075000Y-115033900D01*
X68704100Y-78500000D02*
X68968700Y-78235400D01*
X113858700Y-94783700D02*
X113075000Y-94000000D01*
X69075000Y-115033900D02*
X69760300Y-115719200D01*
X118645000Y-79966900D02*
X119321100Y-79966900D01*
X68087900Y-97860800D02*
X68340000Y-97608700D01*
X113324300Y-109824300D02*
X112369900Y-109824300D01*
X67000000Y-78500000D02*
X68704100Y-78500000D01*
X70840000Y-97000000D02*
X71473400Y-97633400D01*
%TO.N,/Battery*%
X48057900Y-100993800D02*
X48051700Y-101000000D01*
X101134300Y-111079000D02*
X116921000Y-111079000D01*
X56650700Y-100993800D02*
X48057900Y-100993800D01*
X100348800Y-110293500D02*
X101134300Y-111079000D01*
X122576000Y-106632400D02*
X122576000Y-104861300D01*
X71583200Y-96372900D02*
X71433200Y-96222900D01*
X122961900Y-103676600D02*
X122961900Y-96748100D01*
X118000000Y-109750000D02*
X118000000Y-110000000D01*
X122961900Y-96748100D02*
X122163800Y-95950000D01*
X58678900Y-103022000D02*
X56650700Y-100993800D01*
X92351100Y-115741000D02*
X90541500Y-115741000D01*
X71101000Y-116927100D02*
X71101000Y-117354200D01*
X90541500Y-115741000D02*
X89500000Y-114699500D01*
X84319800Y-112762000D02*
X84724700Y-112762000D01*
X97798600Y-110293500D02*
X92351100Y-115741000D01*
X46500000Y-101000000D02*
X48051700Y-101000000D01*
X84894000Y-115036900D02*
X80139800Y-115036900D01*
X122163800Y-95950000D02*
X121500000Y-95950000D01*
X116921000Y-111079000D02*
X118000000Y-110000000D01*
X67000000Y-114500000D02*
X65793200Y-115706800D01*
X118016300Y-108527700D02*
X120680700Y-108527700D01*
X85231400Y-114699500D02*
X84894000Y-115036900D01*
X120680700Y-108527700D02*
X122576000Y-106632400D01*
X112677000Y-95677000D02*
X114023400Y-95677000D01*
X117397000Y-109147000D02*
X118016300Y-108527700D01*
X101000000Y-98500000D02*
X102625900Y-100125900D01*
X71101000Y-116927100D02*
X69429300Y-116927100D01*
X122164700Y-104450000D02*
X122137700Y-104450000D01*
X73000000Y-116500000D02*
X73000000Y-117187800D01*
X122188500Y-104450000D02*
X122961900Y-103676600D01*
X73000000Y-117187800D02*
X72833600Y-117354200D01*
X63997200Y-96431600D02*
X63456900Y-96431600D01*
X102625900Y-100125900D02*
X114023400Y-100125900D01*
X80139800Y-115036900D02*
X77988900Y-117187800D01*
X69429300Y-116927100D02*
X67002200Y-114500000D01*
X77988900Y-117187800D02*
X73000000Y-117187800D01*
X85492500Y-113529800D02*
X85492500Y-114699500D01*
X71433200Y-96222900D02*
X70377000Y-96222900D01*
X62878600Y-95853300D02*
X63686700Y-95045200D01*
X111000000Y-94000000D02*
X112677000Y-95677000D01*
X122137700Y-104450000D02*
X122188500Y-104450000D01*
X63686700Y-95045200D02*
X69199300Y-95045200D01*
X65793200Y-115706800D02*
X65030300Y-115706800D01*
X100348800Y-110000000D02*
X100348800Y-110293500D01*
X121500000Y-104450000D02*
X122137700Y-104450000D01*
X71101000Y-116500000D02*
X71101000Y-116927100D01*
X72833600Y-117354200D02*
X71101000Y-117354200D01*
X84724700Y-112762000D02*
X85492500Y-113529800D01*
X67002200Y-114500000D02*
X67000000Y-114500000D01*
X85492500Y-114699500D02*
X89500000Y-114699500D01*
X63456900Y-96431600D02*
X62878600Y-95853300D01*
X122576000Y-104861300D02*
X122164700Y-104450000D01*
X100348800Y-110293500D02*
X97798600Y-110293500D01*
X117397000Y-109147000D02*
X118000000Y-109750000D01*
X85492500Y-114699500D02*
X85231400Y-114699500D01*
%TO.N,Net-(U1-VINT)*%
X115575000Y-110000000D02*
X118274200Y-107300800D01*
X120099400Y-103150000D02*
X121500000Y-103150000D01*
X119824000Y-102874600D02*
X120099400Y-103150000D01*
X118274200Y-107300800D02*
X120882600Y-107300800D01*
%TO.N,Net-(U1-VCP)*%
X102423800Y-110000000D02*
X102423800Y-109667200D01*
X97693000Y-96598000D02*
X98093100Y-96197900D01*
X104276100Y-108309700D02*
X116421400Y-108309700D01*
X91719100Y-96598000D02*
X97693000Y-96598000D01*
X103345800Y-109240000D02*
X104276100Y-108309700D01*
X87372900Y-96347100D02*
X88739900Y-94980100D01*
X98093100Y-96197900D02*
X102390500Y-96197900D01*
X116421400Y-108309700D02*
X119631100Y-105100000D01*
X102390500Y-96197900D02*
X102580000Y-96387400D01*
X90101200Y-94980100D02*
X91719100Y-96598000D01*
X79928700Y-96347100D02*
X87372900Y-96347100D01*
X102851000Y-109240000D02*
X103345800Y-109240000D01*
X88739900Y-94980100D02*
X90101200Y-94980100D01*
X102423800Y-109667200D02*
X102851000Y-109240000D01*
X119631100Y-105100000D02*
X121500000Y-105100000D01*
%TO.N,Net-(U2-VCP)*%
X71192900Y-88933000D02*
X71098700Y-89027200D01*
X117486700Y-102988300D02*
X119425300Y-101049700D01*
X95692700Y-111618300D02*
X98634800Y-108676200D01*
X62703100Y-90213300D02*
X61812300Y-89322500D01*
X91599400Y-114699500D02*
X93445900Y-112853000D01*
X72959800Y-97126900D02*
X72959800Y-96701900D01*
X75541100Y-95025100D02*
X76261300Y-95745300D01*
X66754700Y-89027200D02*
X66593000Y-88865500D01*
X72959800Y-96701900D02*
X74636600Y-95025100D01*
X104109800Y-107908000D02*
X116225300Y-107908000D01*
X66593000Y-88865500D02*
X65997100Y-88865500D01*
X103540400Y-108477400D02*
X104109800Y-107908000D01*
X101407100Y-108477400D02*
X103540400Y-108477400D01*
X122556900Y-96971400D02*
X122185500Y-96600000D01*
X92657400Y-110973100D02*
X93302600Y-111618300D01*
X93445900Y-112853000D02*
X93445900Y-111618300D01*
X119695200Y-101049700D02*
X122556900Y-98188000D01*
X116225300Y-107908000D02*
X117486700Y-106646600D01*
X64649300Y-90213300D02*
X62703100Y-90213300D01*
X64689300Y-79567200D02*
X63993300Y-79567200D01*
X93302600Y-111618300D02*
X93445900Y-111618300D01*
X117486700Y-106646600D02*
X117486700Y-102988300D01*
X86960200Y-95745300D02*
X88127100Y-94578400D01*
X71098700Y-89027200D02*
X66754700Y-89027200D01*
X122185500Y-96600000D02*
X121500000Y-96600000D01*
X65997100Y-88865500D02*
X64649300Y-90213300D01*
X122556900Y-98188000D02*
X122556900Y-96971400D01*
X76261300Y-95745300D02*
X86960200Y-95745300D01*
X74636600Y-95025100D02*
X75541100Y-95025100D01*
X93445900Y-111618300D02*
X95692700Y-111618300D01*
X63993300Y-79567200D02*
X62569200Y-80991300D01*
X98634800Y-108676200D02*
X101208300Y-108676200D01*
X119425300Y-101049700D02*
X119695200Y-101049700D01*
X88127100Y-94578400D02*
X90555500Y-94578400D01*
X90555500Y-94578400D02*
X90805200Y-94828100D01*
X101208300Y-108676200D02*
X101407100Y-108477400D01*
X91575000Y-114699500D02*
X91599400Y-114699500D01*
%TO.N,Net-(U2-VINT)*%
X113075000Y-97500000D02*
X113977800Y-98402800D01*
X113977800Y-98402800D02*
X116645700Y-98402800D01*
X116861900Y-97826000D02*
X120037900Y-94650000D01*
X116861900Y-98186600D02*
X116861900Y-97826000D01*
X120037900Y-94650000D02*
X121500000Y-94650000D01*
X116645700Y-98402800D02*
X116861900Y-98186600D01*
%TO.N,/5V*%
X70469400Y-82310000D02*
X71101700Y-82942300D01*
X75730500Y-88894000D02*
X80721900Y-88894000D01*
X82119300Y-87496600D02*
X87662500Y-87496600D01*
X74000000Y-98000300D02*
X74000000Y-98500000D01*
X89165900Y-89000000D02*
X96000000Y-89000000D01*
X58148600Y-111414400D02*
X58148600Y-113715300D01*
X55889400Y-111414400D02*
X55475000Y-111000000D01*
X65016900Y-82091900D02*
X64925000Y-82000000D01*
X75237000Y-111414400D02*
X58148600Y-111414400D01*
X82092700Y-87523200D02*
X82119300Y-87496600D01*
X58148600Y-113715300D02*
X57363900Y-114500000D01*
X57363900Y-114500000D02*
X55475000Y-114500000D01*
X76752600Y-112930000D02*
X75237000Y-111414400D01*
X97069400Y-88811300D02*
X96188700Y-88811300D01*
X74450000Y-78500000D02*
X74848700Y-78101300D01*
X87662500Y-87496600D02*
X89165900Y-89000000D01*
X96188700Y-88811300D02*
X96000000Y-89000000D01*
X58148600Y-111414400D02*
X55889400Y-111414400D01*
X65178800Y-82091900D02*
X65016900Y-82091900D01*
X74848700Y-78101300D02*
X74848700Y-77691900D01*
X80721900Y-88894000D02*
X82092700Y-87523200D01*
X69500000Y-82310000D02*
X70469400Y-82310000D01*
X73898800Y-97899100D02*
X74000000Y-98000300D01*
%TO.N,Net-(JP3-B)*%
X68959600Y-96217600D02*
X70631800Y-94545400D01*
X72500000Y-90500000D02*
X73633300Y-90500000D01*
X70631800Y-94545400D02*
X70631800Y-91606900D01*
X76387500Y-94610100D02*
X76262100Y-94610100D01*
X73633300Y-90500000D02*
X74072100Y-90061200D01*
X102650900Y-92150900D02*
X89756500Y-92150900D01*
X75909500Y-94257500D02*
X75909500Y-94257400D01*
X72420700Y-90579300D02*
X72500000Y-90500000D01*
X79599700Y-94941900D02*
X79199500Y-94541700D01*
X67427700Y-98116200D02*
X67797500Y-98486000D01*
X89756500Y-92150900D02*
X89031300Y-92876100D01*
X75909500Y-94257400D02*
X75873800Y-94221700D01*
X76400800Y-94623400D02*
X76387500Y-94610100D01*
X76262100Y-94610100D02*
X75909500Y-94257500D01*
X75873800Y-94221700D02*
X73881000Y-94221700D01*
X67427700Y-97097300D02*
X67427700Y-98116200D01*
X76986100Y-94541700D02*
X76904400Y-94623400D01*
X67525000Y-97000000D02*
X67427700Y-97097300D01*
X103000000Y-92500000D02*
X102650900Y-92150900D01*
X79199500Y-94541700D02*
X76986100Y-94541700D01*
X67797500Y-98486000D02*
X68366600Y-98486000D01*
X68959600Y-97893000D02*
X68959600Y-96217600D01*
X73881000Y-94221700D02*
X73869000Y-94233700D01*
X71659400Y-90579300D02*
X72420700Y-90579300D01*
X89031300Y-92988800D02*
X88678800Y-93341300D01*
X74971300Y-96135500D02*
X75300000Y-96464200D01*
X85798600Y-94941900D02*
X79599700Y-94941900D01*
X70631800Y-91606900D02*
X71659400Y-90579300D01*
X88678800Y-93341300D02*
X87399200Y-93341300D01*
X87399200Y-93341300D02*
X85798600Y-94941900D01*
X75300000Y-96464200D02*
X75300000Y-98500000D01*
X67427700Y-97097300D02*
X62173300Y-97097300D01*
X76904400Y-94623400D02*
X76400800Y-94623400D01*
X89031300Y-92876100D02*
X89031300Y-92988800D01*
X62173300Y-97097300D02*
X61986300Y-97284300D01*
X68366600Y-98486000D02*
X68959600Y-97893000D01*
%TO.N,/3V3 Out*%
X115775000Y-100360900D02*
X115775000Y-101850000D01*
X76509600Y-115033000D02*
X76700000Y-115223400D01*
X64148500Y-93384500D02*
X64513400Y-93019600D01*
X65000000Y-92960000D02*
X64940400Y-93019600D01*
X67700000Y-91000000D02*
X66925500Y-91000000D01*
X115129200Y-99715100D02*
X115775000Y-100360900D01*
X49000000Y-94732200D02*
X49000000Y-95500000D01*
X115129200Y-92704200D02*
X115129200Y-92418800D01*
X64940400Y-93019600D02*
X64513400Y-93019600D01*
X59749200Y-93384500D02*
X64148500Y-93384500D01*
X49000000Y-94732200D02*
X58401500Y-94732200D01*
X115775000Y-93350000D02*
X115129200Y-92704200D01*
X49000000Y-92000000D02*
X49000000Y-94732200D01*
X66925500Y-91000000D02*
X66349100Y-91576400D01*
X58401500Y-94732200D02*
X59749200Y-93384500D01*
X76700000Y-115223400D02*
X76700000Y-115500000D01*
X66349100Y-91576400D02*
X66349100Y-91805500D01*
X66349100Y-91805500D02*
X66349000Y-91805500D01*
%TO.N,/5V Out*%
X108000000Y-116500000D02*
X106964700Y-117535300D01*
X96804300Y-99061100D02*
X96775000Y-99090400D01*
X66531800Y-108343000D02*
X67012000Y-108343000D01*
X90550100Y-117802500D02*
X88110100Y-115362500D01*
X75396000Y-110486900D02*
X76738400Y-110486900D01*
X117836100Y-79892400D02*
X117836100Y-84280900D01*
X103508800Y-95845300D02*
X100725700Y-93062200D01*
X118263200Y-86250100D02*
X113559600Y-86250100D01*
X97715800Y-93062200D02*
X97715800Y-93666000D01*
X110892700Y-104107300D02*
X105755200Y-104107300D01*
X74591100Y-109682000D02*
X75396000Y-110486900D01*
X103175300Y-117802500D02*
X90550100Y-117802500D01*
X94425000Y-94000000D02*
X95470700Y-92954300D01*
X67012000Y-108343000D02*
X67045000Y-108310000D01*
X100725700Y-93062200D02*
X97715800Y-93062200D01*
X88110100Y-115362500D02*
X85136400Y-115362500D01*
X106964700Y-117535300D02*
X103442500Y-117535300D01*
X118551000Y-78400000D02*
X118551000Y-79254200D01*
X112000000Y-103000000D02*
X110892700Y-104107300D01*
X118551000Y-79254200D02*
X118474300Y-79254200D01*
X97715800Y-93666000D02*
X97713500Y-93668300D01*
X103442500Y-117535300D02*
X103175300Y-117802500D01*
X95470700Y-92954300D02*
X97607900Y-92954300D01*
X118601000Y-85900000D02*
X118601000Y-86587900D01*
X80495100Y-115539000D02*
X79619400Y-116414700D01*
X84959900Y-115539000D02*
X80495100Y-115539000D01*
X105755200Y-95845300D02*
X103508800Y-95845300D01*
X97607900Y-92954300D02*
X97715800Y-93062200D01*
X67045000Y-108310000D02*
X68417000Y-109682000D01*
X68417000Y-109682000D02*
X74591100Y-109682000D01*
X85136400Y-115362500D02*
X84959900Y-115539000D01*
X118474300Y-79254200D02*
X117836100Y-79892400D01*
X118601000Y-86587900D02*
X118263200Y-86250100D01*
X96775000Y-99090400D02*
X96775000Y-99950000D01*
X117836100Y-84280900D02*
X118601000Y-85045800D01*
X118601000Y-85900000D02*
X118601000Y-85045800D01*
%TO.N,/HV*%
X108158800Y-109658800D02*
X109305100Y-109658800D01*
X79968300Y-93406700D02*
X80893700Y-92481300D01*
X80893700Y-90762400D02*
X81246200Y-90409900D01*
X102997500Y-89168500D02*
X113824000Y-89168500D01*
X68869300Y-102442400D02*
X69522300Y-102442400D01*
X85784800Y-87898300D02*
X89631900Y-91745400D01*
X74635200Y-113337500D02*
X74635200Y-114726000D01*
X74743800Y-113228900D02*
X74635200Y-113337500D01*
X53961000Y-104630700D02*
X53961000Y-104878800D01*
X63856300Y-104242000D02*
X66401100Y-104242000D01*
X81246300Y-89867300D02*
X83215300Y-87898300D01*
X70187800Y-97162800D02*
X70187800Y-97868200D01*
X66401100Y-104242000D02*
X67069700Y-104242000D01*
X69775300Y-95969900D02*
X72245200Y-93500000D01*
X58058800Y-81471600D02*
X58700000Y-82112800D01*
X58700000Y-82112800D02*
X58700000Y-82380000D01*
X81246300Y-90409900D02*
X81246300Y-89867300D01*
X98940200Y-91745400D02*
X99502400Y-91183200D01*
X81246200Y-90409900D02*
X81246300Y-90409900D01*
X69522300Y-102442400D02*
X69522300Y-102442300D01*
X101829000Y-88000000D02*
X102997500Y-89168500D01*
X69775300Y-96750300D02*
X69775300Y-95969900D01*
X62341900Y-102727600D02*
X62545000Y-102930700D01*
X67069700Y-104242000D02*
X68869300Y-102442400D01*
X62545000Y-102963400D02*
X62762000Y-103180300D01*
X55660000Y-82380000D02*
X55660000Y-82123800D01*
X57173100Y-103172000D02*
X54363200Y-103172000D01*
X62897600Y-103316000D02*
X62930300Y-103316000D01*
X72500000Y-93500000D02*
X72593300Y-93406700D01*
X70025000Y-97000000D02*
X69775300Y-96750300D01*
X62762000Y-103180300D02*
X61370100Y-104572200D01*
X62762000Y-103180300D02*
X62897600Y-103316000D01*
X55660000Y-82123800D02*
X56312200Y-81471600D01*
X108000000Y-109500000D02*
X108158800Y-109658800D01*
X62930300Y-103316000D02*
X63856300Y-104242000D01*
X62341900Y-102531000D02*
X62341900Y-102727600D01*
X58573300Y-104572200D02*
X57173100Y-103172000D01*
X70025000Y-97000000D02*
X70187800Y-97162800D01*
X72245200Y-93500000D02*
X72500000Y-93500000D01*
X83215300Y-87898300D02*
X85784800Y-87898300D01*
X61370100Y-104572200D02*
X58573300Y-104572200D01*
X54732200Y-105650000D02*
X54945000Y-105650000D01*
X89631900Y-91745400D02*
X98940200Y-91745400D01*
X80893700Y-92481300D02*
X80893700Y-90762400D01*
X53589000Y-85910400D02*
X55660000Y-83839400D01*
X55660000Y-83839400D02*
X55660000Y-82380000D01*
X53961000Y-104878800D02*
X54732200Y-105650000D01*
X62545000Y-102930700D02*
X62545000Y-102963400D01*
X72593300Y-93406700D02*
X79968300Y-93406700D01*
X56312200Y-81471600D02*
X58058800Y-81471600D01*
%TO.N,Net-(C13-Pad1)*%
X102000000Y-105000000D02*
X104000000Y-103000000D01*
X104000000Y-103000000D02*
X109925000Y-103000000D01*
X102087000Y-105073000D02*
X102073000Y-105073000D01*
X102073000Y-105073000D02*
X102000000Y-105000000D01*
%TO.N,Net-(D1-K)*%
X60185000Y-98750000D02*
X58814800Y-98750000D01*
X58325700Y-99239100D02*
X53223800Y-99239100D01*
X53954500Y-111000000D02*
X52670800Y-109716300D01*
X58814800Y-98750000D02*
X58325700Y-99239100D01*
X54660000Y-111000000D02*
X53954500Y-111000000D01*
%TO.N,Net-(D2-A)*%
X98319600Y-99473900D02*
X100000000Y-101154300D01*
X95623700Y-97401400D02*
X98182800Y-97401400D01*
X100000000Y-101154300D02*
X100000000Y-105000000D01*
X75017700Y-106550800D02*
X94181600Y-106550800D01*
X98319600Y-97538200D02*
X98768300Y-97089500D01*
X94181600Y-106550800D02*
X94854800Y-105877600D01*
X98319600Y-97538200D02*
X98319600Y-99473900D01*
X101863300Y-97089500D02*
X103273800Y-98500000D01*
X98182800Y-97401400D02*
X98319600Y-97538200D01*
X73258500Y-108310000D02*
X75017700Y-106550800D01*
X103273800Y-98500000D02*
X103325000Y-98500000D01*
X71045000Y-108310000D02*
X73258500Y-108310000D01*
X94633300Y-97916700D02*
X95108400Y-97916700D01*
X98768300Y-97089500D02*
X101863300Y-97089500D01*
X94500000Y-98050000D02*
X94633300Y-97916700D01*
X95108400Y-97916700D02*
X95623700Y-97401400D01*
%TO.N,Net-(D3-K)*%
X59288000Y-101353300D02*
X59288000Y-103292400D01*
X58260000Y-103690800D02*
X55964700Y-101395500D01*
X60185000Y-100500000D02*
X60141300Y-100500000D01*
X58889600Y-103690800D02*
X58260000Y-103690800D01*
X60141300Y-100500000D02*
X59288000Y-101353300D01*
X54660000Y-114500000D02*
X50577400Y-110417400D01*
X52169800Y-101395500D02*
X51890700Y-101674600D01*
X59288000Y-103292400D02*
X58889600Y-103690800D01*
X55964700Y-101395500D02*
X52169800Y-101395500D01*
X50577400Y-110417400D02*
X50577400Y-109716300D01*
%TO.N,Net-(J2-CC1)*%
X54945000Y-104763800D02*
X53513000Y-103331800D01*
X53513000Y-103331800D02*
X51041600Y-103331800D01*
X57680000Y-83770600D02*
X55533200Y-85917400D01*
X55176200Y-85917400D02*
X53956900Y-87136700D01*
X51041600Y-103331800D02*
X51041600Y-103331700D01*
X55533200Y-85917400D02*
X55176200Y-85917400D01*
X54945000Y-105000000D02*
X54945000Y-104763800D01*
X57680000Y-82380000D02*
X57680000Y-83770600D01*
%TO.N,Net-(J2-CC2)*%
X56680000Y-83497800D02*
X56594900Y-83582900D01*
X57133100Y-104653000D02*
X57000000Y-104786100D01*
X57000000Y-104786100D02*
X57000000Y-105000000D01*
X56680000Y-82380000D02*
X56680000Y-83497800D01*
%TO.N,/FAST_CHARGE_CTRL*%
X85916600Y-122746600D02*
X87219200Y-124049200D01*
X105225000Y-88450000D02*
X103634700Y-88450000D01*
X103634700Y-88450000D02*
X103340900Y-88156200D01*
X89511700Y-124231500D02*
X90438600Y-123304600D01*
X87717500Y-124049200D02*
X87840200Y-123926500D01*
X87840200Y-123926500D02*
X89206700Y-123926500D01*
X75942800Y-122746600D02*
X85916600Y-122746600D01*
X91663100Y-123304600D02*
X91857900Y-123499400D01*
X89511700Y-124500000D02*
X89511700Y-124231500D01*
X88360000Y-124500000D02*
X89511700Y-124500000D01*
X90438600Y-123304600D02*
X91663100Y-123304600D01*
X89206700Y-123926500D02*
X89511700Y-124231500D01*
X87219200Y-124049200D02*
X87717500Y-124049200D01*
%TO.N,Net-(Q2-D)*%
X60981100Y-101375000D02*
X61309100Y-101375000D01*
X88429600Y-92739600D02*
X87194600Y-92739600D01*
X62774700Y-99909400D02*
X69413400Y-99909400D01*
X60185000Y-102250000D02*
X60185000Y-102171100D01*
X69413400Y-99909400D02*
X70083000Y-100579000D01*
X79439900Y-94141300D02*
X79307000Y-94008400D01*
X87194600Y-92739600D02*
X85792900Y-94141300D01*
X88756600Y-86550000D02*
X88429600Y-86223000D01*
X106433800Y-80421300D02*
X106433800Y-85341200D01*
X60185000Y-102171100D02*
X60981100Y-101375000D01*
X85792900Y-94141300D02*
X79439900Y-94141300D01*
X61309100Y-101375000D02*
X62774700Y-99909400D01*
X73926300Y-100579000D02*
X74106200Y-100399100D01*
X106433800Y-85341200D02*
X105225000Y-86550000D01*
X70083000Y-100579000D02*
X73926300Y-100579000D01*
X105225000Y-86550000D02*
X88756600Y-86550000D01*
X105447000Y-79434500D02*
X106433800Y-80421300D01*
X79307000Y-94008400D02*
X76511200Y-94008400D01*
%TO.N,Net-(U1-AISEN)*%
X97253300Y-106018900D02*
X95737400Y-104503000D01*
X83481100Y-104317500D02*
X81448300Y-102284700D01*
X54766300Y-93029700D02*
X51459600Y-93029700D01*
X79778500Y-100517000D02*
X75820100Y-100517000D01*
X61000000Y-114000000D02*
X61417000Y-113583000D01*
X66579600Y-105346500D02*
X66579600Y-105446500D01*
X59433700Y-105081500D02*
X58754500Y-105760700D01*
X115775000Y-103150000D02*
X113762600Y-103150000D01*
X68818300Y-103107800D02*
X66579600Y-105346500D01*
X74721900Y-101615200D02*
X74054900Y-101615200D01*
X58754500Y-105760700D02*
X58448200Y-105760700D01*
X51459600Y-93029700D02*
X50178800Y-91748900D01*
X66579600Y-105446500D02*
X66105800Y-105920300D01*
X61417000Y-113583000D02*
X62141500Y-113583000D01*
X48094600Y-89118100D02*
X48094600Y-78068500D01*
X101097300Y-105526400D02*
X100604800Y-106018900D01*
X113762600Y-103150000D02*
X112580900Y-101968300D01*
X87922100Y-104317500D02*
X83481100Y-104317500D01*
X55915200Y-91880800D02*
X54766300Y-93029700D01*
X75820100Y-100517000D02*
X74721900Y-101615200D01*
X112580900Y-101968300D02*
X103449200Y-101968300D01*
X74054900Y-101615200D02*
X72562300Y-103107800D01*
X57231400Y-106977500D02*
X57014300Y-106977500D01*
X50178800Y-91202300D02*
X48094600Y-89118100D01*
X66105800Y-105920300D02*
X61070800Y-105920300D01*
X60232000Y-105081500D02*
X59433700Y-105081500D01*
X49000000Y-78068500D02*
X48094600Y-78068500D01*
X50178800Y-91748900D02*
X50178800Y-91202300D01*
X58448200Y-105760700D02*
X57231400Y-106977500D01*
X95737400Y-104503000D02*
X88107600Y-104503000D01*
X72562300Y-103107800D02*
X68818300Y-103107800D01*
X81448300Y-102284700D02*
X81448300Y-102186800D01*
X88107600Y-104503000D02*
X87922100Y-104317500D01*
X100604800Y-106018900D02*
X97253300Y-106018900D01*
X103449200Y-101968300D02*
X101097300Y-104320200D01*
X56454300Y-91880800D02*
X55915200Y-91880800D01*
X61070800Y-105920300D02*
X60232000Y-105081500D01*
X101097300Y-104320200D02*
X101097300Y-105526400D01*
X81448300Y-102186800D02*
X79778500Y-100517000D01*
%TO.N,Net-(U1-BISEN)*%
X53077200Y-76133300D02*
X49000000Y-80210500D01*
X103361900Y-107472500D02*
X104436900Y-106397500D01*
X112184200Y-105659600D02*
X112743800Y-105100000D01*
X97491100Y-107472500D02*
X103361900Y-107472500D01*
X83300300Y-111320200D02*
X90891200Y-111320200D01*
X107084500Y-106397500D02*
X107822400Y-105659600D01*
X95642800Y-109320800D02*
X97491100Y-107472500D01*
X76830900Y-103799000D02*
X79400200Y-103799000D01*
X104436900Y-106397500D02*
X107084500Y-106397500D01*
X80042700Y-103156500D02*
X81448300Y-103156500D01*
X49000000Y-80210500D02*
X49000000Y-81379000D01*
X107822400Y-105659600D02*
X112184200Y-105659600D01*
X55660500Y-76133300D02*
X53077200Y-76133300D01*
X92890600Y-109320800D02*
X95642800Y-109320800D01*
X79400200Y-103799000D02*
X80042700Y-103156500D01*
X112743800Y-105100000D02*
X115775000Y-105100000D01*
X90891200Y-111320200D02*
X92890600Y-109320800D01*
%TO.N,Net-(U2-AISEN)*%
X48762100Y-86344700D02*
X49000000Y-86106800D01*
X59334300Y-99476500D02*
X58935200Y-99875600D01*
X80018500Y-99669800D02*
X82048500Y-97639800D01*
X69851800Y-99476500D02*
X59334300Y-99476500D01*
X82069500Y-77246400D02*
X110692300Y-77246400D01*
X115112100Y-94650000D02*
X115775000Y-94650000D01*
X58935200Y-99875600D02*
X50376800Y-99875600D01*
X70320600Y-101771000D02*
X71090800Y-101000800D01*
X79026500Y-80289400D02*
X82069500Y-77246400D01*
X70217100Y-99841800D02*
X69851800Y-99476500D01*
X50376800Y-99875600D02*
X49038400Y-98537200D01*
X112445900Y-79000000D02*
X113000000Y-79000000D01*
X49000000Y-86106800D02*
X49000000Y-84689500D01*
X75794800Y-99669800D02*
X80018500Y-99669800D01*
X71090800Y-101000800D02*
X74463800Y-101000800D01*
X82048500Y-97639800D02*
X83699500Y-97639800D01*
X114034900Y-92849300D02*
X114034900Y-93572800D01*
X114034900Y-93572800D02*
X115112100Y-94650000D01*
X110692300Y-77246400D02*
X112445900Y-79000000D01*
X74463800Y-101000800D02*
X75794800Y-99669800D01*
%TO.N,Net-(U2-BISEN)*%
X81130000Y-76814000D02*
X80706200Y-77237800D01*
X117182300Y-95600100D02*
X117182300Y-95848900D01*
X55530000Y-77114700D02*
X52733100Y-77114700D01*
X114350900Y-77322800D02*
X111659600Y-77322800D01*
X51726500Y-78121300D02*
X51726500Y-80056600D01*
X49000000Y-87001800D02*
X49000000Y-88000000D01*
X111659600Y-77322800D02*
X111150800Y-76814000D01*
X111150800Y-76814000D02*
X81130000Y-76814000D01*
X77814500Y-76499900D02*
X77152500Y-75837900D01*
X50511200Y-85490600D02*
X49000000Y-87001800D01*
X78412200Y-77237800D02*
X77814500Y-76640100D01*
X80706200Y-77237800D02*
X78412200Y-77237800D01*
X77152500Y-75837900D02*
X56806800Y-75837900D01*
X116431200Y-96600000D02*
X115775000Y-96600000D01*
X51726500Y-80056600D02*
X50511200Y-81271900D01*
X116050100Y-79022000D02*
X114350900Y-77322800D01*
X56806800Y-75837900D02*
X55530000Y-77114700D01*
X117182300Y-95848900D02*
X116431200Y-96600000D01*
X52733100Y-77114700D02*
X51726500Y-78121300D01*
X50511200Y-81271900D02*
X50511200Y-85490600D01*
X77814500Y-76640100D02*
X77814500Y-76499900D01*
%TO.N,Net-(U8-~{CHRG})*%
X57156800Y-98822800D02*
X53658400Y-98822800D01*
X72078100Y-104142400D02*
X73132600Y-105196900D01*
X63264500Y-98593000D02*
X63107500Y-98750000D01*
X68655100Y-101693400D02*
X65657900Y-101693400D01*
X68795800Y-101834100D02*
X68655100Y-101693400D01*
X65657900Y-101693400D02*
X64871400Y-102479900D01*
X70097000Y-104808500D02*
X70362900Y-104542600D01*
X57757400Y-98222200D02*
X57156800Y-98822800D01*
X70930500Y-104542600D02*
X70930500Y-104542500D01*
X70930500Y-104542500D02*
X71330600Y-104142400D01*
X70362900Y-104542600D02*
X70930500Y-104542600D01*
X91317600Y-105916900D02*
X92129800Y-105104700D01*
X76483300Y-79770000D02*
X77252700Y-79000600D01*
X63107500Y-98750000D02*
X61000000Y-98750000D01*
X77734800Y-105196900D02*
X78454800Y-105916900D01*
X53658400Y-98822800D02*
X53405100Y-98569500D01*
X61000000Y-98750000D02*
X61000000Y-98634500D01*
X60587700Y-98222200D02*
X57757400Y-98222200D01*
X74450000Y-79770000D02*
X76483300Y-79770000D01*
X64871400Y-102479900D02*
X63149700Y-102479900D01*
X71330600Y-104142400D02*
X72078100Y-104142400D01*
X78454800Y-105916900D02*
X91317600Y-105916900D01*
X53405100Y-98569500D02*
X52759400Y-98569500D01*
X73132600Y-105196900D02*
X77734800Y-105196900D01*
X61000000Y-98634500D02*
X60587700Y-98222200D01*
%TO.N,Net-(U8-~{STDBY})*%
X74686000Y-81140200D02*
X79898500Y-81140200D01*
X92203700Y-77890900D02*
X93969800Y-79657000D01*
X74450000Y-81040000D02*
X74517900Y-80972100D01*
X97084600Y-103897000D02*
X88534800Y-103897000D01*
X74462300Y-80509900D02*
X74462300Y-80916500D01*
X71760600Y-121743100D02*
X72263200Y-121240500D01*
X83147800Y-77890900D02*
X92203700Y-77890900D01*
X60245300Y-101389200D02*
X61000000Y-100634500D01*
X54234800Y-120162000D02*
X55815900Y-121743100D01*
X61000000Y-100634500D02*
X61000000Y-100500000D01*
X74517900Y-80972100D02*
X74686000Y-81140200D01*
X79898500Y-81140200D02*
X83147800Y-77890900D01*
X55815900Y-121743100D02*
X71760600Y-121743100D01*
X73072700Y-121240500D02*
X73675900Y-120637300D01*
X74462300Y-80916500D02*
X74517900Y-80972100D01*
X73675900Y-120637300D02*
X87256100Y-120637300D01*
X72263200Y-121240500D02*
X73072700Y-121240500D01*
X97882500Y-104694900D02*
X97084600Y-103897000D01*
X60102900Y-101389200D02*
X60245300Y-101389200D01*
%TO.N,Net-(U6-VSET)*%
X55852900Y-97997400D02*
X56497400Y-97997400D01*
X72120000Y-105347400D02*
X72677000Y-105347400D01*
X54523900Y-106300000D02*
X54109200Y-105885300D01*
X72928300Y-105598700D02*
X76646900Y-105598700D01*
X54945000Y-106300000D02*
X54523900Y-106300000D01*
X66210400Y-106383700D02*
X67147500Y-105446600D01*
X56497400Y-97997400D02*
X56500000Y-98000000D01*
X67147500Y-105446600D02*
X72020800Y-105446600D01*
X57261700Y-107635200D02*
X58513200Y-106383700D01*
X72677000Y-105347400D02*
X72928300Y-105598700D01*
X72020800Y-105446600D02*
X72120000Y-105347400D01*
X58513200Y-106383700D02*
X66210400Y-106383700D01*
X54945000Y-106300000D02*
X54945000Y-106730400D01*
X76646900Y-105598700D02*
X76847000Y-105798800D01*
X55849800Y-107635200D02*
X57261700Y-107635200D01*
X54945000Y-106730400D02*
X55849800Y-107635200D01*
%TO.N,Net-(JP1-A)*%
X70905900Y-87795700D02*
X62693500Y-87795700D01*
X68487400Y-101291600D02*
X64001400Y-101291600D01*
X62693500Y-87795700D02*
X62637400Y-87851800D01*
X68797500Y-101006100D02*
X68772900Y-101006100D01*
X63599700Y-101693300D02*
X61558800Y-101693300D01*
X74692500Y-86392500D02*
X74692500Y-87456300D01*
X69080400Y-80189600D02*
X69061000Y-80189600D01*
X64001400Y-101291600D02*
X63599700Y-101693300D01*
X74300000Y-86000000D02*
X74692500Y-86392500D01*
X74692500Y-87456300D02*
X74269600Y-87879200D01*
X74269600Y-87879200D02*
X70989400Y-87879200D01*
X64500000Y-85500000D02*
X63200000Y-85500000D01*
X62977000Y-85762900D02*
X63200000Y-85539900D01*
X70989400Y-87879200D02*
X70905900Y-87795700D01*
X61002100Y-102250000D02*
X61000000Y-102250000D01*
X69500000Y-79770000D02*
X69080400Y-80189600D01*
X63200000Y-85539900D02*
X63200000Y-85500000D01*
X68772900Y-101006100D02*
X68487400Y-101291600D01*
X61558800Y-101693300D02*
X61002100Y-102250000D01*
%TO.N,Net-(JP4-B)*%
X78801700Y-114878200D02*
X78801700Y-115500000D01*
X91126600Y-110516800D02*
X83163100Y-110516800D01*
X66925000Y-119000000D02*
X67283000Y-118642000D01*
X96000000Y-106860000D02*
X93940900Y-108919100D01*
X83163100Y-110516800D02*
X78801700Y-114878200D01*
X78000000Y-115500000D02*
X78801700Y-115500000D01*
X75685600Y-84195200D02*
X75691400Y-84201000D01*
X77793000Y-115707000D02*
X78000000Y-115500000D01*
X77323200Y-116557600D02*
X75484100Y-116557600D01*
X75484100Y-116557600D02*
X73680700Y-114754200D01*
X92724300Y-108919100D02*
X91126600Y-110516800D01*
X93940900Y-108919100D02*
X92724300Y-108919100D01*
X80598000Y-85507000D02*
X88970100Y-85507000D01*
X77550300Y-116330500D02*
X77323200Y-116557600D01*
X67283000Y-118642000D02*
X67729400Y-118642000D01*
X88970100Y-85507000D02*
X89279600Y-85197500D01*
X73680700Y-114754200D02*
X71101000Y-114754200D01*
X77550300Y-115707000D02*
X77550300Y-116330500D01*
X70574200Y-115284700D02*
X71101000Y-114757900D01*
X71460400Y-84195200D02*
X75685600Y-84195200D01*
X71101000Y-114757900D02*
X71101000Y-114754200D01*
X77550300Y-115707000D02*
X77793000Y-115707000D01*
X71101000Y-113900000D02*
X71101000Y-114754200D01*
%TO.N,/IN-*%
X71120400Y-87392200D02*
X64343700Y-87392200D01*
X79710400Y-96979600D02*
X85126500Y-96979600D01*
X58346700Y-92786300D02*
X60133000Y-91000000D01*
X74736300Y-95511400D02*
X75384600Y-95511400D01*
X59846200Y-89847600D02*
X60133000Y-90134400D01*
X85126500Y-96979600D02*
X88616900Y-100470000D01*
X75384600Y-95511400D02*
X76418700Y-96545500D01*
X60572300Y-89066000D02*
X60572300Y-89254200D01*
X57645200Y-92786300D02*
X58346700Y-92786300D01*
X71297800Y-87214800D02*
X71120400Y-87392200D01*
X63443500Y-91650000D02*
X62793500Y-91000000D01*
X56301000Y-94130500D02*
X57645200Y-92786300D01*
X48051700Y-103000000D02*
X48307500Y-103255800D01*
X60133000Y-90134400D02*
X60133000Y-91000000D01*
X79276300Y-96545500D02*
X79710400Y-96979600D01*
X49849500Y-103255800D02*
X49893300Y-103212000D01*
X73860100Y-96682100D02*
X73860200Y-96682100D01*
X48307500Y-103255800D02*
X49849500Y-103255800D01*
X62793500Y-91000000D02*
X60133000Y-91000000D01*
X46500000Y-103000000D02*
X48051700Y-103000000D01*
X50135500Y-94130500D02*
X56301000Y-94130500D01*
X73860200Y-96387500D02*
X74736300Y-95511400D01*
X65000000Y-91650000D02*
X63443500Y-91650000D01*
X64166300Y-87214800D02*
X62423500Y-87214800D01*
X73860200Y-96682100D02*
X73860200Y-96387500D01*
X64343700Y-87392200D02*
X64166300Y-87214800D01*
X76418700Y-96545500D02*
X79276300Y-96545500D01*
X62423500Y-87214800D02*
X60572300Y-89066000D01*
%TO.N,/IN+*%
X60358300Y-80351900D02*
X60517200Y-80510800D01*
X51045800Y-85723900D02*
X51045800Y-82591600D01*
X83049000Y-84503400D02*
X82650600Y-84105000D01*
X86349500Y-84105000D02*
X85951100Y-84503400D01*
X65563300Y-86155400D02*
X65563300Y-84836200D01*
X53711600Y-91310000D02*
X54000000Y-91021600D01*
X54000000Y-91021600D02*
X54000000Y-91000000D01*
X64268300Y-78652900D02*
X64268300Y-78652800D01*
X61942500Y-80510800D02*
X62198600Y-80510800D01*
X64592800Y-86790500D02*
X64928200Y-86790500D01*
X51045800Y-82591600D02*
X53285500Y-80351900D01*
X73215900Y-83544100D02*
X68550100Y-83544100D01*
X68550100Y-83544100D02*
X67258000Y-84836200D01*
X64857000Y-78652800D02*
X64925000Y-78584800D01*
X64515700Y-83236800D02*
X63963900Y-83236800D01*
X64268300Y-78652800D02*
X64857000Y-78652800D01*
X53285500Y-80351900D02*
X60358300Y-80351900D01*
X82650600Y-84105000D02*
X79646900Y-84105000D01*
X67258000Y-84836200D02*
X65563300Y-84836200D01*
X79646900Y-84105000D02*
X79442100Y-83900200D01*
X53000200Y-91000000D02*
X50711100Y-88710900D01*
X69553400Y-90281700D02*
X69993000Y-89842100D01*
X79442100Y-83900200D02*
X76317700Y-83900200D01*
X74450000Y-82310000D02*
X73215900Y-83544100D01*
X63192500Y-79516900D02*
X63404300Y-79516900D01*
X93598300Y-82700000D02*
X92193300Y-84105000D01*
X64928200Y-86790500D02*
X65563300Y-86155400D01*
X94500000Y-82700000D02*
X93598300Y-82700000D01*
X54000000Y-91000000D02*
X53000200Y-91000000D01*
X92193300Y-84105000D02*
X86349500Y-84105000D01*
X50711100Y-88710900D02*
X50711100Y-86058600D01*
X76317700Y-83900200D02*
X74727500Y-82310000D01*
X50711100Y-86058600D02*
X51045800Y-85723900D01*
X65563300Y-84284400D02*
X64515700Y-83236800D01*
X65563300Y-84836200D02*
X65563300Y-84284400D01*
X62198600Y-80510800D02*
X63192500Y-79516900D01*
X61942500Y-81215400D02*
X61942500Y-80510800D01*
X65718300Y-90281700D02*
X69553400Y-90281700D01*
X65000000Y-91000000D02*
X65718300Y-90281700D01*
X64925000Y-78584800D02*
X64925000Y-78500000D01*
X63963900Y-83236800D02*
X61942500Y-81215400D01*
X63404300Y-79516900D02*
X64268300Y-78652900D01*
X85951100Y-84503400D02*
X83049000Y-84503400D01*
X60517200Y-80510800D02*
X61942500Y-80510800D01*
X74727500Y-82310000D02*
X74450000Y-82310000D01*
%TO.N,/I2C1_SDA*%
X70381900Y-90577000D02*
X70381900Y-90316800D01*
X74368600Y-102916400D02*
X78638600Y-102916400D01*
X70381900Y-90316800D02*
X71164000Y-89534700D01*
X66082100Y-93207700D02*
X66979800Y-92310000D01*
X71164000Y-89534700D02*
X71442100Y-89534700D01*
X66082100Y-93231400D02*
X66082100Y-93207700D01*
X71794600Y-89182100D02*
X72072600Y-88904100D01*
X68648900Y-92310000D02*
X70381900Y-90577000D01*
X74586200Y-88904100D02*
X76751400Y-86738900D01*
X48621000Y-97082800D02*
X50637200Y-97082800D01*
X78638600Y-102916400D02*
X79785000Y-101770000D01*
X60115400Y-93786200D02*
X65527300Y-93786200D01*
X71442100Y-89534700D02*
X71794600Y-89182200D01*
X57219000Y-96682600D02*
X60115400Y-93786200D01*
X47505500Y-95967300D02*
X48621000Y-97082800D01*
X47505500Y-92558000D02*
X47505500Y-95967300D01*
X46947500Y-92000000D02*
X47505500Y-92558000D01*
X67700000Y-92310000D02*
X68648900Y-92310000D01*
X74294200Y-102842000D02*
X74368600Y-102916400D01*
X66979800Y-92310000D02*
X67700000Y-92310000D01*
X46042000Y-92000000D02*
X46947500Y-92000000D01*
X65527300Y-93786200D02*
X66082100Y-93231400D01*
X72072600Y-88904100D02*
X74586200Y-88904100D01*
X71794600Y-89182200D02*
X71794600Y-89182100D01*
X51037300Y-96682700D02*
X51037300Y-96682600D01*
X51037300Y-96682600D02*
X57219000Y-96682600D01*
X50637200Y-97082800D02*
X51037300Y-96682700D01*
%TO.N,/I2C1_SCL*%
X59393300Y-97084300D02*
X51358600Y-97084300D01*
X81905800Y-103799000D02*
X82087800Y-103981000D01*
X71393000Y-89936400D02*
X71608400Y-89936400D01*
X70783600Y-90774600D02*
X70783600Y-90545800D01*
X66451900Y-94208100D02*
X62269500Y-94208100D01*
X80289700Y-103799000D02*
X81905800Y-103799000D01*
X62269500Y-94208100D02*
X59393300Y-97084300D01*
X77090400Y-91104700D02*
X77763300Y-91104700D01*
X68598200Y-92960000D02*
X70783600Y-90774600D01*
X71608400Y-89936400D02*
X72085300Y-89459500D01*
X48435100Y-97484500D02*
X46947500Y-95996900D01*
X72085300Y-89459500D02*
X75445200Y-89459500D01*
X50958400Y-97484500D02*
X48435100Y-97484500D01*
X46947500Y-95996900D02*
X46947500Y-95500000D01*
X46042000Y-95500000D02*
X46947500Y-95500000D01*
X75445200Y-89459500D02*
X77090400Y-91104700D01*
X67700000Y-92960000D02*
X68598200Y-92960000D01*
X70783600Y-90545800D02*
X71393000Y-89936400D01*
X51358600Y-97084300D02*
X50958400Y-97484500D01*
X67700000Y-92960000D02*
X66451900Y-94208100D01*
%TO.N,unconnected-(SW1-C-Pad3)*%
X73072600Y-77769300D02*
X71556000Y-76252700D01*
X45508700Y-97222200D02*
X47159300Y-97222200D01*
X71556000Y-76252700D02*
X57023400Y-76252700D01*
X54816700Y-78459400D02*
X54405400Y-78459400D01*
X44448300Y-104500000D02*
X44448300Y-98282600D01*
X53011100Y-79853700D02*
X52533300Y-79853700D01*
X57023400Y-76252700D02*
X54816700Y-78459400D01*
X54405400Y-78459400D02*
X53011100Y-79853700D01*
X46500000Y-105000000D02*
X44948300Y-105000000D01*
X44948300Y-105000000D02*
X44448300Y-104500000D01*
X44448300Y-98282600D02*
X45508700Y-97222200D01*
X73072600Y-78217300D02*
X73072600Y-77769300D01*
%TO.N,/Motor2_A_OUT*%
X52074700Y-102848700D02*
X51788400Y-102562400D01*
X85158700Y-116565900D02*
X87854900Y-116565900D01*
X48663000Y-116845200D02*
X68779300Y-116845200D01*
X61866000Y-79707400D02*
X62351700Y-79221700D01*
X61050000Y-79707400D02*
X61866000Y-79707400D01*
X87854900Y-116565900D02*
X87929700Y-116491100D01*
X48754700Y-102562400D02*
X48663000Y-102654100D01*
X68779300Y-116845200D02*
X70458700Y-118524600D01*
X106479700Y-118237900D02*
X89676500Y-118237900D01*
X62351700Y-78861000D02*
X63372400Y-77840300D01*
X83200000Y-118524600D02*
X85158700Y-116565900D01*
X60326100Y-78983500D02*
X61050000Y-79707400D01*
X111657900Y-106753900D02*
X107578900Y-106753900D01*
X63372400Y-77840300D02*
X63637500Y-77840300D01*
X53774200Y-101997200D02*
X52922700Y-102848700D01*
X54723900Y-101997200D02*
X53774200Y-101997200D01*
X59338200Y-78983500D02*
X60326100Y-78983500D01*
X62351700Y-79221700D02*
X62351700Y-78861000D01*
X51788400Y-102562400D02*
X48754700Y-102562400D01*
X70458700Y-118524600D02*
X83200000Y-118524600D01*
X89676500Y-118237900D02*
X87929700Y-116491100D01*
X52922700Y-102848700D02*
X52074700Y-102848700D01*
X115775000Y-105750000D02*
X112661800Y-105750000D01*
X112661800Y-105750000D02*
X111657900Y-106753900D01*
X87929700Y-116491100D02*
X87929700Y-116141000D01*
%TO.N,/MOTOR1_CTRL2*%
X120328300Y-102256200D02*
X120572100Y-102500000D01*
X69191700Y-127327900D02*
X70458800Y-128595000D01*
X119041800Y-103296900D02*
X119041800Y-102801100D01*
X119041800Y-102801100D02*
X119586700Y-102256200D01*
X119586700Y-102256200D02*
X120328300Y-102256200D01*
X68040000Y-127040000D02*
X69191700Y-127040000D01*
X118088400Y-104250300D02*
X119041800Y-103296900D01*
X69191700Y-127040000D02*
X69191700Y-127327900D01*
X117986500Y-128595000D02*
X118088400Y-128493100D01*
X70458800Y-128595000D02*
X117986500Y-128595000D01*
X120572100Y-102500000D02*
X121500000Y-102500000D01*
%TO.N,/MOTOR1_B_OUT*%
X78134100Y-104745200D02*
X78904100Y-105515200D01*
X115775000Y-103800000D02*
X112794000Y-103800000D01*
X77900700Y-117922900D02*
X70717100Y-117922900D01*
X73108600Y-104186400D02*
X73667400Y-104745200D01*
X102330300Y-106417500D02*
X102135400Y-106417500D01*
X65782400Y-117727100D02*
X68364700Y-117727100D01*
X111737800Y-104856200D02*
X103891600Y-104856200D01*
X87076900Y-105515200D02*
X87672900Y-104919200D01*
X92251000Y-112010600D02*
X88023900Y-112010600D01*
X78769000Y-117054600D02*
X77900700Y-117922900D01*
X99263800Y-114491500D02*
X101052800Y-112702500D01*
X92844200Y-112603800D02*
X92251000Y-112010600D01*
X88023900Y-112010600D02*
X86133100Y-112010600D01*
X103891600Y-104856200D02*
X102330300Y-106417500D01*
X73667400Y-104745200D02*
X78134100Y-104745200D01*
X86133100Y-112010600D02*
X85785400Y-112358300D01*
X80945400Y-115964200D02*
X79855000Y-117054600D01*
X112794000Y-103800000D02*
X111737800Y-104856200D01*
X85385500Y-115964200D02*
X80945400Y-115964200D01*
X94677200Y-114491500D02*
X99263800Y-114491500D01*
X78904100Y-105515200D02*
X87076900Y-105515200D01*
X64902900Y-118606600D02*
X65782400Y-117727100D01*
X79855000Y-117054600D02*
X78769000Y-117054600D01*
%TO.N,/MOTOR1_A_OUT*%
X67515400Y-125888300D02*
X70847100Y-125888300D01*
X66651700Y-126752000D02*
X67515400Y-125888300D01*
X70847100Y-125888300D02*
X71756100Y-124979300D01*
X73259900Y-122445600D02*
X73571600Y-122445600D01*
X93276200Y-122144900D02*
X93599000Y-122467700D01*
X66651700Y-127040000D02*
X66651700Y-126752000D01*
X71756100Y-124979300D02*
X71756100Y-123949400D01*
X112746700Y-101047100D02*
X114199600Y-102500000D01*
X103033100Y-122467700D02*
X103384400Y-122116400D01*
X73872300Y-122144900D02*
X93276200Y-122144900D01*
X71756100Y-123949400D02*
X73259900Y-122445600D01*
X104990300Y-101047100D02*
X112746700Y-101047100D01*
X65500000Y-127040000D02*
X66651700Y-127040000D01*
X114199600Y-102500000D02*
X115775000Y-102500000D01*
X73571600Y-122445600D02*
X73872300Y-122144900D01*
X93599000Y-122467700D02*
X103033100Y-122467700D01*
%TO.N,/MOTOR2_CTRL2*%
X106145500Y-114039500D02*
X119297600Y-114039500D01*
X121403500Y-105846500D02*
X120223000Y-105846500D01*
X99693500Y-124007600D02*
X98583500Y-122897600D01*
X98520000Y-125888300D02*
X98788500Y-125888300D01*
X87593100Y-122897600D02*
X87468300Y-123022400D01*
X103925900Y-116259100D02*
X106145500Y-114039500D01*
X98788500Y-125888300D02*
X99693500Y-124983300D01*
X120223000Y-105846500D02*
X120223000Y-105846600D01*
X98520000Y-127040000D02*
X98520000Y-125888300D01*
X121500000Y-105750000D02*
X121403500Y-105846500D01*
X99693500Y-124983300D02*
X99693500Y-124007600D01*
X119297600Y-114039500D02*
X120636200Y-112700900D01*
X98583500Y-122897600D02*
X87593100Y-122897600D01*
%TO.N,/MOTOR1_CTRL1*%
X95632700Y-121365400D02*
X96135600Y-120862500D01*
X121649500Y-120462300D02*
X121851900Y-120259900D01*
X72429500Y-121642200D02*
X73239000Y-121642200D01*
X93632700Y-121365400D02*
X95632700Y-121365400D01*
X121500000Y-101850000D02*
X119674400Y-101850000D01*
X96908000Y-120862500D02*
X97308200Y-120462300D01*
X97308200Y-120462300D02*
X121649500Y-120462300D01*
X118369800Y-102873600D02*
X118369800Y-102965500D01*
X79050300Y-76305900D02*
X78722900Y-76633300D01*
X118369800Y-102965500D02*
X118369700Y-102965500D01*
X93558000Y-121290700D02*
X93632700Y-121365400D01*
X119674400Y-101850000D02*
X119674400Y-101651400D01*
X112160800Y-76305900D02*
X79050300Y-76305900D01*
X119393400Y-101850000D02*
X118369800Y-102873600D01*
X69412500Y-122344900D02*
X69612600Y-122144800D01*
X119674400Y-101850000D02*
X119393400Y-101850000D01*
X71926900Y-122144800D02*
X72429500Y-121642200D01*
X69612600Y-122144800D02*
X71926900Y-122144800D01*
X73239000Y-121642200D02*
X73590500Y-121290700D01*
X73590500Y-121290700D02*
X93558000Y-121290700D01*
X96135600Y-120862500D02*
X96908000Y-120862500D01*
%TO.N,/MOTOR2_CTRL1*%
X57964900Y-120698200D02*
X55933600Y-118666900D01*
X95300100Y-120562000D02*
X94133700Y-120562000D01*
X103075600Y-128191800D02*
X116987200Y-128191800D01*
X71669500Y-120698200D02*
X57964900Y-120698200D01*
X64333100Y-83905100D02*
X58272000Y-83905100D01*
X121264200Y-106635800D02*
X121500000Y-106400000D01*
X94133700Y-120562000D02*
X93205600Y-119633900D01*
X102211700Y-127040000D02*
X102211700Y-127327900D01*
X119621300Y-106635800D02*
X121264200Y-106635800D01*
X93205600Y-119633900D02*
X72733800Y-119633900D01*
X102095700Y-119658900D02*
X96203200Y-119658900D01*
X102211700Y-127327900D02*
X103075600Y-128191800D01*
X101060000Y-127040000D02*
X102211700Y-127040000D01*
X118709300Y-126469700D02*
X119621300Y-126469700D01*
X116987200Y-128191800D02*
X118709300Y-126469700D01*
X96203200Y-119658900D02*
X95300100Y-120562000D01*
X102330000Y-119424600D02*
X102095700Y-119658900D01*
X58272000Y-83905100D02*
X55658000Y-86519100D01*
X55933600Y-118666900D02*
X45441300Y-118666900D01*
X72733800Y-119633900D02*
X71669500Y-120698200D01*
%TO.N,/Motor2_B_OUT*%
X92870900Y-120035600D02*
X93799000Y-120963700D01*
X95969300Y-120460800D02*
X96741700Y-120460800D01*
X62032300Y-80109100D02*
X62759000Y-79382400D01*
X62759000Y-79311300D02*
X63155100Y-78915200D01*
X60683500Y-80109100D02*
X62032300Y-80109100D01*
X54477700Y-79708900D02*
X60283300Y-79708900D01*
X60283300Y-79708900D02*
X60683500Y-80109100D01*
X95466400Y-120963700D02*
X95969300Y-120460800D01*
X96741700Y-120460800D02*
X97141900Y-120060600D01*
X54505500Y-119540200D02*
X56306700Y-121341400D01*
X93799000Y-120963700D02*
X95466400Y-120963700D01*
X56306700Y-121341400D02*
X71594300Y-121341400D01*
X112825700Y-104450000D02*
X112017800Y-105257900D01*
X97141900Y-120060600D02*
X105157600Y-120060600D01*
X115775000Y-104450000D02*
X112825700Y-104450000D01*
X62759000Y-79382400D02*
X62759000Y-79311300D01*
X73709500Y-120035600D02*
X92870900Y-120035600D01*
X71594300Y-121341400D02*
X72096900Y-120838800D01*
X112017800Y-105257900D02*
X107373000Y-105257900D01*
X105157600Y-120060600D02*
X105608600Y-119609600D01*
X54315100Y-79546300D02*
X54477700Y-79708900D01*
X44440700Y-119540200D02*
X54505500Y-119540200D01*
X107373000Y-105257900D02*
X106835900Y-105795000D01*
X72096900Y-120838800D02*
X72906300Y-120838800D01*
X72906300Y-120838800D02*
X73709500Y-120035600D01*
%TO.N,/MOTOR3_A_OUT*%
X70004200Y-124500000D02*
X69428300Y-124500000D01*
X69428300Y-122946600D02*
X71693100Y-122946600D01*
X111514500Y-91817000D02*
X115327400Y-91817000D01*
X116440500Y-97250000D02*
X118616100Y-95074400D01*
X95799000Y-121767100D02*
X95825300Y-121740800D01*
X118616100Y-95074400D02*
X118616100Y-93715600D01*
X115327400Y-91817000D02*
X115397100Y-91747300D01*
X73708400Y-121740800D02*
X93440100Y-121740800D01*
X115397100Y-91747300D02*
X115479700Y-91747300D01*
X114852700Y-91013600D02*
X111397400Y-91013600D01*
X116842600Y-93110200D02*
X116842600Y-93588600D01*
X115034600Y-90831700D02*
X114852700Y-91013600D01*
X97509800Y-121433700D02*
X108097400Y-121433700D01*
X96379200Y-122066000D02*
X96877500Y-122066000D01*
X73405300Y-122043900D02*
X73708400Y-121740800D01*
X93466400Y-121767100D02*
X95799000Y-121767100D01*
X116431200Y-94000000D02*
X115775000Y-94000000D01*
X52282200Y-122946600D02*
X69428300Y-122946600D01*
X93440100Y-121740800D02*
X93466400Y-121767100D01*
X111397400Y-91013600D02*
X111062900Y-90679100D01*
X118616100Y-93715600D02*
X115732200Y-90831700D01*
X70580000Y-124500000D02*
X70278800Y-124500000D01*
X72595800Y-122043900D02*
X73405300Y-122043900D01*
X115732200Y-90831700D02*
X115034600Y-90831700D01*
X108097400Y-121433700D02*
X108266900Y-121603200D01*
X116842600Y-93588600D02*
X116431200Y-94000000D01*
X115479700Y-91747300D02*
X116842600Y-93110200D01*
X96054000Y-121740800D02*
X96379200Y-122066000D01*
X115775000Y-97250000D02*
X116440500Y-97250000D01*
X50995600Y-121660000D02*
X52282200Y-122946600D01*
X71693100Y-122946600D02*
X72595800Y-122043900D01*
X111062900Y-92268600D02*
X111514500Y-91817000D01*
X95825300Y-121740800D02*
X96054000Y-121740800D01*
X96877500Y-122066000D02*
X97509800Y-121433700D01*
X69428300Y-122946600D02*
X69428300Y-124500000D01*
X70004200Y-124500000D02*
X70278800Y-124500000D01*
%TO.N,/MOTOR4_CTRL2*%
X104086700Y-96989100D02*
X105937000Y-98839400D01*
X98416600Y-96599600D02*
X101941400Y-96599600D01*
X118608600Y-97250000D02*
X121500000Y-97250000D01*
X102330900Y-96989100D02*
X104086700Y-96989100D01*
X89589300Y-95593300D02*
X90995700Y-96999700D01*
X117019200Y-98839400D02*
X118608600Y-97250000D01*
X90995700Y-96999700D02*
X98016500Y-96999700D01*
X105937000Y-98839400D02*
X117019200Y-98839400D01*
X101941400Y-96599600D02*
X102330900Y-96989100D01*
X98016500Y-96999700D02*
X98416600Y-96599600D01*
%TO.N,/MOTOR3_B_OUT*%
X75990300Y-104142400D02*
X75432600Y-103584700D01*
X117244300Y-92943900D02*
X117244300Y-94575400D01*
X94167000Y-90974900D02*
X94638600Y-90503300D01*
X66363400Y-113095100D02*
X70615500Y-113095100D01*
X78471400Y-109715000D02*
X78318200Y-109868200D01*
X70615500Y-113095100D02*
X71695300Y-112015300D01*
X100186400Y-91013600D02*
X110546600Y-91013600D01*
X75977800Y-113537200D02*
X77047300Y-113537200D01*
X75197200Y-107948400D02*
X75949900Y-107195700D01*
X78318200Y-109868200D02*
X75976400Y-109868200D01*
X116519700Y-95300000D02*
X115775000Y-95300000D01*
X115775000Y-95950000D02*
X115775000Y-95300000D01*
X110948300Y-91415300D02*
X115161000Y-91415300D01*
X117244300Y-94575400D02*
X116519700Y-95300000D01*
X93514700Y-107195700D02*
X93580600Y-107261600D01*
X75432600Y-103584700D02*
X69777100Y-103584700D01*
X115278800Y-91297500D02*
X115597900Y-91297500D01*
X110546600Y-91013600D02*
X110948300Y-91415300D01*
X99676100Y-90503300D02*
X100186400Y-91013600D01*
X75197200Y-109089000D02*
X75197200Y-107948400D01*
X71695300Y-112015300D02*
X74455900Y-112015300D01*
X69777100Y-103584700D02*
X68687000Y-104674800D01*
X115161000Y-91415300D02*
X115278800Y-91297500D01*
X77047300Y-113537200D02*
X78471400Y-112113100D01*
X75949900Y-107195700D02*
X93514700Y-107195700D01*
X74455900Y-112015300D02*
X75977800Y-113537200D01*
X65498900Y-113959600D02*
X66363400Y-113095100D01*
X94638600Y-90503300D02*
X99676100Y-90503300D01*
X75976400Y-109868200D02*
X75197200Y-109089000D01*
X115597900Y-91297500D02*
X117244300Y-92943900D01*
X78471400Y-112113100D02*
X78471400Y-109715000D01*
%TO.N,/MOTOR3_CTRL2*%
X99790000Y-127405900D02*
X99004200Y-128191700D01*
X120746900Y-94000000D02*
X117158700Y-90411800D01*
X117158700Y-90411800D02*
X112557100Y-90411800D01*
X99004200Y-128191700D02*
X75154900Y-128191700D01*
X99790000Y-126621600D02*
X99790000Y-127405900D01*
X105121000Y-125770000D02*
X100641600Y-125770000D01*
X100641600Y-125770000D02*
X99790000Y-126621600D01*
X73120000Y-127040000D02*
X74271700Y-127040000D01*
X121500000Y-94000000D02*
X120746900Y-94000000D01*
X105603600Y-125287400D02*
X105121000Y-125770000D01*
X74271700Y-127308500D02*
X74271700Y-127040000D01*
X75154900Y-128191700D02*
X74271700Y-127308500D01*
%TO.N,unconnected-(U2-~{FAULT}-Pad8)*%
X114113100Y-96877100D02*
X114113100Y-96969400D01*
X76095800Y-95011800D02*
X76221200Y-95011800D01*
X115043700Y-97900000D02*
X115775000Y-97900000D01*
X72286300Y-97858900D02*
X72286300Y-96764200D01*
X71207800Y-98937400D02*
X72286300Y-97858900D01*
X66787600Y-98636100D02*
X67088900Y-98937400D01*
X67088900Y-98937400D02*
X71207800Y-98937400D01*
X90035500Y-92552600D02*
X100784100Y-92552600D01*
X88661200Y-93926900D02*
X90035500Y-92552600D01*
X76234500Y-95025100D02*
X77070700Y-95025100D01*
X108761700Y-94327400D02*
X110684900Y-96250600D01*
X114113100Y-96969400D02*
X115043700Y-97900000D01*
X74427100Y-94623400D02*
X75707400Y-94623400D01*
X113486600Y-96250600D02*
X114113100Y-96877100D01*
X76221200Y-95011800D02*
X76234500Y-95025100D01*
X72286300Y-96764200D02*
X74427100Y-94623400D01*
X79033200Y-94943400D02*
X79433400Y-95343600D01*
X100784100Y-92552600D02*
X102558900Y-94327400D01*
X75707400Y-94623400D02*
X76095800Y-95011800D01*
X102558900Y-94327400D02*
X108761700Y-94327400D01*
X77070700Y-95025100D02*
X77152400Y-94943400D01*
X85965000Y-95343600D02*
X87381700Y-93926900D01*
X110684900Y-96250600D02*
X113486600Y-96250600D01*
X77152400Y-94943400D02*
X79033200Y-94943400D01*
X87381700Y-93926900D02*
X88661200Y-93926900D01*
X79433400Y-95343600D02*
X85965000Y-95343600D01*
%TO.N,/MOTOR4_CTRL1*%
X61163300Y-86677000D02*
X61163300Y-87098600D01*
X103943500Y-107506300D02*
X116035400Y-107506300D01*
X60511200Y-87750700D02*
X53421300Y-87750700D01*
X62138200Y-85702100D02*
X61163300Y-86677000D01*
X96175200Y-119055600D02*
X71610200Y-119055600D01*
X116035400Y-107506300D02*
X116953200Y-106588500D01*
X71610200Y-119055600D02*
X70532700Y-120133100D01*
X70532700Y-120133100D02*
X58166800Y-120133100D01*
X53421300Y-87750700D02*
X52730900Y-88441100D01*
X99971800Y-108074500D02*
X99973000Y-108075700D01*
X61163300Y-87098600D02*
X60511200Y-87750700D01*
X99973000Y-108075700D02*
X103374100Y-108075700D01*
X116953200Y-106588500D02*
X116953200Y-102446800D01*
X103374100Y-108075700D02*
X103943500Y-107506300D01*
X116953200Y-102446800D02*
X121500000Y-97900000D01*
X58166800Y-120133100D02*
X56098900Y-118065200D01*
X52730900Y-88441100D02*
X51321900Y-88441100D01*
X56098900Y-118065200D02*
X49284100Y-118065200D01*
%TO.N,/MOTOR3_CTRL1*%
X68030400Y-110283700D02*
X72125700Y-110283700D01*
X67718700Y-109972000D02*
X68030400Y-110283700D01*
X117960100Y-89810100D02*
X121500000Y-93350000D01*
X75948100Y-80484400D02*
X76651100Y-80484400D01*
X66428000Y-109972000D02*
X67718700Y-109972000D01*
X76913700Y-87604200D02*
X77620800Y-86897100D01*
X88167800Y-87398900D02*
X99155700Y-87398900D01*
X75820400Y-76690600D02*
X74117100Y-76690600D01*
X72509100Y-106030600D02*
X74347200Y-106030600D01*
X76651100Y-80484400D02*
X77854500Y-79281000D01*
X71129300Y-77031900D02*
X69369600Y-77031900D01*
X77854500Y-78724700D02*
X75820400Y-76690600D01*
X71306800Y-76854400D02*
X71129300Y-77031900D01*
X87631000Y-86897100D02*
X87847900Y-87114000D01*
X77620800Y-86897100D02*
X87631000Y-86897100D01*
X74347200Y-106030600D02*
X74517100Y-106200500D01*
X101566900Y-89810100D02*
X117960100Y-89810100D01*
X87847900Y-87114000D02*
X87882900Y-87114000D01*
X99155700Y-87398900D02*
X101566900Y-89810100D01*
X77854500Y-79281000D02*
X77854500Y-78724700D01*
X87882900Y-87114000D02*
X88167800Y-87398900D01*
%TO.N,/CTRL_EXT_LOAD2*%
X97474500Y-120864000D02*
X122536700Y-120864000D01*
X120804800Y-79254200D02*
X120450000Y-79254200D01*
X121250600Y-79700000D02*
X120804800Y-79254200D01*
X96874200Y-121464300D02*
X97474500Y-120864000D01*
X120450000Y-78400000D02*
X120450000Y-79254200D01*
X96628300Y-121464300D02*
X96874200Y-121464300D01*
%TO.N,/EXT_LOAD1_OUT*%
X97388500Y-125663000D02*
X97495500Y-125556000D01*
X79351700Y-124500000D02*
X79351700Y-124787900D01*
X77048300Y-124233500D02*
X76163100Y-123348300D01*
X65653600Y-110807700D02*
X61889900Y-107044000D01*
X79351700Y-124787900D02*
X80226800Y-125663000D01*
X77048300Y-124500000D02*
X77048300Y-124233500D01*
X80226800Y-125663000D02*
X97388500Y-125663000D01*
X76601600Y-83177900D02*
X82291500Y-83177900D01*
X78200000Y-124500000D02*
X77048300Y-124500000D01*
X67473800Y-110807700D02*
X65653600Y-110807700D01*
X93631400Y-81898000D02*
X97844500Y-77684900D01*
X97844500Y-77684900D02*
X106756900Y-77684900D01*
X118141400Y-89354200D02*
X117287200Y-88500000D01*
X113507500Y-88634100D02*
X109328900Y-88634100D01*
X82291500Y-83177900D02*
X83215300Y-84101700D01*
X106756900Y-77684900D02*
X109029000Y-79957000D01*
X113641600Y-88500000D02*
X113507500Y-88634100D01*
X73868100Y-123348300D02*
X73567200Y-123047400D01*
X109328900Y-88634100D02*
X109029000Y-88334200D01*
X102300000Y-116200000D02*
X102000000Y-116500000D01*
X87988500Y-81898000D02*
X93631400Y-81898000D01*
X117287200Y-88500000D02*
X113641600Y-88500000D01*
X118601000Y-89354200D02*
X118141400Y-89354200D01*
X83215300Y-84101700D02*
X85784800Y-84101700D01*
X85784800Y-84101700D02*
X87988500Y-81898000D01*
X102992000Y-116200000D02*
X102300000Y-116200000D01*
X118601000Y-88500000D02*
X118601000Y-89354200D01*
X78200000Y-124500000D02*
X79351700Y-124500000D01*
X76163100Y-123348300D02*
X73868100Y-123348300D01*
%TO.N,/CTRL_EXT_LOAD1*%
X104622000Y-87831700D02*
X103787500Y-86997200D01*
X76057300Y-85428600D02*
X76057300Y-86674000D01*
X74400000Y-88331300D02*
X70643300Y-88331300D01*
X76988400Y-85048300D02*
X76437600Y-85048300D01*
X70643300Y-88331300D02*
X70577200Y-88397400D01*
X106129800Y-87831700D02*
X104622000Y-87831700D01*
X109027800Y-87379400D02*
X108247000Y-88160200D01*
X106458300Y-88160200D02*
X106129800Y-87831700D01*
X61737200Y-92740000D02*
X61737200Y-92782800D01*
X76057300Y-86674000D02*
X74400000Y-88331300D01*
X78435500Y-86495400D02*
X76988400Y-85048300D01*
X70577200Y-88397400D02*
X65562000Y-88397400D01*
X88334100Y-86997200D02*
X87832300Y-86495400D01*
X76437600Y-85048300D02*
X76057300Y-85428600D01*
X65562000Y-88397400D02*
X64390200Y-89569200D01*
X108247000Y-88160200D02*
X106458300Y-88160200D01*
X120500000Y-85900000D02*
X120500000Y-86754200D01*
X87832300Y-86495400D02*
X78435500Y-86495400D01*
X62709900Y-91767300D02*
X61737200Y-92740000D01*
X119874800Y-87379400D02*
X109027800Y-87379400D01*
X120500000Y-86754200D02*
X119874800Y-87379400D01*
X103787500Y-86997200D02*
X88334100Y-86997200D01*
%TO.N,/EXT_LOAD2_OUT*%
X90900000Y-116510600D02*
X93509000Y-116510600D01*
X118551000Y-82829000D02*
X118551000Y-81000000D01*
X93509000Y-116510600D02*
X95126400Y-114893200D01*
X95126400Y-114893200D02*
X101936900Y-114893200D01*
X118437800Y-82942200D02*
X118551000Y-82829000D01*
X76748800Y-108748800D02*
X90005500Y-108748800D01*
X101936900Y-114893200D02*
X104512900Y-112317200D01*
X76500000Y-108500000D02*
X76748800Y-108748800D01*
X90005500Y-108748800D02*
X90971700Y-109715000D01*
X104512900Y-112317200D02*
X118697500Y-112317200D01*
%TO.N,unconnected-(U5-NC-Pad5)*%
X98901100Y-100744000D02*
X97406000Y-99248900D01*
X98901100Y-104746000D02*
X98901100Y-100744000D01*
X97406000Y-99248900D02*
X97406000Y-98681000D01*
X97406000Y-98681000D02*
X96775000Y-98050000D01*
%TO.N,Net-(JP2-A)*%
X69624400Y-85710000D02*
X69383500Y-85469100D01*
X76441300Y-84302000D02*
X76441300Y-84301900D01*
X89022400Y-84603900D02*
X89030500Y-84595800D01*
X89030500Y-84595800D02*
X101071200Y-84595800D01*
X101071200Y-84595800D02*
X102851000Y-82816000D01*
X67798400Y-86336700D02*
X66973800Y-86336700D01*
X72198300Y-86000000D02*
X73395600Y-84802700D01*
X86117400Y-84905100D02*
X86418600Y-84603900D01*
X79878900Y-84905000D02*
X79878900Y-84905100D01*
X79878900Y-84905100D02*
X86117400Y-84905100D01*
X71908300Y-85710000D02*
X69624400Y-85710000D01*
X72198300Y-86000000D02*
X71908300Y-85710000D01*
X68666000Y-85469100D02*
X67798400Y-86336700D01*
X79275800Y-84301900D02*
X79878900Y-84905000D01*
X73000000Y-86000000D02*
X72198300Y-86000000D01*
X69383500Y-85469100D02*
X68666000Y-85469100D01*
X86418600Y-84603900D02*
X89022400Y-84603900D01*
X76441300Y-84301900D02*
X79275800Y-84301900D01*
X75940600Y-84802700D02*
X76441300Y-84302000D01*
X73395600Y-84802700D02*
X75940600Y-84802700D01*
%TD*%
M02*
