%TF.GenerationSoftware,KiCad,Pcbnew,9.0.0*%
%TF.CreationDate,2025-03-28T12:19:08+02:00*%
%TF.ProjectId,EEE3088F_2025_Project,45454533-3038-4384-965f-323032355f50,rev?*%
%TF.SameCoordinates,Original*%
%TF.FileFunction,Soldermask,Top*%
%TF.FilePolarity,Negative*%
%FSLAX46Y46*%
G04 Gerber Fmt 4.6, Leading zero omitted, Abs format (unit mm)*
G04 Created by KiCad (PCBNEW 9.0.0) date 2025-03-28 12:19:08*
%MOMM*%
%LPD*%
G01*
G04 APERTURE LIST*
G04 Aperture macros list*
%AMRoundRect*
0 Rectangle with rounded corners*
0 $1 Rounding radius*
0 $2 $3 $4 $5 $6 $7 $8 $9 X,Y pos of 4 corners*
0 Add a 4 corners polygon primitive as box body*
4,1,4,$2,$3,$4,$5,$6,$7,$8,$9,$2,$3,0*
0 Add four circle primitives for the rounded corners*
1,1,$1+$1,$2,$3*
1,1,$1+$1,$4,$5*
1,1,$1+$1,$6,$7*
1,1,$1+$1,$8,$9*
0 Add four rect primitives between the rounded corners*
20,1,$1+$1,$2,$3,$4,$5,0*
20,1,$1+$1,$4,$5,$6,$7,0*
20,1,$1+$1,$6,$7,$8,$9,0*
20,1,$1+$1,$8,$9,$2,$3,0*%
%AMFreePoly0*
4,1,9,3.862500,-0.866500,0.737500,-0.866500,0.737500,-0.450000,-0.737500,-0.450000,-0.737500,0.450000,0.737500,0.450000,0.737500,0.866500,3.862500,0.866500,3.862500,-0.866500,3.862500,-0.866500,$1*%
G04 Aperture macros list end*
%ADD10RoundRect,0.100000X-0.680000X-0.100000X0.680000X-0.100000X0.680000X0.100000X-0.680000X0.100000X0*%
%ADD11R,1.000000X1.500000*%
%ADD12R,0.622500X1.105000*%
%ADD13RoundRect,0.250000X-0.337500X-0.475000X0.337500X-0.475000X0.337500X0.475000X-0.337500X0.475000X0*%
%ADD14RoundRect,0.250000X-0.350000X-0.450000X0.350000X-0.450000X0.350000X0.450000X-0.350000X0.450000X0*%
%ADD15C,2.000000*%
%ADD16R,1.207500X1.701000*%
%ADD17R,1.282500X3.456000*%
%ADD18RoundRect,0.250001X-0.462499X-0.849999X0.462499X-0.849999X0.462499X0.849999X-0.462499X0.849999X0*%
%ADD19C,5.600000*%
%ADD20RoundRect,0.100000X-0.217500X-0.100000X0.217500X-0.100000X0.217500X0.100000X-0.217500X0.100000X0*%
%ADD21RoundRect,0.150000X-0.825000X-0.150000X0.825000X-0.150000X0.825000X0.150000X-0.825000X0.150000X0*%
%ADD22R,2.410000X3.300000*%
%ADD23RoundRect,0.250000X0.350000X0.625000X-0.350000X0.625000X-0.350000X-0.625000X0.350000X-0.625000X0*%
%ADD24O,1.200000X1.750000*%
%ADD25RoundRect,0.100000X-0.637500X-0.100000X0.637500X-0.100000X0.637500X0.100000X-0.637500X0.100000X0*%
%ADD26R,1.700000X1.700000*%
%ADD27O,1.700000X1.700000*%
%ADD28RoundRect,0.175000X0.175000X0.425000X-0.175000X0.425000X-0.175000X-0.425000X0.175000X-0.425000X0*%
%ADD29RoundRect,0.190000X-0.190000X-0.410000X0.190000X-0.410000X0.190000X0.410000X-0.190000X0.410000X0*%
%ADD30RoundRect,0.200000X-0.200000X-0.400000X0.200000X-0.400000X0.200000X0.400000X-0.200000X0.400000X0*%
%ADD31RoundRect,0.175000X-0.175000X-0.425000X0.175000X-0.425000X0.175000X0.425000X-0.175000X0.425000X0*%
%ADD32RoundRect,0.190000X0.190000X0.410000X-0.190000X0.410000X-0.190000X-0.410000X0.190000X-0.410000X0*%
%ADD33RoundRect,0.200000X0.200000X0.400000X-0.200000X0.400000X-0.200000X-0.400000X0.200000X-0.400000X0*%
%ADD34O,1.100000X1.700000*%
%ADD35RoundRect,0.237500X-0.250000X-0.237500X0.250000X-0.237500X0.250000X0.237500X-0.250000X0.237500X0*%
%ADD36RoundRect,0.150000X-0.512500X-0.150000X0.512500X-0.150000X0.512500X0.150000X-0.512500X0.150000X0*%
%ADD37RoundRect,0.225000X-0.425000X-0.225000X0.425000X-0.225000X0.425000X0.225000X-0.425000X0.225000X0*%
%ADD38FreePoly0,0.000000*%
%ADD39RoundRect,0.250000X-1.000000X-0.650000X1.000000X-0.650000X1.000000X0.650000X-1.000000X0.650000X0*%
%ADD40O,3.500000X2.200000*%
%ADD41R,2.500000X1.500000*%
%ADD42O,2.500000X1.500000*%
%ADD43RoundRect,0.075000X-0.247500X-0.075000X0.247500X-0.075000X0.247500X0.075000X-0.247500X0.075000X0*%
%ADD44R,1.010000X1.700000*%
G04 APERTURE END LIST*
%TO.C,JP2*%
G36*
X73500000Y-85250000D02*
G01*
X73800000Y-85250000D01*
X73800000Y-86750000D01*
X73500000Y-86750000D01*
X73500000Y-85250000D01*
G37*
%TO.C,JP1*%
G36*
X63700000Y-84750000D02*
G01*
X64000000Y-84750000D01*
X64000000Y-86250000D01*
X63700000Y-86250000D01*
X63700000Y-84750000D01*
G37*
%TO.C,JP4*%
G36*
X77200000Y-114750000D02*
G01*
X77500000Y-114750000D01*
X77500000Y-116250000D01*
X77200000Y-116250000D01*
X77200000Y-114750000D01*
G37*
%TO.C,JP3*%
G36*
X74500000Y-97750000D02*
G01*
X74800000Y-97750000D01*
X74800000Y-99250000D01*
X74500000Y-99250000D01*
X74500000Y-97750000D01*
G37*
%TD*%
D10*
%TO.C,U10*%
X65000000Y-91000000D03*
X65000000Y-91650000D03*
X65000000Y-92310000D03*
X65000000Y-92960000D03*
X67700000Y-92960000D03*
X67700000Y-92310000D03*
X67700000Y-91650000D03*
X67700000Y-91000000D03*
%TD*%
D11*
%TO.C,JP2*%
X73000000Y-86000000D03*
X74300000Y-86000000D03*
%TD*%
D12*
%TO.C,U11*%
X118551000Y-81000000D03*
X119500000Y-81000000D03*
X120450000Y-81000000D03*
X120450000Y-78400000D03*
X118551000Y-78400000D03*
%TD*%
D13*
%TO.C,C7*%
X64925000Y-82000000D03*
X67000000Y-82000000D03*
%TD*%
D14*
%TO.C,R11*%
X100000000Y-105000000D03*
X102000000Y-105000000D03*
%TD*%
D12*
%TO.C,U4*%
X71101000Y-116500000D03*
X72050000Y-116500000D03*
X73000000Y-116500000D03*
X73000000Y-113900000D03*
X71101000Y-113900000D03*
%TD*%
D15*
%TO.C,TP6*%
X103000000Y-92500000D03*
%TD*%
D16*
%TO.C,R3*%
X46042000Y-84689500D03*
X49000000Y-84689500D03*
%TD*%
D17*
%TO.C,R9*%
X54000000Y-91000000D03*
X60133000Y-91000000D03*
%TD*%
D18*
%TO.C,L1*%
X101000000Y-98500000D03*
X103325000Y-98500000D03*
%TD*%
D19*
%TO.C,H2*%
X84500000Y-91000000D03*
%TD*%
D13*
%TO.C,C3*%
X100348800Y-110000000D03*
X102423800Y-110000000D03*
%TD*%
D15*
%TO.C,TP1*%
X97000000Y-116500000D03*
%TD*%
D20*
%TO.C,R8*%
X60185000Y-102250000D03*
X61000000Y-102250000D03*
%TD*%
D11*
%TO.C,JP1*%
X63200000Y-85500000D03*
X64500000Y-85500000D03*
%TD*%
D21*
%TO.C,U8*%
X69500000Y-78500000D03*
X69500000Y-79770000D03*
X69500000Y-81040000D03*
X69500000Y-82310000D03*
X74450000Y-82310000D03*
X74450000Y-81040000D03*
X74450000Y-79770000D03*
X74450000Y-78500000D03*
D22*
X71975000Y-80405000D03*
%TD*%
D23*
%TO.C,J3*%
X96500000Y-82700000D03*
D24*
X94500000Y-82700000D03*
%TD*%
D16*
%TO.C,R16*%
X46042000Y-95500000D03*
X49000000Y-95500000D03*
%TD*%
D15*
%TO.C,TP8*%
X113000000Y-79000000D03*
%TD*%
D25*
%TO.C,U1*%
X115775000Y-101850000D03*
X115775000Y-102500000D03*
X115775000Y-103150000D03*
X115775000Y-103800000D03*
X115775000Y-104450000D03*
X115775000Y-105100000D03*
X115775000Y-105750000D03*
X115775000Y-106400000D03*
X121500000Y-106400000D03*
X121500000Y-105750000D03*
X121500000Y-105100000D03*
X121500000Y-104450000D03*
X121500000Y-103800000D03*
X121500000Y-103150000D03*
X121500000Y-102500000D03*
X121500000Y-101850000D03*
%TD*%
D20*
%TO.C,C16*%
X67525000Y-97000000D03*
X68340000Y-97000000D03*
%TD*%
D16*
%TO.C,R4*%
X46042000Y-88000000D03*
X49000000Y-88000000D03*
%TD*%
D13*
%TO.C,C14*%
X67000000Y-114500000D03*
X69075000Y-114500000D03*
%TD*%
D16*
%TO.C,R1*%
X46042000Y-78068500D03*
X49000000Y-78068500D03*
%TD*%
D13*
%TO.C,C2*%
X113500000Y-110000000D03*
X115575000Y-110000000D03*
%TD*%
%TO.C,C13*%
X109925000Y-103000000D03*
X112000000Y-103000000D03*
%TD*%
D26*
%TO.C,J1*%
X103600000Y-124500000D03*
D27*
X103600000Y-127040000D03*
X101060000Y-124500000D03*
X101060000Y-127040000D03*
X98520000Y-124500000D03*
X98520000Y-127040000D03*
X95980000Y-124500000D03*
X95980000Y-127040000D03*
X93440000Y-124500000D03*
X93440000Y-127040000D03*
X90900000Y-124500000D03*
X90900000Y-127040000D03*
X88360000Y-124500000D03*
X88360000Y-127040000D03*
X85820000Y-124500000D03*
X85820000Y-127040000D03*
X83280000Y-124500000D03*
X83280000Y-127040000D03*
X80740000Y-124500000D03*
X80740000Y-127040000D03*
X78200000Y-124500000D03*
X78200000Y-127040000D03*
X75660000Y-124500000D03*
X75660000Y-127040000D03*
X73120000Y-124500000D03*
X73120000Y-127040000D03*
X70580000Y-124500000D03*
X70580000Y-127040000D03*
X68040000Y-124500000D03*
X68040000Y-127040000D03*
X65500000Y-124500000D03*
X65500000Y-127040000D03*
%TD*%
D20*
%TO.C,C15*%
X70025000Y-97000000D03*
X70840000Y-97000000D03*
%TD*%
D28*
%TO.C,J2*%
X57680000Y-82380000D03*
D29*
X55660000Y-82380000D03*
D30*
X54430000Y-82380000D03*
D31*
X56680000Y-82380000D03*
D32*
X58700000Y-82380000D03*
D33*
X59930000Y-82380000D03*
D34*
X61500000Y-82300000D03*
X61500000Y-78500000D03*
X52860000Y-82300000D03*
X52860000Y-78500000D03*
%TD*%
D13*
%TO.C,C5*%
X111000000Y-94000000D03*
X113075000Y-94000000D03*
%TD*%
D19*
%TO.C,H1*%
X84500000Y-81000000D03*
%TD*%
D20*
%TO.C,R12*%
X60185000Y-104000000D03*
X61000000Y-104000000D03*
%TD*%
D35*
%TO.C,R7*%
X54675000Y-98000000D03*
X56500000Y-98000000D03*
%TD*%
D20*
%TO.C,D1*%
X54660000Y-111000000D03*
X55475000Y-111000000D03*
%TD*%
D15*
%TO.C,TP12*%
X96000000Y-106860000D03*
%TD*%
D13*
%TO.C,C8*%
X64925000Y-78500000D03*
X67000000Y-78500000D03*
%TD*%
%TO.C,C12*%
X105925000Y-109500000D03*
X108000000Y-109500000D03*
%TD*%
D25*
%TO.C,U2*%
X115775000Y-93350000D03*
X115775000Y-94000000D03*
X115775000Y-94650000D03*
X115775000Y-95300000D03*
X115775000Y-95950000D03*
X115775000Y-96600000D03*
X115775000Y-97250000D03*
X115775000Y-97900000D03*
X121500000Y-97900000D03*
X121500000Y-97250000D03*
X121500000Y-96600000D03*
X121500000Y-95950000D03*
X121500000Y-95300000D03*
X121500000Y-94650000D03*
X121500000Y-94000000D03*
X121500000Y-93350000D03*
%TD*%
D20*
%TO.C,R6*%
X60185000Y-100500000D03*
X61000000Y-100500000D03*
%TD*%
D36*
%TO.C,Q2*%
X105225000Y-86550000D03*
X105225000Y-88450000D03*
X107500000Y-87500000D03*
%TD*%
D15*
%TO.C,TP7*%
X108000000Y-116500000D03*
%TD*%
D36*
%TO.C,U5*%
X94500000Y-98050000D03*
X94500000Y-99000000D03*
X94500000Y-99950000D03*
X96775000Y-99950000D03*
X96775000Y-98050000D03*
%TD*%
D15*
%TO.C,TP10*%
X76500000Y-108500000D03*
%TD*%
D13*
%TO.C,C6*%
X111000000Y-97500000D03*
X113075000Y-97500000D03*
%TD*%
D15*
%TO.C,TP4*%
X96000000Y-89000000D03*
%TD*%
D13*
%TO.C,C1*%
X118000000Y-110000000D03*
X120075000Y-110000000D03*
%TD*%
%TO.C,C11*%
X94425000Y-94000000D03*
X96500000Y-94000000D03*
%TD*%
D15*
%TO.C,TP2*%
X102000000Y-116500000D03*
%TD*%
D16*
%TO.C,R15*%
X46042000Y-92000000D03*
X49000000Y-92000000D03*
%TD*%
D20*
%TO.C,R5*%
X60185000Y-98750000D03*
X61000000Y-98750000D03*
%TD*%
D37*
%TO.C,U9*%
X72500000Y-90500000D03*
D38*
X72587500Y-92000000D03*
D37*
X72500000Y-93500000D03*
%TD*%
D19*
%TO.C,H3*%
X84550000Y-101000000D03*
%TD*%
D15*
%TO.C,TP3*%
X105500000Y-79000000D03*
%TD*%
%TO.C,TP9*%
X61000000Y-114000000D03*
%TD*%
D39*
%TO.C,D2*%
X67045000Y-108310000D03*
X71045000Y-108310000D03*
%TD*%
D13*
%TO.C,C17*%
X66925000Y-119000000D03*
X69000000Y-119000000D03*
%TD*%
D20*
%TO.C,D3*%
X54660000Y-114500000D03*
X55475000Y-114500000D03*
%TD*%
D40*
%TO.C,SW1*%
X46500000Y-98900000D03*
X46500000Y-107100000D03*
D41*
X46500000Y-101000000D03*
D42*
X46500000Y-103000000D03*
X46500000Y-105000000D03*
%TD*%
D16*
%TO.C,R2*%
X46042000Y-81379000D03*
X49000000Y-81379000D03*
%TD*%
D43*
%TO.C,U6*%
X54945000Y-105000000D03*
X54945000Y-105650000D03*
X54945000Y-106300000D03*
X57000000Y-106300000D03*
X57000000Y-105650000D03*
X57000000Y-105000000D03*
D44*
X55972500Y-105650000D03*
%TD*%
D11*
%TO.C,JP4*%
X76700000Y-115500000D03*
X78000000Y-115500000D03*
%TD*%
%TO.C,JP3*%
X74000000Y-98500000D03*
X75300000Y-98500000D03*
%TD*%
D12*
%TO.C,U7*%
X118601000Y-88500000D03*
X119550000Y-88500000D03*
X120500000Y-88500000D03*
X120500000Y-85900000D03*
X118601000Y-85900000D03*
%TD*%
D13*
%TO.C,C4*%
X89500000Y-114699500D03*
X91575000Y-114699500D03*
%TD*%
M02*
