%TF.GenerationSoftware,KiCad,Pcbnew,9.0.0*%
%TF.CreationDate,2025-03-28T15:52:13+02:00*%
%TF.ProjectId,EEE3088F_2025_Project,45454533-3038-4384-965f-323032355f50,rev?*%
%TF.SameCoordinates,Original*%
%TF.FileFunction,Soldermask,Top*%
%TF.FilePolarity,Negative*%
%FSLAX46Y46*%
G04 Gerber Fmt 4.6, Leading zero omitted, Abs format (unit mm)*
G04 Created by KiCad (PCBNEW 9.0.0) date 2025-03-28 15:52:13*
%MOMM*%
%LPD*%
G01*
G04 APERTURE LIST*
G04 Aperture macros list*
%AMRoundRect*
0 Rectangle with rounded corners*
0 $1 Rounding radius*
0 $2 $3 $4 $5 $6 $7 $8 $9 X,Y pos of 4 corners*
0 Add a 4 corners polygon primitive as box body*
4,1,4,$2,$3,$4,$5,$6,$7,$8,$9,$2,$3,0*
0 Add four circle primitives for the rounded corners*
1,1,$1+$1,$2,$3*
1,1,$1+$1,$4,$5*
1,1,$1+$1,$6,$7*
1,1,$1+$1,$8,$9*
0 Add four rect primitives between the rounded corners*
20,1,$1+$1,$2,$3,$4,$5,0*
20,1,$1+$1,$4,$5,$6,$7,0*
20,1,$1+$1,$6,$7,$8,$9,0*
20,1,$1+$1,$8,$9,$2,$3,0*%
%AMFreePoly0*
4,1,9,3.862500,-0.866500,0.737500,-0.866500,0.737500,-0.450000,-0.737500,-0.450000,-0.737500,0.450000,0.737500,0.450000,0.737500,0.866500,3.862500,0.866500,3.862500,-0.866500,3.862500,-0.866500,$1*%
G04 Aperture macros list end*
%ADD10RoundRect,0.100000X-0.217500X-0.100000X0.217500X-0.100000X0.217500X0.100000X-0.217500X0.100000X0*%
%ADD11RoundRect,0.150000X-0.512500X-0.150000X0.512500X-0.150000X0.512500X0.150000X-0.512500X0.150000X0*%
%ADD12RoundRect,0.237500X-0.250000X-0.237500X0.250000X-0.237500X0.250000X0.237500X-0.250000X0.237500X0*%
%ADD13R,0.622500X1.105000*%
%ADD14RoundRect,0.100000X-0.680000X-0.100000X0.680000X-0.100000X0.680000X0.100000X-0.680000X0.100000X0*%
%ADD15RoundRect,0.225000X-0.425000X-0.225000X0.425000X-0.225000X0.425000X0.225000X-0.425000X0.225000X0*%
%ADD16FreePoly0,0.000000*%
%ADD17RoundRect,0.150000X-0.825000X-0.150000X0.825000X-0.150000X0.825000X0.150000X-0.825000X0.150000X0*%
%ADD18R,2.410000X3.300000*%
%ADD19RoundRect,0.075000X-0.247500X-0.075000X0.247500X-0.075000X0.247500X0.075000X-0.247500X0.075000X0*%
%ADD20R,1.010000X1.700000*%
%ADD21RoundRect,0.100000X-0.637500X-0.100000X0.637500X-0.100000X0.637500X0.100000X-0.637500X0.100000X0*%
%ADD22C,2.000000*%
%ADD23O,2.200000X3.500000*%
%ADD24R,1.500000X2.500000*%
%ADD25O,1.500000X2.500000*%
%ADD26R,1.207500X1.701000*%
%ADD27RoundRect,0.250000X-0.350000X-0.450000X0.350000X-0.450000X0.350000X0.450000X-0.350000X0.450000X0*%
%ADD28R,1.282500X3.456000*%
%ADD29RoundRect,0.250001X-0.462499X-0.849999X0.462499X-0.849999X0.462499X0.849999X-0.462499X0.849999X0*%
%ADD30R,1.000000X1.500000*%
%ADD31RoundRect,0.250000X0.350000X0.625000X-0.350000X0.625000X-0.350000X-0.625000X0.350000X-0.625000X0*%
%ADD32O,1.200000X1.750000*%
%ADD33RoundRect,0.175000X0.175000X0.425000X-0.175000X0.425000X-0.175000X-0.425000X0.175000X-0.425000X0*%
%ADD34RoundRect,0.190000X-0.190000X-0.410000X0.190000X-0.410000X0.190000X0.410000X-0.190000X0.410000X0*%
%ADD35RoundRect,0.200000X-0.200000X-0.400000X0.200000X-0.400000X0.200000X0.400000X-0.200000X0.400000X0*%
%ADD36RoundRect,0.175000X-0.175000X-0.425000X0.175000X-0.425000X0.175000X0.425000X-0.175000X0.425000X0*%
%ADD37RoundRect,0.190000X0.190000X0.410000X-0.190000X0.410000X-0.190000X-0.410000X0.190000X-0.410000X0*%
%ADD38RoundRect,0.200000X0.200000X0.400000X-0.200000X0.400000X-0.200000X-0.400000X0.200000X-0.400000X0*%
%ADD39O,1.100000X1.700000*%
%ADD40R,1.700000X1.700000*%
%ADD41O,1.700000X1.700000*%
%ADD42C,5.600000*%
%ADD43RoundRect,0.250000X-1.000000X-0.650000X1.000000X-0.650000X1.000000X0.650000X-1.000000X0.650000X0*%
%ADD44RoundRect,0.250000X-0.337500X-0.475000X0.337500X-0.475000X0.337500X0.475000X-0.337500X0.475000X0*%
G04 APERTURE END LIST*
%TO.C,JP4*%
G36*
X174777500Y-100640000D02*
G01*
X175077500Y-100640000D01*
X175077500Y-102140000D01*
X174777500Y-102140000D01*
X174777500Y-100640000D01*
G37*
%TO.C,JP3*%
G36*
X174777500Y-97090000D02*
G01*
X175077500Y-97090000D01*
X175077500Y-98590000D01*
X174777500Y-98590000D01*
X174777500Y-97090000D01*
G37*
%TO.C,JP2*%
G36*
X174777500Y-93540000D02*
G01*
X175077500Y-93540000D01*
X175077500Y-95040000D01*
X174777500Y-95040000D01*
X174777500Y-93540000D01*
G37*
%TO.C,JP1*%
G36*
X174777500Y-89990000D02*
G01*
X175077500Y-89990000D01*
X175077500Y-91490000D01*
X174777500Y-91490000D01*
X174777500Y-89990000D01*
G37*
%TD*%
D10*
%TO.C,D1*%
X132980000Y-79810000D03*
X132165000Y-79810000D03*
%TD*%
%TO.C,D3*%
X132980000Y-81560000D03*
X132165000Y-81560000D03*
%TD*%
D11*
%TO.C,Q2*%
X129500000Y-78825000D03*
X127225000Y-79775000D03*
X127225000Y-77875000D03*
%TD*%
D12*
%TO.C,R7*%
X134025000Y-77680000D03*
X132200000Y-77680000D03*
%TD*%
D11*
%TO.C,U5*%
X129500000Y-82500000D03*
X129500000Y-84400000D03*
X127225000Y-84400000D03*
X127225000Y-83450000D03*
X127225000Y-82500000D03*
%TD*%
D13*
%TO.C,U11*%
X169032800Y-105067500D03*
X170931800Y-105067500D03*
X170931800Y-107667500D03*
X169981800Y-107667500D03*
X169032800Y-107667500D03*
%TD*%
D14*
%TO.C,U10*%
X113300000Y-88500000D03*
X113300000Y-89150000D03*
X113300000Y-89810000D03*
X113300000Y-90460000D03*
X116000000Y-90460000D03*
X116000000Y-89810000D03*
X116000000Y-89150000D03*
X116000000Y-88500000D03*
%TD*%
D15*
%TO.C,U9*%
X113500000Y-80000000D03*
D16*
X113587500Y-81500000D03*
D15*
X113500000Y-83000000D03*
%TD*%
D17*
%TO.C,U8*%
X121325000Y-104295000D03*
X121325000Y-105565000D03*
X121325000Y-106835000D03*
X121325000Y-108105000D03*
X126275000Y-108105000D03*
X126275000Y-106835000D03*
X126275000Y-105565000D03*
X126275000Y-104295000D03*
D18*
X123800000Y-106200000D03*
%TD*%
D13*
%TO.C,U7*%
X164466500Y-107667500D03*
X165415500Y-107667500D03*
X166365500Y-107667500D03*
X166365500Y-105067500D03*
X164466500Y-105067500D03*
%TD*%
D19*
%TO.C,U6*%
X113000000Y-105500000D03*
X113000000Y-106150000D03*
X113000000Y-106800000D03*
X115055000Y-106800000D03*
X115055000Y-106150000D03*
X115055000Y-105500000D03*
D20*
X114027500Y-106150000D03*
%TD*%
D13*
%TO.C,U4*%
X159900300Y-107667500D03*
X160849300Y-107667500D03*
X161799300Y-107667500D03*
X161799300Y-105067500D03*
X159900300Y-105067500D03*
%TD*%
D21*
%TO.C,U2*%
X121000000Y-96850000D03*
X121000000Y-97500000D03*
X121000000Y-98150000D03*
X121000000Y-98800000D03*
X121000000Y-99450000D03*
X121000000Y-100100000D03*
X121000000Y-100750000D03*
X121000000Y-101400000D03*
X126725000Y-101400000D03*
X126725000Y-100750000D03*
X126725000Y-100100000D03*
X126725000Y-99450000D03*
X126725000Y-98800000D03*
X126725000Y-98150000D03*
X126725000Y-97500000D03*
X126725000Y-96850000D03*
%TD*%
%TO.C,U1*%
X120500000Y-89850000D03*
X120500000Y-90500000D03*
X120500000Y-91150000D03*
X120500000Y-91800000D03*
X120500000Y-92450000D03*
X120500000Y-93100000D03*
X120500000Y-93750000D03*
X120500000Y-94400000D03*
X126225000Y-94400000D03*
X126225000Y-93750000D03*
X126225000Y-93100000D03*
X126225000Y-92450000D03*
X126225000Y-91800000D03*
X126225000Y-91150000D03*
X126225000Y-90500000D03*
X126225000Y-89850000D03*
%TD*%
D22*
%TO.C,TP12*%
X164566800Y-86138200D03*
%TD*%
%TO.C,TP10*%
X164566800Y-82088200D03*
%TD*%
%TO.C,TP9*%
X164566800Y-78038200D03*
%TD*%
%TO.C,TP8*%
X164566800Y-73988200D03*
%TD*%
%TO.C,TP7*%
X164566800Y-69938200D03*
%TD*%
%TO.C,TP6*%
X160516800Y-86138200D03*
%TD*%
%TO.C,TP4*%
X160516800Y-82088200D03*
%TD*%
%TO.C,TP3*%
X160516800Y-78038200D03*
%TD*%
%TO.C,TP2*%
X160516800Y-73988200D03*
%TD*%
%TO.C,TP1*%
X160516800Y-69938200D03*
%TD*%
D23*
%TO.C,SW1*%
X183000000Y-67500000D03*
X174800000Y-67500000D03*
D24*
X180900000Y-67500000D03*
D25*
X178900000Y-67500000D03*
X176900000Y-67500000D03*
%TD*%
D26*
%TO.C,R16*%
X168000000Y-86121000D03*
X170958000Y-86121000D03*
%TD*%
%TO.C,R15*%
X168000000Y-82810500D03*
X170958000Y-82810500D03*
%TD*%
D10*
%TO.C,R12*%
X148212500Y-106800000D03*
X149027500Y-106800000D03*
%TD*%
D27*
%TO.C,R11*%
X113000000Y-101500000D03*
X115000000Y-101500000D03*
%TD*%
D28*
%TO.C,R9*%
X136870800Y-109007700D03*
X143003800Y-109007700D03*
%TD*%
D10*
%TO.C,R8*%
X148212500Y-105050000D03*
X149027500Y-105050000D03*
%TD*%
%TO.C,R6*%
X148212500Y-103300000D03*
X149027500Y-103300000D03*
%TD*%
%TO.C,R5*%
X148212500Y-101550000D03*
X149027500Y-101550000D03*
%TD*%
D26*
%TO.C,R4*%
X168000000Y-79500000D03*
X170958000Y-79500000D03*
%TD*%
%TO.C,R3*%
X168000000Y-76189500D03*
X170958000Y-76189500D03*
%TD*%
%TO.C,R2*%
X168000000Y-72879000D03*
X170958000Y-72879000D03*
%TD*%
%TO.C,R1*%
X168000000Y-69568500D03*
X170958000Y-69568500D03*
%TD*%
D29*
%TO.C,L1*%
X113175000Y-95500000D03*
X115500000Y-95500000D03*
%TD*%
D30*
%TO.C,JP4*%
X174277500Y-101390000D03*
X175577500Y-101390000D03*
%TD*%
%TO.C,JP3*%
X174277500Y-97840000D03*
X175577500Y-97840000D03*
%TD*%
%TO.C,JP2*%
X174277500Y-94290000D03*
X175577500Y-94290000D03*
%TD*%
%TO.C,JP1*%
X174277500Y-90740000D03*
X175577500Y-90740000D03*
%TD*%
D31*
%TO.C,J3*%
X116500000Y-73000000D03*
D32*
X114500000Y-73000000D03*
%TD*%
D33*
%TO.C,J2*%
X136000000Y-72000000D03*
D34*
X133980000Y-72000000D03*
D35*
X132750000Y-72000000D03*
D36*
X135000000Y-72000000D03*
D37*
X137020000Y-72000000D03*
D38*
X138250000Y-72000000D03*
D39*
X139820000Y-71920000D03*
X139820000Y-68120000D03*
X131180000Y-71920000D03*
X131180000Y-68120000D03*
%TD*%
D40*
%TO.C,J1*%
X170280000Y-114000000D03*
D41*
X170280000Y-116540000D03*
X167740000Y-114000000D03*
X167740000Y-116540000D03*
X165200000Y-114000000D03*
X165200000Y-116540000D03*
X162660000Y-114000000D03*
X162660000Y-116540000D03*
X160120000Y-114000000D03*
X160120000Y-116540000D03*
X157580000Y-114000000D03*
X157580000Y-116540000D03*
X155040000Y-114000000D03*
X155040000Y-116540000D03*
X152500000Y-114000000D03*
X152500000Y-116540000D03*
X149960000Y-114000000D03*
X149960000Y-116540000D03*
X147420000Y-114000000D03*
X147420000Y-116540000D03*
X144880000Y-114000000D03*
X144880000Y-116540000D03*
X142340000Y-114000000D03*
X142340000Y-116540000D03*
X139800000Y-114000000D03*
X139800000Y-116540000D03*
X137260000Y-114000000D03*
X137260000Y-116540000D03*
X134720000Y-114000000D03*
X134720000Y-116540000D03*
X132180000Y-114000000D03*
X132180000Y-116540000D03*
%TD*%
D42*
%TO.C,H3*%
X150000000Y-91000000D03*
%TD*%
%TO.C,H2*%
X150500000Y-81500000D03*
%TD*%
%TO.C,H1*%
X150500000Y-72500000D03*
%TD*%
D43*
%TO.C,D2*%
X112500000Y-112000000D03*
X116500000Y-112000000D03*
%TD*%
D44*
%TO.C,C17*%
X169310000Y-96490000D03*
X171385000Y-96490000D03*
%TD*%
D10*
%TO.C,C16*%
X148212500Y-99800000D03*
X149027500Y-99800000D03*
%TD*%
%TO.C,C15*%
X148212500Y-98050000D03*
X149027500Y-98050000D03*
%TD*%
D44*
%TO.C,C14*%
X169310000Y-93480000D03*
X171385000Y-93480000D03*
%TD*%
%TO.C,C13*%
X169310000Y-90470000D03*
X171385000Y-90470000D03*
%TD*%
%TO.C,C12*%
X164500000Y-102510000D03*
X166575000Y-102510000D03*
%TD*%
%TO.C,C11*%
X164500000Y-99500000D03*
X166575000Y-99500000D03*
%TD*%
%TO.C,C8*%
X164500000Y-96490000D03*
X166575000Y-96490000D03*
%TD*%
%TO.C,C7*%
X164500000Y-93480000D03*
X166575000Y-93480000D03*
%TD*%
%TO.C,C6*%
X164500000Y-90470000D03*
X166575000Y-90470000D03*
%TD*%
%TO.C,C5*%
X159690000Y-102510000D03*
X161765000Y-102510000D03*
%TD*%
%TO.C,C4*%
X159690000Y-99500000D03*
X161765000Y-99500000D03*
%TD*%
%TO.C,C3*%
X159690000Y-96490000D03*
X161765000Y-96490000D03*
%TD*%
%TO.C,C2*%
X159690000Y-93480000D03*
X161765000Y-93480000D03*
%TD*%
%TO.C,C1*%
X159690000Y-90470000D03*
X161765000Y-90470000D03*
%TD*%
M02*
