M48
; DRILL file {KiCad 9.0.0} date 2025-03-28T15:52:13+0200
; FORMAT={-:-/ absolute / inch / decimal}
; #@! TF.CreationDate,2025-03-28T15:52:13+02:00
; #@! TF.GenerationSoftware,Kicad,Pcbnew,9.0.0
; #@! TF.FileFunction,Plated,1,2,PTH
FMAT,2
INCH
; #@! TA.AperFunction,Plated,PTH,ComponentDrill
T1C0.0079
; #@! TA.AperFunction,Plated,PTH,ViaDrill
T2C0.0118
; #@! TA.AperFunction,Plated,PTH,ComponentDrill
T3C0.0236
; #@! TA.AperFunction,Plated,PTH,ComponentDrill
T4C0.0295
; #@! TA.AperFunction,Plated,PTH,ComponentDrill
T5C0.0354
; #@! TA.AperFunction,Plated,PTH,ComponentDrill
T6C0.0394
; #@! TA.AperFunction,Plated,PTH,ComponentDrill
T7C0.0591
; #@! TA.AperFunction,Plated,PTH,ComponentDrill
T8C0.1260
%
G90
G05
T1
X4.8465Y-4.1339
X4.8465Y-4.1811
X4.8465Y-4.2283
X4.9016Y-4.1339
X4.9016Y-4.1811
X4.9016Y-4.2283
T2
X4.3874Y-3.3009
X4.3874Y-4.1791
X4.4144Y-2.9208
X4.4144Y-4.1483
X4.4738Y-2.9687
X4.5117Y-3.48
X4.5389Y-4.1274
X4.5427Y-3.5939
X4.5487Y-3.2854
X4.5695Y-4.0605
X4.5924Y-3.6144
X4.6187Y-3.4843
X4.6265Y-3.7888
X4.6289Y-4.0359
X4.6459Y-4.1651
X4.6751Y-4.1941
X4.6905Y-3.0133
X4.6912Y-3.5759
X4.7062Y-4.0063
X4.7361Y-2.9554
X4.7361Y-3.7603
X4.7673Y-3.4591
X4.7675Y-4.2921
X4.7852Y-4.6501
X4.7914Y-3.1842
X4.793Y-3.6909
X4.8089Y-4.4649
X4.8172Y-3.9919
X4.8176Y-3.9409
X4.8357Y-4.689
X4.8415Y-3.6142
X4.8415Y-3.6592
X4.8472Y-3.563
X4.8617Y-3.3975
X4.8656Y-3.813
X4.8675Y-3.6786
X4.8856Y-3.5331
X4.8965Y-3.6348
X4.9236Y-4.578
X4.9368Y-3.8745
X4.9396Y-3.985
X4.9505Y-4.6264
X5.0213Y-3.563
X5.0365Y-2.6734
X5.0668Y-3.8898
X5.0676Y-4.1069
X5.0911Y-2.8684
X5.0919Y-4.0271
X5.1091Y-4.1176
X5.115Y-3.1405
X5.1313Y-3.0128
X5.1505Y-3.1795
X5.2039Y-3.102
X5.2376Y-3.5413
X5.238Y-2.9306
X5.2562Y-4.0934
X5.2562Y-4.3065
X5.2613Y-3.8359
X5.2948Y-4.0375
X5.3031Y-2.8015
X5.322Y-3.9459
X5.3253Y-4.0665
X5.3295Y-2.9354
X5.3295Y-3.6142
X5.4136Y-2.9764
X5.4497Y-3.5393
X5.5547Y-3.7665
X5.5846Y-4.2898
X5.5892Y-2.7255
X5.5892Y-3.3777
X5.6743Y-3.0138
X5.7039Y-4.396
X5.7156Y-3.2311
X5.7156Y-4.1421
X5.7393Y-4.2483
X5.7544Y-4.4263
X5.78Y-3.9659
X5.78Y-4.1942
X5.8037Y-3.8749
X5.8352Y-4.1767
X5.8578Y-4.3904
X5.8754Y-4.4327
X5.8818Y-4.1702
X5.9002Y-4.0764
X5.9055Y-3.8947
X5.9055Y-3.9933
X5.9702Y-3.0384
X6.0155Y-4.2725
X6.0157Y-3.4405
X6.0305Y-2.9443
X6.0372Y-3.5131
X6.0372Y-3.806
X6.0566Y-3.4362
X6.0798Y-3.2827
X6.1039Y-3.3227
X6.136Y-4.1147
X6.1515Y-3.9479
X6.1518Y-3.3315
X6.1782Y-3.3064
X6.1831Y-3.7521
X6.1849Y-3.4469
X6.1926Y-4.1415
X6.2075Y-3.9198
X6.2124Y-3.5618
X6.2281Y-4.2309
X6.2378Y-3.7822
X6.2393Y-3.1863
X6.2393Y-3.3668
X6.2404Y-4.2725
X6.2444Y-3.404
X6.2492Y-3.8786
X6.2492Y-4.0736
X6.2626Y-4.2496
X6.2912Y-2.6976
X6.2949Y-3.172
X6.2989Y-3.4894
X6.3386Y-2.5984
X6.3489Y-4.3418
X6.4118Y-3.6605
X6.4155Y-2.9764
X6.4168Y-4.0606
X6.419Y-4.0288
X6.4458Y-3.9688
X6.4697Y-4.1944
X6.5226Y-3.6378
X6.5751Y-4.303
X6.5869Y-4.1701
X6.5906Y-3.8592
X6.6078Y-4.0387
X6.6157Y-4.2806
X6.6859Y-3.5042
X6.6859Y-3.6316
X6.6863Y-2.739
X6.6922Y-4.1237
X6.7126Y-3.9567
X6.7126Y-4.0354
X6.7126Y-4.0551
X6.7126Y-4.0701
X6.7367Y-3.852
X6.7607Y-3.6109
X6.7607Y-3.9917
X6.8042Y-3.6286
X6.821Y-3.9882
X6.821Y-4.5414
X6.8278Y-3.3225
X6.8504Y-4.1929
T4
X4.5079Y-2.874
X4.5866Y-2.874
T5
X6.9646Y-2.6575
X7.0433Y-2.6575
X7.122Y-2.6575
T6
X5.2039Y-4.4882
X5.2039Y-4.5882
X5.3039Y-4.4882
X5.3039Y-4.5882
X5.4039Y-4.4882
X5.4039Y-4.5882
X5.5039Y-4.4882
X5.5039Y-4.5882
X5.6039Y-4.4882
X5.6039Y-4.5882
X5.7039Y-4.4882
X5.7039Y-4.5882
X5.8039Y-4.4882
X5.8039Y-4.5882
X5.9039Y-4.4882
X5.9039Y-4.5882
X6.0039Y-4.4882
X6.0039Y-4.5882
X6.1039Y-4.4882
X6.1039Y-4.5882
X6.2039Y-4.4882
X6.2039Y-4.5882
X6.3039Y-4.4882
X6.3039Y-4.5882
X6.3196Y-2.7535
X6.3196Y-2.9129
X6.3196Y-3.0724
X6.3196Y-3.2318
X6.3196Y-3.3913
X6.4039Y-4.4882
X6.4039Y-4.5882
X6.479Y-2.7535
X6.479Y-2.9129
X6.479Y-3.0724
X6.479Y-3.2318
X6.479Y-3.3913
X6.5039Y-4.4882
X6.5039Y-4.5882
X6.6039Y-4.4882
X6.6039Y-4.5882
X6.7039Y-4.4882
X6.7039Y-4.5882
T7
X6.8819Y-2.6575
X7.2047Y-2.6575
T8
X5.9055Y-3.5827
X5.9252Y-2.8543
X5.9252Y-3.2087
T3
G00X5.1646Y-2.6937
M15
G01X5.1646Y-2.6701
M16
G05
G00X5.1646Y-2.8433
M15
G01X5.1646Y-2.8197
M16
G05
G00X5.5047Y-2.6937
M15
G01X5.5047Y-2.6701
M16
G05
G00X5.5047Y-2.8433
M15
G01X5.5047Y-2.8197
M16
G05
M30
