%TF.GenerationSoftware,KiCad,Pcbnew,9.0.0*%
%TF.CreationDate,2025-03-28T15:52:13+02:00*%
%TF.ProjectId,EEE3088F_2025_Project,45454533-3038-4384-965f-323032355f50,rev?*%
%TF.SameCoordinates,Original*%
%TF.FileFunction,Copper,L2,Bot*%
%TF.FilePolarity,Positive*%
%FSLAX46Y46*%
G04 Gerber Fmt 4.6, Leading zero omitted, Abs format (unit mm)*
G04 Created by KiCad (PCBNEW 9.0.0) date 2025-03-28 15:52:13*
%MOMM*%
%LPD*%
G01*
G04 APERTURE LIST*
G04 Aperture macros list*
%AMRoundRect*
0 Rectangle with rounded corners*
0 $1 Rounding radius*
0 $2 $3 $4 $5 $6 $7 $8 $9 X,Y pos of 4 corners*
0 Add a 4 corners polygon primitive as box body*
4,1,4,$2,$3,$4,$5,$6,$7,$8,$9,$2,$3,0*
0 Add four circle primitives for the rounded corners*
1,1,$1+$1,$2,$3*
1,1,$1+$1,$4,$5*
1,1,$1+$1,$6,$7*
1,1,$1+$1,$8,$9*
0 Add four rect primitives between the rounded corners*
20,1,$1+$1,$2,$3,$4,$5,0*
20,1,$1+$1,$4,$5,$6,$7,0*
20,1,$1+$1,$6,$7,$8,$9,0*
20,1,$1+$1,$8,$9,$2,$3,0*%
G04 Aperture macros list end*
%TA.AperFunction,HeatsinkPad*%
%ADD10C,0.500000*%
%TD*%
%TA.AperFunction,HeatsinkPad*%
%ADD11R,1.900000X2.900000*%
%TD*%
%TA.AperFunction,ComponentPad*%
%ADD12C,2.000000*%
%TD*%
%TA.AperFunction,ComponentPad*%
%ADD13O,2.200000X3.500000*%
%TD*%
%TA.AperFunction,ComponentPad*%
%ADD14R,1.500000X2.500000*%
%TD*%
%TA.AperFunction,ComponentPad*%
%ADD15O,1.500000X2.500000*%
%TD*%
%TA.AperFunction,ComponentPad*%
%ADD16RoundRect,0.250000X0.350000X0.625000X-0.350000X0.625000X-0.350000X-0.625000X0.350000X-0.625000X0*%
%TD*%
%TA.AperFunction,ComponentPad*%
%ADD17O,1.200000X1.750000*%
%TD*%
%TA.AperFunction,HeatsinkPad*%
%ADD18O,1.100000X1.700000*%
%TD*%
%TA.AperFunction,ComponentPad*%
%ADD19R,1.700000X1.700000*%
%TD*%
%TA.AperFunction,ComponentPad*%
%ADD20O,1.700000X1.700000*%
%TD*%
%TA.AperFunction,ComponentPad*%
%ADD21C,5.600000*%
%TD*%
%TA.AperFunction,ViaPad*%
%ADD22C,0.600000*%
%TD*%
%TA.AperFunction,Conductor*%
%ADD23C,0.200000*%
%TD*%
%TA.AperFunction,Conductor*%
%ADD24C,0.400000*%
%TD*%
G04 APERTURE END LIST*
D10*
%TO.P,U8,9,EPAD*%
%TO.N,GND*%
X123100000Y-105000000D03*
X123100000Y-106200000D03*
X123100000Y-107400000D03*
D11*
X123800000Y-106200000D03*
D10*
X124500000Y-105000000D03*
X124500000Y-106200000D03*
X124500000Y-107400000D03*
%TD*%
D12*
%TO.P,TP12,1,1*%
%TO.N,Net-(JP4-B)*%
X164566800Y-86138200D03*
%TD*%
%TO.P,TP10,1,1*%
%TO.N,/EXT_LOAD2_OUT*%
X164566800Y-82088200D03*
%TD*%
%TO.P,TP9,1,1*%
%TO.N,Net-(U1-AISEN)*%
X164566800Y-78038200D03*
%TD*%
%TO.P,TP8,1,1*%
%TO.N,Net-(U2-AISEN)*%
X164566800Y-73988200D03*
%TD*%
%TO.P,TP7,1,1*%
%TO.N,/5V Out*%
X164566800Y-69938200D03*
%TD*%
%TO.P,TP6,1,1*%
%TO.N,Net-(JP3-B)*%
X160516800Y-86138200D03*
%TD*%
%TO.P,TP4,1,1*%
%TO.N,/5V*%
X160516800Y-82088200D03*
%TD*%
%TO.P,TP3,1,1*%
%TO.N,Net-(Q2-D)*%
X160516800Y-78038200D03*
%TD*%
%TO.P,TP2,1,1*%
%TO.N,/EXT_LOAD1_OUT*%
X160516800Y-73988200D03*
%TD*%
%TO.P,TP1,1,1*%
%TO.N,/IN-*%
X160516800Y-69938200D03*
%TD*%
D13*
%TO.P,SW1,*%
%TO.N,*%
X183000000Y-67500000D03*
X174800000Y-67500000D03*
D14*
%TO.P,SW1,1,A*%
%TO.N,/Battery*%
X180900000Y-67500000D03*
D15*
%TO.P,SW1,2,B*%
%TO.N,/IN-*%
X178900000Y-67500000D03*
%TO.P,SW1,3,C*%
%TO.N,unconnected-(SW1-C-Pad3)*%
X176900000Y-67500000D03*
%TD*%
D16*
%TO.P,J3,1,Pin_1*%
%TO.N,GND*%
X116500000Y-73000000D03*
D17*
%TO.P,J3,2,Pin_2*%
%TO.N,/IN+*%
X114500000Y-73000000D03*
%TD*%
D18*
%TO.P,J2,S1,Shield*%
%TO.N,GND*%
X139820000Y-71920000D03*
X139820000Y-68120000D03*
X131180000Y-71920000D03*
X131180000Y-68120000D03*
%TD*%
D19*
%TO.P,J1,1,Pin_1*%
%TO.N,/Motor2_B_OUT*%
X170280000Y-114000000D03*
D20*
%TO.P,J1,2,Pin_2*%
%TO.N,/Motor2_A_OUT*%
X170280000Y-116540000D03*
%TO.P,J1,3,Pin_3*%
%TO.N,/Motor4_A_OUT*%
X167740000Y-114000000D03*
%TO.P,J1,4,Pin_4*%
%TO.N,/MOTOR2_CTRL1*%
X167740000Y-116540000D03*
%TO.P,J1,5,Pin_5*%
%TO.N,/Motor4_B_OUT*%
X165200000Y-114000000D03*
%TO.P,J1,6,Pin_6*%
%TO.N,/MOTOR2_CTRL2*%
X165200000Y-116540000D03*
%TO.P,J1,7,Pin_7*%
%TO.N,/CTRL_EXT_LOAD2*%
X162660000Y-114000000D03*
%TO.P,J1,8,Pin_8*%
%TO.N,/MOTOR4_CTRL1*%
X162660000Y-116540000D03*
%TO.P,J1,9,Pin_9*%
%TO.N,/USART2_RX*%
X160120000Y-114000000D03*
%TO.P,J1,10,Pin_10*%
%TO.N,/MOTOR4_CTRL2*%
X160120000Y-116540000D03*
%TO.P,J1,11,Pin_11*%
%TO.N,/EXT_LOAD2_OUT*%
X157580000Y-114000000D03*
%TO.P,J1,12,Pin_12*%
%TO.N,/USART2_TX*%
X157580000Y-116540000D03*
%TO.P,J1,13,Pin_13*%
%TO.N,/FAST_CHARGE_CTRL*%
X155040000Y-114000000D03*
%TO.P,J1,14,Pin_14*%
%TO.N,/Battery*%
X155040000Y-116540000D03*
%TO.P,J1,15,Pin_15*%
%TO.N,unconnected-(J1-Pin_15-Pad15)*%
X152500000Y-114000000D03*
%TO.P,J1,16,Pin_16*%
%TO.N,/I2C1_SCL*%
X152500000Y-116540000D03*
%TO.P,J1,17,Pin_17*%
%TO.N,/I2C1_SDA*%
X149960000Y-114000000D03*
%TO.P,J1,18,Pin_18*%
%TO.N,/3V3 Out*%
X149960000Y-116540000D03*
%TO.P,J1,19,Pin_19*%
%TO.N,GND*%
X147420000Y-114000000D03*
%TO.P,J1,20,Pin_20*%
%TO.N,/5V Out*%
X147420000Y-116540000D03*
%TO.P,J1,21,Pin_21*%
%TO.N,/EXT_LOAD1_OUT*%
X144880000Y-114000000D03*
%TO.P,J1,22,Pin_22*%
%TO.N,/HV*%
X144880000Y-116540000D03*
%TO.P,J1,23,Pin_23*%
%TO.N,GND*%
X142340000Y-114000000D03*
%TO.P,J1,24,Pin_24*%
%TO.N,/MOTOR3_CTRL1*%
X142340000Y-116540000D03*
%TO.P,J1,25,Pin_25*%
%TO.N,/CTRL_EXT_LOAD1*%
X139800000Y-114000000D03*
%TO.P,J1,26,Pin_26*%
%TO.N,/MOTOR3_CTRL2*%
X139800000Y-116540000D03*
%TO.P,J1,27,Pin_27*%
%TO.N,/MOTOR3_A_OUT*%
X137260000Y-114000000D03*
%TO.P,J1,28,Pin_28*%
%TO.N,/MOTOR1_CTRL1*%
X137260000Y-116540000D03*
%TO.P,J1,29,Pin_29*%
%TO.N,/MOTOR3_B_OUT*%
X134720000Y-114000000D03*
%TO.P,J1,30,Pin_30*%
%TO.N,/MOTOR1_CTRL2*%
X134720000Y-116540000D03*
%TO.P,J1,31,Pin_31*%
%TO.N,/MOTOR1_B_OUT*%
X132180000Y-114000000D03*
%TO.P,J1,32,Pin_32*%
%TO.N,/MOTOR1_A_OUT*%
X132180000Y-116540000D03*
%TD*%
D21*
%TO.P,H3,1*%
%TO.N,GND*%
X150000000Y-91000000D03*
%TD*%
%TO.P,H2,1*%
%TO.N,GND*%
X150500000Y-81500000D03*
%TD*%
%TO.P,H1,1*%
%TO.N,GND*%
X150500000Y-72500000D03*
%TD*%
D22*
%TO.N,/IN-*%
X161000000Y-66000000D03*
X141849000Y-108960000D03*
X141966000Y-69227800D03*
X141966000Y-85793100D03*
%TO.N,Net-(U6-VSET)*%
X135262000Y-103289000D03*
X132178000Y-78790800D03*
X117574400Y-102512000D03*
X118005500Y-105793200D03*
%TO.N,Net-(U2-BISEN)*%
X122366000Y-100100000D03*
X123488000Y-86297600D03*
X158609000Y-86462500D03*
X159889700Y-80568200D03*
%TO.N,Net-(U2-AISEN)*%
X162953000Y-75601700D03*
X135178000Y-100226000D03*
X137506300Y-75601700D03*
%TO.N,Net-(U1-BISEN)*%
X124093000Y-89739800D03*
X127926000Y-67904700D03*
X124370100Y-92325100D03*
%TO.N,Net-(U1-AISEN)*%
X169831000Y-69570300D03*
X119137800Y-76537500D03*
X119157300Y-90827800D03*
%TO.N,Net-(Q2-D)*%
X155854000Y-104513000D03*
X159797000Y-68520200D03*
%TO.N,Net-(JP2-A)*%
X172826000Y-92167600D03*
X148213000Y-106087000D03*
X148788200Y-111515600D03*
X161262500Y-110282000D03*
%TO.N,Net-(JP1-A)*%
X157097000Y-87551300D03*
X157291000Y-105194000D03*
X158194000Y-107465000D03*
X156925300Y-83981300D03*
%TO.N,Net-(J2-CC2)*%
X134700000Y-71158500D03*
X133045300Y-74438500D03*
X113635200Y-75404400D03*
X115288600Y-104836000D03*
%TO.N,Net-(J2-CC1)*%
X112125200Y-74188400D03*
X112125200Y-105366300D03*
%TO.N,/MOTOR1_CTRL2*%
X127540000Y-90500000D03*
%TO.N,/FAST_CHARGE_CTRL*%
X151644000Y-77174800D03*
X155040000Y-84397300D03*
%TO.N,/MOTOR3_B_OUT*%
X129333000Y-102288000D03*
%TO.N,/MOTOR3_CTRL1*%
X141090000Y-95669700D03*
%TO.N,/MOTOR2_CTRL2*%
X157050000Y-95303600D03*
%TO.N,/MOTOR1_B_OUT*%
X122974000Y-91800000D03*
%TO.N,/I2C1_SDA*%
X153838000Y-87280500D03*
X154426900Y-83379600D03*
%TO.N,/MOTOR4_CTRL2*%
X157671000Y-99562900D03*
%TO.N,/3V3 Out*%
X173427000Y-84390500D03*
X173254000Y-101300000D03*
X173254000Y-115352000D03*
X116648000Y-91804900D03*
X117512000Y-96234400D03*
X125060000Y-116282000D03*
X123587000Y-96850000D03*
X117316000Y-88500000D03*
%TO.N,/Motor2_A_OUT*%
X121543000Y-118112000D03*
X121741000Y-93750000D03*
%TO.N,/Motor2_B_OUT*%
X122828000Y-119101000D03*
X122974000Y-92944800D03*
%TO.N,/EXT_LOAD1_OUT*%
X158506000Y-108522000D03*
X144880000Y-111659400D03*
X152793700Y-108522000D03*
X153174700Y-74785800D03*
%TO.N,/CTRL_EXT_LOAD1*%
X174000000Y-106500000D03*
X167308400Y-105921700D03*
X167008800Y-109295000D03*
%TO.N,/MOTOR1_A_OUT*%
X123118000Y-90500000D03*
X123633500Y-93436300D03*
%TO.N,/EXT_LOAD2_OUT*%
X168040000Y-108727000D03*
%TO.N,/MOTOR4_CTRL1*%
X125742000Y-117510000D03*
X125467000Y-101220000D03*
%TO.N,/I2C1_SCL*%
X152800000Y-87389600D03*
%TO.N,/MOTOR3_CTRL2*%
X133636000Y-97432300D03*
X125395700Y-98413100D03*
%TO.N,/MOTOR2_CTRL1*%
X158439000Y-96067800D03*
%TO.N,/MOTOR3_A_OUT*%
X122145000Y-113408000D03*
X122357000Y-101394000D03*
%TO.N,/MOTOR1_CTRL1*%
X133035000Y-89948800D03*
X138422900Y-89899400D03*
%TO.N,Net-(D3-K)*%
X145175000Y-105209000D03*
X144126000Y-76551400D03*
X145175000Y-82069900D03*
%TO.N,Net-(D2-A)*%
X120296000Y-75067800D03*
X120296000Y-95511200D03*
X121701000Y-80878400D03*
X118748100Y-106529500D03*
%TO.N,Net-(D1-K)*%
X134489000Y-102552000D03*
X129314000Y-72857600D03*
X129920900Y-79768000D03*
%TO.N,Net-(JP4-B)*%
X167402000Y-98024900D03*
X167837100Y-102581800D03*
%TO.N,Net-(JP3-B)*%
X156249000Y-100277000D03*
X156256000Y-84619400D03*
X159993000Y-88630300D03*
X163722900Y-100807500D03*
%TO.N,Net-(C13-Pad1)*%
X121089000Y-87860100D03*
X119538000Y-101759000D03*
%TO.N,/HV*%
X147413000Y-98423100D03*
X111440000Y-83842900D03*
X111440000Y-106150000D03*
X146161000Y-112427000D03*
X149866000Y-103541000D03*
%TO.N,/5V Out*%
X170500000Y-100500000D03*
X170500000Y-102500000D03*
X170500000Y-103380000D03*
X170500000Y-103000000D03*
X171721000Y-91716900D03*
X171721000Y-101390000D03*
X158478000Y-80932200D03*
X149234000Y-112591000D03*
X149397000Y-105922000D03*
X169982000Y-104742000D03*
X158478000Y-85515600D03*
%TO.N,/IN+*%
X114597000Y-88391600D03*
X121095000Y-109020000D03*
X146811000Y-100735000D03*
X146811000Y-106532000D03*
%TO.N,/5V*%
X162859000Y-92976500D03*
X171112000Y-97840000D03*
X130334000Y-76526200D03*
X128716000Y-104316000D03*
X133507000Y-109386000D03*
X133507000Y-103973400D03*
X165673200Y-92401200D03*
X130821900Y-80760100D03*
%TO.N,Net-(U2-VINT)*%
X153344000Y-89232000D03*
X153344000Y-96673200D03*
%TO.N,GND*%
X135370000Y-74558400D03*
X145777000Y-107908000D03*
X150000000Y-101431000D03*
X128696000Y-98800000D03*
X129771000Y-104588000D03*
X115385000Y-91285800D03*
X116066000Y-103136000D03*
X115537500Y-83450000D03*
X163042100Y-102330600D03*
X164330200Y-106536600D03*
X150000000Y-98925000D03*
X135370000Y-91800000D03*
%TO.N,/Battery*%
X159069000Y-107939000D03*
X169821000Y-92241600D03*
X158730000Y-103470000D03*
X158730000Y-98516600D03*
X157794900Y-90470000D03*
X169821000Y-89006500D03*
X162987100Y-103139800D03*
%TD*%
D23*
%TO.N,/IN-*%
X160516800Y-66483200D02*
X160516800Y-69938200D01*
X161000000Y-66000000D02*
X160516800Y-66483200D01*
X141966000Y-85793100D02*
X141966000Y-69227800D01*
X141849000Y-85910100D02*
X141966000Y-85793100D01*
X141849000Y-108960000D02*
X141849000Y-85910100D01*
%TO.N,Net-(U6-VSET)*%
X132178000Y-98141800D02*
X132178000Y-78790800D01*
X135262000Y-101225800D02*
X132178000Y-98141800D01*
X135262000Y-103289000D02*
X135262000Y-101225800D01*
X118005500Y-102943100D02*
X118005500Y-105793200D01*
X117574400Y-102512000D02*
X118005500Y-102943100D01*
%TO.N,Net-(U2-BISEN)*%
X122366000Y-91522100D02*
X122366000Y-100100000D01*
X122738200Y-91149900D02*
X122366000Y-91522100D01*
X123394700Y-91149900D02*
X122738200Y-91149900D01*
X123762000Y-90782600D02*
X123394700Y-91149900D01*
X123762000Y-90278400D02*
X123762000Y-90782600D01*
X123488000Y-90004400D02*
X123762000Y-90278400D01*
X123488000Y-86297600D02*
X123488000Y-90004400D01*
X159215100Y-81242800D02*
X159889700Y-80568200D01*
X159215100Y-85856400D02*
X159215100Y-81242800D01*
X158609000Y-86462500D02*
X159215100Y-85856400D01*
%TO.N,Net-(U2-AISEN)*%
X162953300Y-75601700D02*
X164566800Y-73988200D01*
X162953000Y-75601700D02*
X162953300Y-75601700D01*
X137506300Y-97897700D02*
X137506300Y-75601700D01*
X135178000Y-100226000D02*
X137506300Y-97897700D01*
%TO.N,Net-(U1-BISEN)*%
X124093000Y-71737700D02*
X124093000Y-89739800D01*
X127926000Y-67904700D02*
X124093000Y-71737700D01*
X124370100Y-90016900D02*
X124370100Y-92325100D01*
X124093000Y-89739800D02*
X124370100Y-90016900D01*
%TO.N,Net-(U1-AISEN)*%
X169831000Y-72774000D02*
X164566800Y-78038200D01*
X169831000Y-69570300D02*
X169831000Y-72774000D01*
X119137800Y-90808300D02*
X119137800Y-76537500D01*
X119157300Y-90827800D02*
X119137800Y-90808300D01*
%TO.N,Net-(Q2-D)*%
X159162600Y-76684000D02*
X160516800Y-78038200D01*
X159162600Y-69154600D02*
X159162600Y-76684000D01*
X159797000Y-68520200D02*
X159162600Y-69154600D01*
X155643700Y-82911300D02*
X160516800Y-78038200D01*
X155643700Y-104302700D02*
X155643700Y-82911300D01*
X155854000Y-104513000D02*
X155643700Y-104302700D01*
%TO.N,Net-(JP2-A)*%
X161390000Y-110409500D02*
X161262500Y-110282000D01*
X161390000Y-114418400D02*
X161390000Y-110409500D01*
X162241600Y-115270000D02*
X161390000Y-114418400D01*
X163054100Y-115270000D02*
X162241600Y-115270000D01*
X164048300Y-116264200D02*
X163054100Y-115270000D01*
X164048300Y-117089000D02*
X164048300Y-116264200D01*
X164708900Y-117749600D02*
X164048300Y-117089000D01*
X168200300Y-117749600D02*
X164708900Y-117749600D01*
X169010000Y-116939900D02*
X168200300Y-117749600D01*
X169010000Y-111157500D02*
X169010000Y-116939900D01*
X172508600Y-107658900D02*
X169010000Y-111157500D01*
X172508600Y-92485000D02*
X172508600Y-107658900D01*
X172826000Y-92167600D02*
X172508600Y-92485000D01*
X148213000Y-110940400D02*
X148788200Y-111515600D01*
X148213000Y-106087000D02*
X148213000Y-110940400D01*
%TO.N,Net-(JP1-A)*%
X158194000Y-106097000D02*
X158194000Y-107465000D01*
X157291000Y-105194000D02*
X158194000Y-106097000D01*
X156925300Y-87379600D02*
X157097000Y-87551300D01*
X156925300Y-83981300D02*
X156925300Y-87379600D01*
X156447100Y-88201200D02*
X157097000Y-87551300D01*
X156447100Y-99187700D02*
X156447100Y-88201200D01*
X157031000Y-99771600D02*
X156447100Y-99187700D01*
X157031000Y-104934000D02*
X157031000Y-99771600D01*
X157291000Y-105194000D02*
X157031000Y-104934000D01*
%TO.N,Net-(J2-CC2)*%
X113635200Y-103182600D02*
X115288600Y-104836000D01*
X113635200Y-75404400D02*
X113635200Y-103182600D01*
X134700000Y-72783800D02*
X133045300Y-74438500D01*
X134700000Y-71158500D02*
X134700000Y-72783800D01*
%TO.N,Net-(J2-CC1)*%
X112125200Y-105366300D02*
X112125200Y-74188400D01*
%TO.N,/MOTOR1_CTRL2*%
X134988500Y-115388300D02*
X134720000Y-115388300D01*
X135892100Y-114484700D02*
X134988500Y-115388300D01*
X135892100Y-112670200D02*
X135892100Y-114484700D01*
X132580200Y-109358300D02*
X135892100Y-112670200D01*
X132580200Y-100429500D02*
X132580200Y-109358300D01*
X127540000Y-95389300D02*
X132580200Y-100429500D01*
X127540000Y-90500000D02*
X127540000Y-95389300D01*
X134720000Y-116540000D02*
X134720000Y-115388300D01*
%TO.N,/FAST_CHARGE_CTRL*%
X155040000Y-80570800D02*
X155040000Y-84397300D01*
X151644000Y-77174800D02*
X155040000Y-80570800D01*
X155242000Y-84599300D02*
X155040000Y-84397300D01*
X155242000Y-112646300D02*
X155242000Y-84599300D01*
X155040000Y-112848300D02*
X155242000Y-112646300D01*
X155040000Y-114000000D02*
X155040000Y-112848300D01*
%TO.N,/MOTOR3_B_OUT*%
X130430900Y-103385900D02*
X129333000Y-102288000D01*
X130430900Y-113921600D02*
X130430900Y-103385900D01*
X131670100Y-115160800D02*
X130430900Y-113921600D01*
X132695400Y-115160800D02*
X131670100Y-115160800D01*
X133568300Y-114287900D02*
X132695400Y-115160800D01*
X133568300Y-114000000D02*
X133568300Y-114287900D01*
X134720000Y-114000000D02*
X133568300Y-114000000D01*
%TO.N,/MOTOR3_CTRL1*%
X141090000Y-114426200D02*
X141090000Y-95669700D01*
X142052100Y-115388300D02*
X141090000Y-114426200D01*
X142340000Y-115388300D02*
X142052100Y-115388300D01*
X142340000Y-116540000D02*
X142340000Y-115388300D01*
%TO.N,/MOTOR2_CTRL2*%
X165200000Y-116540000D02*
X165200000Y-115388300D01*
X164931500Y-115388300D02*
X165200000Y-115388300D01*
X163930000Y-114386800D02*
X164931500Y-115388300D01*
X163930000Y-107051000D02*
X163930000Y-114386800D01*
X163528300Y-106649300D02*
X163930000Y-107051000D01*
X163528300Y-104531800D02*
X163528300Y-106649300D01*
X157050000Y-98053500D02*
X163528300Y-104531800D01*
X157050000Y-95303600D02*
X157050000Y-98053500D01*
%TO.N,/MOTOR1_B_OUT*%
X132178500Y-112846800D02*
X132180000Y-112848300D01*
X132178500Y-101004500D02*
X132178500Y-112846800D01*
X122974000Y-91800000D02*
X132178500Y-101004500D01*
X132180000Y-114000000D02*
X132180000Y-112848300D01*
%TO.N,/I2C1_SDA*%
X149960000Y-114000000D02*
X149960000Y-112848300D01*
X154438600Y-87881100D02*
X153838000Y-87280500D01*
X154438600Y-108369700D02*
X154438600Y-87881100D01*
X149960000Y-112848300D02*
X154438600Y-108369700D01*
X152173200Y-85633300D02*
X154426900Y-83379600D01*
X152173200Y-87655000D02*
X152173200Y-85633300D01*
X152523500Y-88005300D02*
X152173200Y-87655000D01*
X153113200Y-88005300D02*
X152523500Y-88005300D01*
X153838000Y-87280500D02*
X153113200Y-88005300D01*
%TO.N,/MOTOR4_CTRL2*%
X160120000Y-116540000D02*
X160120000Y-115388300D01*
X159722700Y-101614600D02*
X157671000Y-99562900D01*
X159722700Y-108937300D02*
X159722700Y-101614600D01*
X158953000Y-109707000D02*
X159722700Y-108937300D01*
X158953000Y-114489800D02*
X158953000Y-109707000D01*
X159851500Y-115388300D02*
X158953000Y-114489800D01*
X160120000Y-115388300D02*
X159851500Y-115388300D01*
%TO.N,/3V3 Out*%
X116648000Y-95370400D02*
X117512000Y-96234400D01*
X116648000Y-91804900D02*
X116648000Y-95370400D01*
X173504000Y-84467500D02*
X173427000Y-84390500D01*
X173504000Y-101050000D02*
X173504000Y-84467500D01*
X173254000Y-101300000D02*
X173504000Y-101050000D01*
X116648000Y-89168000D02*
X116648000Y-91804900D01*
X117316000Y-88500000D02*
X116648000Y-89168000D01*
X123587000Y-100470200D02*
X123587000Y-96850000D01*
X125060000Y-101943200D02*
X123587000Y-100470200D01*
X125060000Y-116282000D02*
X125060000Y-101943200D01*
X173254000Y-115352000D02*
X173254000Y-101300000D01*
%TO.N,/Motor2_A_OUT*%
X121543000Y-112332900D02*
X121543000Y-118112000D01*
X121741000Y-112134900D02*
X121543000Y-112332900D01*
X121741000Y-93750000D02*
X121741000Y-112134900D01*
%TO.N,/Motor2_B_OUT*%
X122828000Y-110876900D02*
X122828000Y-119101000D01*
X122548300Y-110597200D02*
X122828000Y-110876900D01*
X122548300Y-103297600D02*
X122548300Y-110597200D01*
X122974000Y-102871900D02*
X122548300Y-103297600D01*
X122974000Y-92944800D02*
X122974000Y-102871900D01*
D24*
%TO.N,/EXT_LOAD1_OUT*%
X144880000Y-114000000D02*
X144880000Y-111659400D01*
D23*
X153986700Y-107329000D02*
X152793700Y-108522000D01*
X153986700Y-88981800D02*
X153986700Y-107329000D01*
X153635200Y-88630300D02*
X153986700Y-88981800D01*
X152522000Y-88630300D02*
X153635200Y-88630300D01*
X151747700Y-87856000D02*
X152522000Y-88630300D01*
X151747700Y-84827500D02*
X151747700Y-87856000D01*
X153622600Y-82952600D02*
X151747700Y-84827500D01*
X153622600Y-80153600D02*
X153622600Y-82952600D01*
X151040800Y-77571800D02*
X153622600Y-80153600D01*
X151040800Y-76919700D02*
X151040800Y-77571800D01*
X153174700Y-74785800D02*
X151040800Y-76919700D01*
%TO.N,/CTRL_EXT_LOAD1*%
X167008800Y-106221300D02*
X167308400Y-105921700D01*
X167008800Y-109295000D02*
X167008800Y-106221300D01*
%TO.N,/MOTOR1_A_OUT*%
X123633500Y-95800000D02*
X123633500Y-93436300D01*
X128095800Y-100262300D02*
X123633500Y-95800000D01*
X128095800Y-112455800D02*
X128095800Y-100262300D01*
X132180000Y-116540000D02*
X128095800Y-112455800D01*
%TO.N,/EXT_LOAD2_OUT*%
X163265100Y-83389900D02*
X164566800Y-82088200D01*
X163265100Y-88089300D02*
X163265100Y-83389900D01*
X163544900Y-88369100D02*
X163265100Y-88089300D01*
X163544900Y-99153600D02*
X163544900Y-88369100D01*
X168040000Y-103648700D02*
X163544900Y-99153600D01*
X168040000Y-108727000D02*
X168040000Y-103648700D01*
%TO.N,/MOTOR4_CTRL1*%
X125742000Y-101495000D02*
X125467000Y-101220000D01*
X125742000Y-117510000D02*
X125742000Y-101495000D01*
%TO.N,/I2C1_SCL*%
X152500000Y-116540000D02*
X152500000Y-115388300D01*
X153558700Y-86630900D02*
X152800000Y-87389600D01*
X154089000Y-86630900D02*
X153558700Y-86630900D01*
X154840300Y-87382200D02*
X154089000Y-86630900D01*
X154840300Y-109104000D02*
X154840300Y-87382200D01*
X153651700Y-110292600D02*
X154840300Y-109104000D01*
X153651700Y-114524600D02*
X153651700Y-110292600D01*
X152788000Y-115388300D02*
X153651700Y-114524600D01*
X152500000Y-115388300D02*
X152788000Y-115388300D01*
%TO.N,/MOTOR3_CTRL2*%
X138648300Y-116808500D02*
X138648300Y-116540000D01*
X137740000Y-117716800D02*
X138648300Y-116808500D01*
X131725300Y-117716800D02*
X137740000Y-117716800D01*
X126342200Y-112333700D02*
X131725300Y-117716800D01*
X126342200Y-99359600D02*
X126342200Y-112333700D01*
X125395700Y-98413100D02*
X126342200Y-99359600D01*
X139800000Y-116540000D02*
X138648300Y-116540000D01*
%TO.N,/MOTOR2_CTRL1*%
X167740000Y-116540000D02*
X167740000Y-115388300D01*
X167471500Y-115388300D02*
X167740000Y-115388300D01*
X166407100Y-114323900D02*
X167471500Y-115388300D01*
X166407100Y-104342500D02*
X166407100Y-114323900D01*
X158439000Y-96374400D02*
X166407100Y-104342500D01*
X158439000Y-96067800D02*
X158439000Y-96374400D01*
%TO.N,/MOTOR3_A_OUT*%
X122145000Y-101606000D02*
X122357000Y-101394000D01*
X122145000Y-113408000D02*
X122145000Y-101606000D01*
%TO.N,/MOTOR1_CTRL1*%
X137260000Y-116540000D02*
X137260000Y-115388300D01*
X138422900Y-114513300D02*
X138422900Y-89899400D01*
X137547900Y-115388300D02*
X138422900Y-114513300D01*
X137260000Y-115388300D02*
X137547900Y-115388300D01*
%TO.N,Net-(D3-K)*%
X145174900Y-82069900D02*
X145175000Y-82069900D01*
X145174900Y-77600300D02*
X145174900Y-82069900D01*
X144126000Y-76551400D02*
X145174900Y-77600300D01*
X145175000Y-105209000D02*
X145175000Y-82069900D01*
%TO.N,Net-(D2-A)*%
X121701000Y-76472800D02*
X121701000Y-80878400D01*
X120296000Y-75067800D02*
X121701000Y-76472800D01*
X120296000Y-93077400D02*
X120296000Y-95511200D01*
X121701000Y-91672400D02*
X120296000Y-93077400D01*
X121701000Y-80878400D02*
X121701000Y-91672400D01*
X120296000Y-104981600D02*
X118748100Y-106529500D01*
X120296000Y-95511200D02*
X120296000Y-104981600D01*
%TO.N,Net-(D1-K)*%
X129314000Y-75499000D02*
X129692600Y-75877600D01*
X129314000Y-72857600D02*
X129314000Y-75499000D01*
X129692600Y-79539700D02*
X129920900Y-79768000D01*
X129692600Y-75877600D02*
X129692600Y-79539700D01*
X130592700Y-75877600D02*
X129692600Y-75877600D01*
X131525700Y-76810600D02*
X130592700Y-75877600D01*
X131525700Y-98144200D02*
X131525700Y-76810600D01*
X134489000Y-101107500D02*
X131525700Y-98144200D01*
X134489000Y-102552000D02*
X134489000Y-101107500D01*
%TO.N,Net-(JP4-B)*%
X164566800Y-95189700D02*
X164566800Y-86138200D01*
X167402000Y-98024900D02*
X164566800Y-95189700D01*
X167402000Y-102146700D02*
X167837100Y-102581800D01*
X167402000Y-98024900D02*
X167402000Y-102146700D01*
%TO.N,Net-(JP3-B)*%
X159993000Y-88630300D02*
X160516800Y-88630300D01*
X160516800Y-86138200D02*
X160516800Y-88630300D01*
X160516800Y-97601400D02*
X163722900Y-100807500D01*
X160516800Y-88630300D02*
X160516800Y-97601400D01*
X156045400Y-84830000D02*
X156256000Y-84619400D01*
X156045400Y-100073400D02*
X156045400Y-84830000D01*
X156249000Y-100277000D02*
X156045400Y-100073400D01*
%TO.N,Net-(C13-Pad1)*%
X121089000Y-89747000D02*
X121089000Y-87860100D01*
X119538000Y-91298000D02*
X121089000Y-89747000D01*
X119538000Y-101759000D02*
X119538000Y-91298000D01*
%TO.N,/HV*%
X144880000Y-116540000D02*
X144880000Y-115388300D01*
X111440000Y-106150000D02*
X111440000Y-83842900D01*
X147413000Y-101088000D02*
X147413000Y-100104100D01*
X149866000Y-103541000D02*
X147413000Y-101088000D01*
X147413000Y-100104100D02*
X147413000Y-98423100D01*
X145148500Y-115388300D02*
X144880000Y-115388300D01*
X146161000Y-114375800D02*
X145148500Y-115388300D01*
X146161000Y-112427000D02*
X146161000Y-114375800D01*
X146525700Y-100104100D02*
X147413000Y-100104100D01*
X146178500Y-100451300D02*
X146525700Y-100104100D01*
X146178500Y-106787100D02*
X146178500Y-100451300D01*
X146396700Y-107005300D02*
X146178500Y-106787100D01*
X146396700Y-112191300D02*
X146396700Y-107005300D01*
X146161000Y-112427000D02*
X146396700Y-112191300D01*
%TO.N,/5V Out*%
X147688500Y-115388300D02*
X147420000Y-115388300D01*
X148690000Y-114386800D02*
X147688500Y-115388300D01*
X148690000Y-113135000D02*
X148690000Y-114386800D01*
X149234000Y-112591000D02*
X148690000Y-113135000D01*
X147420000Y-116540000D02*
X147420000Y-115388300D01*
X170500000Y-103000000D02*
X170500000Y-102500000D01*
X170500000Y-102500000D02*
X170500000Y-100500000D01*
X170500000Y-103380000D02*
X170500000Y-103000000D01*
X169982000Y-103898000D02*
X169982000Y-104742000D01*
X170500000Y-103380000D02*
X169982000Y-103898000D01*
X149397000Y-112428000D02*
X149397000Y-105922000D01*
X149234000Y-112591000D02*
X149397000Y-112428000D01*
X163110400Y-78781600D02*
X162350000Y-78781600D01*
X166586200Y-82257400D02*
X163110400Y-78781600D01*
X166586200Y-89935600D02*
X166586200Y-82257400D01*
X169513800Y-92863200D02*
X166586200Y-89935600D01*
X171721000Y-92863200D02*
X169513800Y-92863200D01*
X171721000Y-91716900D02*
X171721000Y-92863200D01*
X171721000Y-92863200D02*
X171721000Y-101390000D01*
X161206400Y-79925200D02*
X162350000Y-78781600D01*
X159485000Y-79925200D02*
X161206400Y-79925200D01*
X158478000Y-80932200D02*
X159485000Y-79925200D01*
X162350000Y-72155000D02*
X164566800Y-69938200D01*
X162350000Y-78781600D02*
X162350000Y-72155000D01*
X170831000Y-100500000D02*
X170500000Y-100500000D01*
X171721000Y-101390000D02*
X170831000Y-100500000D01*
X158478000Y-80932200D02*
X158478000Y-85515600D01*
%TO.N,/IN+*%
X114500000Y-88294600D02*
X114597000Y-88391600D01*
X114500000Y-73000000D02*
X114500000Y-88294600D01*
X146811000Y-106532000D02*
X146811000Y-100735000D01*
X120381500Y-109020000D02*
X121095000Y-109020000D01*
X114597000Y-103235500D02*
X120381500Y-109020000D01*
X114597000Y-88391600D02*
X114597000Y-103235500D01*
%TO.N,/5V*%
X133507000Y-109386000D02*
X133507000Y-103973400D01*
X171112000Y-97840000D02*
X165673200Y-92401200D01*
X162859000Y-84430400D02*
X162859000Y-92976500D01*
X160516800Y-82088200D02*
X162859000Y-84430400D01*
X130821900Y-77014100D02*
X130821900Y-80760100D01*
X130334000Y-76526200D02*
X130821900Y-77014100D01*
X130821900Y-98095000D02*
X130821900Y-80760100D01*
X133507000Y-100780100D02*
X130821900Y-98095000D01*
X133507000Y-103973400D02*
X133507000Y-100780100D01*
%TO.N,Net-(U2-VINT)*%
X153344000Y-89232000D02*
X153344000Y-96673200D01*
%TO.N,GND*%
X150500000Y-90500000D02*
X150000000Y-91000000D01*
X150500000Y-81500000D02*
X150500000Y-90500000D01*
X139820000Y-71920000D02*
X139820000Y-68120000D01*
X129771000Y-103867500D02*
X129771000Y-104588000D01*
X128696000Y-102792500D02*
X129771000Y-103867500D01*
X128696000Y-98800000D02*
X128696000Y-102792500D01*
X124500000Y-107400000D02*
X124500000Y-106200000D01*
X124500000Y-105000000D02*
X124500000Y-106200000D01*
X123100000Y-107400000D02*
X123100000Y-106200000D01*
X123800000Y-106200000D02*
X123100000Y-106200000D01*
X123100000Y-106200000D02*
X123100000Y-105000000D01*
X115385000Y-102455000D02*
X115385000Y-91285800D01*
X116066000Y-103136000D02*
X115385000Y-102455000D01*
X115385000Y-83602500D02*
X115385000Y-91285800D01*
X115537500Y-83450000D02*
X115385000Y-83602500D01*
X115537500Y-73962500D02*
X115537500Y-83450000D01*
X116500000Y-73000000D02*
X115537500Y-73962500D01*
X142340000Y-111345000D02*
X142340000Y-114000000D01*
X145777000Y-107908000D02*
X142340000Y-111345000D01*
X143513300Y-115173300D02*
X142340000Y-114000000D01*
X143513300Y-116802700D02*
X143513300Y-115173300D01*
X144409200Y-117698600D02*
X143513300Y-116802700D01*
X145389900Y-117698600D02*
X144409200Y-117698600D01*
X146150000Y-116938500D02*
X145389900Y-117698600D01*
X146150000Y-115270000D02*
X146150000Y-116938500D01*
X147420000Y-114000000D02*
X146150000Y-115270000D01*
X164330200Y-103618700D02*
X163042100Y-102330600D01*
X164330200Y-106536600D02*
X164330200Y-103618700D01*
X150000000Y-101431000D02*
X150000000Y-98925000D01*
X135370000Y-74558400D02*
X135370000Y-91800000D01*
X145776800Y-107907800D02*
X145777000Y-107908000D01*
X145776800Y-99130000D02*
X145776800Y-107907800D01*
X147105100Y-97801700D02*
X145776800Y-99130000D01*
X150000000Y-97801700D02*
X147105100Y-97801700D01*
X150000000Y-91000000D02*
X150000000Y-97801700D01*
X150000000Y-97801700D02*
X150000000Y-98925000D01*
X150500000Y-72500000D02*
X150500000Y-81500000D01*
D24*
%TO.N,/Battery*%
X159069000Y-103809000D02*
X159069000Y-107939000D01*
X158730000Y-103470000D02*
X159069000Y-103809000D01*
D23*
X159124200Y-107994200D02*
X159069000Y-107939000D01*
D24*
X159124200Y-108767800D02*
X159124200Y-107994200D01*
X156191700Y-111700300D02*
X159124200Y-108767800D01*
X156191700Y-114524600D02*
X156191700Y-111700300D01*
X155328000Y-115388300D02*
X156191700Y-114524600D01*
X155040000Y-115388300D02*
X155328000Y-115388300D01*
X155040000Y-116540000D02*
X155040000Y-115388300D01*
X180900000Y-67500000D02*
X180900000Y-69051700D01*
X157794900Y-97581500D02*
X157794900Y-90470000D01*
X158730000Y-98516600D02*
X157794900Y-97581500D01*
X169821000Y-80130700D02*
X169821000Y-89006500D01*
X180900000Y-69051700D02*
X169821000Y-80130700D01*
X169821000Y-89006500D02*
X169821000Y-92241600D01*
X158730000Y-98882700D02*
X162987100Y-103139800D01*
X158730000Y-98516600D02*
X158730000Y-98882700D01*
%TD*%
%TA.AperFunction,Conductor*%
%TO.N,GND*%
G36*
X189442539Y-65520185D02*
G01*
X189488294Y-65572989D01*
X189499500Y-65624500D01*
X189499500Y-119375500D01*
X189479815Y-119442539D01*
X189427011Y-119488294D01*
X189375500Y-119499500D01*
X123714878Y-119499500D01*
X123647839Y-119479815D01*
X123602084Y-119427011D01*
X123592140Y-119357853D01*
X123596219Y-119339498D01*
X123597730Y-119334511D01*
X123597737Y-119334497D01*
X123628500Y-119179842D01*
X123628500Y-119022158D01*
X123628500Y-119022156D01*
X123628500Y-119022155D01*
X123628499Y-119022153D01*
X123609869Y-118928496D01*
X123597737Y-118867503D01*
X123588251Y-118844602D01*
X123537397Y-118721827D01*
X123537390Y-118721814D01*
X123449398Y-118590125D01*
X123428520Y-118523447D01*
X123428500Y-118521234D01*
X123428500Y-110965960D01*
X123428501Y-110965947D01*
X123428501Y-110797844D01*
X123426269Y-110789514D01*
X123387577Y-110645116D01*
X123370917Y-110616259D01*
X123308524Y-110508190D01*
X123308518Y-110508182D01*
X123185119Y-110384783D01*
X123151634Y-110323460D01*
X123148800Y-110297102D01*
X123148800Y-108256750D01*
X123168485Y-108189711D01*
X123221289Y-108143956D01*
X123248610Y-108135132D01*
X123318768Y-108121177D01*
X123318775Y-108121175D01*
X123424024Y-108077578D01*
X123424024Y-108077577D01*
X123185119Y-107838672D01*
X123151634Y-107777349D01*
X123148800Y-107750991D01*
X123148800Y-107488025D01*
X123156645Y-107484776D01*
X123184776Y-107456645D01*
X123200000Y-107419891D01*
X123200000Y-107399999D01*
X123453554Y-107399999D01*
X123453554Y-107400001D01*
X123777929Y-107724376D01*
X123822069Y-107724376D01*
X124146446Y-107400000D01*
X123822068Y-107075622D01*
X123777930Y-107075622D01*
X123453554Y-107399999D01*
X123200000Y-107399999D01*
X123200000Y-107380109D01*
X123184776Y-107343355D01*
X123156645Y-107315224D01*
X123148800Y-107311974D01*
X123148800Y-107049008D01*
X123168485Y-106981969D01*
X123185119Y-106961327D01*
X123346446Y-106800000D01*
X123185119Y-106638673D01*
X123151634Y-106577350D01*
X123148800Y-106550992D01*
X123148800Y-106288025D01*
X123156645Y-106284776D01*
X123184776Y-106256645D01*
X123200000Y-106219891D01*
X123200000Y-106199999D01*
X123453554Y-106199999D01*
X123453554Y-106200001D01*
X123777929Y-106524376D01*
X123822069Y-106524376D01*
X124146446Y-106200000D01*
X123822068Y-105875622D01*
X123777930Y-105875622D01*
X123453554Y-106199999D01*
X123200000Y-106199999D01*
X123200000Y-106180109D01*
X123184776Y-106143355D01*
X123156645Y-106115224D01*
X123148800Y-106111974D01*
X123148800Y-105849008D01*
X123168485Y-105781969D01*
X123185119Y-105761327D01*
X123346446Y-105600000D01*
X123185119Y-105438673D01*
X123151634Y-105377350D01*
X123148800Y-105350992D01*
X123148800Y-105088025D01*
X123156645Y-105084776D01*
X123184776Y-105056645D01*
X123200000Y-105019891D01*
X123200000Y-104999999D01*
X123453554Y-104999999D01*
X123453554Y-105000001D01*
X123777929Y-105324376D01*
X123822069Y-105324376D01*
X124146446Y-105000000D01*
X123822068Y-104675622D01*
X123777930Y-104675622D01*
X123453554Y-104999999D01*
X123200000Y-104999999D01*
X123200000Y-104980109D01*
X123184776Y-104943355D01*
X123156645Y-104915224D01*
X123148800Y-104911974D01*
X123148800Y-104649007D01*
X123168485Y-104581968D01*
X123185119Y-104561326D01*
X123424023Y-104322421D01*
X123318767Y-104278822D01*
X123318761Y-104278820D01*
X123248608Y-104264866D01*
X123186698Y-104232481D01*
X123152123Y-104171765D01*
X123148800Y-104143249D01*
X123148800Y-103597697D01*
X123168485Y-103530658D01*
X123185119Y-103510016D01*
X123301001Y-103394134D01*
X123454520Y-103240616D01*
X123533577Y-103103684D01*
X123574501Y-102950957D01*
X123574501Y-102792842D01*
X123574501Y-102785247D01*
X123574500Y-102785229D01*
X123574500Y-101606297D01*
X123594185Y-101539258D01*
X123646989Y-101493503D01*
X123716147Y-101483559D01*
X123779703Y-101512584D01*
X123786181Y-101518616D01*
X124423181Y-102155616D01*
X124456666Y-102216939D01*
X124459500Y-102243297D01*
X124459500Y-104141598D01*
X124439815Y-104208637D01*
X124387011Y-104254392D01*
X124359692Y-104263215D01*
X124281238Y-104278820D01*
X124281228Y-104278823D01*
X124175974Y-104322420D01*
X124175974Y-104322421D01*
X124423181Y-104569627D01*
X124456666Y-104630950D01*
X124459500Y-104657308D01*
X124459500Y-104908536D01*
X124443355Y-104915224D01*
X124415224Y-104943355D01*
X124400000Y-104980109D01*
X124400000Y-105019891D01*
X124415224Y-105056645D01*
X124443355Y-105084776D01*
X124459500Y-105091463D01*
X124459500Y-105342692D01*
X124439815Y-105409731D01*
X124423181Y-105430373D01*
X124253554Y-105600000D01*
X124423181Y-105769627D01*
X124456666Y-105830950D01*
X124459500Y-105857308D01*
X124459500Y-106108536D01*
X124443355Y-106115224D01*
X124415224Y-106143355D01*
X124400000Y-106180109D01*
X124400000Y-106219891D01*
X124415224Y-106256645D01*
X124443355Y-106284776D01*
X124459500Y-106291463D01*
X124459500Y-106542692D01*
X124439815Y-106609731D01*
X124423181Y-106630373D01*
X124253554Y-106800000D01*
X124423181Y-106969627D01*
X124456666Y-107030950D01*
X124459500Y-107057308D01*
X124459500Y-107308536D01*
X124443355Y-107315224D01*
X124415224Y-107343355D01*
X124400000Y-107380109D01*
X124400000Y-107419891D01*
X124415224Y-107456645D01*
X124443355Y-107484776D01*
X124459500Y-107491463D01*
X124459500Y-107742691D01*
X124439815Y-107809730D01*
X124423181Y-107830372D01*
X124175975Y-108077577D01*
X124281234Y-108121177D01*
X124359690Y-108136783D01*
X124421601Y-108169168D01*
X124456176Y-108229883D01*
X124459500Y-108258401D01*
X124459500Y-115702234D01*
X124439815Y-115769273D01*
X124438602Y-115771125D01*
X124350609Y-115902814D01*
X124350602Y-115902827D01*
X124290264Y-116048498D01*
X124290261Y-116048510D01*
X124259500Y-116203153D01*
X124259500Y-116360846D01*
X124290261Y-116515489D01*
X124290264Y-116515501D01*
X124350602Y-116661172D01*
X124350609Y-116661185D01*
X124438210Y-116792288D01*
X124438213Y-116792292D01*
X124549707Y-116903786D01*
X124549711Y-116903789D01*
X124680814Y-116991390D01*
X124680827Y-116991397D01*
X124826498Y-117051735D01*
X124826503Y-117051737D01*
X124865246Y-117059443D01*
X124898990Y-117066156D01*
X124960901Y-117098541D01*
X124995475Y-117159256D01*
X124991736Y-117229026D01*
X124989361Y-117235224D01*
X124972263Y-117276503D01*
X124972261Y-117276510D01*
X124941500Y-117431153D01*
X124941500Y-117588846D01*
X124972261Y-117743489D01*
X124972264Y-117743501D01*
X125032602Y-117889172D01*
X125032609Y-117889185D01*
X125120210Y-118020288D01*
X125120213Y-118020292D01*
X125231707Y-118131786D01*
X125231711Y-118131789D01*
X125362814Y-118219390D01*
X125362827Y-118219397D01*
X125500386Y-118276375D01*
X125508503Y-118279737D01*
X125656487Y-118309173D01*
X125663153Y-118310499D01*
X125663156Y-118310500D01*
X125663158Y-118310500D01*
X125820844Y-118310500D01*
X125820845Y-118310499D01*
X125975497Y-118279737D01*
X126121179Y-118219394D01*
X126252289Y-118131789D01*
X126363789Y-118020289D01*
X126451394Y-117889179D01*
X126511737Y-117743497D01*
X126542500Y-117588842D01*
X126542500Y-117431158D01*
X126542500Y-117431155D01*
X126542499Y-117431153D01*
X126511738Y-117276510D01*
X126511737Y-117276503D01*
X126477563Y-117193999D01*
X126451397Y-117130827D01*
X126451390Y-117130814D01*
X126363398Y-116999125D01*
X126342520Y-116932447D01*
X126342500Y-116930234D01*
X126342500Y-113482597D01*
X126362185Y-113415558D01*
X126414989Y-113369803D01*
X126484147Y-113359859D01*
X126547703Y-113388884D01*
X126554181Y-113394916D01*
X131240439Y-118081174D01*
X131240449Y-118081185D01*
X131244779Y-118085515D01*
X131244780Y-118085516D01*
X131356584Y-118197320D01*
X131413396Y-118230120D01*
X131493515Y-118276377D01*
X131646243Y-118317301D01*
X131646246Y-118317301D01*
X131811953Y-118317301D01*
X131811969Y-118317300D01*
X137653331Y-118317300D01*
X137653347Y-118317301D01*
X137660943Y-118317301D01*
X137819054Y-118317301D01*
X137819057Y-118317301D01*
X137971785Y-118276377D01*
X138051904Y-118230120D01*
X138108716Y-118197320D01*
X138220520Y-118085516D01*
X138220520Y-118085514D01*
X138230724Y-118075311D01*
X138230728Y-118075306D01*
X138740388Y-117565646D01*
X138801711Y-117532161D01*
X138871403Y-117537145D01*
X138915750Y-117565646D01*
X138920213Y-117570109D01*
X139092179Y-117695048D01*
X139092181Y-117695049D01*
X139092184Y-117695051D01*
X139281588Y-117791557D01*
X139483757Y-117857246D01*
X139693713Y-117890500D01*
X139693714Y-117890500D01*
X139906286Y-117890500D01*
X139906287Y-117890500D01*
X140116243Y-117857246D01*
X140318412Y-117791557D01*
X140507816Y-117695051D01*
X140529789Y-117679086D01*
X140679786Y-117570109D01*
X140679788Y-117570106D01*
X140679792Y-117570104D01*
X140830104Y-117419792D01*
X140830106Y-117419788D01*
X140830109Y-117419786D01*
X140955048Y-117247820D01*
X140955047Y-117247820D01*
X140955051Y-117247816D01*
X140959514Y-117239054D01*
X141007488Y-117188259D01*
X141075308Y-117171463D01*
X141141444Y-117193999D01*
X141180486Y-117239056D01*
X141184951Y-117247820D01*
X141309890Y-117419786D01*
X141460213Y-117570109D01*
X141632179Y-117695048D01*
X141632181Y-117695049D01*
X141632184Y-117695051D01*
X141821588Y-117791557D01*
X142023757Y-117857246D01*
X142233713Y-117890500D01*
X142233714Y-117890500D01*
X142446286Y-117890500D01*
X142446287Y-117890500D01*
X142656243Y-117857246D01*
X142858412Y-117791557D01*
X143047816Y-117695051D01*
X143069789Y-117679086D01*
X143219786Y-117570109D01*
X143219788Y-117570106D01*
X143219792Y-117570104D01*
X143370104Y-117419792D01*
X143370106Y-117419788D01*
X143370109Y-117419786D01*
X143495048Y-117247820D01*
X143495047Y-117247820D01*
X143495051Y-117247816D01*
X143499514Y-117239054D01*
X143547488Y-117188259D01*
X143615308Y-117171463D01*
X143681444Y-117193999D01*
X143720486Y-117239056D01*
X143724951Y-117247820D01*
X143849890Y-117419786D01*
X144000213Y-117570109D01*
X144172179Y-117695048D01*
X144172181Y-117695049D01*
X144172184Y-117695051D01*
X144361588Y-117791557D01*
X144563757Y-117857246D01*
X144773713Y-117890500D01*
X144773714Y-117890500D01*
X144986286Y-117890500D01*
X144986287Y-117890500D01*
X145196243Y-117857246D01*
X145398412Y-117791557D01*
X145587816Y-117695051D01*
X145609789Y-117679086D01*
X145759786Y-117570109D01*
X145759788Y-117570106D01*
X145759792Y-117570104D01*
X145910104Y-117419792D01*
X145910106Y-117419788D01*
X145910109Y-117419786D01*
X146035048Y-117247820D01*
X146035047Y-117247820D01*
X146035051Y-117247816D01*
X146039514Y-117239054D01*
X146087488Y-117188259D01*
X146155308Y-117171463D01*
X146221444Y-117193999D01*
X146260486Y-117239056D01*
X146264951Y-117247820D01*
X146389890Y-117419786D01*
X146540213Y-117570109D01*
X146712179Y-117695048D01*
X146712181Y-117695049D01*
X146712184Y-117695051D01*
X146901588Y-117791557D01*
X147103757Y-117857246D01*
X147313713Y-117890500D01*
X147313714Y-117890500D01*
X147526286Y-117890500D01*
X147526287Y-117890500D01*
X147736243Y-117857246D01*
X147938412Y-117791557D01*
X148127816Y-117695051D01*
X148149789Y-117679086D01*
X148299786Y-117570109D01*
X148299788Y-117570106D01*
X148299792Y-117570104D01*
X148450104Y-117419792D01*
X148450106Y-117419788D01*
X148450109Y-117419786D01*
X148575048Y-117247820D01*
X148575047Y-117247820D01*
X148575051Y-117247816D01*
X148579514Y-117239054D01*
X148627488Y-117188259D01*
X148695308Y-117171463D01*
X148761444Y-117193999D01*
X148800486Y-117239056D01*
X148804951Y-117247820D01*
X148929890Y-117419786D01*
X149080213Y-117570109D01*
X149252179Y-117695048D01*
X149252181Y-117695049D01*
X149252184Y-117695051D01*
X149441588Y-117791557D01*
X149643757Y-117857246D01*
X149853713Y-117890500D01*
X149853714Y-117890500D01*
X150066286Y-117890500D01*
X150066287Y-117890500D01*
X150276243Y-117857246D01*
X150478412Y-117791557D01*
X150667816Y-117695051D01*
X150689789Y-117679086D01*
X150839786Y-117570109D01*
X150839788Y-117570106D01*
X150839792Y-117570104D01*
X150990104Y-117419792D01*
X150990106Y-117419788D01*
X150990109Y-117419786D01*
X151115048Y-117247820D01*
X151115047Y-117247820D01*
X151115051Y-117247816D01*
X151119514Y-117239054D01*
X151167488Y-117188259D01*
X151235308Y-117171463D01*
X151301444Y-117193999D01*
X151340486Y-117239056D01*
X151344951Y-117247820D01*
X151469890Y-117419786D01*
X151620213Y-117570109D01*
X151792179Y-117695048D01*
X151792181Y-117695049D01*
X151792184Y-117695051D01*
X151981588Y-117791557D01*
X152183757Y-117857246D01*
X152393713Y-117890500D01*
X152393714Y-117890500D01*
X152606286Y-117890500D01*
X152606287Y-117890500D01*
X152816243Y-117857246D01*
X153018412Y-117791557D01*
X153207816Y-117695051D01*
X153229789Y-117679086D01*
X153379786Y-117570109D01*
X153379788Y-117570106D01*
X153379792Y-117570104D01*
X153530104Y-117419792D01*
X153530106Y-117419788D01*
X153530109Y-117419786D01*
X153655048Y-117247820D01*
X153655047Y-117247820D01*
X153655051Y-117247816D01*
X153659514Y-117239054D01*
X153707488Y-117188259D01*
X153775308Y-117171463D01*
X153841444Y-117193999D01*
X153880486Y-117239056D01*
X153884951Y-117247820D01*
X154009890Y-117419786D01*
X154160213Y-117570109D01*
X154332179Y-117695048D01*
X154332181Y-117695049D01*
X154332184Y-117695051D01*
X154521588Y-117791557D01*
X154723757Y-117857246D01*
X154933713Y-117890500D01*
X154933714Y-117890500D01*
X155146286Y-117890500D01*
X155146287Y-117890500D01*
X155356243Y-117857246D01*
X155558412Y-117791557D01*
X155747816Y-117695051D01*
X155769789Y-117679086D01*
X155919786Y-117570109D01*
X155919788Y-117570106D01*
X155919792Y-117570104D01*
X156070104Y-117419792D01*
X156070106Y-117419788D01*
X156070109Y-117419786D01*
X156195048Y-117247820D01*
X156195047Y-117247820D01*
X156195051Y-117247816D01*
X156199514Y-117239054D01*
X156247488Y-117188259D01*
X156315308Y-117171463D01*
X156381444Y-117193999D01*
X156420486Y-117239056D01*
X156424951Y-117247820D01*
X156549890Y-117419786D01*
X156700213Y-117570109D01*
X156872179Y-117695048D01*
X156872181Y-117695049D01*
X156872184Y-117695051D01*
X157061588Y-117791557D01*
X157263757Y-117857246D01*
X157473713Y-117890500D01*
X157473714Y-117890500D01*
X157686286Y-117890500D01*
X157686287Y-117890500D01*
X157896243Y-117857246D01*
X158098412Y-117791557D01*
X158287816Y-117695051D01*
X158309789Y-117679086D01*
X158459786Y-117570109D01*
X158459788Y-117570106D01*
X158459792Y-117570104D01*
X158610104Y-117419792D01*
X158610106Y-117419788D01*
X158610109Y-117419786D01*
X158735048Y-117247820D01*
X158735047Y-117247820D01*
X158735051Y-117247816D01*
X158739514Y-117239054D01*
X158787488Y-117188259D01*
X158855308Y-117171463D01*
X158921444Y-117193999D01*
X158960486Y-117239056D01*
X158964951Y-117247820D01*
X159089890Y-117419786D01*
X159240213Y-117570109D01*
X159412179Y-117695048D01*
X159412181Y-117695049D01*
X159412184Y-117695051D01*
X159601588Y-117791557D01*
X159803757Y-117857246D01*
X160013713Y-117890500D01*
X160013714Y-117890500D01*
X160226286Y-117890500D01*
X160226287Y-117890500D01*
X160436243Y-117857246D01*
X160638412Y-117791557D01*
X160827816Y-117695051D01*
X160849789Y-117679086D01*
X160999786Y-117570109D01*
X160999788Y-117570106D01*
X160999792Y-117570104D01*
X161150104Y-117419792D01*
X161150106Y-117419788D01*
X161150109Y-117419786D01*
X161275048Y-117247820D01*
X161275047Y-117247820D01*
X161275051Y-117247816D01*
X161279514Y-117239054D01*
X161327488Y-117188259D01*
X161395308Y-117171463D01*
X161461444Y-117193999D01*
X161500486Y-117239056D01*
X161504951Y-117247820D01*
X161629890Y-117419786D01*
X161780213Y-117570109D01*
X161952179Y-117695048D01*
X161952181Y-117695049D01*
X161952184Y-117695051D01*
X162141588Y-117791557D01*
X162343757Y-117857246D01*
X162553713Y-117890500D01*
X162553714Y-117890500D01*
X162766286Y-117890500D01*
X162766287Y-117890500D01*
X162976243Y-117857246D01*
X163178412Y-117791557D01*
X163367816Y-117695051D01*
X163535418Y-117573282D01*
X163601224Y-117549802D01*
X163669278Y-117565628D01*
X163695984Y-117585919D01*
X164224039Y-118113974D01*
X164224049Y-118113985D01*
X164228379Y-118118315D01*
X164228380Y-118118316D01*
X164340184Y-118230120D01*
X164340186Y-118230121D01*
X164340190Y-118230124D01*
X164477109Y-118309173D01*
X164477116Y-118309177D01*
X164588919Y-118339134D01*
X164629842Y-118350100D01*
X164629843Y-118350100D01*
X168113631Y-118350100D01*
X168113647Y-118350101D01*
X168121243Y-118350101D01*
X168279354Y-118350101D01*
X168279357Y-118350101D01*
X168432085Y-118309177D01*
X168488896Y-118276377D01*
X168569016Y-118230120D01*
X168680820Y-118118316D01*
X168680820Y-118118314D01*
X168691024Y-118108111D01*
X168691028Y-118108106D01*
X169226938Y-117572196D01*
X169288261Y-117538711D01*
X169357953Y-117543695D01*
X169395668Y-117567934D01*
X169396512Y-117566947D01*
X169400213Y-117570109D01*
X169572179Y-117695048D01*
X169572181Y-117695049D01*
X169572184Y-117695051D01*
X169761588Y-117791557D01*
X169963757Y-117857246D01*
X170173713Y-117890500D01*
X170173714Y-117890500D01*
X170386286Y-117890500D01*
X170386287Y-117890500D01*
X170596243Y-117857246D01*
X170798412Y-117791557D01*
X170987816Y-117695051D01*
X171009789Y-117679086D01*
X171159786Y-117570109D01*
X171159788Y-117570106D01*
X171159792Y-117570104D01*
X171310104Y-117419792D01*
X171310106Y-117419788D01*
X171310109Y-117419786D01*
X171435048Y-117247820D01*
X171435047Y-117247820D01*
X171435051Y-117247816D01*
X171531557Y-117058412D01*
X171597246Y-116856243D01*
X171630500Y-116646287D01*
X171630500Y-116433713D01*
X171597246Y-116223757D01*
X171531557Y-116021588D01*
X171435051Y-115832184D01*
X171435049Y-115832181D01*
X171435048Y-115832179D01*
X171310109Y-115660213D01*
X171196569Y-115546673D01*
X171163084Y-115485350D01*
X171168068Y-115415658D01*
X171209940Y-115359725D01*
X171240915Y-115342810D01*
X171372331Y-115293796D01*
X171487546Y-115207546D01*
X171573796Y-115092331D01*
X171624091Y-114957483D01*
X171630500Y-114897873D01*
X171630499Y-113102128D01*
X171624091Y-113042517D01*
X171597145Y-112970272D01*
X171573797Y-112907671D01*
X171573793Y-112907664D01*
X171487547Y-112792455D01*
X171487544Y-112792452D01*
X171372335Y-112706206D01*
X171372328Y-112706202D01*
X171237482Y-112655908D01*
X171237483Y-112655908D01*
X171177883Y-112649501D01*
X171177881Y-112649500D01*
X171177873Y-112649500D01*
X171177865Y-112649500D01*
X169734500Y-112649500D01*
X169667461Y-112629815D01*
X169621706Y-112577011D01*
X169610500Y-112525500D01*
X169610500Y-111457597D01*
X169630185Y-111390558D01*
X169646819Y-111369916D01*
X172441819Y-108574916D01*
X172503142Y-108541431D01*
X172572834Y-108546415D01*
X172628767Y-108588287D01*
X172653184Y-108653751D01*
X172653500Y-108662597D01*
X172653500Y-114772234D01*
X172633815Y-114839273D01*
X172632602Y-114841125D01*
X172544609Y-114972814D01*
X172544602Y-114972827D01*
X172484264Y-115118498D01*
X172484261Y-115118510D01*
X172453500Y-115273153D01*
X172453500Y-115430846D01*
X172484261Y-115585489D01*
X172484264Y-115585501D01*
X172544602Y-115731172D01*
X172544609Y-115731185D01*
X172632210Y-115862288D01*
X172632213Y-115862292D01*
X172743707Y-115973786D01*
X172743711Y-115973789D01*
X172874814Y-116061390D01*
X172874827Y-116061397D01*
X173020498Y-116121735D01*
X173020503Y-116121737D01*
X173175153Y-116152499D01*
X173175156Y-116152500D01*
X173175158Y-116152500D01*
X173332844Y-116152500D01*
X173332845Y-116152499D01*
X173487497Y-116121737D01*
X173633179Y-116061394D01*
X173764289Y-115973789D01*
X173875789Y-115862289D01*
X173963394Y-115731179D01*
X174023737Y-115585497D01*
X174054500Y-115430842D01*
X174054500Y-115273158D01*
X174054500Y-115273155D01*
X174054499Y-115273153D01*
X174044261Y-115221685D01*
X174023737Y-115118503D01*
X174012895Y-115092328D01*
X173963397Y-114972827D01*
X173963390Y-114972814D01*
X173875398Y-114841125D01*
X173854520Y-114774447D01*
X173854500Y-114772234D01*
X173854500Y-107424500D01*
X173874185Y-107357461D01*
X173926989Y-107311706D01*
X173978500Y-107300500D01*
X174078844Y-107300500D01*
X174078845Y-107300499D01*
X174233497Y-107269737D01*
X174379179Y-107209394D01*
X174510289Y-107121789D01*
X174621789Y-107010289D01*
X174709394Y-106879179D01*
X174769737Y-106733497D01*
X174800500Y-106578842D01*
X174800500Y-106421158D01*
X174800500Y-106421155D01*
X174800499Y-106421153D01*
X174795714Y-106397097D01*
X174769737Y-106266503D01*
X174757912Y-106237955D01*
X174709397Y-106120827D01*
X174709390Y-106120814D01*
X174621789Y-105989711D01*
X174621786Y-105989707D01*
X174510292Y-105878213D01*
X174510288Y-105878210D01*
X174379185Y-105790609D01*
X174379172Y-105790602D01*
X174233501Y-105730264D01*
X174233489Y-105730261D01*
X174078845Y-105699500D01*
X174078842Y-105699500D01*
X173978500Y-105699500D01*
X173911461Y-105679815D01*
X173865706Y-105627011D01*
X173854500Y-105575500D01*
X173854500Y-101879765D01*
X173874185Y-101812726D01*
X173875398Y-101810874D01*
X173882647Y-101800026D01*
X173963394Y-101679179D01*
X173968766Y-101666211D01*
X174005051Y-101578609D01*
X174023737Y-101533497D01*
X174054500Y-101378842D01*
X174054500Y-101328362D01*
X174058934Y-101295499D01*
X174061910Y-101284671D01*
X174063577Y-101281784D01*
X174097299Y-101155931D01*
X174104500Y-101129058D01*
X174104500Y-100970943D01*
X174104500Y-84855026D01*
X174124185Y-84787987D01*
X174125398Y-84786135D01*
X174126463Y-84784541D01*
X174136394Y-84769679D01*
X174196737Y-84623997D01*
X174227500Y-84469342D01*
X174227500Y-84311658D01*
X174227500Y-84311655D01*
X174227499Y-84311653D01*
X174219962Y-84273762D01*
X174196737Y-84157003D01*
X174163349Y-84076397D01*
X174136397Y-84011327D01*
X174136390Y-84011314D01*
X174048789Y-83880211D01*
X174048786Y-83880207D01*
X173937292Y-83768713D01*
X173937288Y-83768710D01*
X173806185Y-83681109D01*
X173806172Y-83681102D01*
X173660501Y-83620764D01*
X173660489Y-83620761D01*
X173505845Y-83590000D01*
X173505842Y-83590000D01*
X173348158Y-83590000D01*
X173348155Y-83590000D01*
X173193510Y-83620761D01*
X173193498Y-83620764D01*
X173047827Y-83681102D01*
X173047814Y-83681109D01*
X172916711Y-83768710D01*
X172916707Y-83768713D01*
X172805213Y-83880207D01*
X172805210Y-83880211D01*
X172717609Y-84011314D01*
X172717602Y-84011327D01*
X172657264Y-84156998D01*
X172657261Y-84157010D01*
X172626500Y-84311653D01*
X172626500Y-84469346D01*
X172657261Y-84623989D01*
X172657264Y-84624001D01*
X172717602Y-84769672D01*
X172717609Y-84769685D01*
X172805209Y-84900787D01*
X172805210Y-84900788D01*
X172805211Y-84900789D01*
X172867182Y-84962760D01*
X172900666Y-85024081D01*
X172903500Y-85050440D01*
X172903500Y-91243100D01*
X172883815Y-91310139D01*
X172831011Y-91355894D01*
X172800769Y-91365262D01*
X172790212Y-91367100D01*
X172747158Y-91367100D01*
X172592503Y-91397863D01*
X172577261Y-91404175D01*
X172563747Y-91406529D01*
X172542108Y-91404068D01*
X172520449Y-91406395D01*
X172508073Y-91400198D01*
X172494325Y-91398635D01*
X172477450Y-91384865D01*
X172457973Y-91375113D01*
X172445268Y-91358605D01*
X172440191Y-91354462D01*
X172438802Y-91350203D01*
X172433118Y-91342817D01*
X172430392Y-91337718D01*
X172342789Y-91206611D01*
X172342786Y-91206607D01*
X172231292Y-91095113D01*
X172231288Y-91095110D01*
X172100185Y-91007509D01*
X172100172Y-91007502D01*
X171954501Y-90947164D01*
X171954489Y-90947161D01*
X171799845Y-90916400D01*
X171799842Y-90916400D01*
X171642158Y-90916400D01*
X171642155Y-90916400D01*
X171487510Y-90947161D01*
X171487498Y-90947164D01*
X171341827Y-91007502D01*
X171341814Y-91007509D01*
X171210711Y-91095110D01*
X171210707Y-91095113D01*
X171099213Y-91206607D01*
X171099210Y-91206611D01*
X171011609Y-91337714D01*
X171011602Y-91337727D01*
X170951264Y-91483398D01*
X170951261Y-91483410D01*
X170920500Y-91638053D01*
X170920500Y-91795746D01*
X170951261Y-91950389D01*
X170951264Y-91950401D01*
X171009604Y-92091248D01*
X171013111Y-92123873D01*
X171017781Y-92156347D01*
X171016827Y-92158434D01*
X171017073Y-92160717D01*
X171002389Y-92190049D01*
X170988756Y-92219903D01*
X170986823Y-92221144D01*
X170985797Y-92223196D01*
X170957594Y-92239929D01*
X170929978Y-92257677D01*
X170926947Y-92258112D01*
X170925708Y-92258848D01*
X170895043Y-92262700D01*
X170743144Y-92262700D01*
X170676105Y-92243015D01*
X170630350Y-92190211D01*
X170621527Y-92162891D01*
X170597545Y-92042330D01*
X170590737Y-92008103D01*
X170539226Y-91883744D01*
X170530939Y-91863736D01*
X170521500Y-91816284D01*
X170521500Y-89431816D01*
X170530939Y-89384364D01*
X170578419Y-89269735D01*
X170590737Y-89239997D01*
X170621500Y-89085342D01*
X170621500Y-88927658D01*
X170621500Y-88927655D01*
X170621499Y-88927653D01*
X170616859Y-88904326D01*
X170590737Y-88773003D01*
X170564285Y-88709142D01*
X170530939Y-88628636D01*
X170521500Y-88581184D01*
X170521500Y-80472219D01*
X170541185Y-80405180D01*
X170557819Y-80384538D01*
X181444112Y-69498245D01*
X181444114Y-69498243D01*
X181520775Y-69383511D01*
X181534451Y-69350494D01*
X181544164Y-69327046D01*
X181554191Y-69314602D01*
X181559856Y-69299660D01*
X181575663Y-69287957D01*
X181588005Y-69272643D01*
X181603826Y-69267109D01*
X181616012Y-69258088D01*
X181643662Y-69253175D01*
X181650539Y-69250770D01*
X181654635Y-69250499D01*
X181697872Y-69250499D01*
X181757483Y-69244091D01*
X181758776Y-69243608D01*
X181769623Y-69242891D01*
X181801326Y-69249964D01*
X181833314Y-69255736D01*
X181836056Y-69257713D01*
X181837815Y-69258106D01*
X181840839Y-69261162D01*
X181865490Y-69278939D01*
X181957345Y-69370794D01*
X181957350Y-69370798D01*
X182132764Y-69498243D01*
X182161155Y-69518870D01*
X182294536Y-69586831D01*
X182385616Y-69633239D01*
X182385618Y-69633239D01*
X182385621Y-69633241D01*
X182625215Y-69711090D01*
X182874038Y-69750500D01*
X182874039Y-69750500D01*
X183125961Y-69750500D01*
X183125962Y-69750500D01*
X183374785Y-69711090D01*
X183614379Y-69633241D01*
X183838845Y-69518870D01*
X184042656Y-69370793D01*
X184220793Y-69192656D01*
X184368870Y-68988845D01*
X184483241Y-68764379D01*
X184561090Y-68524785D01*
X184600500Y-68275962D01*
X184600500Y-66724038D01*
X184561090Y-66475215D01*
X184483241Y-66235621D01*
X184483239Y-66235618D01*
X184483239Y-66235616D01*
X184421519Y-66114485D01*
X184368870Y-66011155D01*
X184329367Y-65956783D01*
X184220798Y-65807350D01*
X184220794Y-65807345D01*
X184125630Y-65712181D01*
X184092145Y-65650858D01*
X184097129Y-65581166D01*
X184139001Y-65525233D01*
X184204465Y-65500816D01*
X184213311Y-65500500D01*
X189375500Y-65500500D01*
X189442539Y-65520185D01*
G37*
%TD.AperFunction*%
%TA.AperFunction,Conductor*%
G36*
X143681161Y-114653447D02*
G01*
X143720204Y-114698504D01*
X143724949Y-114707817D01*
X143849890Y-114879786D01*
X144000213Y-115030109D01*
X144172182Y-115155050D01*
X144180946Y-115159516D01*
X144231742Y-115207491D01*
X144248536Y-115275312D01*
X144225998Y-115341447D01*
X144180946Y-115380484D01*
X144172182Y-115384949D01*
X144000213Y-115509890D01*
X143849890Y-115660213D01*
X143724949Y-115832182D01*
X143720484Y-115840946D01*
X143672509Y-115891742D01*
X143604688Y-115908536D01*
X143538553Y-115885998D01*
X143499516Y-115840946D01*
X143495050Y-115832182D01*
X143370109Y-115660213D01*
X143219786Y-115509890D01*
X143047817Y-115384949D01*
X143038504Y-115380204D01*
X142987707Y-115332230D01*
X142970912Y-115264409D01*
X142993449Y-115198274D01*
X143038507Y-115159232D01*
X143047558Y-115154620D01*
X143219459Y-115029727D01*
X143219464Y-115029723D01*
X143369723Y-114879464D01*
X143369727Y-114879459D01*
X143494620Y-114707558D01*
X143499232Y-114698507D01*
X143547205Y-114647709D01*
X143615025Y-114630912D01*
X143681161Y-114653447D01*
G37*
%TD.AperFunction*%
%TA.AperFunction,Conductor*%
G36*
X146465397Y-114994905D02*
G01*
X146491757Y-114996791D01*
X146500810Y-115002609D01*
X146507850Y-115004141D01*
X146536104Y-115025292D01*
X146540535Y-115029723D01*
X146540540Y-115029727D01*
X146712444Y-115154622D01*
X146721495Y-115159234D01*
X146772292Y-115207208D01*
X146789087Y-115275029D01*
X146766550Y-115341164D01*
X146721499Y-115380202D01*
X146712182Y-115384949D01*
X146540213Y-115509890D01*
X146389890Y-115660213D01*
X146264949Y-115832182D01*
X146260484Y-115840946D01*
X146212509Y-115891742D01*
X146144688Y-115908536D01*
X146078553Y-115885998D01*
X146039516Y-115840946D01*
X146035050Y-115832182D01*
X145910109Y-115660213D01*
X145905646Y-115655750D01*
X145872161Y-115594427D01*
X145877145Y-115524735D01*
X145905646Y-115480388D01*
X146360742Y-115025292D01*
X146368687Y-115020953D01*
X146374113Y-115013706D01*
X146398872Y-115004471D01*
X146422065Y-114991807D01*
X146431094Y-114992452D01*
X146439577Y-114989289D01*
X146465397Y-114994905D01*
G37*
%TD.AperFunction*%
%TA.AperFunction,Conductor*%
G36*
X160221905Y-65520185D02*
G01*
X160267660Y-65572989D01*
X160277604Y-65642147D01*
X160269427Y-65671953D01*
X160230263Y-65766502D01*
X160230261Y-65766508D01*
X160199362Y-65921848D01*
X160190598Y-65938602D01*
X160186579Y-65957080D01*
X160167834Y-65982119D01*
X160166977Y-65983759D01*
X160165429Y-65985335D01*
X160148086Y-66002678D01*
X160148085Y-66002678D01*
X160148084Y-66002679D01*
X160148084Y-66002680D01*
X160036281Y-66114482D01*
X160036279Y-66114485D01*
X159995365Y-66185352D01*
X159995364Y-66185353D01*
X159957223Y-66251414D01*
X159957223Y-66251415D01*
X159916299Y-66404143D01*
X159916299Y-66404145D01*
X159916299Y-66572246D01*
X159916300Y-66572259D01*
X159916300Y-67595700D01*
X159896615Y-67662739D01*
X159843811Y-67708494D01*
X159792300Y-67719700D01*
X159718155Y-67719700D01*
X159563510Y-67750461D01*
X159563498Y-67750464D01*
X159417827Y-67810802D01*
X159417814Y-67810809D01*
X159286711Y-67898410D01*
X159286707Y-67898413D01*
X159175213Y-68009907D01*
X159175210Y-68009911D01*
X159087609Y-68141014D01*
X159087602Y-68141027D01*
X159027264Y-68286698D01*
X159027261Y-68286708D01*
X158996361Y-68442049D01*
X158987595Y-68458805D01*
X158983576Y-68477284D01*
X158964831Y-68502324D01*
X158963976Y-68503960D01*
X158962426Y-68505538D01*
X158885892Y-68582071D01*
X158793886Y-68674078D01*
X158793885Y-68674078D01*
X158793884Y-68674079D01*
X158682081Y-68785882D01*
X158682079Y-68785885D01*
X158665474Y-68814646D01*
X158638767Y-68860906D01*
X158631961Y-68872694D01*
X158631959Y-68872696D01*
X158603025Y-68922809D01*
X158603024Y-68922810D01*
X158596137Y-68948513D01*
X158562099Y-69075543D01*
X158562099Y-69075545D01*
X158562099Y-69243646D01*
X158562100Y-69243659D01*
X158562100Y-76597330D01*
X158562099Y-76597348D01*
X158562099Y-76763054D01*
X158562098Y-76763054D01*
X158570826Y-76795627D01*
X158603023Y-76915785D01*
X158618865Y-76943224D01*
X158631958Y-76965900D01*
X158631959Y-76965904D01*
X158631960Y-76965904D01*
X158680642Y-77050226D01*
X158682079Y-77052714D01*
X158682081Y-77052717D01*
X158800949Y-77171585D01*
X158800955Y-77171590D01*
X159064000Y-77434635D01*
X159097485Y-77495958D01*
X159094250Y-77560633D01*
X159053247Y-77686828D01*
X159016300Y-77920102D01*
X159016300Y-78156297D01*
X159053247Y-78389569D01*
X159053247Y-78389572D01*
X159094250Y-78515764D01*
X159096245Y-78585605D01*
X159064000Y-78641763D01*
X155852181Y-81853583D01*
X155790858Y-81887068D01*
X155721166Y-81882084D01*
X155665233Y-81840212D01*
X155640816Y-81774748D01*
X155640500Y-81765902D01*
X155640500Y-80491744D01*
X155640499Y-80491739D01*
X155639808Y-80489158D01*
X155629765Y-80451678D01*
X155599577Y-80339015D01*
X155565262Y-80279580D01*
X155520520Y-80202084D01*
X155408716Y-80090280D01*
X155408715Y-80090279D01*
X155404385Y-80085949D01*
X155404374Y-80085939D01*
X152478574Y-77160139D01*
X152445089Y-77098816D01*
X152444638Y-77096649D01*
X152425165Y-76998757D01*
X152413737Y-76941303D01*
X152412034Y-76937192D01*
X152353397Y-76795627D01*
X152353390Y-76795614D01*
X152274034Y-76676850D01*
X152253156Y-76610173D01*
X152271640Y-76542792D01*
X152289450Y-76520283D01*
X153189362Y-75620372D01*
X153250683Y-75586889D01*
X153252850Y-75586438D01*
X153310785Y-75574913D01*
X153408197Y-75555537D01*
X153553879Y-75495194D01*
X153684989Y-75407589D01*
X153796489Y-75296089D01*
X153884094Y-75164979D01*
X153897459Y-75132714D01*
X153915479Y-75089208D01*
X153944437Y-75019297D01*
X153975200Y-74864642D01*
X153975200Y-74706958D01*
X153975200Y-74706955D01*
X153975199Y-74706953D01*
X153971554Y-74688627D01*
X153944437Y-74552303D01*
X153938526Y-74538032D01*
X153884097Y-74406627D01*
X153884090Y-74406614D01*
X153796489Y-74275511D01*
X153796486Y-74275507D01*
X153684992Y-74164013D01*
X153684988Y-74164010D01*
X153553885Y-74076409D01*
X153553871Y-74076401D01*
X153553246Y-74076143D01*
X153552969Y-74075919D01*
X153548509Y-74073536D01*
X153548961Y-74072689D01*
X153498844Y-74032300D01*
X153476782Y-73966005D01*
X153486142Y-73914131D01*
X153610842Y-73613078D01*
X153704966Y-73302792D01*
X153704969Y-73302781D01*
X153768217Y-72984801D01*
X153768220Y-72984784D01*
X153800000Y-72662115D01*
X153800000Y-72337884D01*
X153768220Y-72015215D01*
X153768217Y-72015198D01*
X153704969Y-71697218D01*
X153704966Y-71697207D01*
X153610842Y-71386921D01*
X153486761Y-71087364D01*
X153486759Y-71087359D01*
X153333920Y-70801419D01*
X153333909Y-70801401D01*
X153153787Y-70531829D01*
X153153777Y-70531815D01*
X153004108Y-70349444D01*
X153004107Y-70349443D01*
X151794251Y-71559300D01*
X151720412Y-71457670D01*
X151542330Y-71279588D01*
X151440697Y-71205747D01*
X152650555Y-69995891D01*
X152650554Y-69995890D01*
X152468184Y-69846222D01*
X152468170Y-69846212D01*
X152198598Y-69666090D01*
X152198580Y-69666079D01*
X151912640Y-69513240D01*
X151912635Y-69513238D01*
X151613078Y-69389157D01*
X151302792Y-69295033D01*
X151302781Y-69295030D01*
X150984801Y-69231782D01*
X150984784Y-69231779D01*
X150662116Y-69200000D01*
X150337884Y-69200000D01*
X150015215Y-69231779D01*
X150015198Y-69231782D01*
X149697218Y-69295030D01*
X149697207Y-69295033D01*
X149386921Y-69389157D01*
X149087364Y-69513238D01*
X149087359Y-69513240D01*
X148801419Y-69666079D01*
X148801401Y-69666090D01*
X148531829Y-69846212D01*
X148531815Y-69846222D01*
X148349444Y-69995890D01*
X148349443Y-69995891D01*
X149559301Y-71205748D01*
X149457670Y-71279588D01*
X149279588Y-71457670D01*
X149205748Y-71559301D01*
X147995891Y-70349443D01*
X147995890Y-70349444D01*
X147846222Y-70531815D01*
X147846212Y-70531829D01*
X147666090Y-70801401D01*
X147666079Y-70801419D01*
X147513240Y-71087359D01*
X147513238Y-71087364D01*
X147389157Y-71386921D01*
X147295033Y-71697207D01*
X147295030Y-71697218D01*
X147231782Y-72015198D01*
X147231779Y-72015215D01*
X147200000Y-72337884D01*
X147200000Y-72662115D01*
X147231779Y-72984784D01*
X147231782Y-72984801D01*
X147295030Y-73302781D01*
X147295033Y-73302792D01*
X147389157Y-73613078D01*
X147513238Y-73912635D01*
X147513240Y-73912640D01*
X147666079Y-74198580D01*
X147666090Y-74198598D01*
X147846212Y-74468170D01*
X147846222Y-74468184D01*
X147995890Y-74650554D01*
X147995891Y-74650555D01*
X149205748Y-73440698D01*
X149279588Y-73542330D01*
X149457670Y-73720412D01*
X149559300Y-73794251D01*
X148349443Y-75004107D01*
X148349444Y-75004108D01*
X148531815Y-75153777D01*
X148531829Y-75153787D01*
X148801401Y-75333909D01*
X148801419Y-75333920D01*
X149087359Y-75486759D01*
X149087364Y-75486761D01*
X149386921Y-75610842D01*
X149697207Y-75704966D01*
X149697218Y-75704969D01*
X150015198Y-75768217D01*
X150015215Y-75768220D01*
X150337884Y-75800000D01*
X150662116Y-75800000D01*
X150984784Y-75768220D01*
X150984797Y-75768218D01*
X151031080Y-75759012D01*
X151100672Y-75765239D01*
X151155849Y-75808101D01*
X151179094Y-75873991D01*
X151163027Y-75941988D01*
X151142953Y-75968310D01*
X150675518Y-76435745D01*
X150675512Y-76435751D01*
X150672086Y-76439178D01*
X150672084Y-76439180D01*
X150560280Y-76550984D01*
X150531075Y-76601569D01*
X150481223Y-76687915D01*
X150440299Y-76840643D01*
X150440299Y-76840645D01*
X150440299Y-77008746D01*
X150440300Y-77008759D01*
X150440300Y-77485130D01*
X150440299Y-77485148D01*
X150440299Y-77650854D01*
X150440298Y-77650854D01*
X150481223Y-77803586D01*
X150486495Y-77812716D01*
X150497678Y-77832085D01*
X150560280Y-77940516D01*
X150615312Y-77995548D01*
X150621260Y-78003864D01*
X150629527Y-78027590D01*
X150641568Y-78049642D01*
X150640825Y-78060018D01*
X150644249Y-78069843D01*
X150638376Y-78094270D01*
X150636584Y-78119334D01*
X150630348Y-78127663D01*
X150627917Y-78137777D01*
X150609770Y-78155152D01*
X150594712Y-78175267D01*
X150584965Y-78178902D01*
X150577450Y-78186098D01*
X150552786Y-78190904D01*
X150529248Y-78199684D01*
X150520402Y-78200000D01*
X150337884Y-78200000D01*
X150015215Y-78231779D01*
X150015198Y-78231782D01*
X149697218Y-78295030D01*
X149697207Y-78295033D01*
X149386921Y-78389157D01*
X149087364Y-78513238D01*
X149087359Y-78513240D01*
X148801419Y-78666079D01*
X148801401Y-78666090D01*
X148531829Y-78846212D01*
X148531815Y-78846222D01*
X148349444Y-78995890D01*
X148349443Y-78995891D01*
X149559301Y-80205748D01*
X149457670Y-80279588D01*
X149279588Y-80457670D01*
X149205748Y-80559301D01*
X147995891Y-79349443D01*
X147995890Y-79349444D01*
X147846222Y-79531815D01*
X147846212Y-79531829D01*
X147666090Y-79801401D01*
X147666079Y-79801419D01*
X147513240Y-80087359D01*
X147513238Y-80087364D01*
X147389157Y-80386921D01*
X147295033Y-80697207D01*
X147295030Y-80697218D01*
X147231782Y-81015198D01*
X147231779Y-81015215D01*
X147200000Y-81337884D01*
X147200000Y-81662115D01*
X147231779Y-81984784D01*
X147231782Y-81984801D01*
X147295030Y-82302781D01*
X147295033Y-82302792D01*
X147389157Y-82613078D01*
X147513238Y-82912635D01*
X147513240Y-82912640D01*
X147666079Y-83198580D01*
X147666090Y-83198598D01*
X147846212Y-83468170D01*
X147846222Y-83468184D01*
X147995890Y-83650554D01*
X147995891Y-83650555D01*
X149205748Y-82440698D01*
X149279588Y-82542330D01*
X149457670Y-82720412D01*
X149559300Y-82794250D01*
X148349443Y-84004107D01*
X148349444Y-84004108D01*
X148531815Y-84153777D01*
X148531829Y-84153787D01*
X148801401Y-84333909D01*
X148801419Y-84333920D01*
X149087359Y-84486759D01*
X149087364Y-84486761D01*
X149386921Y-84610842D01*
X149697207Y-84704966D01*
X149697218Y-84704969D01*
X150015198Y-84768217D01*
X150015215Y-84768220D01*
X150337884Y-84800000D01*
X150662116Y-84800000D01*
X150984784Y-84768220D01*
X150984797Y-84768218D01*
X150999007Y-84765392D01*
X151019990Y-84767269D01*
X151040842Y-84764271D01*
X151054090Y-84770320D01*
X151068599Y-84771619D01*
X151085234Y-84784541D01*
X151104399Y-84793293D01*
X151112275Y-84805547D01*
X151123776Y-84814482D01*
X151130783Y-84834346D01*
X151142175Y-84852070D01*
X151145710Y-84876655D01*
X151147021Y-84880371D01*
X151147199Y-84887005D01*
X151147199Y-84906557D01*
X151147199Y-84906558D01*
X151147200Y-84916553D01*
X151147200Y-87732313D01*
X151127515Y-87799352D01*
X151074711Y-87845107D01*
X151005553Y-87855051D01*
X150987205Y-87850974D01*
X150802792Y-87795033D01*
X150802781Y-87795030D01*
X150484801Y-87731782D01*
X150484784Y-87731779D01*
X150162116Y-87700000D01*
X149837884Y-87700000D01*
X149515215Y-87731779D01*
X149515198Y-87731782D01*
X149197218Y-87795030D01*
X149197207Y-87795033D01*
X148886921Y-87889157D01*
X148587364Y-88013238D01*
X148587359Y-88013240D01*
X148301419Y-88166079D01*
X148301401Y-88166090D01*
X148031829Y-88346212D01*
X148031815Y-88346222D01*
X147849444Y-88495890D01*
X147849443Y-88495891D01*
X149059301Y-89705748D01*
X148957670Y-89779588D01*
X148779588Y-89957670D01*
X148705748Y-90059301D01*
X147495891Y-88849443D01*
X147495890Y-88849444D01*
X147346222Y-89031815D01*
X147346212Y-89031829D01*
X147166090Y-89301401D01*
X147166079Y-89301419D01*
X147013240Y-89587359D01*
X147013238Y-89587364D01*
X146889157Y-89886921D01*
X146795033Y-90197207D01*
X146795030Y-90197218D01*
X146731782Y-90515198D01*
X146731779Y-90515215D01*
X146700000Y-90837884D01*
X146700000Y-91162115D01*
X146731779Y-91484784D01*
X146731782Y-91484801D01*
X146795030Y-91802781D01*
X146795033Y-91802792D01*
X146889157Y-92113078D01*
X147013238Y-92412635D01*
X147013240Y-92412640D01*
X147166079Y-92698580D01*
X147166090Y-92698598D01*
X147346212Y-92968170D01*
X147346222Y-92968184D01*
X147495890Y-93150554D01*
X147495891Y-93150555D01*
X148705748Y-91940698D01*
X148779588Y-92042330D01*
X148957670Y-92220412D01*
X149059300Y-92294251D01*
X147849443Y-93504107D01*
X147849444Y-93504108D01*
X148031815Y-93653777D01*
X148031829Y-93653787D01*
X148301401Y-93833909D01*
X148301419Y-93833920D01*
X148587359Y-93986759D01*
X148587364Y-93986761D01*
X148886921Y-94110842D01*
X149197207Y-94204966D01*
X149197218Y-94204969D01*
X149515198Y-94268217D01*
X149515215Y-94268220D01*
X149837884Y-94300000D01*
X150162116Y-94300000D01*
X150484784Y-94268220D01*
X150484801Y-94268217D01*
X150802781Y-94204969D01*
X150802792Y-94204966D01*
X151113078Y-94110842D01*
X151412635Y-93986761D01*
X151412640Y-93986759D01*
X151698580Y-93833920D01*
X151698598Y-93833909D01*
X151968170Y-93653787D01*
X151968183Y-93653777D01*
X152150554Y-93504108D01*
X152150554Y-93504107D01*
X150940698Y-92294251D01*
X151042330Y-92220412D01*
X151220412Y-92042330D01*
X151294251Y-91940698D01*
X152504107Y-93150554D01*
X152504108Y-93150554D01*
X152523647Y-93126747D01*
X152581393Y-93087413D01*
X152651238Y-93085542D01*
X152711006Y-93121730D01*
X152741722Y-93184486D01*
X152743500Y-93205412D01*
X152743500Y-96093434D01*
X152723815Y-96160473D01*
X152722602Y-96162325D01*
X152634609Y-96294014D01*
X152634602Y-96294027D01*
X152574264Y-96439698D01*
X152574261Y-96439710D01*
X152543500Y-96594353D01*
X152543500Y-96752046D01*
X152574261Y-96906689D01*
X152574264Y-96906701D01*
X152634602Y-97052372D01*
X152634609Y-97052385D01*
X152722210Y-97183488D01*
X152722213Y-97183492D01*
X152833707Y-97294986D01*
X152833711Y-97294989D01*
X152964814Y-97382590D01*
X152964827Y-97382597D01*
X153092688Y-97435558D01*
X153110503Y-97442937D01*
X153265158Y-97473700D01*
X153265163Y-97473700D01*
X153271218Y-97474297D01*
X153271021Y-97476290D01*
X153329239Y-97493385D01*
X153374994Y-97546189D01*
X153386200Y-97597700D01*
X153386200Y-107028902D01*
X153366515Y-107095941D01*
X153349881Y-107116583D01*
X152779039Y-107687425D01*
X152717716Y-107720910D01*
X152715550Y-107721361D01*
X152560208Y-107752261D01*
X152560198Y-107752264D01*
X152414527Y-107812602D01*
X152414514Y-107812609D01*
X152283411Y-107900210D01*
X152283407Y-107900213D01*
X152171913Y-108011707D01*
X152171910Y-108011711D01*
X152084309Y-108142814D01*
X152084302Y-108142827D01*
X152023964Y-108288498D01*
X152023961Y-108288510D01*
X151993200Y-108443153D01*
X151993200Y-108600846D01*
X152023961Y-108755489D01*
X152023964Y-108755501D01*
X152084302Y-108901172D01*
X152084309Y-108901185D01*
X152171910Y-109032288D01*
X152171913Y-109032292D01*
X152283407Y-109143786D01*
X152283411Y-109143789D01*
X152414514Y-109231390D01*
X152414527Y-109231397D01*
X152464497Y-109252095D01*
X152518901Y-109295935D01*
X152540966Y-109362229D01*
X152523687Y-109429929D01*
X152504726Y-109454337D01*
X150209181Y-111749883D01*
X150147858Y-111783368D01*
X150078166Y-111778384D01*
X150022233Y-111736512D01*
X149997816Y-111671048D01*
X149997500Y-111662202D01*
X149997500Y-106501765D01*
X150017185Y-106434726D01*
X150018398Y-106432874D01*
X150026227Y-106421158D01*
X150106394Y-106301179D01*
X150166737Y-106155497D01*
X150197500Y-106000842D01*
X150197500Y-105843158D01*
X150197500Y-105843155D01*
X150197499Y-105843153D01*
X150183111Y-105770821D01*
X150166737Y-105688503D01*
X150145197Y-105636500D01*
X150106397Y-105542827D01*
X150106390Y-105542814D01*
X150018789Y-105411711D01*
X150018786Y-105411707D01*
X149907292Y-105300213D01*
X149907288Y-105300210D01*
X149776185Y-105212609D01*
X149776172Y-105212602D01*
X149630501Y-105152264D01*
X149630489Y-105152261D01*
X149475845Y-105121500D01*
X149475842Y-105121500D01*
X149318158Y-105121500D01*
X149318155Y-105121500D01*
X149163510Y-105152261D01*
X149163498Y-105152264D01*
X149017827Y-105212602D01*
X149017814Y-105212609D01*
X148886711Y-105300210D01*
X148886707Y-105300213D01*
X148794301Y-105392620D01*
X148732978Y-105426105D01*
X148663286Y-105421121D01*
X148637729Y-105408041D01*
X148592185Y-105377609D01*
X148592172Y-105377602D01*
X148446501Y-105317264D01*
X148446489Y-105317261D01*
X148291845Y-105286500D01*
X148291842Y-105286500D01*
X148134158Y-105286500D01*
X148134155Y-105286500D01*
X147979510Y-105317261D01*
X147979498Y-105317264D01*
X147833827Y-105377602D01*
X147833814Y-105377609D01*
X147702711Y-105465210D01*
X147702707Y-105465213D01*
X147623181Y-105544740D01*
X147561858Y-105578225D01*
X147492166Y-105573241D01*
X147436233Y-105531369D01*
X147411816Y-105465905D01*
X147411500Y-105457059D01*
X147411500Y-102235097D01*
X147431185Y-102168058D01*
X147483989Y-102122303D01*
X147553147Y-102112359D01*
X147616703Y-102141384D01*
X147623181Y-102147416D01*
X149031425Y-103555660D01*
X149064910Y-103616983D01*
X149065361Y-103619149D01*
X149096261Y-103774491D01*
X149096264Y-103774501D01*
X149156602Y-103920172D01*
X149156609Y-103920185D01*
X149244210Y-104051288D01*
X149244213Y-104051292D01*
X149355707Y-104162786D01*
X149355711Y-104162789D01*
X149486814Y-104250390D01*
X149486827Y-104250397D01*
X149606603Y-104300009D01*
X149632503Y-104310737D01*
X149787153Y-104341499D01*
X149787156Y-104341500D01*
X149787158Y-104341500D01*
X149944844Y-104341500D01*
X149944845Y-104341499D01*
X150099497Y-104310737D01*
X150245179Y-104250394D01*
X150376289Y-104162789D01*
X150487789Y-104051289D01*
X150575394Y-103920179D01*
X150579284Y-103910789D01*
X150599501Y-103861978D01*
X150635737Y-103774497D01*
X150666500Y-103619842D01*
X150666500Y-103462158D01*
X150666500Y-103462155D01*
X150666499Y-103462153D01*
X150657613Y-103417480D01*
X150635737Y-103307503D01*
X150630345Y-103294486D01*
X150575397Y-103161827D01*
X150575390Y-103161814D01*
X150487789Y-103030711D01*
X150487786Y-103030707D01*
X150376292Y-102919213D01*
X150376288Y-102919210D01*
X150245185Y-102831609D01*
X150245172Y-102831602D01*
X150099501Y-102771264D01*
X150099491Y-102771261D01*
X149944149Y-102740361D01*
X149882238Y-102707976D01*
X149880660Y-102706425D01*
X148049819Y-100875584D01*
X148016334Y-100814261D01*
X148013500Y-100787903D01*
X148013500Y-99002865D01*
X148033185Y-98935826D01*
X148034398Y-98933974D01*
X148122390Y-98802285D01*
X148122390Y-98802284D01*
X148122394Y-98802279D01*
X148182737Y-98656597D01*
X148213500Y-98501942D01*
X148213500Y-98344258D01*
X148213500Y-98344255D01*
X148213499Y-98344253D01*
X148211510Y-98334253D01*
X148182737Y-98189603D01*
X148147174Y-98103746D01*
X148122397Y-98043927D01*
X148122390Y-98043914D01*
X148034789Y-97912811D01*
X148034786Y-97912807D01*
X147923292Y-97801313D01*
X147923288Y-97801310D01*
X147792185Y-97713709D01*
X147792172Y-97713702D01*
X147646501Y-97653364D01*
X147646489Y-97653361D01*
X147491845Y-97622600D01*
X147491842Y-97622600D01*
X147334158Y-97622600D01*
X147334155Y-97622600D01*
X147179510Y-97653361D01*
X147179498Y-97653364D01*
X147033827Y-97713702D01*
X147033814Y-97713709D01*
X146902711Y-97801310D01*
X146902707Y-97801313D01*
X146791213Y-97912807D01*
X146791210Y-97912811D01*
X146703609Y-98043914D01*
X146703602Y-98043927D01*
X146643264Y-98189598D01*
X146643261Y-98189610D01*
X146612500Y-98344253D01*
X146612500Y-98501946D01*
X146643261Y-98656589D01*
X146643264Y-98656601D01*
X146703602Y-98802272D01*
X146703609Y-98802285D01*
X146791602Y-98933974D01*
X146812480Y-99000651D01*
X146812500Y-99002865D01*
X146812500Y-99379600D01*
X146809949Y-99388285D01*
X146811238Y-99397247D01*
X146800259Y-99421287D01*
X146792815Y-99446639D01*
X146785974Y-99452566D01*
X146782213Y-99460803D01*
X146759978Y-99475092D01*
X146740011Y-99492394D01*
X146729496Y-99494681D01*
X146723435Y-99498577D01*
X146688500Y-99503600D01*
X146612369Y-99503600D01*
X146612353Y-99503599D01*
X146604757Y-99503599D01*
X146446643Y-99503599D01*
X146366710Y-99525017D01*
X146293916Y-99544522D01*
X146253933Y-99567607D01*
X146253932Y-99567606D01*
X146156987Y-99623577D01*
X146156982Y-99623581D01*
X145987181Y-99793383D01*
X145925858Y-99826868D01*
X145856166Y-99821884D01*
X145800233Y-99780012D01*
X145775816Y-99714548D01*
X145775500Y-99705702D01*
X145775500Y-82649665D01*
X145795185Y-82582626D01*
X145796398Y-82580774D01*
X145884390Y-82449085D01*
X145884390Y-82449084D01*
X145884394Y-82449079D01*
X145944737Y-82303397D01*
X145975500Y-82148742D01*
X145975500Y-81991058D01*
X145975500Y-81991055D01*
X145975499Y-81991053D01*
X145971332Y-81970102D01*
X145944737Y-81836403D01*
X145915535Y-81765902D01*
X145884397Y-81690727D01*
X145884390Y-81690714D01*
X145796298Y-81558875D01*
X145790647Y-81540828D01*
X145780423Y-81524919D01*
X145775971Y-81493957D01*
X145775420Y-81492197D01*
X145775400Y-81489984D01*
X145775400Y-77689360D01*
X145775401Y-77689347D01*
X145775401Y-77521244D01*
X145773090Y-77512620D01*
X145734477Y-77368516D01*
X145672286Y-77260797D01*
X145655424Y-77231590D01*
X145655418Y-77231582D01*
X144960573Y-76536737D01*
X144927088Y-76475414D01*
X144926637Y-76473247D01*
X144923735Y-76458658D01*
X144895737Y-76317903D01*
X144889982Y-76304010D01*
X144835397Y-76172227D01*
X144835390Y-76172214D01*
X144747789Y-76041111D01*
X144747786Y-76041107D01*
X144636292Y-75929613D01*
X144636288Y-75929610D01*
X144505185Y-75842009D01*
X144505172Y-75842002D01*
X144359501Y-75781664D01*
X144359489Y-75781661D01*
X144204845Y-75750900D01*
X144204842Y-75750900D01*
X144047158Y-75750900D01*
X144047155Y-75750900D01*
X143892510Y-75781661D01*
X143892498Y-75781664D01*
X143746827Y-75842002D01*
X143746814Y-75842009D01*
X143615711Y-75929610D01*
X143615707Y-75929613D01*
X143504213Y-76041107D01*
X143504210Y-76041111D01*
X143416609Y-76172214D01*
X143416602Y-76172227D01*
X143356264Y-76317898D01*
X143356261Y-76317910D01*
X143325500Y-76472553D01*
X143325500Y-76630246D01*
X143356261Y-76784889D01*
X143356264Y-76784901D01*
X143416602Y-76930572D01*
X143416609Y-76930585D01*
X143504210Y-77061688D01*
X143504213Y-77061692D01*
X143615707Y-77173186D01*
X143615711Y-77173189D01*
X143746814Y-77260790D01*
X143746827Y-77260797D01*
X143892498Y-77321135D01*
X143892503Y-77321137D01*
X143957147Y-77333995D01*
X144047849Y-77352038D01*
X144109760Y-77384423D01*
X144111339Y-77385974D01*
X144538081Y-77812716D01*
X144571566Y-77874039D01*
X144574400Y-77900397D01*
X144574400Y-81490283D01*
X144554715Y-81557322D01*
X144553502Y-81559174D01*
X144465609Y-81690714D01*
X144465602Y-81690727D01*
X144405264Y-81836398D01*
X144405261Y-81836410D01*
X144374500Y-81991053D01*
X144374500Y-82148746D01*
X144405261Y-82303389D01*
X144405264Y-82303401D01*
X144465602Y-82449072D01*
X144465609Y-82449085D01*
X144553602Y-82580774D01*
X144574480Y-82647451D01*
X144574500Y-82649665D01*
X144574500Y-104629234D01*
X144554815Y-104696273D01*
X144553602Y-104698125D01*
X144465609Y-104829814D01*
X144465602Y-104829827D01*
X144405264Y-104975498D01*
X144405261Y-104975510D01*
X144374500Y-105130153D01*
X144374500Y-105287846D01*
X144405261Y-105442489D01*
X144405264Y-105442501D01*
X144465602Y-105588172D01*
X144465609Y-105588185D01*
X144553210Y-105719288D01*
X144553213Y-105719292D01*
X144664707Y-105830786D01*
X144664711Y-105830789D01*
X144795814Y-105918390D01*
X144795827Y-105918397D01*
X144941307Y-105978656D01*
X144941503Y-105978737D01*
X145052632Y-106000842D01*
X145096153Y-106009499D01*
X145096156Y-106009500D01*
X145096158Y-106009500D01*
X145253844Y-106009500D01*
X145253845Y-106009499D01*
X145408497Y-105978737D01*
X145408509Y-105978731D01*
X145414324Y-105976969D01*
X145414835Y-105978656D01*
X145476002Y-105972073D01*
X145538485Y-106003340D01*
X145574145Y-106063424D01*
X145578000Y-106094105D01*
X145578000Y-106700430D01*
X145577999Y-106700448D01*
X145577999Y-106866154D01*
X145577998Y-106866154D01*
X145583111Y-106885234D01*
X145618923Y-107018885D01*
X145618924Y-107018887D01*
X145618923Y-107018887D01*
X145633588Y-107044286D01*
X145633591Y-107044290D01*
X145637079Y-107050331D01*
X145697980Y-107155816D01*
X145766452Y-107224288D01*
X145771966Y-107231758D01*
X145780896Y-107256203D01*
X145793366Y-107279040D01*
X145795087Y-107295049D01*
X145795941Y-107297386D01*
X145795533Y-107299199D01*
X145796200Y-107305398D01*
X145796200Y-111180954D01*
X145776515Y-111247993D01*
X145723711Y-111293748D01*
X145654553Y-111303692D01*
X145590997Y-111274667D01*
X145569098Y-111249845D01*
X145501789Y-111149111D01*
X145501786Y-111149107D01*
X145390292Y-111037613D01*
X145390288Y-111037610D01*
X145259185Y-110950009D01*
X145259172Y-110950002D01*
X145113501Y-110889664D01*
X145113489Y-110889661D01*
X144958845Y-110858900D01*
X144958842Y-110858900D01*
X144801158Y-110858900D01*
X144801155Y-110858900D01*
X144646510Y-110889661D01*
X144646498Y-110889664D01*
X144500827Y-110950002D01*
X144500814Y-110950009D01*
X144369711Y-111037610D01*
X144369707Y-111037613D01*
X144258213Y-111149107D01*
X144258210Y-111149111D01*
X144170609Y-111280214D01*
X144170602Y-111280227D01*
X144110264Y-111425898D01*
X144110261Y-111425910D01*
X144079500Y-111580553D01*
X144079500Y-111738246D01*
X144110261Y-111892889D01*
X144110264Y-111892901D01*
X144170061Y-112037264D01*
X144179500Y-112084716D01*
X144179500Y-112776452D01*
X144159815Y-112843491D01*
X144128385Y-112876770D01*
X144000213Y-112969890D01*
X143849890Y-113120213D01*
X143724949Y-113292182D01*
X143720202Y-113301499D01*
X143672227Y-113352293D01*
X143604405Y-113369087D01*
X143538271Y-113346548D01*
X143499234Y-113301495D01*
X143494622Y-113292444D01*
X143369727Y-113120540D01*
X143369723Y-113120535D01*
X143219464Y-112970276D01*
X143219459Y-112970272D01*
X143047557Y-112845379D01*
X142858215Y-112748903D01*
X142656124Y-112683241D01*
X142590000Y-112672768D01*
X142590000Y-113566988D01*
X142532993Y-113534075D01*
X142405826Y-113500000D01*
X142274174Y-113500000D01*
X142147007Y-113534075D01*
X142090000Y-113566988D01*
X142090000Y-112672768D01*
X142089999Y-112672768D01*
X142023874Y-112683241D01*
X141852817Y-112738820D01*
X141782976Y-112740815D01*
X141723143Y-112704734D01*
X141692316Y-112642033D01*
X141690500Y-112620889D01*
X141690500Y-109884500D01*
X141710185Y-109817461D01*
X141762989Y-109771706D01*
X141814500Y-109760500D01*
X141927844Y-109760500D01*
X141927845Y-109760499D01*
X142082497Y-109729737D01*
X142195166Y-109683067D01*
X142228172Y-109669397D01*
X142228172Y-109669396D01*
X142228179Y-109669394D01*
X142359289Y-109581789D01*
X142470789Y-109470289D01*
X142558394Y-109339179D01*
X142618737Y-109193497D01*
X142649500Y-109038842D01*
X142649500Y-108881158D01*
X142649500Y-108881155D01*
X142649499Y-108881153D01*
X142618737Y-108726503D01*
X142618735Y-108726498D01*
X142558397Y-108580827D01*
X142558390Y-108580814D01*
X142470398Y-108449125D01*
X142449520Y-108382447D01*
X142449500Y-108380234D01*
X142449500Y-86493040D01*
X142469185Y-86426001D01*
X142485814Y-86405363D01*
X142587789Y-86303389D01*
X142675394Y-86172279D01*
X142678637Y-86164451D01*
X142700061Y-86112726D01*
X142735737Y-86026597D01*
X142766500Y-85871942D01*
X142766500Y-85714258D01*
X142766500Y-85714255D01*
X142766499Y-85714253D01*
X142758852Y-85675810D01*
X142735737Y-85559603D01*
X142735735Y-85559598D01*
X142675397Y-85413927D01*
X142675390Y-85413914D01*
X142587398Y-85282225D01*
X142566520Y-85215547D01*
X142566500Y-85213334D01*
X142566500Y-69807565D01*
X142586185Y-69740526D01*
X142587398Y-69738674D01*
X142675390Y-69606985D01*
X142675390Y-69606984D01*
X142675394Y-69606979D01*
X142735737Y-69461297D01*
X142766500Y-69306642D01*
X142766500Y-69148958D01*
X142766500Y-69148955D01*
X142766499Y-69148953D01*
X142763461Y-69133679D01*
X142735737Y-68994303D01*
X142734920Y-68992331D01*
X142675397Y-68848627D01*
X142675390Y-68848614D01*
X142587789Y-68717511D01*
X142587786Y-68717507D01*
X142476292Y-68606013D01*
X142476288Y-68606010D01*
X142345185Y-68518409D01*
X142345172Y-68518402D01*
X142199501Y-68458064D01*
X142199489Y-68458061D01*
X142044845Y-68427300D01*
X142044842Y-68427300D01*
X141887158Y-68427300D01*
X141887155Y-68427300D01*
X141732510Y-68458061D01*
X141732498Y-68458064D01*
X141586827Y-68518402D01*
X141586814Y-68518409D01*
X141455711Y-68606010D01*
X141455707Y-68606013D01*
X141344213Y-68717507D01*
X141344210Y-68717511D01*
X141256609Y-68848614D01*
X141256602Y-68848627D01*
X141196264Y-68994298D01*
X141196261Y-68994310D01*
X141165500Y-69148953D01*
X141165500Y-69306646D01*
X141196261Y-69461289D01*
X141196264Y-69461301D01*
X141256602Y-69606972D01*
X141256609Y-69606985D01*
X141344602Y-69738674D01*
X141365480Y-69805351D01*
X141365500Y-69807565D01*
X141365500Y-85213334D01*
X141345815Y-85280373D01*
X141344602Y-85282225D01*
X141256609Y-85413914D01*
X141256602Y-85413927D01*
X141196264Y-85559598D01*
X141196261Y-85559610D01*
X141165500Y-85714253D01*
X141165500Y-85871946D01*
X141196261Y-86026589D01*
X141196264Y-86026601D01*
X141239061Y-86129922D01*
X141248500Y-86177374D01*
X141248500Y-94745200D01*
X141228815Y-94812239D01*
X141176011Y-94857994D01*
X141124500Y-94869200D01*
X141011155Y-94869200D01*
X140856510Y-94899961D01*
X140856498Y-94899964D01*
X140710827Y-94960302D01*
X140710814Y-94960309D01*
X140579711Y-95047910D01*
X140579707Y-95047913D01*
X140468213Y-95159407D01*
X140468210Y-95159411D01*
X140380609Y-95290514D01*
X140380602Y-95290527D01*
X140320264Y-95436198D01*
X140320261Y-95436210D01*
X140289500Y-95590853D01*
X140289500Y-95748546D01*
X140320261Y-95903189D01*
X140320264Y-95903201D01*
X140380602Y-96048872D01*
X140380609Y-96048885D01*
X140468602Y-96180574D01*
X140489480Y-96247251D01*
X140489500Y-96249465D01*
X140489500Y-112633730D01*
X140469815Y-112700769D01*
X140417011Y-112746524D01*
X140347853Y-112756468D01*
X140323130Y-112749689D01*
X140323046Y-112749949D01*
X140318413Y-112748443D01*
X140318412Y-112748443D01*
X140116243Y-112682754D01*
X140116241Y-112682753D01*
X140116240Y-112682753D01*
X139954957Y-112657208D01*
X139906287Y-112649500D01*
X139693713Y-112649500D01*
X139645042Y-112657208D01*
X139483760Y-112682753D01*
X139483757Y-112682754D01*
X139286679Y-112746789D01*
X139281582Y-112748445D01*
X139203694Y-112788131D01*
X139135025Y-112801027D01*
X139070285Y-112774750D01*
X139030028Y-112717644D01*
X139023400Y-112677646D01*
X139023400Y-90479165D01*
X139043085Y-90412126D01*
X139044298Y-90410274D01*
X139132290Y-90278585D01*
X139132290Y-90278584D01*
X139132294Y-90278579D01*
X139192637Y-90132897D01*
X139223400Y-89978242D01*
X139223400Y-89820558D01*
X139223400Y-89820555D01*
X139223399Y-89820553D01*
X139216350Y-89785115D01*
X139192637Y-89665903D01*
X139190589Y-89660958D01*
X139132297Y-89520227D01*
X139132290Y-89520214D01*
X139044689Y-89389111D01*
X139044686Y-89389107D01*
X138933192Y-89277613D01*
X138933188Y-89277610D01*
X138802085Y-89190009D01*
X138802072Y-89190002D01*
X138656401Y-89129664D01*
X138656389Y-89129661D01*
X138501745Y-89098900D01*
X138501742Y-89098900D01*
X138344058Y-89098900D01*
X138344055Y-89098900D01*
X138254991Y-89116616D01*
X138185400Y-89110389D01*
X138130222Y-89067526D01*
X138106978Y-89001636D01*
X138106800Y-88994999D01*
X138106800Y-76181465D01*
X138126485Y-76114426D01*
X138127698Y-76112574D01*
X138215690Y-75980885D01*
X138215690Y-75980884D01*
X138215694Y-75980879D01*
X138216257Y-75979521D01*
X138242868Y-75915274D01*
X138276037Y-75835197D01*
X138306800Y-75680542D01*
X138306800Y-75522858D01*
X138306800Y-75522855D01*
X138306799Y-75522853D01*
X138300378Y-75490571D01*
X138276037Y-75368203D01*
X138255252Y-75318023D01*
X138215697Y-75222527D01*
X138215690Y-75222514D01*
X138128089Y-75091411D01*
X138128086Y-75091407D01*
X138016592Y-74979913D01*
X138016588Y-74979910D01*
X137885485Y-74892309D01*
X137885472Y-74892302D01*
X137739801Y-74831964D01*
X137739789Y-74831961D01*
X137585145Y-74801200D01*
X137585142Y-74801200D01*
X137427458Y-74801200D01*
X137427455Y-74801200D01*
X137272810Y-74831961D01*
X137272798Y-74831964D01*
X137127127Y-74892302D01*
X137127114Y-74892309D01*
X136996011Y-74979910D01*
X136996007Y-74979913D01*
X136884513Y-75091407D01*
X136884510Y-75091411D01*
X136796909Y-75222514D01*
X136796902Y-75222527D01*
X136736564Y-75368198D01*
X136736561Y-75368210D01*
X136705800Y-75522853D01*
X136705800Y-75680546D01*
X136736561Y-75835189D01*
X136736564Y-75835201D01*
X136796902Y-75980872D01*
X136796909Y-75980885D01*
X136884902Y-76112574D01*
X136905780Y-76179251D01*
X136905800Y-76181465D01*
X136905800Y-97597603D01*
X136886115Y-97664642D01*
X136869481Y-97685284D01*
X135163339Y-99391425D01*
X135102016Y-99424910D01*
X135099850Y-99425361D01*
X134944508Y-99456261D01*
X134944498Y-99456264D01*
X134798827Y-99516602D01*
X134798814Y-99516609D01*
X134667714Y-99604208D01*
X134667705Y-99604215D01*
X134666351Y-99605570D01*
X134665468Y-99606051D01*
X134663007Y-99608072D01*
X134662623Y-99607604D01*
X134605025Y-99639050D01*
X134535334Y-99634059D01*
X134490997Y-99605562D01*
X133687707Y-98802272D01*
X133298294Y-98412858D01*
X133264810Y-98351537D01*
X133269794Y-98281845D01*
X133311666Y-98225912D01*
X133377130Y-98201495D01*
X133410167Y-98203562D01*
X133557153Y-98232799D01*
X133557156Y-98232800D01*
X133557158Y-98232800D01*
X133714844Y-98232800D01*
X133714845Y-98232799D01*
X133869497Y-98202037D01*
X134015179Y-98141694D01*
X134146289Y-98054089D01*
X134257789Y-97942589D01*
X134345394Y-97811479D01*
X134405737Y-97665797D01*
X134436500Y-97511142D01*
X134436500Y-97353458D01*
X134436500Y-97353455D01*
X134436499Y-97353453D01*
X134416947Y-97255161D01*
X134405737Y-97198803D01*
X134399393Y-97183488D01*
X134345397Y-97053127D01*
X134345390Y-97053114D01*
X134257789Y-96922011D01*
X134257786Y-96922007D01*
X134146292Y-96810513D01*
X134146288Y-96810510D01*
X134015185Y-96722909D01*
X134015172Y-96722902D01*
X133869501Y-96662564D01*
X133869489Y-96662561D01*
X133714845Y-96631800D01*
X133714842Y-96631800D01*
X133557158Y-96631800D01*
X133557155Y-96631800D01*
X133402510Y-96662561D01*
X133402498Y-96662564D01*
X133256827Y-96722902D01*
X133256814Y-96722909D01*
X133125711Y-96810510D01*
X133125707Y-96810513D01*
X133014211Y-96922009D01*
X133005601Y-96934896D01*
X132951988Y-96979700D01*
X132882663Y-96988406D01*
X132819636Y-96958250D01*
X132782918Y-96898806D01*
X132778500Y-96866003D01*
X132778500Y-90865056D01*
X132798185Y-90798017D01*
X132850989Y-90752262D01*
X132920147Y-90742318D01*
X132926692Y-90743439D01*
X132956156Y-90749300D01*
X132956158Y-90749300D01*
X133113844Y-90749300D01*
X133113845Y-90749299D01*
X133268497Y-90718537D01*
X133414179Y-90658194D01*
X133545289Y-90570589D01*
X133656789Y-90459089D01*
X133744394Y-90327979D01*
X133804737Y-90182297D01*
X133835500Y-90027642D01*
X133835500Y-89869958D01*
X133835500Y-89869955D01*
X133835499Y-89869953D01*
X133819715Y-89790602D01*
X133804737Y-89715303D01*
X133798507Y-89700263D01*
X133744397Y-89569627D01*
X133744390Y-89569614D01*
X133656789Y-89438511D01*
X133656786Y-89438507D01*
X133545292Y-89327013D01*
X133545288Y-89327010D01*
X133414185Y-89239409D01*
X133414172Y-89239402D01*
X133268501Y-89179064D01*
X133268489Y-89179061D01*
X133113845Y-89148300D01*
X133113842Y-89148300D01*
X132956158Y-89148300D01*
X132956157Y-89148300D01*
X132926689Y-89154161D01*
X132857098Y-89147932D01*
X132801921Y-89105068D01*
X132778678Y-89039178D01*
X132778500Y-89032543D01*
X132778500Y-79370565D01*
X132798185Y-79303526D01*
X132799398Y-79301674D01*
X132887390Y-79169985D01*
X132887390Y-79169984D01*
X132887394Y-79169979D01*
X132947737Y-79024297D01*
X132978500Y-78869642D01*
X132978500Y-78711958D01*
X132978500Y-78711955D01*
X132978499Y-78711953D01*
X132953849Y-78588032D01*
X132947737Y-78557303D01*
X132929485Y-78513238D01*
X132887397Y-78411627D01*
X132887390Y-78411614D01*
X132799789Y-78280511D01*
X132799786Y-78280507D01*
X132688292Y-78169013D01*
X132688288Y-78169010D01*
X132557185Y-78081409D01*
X132557172Y-78081402D01*
X132411501Y-78021064D01*
X132411489Y-78021061D01*
X132256845Y-77990300D01*
X132256842Y-77990300D01*
X132250200Y-77990300D01*
X132183161Y-77970615D01*
X132137406Y-77917811D01*
X132126200Y-77866300D01*
X132126200Y-76731544D01*
X132126200Y-76731543D01*
X132122021Y-76715944D01*
X132085277Y-76578815D01*
X132060983Y-76536737D01*
X132053802Y-76524299D01*
X132053801Y-76524298D01*
X132015904Y-76458658D01*
X132006220Y-76441884D01*
X131894416Y-76330080D01*
X131894415Y-76330079D01*
X131890085Y-76325749D01*
X131890074Y-76325739D01*
X131080290Y-75515955D01*
X131080288Y-75515952D01*
X130961417Y-75397081D01*
X130961416Y-75397080D01*
X130863123Y-75340331D01*
X130824485Y-75318023D01*
X130671757Y-75277099D01*
X130513643Y-75277099D01*
X130506047Y-75277099D01*
X130506031Y-75277100D01*
X130038500Y-75277100D01*
X129971461Y-75257415D01*
X129925706Y-75204611D01*
X129914500Y-75153100D01*
X129914500Y-74359653D01*
X132244800Y-74359653D01*
X132244800Y-74517346D01*
X132275561Y-74671989D01*
X132275564Y-74672001D01*
X132335902Y-74817672D01*
X132335909Y-74817685D01*
X132423510Y-74948788D01*
X132423513Y-74948792D01*
X132535007Y-75060286D01*
X132535011Y-75060289D01*
X132666114Y-75147890D01*
X132666127Y-75147897D01*
X132803049Y-75204611D01*
X132811803Y-75208237D01*
X132966453Y-75238999D01*
X132966456Y-75239000D01*
X132966458Y-75239000D01*
X133124144Y-75239000D01*
X133124145Y-75238999D01*
X133278797Y-75208237D01*
X133424479Y-75147894D01*
X133555589Y-75060289D01*
X133667089Y-74948789D01*
X133754694Y-74817679D01*
X133815037Y-74671997D01*
X133837964Y-74556734D01*
X133845938Y-74516650D01*
X133878323Y-74454739D01*
X133879820Y-74453214D01*
X135058506Y-73274527D01*
X135058511Y-73274524D01*
X135068714Y-73264320D01*
X135068716Y-73264320D01*
X135180520Y-73152516D01*
X135241241Y-73047344D01*
X135259577Y-73015585D01*
X135300500Y-72862857D01*
X135300500Y-72704743D01*
X135300500Y-71738265D01*
X135320185Y-71671226D01*
X135321398Y-71669374D01*
X135409390Y-71537685D01*
X135409390Y-71537684D01*
X135409394Y-71537679D01*
X135418134Y-71516579D01*
X138770000Y-71516579D01*
X138770000Y-71670000D01*
X139520000Y-71670000D01*
X139520000Y-72170000D01*
X138770000Y-72170000D01*
X138770000Y-72323420D01*
X138810348Y-72526266D01*
X138810350Y-72526274D01*
X138889500Y-72717358D01*
X138889505Y-72717368D01*
X139004410Y-72889335D01*
X139004413Y-72889339D01*
X139150660Y-73035586D01*
X139150664Y-73035589D01*
X139322631Y-73150494D01*
X139322641Y-73150499D01*
X139513723Y-73229648D01*
X139513725Y-73229649D01*
X139570000Y-73240842D01*
X139570000Y-72386988D01*
X139579940Y-72404205D01*
X139635795Y-72460060D01*
X139704204Y-72499556D01*
X139780504Y-72520000D01*
X139859496Y-72520000D01*
X139935796Y-72499556D01*
X140004205Y-72460060D01*
X140060060Y-72404205D01*
X140070000Y-72386988D01*
X140070000Y-73240842D01*
X140126274Y-73229649D01*
X140126276Y-73229648D01*
X140317358Y-73150499D01*
X140317368Y-73150494D01*
X140489335Y-73035589D01*
X140489339Y-73035586D01*
X140635586Y-72889339D01*
X140635589Y-72889335D01*
X140750494Y-72717368D01*
X140750499Y-72717358D01*
X140829649Y-72526274D01*
X140829651Y-72526266D01*
X140869999Y-72323420D01*
X140870000Y-72323417D01*
X140870000Y-72170000D01*
X140120000Y-72170000D01*
X140120000Y-71670000D01*
X140870000Y-71670000D01*
X140870000Y-71516583D01*
X140869999Y-71516579D01*
X140829651Y-71313733D01*
X140829649Y-71313725D01*
X140750499Y-71122641D01*
X140750494Y-71122631D01*
X140635589Y-70950664D01*
X140635586Y-70950660D01*
X140489339Y-70804413D01*
X140489335Y-70804410D01*
X140317368Y-70689505D01*
X140317358Y-70689500D01*
X140126272Y-70610349D01*
X140126267Y-70610347D01*
X140070000Y-70599155D01*
X140070000Y-71453011D01*
X140060060Y-71435795D01*
X140004205Y-71379940D01*
X139935796Y-71340444D01*
X139859496Y-71320000D01*
X139780504Y-71320000D01*
X139704204Y-71340444D01*
X139635795Y-71379940D01*
X139579940Y-71435795D01*
X139570000Y-71453011D01*
X139570000Y-70599156D01*
X139569999Y-70599155D01*
X139513732Y-70610347D01*
X139513727Y-70610349D01*
X139322641Y-70689500D01*
X139322631Y-70689505D01*
X139150664Y-70804410D01*
X139150660Y-70804413D01*
X139004413Y-70950660D01*
X139004410Y-70950664D01*
X138889505Y-71122631D01*
X138889500Y-71122641D01*
X138810350Y-71313725D01*
X138810348Y-71313733D01*
X138770000Y-71516579D01*
X135418134Y-71516579D01*
X135469737Y-71391997D01*
X135500500Y-71237342D01*
X135500500Y-71079658D01*
X135500500Y-71079655D01*
X135500499Y-71079653D01*
X135474841Y-70950664D01*
X135469737Y-70925003D01*
X135465888Y-70915710D01*
X135409397Y-70779327D01*
X135409390Y-70779314D01*
X135321789Y-70648211D01*
X135321786Y-70648207D01*
X135210292Y-70536713D01*
X135210288Y-70536710D01*
X135079185Y-70449109D01*
X135079172Y-70449102D01*
X134933501Y-70388764D01*
X134933489Y-70388761D01*
X134778845Y-70358000D01*
X134778842Y-70358000D01*
X134621158Y-70358000D01*
X134621155Y-70358000D01*
X134466510Y-70388761D01*
X134466498Y-70388764D01*
X134320827Y-70449102D01*
X134320814Y-70449109D01*
X134189711Y-70536710D01*
X134189707Y-70536713D01*
X134078213Y-70648207D01*
X134078210Y-70648211D01*
X133990609Y-70779314D01*
X133990602Y-70779327D01*
X133930264Y-70924998D01*
X133930261Y-70925010D01*
X133899500Y-71079653D01*
X133899500Y-71237346D01*
X133930261Y-71391989D01*
X133930264Y-71392001D01*
X133990602Y-71537672D01*
X133990609Y-71537685D01*
X134078602Y-71669374D01*
X134099480Y-71736051D01*
X134099500Y-71738265D01*
X134099500Y-72483703D01*
X134079815Y-72550742D01*
X134063181Y-72571384D01*
X133030639Y-73603925D01*
X132969316Y-73637410D01*
X132967150Y-73637861D01*
X132811808Y-73668761D01*
X132811798Y-73668764D01*
X132666127Y-73729102D01*
X132666114Y-73729109D01*
X132535011Y-73816710D01*
X132535007Y-73816713D01*
X132423513Y-73928207D01*
X132423510Y-73928211D01*
X132335909Y-74059314D01*
X132335902Y-74059327D01*
X132275564Y-74204998D01*
X132275561Y-74205010D01*
X132244800Y-74359653D01*
X129914500Y-74359653D01*
X129914500Y-73437365D01*
X129934185Y-73370326D01*
X129935398Y-73368474D01*
X129948114Y-73349444D01*
X130023394Y-73236779D01*
X130083737Y-73091097D01*
X130114500Y-72936442D01*
X130114500Y-72924091D01*
X130134185Y-72857052D01*
X130186989Y-72811297D01*
X130256147Y-72801353D01*
X130319703Y-72830378D01*
X130341603Y-72855201D01*
X130364412Y-72889338D01*
X130510660Y-73035586D01*
X130510664Y-73035589D01*
X130682631Y-73150494D01*
X130682641Y-73150499D01*
X130873723Y-73229648D01*
X130873725Y-73229649D01*
X130930000Y-73240842D01*
X130930000Y-72386988D01*
X130939940Y-72404205D01*
X130995795Y-72460060D01*
X131064204Y-72499556D01*
X131140504Y-72520000D01*
X131219496Y-72520000D01*
X131295796Y-72499556D01*
X131364205Y-72460060D01*
X131420060Y-72404205D01*
X131430000Y-72386988D01*
X131430000Y-73240842D01*
X131486274Y-73229649D01*
X131486276Y-73229648D01*
X131677358Y-73150499D01*
X131677368Y-73150494D01*
X131849335Y-73035589D01*
X131849339Y-73035586D01*
X131995586Y-72889339D01*
X131995589Y-72889335D01*
X132110494Y-72717368D01*
X132110499Y-72717358D01*
X132189649Y-72526274D01*
X132189651Y-72526266D01*
X132229999Y-72323420D01*
X132230000Y-72323417D01*
X132230000Y-72170000D01*
X131480000Y-72170000D01*
X131480000Y-71670000D01*
X132230000Y-71670000D01*
X132230000Y-71516583D01*
X132229999Y-71516579D01*
X132189651Y-71313733D01*
X132189649Y-71313725D01*
X132110499Y-71122641D01*
X132110494Y-71122631D01*
X131995589Y-70950664D01*
X131995586Y-70950660D01*
X131849339Y-70804413D01*
X131849335Y-70804410D01*
X131677368Y-70689505D01*
X131677358Y-70689500D01*
X131486272Y-70610349D01*
X131486267Y-70610347D01*
X131430000Y-70599155D01*
X131430000Y-71453011D01*
X131420060Y-71435795D01*
X131364205Y-71379940D01*
X131295796Y-71340444D01*
X131219496Y-71320000D01*
X131140504Y-71320000D01*
X131064204Y-71340444D01*
X130995795Y-71379940D01*
X130939940Y-71435795D01*
X130930000Y-71453011D01*
X130930000Y-70599156D01*
X130929999Y-70599155D01*
X130873732Y-70610347D01*
X130873727Y-70610349D01*
X130682641Y-70689500D01*
X130682631Y-70689505D01*
X130510664Y-70804410D01*
X130510660Y-70804413D01*
X130364413Y-70950660D01*
X130364410Y-70950664D01*
X130249505Y-71122631D01*
X130249500Y-71122641D01*
X130170350Y-71313725D01*
X130170348Y-71313733D01*
X130130000Y-71516579D01*
X130130000Y-71670000D01*
X130880000Y-71670000D01*
X130880000Y-72170000D01*
X130130000Y-72170000D01*
X130130000Y-72242159D01*
X130110315Y-72309198D01*
X130057511Y-72354953D01*
X129988353Y-72364897D01*
X129924797Y-72335872D01*
X129918319Y-72329840D01*
X129824292Y-72235813D01*
X129824288Y-72235810D01*
X129693185Y-72148209D01*
X129693172Y-72148202D01*
X129547501Y-72087864D01*
X129547489Y-72087861D01*
X129392845Y-72057100D01*
X129392842Y-72057100D01*
X129235158Y-72057100D01*
X129235155Y-72057100D01*
X129080510Y-72087861D01*
X129080498Y-72087864D01*
X128934827Y-72148202D01*
X128934814Y-72148209D01*
X128803711Y-72235810D01*
X128803707Y-72235813D01*
X128692213Y-72347307D01*
X128692210Y-72347311D01*
X128604609Y-72478414D01*
X128604602Y-72478427D01*
X128544264Y-72624098D01*
X128544261Y-72624110D01*
X128513500Y-72778753D01*
X128513500Y-72936446D01*
X128544261Y-73091089D01*
X128544264Y-73091101D01*
X128604602Y-73236772D01*
X128604609Y-73236785D01*
X128692602Y-73368474D01*
X128713480Y-73435151D01*
X128713500Y-73437365D01*
X128713500Y-75412330D01*
X128713499Y-75412348D01*
X128713499Y-75578054D01*
X128713498Y-75578054D01*
X128754423Y-75730785D01*
X128777142Y-75770135D01*
X128781216Y-75777190D01*
X128781217Y-75777194D01*
X128781218Y-75777194D01*
X128816056Y-75837537D01*
X128833479Y-75867714D01*
X128833481Y-75867717D01*
X128952349Y-75986585D01*
X128952355Y-75986590D01*
X129055781Y-76090016D01*
X129089266Y-76151339D01*
X129092100Y-76177697D01*
X129092100Y-79453030D01*
X129092099Y-79453048D01*
X129092099Y-79618754D01*
X129092098Y-79618754D01*
X129100564Y-79650351D01*
X129114751Y-79703295D01*
X129116175Y-79708607D01*
X129120400Y-79740701D01*
X129120400Y-79846846D01*
X129151161Y-80001489D01*
X129151164Y-80001501D01*
X129211502Y-80147172D01*
X129211509Y-80147185D01*
X129299110Y-80278288D01*
X129299113Y-80278292D01*
X129410607Y-80389786D01*
X129410611Y-80389789D01*
X129541714Y-80477390D01*
X129541727Y-80477397D01*
X129658343Y-80525700D01*
X129687403Y-80537737D01*
X129796154Y-80559369D01*
X129842053Y-80568499D01*
X129842056Y-80568500D01*
X129897400Y-80568500D01*
X129964439Y-80588185D01*
X130010194Y-80640989D01*
X130021400Y-80692500D01*
X130021400Y-80838946D01*
X130052161Y-80993589D01*
X130052164Y-80993601D01*
X130112502Y-81139272D01*
X130112509Y-81139285D01*
X130200502Y-81270974D01*
X130221380Y-81337651D01*
X130221400Y-81339865D01*
X130221400Y-96922103D01*
X130201715Y-96989142D01*
X130148911Y-97034897D01*
X130079753Y-97044841D01*
X130016197Y-97015816D01*
X130009719Y-97009784D01*
X128176819Y-95176884D01*
X128143334Y-95115561D01*
X128140500Y-95089203D01*
X128140500Y-91079765D01*
X128160185Y-91012726D01*
X128161398Y-91010874D01*
X128163647Y-91007509D01*
X128249394Y-90879179D01*
X128309737Y-90733497D01*
X128340500Y-90578842D01*
X128340500Y-90421158D01*
X128340500Y-90421155D01*
X128340499Y-90421153D01*
X128325203Y-90344256D01*
X128309737Y-90266503D01*
X128309735Y-90266498D01*
X128249397Y-90120827D01*
X128249390Y-90120814D01*
X128161789Y-89989711D01*
X128161786Y-89989707D01*
X128050292Y-89878213D01*
X128050288Y-89878210D01*
X127919185Y-89790609D01*
X127919172Y-89790602D01*
X127773501Y-89730264D01*
X127773489Y-89730261D01*
X127618845Y-89699500D01*
X127618842Y-89699500D01*
X127461158Y-89699500D01*
X127461155Y-89699500D01*
X127306510Y-89730261D01*
X127306498Y-89730264D01*
X127160827Y-89790602D01*
X127160814Y-89790609D01*
X127029711Y-89878210D01*
X127029707Y-89878213D01*
X126918213Y-89989707D01*
X126918210Y-89989711D01*
X126830609Y-90120814D01*
X126830602Y-90120827D01*
X126770264Y-90266498D01*
X126770261Y-90266510D01*
X126739500Y-90421153D01*
X126739500Y-90578846D01*
X126770261Y-90733489D01*
X126770264Y-90733501D01*
X126830602Y-90879172D01*
X126830609Y-90879185D01*
X126876032Y-90947164D01*
X126916353Y-91007509D01*
X126918602Y-91010874D01*
X126939480Y-91077551D01*
X126939500Y-91079765D01*
X126939500Y-94616902D01*
X126919815Y-94683941D01*
X126867011Y-94729696D01*
X126797853Y-94739640D01*
X126734297Y-94710615D01*
X126727819Y-94704583D01*
X125010468Y-92987233D01*
X124976983Y-92925910D01*
X124981967Y-92856218D01*
X124995041Y-92830671D01*
X125079494Y-92704279D01*
X125139837Y-92558597D01*
X125170600Y-92403942D01*
X125170600Y-92246258D01*
X125170600Y-92246255D01*
X125170599Y-92246253D01*
X125154017Y-92162891D01*
X125139837Y-92091603D01*
X125111018Y-92022027D01*
X125079497Y-91945927D01*
X125079490Y-91945914D01*
X124991498Y-91814225D01*
X124970620Y-91747547D01*
X124970600Y-91745334D01*
X124970600Y-90105960D01*
X124970601Y-90105947D01*
X124970601Y-89937844D01*
X124962343Y-89907025D01*
X124929677Y-89785116D01*
X124910112Y-89751228D01*
X124893500Y-89689229D01*
X124893500Y-89660955D01*
X124893499Y-89660953D01*
X124868045Y-89532990D01*
X124862737Y-89506303D01*
X124820219Y-89403654D01*
X124802397Y-89360627D01*
X124802390Y-89360614D01*
X124714398Y-89228925D01*
X124693520Y-89162247D01*
X124693500Y-89160034D01*
X124693500Y-72037797D01*
X124713185Y-71970758D01*
X124729819Y-71950116D01*
X126330492Y-70349443D01*
X127940664Y-68739271D01*
X128001985Y-68705788D01*
X128004152Y-68705337D01*
X128004841Y-68705200D01*
X128004842Y-68705200D01*
X128159497Y-68674437D01*
X128305179Y-68614094D01*
X128436289Y-68526489D01*
X128547789Y-68414989D01*
X128635394Y-68283879D01*
X128695737Y-68138197D01*
X128726500Y-67983542D01*
X128726500Y-67825858D01*
X128726500Y-67825855D01*
X128726499Y-67825853D01*
X128708365Y-67734683D01*
X128704764Y-67716579D01*
X130130000Y-67716579D01*
X130130000Y-67870000D01*
X130880000Y-67870000D01*
X130880000Y-68370000D01*
X130130000Y-68370000D01*
X130130000Y-68523420D01*
X130170348Y-68726266D01*
X130170350Y-68726274D01*
X130249500Y-68917358D01*
X130249505Y-68917368D01*
X130364410Y-69089335D01*
X130364413Y-69089339D01*
X130510660Y-69235586D01*
X130510664Y-69235589D01*
X130682631Y-69350494D01*
X130682641Y-69350499D01*
X130873723Y-69429648D01*
X130873725Y-69429649D01*
X130930000Y-69440842D01*
X130930000Y-68586988D01*
X130939940Y-68604205D01*
X130995795Y-68660060D01*
X131064204Y-68699556D01*
X131140504Y-68720000D01*
X131219496Y-68720000D01*
X131295796Y-68699556D01*
X131364205Y-68660060D01*
X131420060Y-68604205D01*
X131430000Y-68586988D01*
X131430000Y-69440842D01*
X131486274Y-69429649D01*
X131486276Y-69429648D01*
X131677358Y-69350499D01*
X131677368Y-69350494D01*
X131849335Y-69235589D01*
X131849339Y-69235586D01*
X131995586Y-69089339D01*
X131995589Y-69089335D01*
X132110494Y-68917368D01*
X132110499Y-68917358D01*
X132189649Y-68726274D01*
X132189651Y-68726266D01*
X132229999Y-68523420D01*
X132230000Y-68523417D01*
X132230000Y-68370000D01*
X131480000Y-68370000D01*
X131480000Y-67870000D01*
X132230000Y-67870000D01*
X132230000Y-67716583D01*
X132229999Y-67716579D01*
X138770000Y-67716579D01*
X138770000Y-67870000D01*
X139520000Y-67870000D01*
X139520000Y-68370000D01*
X138770000Y-68370000D01*
X138770000Y-68523420D01*
X138810348Y-68726266D01*
X138810350Y-68726274D01*
X138889500Y-68917358D01*
X138889505Y-68917368D01*
X139004410Y-69089335D01*
X139004413Y-69089339D01*
X139150660Y-69235586D01*
X139150664Y-69235589D01*
X139322631Y-69350494D01*
X139322641Y-69350499D01*
X139513723Y-69429648D01*
X139513725Y-69429649D01*
X139570000Y-69440842D01*
X139570000Y-68586988D01*
X139579940Y-68604205D01*
X139635795Y-68660060D01*
X139704204Y-68699556D01*
X139780504Y-68720000D01*
X139859496Y-68720000D01*
X139935796Y-68699556D01*
X140004205Y-68660060D01*
X140060060Y-68604205D01*
X140070000Y-68586988D01*
X140070000Y-69440842D01*
X140126274Y-69429649D01*
X140126276Y-69429648D01*
X140317358Y-69350499D01*
X140317368Y-69350494D01*
X140489335Y-69235589D01*
X140489339Y-69235586D01*
X140635586Y-69089339D01*
X140635589Y-69089335D01*
X140750494Y-68917368D01*
X140750499Y-68917358D01*
X140829649Y-68726274D01*
X140829651Y-68726266D01*
X140869999Y-68523420D01*
X140870000Y-68523417D01*
X140870000Y-68370000D01*
X140120000Y-68370000D01*
X140120000Y-67870000D01*
X140870000Y-67870000D01*
X140870000Y-67716583D01*
X140869999Y-67716579D01*
X140829651Y-67513733D01*
X140829649Y-67513725D01*
X140750499Y-67322641D01*
X140750494Y-67322631D01*
X140635589Y-67150664D01*
X140635586Y-67150660D01*
X140489339Y-67004413D01*
X140489335Y-67004410D01*
X140317368Y-66889505D01*
X140317358Y-66889500D01*
X140126272Y-66810349D01*
X140126267Y-66810347D01*
X140070000Y-66799155D01*
X140070000Y-67653011D01*
X140060060Y-67635795D01*
X140004205Y-67579940D01*
X139935796Y-67540444D01*
X139859496Y-67520000D01*
X139780504Y-67520000D01*
X139704204Y-67540444D01*
X139635795Y-67579940D01*
X139579940Y-67635795D01*
X139570000Y-67653011D01*
X139570000Y-66799156D01*
X139569999Y-66799155D01*
X139513732Y-66810347D01*
X139513727Y-66810349D01*
X139322641Y-66889500D01*
X139322631Y-66889505D01*
X139150664Y-67004410D01*
X139150660Y-67004413D01*
X139004413Y-67150660D01*
X139004410Y-67150664D01*
X138889505Y-67322631D01*
X138889500Y-67322641D01*
X138810350Y-67513725D01*
X138810348Y-67513733D01*
X138770000Y-67716579D01*
X132229999Y-67716579D01*
X132189651Y-67513733D01*
X132189649Y-67513725D01*
X132110499Y-67322641D01*
X132110494Y-67322631D01*
X131995589Y-67150664D01*
X131995586Y-67150660D01*
X131849339Y-67004413D01*
X131849335Y-67004410D01*
X131677368Y-66889505D01*
X131677358Y-66889500D01*
X131486272Y-66810349D01*
X131486267Y-66810347D01*
X131430000Y-66799155D01*
X131430000Y-67653011D01*
X131420060Y-67635795D01*
X131364205Y-67579940D01*
X131295796Y-67540444D01*
X131219496Y-67520000D01*
X131140504Y-67520000D01*
X131064204Y-67540444D01*
X130995795Y-67579940D01*
X130939940Y-67635795D01*
X130930000Y-67653011D01*
X130930000Y-66799156D01*
X130929999Y-66799155D01*
X130873732Y-66810347D01*
X130873727Y-66810349D01*
X130682641Y-66889500D01*
X130682631Y-66889505D01*
X130510664Y-67004410D01*
X130510660Y-67004413D01*
X130364413Y-67150660D01*
X130364410Y-67150664D01*
X130249505Y-67322631D01*
X130249500Y-67322641D01*
X130170350Y-67513725D01*
X130170348Y-67513733D01*
X130130000Y-67716579D01*
X128704764Y-67716579D01*
X128695738Y-67671208D01*
X128695737Y-67671207D01*
X128695737Y-67671203D01*
X128657935Y-67579940D01*
X128635397Y-67525527D01*
X128635390Y-67525514D01*
X128547789Y-67394411D01*
X128547786Y-67394407D01*
X128436292Y-67282913D01*
X128436288Y-67282910D01*
X128305185Y-67195309D01*
X128305172Y-67195302D01*
X128159501Y-67134964D01*
X128159489Y-67134961D01*
X128004845Y-67104200D01*
X128004842Y-67104200D01*
X127847158Y-67104200D01*
X127847155Y-67104200D01*
X127692510Y-67134961D01*
X127692498Y-67134964D01*
X127546827Y-67195302D01*
X127546814Y-67195309D01*
X127415711Y-67282910D01*
X127415707Y-67282913D01*
X127304213Y-67394407D01*
X127304210Y-67394411D01*
X127216609Y-67525514D01*
X127216602Y-67525527D01*
X127156264Y-67671198D01*
X127156261Y-67671208D01*
X127125362Y-67826548D01*
X127092977Y-67888459D01*
X127091426Y-67890037D01*
X123724286Y-71257178D01*
X123612481Y-71368982D01*
X123612479Y-71368984D01*
X123599191Y-71392001D01*
X123572230Y-71438700D01*
X123571150Y-71440571D01*
X123533423Y-71505914D01*
X123524912Y-71537679D01*
X123492499Y-71658643D01*
X123492499Y-71658645D01*
X123492499Y-71826746D01*
X123492500Y-71826759D01*
X123492500Y-85378757D01*
X123472815Y-85445796D01*
X123420011Y-85491551D01*
X123392692Y-85500374D01*
X123254508Y-85527861D01*
X123254498Y-85527864D01*
X123108827Y-85588202D01*
X123108814Y-85588209D01*
X122977711Y-85675810D01*
X122977707Y-85675813D01*
X122866213Y-85787307D01*
X122866210Y-85787311D01*
X122778609Y-85918414D01*
X122778602Y-85918427D01*
X122718264Y-86064098D01*
X122718261Y-86064110D01*
X122687500Y-86218753D01*
X122687500Y-86376446D01*
X122718261Y-86531089D01*
X122718264Y-86531101D01*
X122778602Y-86676772D01*
X122778609Y-86676785D01*
X122866602Y-86808474D01*
X122887480Y-86875151D01*
X122887500Y-86877365D01*
X122887500Y-89646167D01*
X122867815Y-89713206D01*
X122815011Y-89758961D01*
X122810952Y-89760728D01*
X122738827Y-89790602D01*
X122738814Y-89790609D01*
X122607711Y-89878210D01*
X122607707Y-89878213D01*
X122513181Y-89972740D01*
X122451858Y-90006225D01*
X122382166Y-90001241D01*
X122326233Y-89959369D01*
X122301816Y-89893905D01*
X122301500Y-89885059D01*
X122301500Y-81458165D01*
X122321185Y-81391126D01*
X122322398Y-81389274D01*
X122356892Y-81337651D01*
X122410394Y-81257579D01*
X122470737Y-81111897D01*
X122501500Y-80957242D01*
X122501500Y-80799558D01*
X122501500Y-80799555D01*
X122501499Y-80799553D01*
X122481892Y-80700983D01*
X122470737Y-80644903D01*
X122435308Y-80559369D01*
X122410397Y-80499227D01*
X122410390Y-80499214D01*
X122322398Y-80367525D01*
X122301520Y-80300847D01*
X122301500Y-80298634D01*
X122301500Y-76393745D01*
X122301499Y-76393741D01*
X122295523Y-76371438D01*
X122284442Y-76330080D01*
X122260577Y-76241015D01*
X122221965Y-76174137D01*
X122221965Y-76174136D01*
X122181524Y-76104090D01*
X122181521Y-76104086D01*
X122181520Y-76104084D01*
X122069716Y-75992280D01*
X122069715Y-75992279D01*
X122065385Y-75987949D01*
X122065374Y-75987939D01*
X121130574Y-75053139D01*
X121097089Y-74991816D01*
X121096638Y-74989649D01*
X121077274Y-74892302D01*
X121065737Y-74834303D01*
X121058848Y-74817672D01*
X121005397Y-74688627D01*
X121005390Y-74688614D01*
X120917789Y-74557511D01*
X120917786Y-74557507D01*
X120806292Y-74446013D01*
X120806288Y-74446010D01*
X120675185Y-74358409D01*
X120675172Y-74358402D01*
X120529501Y-74298064D01*
X120529489Y-74298061D01*
X120374845Y-74267300D01*
X120374842Y-74267300D01*
X120217158Y-74267300D01*
X120217155Y-74267300D01*
X120062510Y-74298061D01*
X120062498Y-74298064D01*
X119916827Y-74358402D01*
X119916814Y-74358409D01*
X119785711Y-74446010D01*
X119785707Y-74446013D01*
X119674213Y-74557507D01*
X119674210Y-74557511D01*
X119586609Y-74688614D01*
X119586602Y-74688627D01*
X119526264Y-74834298D01*
X119526261Y-74834310D01*
X119495500Y-74988953D01*
X119495500Y-75146646D01*
X119526261Y-75301289D01*
X119526264Y-75301301D01*
X119586602Y-75446972D01*
X119586609Y-75446985D01*
X119674210Y-75578088D01*
X119674213Y-75578092D01*
X119785707Y-75689586D01*
X119785711Y-75689589D01*
X119916814Y-75777190D01*
X119916827Y-75777197D01*
X120056863Y-75835201D01*
X120062503Y-75837537D01*
X120127147Y-75850395D01*
X120217849Y-75868438D01*
X120279760Y-75900823D01*
X120281339Y-75902374D01*
X121064181Y-76685216D01*
X121097666Y-76746539D01*
X121100500Y-76772897D01*
X121100500Y-80298634D01*
X121080815Y-80365673D01*
X121079602Y-80367525D01*
X120991609Y-80499214D01*
X120991602Y-80499227D01*
X120931264Y-80644898D01*
X120931261Y-80644910D01*
X120900500Y-80799553D01*
X120900500Y-80957246D01*
X120931261Y-81111889D01*
X120931264Y-81111901D01*
X120991602Y-81257572D01*
X120991609Y-81257585D01*
X121079602Y-81389274D01*
X121100480Y-81455951D01*
X121100500Y-81458165D01*
X121100500Y-86939865D01*
X121080815Y-87006904D01*
X121028011Y-87052659D01*
X121000692Y-87061482D01*
X120855508Y-87090361D01*
X120855498Y-87090364D01*
X120709827Y-87150702D01*
X120709814Y-87150709D01*
X120578711Y-87238310D01*
X120578707Y-87238313D01*
X120467213Y-87349807D01*
X120467210Y-87349811D01*
X120379609Y-87480914D01*
X120379602Y-87480927D01*
X120319264Y-87626598D01*
X120319261Y-87626610D01*
X120288500Y-87781253D01*
X120288500Y-87938946D01*
X120319261Y-88093589D01*
X120319264Y-88093601D01*
X120379602Y-88239272D01*
X120379609Y-88239285D01*
X120467602Y-88370974D01*
X120488480Y-88437651D01*
X120488500Y-88439865D01*
X120488500Y-89446903D01*
X120468815Y-89513942D01*
X120452181Y-89534584D01*
X119949981Y-90036784D01*
X119888658Y-90070269D01*
X119818966Y-90065285D01*
X119763033Y-90023413D01*
X119738616Y-89957949D01*
X119738300Y-89949103D01*
X119738300Y-77117265D01*
X119757985Y-77050226D01*
X119759198Y-77048374D01*
X119847190Y-76916685D01*
X119847190Y-76916684D01*
X119847194Y-76916679D01*
X119847248Y-76916550D01*
X119901779Y-76784897D01*
X119907537Y-76770997D01*
X119938300Y-76616342D01*
X119938300Y-76458658D01*
X119938300Y-76458655D01*
X119938299Y-76458653D01*
X119925388Y-76393745D01*
X119907537Y-76304003D01*
X119881446Y-76241013D01*
X119847197Y-76158327D01*
X119847190Y-76158314D01*
X119759589Y-76027211D01*
X119759586Y-76027207D01*
X119648092Y-75915713D01*
X119648088Y-75915710D01*
X119516985Y-75828109D01*
X119516972Y-75828102D01*
X119371301Y-75767764D01*
X119371289Y-75767761D01*
X119216645Y-75737000D01*
X119216642Y-75737000D01*
X119058958Y-75737000D01*
X119058955Y-75737000D01*
X118904310Y-75767761D01*
X118904298Y-75767764D01*
X118758627Y-75828102D01*
X118758614Y-75828109D01*
X118627511Y-75915710D01*
X118627507Y-75915713D01*
X118516013Y-76027207D01*
X118516010Y-76027211D01*
X118428409Y-76158314D01*
X118428402Y-76158327D01*
X118368064Y-76303998D01*
X118368061Y-76304010D01*
X118337300Y-76458653D01*
X118337300Y-76616346D01*
X118368061Y-76770989D01*
X118368064Y-76771001D01*
X118428402Y-76916672D01*
X118428409Y-76916685D01*
X118516402Y-77048374D01*
X118537280Y-77115051D01*
X118537300Y-77117265D01*
X118537300Y-90277217D01*
X118517615Y-90344256D01*
X118516402Y-90346107D01*
X118447912Y-90448609D01*
X118447902Y-90448627D01*
X118387564Y-90594298D01*
X118387561Y-90594310D01*
X118356800Y-90748953D01*
X118356800Y-90906646D01*
X118387561Y-91061289D01*
X118387564Y-91061301D01*
X118447902Y-91206972D01*
X118447909Y-91206985D01*
X118535510Y-91338088D01*
X118535513Y-91338092D01*
X118647007Y-91449586D01*
X118647011Y-91449589D01*
X118778114Y-91537190D01*
X118778121Y-91537194D01*
X118860953Y-91571504D01*
X118915355Y-91615343D01*
X118937421Y-91681637D01*
X118937500Y-91686064D01*
X118937500Y-101179234D01*
X118917815Y-101246273D01*
X118916602Y-101248125D01*
X118828609Y-101379814D01*
X118828602Y-101379827D01*
X118768264Y-101525498D01*
X118768261Y-101525510D01*
X118737500Y-101680153D01*
X118737500Y-101837846D01*
X118768261Y-101992489D01*
X118768264Y-101992501D01*
X118828602Y-102138172D01*
X118828609Y-102138185D01*
X118916210Y-102269288D01*
X118916213Y-102269292D01*
X119027707Y-102380786D01*
X119027711Y-102380789D01*
X119158814Y-102468390D01*
X119158827Y-102468397D01*
X119278608Y-102518011D01*
X119304503Y-102528737D01*
X119459153Y-102559499D01*
X119459156Y-102559500D01*
X119571500Y-102559500D01*
X119638539Y-102579185D01*
X119684294Y-102631989D01*
X119695500Y-102683500D01*
X119695500Y-104681502D01*
X119675815Y-104748541D01*
X119659181Y-104769183D01*
X118933824Y-105494539D01*
X118872501Y-105528024D01*
X118802809Y-105523040D01*
X118746876Y-105481168D01*
X118739835Y-105470691D01*
X118735103Y-105462810D01*
X118714894Y-105414021D01*
X118627289Y-105282911D01*
X118626768Y-105282390D01*
X118623692Y-105277267D01*
X118615596Y-105246231D01*
X118606020Y-105215647D01*
X118606000Y-105213434D01*
X118606000Y-102864045D01*
X118606000Y-102864043D01*
X118565077Y-102711316D01*
X118558696Y-102700263D01*
X118486024Y-102574390D01*
X118486018Y-102574382D01*
X118408973Y-102497337D01*
X118375488Y-102436014D01*
X118375037Y-102433847D01*
X118362458Y-102370608D01*
X118344137Y-102278503D01*
X118340322Y-102269292D01*
X118283797Y-102132827D01*
X118283787Y-102132809D01*
X118196189Y-102001711D01*
X118196186Y-102001707D01*
X118084692Y-101890213D01*
X118084688Y-101890210D01*
X117953585Y-101802609D01*
X117953572Y-101802602D01*
X117807901Y-101742264D01*
X117807889Y-101742261D01*
X117653245Y-101711500D01*
X117653242Y-101711500D01*
X117495558Y-101711500D01*
X117495555Y-101711500D01*
X117340910Y-101742261D01*
X117340898Y-101742264D01*
X117195227Y-101802602D01*
X117195214Y-101802609D01*
X117064111Y-101890210D01*
X117064107Y-101890213D01*
X116952613Y-102001707D01*
X116952610Y-102001711D01*
X116865013Y-102132809D01*
X116865002Y-102132827D01*
X116804664Y-102278498D01*
X116804661Y-102278510D01*
X116773900Y-102433153D01*
X116773900Y-102590846D01*
X116804661Y-102745489D01*
X116804664Y-102745501D01*
X116865002Y-102891172D01*
X116865009Y-102891185D01*
X116952610Y-103022288D01*
X116952613Y-103022292D01*
X117064107Y-103133786D01*
X117064111Y-103133789D01*
X117195214Y-103221390D01*
X117195218Y-103221392D01*
X117195221Y-103221394D01*
X117328456Y-103276581D01*
X117382855Y-103320419D01*
X117404921Y-103386713D01*
X117405000Y-103391140D01*
X117405000Y-104894903D01*
X117385315Y-104961942D01*
X117332511Y-105007697D01*
X117263353Y-105017641D01*
X117199797Y-104988616D01*
X117193319Y-104982584D01*
X115233819Y-103023084D01*
X115200334Y-102961761D01*
X115197500Y-102935403D01*
X115197500Y-91726053D01*
X115847500Y-91726053D01*
X115847500Y-91883746D01*
X115878261Y-92038389D01*
X115878264Y-92038401D01*
X115938602Y-92184072D01*
X115938609Y-92184085D01*
X116026602Y-92315774D01*
X116047480Y-92382451D01*
X116047500Y-92384665D01*
X116047500Y-95283730D01*
X116047499Y-95283748D01*
X116047499Y-95449454D01*
X116047498Y-95449454D01*
X116051574Y-95464664D01*
X116088423Y-95602185D01*
X116094442Y-95612611D01*
X116099334Y-95621083D01*
X116099335Y-95621085D01*
X116167477Y-95739112D01*
X116167481Y-95739117D01*
X116286349Y-95857985D01*
X116286355Y-95857990D01*
X116677425Y-96249060D01*
X116710910Y-96310383D01*
X116711361Y-96312549D01*
X116742261Y-96467891D01*
X116742264Y-96467901D01*
X116802602Y-96613572D01*
X116802609Y-96613585D01*
X116890210Y-96744688D01*
X116890213Y-96744692D01*
X117001707Y-96856186D01*
X117001711Y-96856189D01*
X117132814Y-96943790D01*
X117132827Y-96943797D01*
X117266738Y-96999264D01*
X117278503Y-97004137D01*
X117433143Y-97034897D01*
X117433153Y-97034899D01*
X117433156Y-97034900D01*
X117433158Y-97034900D01*
X117590844Y-97034900D01*
X117590845Y-97034899D01*
X117745497Y-97004137D01*
X117891179Y-96943794D01*
X118022289Y-96856189D01*
X118133789Y-96744689D01*
X118221394Y-96613579D01*
X118281737Y-96467897D01*
X118312500Y-96313242D01*
X118312500Y-96155558D01*
X118312500Y-96155555D01*
X118312499Y-96155553D01*
X118291280Y-96048879D01*
X118281737Y-96000903D01*
X118241268Y-95903201D01*
X118221397Y-95855227D01*
X118221390Y-95855214D01*
X118133789Y-95724111D01*
X118133786Y-95724107D01*
X118022292Y-95612613D01*
X118022288Y-95612610D01*
X117891185Y-95525009D01*
X117891172Y-95525002D01*
X117745501Y-95464664D01*
X117745491Y-95464661D01*
X117590151Y-95433762D01*
X117528241Y-95401377D01*
X117526662Y-95399826D01*
X117284819Y-95157983D01*
X117251334Y-95096660D01*
X117248500Y-95070302D01*
X117248500Y-92384665D01*
X117268185Y-92317626D01*
X117269398Y-92315774D01*
X117357390Y-92184085D01*
X117357390Y-92184084D01*
X117357394Y-92184079D01*
X117361576Y-92173984D01*
X117386803Y-92113078D01*
X117417737Y-92038397D01*
X117448500Y-91883742D01*
X117448500Y-91726058D01*
X117448500Y-91726055D01*
X117448499Y-91726053D01*
X117438001Y-91673277D01*
X117417737Y-91571403D01*
X117381859Y-91484784D01*
X117357397Y-91425727D01*
X117357390Y-91425714D01*
X117269398Y-91294025D01*
X117248520Y-91227347D01*
X117248500Y-91225134D01*
X117248500Y-89468097D01*
X117257143Y-89438660D01*
X117263667Y-89408671D01*
X117267422Y-89403654D01*
X117268185Y-89401058D01*
X117284818Y-89380417D01*
X117304621Y-89360614D01*
X117330661Y-89334573D01*
X117391982Y-89301089D01*
X117394150Y-89300638D01*
X117452085Y-89289113D01*
X117549497Y-89269737D01*
X117695179Y-89209394D01*
X117826289Y-89121789D01*
X117937789Y-89010289D01*
X118025394Y-88879179D01*
X118085737Y-88733497D01*
X118116500Y-88578842D01*
X118116500Y-88421158D01*
X118116500Y-88421155D01*
X118116499Y-88421153D01*
X118101592Y-88346212D01*
X118085737Y-88266503D01*
X118074458Y-88239272D01*
X118025397Y-88120827D01*
X118025390Y-88120814D01*
X117937789Y-87989711D01*
X117937786Y-87989707D01*
X117826292Y-87878213D01*
X117826288Y-87878210D01*
X117695185Y-87790609D01*
X117695172Y-87790602D01*
X117549501Y-87730264D01*
X117549489Y-87730261D01*
X117394845Y-87699500D01*
X117394842Y-87699500D01*
X117237158Y-87699500D01*
X117237155Y-87699500D01*
X117082510Y-87730261D01*
X117082498Y-87730264D01*
X116936827Y-87790602D01*
X116936814Y-87790609D01*
X116805711Y-87878210D01*
X116805707Y-87878213D01*
X116694213Y-87989707D01*
X116694210Y-87989711D01*
X116606609Y-88120814D01*
X116606602Y-88120827D01*
X116546264Y-88266498D01*
X116546261Y-88266508D01*
X116515362Y-88421848D01*
X116482977Y-88483759D01*
X116481426Y-88485337D01*
X116279286Y-88687478D01*
X116167481Y-88799282D01*
X116167479Y-88799284D01*
X116145754Y-88836914D01*
X116136571Y-88852821D01*
X116088423Y-88936215D01*
X116047499Y-89088943D01*
X116047499Y-89088945D01*
X116047499Y-89257046D01*
X116047500Y-89257059D01*
X116047500Y-91225134D01*
X116027815Y-91292173D01*
X116026602Y-91294025D01*
X115938609Y-91425714D01*
X115938602Y-91425727D01*
X115878264Y-91571398D01*
X115878261Y-91571410D01*
X115847500Y-91726053D01*
X115197500Y-91726053D01*
X115197500Y-88971365D01*
X115217185Y-88904326D01*
X115218398Y-88902474D01*
X115251575Y-88852822D01*
X115306394Y-88770779D01*
X115366737Y-88625097D01*
X115397500Y-88470442D01*
X115397500Y-88312758D01*
X115397500Y-88312755D01*
X115397499Y-88312753D01*
X115385241Y-88251127D01*
X115366737Y-88158103D01*
X115351297Y-88120827D01*
X115306397Y-88012427D01*
X115306390Y-88012414D01*
X115218789Y-87881311D01*
X115218786Y-87881307D01*
X115136819Y-87799340D01*
X115103334Y-87738017D01*
X115100500Y-87711659D01*
X115100500Y-74262184D01*
X115120185Y-74195145D01*
X115151609Y-74161870D01*
X115216928Y-74114414D01*
X115324836Y-74006505D01*
X115386155Y-73973023D01*
X115455847Y-73978007D01*
X115511781Y-74019878D01*
X115518053Y-74029093D01*
X115557682Y-74093343D01*
X115681654Y-74217315D01*
X115830875Y-74309356D01*
X115830880Y-74309358D01*
X115997302Y-74364505D01*
X115997309Y-74364506D01*
X116100019Y-74374999D01*
X116249999Y-74374999D01*
X116250000Y-74374998D01*
X116250000Y-73280330D01*
X116269745Y-73300075D01*
X116355255Y-73349444D01*
X116450630Y-73375000D01*
X116549370Y-73375000D01*
X116644745Y-73349444D01*
X116730255Y-73300075D01*
X116750000Y-73280330D01*
X116750000Y-74374999D01*
X116899972Y-74374999D01*
X116899986Y-74374998D01*
X117002697Y-74364505D01*
X117169119Y-74309358D01*
X117169124Y-74309356D01*
X117318345Y-74217315D01*
X117442315Y-74093345D01*
X117534356Y-73944124D01*
X117534358Y-73944119D01*
X117589505Y-73777697D01*
X117589506Y-73777690D01*
X117599999Y-73674986D01*
X117600000Y-73674973D01*
X117600000Y-73250000D01*
X116780330Y-73250000D01*
X116800075Y-73230255D01*
X116849444Y-73144745D01*
X116875000Y-73049370D01*
X116875000Y-72950630D01*
X116849444Y-72855255D01*
X116800075Y-72769745D01*
X116780330Y-72750000D01*
X117599999Y-72750000D01*
X117599999Y-72325028D01*
X117599998Y-72325013D01*
X117589505Y-72222302D01*
X117534358Y-72055880D01*
X117534356Y-72055875D01*
X117442315Y-71906654D01*
X117318345Y-71782684D01*
X117169124Y-71690643D01*
X117169119Y-71690641D01*
X117002697Y-71635494D01*
X117002690Y-71635493D01*
X116899986Y-71625000D01*
X116750000Y-71625000D01*
X116750000Y-72719670D01*
X116730255Y-72699925D01*
X116644745Y-72650556D01*
X116549370Y-72625000D01*
X116450630Y-72625000D01*
X116355255Y-72650556D01*
X116269745Y-72699925D01*
X116250000Y-72719670D01*
X116250000Y-71625000D01*
X116100027Y-71625000D01*
X116100012Y-71625001D01*
X115997302Y-71635494D01*
X115830880Y-71690641D01*
X115830875Y-71690643D01*
X115681654Y-71782684D01*
X115557684Y-71906654D01*
X115518053Y-71970907D01*
X115466105Y-72017631D01*
X115397142Y-72028853D01*
X115333060Y-72001010D01*
X115324833Y-71993491D01*
X115216930Y-71885588D01*
X115216928Y-71885586D01*
X115076788Y-71783768D01*
X114922445Y-71705127D01*
X114757701Y-71651598D01*
X114757699Y-71651597D01*
X114757698Y-71651597D01*
X114626271Y-71630781D01*
X114586611Y-71624500D01*
X114413389Y-71624500D01*
X114373728Y-71630781D01*
X114242302Y-71651597D01*
X114077552Y-71705128D01*
X113923211Y-71783768D01*
X113864058Y-71826746D01*
X113783072Y-71885586D01*
X113783070Y-71885588D01*
X113783069Y-71885588D01*
X113660588Y-72008069D01*
X113660588Y-72008070D01*
X113660586Y-72008072D01*
X113625855Y-72055875D01*
X113558768Y-72148211D01*
X113480128Y-72302552D01*
X113480127Y-72302554D01*
X113480127Y-72302555D01*
X113469326Y-72335796D01*
X113426597Y-72467302D01*
X113399500Y-72638389D01*
X113399500Y-73361610D01*
X113418093Y-73479006D01*
X113426598Y-73532701D01*
X113480127Y-73697445D01*
X113558768Y-73851788D01*
X113660586Y-73991928D01*
X113783072Y-74114414D01*
X113848388Y-74161868D01*
X113851726Y-74166198D01*
X113856703Y-74168471D01*
X113872831Y-74193567D01*
X113891051Y-74217195D01*
X113892304Y-74223868D01*
X113894477Y-74227249D01*
X113899500Y-74262184D01*
X113899500Y-74489695D01*
X113879815Y-74556734D01*
X113827011Y-74602489D01*
X113757853Y-74612433D01*
X113751309Y-74611312D01*
X113714046Y-74603900D01*
X113714042Y-74603900D01*
X113556358Y-74603900D01*
X113556355Y-74603900D01*
X113401710Y-74634661D01*
X113401698Y-74634664D01*
X113256027Y-74695002D01*
X113256014Y-74695009D01*
X113124911Y-74782610D01*
X113124907Y-74782613D01*
X113013413Y-74894107D01*
X113013410Y-74894111D01*
X112952802Y-74984817D01*
X112926793Y-75006552D01*
X112901211Y-75028720D01*
X112900072Y-75028883D01*
X112899189Y-75029622D01*
X112865584Y-75033842D01*
X112832053Y-75038664D01*
X112831005Y-75038185D01*
X112829864Y-75038329D01*
X112799320Y-75023715D01*
X112768497Y-75009639D01*
X112767874Y-75008670D01*
X112766837Y-75008174D01*
X112749039Y-74979361D01*
X112730723Y-74950861D01*
X112730507Y-74949361D01*
X112730118Y-74948731D01*
X112725700Y-74915926D01*
X112725700Y-74768165D01*
X112745385Y-74701126D01*
X112746598Y-74699274D01*
X112749453Y-74695002D01*
X112834594Y-74567579D01*
X112840922Y-74552303D01*
X112875770Y-74468170D01*
X112894937Y-74421897D01*
X112925700Y-74267242D01*
X112925700Y-74109558D01*
X112925700Y-74109555D01*
X112925699Y-74109553D01*
X112907861Y-74019878D01*
X112894937Y-73954903D01*
X112859812Y-73870102D01*
X112834597Y-73809227D01*
X112834590Y-73809214D01*
X112746989Y-73678111D01*
X112746986Y-73678107D01*
X112635492Y-73566613D01*
X112635488Y-73566610D01*
X112504385Y-73479009D01*
X112504372Y-73479002D01*
X112358701Y-73418664D01*
X112358689Y-73418661D01*
X112204045Y-73387900D01*
X112204042Y-73387900D01*
X112046358Y-73387900D01*
X112046355Y-73387900D01*
X111891710Y-73418661D01*
X111891698Y-73418664D01*
X111746027Y-73479002D01*
X111746014Y-73479009D01*
X111614911Y-73566610D01*
X111614907Y-73566613D01*
X111503413Y-73678107D01*
X111503410Y-73678111D01*
X111415809Y-73809214D01*
X111415802Y-73809227D01*
X111355464Y-73954898D01*
X111355461Y-73954910D01*
X111324700Y-74109553D01*
X111324700Y-74267246D01*
X111355461Y-74421889D01*
X111355464Y-74421901D01*
X111415802Y-74567572D01*
X111415809Y-74567585D01*
X111485576Y-74671997D01*
X111500947Y-74695002D01*
X111503802Y-74699274D01*
X111524680Y-74765951D01*
X111524700Y-74768165D01*
X111524700Y-82918400D01*
X111505015Y-82985439D01*
X111452211Y-83031194D01*
X111400700Y-83042400D01*
X111361155Y-83042400D01*
X111206510Y-83073161D01*
X111206498Y-83073164D01*
X111060827Y-83133502D01*
X111060814Y-83133509D01*
X110929711Y-83221110D01*
X110929707Y-83221113D01*
X110818213Y-83332607D01*
X110818210Y-83332611D01*
X110727602Y-83468215D01*
X110673989Y-83513020D01*
X110604664Y-83521727D01*
X110541637Y-83491572D01*
X110504918Y-83432129D01*
X110500500Y-83399324D01*
X110500500Y-65624500D01*
X110520185Y-65557461D01*
X110572989Y-65511706D01*
X110624500Y-65500500D01*
X160154866Y-65500500D01*
X160221905Y-65520185D01*
G37*
%TD.AperFunction*%
%TA.AperFunction,Conductor*%
G36*
X147531834Y-107045759D02*
G01*
X147587767Y-107087631D01*
X147612184Y-107153095D01*
X147612500Y-107161941D01*
X147612500Y-110853730D01*
X147612499Y-110853748D01*
X147612499Y-111019454D01*
X147612498Y-111019454D01*
X147628304Y-111078443D01*
X147653423Y-111172185D01*
X147673797Y-111207473D01*
X147732479Y-111309114D01*
X147732481Y-111309117D01*
X147953626Y-111530262D01*
X147987111Y-111591585D01*
X147987562Y-111593751D01*
X148018461Y-111749091D01*
X148018464Y-111749101D01*
X148078802Y-111894772D01*
X148078809Y-111894785D01*
X148166410Y-112025888D01*
X148166413Y-112025892D01*
X148277907Y-112137386D01*
X148277911Y-112137389D01*
X148412157Y-112227090D01*
X148424976Y-112242429D01*
X148441191Y-112254122D01*
X148446922Y-112268689D01*
X148456962Y-112280702D01*
X148459453Y-112300536D01*
X148466773Y-112319140D01*
X148465281Y-112346945D01*
X148465669Y-112350027D01*
X148464883Y-112354384D01*
X148433362Y-112512848D01*
X148400977Y-112574759D01*
X148399427Y-112576337D01*
X148369339Y-112606425D01*
X148321286Y-112654478D01*
X148209479Y-112766284D01*
X148205595Y-112771346D01*
X148149163Y-112812543D01*
X148079416Y-112816691D01*
X148050931Y-112806335D01*
X147938214Y-112748903D01*
X147938216Y-112748903D01*
X147736124Y-112683241D01*
X147670000Y-112672768D01*
X147670000Y-113566988D01*
X147612993Y-113534075D01*
X147485826Y-113500000D01*
X147354174Y-113500000D01*
X147227007Y-113534075D01*
X147170000Y-113566988D01*
X147170000Y-112672768D01*
X147169999Y-112672768D01*
X147099062Y-112684004D01*
X147098820Y-112682476D01*
X147078557Y-112681458D01*
X147051532Y-112683656D01*
X147044175Y-112679731D01*
X147035849Y-112679313D01*
X147013807Y-112663530D01*
X146989887Y-112650769D01*
X146985820Y-112643490D01*
X146979041Y-112638636D01*
X146969030Y-112613440D01*
X146955807Y-112589774D01*
X146955669Y-112579814D01*
X146953242Y-112573704D01*
X146952947Y-112554596D01*
X146953462Y-112546249D01*
X146961500Y-112505842D01*
X146961500Y-112416094D01*
X146961736Y-112412273D01*
X146962946Y-112408928D01*
X146965725Y-112387823D01*
X146968695Y-112376739D01*
X146997200Y-112270357D01*
X146997200Y-112112243D01*
X146997200Y-107404182D01*
X147016885Y-107337143D01*
X147069689Y-107291388D01*
X147073748Y-107289621D01*
X147190172Y-107241397D01*
X147190172Y-107241396D01*
X147190179Y-107241394D01*
X147321289Y-107153789D01*
X147358495Y-107116583D01*
X147400819Y-107074260D01*
X147462142Y-107040775D01*
X147531834Y-107045759D01*
G37*
%TD.AperFunction*%
%TA.AperFunction,Conductor*%
G36*
X128889191Y-102954210D02*
G01*
X128953814Y-102997390D01*
X128953827Y-102997397D01*
X129098477Y-103057312D01*
X129099503Y-103057737D01*
X129164147Y-103070595D01*
X129254849Y-103088638D01*
X129316760Y-103121023D01*
X129318339Y-103122574D01*
X129794081Y-103598316D01*
X129827566Y-103659639D01*
X129830400Y-103685997D01*
X129830400Y-113041803D01*
X129810715Y-113108842D01*
X129757911Y-113154597D01*
X129688753Y-113164541D01*
X129625197Y-113135516D01*
X129618719Y-113129484D01*
X128732619Y-112243384D01*
X128699134Y-112182061D01*
X128696300Y-112155703D01*
X128696300Y-105237865D01*
X128715985Y-105170826D01*
X128768789Y-105125071D01*
X128796109Y-105116248D01*
X128815238Y-105112443D01*
X128949497Y-105085737D01*
X129095179Y-105025394D01*
X129226289Y-104937789D01*
X129337789Y-104826289D01*
X129425394Y-104695179D01*
X129485737Y-104549497D01*
X129516500Y-104394842D01*
X129516500Y-104237158D01*
X129516500Y-104237155D01*
X129516499Y-104237153D01*
X129515570Y-104232481D01*
X129485737Y-104082503D01*
X129473204Y-104052246D01*
X129425397Y-103936827D01*
X129425390Y-103936814D01*
X129337789Y-103805711D01*
X129337786Y-103805707D01*
X129226292Y-103694213D01*
X129226288Y-103694210D01*
X129095185Y-103606609D01*
X129095172Y-103606602D01*
X128949501Y-103546264D01*
X128949491Y-103546261D01*
X128796108Y-103515751D01*
X128734197Y-103483366D01*
X128699623Y-103422650D01*
X128696300Y-103394134D01*
X128696300Y-103057312D01*
X128715985Y-102990273D01*
X128768789Y-102944518D01*
X128837947Y-102934574D01*
X128889191Y-102954210D01*
G37*
%TD.AperFunction*%
%TA.AperFunction,Conductor*%
G36*
X124439203Y-94114884D02*
G01*
X124445681Y-94120916D01*
X131541681Y-101216916D01*
X131575166Y-101278239D01*
X131578000Y-101304597D01*
X131578000Y-112715045D01*
X131558315Y-112782084D01*
X131510296Y-112825529D01*
X131472182Y-112844949D01*
X131300213Y-112969890D01*
X131300209Y-112969894D01*
X131243081Y-113027023D01*
X131181758Y-113060508D01*
X131112066Y-113055524D01*
X131056133Y-113013652D01*
X131031716Y-112948188D01*
X131031400Y-112939342D01*
X131031400Y-103306844D01*
X131031400Y-103306843D01*
X131024203Y-103279984D01*
X130990477Y-103154115D01*
X130953934Y-103090821D01*
X130911420Y-103017184D01*
X130799616Y-102905380D01*
X130799615Y-102905379D01*
X130795285Y-102901049D01*
X130795274Y-102901039D01*
X130167574Y-102273339D01*
X130134089Y-102212016D01*
X130133638Y-102209849D01*
X130102738Y-102054510D01*
X130102737Y-102054503D01*
X130102735Y-102054498D01*
X130042397Y-101908827D01*
X130042390Y-101908814D01*
X129954789Y-101777711D01*
X129954786Y-101777707D01*
X129843292Y-101666213D01*
X129843288Y-101666210D01*
X129712185Y-101578609D01*
X129712172Y-101578602D01*
X129566501Y-101518264D01*
X129566489Y-101518261D01*
X129411845Y-101487500D01*
X129411842Y-101487500D01*
X129254158Y-101487500D01*
X129254155Y-101487500D01*
X129099510Y-101518261D01*
X129099498Y-101518264D01*
X128953827Y-101578602D01*
X128953816Y-101578608D01*
X128889190Y-101621790D01*
X128822512Y-101642667D01*
X128755132Y-101624182D01*
X128708443Y-101572203D01*
X128696300Y-101518687D01*
X128696300Y-100183242D01*
X128692782Y-100170116D01*
X128691162Y-100164069D01*
X128655377Y-100030515D01*
X128619788Y-99968873D01*
X128611025Y-99953695D01*
X128576324Y-99893590D01*
X128576321Y-99893586D01*
X128576320Y-99893584D01*
X128464516Y-99781780D01*
X128464515Y-99781779D01*
X128460185Y-99777449D01*
X128460174Y-99777439D01*
X124270319Y-95587584D01*
X124236834Y-95526261D01*
X124234000Y-95499903D01*
X124234000Y-94208597D01*
X124253685Y-94141558D01*
X124306489Y-94095803D01*
X124375647Y-94085859D01*
X124439203Y-94114884D01*
G37*
%TD.AperFunction*%
%TA.AperFunction,Conductor*%
G36*
X163891143Y-102694327D02*
G01*
X163939665Y-102724300D01*
X165770281Y-104554916D01*
X165803766Y-104616239D01*
X165806600Y-104642597D01*
X165806600Y-112606425D01*
X165786915Y-112673464D01*
X165734111Y-112719219D01*
X165664953Y-112729163D01*
X165644282Y-112724356D01*
X165516240Y-112682753D01*
X165354957Y-112657208D01*
X165306287Y-112649500D01*
X165093713Y-112649500D01*
X165056064Y-112655463D01*
X164883759Y-112682753D01*
X164692818Y-112744794D01*
X164622977Y-112746789D01*
X164563144Y-112710709D01*
X164532316Y-112648008D01*
X164530500Y-112626863D01*
X164530500Y-107140060D01*
X164530501Y-107140047D01*
X164530501Y-106971944D01*
X164527656Y-106961327D01*
X164489577Y-106819216D01*
X164437120Y-106728357D01*
X164410524Y-106682290D01*
X164410518Y-106682282D01*
X164165119Y-106436883D01*
X164131634Y-106375560D01*
X164128800Y-106349202D01*
X164128800Y-104620860D01*
X164128801Y-104620847D01*
X164128801Y-104452744D01*
X164113287Y-104394846D01*
X164087877Y-104300016D01*
X164075640Y-104278820D01*
X164008824Y-104163090D01*
X164008818Y-104163082D01*
X163822793Y-103977057D01*
X163635558Y-103789823D01*
X163602074Y-103728501D01*
X163607058Y-103658810D01*
X163620136Y-103633256D01*
X163674887Y-103551316D01*
X163696489Y-103518987D01*
X163696490Y-103518984D01*
X163696494Y-103518979D01*
X163756837Y-103373297D01*
X163787600Y-103218642D01*
X163787600Y-103060958D01*
X163787600Y-103060955D01*
X163787599Y-103060953D01*
X163767711Y-102960972D01*
X163756837Y-102906303D01*
X163737422Y-102859432D01*
X163729954Y-102789964D01*
X163761229Y-102727485D01*
X163821318Y-102691833D01*
X163891143Y-102694327D01*
G37*
%TD.AperFunction*%
%TA.AperFunction,Conductor*%
G36*
X159653787Y-98494219D02*
G01*
X159682927Y-98492917D01*
X159688451Y-98496030D01*
X159694433Y-98496343D01*
X159714098Y-98510483D01*
X159741019Y-98525654D01*
X163402599Y-102187234D01*
X163436084Y-102248557D01*
X163431100Y-102318249D01*
X163389228Y-102374182D01*
X163323764Y-102398599D01*
X163267466Y-102389476D01*
X163221914Y-102370608D01*
X163181685Y-102343728D01*
X159561256Y-98723299D01*
X159557492Y-98716406D01*
X159551115Y-98711821D01*
X159540984Y-98686174D01*
X159527771Y-98661976D01*
X159527679Y-98652493D01*
X159525446Y-98646838D01*
X159527290Y-98611990D01*
X159527287Y-98611592D01*
X159530500Y-98595442D01*
X159530500Y-98595324D01*
X159531688Y-98589309D01*
X159545174Y-98563440D01*
X159556094Y-98536397D01*
X159561133Y-98532830D01*
X159563989Y-98527354D01*
X159589319Y-98512883D01*
X159613127Y-98496036D01*
X159619295Y-98495760D01*
X159624658Y-98492697D01*
X159653787Y-98494219D01*
G37*
%TD.AperFunction*%
%TD*%
M02*
