%TF.GenerationSoftware,KiCad,Pcbnew,9.0.0*%
%TF.CreationDate,2025-03-28T15:52:13+02:00*%
%TF.ProjectId,EEE3088F_2025_Project,45454533-3038-4384-965f-323032355f50,rev?*%
%TF.SameCoordinates,Original*%
%TF.FileFunction,Copper,L1,Top*%
%TF.FilePolarity,Positive*%
%FSLAX46Y46*%
G04 Gerber Fmt 4.6, Leading zero omitted, Abs format (unit mm)*
G04 Created by KiCad (PCBNEW 9.0.0) date 2025-03-28 15:52:13*
%MOMM*%
%LPD*%
G01*
G04 APERTURE LIST*
G04 Aperture macros list*
%AMRoundRect*
0 Rectangle with rounded corners*
0 $1 Rounding radius*
0 $2 $3 $4 $5 $6 $7 $8 $9 X,Y pos of 4 corners*
0 Add a 4 corners polygon primitive as box body*
4,1,4,$2,$3,$4,$5,$6,$7,$8,$9,$2,$3,0*
0 Add four circle primitives for the rounded corners*
1,1,$1+$1,$2,$3*
1,1,$1+$1,$4,$5*
1,1,$1+$1,$6,$7*
1,1,$1+$1,$8,$9*
0 Add four rect primitives between the rounded corners*
20,1,$1+$1,$2,$3,$4,$5,0*
20,1,$1+$1,$4,$5,$6,$7,0*
20,1,$1+$1,$6,$7,$8,$9,0*
20,1,$1+$1,$8,$9,$2,$3,0*%
%AMFreePoly0*
4,1,9,3.862500,-0.866500,0.737500,-0.866500,0.737500,-0.450000,-0.737500,-0.450000,-0.737500,0.450000,0.737500,0.450000,0.737500,0.866500,3.862500,0.866500,3.862500,-0.866500,3.862500,-0.866500,$1*%
G04 Aperture macros list end*
%TA.AperFunction,SMDPad,CuDef*%
%ADD10RoundRect,0.100000X-0.217500X-0.100000X0.217500X-0.100000X0.217500X0.100000X-0.217500X0.100000X0*%
%TD*%
%TA.AperFunction,SMDPad,CuDef*%
%ADD11RoundRect,0.150000X-0.512500X-0.150000X0.512500X-0.150000X0.512500X0.150000X-0.512500X0.150000X0*%
%TD*%
%TA.AperFunction,SMDPad,CuDef*%
%ADD12RoundRect,0.237500X-0.250000X-0.237500X0.250000X-0.237500X0.250000X0.237500X-0.250000X0.237500X0*%
%TD*%
%TA.AperFunction,SMDPad,CuDef*%
%ADD13R,0.622500X1.105000*%
%TD*%
%TA.AperFunction,SMDPad,CuDef*%
%ADD14RoundRect,0.100000X-0.680000X-0.100000X0.680000X-0.100000X0.680000X0.100000X-0.680000X0.100000X0*%
%TD*%
%TA.AperFunction,SMDPad,CuDef*%
%ADD15RoundRect,0.225000X-0.425000X-0.225000X0.425000X-0.225000X0.425000X0.225000X-0.425000X0.225000X0*%
%TD*%
%TA.AperFunction,SMDPad,CuDef*%
%ADD16FreePoly0,0.000000*%
%TD*%
%TA.AperFunction,SMDPad,CuDef*%
%ADD17RoundRect,0.150000X-0.825000X-0.150000X0.825000X-0.150000X0.825000X0.150000X-0.825000X0.150000X0*%
%TD*%
%TA.AperFunction,HeatsinkPad*%
%ADD18C,0.500000*%
%TD*%
%TA.AperFunction,HeatsinkPad*%
%ADD19R,2.410000X3.300000*%
%TD*%
%TA.AperFunction,SMDPad,CuDef*%
%ADD20RoundRect,0.075000X-0.247500X-0.075000X0.247500X-0.075000X0.247500X0.075000X-0.247500X0.075000X0*%
%TD*%
%TA.AperFunction,HeatsinkPad*%
%ADD21R,1.010000X1.700000*%
%TD*%
%TA.AperFunction,SMDPad,CuDef*%
%ADD22RoundRect,0.100000X-0.637500X-0.100000X0.637500X-0.100000X0.637500X0.100000X-0.637500X0.100000X0*%
%TD*%
%TA.AperFunction,ComponentPad*%
%ADD23C,2.000000*%
%TD*%
%TA.AperFunction,ComponentPad*%
%ADD24O,2.200000X3.500000*%
%TD*%
%TA.AperFunction,ComponentPad*%
%ADD25R,1.500000X2.500000*%
%TD*%
%TA.AperFunction,ComponentPad*%
%ADD26O,1.500000X2.500000*%
%TD*%
%TA.AperFunction,SMDPad,CuDef*%
%ADD27R,1.207500X1.701000*%
%TD*%
%TA.AperFunction,SMDPad,CuDef*%
%ADD28RoundRect,0.250000X-0.350000X-0.450000X0.350000X-0.450000X0.350000X0.450000X-0.350000X0.450000X0*%
%TD*%
%TA.AperFunction,SMDPad,CuDef*%
%ADD29R,1.282500X3.456000*%
%TD*%
%TA.AperFunction,SMDPad,CuDef*%
%ADD30RoundRect,0.250001X-0.462499X-0.849999X0.462499X-0.849999X0.462499X0.849999X-0.462499X0.849999X0*%
%TD*%
%TA.AperFunction,SMDPad,CuDef*%
%ADD31R,1.000000X1.500000*%
%TD*%
%TA.AperFunction,ComponentPad*%
%ADD32RoundRect,0.250000X0.350000X0.625000X-0.350000X0.625000X-0.350000X-0.625000X0.350000X-0.625000X0*%
%TD*%
%TA.AperFunction,ComponentPad*%
%ADD33O,1.200000X1.750000*%
%TD*%
%TA.AperFunction,SMDPad,CuDef*%
%ADD34RoundRect,0.175000X0.175000X0.425000X-0.175000X0.425000X-0.175000X-0.425000X0.175000X-0.425000X0*%
%TD*%
%TA.AperFunction,SMDPad,CuDef*%
%ADD35RoundRect,0.190000X-0.190000X-0.410000X0.190000X-0.410000X0.190000X0.410000X-0.190000X0.410000X0*%
%TD*%
%TA.AperFunction,SMDPad,CuDef*%
%ADD36RoundRect,0.200000X-0.200000X-0.400000X0.200000X-0.400000X0.200000X0.400000X-0.200000X0.400000X0*%
%TD*%
%TA.AperFunction,SMDPad,CuDef*%
%ADD37RoundRect,0.175000X-0.175000X-0.425000X0.175000X-0.425000X0.175000X0.425000X-0.175000X0.425000X0*%
%TD*%
%TA.AperFunction,SMDPad,CuDef*%
%ADD38RoundRect,0.190000X0.190000X0.410000X-0.190000X0.410000X-0.190000X-0.410000X0.190000X-0.410000X0*%
%TD*%
%TA.AperFunction,SMDPad,CuDef*%
%ADD39RoundRect,0.200000X0.200000X0.400000X-0.200000X0.400000X-0.200000X-0.400000X0.200000X-0.400000X0*%
%TD*%
%TA.AperFunction,HeatsinkPad*%
%ADD40O,1.100000X1.700000*%
%TD*%
%TA.AperFunction,ComponentPad*%
%ADD41R,1.700000X1.700000*%
%TD*%
%TA.AperFunction,ComponentPad*%
%ADD42O,1.700000X1.700000*%
%TD*%
%TA.AperFunction,ComponentPad*%
%ADD43C,5.600000*%
%TD*%
%TA.AperFunction,SMDPad,CuDef*%
%ADD44RoundRect,0.250000X-1.000000X-0.650000X1.000000X-0.650000X1.000000X0.650000X-1.000000X0.650000X0*%
%TD*%
%TA.AperFunction,SMDPad,CuDef*%
%ADD45RoundRect,0.250000X-0.337500X-0.475000X0.337500X-0.475000X0.337500X0.475000X-0.337500X0.475000X0*%
%TD*%
%TA.AperFunction,ViaPad*%
%ADD46C,0.600000*%
%TD*%
%TA.AperFunction,Conductor*%
%ADD47C,0.200000*%
%TD*%
%TA.AperFunction,Conductor*%
%ADD48C,0.400000*%
%TD*%
G04 APERTURE END LIST*
D10*
%TO.P,D1,2,A*%
%TO.N,/5V*%
X132980000Y-79810000D03*
%TO.P,D1,1,K*%
%TO.N,Net-(D1-K)*%
X132165000Y-79810000D03*
%TD*%
%TO.P,D3,2,A*%
%TO.N,/5V*%
X132980000Y-81560000D03*
%TO.P,D3,1,K*%
%TO.N,Net-(D3-K)*%
X132165000Y-81560000D03*
%TD*%
D11*
%TO.P,Q2,3,S*%
%TO.N,GND*%
X129500000Y-78825000D03*
%TO.P,Q2,2,G*%
%TO.N,/FAST_CHARGE_CTRL*%
X127225000Y-79775000D03*
%TO.P,Q2,1,D*%
%TO.N,Net-(Q2-D)*%
X127225000Y-77875000D03*
%TD*%
D12*
%TO.P,R7,2*%
%TO.N,Net-(U6-VSET)*%
X134025000Y-77680000D03*
%TO.P,R7,1*%
%TO.N,GND*%
X132200000Y-77680000D03*
%TD*%
D11*
%TO.P,U5,5,NC*%
%TO.N,unconnected-(U5-NC-Pad5)*%
X129500000Y-82500000D03*
%TO.P,U5,4,VOUT*%
%TO.N,/5V Out*%
X129500000Y-84400000D03*
%TO.P,U5,3,NC*%
%TO.N,unconnected-(U5-NC-Pad3)*%
X127225000Y-84400000D03*
%TO.P,U5,2,GND*%
%TO.N,GND*%
X127225000Y-83450000D03*
%TO.P,U5,1,SW*%
%TO.N,Net-(D2-A)*%
X127225000Y-82500000D03*
%TD*%
D13*
%TO.P,U11,5,IN*%
%TO.N,/5V Out*%
X169032800Y-105067500D03*
%TO.P,U11,4,EN*%
%TO.N,/CTRL_EXT_LOAD2*%
X170931800Y-105067500D03*
%TO.P,U11,3,~{FLG}*%
%TO.N,unconnected-(U11-~{FLG}-Pad3)*%
X170931800Y-107667500D03*
%TO.P,U11,2,GND*%
%TO.N,GND*%
X169981800Y-107667500D03*
%TO.P,U11,1,OUT*%
%TO.N,/EXT_LOAD2_OUT*%
X169032800Y-107667500D03*
%TD*%
D14*
%TO.P,U10,1,IN+*%
%TO.N,/IN+*%
X113300000Y-88500000D03*
%TO.P,U10,2,IN-*%
%TO.N,/IN-*%
X113300000Y-89150000D03*
%TO.P,U10,3,GND*%
%TO.N,GND*%
X113300000Y-89810000D03*
%TO.P,U10,4,VS*%
%TO.N,/3V3 Out*%
X113300000Y-90460000D03*
%TO.P,U10,5,SCL*%
%TO.N,/I2C1_SCL*%
X116000000Y-90460000D03*
%TO.P,U10,6,SDA*%
%TO.N,/I2C1_SDA*%
X116000000Y-89810000D03*
%TO.P,U10,7,A0*%
%TO.N,GND*%
X116000000Y-89150000D03*
%TO.P,U10,8,A1*%
%TO.N,/3V3 Out*%
X116000000Y-88500000D03*
%TD*%
D15*
%TO.P,U9,1,OUT*%
%TO.N,Net-(JP3-B)*%
X113500000Y-80000000D03*
D16*
%TO.P,U9,2,GND*%
%TO.N,GND*%
X113587500Y-81500000D03*
D15*
%TO.P,U9,3,IN*%
%TO.N,/HV*%
X113500000Y-83000000D03*
%TD*%
D17*
%TO.P,U8,1,TEMP*%
%TO.N,GND*%
X121325000Y-104295000D03*
%TO.P,U8,2,PROG*%
%TO.N,Net-(JP1-A)*%
X121325000Y-105565000D03*
%TO.P,U8,3,GND*%
%TO.N,GND*%
X121325000Y-106835000D03*
%TO.P,U8,4,V_{CC}*%
%TO.N,/5V*%
X121325000Y-108105000D03*
%TO.P,U8,5,BAT*%
%TO.N,/IN+*%
X126275000Y-108105000D03*
%TO.P,U8,6,~{STDBY}*%
%TO.N,Net-(U8-~{STDBY})*%
X126275000Y-106835000D03*
%TO.P,U8,7,~{CHRG}*%
%TO.N,Net-(U8-~{CHRG})*%
X126275000Y-105565000D03*
%TO.P,U8,8,CE*%
%TO.N,/5V*%
X126275000Y-104295000D03*
D18*
%TO.P,U8,9,EPAD*%
%TO.N,GND*%
X123100000Y-105000000D03*
X123100000Y-106200000D03*
X123100000Y-107400000D03*
D19*
X123800000Y-106200000D03*
D18*
X124500000Y-105000000D03*
X124500000Y-106200000D03*
X124500000Y-107400000D03*
%TD*%
D13*
%TO.P,U7,1,OUT*%
%TO.N,/EXT_LOAD1_OUT*%
X164466500Y-107667500D03*
%TO.P,U7,2,GND*%
%TO.N,GND*%
X165415500Y-107667500D03*
%TO.P,U7,3,~{FLG}*%
%TO.N,unconnected-(U7-~{FLG}-Pad3)*%
X166365500Y-107667500D03*
%TO.P,U7,4,EN*%
%TO.N,/CTRL_EXT_LOAD1*%
X166365500Y-105067500D03*
%TO.P,U7,5,IN*%
%TO.N,/5V Out*%
X164466500Y-105067500D03*
%TD*%
D20*
%TO.P,U6,1,CC1*%
%TO.N,Net-(J2-CC1)*%
X113000000Y-105500000D03*
%TO.P,U6,2,VBUS*%
%TO.N,/HV*%
X113000000Y-106150000D03*
%TO.P,U6,3,VSET*%
%TO.N,Net-(U6-VSET)*%
X113000000Y-106800000D03*
%TO.P,U6,4,D+*%
%TO.N,unconnected-(U6-D+-Pad4)*%
X115055000Y-106800000D03*
%TO.P,U6,5,D-*%
%TO.N,unconnected-(U6-D--Pad5)*%
X115055000Y-106150000D03*
%TO.P,U6,6,CC2*%
%TO.N,Net-(J2-CC2)*%
X115055000Y-105500000D03*
D21*
%TO.P,U6,7,GND*%
%TO.N,GND*%
X114027500Y-106150000D03*
%TD*%
D13*
%TO.P,U4,1,VIN*%
%TO.N,/Battery*%
X159900300Y-107667500D03*
%TO.P,U4,2,GND*%
%TO.N,GND*%
X160849300Y-107667500D03*
%TO.P,U4,3,EN*%
%TO.N,/Battery*%
X161799300Y-107667500D03*
%TO.P,U4,4,NC*%
%TO.N,unconnected-(U4-NC-Pad4)*%
X161799300Y-105067500D03*
%TO.P,U4,5,VOUT*%
%TO.N,Net-(JP4-B)*%
X159900300Y-105067500D03*
%TD*%
D22*
%TO.P,U2,1,~{SLEEP}*%
%TO.N,/3V3 Out*%
X121000000Y-96850000D03*
%TO.P,U2,2,AOUT1*%
%TO.N,/MOTOR3_A_OUT*%
X121000000Y-97500000D03*
%TO.P,U2,3,AISEN*%
%TO.N,Net-(U2-AISEN)*%
X121000000Y-98150000D03*
%TO.P,U2,4,AOUT2*%
%TO.N,/MOTOR3_B_OUT*%
X121000000Y-98800000D03*
%TO.P,U2,5,BOUT2*%
X121000000Y-99450000D03*
%TO.P,U2,6,BISEN*%
%TO.N,Net-(U2-BISEN)*%
X121000000Y-100100000D03*
%TO.P,U2,7,BOUT1*%
%TO.N,/MOTOR3_A_OUT*%
X121000000Y-100750000D03*
%TO.P,U2,8,~{FAULT}*%
%TO.N,unconnected-(U2-~{FAULT}-Pad8)*%
X121000000Y-101400000D03*
%TO.P,U2,9,BIN1*%
%TO.N,/MOTOR4_CTRL1*%
X126725000Y-101400000D03*
%TO.P,U2,10,BIN2*%
%TO.N,/MOTOR4_CTRL2*%
X126725000Y-100750000D03*
%TO.P,U2,11,VCP*%
%TO.N,Net-(U2-VCP)*%
X126725000Y-100100000D03*
%TO.P,U2,12,VM*%
%TO.N,/Battery*%
X126725000Y-99450000D03*
%TO.P,U2,13,GND*%
%TO.N,GND*%
X126725000Y-98800000D03*
%TO.P,U2,14,VINT*%
%TO.N,Net-(U2-VINT)*%
X126725000Y-98150000D03*
%TO.P,U2,15,AIN2*%
%TO.N,/MOTOR3_CTRL2*%
X126725000Y-97500000D03*
%TO.P,U2,16,AIN1*%
%TO.N,/MOTOR3_CTRL1*%
X126725000Y-96850000D03*
%TD*%
%TO.P,U1,1,~{SLEEP}*%
%TO.N,/3V3 Out*%
X120500000Y-89850000D03*
%TO.P,U1,2,AOUT1*%
%TO.N,/MOTOR1_A_OUT*%
X120500000Y-90500000D03*
%TO.P,U1,3,AISEN*%
%TO.N,Net-(U1-AISEN)*%
X120500000Y-91150000D03*
%TO.P,U1,4,AOUT2*%
%TO.N,/MOTOR1_B_OUT*%
X120500000Y-91800000D03*
%TO.P,U1,5,BOUT2*%
%TO.N,/Motor2_B_OUT*%
X120500000Y-92450000D03*
%TO.P,U1,6,BISEN*%
%TO.N,Net-(U1-BISEN)*%
X120500000Y-93100000D03*
%TO.P,U1,7,BOUT1*%
%TO.N,/Motor2_A_OUT*%
X120500000Y-93750000D03*
%TO.P,U1,8,~{FAULT}*%
%TO.N,unconnected-(U1-~{FAULT}-Pad8)*%
X120500000Y-94400000D03*
%TO.P,U1,9,BIN1*%
%TO.N,/MOTOR2_CTRL1*%
X126225000Y-94400000D03*
%TO.P,U1,10,BIN2*%
%TO.N,/MOTOR2_CTRL2*%
X126225000Y-93750000D03*
%TO.P,U1,11,VCP*%
%TO.N,Net-(U1-VCP)*%
X126225000Y-93100000D03*
%TO.P,U1,12,VM*%
%TO.N,/Battery*%
X126225000Y-92450000D03*
%TO.P,U1,13,GND*%
%TO.N,GND*%
X126225000Y-91800000D03*
%TO.P,U1,14,VINT*%
%TO.N,Net-(U1-VINT)*%
X126225000Y-91150000D03*
%TO.P,U1,15,AIN2*%
%TO.N,/MOTOR1_CTRL2*%
X126225000Y-90500000D03*
%TO.P,U1,16,AIN1*%
%TO.N,/MOTOR1_CTRL1*%
X126225000Y-89850000D03*
%TD*%
D23*
%TO.P,TP12,1,1*%
%TO.N,Net-(JP4-B)*%
X164566800Y-86138200D03*
%TD*%
%TO.P,TP10,1,1*%
%TO.N,/EXT_LOAD2_OUT*%
X164566800Y-82088200D03*
%TD*%
%TO.P,TP9,1,1*%
%TO.N,Net-(U1-AISEN)*%
X164566800Y-78038200D03*
%TD*%
%TO.P,TP8,1,1*%
%TO.N,Net-(U2-AISEN)*%
X164566800Y-73988200D03*
%TD*%
%TO.P,TP7,1,1*%
%TO.N,/5V Out*%
X164566800Y-69938200D03*
%TD*%
%TO.P,TP6,1,1*%
%TO.N,Net-(JP3-B)*%
X160516800Y-86138200D03*
%TD*%
%TO.P,TP4,1,1*%
%TO.N,/5V*%
X160516800Y-82088200D03*
%TD*%
%TO.P,TP3,1,1*%
%TO.N,Net-(Q2-D)*%
X160516800Y-78038200D03*
%TD*%
%TO.P,TP2,1,1*%
%TO.N,/EXT_LOAD1_OUT*%
X160516800Y-73988200D03*
%TD*%
%TO.P,TP1,1,1*%
%TO.N,/IN-*%
X160516800Y-69938200D03*
%TD*%
D24*
%TO.P,SW1,*%
%TO.N,*%
X183000000Y-67500000D03*
X174800000Y-67500000D03*
D25*
%TO.P,SW1,1,A*%
%TO.N,/Battery*%
X180900000Y-67500000D03*
D26*
%TO.P,SW1,2,B*%
%TO.N,/IN-*%
X178900000Y-67500000D03*
%TO.P,SW1,3,C*%
%TO.N,unconnected-(SW1-C-Pad3)*%
X176900000Y-67500000D03*
%TD*%
D27*
%TO.P,R16,1*%
%TO.N,/I2C1_SCL*%
X168000000Y-86121000D03*
%TO.P,R16,2*%
%TO.N,/3V3 Out*%
X170958000Y-86121000D03*
%TD*%
%TO.P,R15,1*%
%TO.N,/I2C1_SDA*%
X168000000Y-82810500D03*
%TO.P,R15,2*%
%TO.N,/3V3 Out*%
X170958000Y-82810500D03*
%TD*%
D10*
%TO.P,R12,1*%
%TO.N,Net-(JP2-A)*%
X148212500Y-106800000D03*
%TO.P,R12,2*%
%TO.N,GND*%
X149027500Y-106800000D03*
%TD*%
D28*
%TO.P,R11,1*%
%TO.N,Net-(D2-A)*%
X113000000Y-101500000D03*
%TO.P,R11,2*%
%TO.N,Net-(C13-Pad1)*%
X115000000Y-101500000D03*
%TD*%
D29*
%TO.P,R9,1*%
%TO.N,/IN+*%
X136870800Y-109007700D03*
%TO.P,R9,2*%
%TO.N,/IN-*%
X143003800Y-109007700D03*
%TD*%
D10*
%TO.P,R8,1*%
%TO.N,Net-(Q2-D)*%
X148212500Y-105050000D03*
%TO.P,R8,2*%
%TO.N,Net-(JP1-A)*%
X149027500Y-105050000D03*
%TD*%
%TO.P,R6,1*%
%TO.N,Net-(D3-K)*%
X148212500Y-103300000D03*
%TO.P,R6,2*%
%TO.N,Net-(U8-~{STDBY})*%
X149027500Y-103300000D03*
%TD*%
%TO.P,R5,1*%
%TO.N,Net-(D1-K)*%
X148212500Y-101550000D03*
%TO.P,R5,2*%
%TO.N,Net-(U8-~{CHRG})*%
X149027500Y-101550000D03*
%TD*%
D27*
%TO.P,R4,1*%
%TO.N,GND*%
X168000000Y-79500000D03*
%TO.P,R4,2*%
%TO.N,Net-(U2-BISEN)*%
X170958000Y-79500000D03*
%TD*%
%TO.P,R3,1*%
%TO.N,GND*%
X168000000Y-76189500D03*
%TO.P,R3,2*%
%TO.N,Net-(U2-AISEN)*%
X170958000Y-76189500D03*
%TD*%
%TO.P,R2,1*%
%TO.N,GND*%
X168000000Y-72879000D03*
%TO.P,R2,2*%
%TO.N,Net-(U1-BISEN)*%
X170958000Y-72879000D03*
%TD*%
%TO.P,R1,1*%
%TO.N,GND*%
X168000000Y-69568500D03*
%TO.P,R1,2*%
%TO.N,Net-(U1-AISEN)*%
X170958000Y-69568500D03*
%TD*%
D30*
%TO.P,L1,1,1*%
%TO.N,/Battery*%
X113175000Y-95500000D03*
%TO.P,L1,2,2*%
%TO.N,Net-(D2-A)*%
X115500000Y-95500000D03*
%TD*%
D31*
%TO.P,JP4,1,A*%
%TO.N,/3V3 Out*%
X174277500Y-101390000D03*
%TO.P,JP4,2,B*%
%TO.N,Net-(JP4-B)*%
X175577500Y-101390000D03*
%TD*%
%TO.P,JP3,1,A*%
%TO.N,/5V*%
X174277500Y-97840000D03*
%TO.P,JP3,2,B*%
%TO.N,Net-(JP3-B)*%
X175577500Y-97840000D03*
%TD*%
%TO.P,JP2,1,A*%
%TO.N,Net-(JP2-A)*%
X174277500Y-94290000D03*
%TO.P,JP2,2,B*%
%TO.N,Net-(JP1-A)*%
X175577500Y-94290000D03*
%TD*%
%TO.P,JP1,1,A*%
%TO.N,Net-(JP1-A)*%
X174277500Y-90740000D03*
%TO.P,JP1,2,B*%
X175577500Y-90740000D03*
%TD*%
D32*
%TO.P,J3,1,Pin_1*%
%TO.N,GND*%
X116500000Y-73000000D03*
D33*
%TO.P,J3,2,Pin_2*%
%TO.N,/IN+*%
X114500000Y-73000000D03*
%TD*%
D34*
%TO.P,J2,A5,CC1*%
%TO.N,Net-(J2-CC1)*%
X136000000Y-72000000D03*
D35*
%TO.P,J2,A9,VBUS*%
%TO.N,/HV*%
X133980000Y-72000000D03*
D36*
%TO.P,J2,A12,GND*%
%TO.N,GND*%
X132750000Y-72000000D03*
D37*
%TO.P,J2,B5,CC2*%
%TO.N,Net-(J2-CC2)*%
X135000000Y-72000000D03*
D38*
%TO.P,J2,B9,VBUS*%
%TO.N,/HV*%
X137020000Y-72000000D03*
D39*
%TO.P,J2,B12,GND*%
%TO.N,GND*%
X138250000Y-72000000D03*
D40*
%TO.P,J2,S1,Shield*%
X139820000Y-71920000D03*
X139820000Y-68120000D03*
X131180000Y-71920000D03*
X131180000Y-68120000D03*
%TD*%
D41*
%TO.P,J1,1,Pin_1*%
%TO.N,/Motor2_B_OUT*%
X170280000Y-114000000D03*
D42*
%TO.P,J1,2,Pin_2*%
%TO.N,/Motor2_A_OUT*%
X170280000Y-116540000D03*
%TO.P,J1,3,Pin_3*%
%TO.N,/Motor4_A_OUT*%
X167740000Y-114000000D03*
%TO.P,J1,4,Pin_4*%
%TO.N,/MOTOR2_CTRL1*%
X167740000Y-116540000D03*
%TO.P,J1,5,Pin_5*%
%TO.N,/Motor4_B_OUT*%
X165200000Y-114000000D03*
%TO.P,J1,6,Pin_6*%
%TO.N,/MOTOR2_CTRL2*%
X165200000Y-116540000D03*
%TO.P,J1,7,Pin_7*%
%TO.N,/CTRL_EXT_LOAD2*%
X162660000Y-114000000D03*
%TO.P,J1,8,Pin_8*%
%TO.N,/MOTOR4_CTRL1*%
X162660000Y-116540000D03*
%TO.P,J1,9,Pin_9*%
%TO.N,/USART2_RX*%
X160120000Y-114000000D03*
%TO.P,J1,10,Pin_10*%
%TO.N,/MOTOR4_CTRL2*%
X160120000Y-116540000D03*
%TO.P,J1,11,Pin_11*%
%TO.N,/EXT_LOAD2_OUT*%
X157580000Y-114000000D03*
%TO.P,J1,12,Pin_12*%
%TO.N,/USART2_TX*%
X157580000Y-116540000D03*
%TO.P,J1,13,Pin_13*%
%TO.N,/FAST_CHARGE_CTRL*%
X155040000Y-114000000D03*
%TO.P,J1,14,Pin_14*%
%TO.N,/Battery*%
X155040000Y-116540000D03*
%TO.P,J1,15,Pin_15*%
%TO.N,unconnected-(J1-Pin_15-Pad15)*%
X152500000Y-114000000D03*
%TO.P,J1,16,Pin_16*%
%TO.N,/I2C1_SCL*%
X152500000Y-116540000D03*
%TO.P,J1,17,Pin_17*%
%TO.N,/I2C1_SDA*%
X149960000Y-114000000D03*
%TO.P,J1,18,Pin_18*%
%TO.N,/3V3 Out*%
X149960000Y-116540000D03*
%TO.P,J1,19,Pin_19*%
%TO.N,GND*%
X147420000Y-114000000D03*
%TO.P,J1,20,Pin_20*%
%TO.N,/5V Out*%
X147420000Y-116540000D03*
%TO.P,J1,21,Pin_21*%
%TO.N,/EXT_LOAD1_OUT*%
X144880000Y-114000000D03*
%TO.P,J1,22,Pin_22*%
%TO.N,/HV*%
X144880000Y-116540000D03*
%TO.P,J1,23,Pin_23*%
%TO.N,GND*%
X142340000Y-114000000D03*
%TO.P,J1,24,Pin_24*%
%TO.N,/MOTOR3_CTRL1*%
X142340000Y-116540000D03*
%TO.P,J1,25,Pin_25*%
%TO.N,/CTRL_EXT_LOAD1*%
X139800000Y-114000000D03*
%TO.P,J1,26,Pin_26*%
%TO.N,/MOTOR3_CTRL2*%
X139800000Y-116540000D03*
%TO.P,J1,27,Pin_27*%
%TO.N,/MOTOR3_A_OUT*%
X137260000Y-114000000D03*
%TO.P,J1,28,Pin_28*%
%TO.N,/MOTOR1_CTRL1*%
X137260000Y-116540000D03*
%TO.P,J1,29,Pin_29*%
%TO.N,/MOTOR3_B_OUT*%
X134720000Y-114000000D03*
%TO.P,J1,30,Pin_30*%
%TO.N,/MOTOR1_CTRL2*%
X134720000Y-116540000D03*
%TO.P,J1,31,Pin_31*%
%TO.N,/MOTOR1_B_OUT*%
X132180000Y-114000000D03*
%TO.P,J1,32,Pin_32*%
%TO.N,/MOTOR1_A_OUT*%
X132180000Y-116540000D03*
%TD*%
D43*
%TO.P,H3,1*%
%TO.N,GND*%
X150000000Y-91000000D03*
%TD*%
%TO.P,H2,1*%
%TO.N,GND*%
X150500000Y-81500000D03*
%TD*%
%TO.P,H1,1*%
%TO.N,GND*%
X150500000Y-72500000D03*
%TD*%
D44*
%TO.P,D2,1,K*%
%TO.N,/5V Out*%
X112500000Y-112000000D03*
%TO.P,D2,2,A*%
%TO.N,Net-(D2-A)*%
X116500000Y-112000000D03*
%TD*%
D45*
%TO.P,C17,1*%
%TO.N,Net-(JP4-B)*%
X169310000Y-96490000D03*
%TO.P,C17,2*%
%TO.N,GND*%
X171385000Y-96490000D03*
%TD*%
D10*
%TO.P,C16,1*%
%TO.N,Net-(JP3-B)*%
X148212500Y-99800000D03*
%TO.P,C16,2*%
%TO.N,GND*%
X149027500Y-99800000D03*
%TD*%
%TO.P,C15,1*%
%TO.N,/HV*%
X148212500Y-98050000D03*
%TO.P,C15,2*%
%TO.N,GND*%
X149027500Y-98050000D03*
%TD*%
D45*
%TO.P,C14,1*%
%TO.N,/Battery*%
X169310000Y-93480000D03*
%TO.P,C14,2*%
%TO.N,GND*%
X171385000Y-93480000D03*
%TD*%
%TO.P,C13,1*%
%TO.N,Net-(C13-Pad1)*%
X169310000Y-90470000D03*
%TO.P,C13,2*%
%TO.N,/5V Out*%
X171385000Y-90470000D03*
%TD*%
%TO.P,C12,1*%
%TO.N,GND*%
X164500000Y-102510000D03*
%TO.P,C12,2*%
%TO.N,/HV*%
X166575000Y-102510000D03*
%TD*%
%TO.P,C11,1*%
%TO.N,/5V Out*%
X164500000Y-99500000D03*
%TO.P,C11,2*%
%TO.N,GND*%
X166575000Y-99500000D03*
%TD*%
%TO.P,C8,1*%
%TO.N,/IN+*%
X164500000Y-96490000D03*
%TO.P,C8,2*%
%TO.N,GND*%
X166575000Y-96490000D03*
%TD*%
%TO.P,C7,1*%
%TO.N,/5V*%
X164500000Y-93480000D03*
%TO.P,C7,2*%
%TO.N,GND*%
X166575000Y-93480000D03*
%TD*%
%TO.P,C6,1*%
%TO.N,GND*%
X164500000Y-90470000D03*
%TO.P,C6,2*%
%TO.N,Net-(U2-VINT)*%
X166575000Y-90470000D03*
%TD*%
%TO.P,C5,1*%
%TO.N,/Battery*%
X159690000Y-102510000D03*
%TO.P,C5,2*%
%TO.N,GND*%
X161765000Y-102510000D03*
%TD*%
%TO.P,C4,1*%
%TO.N,/Battery*%
X159690000Y-99500000D03*
%TO.P,C4,2*%
%TO.N,Net-(U2-VCP)*%
X161765000Y-99500000D03*
%TD*%
%TO.P,C3,1*%
%TO.N,/Battery*%
X159690000Y-96490000D03*
%TO.P,C3,2*%
%TO.N,Net-(U1-VCP)*%
X161765000Y-96490000D03*
%TD*%
%TO.P,C2,1*%
%TO.N,GND*%
X159690000Y-93480000D03*
%TO.P,C2,2*%
%TO.N,Net-(U1-VINT)*%
X161765000Y-93480000D03*
%TD*%
%TO.P,C1,1*%
%TO.N,/Battery*%
X159690000Y-90470000D03*
%TO.P,C1,2*%
%TO.N,GND*%
X161765000Y-90470000D03*
%TD*%
D46*
%TO.N,/IN-*%
X161000000Y-66000000D03*
X141849000Y-108960000D03*
X141966000Y-69227800D03*
X141966000Y-85793100D03*
%TO.N,Net-(U6-VSET)*%
X135262000Y-103289000D03*
X132178000Y-78790800D03*
X117574400Y-102512000D03*
X118005500Y-105793200D03*
%TO.N,Net-(U2-BISEN)*%
X122366000Y-100100000D03*
X123488000Y-86297600D03*
X158609000Y-86462500D03*
X159889700Y-80568200D03*
%TO.N,Net-(U2-AISEN)*%
X162953000Y-75601700D03*
X135178000Y-100226000D03*
X137506300Y-75601700D03*
%TO.N,Net-(U1-BISEN)*%
X124093000Y-89739800D03*
X127926000Y-67904700D03*
X124370100Y-92325100D03*
%TO.N,Net-(U1-AISEN)*%
X169831000Y-69570300D03*
X119137800Y-76537500D03*
X119157300Y-90827800D03*
%TO.N,Net-(Q2-D)*%
X155854000Y-104513000D03*
X159797000Y-68520200D03*
%TO.N,Net-(JP2-A)*%
X172826000Y-92167600D03*
X148213000Y-106087000D03*
X148788200Y-111515600D03*
X161262500Y-110282000D03*
%TO.N,Net-(JP1-A)*%
X157097000Y-87551300D03*
X157291000Y-105194000D03*
X158194000Y-107465000D03*
X156925300Y-83981300D03*
%TO.N,Net-(J2-CC2)*%
X134700000Y-71158500D03*
X133045300Y-74438500D03*
X113635200Y-75404400D03*
X115288600Y-104836000D03*
%TO.N,Net-(J2-CC1)*%
X112125200Y-74188400D03*
X112125200Y-105366300D03*
%TO.N,/MOTOR1_CTRL2*%
X127540000Y-90500000D03*
%TO.N,/FAST_CHARGE_CTRL*%
X151644000Y-77174800D03*
X155040000Y-84397300D03*
%TO.N,/MOTOR3_B_OUT*%
X129333000Y-102288000D03*
%TO.N,/MOTOR3_CTRL1*%
X141090000Y-95669700D03*
%TO.N,/MOTOR2_CTRL2*%
X157050000Y-95303600D03*
%TO.N,/MOTOR1_B_OUT*%
X122974000Y-91800000D03*
%TO.N,/I2C1_SDA*%
X153838000Y-87280500D03*
X154426900Y-83379600D03*
%TO.N,/MOTOR4_CTRL2*%
X157671000Y-99562900D03*
%TO.N,/3V3 Out*%
X173427000Y-84390500D03*
X173254000Y-101300000D03*
X173254000Y-115352000D03*
X116648000Y-91804900D03*
X117512000Y-96234400D03*
X125060000Y-116282000D03*
X123587000Y-96850000D03*
X117316000Y-88500000D03*
%TO.N,/Motor2_A_OUT*%
X121543000Y-118112000D03*
X121741000Y-93750000D03*
%TO.N,/Motor2_B_OUT*%
X122828000Y-119101000D03*
X122974000Y-92944800D03*
%TO.N,/EXT_LOAD1_OUT*%
X158506000Y-108522000D03*
X144880000Y-111659400D03*
X152793700Y-108522000D03*
X153174700Y-74785800D03*
%TO.N,/CTRL_EXT_LOAD1*%
X174000000Y-106500000D03*
X167308400Y-105921700D03*
X167008800Y-109295000D03*
%TO.N,/MOTOR1_A_OUT*%
X123118000Y-90500000D03*
X123633500Y-93436300D03*
%TO.N,/EXT_LOAD2_OUT*%
X168040000Y-108727000D03*
%TO.N,/MOTOR4_CTRL1*%
X125742000Y-117510000D03*
X125467000Y-101220000D03*
%TO.N,/I2C1_SCL*%
X152800000Y-87389600D03*
%TO.N,/MOTOR3_CTRL2*%
X133636000Y-97432300D03*
X125395700Y-98413100D03*
%TO.N,/MOTOR2_CTRL1*%
X158439000Y-96067800D03*
%TO.N,/MOTOR3_A_OUT*%
X122145000Y-113408000D03*
X122357000Y-101394000D03*
%TO.N,/MOTOR1_CTRL1*%
X133035000Y-89948800D03*
X138422900Y-89899400D03*
%TO.N,Net-(D3-K)*%
X145175000Y-105209000D03*
X144126000Y-76551400D03*
X145175000Y-82069900D03*
%TO.N,Net-(D2-A)*%
X120296000Y-75067800D03*
X120296000Y-95511200D03*
X121701000Y-80878400D03*
X118748100Y-106529500D03*
%TO.N,Net-(D1-K)*%
X134489000Y-102552000D03*
X129314000Y-72857600D03*
X129920900Y-79768000D03*
%TO.N,Net-(JP4-B)*%
X167402000Y-98024900D03*
X167837100Y-102581800D03*
%TO.N,Net-(JP3-B)*%
X156249000Y-100277000D03*
X156256000Y-84619400D03*
X159993000Y-88630300D03*
X163722900Y-100807500D03*
%TO.N,Net-(C13-Pad1)*%
X121089000Y-87860100D03*
X119538000Y-101759000D03*
%TO.N,/HV*%
X147413000Y-98423100D03*
X111440000Y-83842900D03*
X111440000Y-106150000D03*
X146161000Y-112427000D03*
X149866000Y-103541000D03*
%TO.N,/5V Out*%
X170500000Y-100500000D03*
X170500000Y-102500000D03*
X170500000Y-103380000D03*
X170500000Y-103000000D03*
X171721000Y-91716900D03*
X171721000Y-101390000D03*
X158478000Y-80932200D03*
X149234000Y-112591000D03*
X149397000Y-105922000D03*
X169982000Y-104742000D03*
X158478000Y-85515600D03*
%TO.N,/IN+*%
X114597000Y-88391600D03*
X121095000Y-109020000D03*
X146811000Y-100735000D03*
X146811000Y-106532000D03*
%TO.N,/5V*%
X162859000Y-92976500D03*
X171112000Y-97840000D03*
X130334000Y-76526200D03*
X128716000Y-104316000D03*
X133507000Y-109386000D03*
X133507000Y-103973400D03*
X165673200Y-92401200D03*
X130821900Y-80760100D03*
%TO.N,Net-(U2-VINT)*%
X153344000Y-89232000D03*
X153344000Y-96673200D03*
%TO.N,GND*%
X135370000Y-74558400D03*
X145777000Y-107908000D03*
X150000000Y-101431000D03*
X128696000Y-98800000D03*
X129771000Y-104588000D03*
X115385000Y-91285800D03*
X116066000Y-103136000D03*
X115537500Y-83450000D03*
X163042100Y-102330600D03*
X164330200Y-106536600D03*
X150000000Y-98925000D03*
X135370000Y-91800000D03*
%TO.N,/Battery*%
X159069000Y-107939000D03*
X169821000Y-92241600D03*
X158730000Y-103470000D03*
X158730000Y-98516600D03*
X157794900Y-90470000D03*
X169821000Y-89006500D03*
X162987100Y-103139800D03*
%TD*%
D47*
%TO.N,GND*%
X163000000Y-107932550D02*
X163000000Y-106367600D01*
X161187050Y-108521000D02*
X162411550Y-108521000D01*
X162411550Y-108521000D02*
X163000000Y-107932550D01*
X160849300Y-107667500D02*
X160849300Y-108183250D01*
X163000000Y-106367600D02*
X150482900Y-106367600D01*
X160849300Y-108183250D02*
X161187050Y-108521000D01*
%TO.N,/IN-*%
X174219687Y-69551000D02*
X170668687Y-66000000D01*
X170668687Y-66000000D02*
X161000000Y-66000000D01*
X176849000Y-69551000D02*
X174219687Y-69551000D01*
X178900000Y-67500000D02*
X176849000Y-69551000D01*
X142013200Y-108960000D02*
X142060900Y-109007700D01*
X141849000Y-108960000D02*
X142013200Y-108960000D01*
X143003800Y-109007700D02*
X142060900Y-109007700D01*
X159806400Y-69227800D02*
X160516800Y-69938200D01*
X141966000Y-69227800D02*
X159806400Y-69227800D01*
X112568800Y-89150000D02*
X113300000Y-89150000D01*
X112199400Y-88780600D02*
X112568800Y-89150000D01*
X112199400Y-88226800D02*
X112199400Y-88780600D01*
X113175000Y-87251200D02*
X112199400Y-88226800D01*
X140507900Y-87251200D02*
X113175000Y-87251200D01*
X141966000Y-85793100D02*
X140507900Y-87251200D01*
%TO.N,Net-(U6-VSET)*%
X132914200Y-78790800D02*
X132178000Y-78790800D01*
X134025000Y-77680000D02*
X132914200Y-78790800D01*
X113000000Y-106939000D02*
X113000000Y-106800000D01*
X113362700Y-107301700D02*
X113000000Y-106939000D01*
X116497000Y-107301700D02*
X113362700Y-107301700D01*
X118005500Y-105793200D02*
X116497000Y-107301700D01*
X117609900Y-102547500D02*
X117574400Y-102512000D01*
X124794500Y-102547500D02*
X117609900Y-102547500D01*
X125536000Y-103289000D02*
X124794500Y-102547500D01*
X135262000Y-103289000D02*
X125536000Y-103289000D01*
%TO.N,Net-(U8-~{STDBY})*%
X135260200Y-106835000D02*
X126275000Y-106835000D01*
X136130000Y-105965200D02*
X135260200Y-106835000D01*
X145419000Y-105965200D02*
X136130000Y-105965200D01*
X146836300Y-104547900D02*
X145419000Y-105965200D01*
X147861400Y-104547900D02*
X146836300Y-104547900D01*
X149027500Y-103381800D02*
X147861400Y-104547900D01*
X149027500Y-103300000D02*
X149027500Y-103381800D01*
%TO.N,Net-(U8-~{CHRG})*%
X149027500Y-101655200D02*
X149027500Y-101550000D01*
X148630600Y-102052100D02*
X149027500Y-101655200D01*
X137727300Y-102052100D02*
X148630600Y-102052100D01*
X134214400Y-105565000D02*
X137727300Y-102052100D01*
X126275000Y-105565000D02*
X134214400Y-105565000D01*
%TO.N,Net-(U2-BISEN)*%
X122366000Y-100100000D02*
X121000000Y-100100000D01*
X157664100Y-86462500D02*
X158609000Y-86462500D01*
X157118900Y-85917300D02*
X157664100Y-86462500D01*
X144492700Y-85917300D02*
X157118900Y-85917300D01*
X143122500Y-84547100D02*
X144492700Y-85917300D01*
X139666200Y-84547100D02*
X143122500Y-84547100D01*
X137915700Y-86297600D02*
X139666200Y-84547100D01*
X123488000Y-86297600D02*
X137915700Y-86297600D01*
X170958000Y-79500000D02*
X170052600Y-79500000D01*
X159973700Y-80652200D02*
X159889700Y-80568200D01*
X168900400Y-80652200D02*
X159973700Y-80652200D01*
X170052600Y-79500000D02*
X168900400Y-80652200D01*
%TO.N,Net-(U2-AISEN)*%
X167894300Y-74031200D02*
X170052600Y-76189500D01*
X164609800Y-74031200D02*
X167894300Y-74031200D01*
X164566800Y-73988200D02*
X164609800Y-74031200D01*
X170958000Y-76189500D02*
X170052600Y-76189500D01*
X137506300Y-75601700D02*
X162953000Y-75601700D01*
X130132600Y-100226000D02*
X135178000Y-100226000D01*
X128449900Y-101908700D02*
X130132600Y-100226000D01*
X125291700Y-101908700D02*
X128449900Y-101908700D01*
X123557900Y-100174900D02*
X125291700Y-101908700D01*
X123557900Y-99804000D02*
X123557900Y-100174900D01*
X121903900Y-98150000D02*
X123557900Y-99804000D01*
X121000000Y-98150000D02*
X121903900Y-98150000D01*
%TO.N,Net-(U1-BISEN)*%
X124370100Y-93575800D02*
X124370100Y-92325100D01*
X123903800Y-94042100D02*
X124370100Y-93575800D01*
X123220400Y-94042100D02*
X123903800Y-94042100D01*
X122278300Y-93100000D02*
X123220400Y-94042100D01*
X120500000Y-93100000D02*
X122278300Y-93100000D01*
X168925900Y-71752300D02*
X170052600Y-72879000D01*
X168925900Y-68554000D02*
X168925900Y-71752300D01*
X167340200Y-66968300D02*
X168925900Y-68554000D01*
X128862400Y-66968300D02*
X167340200Y-66968300D01*
X127926000Y-67904700D02*
X128862400Y-66968300D01*
X170958000Y-72879000D02*
X170052600Y-72879000D01*
%TO.N,Net-(U1-AISEN)*%
X170050800Y-69570300D02*
X170052600Y-69568500D01*
X169831000Y-69570300D02*
X170050800Y-69570300D01*
X170958000Y-69568500D02*
X170052600Y-69568500D01*
X119479500Y-91150000D02*
X120500000Y-91150000D01*
X119157300Y-90827800D02*
X119479500Y-91150000D01*
X129471800Y-76537500D02*
X119137800Y-76537500D01*
X130084800Y-75924500D02*
X129471800Y-76537500D01*
X131725300Y-75924500D02*
X130084800Y-75924500D01*
X132300600Y-76499800D02*
X131725300Y-75924500D01*
X138418100Y-76499800D02*
X132300600Y-76499800D01*
X139089200Y-77170900D02*
X138418100Y-76499800D01*
X144461800Y-77170900D02*
X139089200Y-77170900D01*
X145067500Y-76565200D02*
X144461800Y-77170900D01*
X163093800Y-76565200D02*
X145067500Y-76565200D01*
X164566800Y-78038200D02*
X163093800Y-76565200D01*
%TO.N,Net-(Q2-D)*%
X148638800Y-104513000D02*
X155854000Y-104513000D01*
X148212500Y-104939300D02*
X148638800Y-104513000D01*
X148212500Y-105050000D02*
X148212500Y-104939300D01*
X160350900Y-77872300D02*
X160516800Y-78038200D01*
X135702300Y-77872300D02*
X160350900Y-77872300D01*
X134731500Y-76901500D02*
X135702300Y-77872300D01*
X131327600Y-76901500D02*
X134731500Y-76901500D01*
X131026000Y-77203100D02*
X131327600Y-76901500D01*
X127896900Y-77203100D02*
X131026000Y-77203100D01*
X127225000Y-77875000D02*
X127896900Y-77203100D01*
%TO.N,Net-(JP2-A)*%
X173896700Y-93238300D02*
X174277500Y-93238300D01*
X172826000Y-92167600D02*
X173896700Y-93238300D01*
X174277500Y-94290000D02*
X174277500Y-93238300D01*
X148212500Y-106087500D02*
X148212500Y-106800000D01*
X148213000Y-106087000D02*
X148212500Y-106087500D01*
X150021800Y-110282000D02*
X161262500Y-110282000D01*
X148788200Y-111515600D02*
X150021800Y-110282000D01*
%TO.N,Net-(JP1-A)*%
X149171500Y-105194000D02*
X149027500Y-105050000D01*
X157291000Y-105194000D02*
X149171500Y-105194000D01*
X175577500Y-90740000D02*
X175577500Y-94290000D01*
X120926300Y-105565000D02*
X121325000Y-105565000D01*
X120017800Y-106473500D02*
X120926300Y-105565000D01*
X120017800Y-109486000D02*
X120017800Y-106473500D01*
X121569200Y-111037400D02*
X120017800Y-109486000D01*
X146744200Y-111037400D02*
X121569200Y-111037400D01*
X150316600Y-107465000D02*
X146744200Y-111037400D01*
X158194000Y-107465000D02*
X150316600Y-107465000D01*
X175577500Y-90740000D02*
X174277500Y-90740000D01*
X168334800Y-83981300D02*
X156925300Y-83981300D01*
X169694700Y-85341200D02*
X168334800Y-83981300D01*
X169694700Y-86745400D02*
X169694700Y-85341200D01*
X170427500Y-87478200D02*
X169694700Y-86745400D01*
X170537800Y-87478200D02*
X170427500Y-87478200D01*
X173475800Y-90416200D02*
X170537800Y-87478200D01*
X173475800Y-90740000D02*
X173475800Y-90416200D01*
X174277500Y-90740000D02*
X173475800Y-90740000D01*
%TO.N,Net-(J2-CC2)*%
X135000000Y-71458500D02*
X135000000Y-72000000D01*
X134700000Y-71158500D02*
X135000000Y-71458500D01*
X115055000Y-105069600D02*
X115055000Y-105500000D01*
X115288600Y-104836000D02*
X115055000Y-105069600D01*
X118880000Y-75404400D02*
X113635200Y-75404400D01*
X119845900Y-74438500D02*
X118880000Y-75404400D01*
X133045300Y-74438500D02*
X119845900Y-74438500D01*
%TO.N,Net-(J2-CC1)*%
X112866300Y-105366300D02*
X113000000Y-105500000D01*
X112125200Y-105366300D02*
X112866300Y-105366300D01*
X119327800Y-74188400D02*
X112125200Y-74188400D01*
X119690900Y-73825300D02*
X119327800Y-74188400D01*
X134449900Y-73825300D02*
X119690900Y-73825300D01*
X136000000Y-72275200D02*
X134449900Y-73825300D01*
X136000000Y-72000000D02*
X136000000Y-72275200D01*
%TO.N,/MOTOR1_CTRL2*%
X127540000Y-90500000D02*
X126225000Y-90500000D01*
%TO.N,/FAST_CHARGE_CTRL*%
X154817900Y-84619400D02*
X155040000Y-84397300D01*
X147243200Y-84619400D02*
X154817900Y-84619400D01*
X145750700Y-83126900D02*
X147243200Y-84619400D01*
X132303600Y-83126900D02*
X145750700Y-83126900D01*
X128951700Y-79775000D02*
X132303600Y-83126900D01*
X127225000Y-79775000D02*
X128951700Y-79775000D01*
%TO.N,/MOTOR3_B_OUT*%
X121650000Y-98800000D02*
X121967700Y-98800000D01*
X121000000Y-99450000D02*
X121650000Y-98800000D01*
X121967700Y-98800000D02*
X121000000Y-98800000D01*
X123156200Y-99988500D02*
X121967700Y-98800000D01*
X123156200Y-100343400D02*
X123156200Y-99988500D01*
X124958600Y-102145800D02*
X123156200Y-100343400D01*
X124960800Y-102145800D02*
X124958600Y-102145800D01*
X125162000Y-102347000D02*
X124960800Y-102145800D01*
X129274000Y-102347000D02*
X125162000Y-102347000D01*
X129333000Y-102288000D02*
X129274000Y-102347000D01*
%TO.N,/MOTOR3_CTRL1*%
X127905300Y-95669700D02*
X126725000Y-96850000D01*
X141090000Y-95669700D02*
X127905300Y-95669700D01*
%TO.N,/MOTOR2_CTRL2*%
X141751500Y-93750000D02*
X126225000Y-93750000D01*
X143305100Y-95303600D02*
X141751500Y-93750000D01*
X157050000Y-95303600D02*
X143305100Y-95303600D01*
%TO.N,/MOTOR1_B_OUT*%
X122974000Y-91800000D02*
X120500000Y-91800000D01*
%TO.N,/I2C1_SDA*%
X168000000Y-82810500D02*
X167094600Y-82810500D01*
X157174500Y-83379600D02*
X154426900Y-83379600D01*
X157206300Y-83411400D02*
X157174500Y-83379600D01*
X166493700Y-83411400D02*
X157206300Y-83411400D01*
X167094600Y-82810500D02*
X166493700Y-83411400D01*
X118188300Y-89810000D02*
X116000000Y-89810000D01*
X119262000Y-88736300D02*
X118188300Y-89810000D01*
X142323000Y-88736300D02*
X119262000Y-88736300D01*
X144315800Y-86743500D02*
X142323000Y-88736300D01*
X153301000Y-86743500D02*
X144315800Y-86743500D01*
X153838000Y-87280500D02*
X153301000Y-86743500D01*
%TO.N,/MOTOR4_CTRL2*%
X152726900Y-99562900D02*
X157671000Y-99562900D01*
X150670400Y-97506400D02*
X152726900Y-99562900D01*
X137188100Y-97506400D02*
X150670400Y-97506400D01*
X135268200Y-99426300D02*
X137188100Y-97506400D01*
X130364300Y-99426300D02*
X135268200Y-99426300D01*
X129288900Y-100501700D02*
X130364300Y-99426300D01*
X128720900Y-100501700D02*
X129288900Y-100501700D01*
X128472600Y-100750000D02*
X128720900Y-100501700D01*
X126725000Y-100750000D02*
X128472600Y-100750000D01*
%TO.N,/3V3 Out*%
X117316000Y-88500000D02*
X116000000Y-88500000D01*
X173385800Y-101300000D02*
X173475800Y-101390000D01*
X173254000Y-101300000D02*
X173385800Y-101300000D01*
X174277500Y-101390000D02*
X173475800Y-101390000D01*
X171863500Y-82827000D02*
X171863500Y-82810500D01*
X173427000Y-84390500D02*
X171863500Y-82827000D01*
X170958000Y-82810500D02*
X171863500Y-82810500D01*
X171863500Y-85954000D02*
X171863500Y-86121000D01*
X173427000Y-84390500D02*
X171863500Y-85954000D01*
X170958000Y-86121000D02*
X171863500Y-86121000D01*
X151111700Y-116271500D02*
X151111700Y-116540000D01*
X152031200Y-115352000D02*
X151111700Y-116271500D01*
X173254000Y-115352000D02*
X152031200Y-115352000D01*
X123587000Y-96850000D02*
X121000000Y-96850000D01*
X120384400Y-96234400D02*
X117512000Y-96234400D01*
X121000000Y-96850000D02*
X120384400Y-96234400D01*
X116549500Y-91903400D02*
X116648000Y-91804900D01*
X114743400Y-91903400D02*
X116549500Y-91903400D01*
X113300000Y-90460000D02*
X114743400Y-91903400D01*
X150535900Y-116540000D02*
X151111700Y-116540000D01*
X150535900Y-116540000D02*
X149960000Y-116540000D01*
X149960000Y-116540000D02*
X148808300Y-116540000D01*
X129728800Y-116282000D02*
X125060000Y-116282000D01*
X131180700Y-117733900D02*
X129728800Y-116282000D01*
X147916000Y-117733900D02*
X131180700Y-117733900D01*
X148808300Y-116841600D02*
X147916000Y-117733900D01*
X148808300Y-116540000D02*
X148808300Y-116841600D01*
X117469300Y-91804900D02*
X116648000Y-91804900D01*
X118555600Y-90718600D02*
X117469300Y-91804900D01*
X118555600Y-90578700D02*
X118555600Y-90718600D01*
X118908200Y-90226100D02*
X118555600Y-90578700D01*
X119467700Y-90226100D02*
X118908200Y-90226100D01*
X119843800Y-89850000D02*
X119467700Y-90226100D01*
X120500000Y-89850000D02*
X119843800Y-89850000D01*
%TO.N,/Motor2_A_OUT*%
X121741000Y-93750000D02*
X120500000Y-93750000D01*
X170280000Y-116540000D02*
X169128300Y-116540000D01*
X121583000Y-118152000D02*
X121543000Y-118112000D01*
X130262600Y-118152000D02*
X121583000Y-118152000D01*
X130649400Y-118538800D02*
X130262600Y-118152000D01*
X167417400Y-118538800D02*
X130649400Y-118538800D01*
X169128300Y-116827900D02*
X167417400Y-118538800D01*
X169128300Y-116540000D02*
X169128300Y-116827900D01*
%TO.N,/Motor2_B_OUT*%
X122479200Y-92450000D02*
X120500000Y-92450000D01*
X122974000Y-92944800D02*
X122479200Y-92450000D01*
X170401600Y-119101000D02*
X122828000Y-119101000D01*
X173867500Y-115635100D02*
X170401600Y-119101000D01*
X173867500Y-115069300D02*
X173867500Y-115635100D01*
X172798200Y-114000000D02*
X173867500Y-115069300D01*
X170280000Y-114000000D02*
X172798200Y-114000000D01*
D48*
%TO.N,/EXT_LOAD1_OUT*%
X164466500Y-107667500D02*
X164466500Y-108521700D01*
X164064800Y-108923400D02*
X164466500Y-108521700D01*
X158907400Y-108923400D02*
X164064800Y-108923400D01*
X158506000Y-108522000D02*
X158907400Y-108923400D01*
X158506000Y-108522000D02*
X152793700Y-108522000D01*
X146972900Y-111659400D02*
X144880000Y-111659400D01*
X150110300Y-108522000D02*
X146972900Y-111659400D01*
X152793700Y-108522000D02*
X150110300Y-108522000D01*
D47*
X159719200Y-74785800D02*
X153174700Y-74785800D01*
X160516800Y-73988200D02*
X159719200Y-74785800D01*
%TO.N,/CTRL_EXT_LOAD1*%
X166365500Y-105067500D02*
X166365500Y-105921700D01*
X139800000Y-114000000D02*
X140951700Y-114000000D01*
X173421700Y-105921700D02*
X167308400Y-105921700D01*
X174000000Y-106500000D02*
X173421700Y-105921700D01*
X167308400Y-105921700D02*
X166365500Y-105921700D01*
X140951700Y-113731500D02*
X140951700Y-114000000D01*
X141872000Y-112811200D02*
X140951700Y-113731500D01*
X145320000Y-112811200D02*
X141872000Y-112811200D01*
X145591100Y-113082300D02*
X145320000Y-112811200D01*
X146370700Y-113082300D02*
X145591100Y-113082300D01*
X149976200Y-109476800D02*
X146370700Y-113082300D01*
X166827000Y-109476800D02*
X149976200Y-109476800D01*
X167008800Y-109295000D02*
X166827000Y-109476800D01*
%TO.N,/MOTOR1_A_OUT*%
X123633500Y-91015500D02*
X123118000Y-90500000D01*
X123633500Y-93436300D02*
X123633500Y-91015500D01*
X123118000Y-90500000D02*
X120500000Y-90500000D01*
D48*
%TO.N,/EXT_LOAD2_OUT*%
X169032800Y-107667500D02*
X169032800Y-108521700D01*
X168245300Y-108521700D02*
X168040000Y-108727000D01*
X169032800Y-108521700D02*
X168245300Y-108521700D01*
X157580000Y-114000000D02*
X158731700Y-114000000D01*
X168040000Y-109114700D02*
X168040000Y-108727000D01*
X167258000Y-109896700D02*
X168040000Y-109114700D01*
X162566500Y-109896700D02*
X167258000Y-109896700D01*
X158731700Y-113731500D02*
X162566500Y-109896700D01*
X158731700Y-114000000D02*
X158731700Y-113731500D01*
D47*
%TO.N,/MOTOR4_CTRL1*%
X125647000Y-101400000D02*
X126725000Y-101400000D01*
X125467000Y-101220000D02*
X125647000Y-101400000D01*
X162660000Y-116540000D02*
X161508300Y-116540000D01*
X130188600Y-117510000D02*
X125742000Y-117510000D01*
X130815700Y-118137100D02*
X130188600Y-117510000D01*
X160199100Y-118137100D02*
X130815700Y-118137100D01*
X161508300Y-116827900D02*
X160199100Y-118137100D01*
X161508300Y-116540000D02*
X161508300Y-116827900D01*
%TO.N,/I2C1_SCL*%
X154642400Y-89232000D02*
X152800000Y-87389600D01*
X160242300Y-89232000D02*
X154642400Y-89232000D01*
X160594700Y-88879600D02*
X160242300Y-89232000D01*
X160594700Y-88754900D02*
X160594700Y-88879600D01*
X160957200Y-88392400D02*
X160594700Y-88754900D01*
X164823200Y-88392400D02*
X160957200Y-88392400D01*
X167094600Y-86121000D02*
X164823200Y-88392400D01*
X168000000Y-86121000D02*
X167094600Y-86121000D01*
X118106300Y-90460000D02*
X116000000Y-90460000D01*
X118741900Y-89824400D02*
X118106300Y-90460000D01*
X119180800Y-89824400D02*
X118741900Y-89824400D01*
X119867100Y-89138100D02*
X119180800Y-89824400D01*
X147475500Y-89138100D02*
X119867100Y-89138100D01*
X149224000Y-87389600D02*
X147475500Y-89138100D01*
X152800000Y-87389600D02*
X149224000Y-87389600D01*
%TO.N,/CTRL_EXT_LOAD2*%
X163811700Y-113731500D02*
X163811700Y-114000000D01*
X165097100Y-112446100D02*
X163811700Y-113731500D01*
X168980500Y-112446100D02*
X165097100Y-112446100D01*
X174633700Y-106792900D02*
X168980500Y-112446100D01*
X174633700Y-106264200D02*
X174633700Y-106792900D01*
X173437000Y-105067500D02*
X174633700Y-106264200D01*
X170931800Y-105067500D02*
X173437000Y-105067500D01*
X162660000Y-114000000D02*
X163811700Y-114000000D01*
%TO.N,/MOTOR3_CTRL2*%
X126792700Y-97432300D02*
X126725000Y-97500000D01*
X133636000Y-97432300D02*
X126792700Y-97432300D01*
X125395700Y-98167200D02*
X125395700Y-98413100D01*
X126062900Y-97500000D02*
X125395700Y-98167200D01*
X126725000Y-97500000D02*
X126062900Y-97500000D01*
%TO.N,/MOTOR2_CTRL1*%
X140775700Y-94400000D02*
X126225000Y-94400000D01*
X142259600Y-95883900D02*
X140775700Y-94400000D01*
X151537300Y-95883900D02*
X142259600Y-95883900D01*
X151721200Y-96067800D02*
X151537300Y-95883900D01*
X158439000Y-96067800D02*
X151721200Y-96067800D01*
%TO.N,/MOTOR3_A_OUT*%
X137260000Y-114000000D02*
X136108300Y-114000000D01*
X121713000Y-100750000D02*
X121000000Y-100750000D01*
X122357000Y-101394000D02*
X121713000Y-100750000D01*
X120333100Y-97500000D02*
X121000000Y-97500000D01*
X119909700Y-97923400D02*
X120333100Y-97500000D01*
X119909700Y-100318500D02*
X119909700Y-97923400D01*
X120341200Y-100750000D02*
X119909700Y-100318500D01*
X121000000Y-100750000D02*
X120341200Y-100750000D01*
X136108300Y-113712100D02*
X136108300Y-114000000D01*
X135198700Y-112802500D02*
X136108300Y-113712100D01*
X122750500Y-112802500D02*
X135198700Y-112802500D01*
X122145000Y-113408000D02*
X122750500Y-112802500D01*
%TO.N,/MOTOR1_CTRL1*%
X133035000Y-89948800D02*
X133035000Y-89899400D01*
X132985600Y-89850000D02*
X133035000Y-89899400D01*
X126225000Y-89850000D02*
X132985600Y-89850000D01*
X133035000Y-89899400D02*
X138422900Y-89899400D01*
%TO.N,Net-(D3-K)*%
X147084000Y-103300000D02*
X148212500Y-103300000D01*
X145175000Y-105209000D02*
X147084000Y-103300000D01*
X132165000Y-81663500D02*
X132165000Y-81560000D01*
X132571400Y-82069900D02*
X132165000Y-81663500D01*
X145175000Y-82069900D02*
X132571400Y-82069900D01*
%TO.N,Net-(D2-A)*%
X115511200Y-95511200D02*
X115500000Y-95500000D01*
X120296000Y-95511200D02*
X115511200Y-95511200D01*
X115500000Y-99000000D02*
X115500000Y-95500000D01*
X113000000Y-101500000D02*
X115500000Y-99000000D01*
X123322600Y-82500000D02*
X127225000Y-82500000D01*
X121701000Y-80878400D02*
X123322600Y-82500000D01*
X118748100Y-109751900D02*
X116500000Y-112000000D01*
X118748100Y-106529500D02*
X118748100Y-109751900D01*
%TO.N,Net-(D1-K)*%
X135491000Y-101550000D02*
X134489000Y-102552000D01*
X148212500Y-101550000D02*
X135491000Y-101550000D01*
X132123000Y-79768000D02*
X129920900Y-79768000D01*
X132165000Y-79810000D02*
X132123000Y-79768000D01*
%TO.N,Net-(JP4-B)*%
X174629200Y-99390000D02*
X175577500Y-100338300D01*
X171730300Y-99390000D02*
X174629200Y-99390000D01*
X169070200Y-96729800D02*
X171730300Y-99390000D01*
X167775100Y-98024900D02*
X169070200Y-96729800D01*
X167402000Y-98024900D02*
X167775100Y-98024900D01*
X169070200Y-96729800D02*
X169310000Y-96490000D01*
X175577500Y-101140000D02*
X175577500Y-100338300D01*
X175577500Y-101140000D02*
X175577500Y-101390000D01*
X159900300Y-105067500D02*
X159900300Y-104213300D01*
X167837100Y-102841900D02*
X167837100Y-102581800D01*
X167141300Y-103537700D02*
X167837100Y-102841900D01*
X165066300Y-103537700D02*
X167141300Y-103537700D01*
X164390700Y-104213300D02*
X165066300Y-103537700D01*
X159900300Y-104213300D02*
X164390700Y-104213300D01*
%TO.N,Net-(JP3-B)*%
X148212500Y-99878900D02*
X148212500Y-99800000D01*
X148664500Y-100330900D02*
X148212500Y-99878900D01*
X156195100Y-100330900D02*
X148664500Y-100330900D01*
X156249000Y-100277000D02*
X156195100Y-100330900D01*
X158998000Y-84619400D02*
X160516800Y-86138200D01*
X156256000Y-84619400D02*
X158998000Y-84619400D01*
X163876000Y-100960600D02*
X163722900Y-100807500D01*
X165591500Y-100960600D02*
X163876000Y-100960600D01*
X165863500Y-101232600D02*
X165591500Y-100960600D01*
X170633900Y-101232600D02*
X165863500Y-101232600D01*
X171133900Y-100732600D02*
X170633900Y-101232600D01*
X171999500Y-100732600D02*
X171133900Y-100732600D01*
X172466500Y-101199600D02*
X171999500Y-100732600D01*
X172466500Y-101402500D02*
X172466500Y-101199600D01*
X173540700Y-102476700D02*
X172466500Y-101402500D01*
X176230700Y-102476700D02*
X173540700Y-102476700D01*
X176379200Y-102328200D02*
X176230700Y-102476700D01*
X176379200Y-97840000D02*
X176379200Y-102328200D01*
X175577500Y-97840000D02*
X176379200Y-97840000D01*
X155854300Y-85021100D02*
X156256000Y-84619400D01*
X145506300Y-85021100D02*
X155854300Y-85021100D01*
X144228900Y-83743700D02*
X145506300Y-85021100D01*
X132210600Y-83743700D02*
X144228900Y-83743700D01*
X130278300Y-81811400D02*
X132210600Y-83743700D01*
X127466200Y-81811400D02*
X130278300Y-81811400D01*
X125654800Y-80000000D02*
X127466200Y-81811400D01*
X113500000Y-80000000D02*
X125654800Y-80000000D01*
%TO.N,Net-(C13-Pad1)*%
X170427500Y-89352500D02*
X169310000Y-90470000D01*
X170427500Y-88046200D02*
X170427500Y-89352500D01*
X169293000Y-86911700D02*
X170427500Y-88046200D01*
X169293000Y-85531100D02*
X169293000Y-86911700D01*
X168684100Y-84922200D02*
X169293000Y-85531100D01*
X167257300Y-84922200D02*
X168684100Y-84922200D01*
X165944800Y-86234700D02*
X167257300Y-84922200D01*
X165944800Y-86601200D02*
X165944800Y-86234700D01*
X165063300Y-87482700D02*
X165944800Y-86601200D01*
X157916300Y-87482700D02*
X165063300Y-87482700D01*
X156752600Y-86319000D02*
X157916300Y-87482700D01*
X144101600Y-86319000D02*
X156752600Y-86319000D01*
X142560500Y-87860100D02*
X144101600Y-86319000D01*
X121089000Y-87860100D02*
X142560500Y-87860100D01*
X115259000Y-101759000D02*
X115000000Y-101500000D01*
X119538000Y-101759000D02*
X115259000Y-101759000D01*
%TO.N,/HV*%
X147839400Y-98423100D02*
X148212500Y-98050000D01*
X147413000Y-98423100D02*
X147839400Y-98423100D01*
X133980000Y-71016700D02*
X133980000Y-72000000D01*
X134447700Y-70549000D02*
X133980000Y-71016700D01*
X135851700Y-70549000D02*
X134447700Y-70549000D01*
X137020000Y-71717300D02*
X135851700Y-70549000D01*
X137020000Y-72000000D02*
X137020000Y-71717300D01*
X111440000Y-83842900D02*
X112841700Y-82441200D01*
X113400400Y-83000000D02*
X112841700Y-82441200D01*
X113500000Y-83000000D02*
X113400400Y-83000000D01*
X113000000Y-106150000D02*
X112317900Y-106150000D01*
X112317900Y-106150000D02*
X111440000Y-106150000D01*
X112317900Y-107040700D02*
X112317900Y-106150000D01*
X114500000Y-109222800D02*
X112317900Y-107040700D01*
X114500000Y-112493800D02*
X114500000Y-109222800D01*
X115229400Y-113223200D02*
X114500000Y-112493800D01*
X120174500Y-113223200D02*
X115229400Y-113223200D01*
X121026800Y-112370900D02*
X120174500Y-113223200D01*
X146104900Y-112370900D02*
X121026800Y-112370900D01*
X146161000Y-112427000D02*
X146104900Y-112370900D01*
X151974500Y-101432500D02*
X149866000Y-103541000D01*
X165495400Y-101432500D02*
X151974500Y-101432500D01*
X166572900Y-102510000D02*
X165495400Y-101432500D01*
X166575000Y-102510000D02*
X166572900Y-102510000D01*
X112505300Y-82104900D02*
X112841700Y-82441200D01*
X112505300Y-81119100D02*
X112505300Y-82104900D01*
X112103600Y-80717400D02*
X112505300Y-81119100D01*
X112103600Y-79367400D02*
X112103600Y-80717400D01*
X113192300Y-78278700D02*
X112103600Y-79367400D01*
X113760300Y-78278700D02*
X113192300Y-78278700D01*
X116114500Y-75924500D02*
X113760300Y-78278700D01*
X129365800Y-75924500D02*
X116114500Y-75924500D01*
X129767500Y-75522800D02*
X129365800Y-75924500D01*
X133435200Y-75522800D02*
X129767500Y-75522800D01*
X135655400Y-73302600D02*
X133435200Y-75522800D01*
X135690800Y-73302600D02*
X135655400Y-73302600D01*
X135720800Y-73272600D02*
X135690800Y-73302600D01*
X136040200Y-73272600D02*
X135720800Y-73272600D01*
X137020000Y-72292800D02*
X136040200Y-73272600D01*
X137020000Y-72000000D02*
X137020000Y-72292800D01*
%TO.N,/5V Out*%
X169032800Y-105067500D02*
X169032800Y-104213300D01*
X146268300Y-116271500D02*
X146268300Y-116540000D01*
X145206800Y-115210000D02*
X146268300Y-116271500D01*
X115710000Y-115210000D02*
X145206800Y-115210000D01*
X112500000Y-112000000D02*
X115710000Y-115210000D01*
X147420000Y-116540000D02*
X146268300Y-116540000D01*
X164466200Y-105922000D02*
X164466500Y-105921700D01*
X149397000Y-105922000D02*
X164466200Y-105922000D01*
X164466500Y-105067500D02*
X164466500Y-105494600D01*
X164466500Y-105494600D02*
X164466500Y-105921700D01*
X171721000Y-90806000D02*
X171385000Y-90470000D01*
X171721000Y-91716900D02*
X171721000Y-90806000D01*
X165558900Y-100558900D02*
X164500000Y-99500000D01*
X170441100Y-100558900D02*
X165558900Y-100558900D01*
X170500000Y-100500000D02*
X170441100Y-100558900D01*
X165747800Y-104213300D02*
X169032800Y-104213300D01*
X164466500Y-105494600D02*
X165747800Y-104213300D01*
X169982000Y-104609700D02*
X169982000Y-104742000D01*
X169585600Y-104213300D02*
X169982000Y-104609700D01*
X169032800Y-104213300D02*
X169585600Y-104213300D01*
X145432800Y-85515600D02*
X158478000Y-85515600D01*
X145032600Y-85115400D02*
X145432800Y-85515600D01*
X144258800Y-85115400D02*
X145032600Y-85115400D01*
X143288800Y-84145400D02*
X144258800Y-85115400D01*
X129754600Y-84145400D02*
X143288800Y-84145400D01*
X129500000Y-84400000D02*
X129754600Y-84145400D01*
%TO.N,/IN+*%
X125360000Y-109020000D02*
X126275000Y-108105000D01*
X121095000Y-109020000D02*
X125360000Y-109020000D01*
X113408400Y-88391600D02*
X113300000Y-88500000D01*
X114597000Y-88391600D02*
X113408400Y-88391600D01*
X137342300Y-109007700D02*
X137443300Y-109007700D01*
X136870800Y-109007700D02*
X137342300Y-109007700D01*
X137443300Y-109007700D02*
X137813800Y-109007700D01*
X136540600Y-108105000D02*
X126275000Y-108105000D01*
X137443300Y-109007700D02*
X136540600Y-108105000D01*
X140289500Y-106532000D02*
X146811000Y-106532000D01*
X137813800Y-109007700D02*
X140289500Y-106532000D01*
X151516500Y-100735000D02*
X146811000Y-100735000D01*
X151762500Y-100981000D02*
X151516500Y-100735000D01*
X161879700Y-100981000D02*
X151762500Y-100981000D01*
X163014600Y-99846100D02*
X161879700Y-100981000D01*
X163014600Y-97975400D02*
X163014600Y-99846100D01*
X164500000Y-96490000D02*
X163014600Y-97975400D01*
%TO.N,/5V*%
X171112000Y-97840000D02*
X174277500Y-97840000D01*
X126296000Y-104316000D02*
X128716000Y-104316000D01*
X126275000Y-104295000D02*
X126296000Y-104316000D01*
X129058600Y-103973400D02*
X133507000Y-103973400D01*
X128716000Y-104316000D02*
X129058600Y-103973400D01*
X121084200Y-108105000D02*
X121325000Y-108105000D01*
X120478600Y-108710600D02*
X121084200Y-108105000D01*
X120478600Y-109323800D02*
X120478600Y-108710600D01*
X120811900Y-109657100D02*
X120478600Y-109323800D01*
X133235900Y-109657100D02*
X120811900Y-109657100D01*
X133507000Y-109386000D02*
X133235900Y-109657100D01*
X163996500Y-92976500D02*
X164500000Y-93480000D01*
X162859000Y-92976500D02*
X163996500Y-92976500D01*
X165578800Y-92401200D02*
X165673200Y-92401200D01*
X164500000Y-93480000D02*
X165578800Y-92401200D01*
X132980000Y-81560000D02*
X132980000Y-80760100D01*
X132980000Y-80760100D02*
X132980000Y-79810000D01*
X132980000Y-80760100D02*
X130821900Y-80760100D01*
X156798400Y-78369800D02*
X160516800Y-82088200D01*
X134692100Y-78369800D02*
X156798400Y-78369800D01*
X133251900Y-79810000D02*
X134692100Y-78369800D01*
X132980000Y-79810000D02*
X133251900Y-79810000D01*
%TO.N,Net-(U2-VINT)*%
X133989500Y-98150000D02*
X126725000Y-98150000D01*
X135853900Y-96285600D02*
X133989500Y-98150000D01*
X151371000Y-96285600D02*
X135853900Y-96285600D01*
X151758600Y-96673200D02*
X151371000Y-96285600D01*
X153344000Y-96673200D02*
X151758600Y-96673200D01*
X165537500Y-89432500D02*
X166575000Y-90470000D01*
X161177800Y-89432500D02*
X165537500Y-89432500D01*
X160810400Y-89799900D02*
X161177800Y-89432500D01*
X160810400Y-90943600D02*
X160810400Y-89799900D01*
X160205100Y-91548900D02*
X160810400Y-90943600D01*
X155660900Y-91548900D02*
X160205100Y-91548900D01*
X153344000Y-89232000D02*
X155660900Y-91548900D01*
%TO.N,Net-(U2-VCP)*%
X129122600Y-100100000D02*
X126725000Y-100100000D01*
X130198000Y-99024600D02*
X129122600Y-100100000D01*
X134995400Y-99024600D02*
X130198000Y-99024600D01*
X136931000Y-97089000D02*
X134995400Y-99024600D01*
X150821100Y-97089000D02*
X136931000Y-97089000D01*
X151991500Y-98259400D02*
X150821100Y-97089000D01*
X157321400Y-98259400D02*
X151991500Y-98259400D01*
X158572300Y-99510300D02*
X157321400Y-98259400D01*
X158572300Y-99980200D02*
X158572300Y-99510300D01*
X159136100Y-100544000D02*
X158572300Y-99980200D01*
X160721000Y-100544000D02*
X159136100Y-100544000D01*
X161765000Y-99500000D02*
X160721000Y-100544000D01*
%TO.N,Net-(U1-VCP)*%
X159915100Y-94640100D02*
X161765000Y-96490000D01*
X147228700Y-94640100D02*
X159915100Y-94640100D01*
X145688600Y-93100000D02*
X147228700Y-94640100D01*
X126225000Y-93100000D02*
X145688600Y-93100000D01*
%TO.N,Net-(U1-VINT)*%
X144556000Y-91150000D02*
X126225000Y-91150000D01*
X147521600Y-94115600D02*
X144556000Y-91150000D01*
X153770100Y-94115600D02*
X147521600Y-94115600D01*
X155433400Y-92452300D02*
X153770100Y-94115600D01*
X160737300Y-92452300D02*
X155433400Y-92452300D01*
X161765000Y-93480000D02*
X160737300Y-92452300D01*
%TO.N,GND*%
X120166000Y-103136000D02*
X121325000Y-104295000D01*
X116066000Y-103136000D02*
X120166000Y-103136000D01*
X128696000Y-98800000D02*
X126725000Y-98800000D01*
X161765000Y-90470000D02*
X164500000Y-90470000D01*
X166575000Y-93480000D02*
X166575000Y-94514700D01*
X149928300Y-73071700D02*
X139820000Y-73071700D01*
X150500000Y-72500000D02*
X149928300Y-73071700D01*
X131180000Y-69271700D02*
X139820000Y-69271700D01*
X139820000Y-68120000D02*
X139820000Y-69271700D01*
X131180000Y-71920000D02*
X131180000Y-73071700D01*
X131180000Y-68120000D02*
X131180000Y-68695800D01*
X131180000Y-68695800D02*
X131180000Y-69271700D01*
X131180000Y-69271700D02*
X131180000Y-71920000D01*
X139820000Y-71920000D02*
X139820000Y-72495800D01*
X139820000Y-72495800D02*
X139820000Y-73071700D01*
X138629100Y-72495800D02*
X138250000Y-72116700D01*
X139820000Y-72495800D02*
X138629100Y-72495800D01*
X138250000Y-72116700D02*
X138250000Y-72000000D01*
X166575000Y-94514700D02*
X170275600Y-94514700D01*
X170275600Y-95380600D02*
X171385000Y-96490000D01*
X170275600Y-94514700D02*
X170275600Y-95380600D01*
X168000000Y-69568500D02*
X168000000Y-72500000D01*
X168000000Y-72500000D02*
X168000000Y-72879000D01*
X124500000Y-106200000D02*
X123800000Y-106200000D01*
X123800000Y-106200000D02*
X123100000Y-106200000D01*
X121890000Y-107400000D02*
X121325000Y-106835000D01*
X123100000Y-107400000D02*
X121890000Y-107400000D01*
X122395000Y-104295000D02*
X121325000Y-104295000D01*
X123100000Y-105000000D02*
X122395000Y-104295000D01*
X129429000Y-104930000D02*
X129771000Y-104588000D01*
X124570000Y-104930000D02*
X129429000Y-104930000D01*
X124500000Y-105000000D02*
X124570000Y-104930000D01*
X135808300Y-74558400D02*
X138250000Y-72116700D01*
X135370000Y-74558400D02*
X135808300Y-74558400D01*
X113427500Y-89937500D02*
X113300000Y-89810000D01*
X114493300Y-89937500D02*
X113427500Y-89937500D01*
X115280800Y-89150000D02*
X114493300Y-89937500D01*
X116000000Y-89150000D02*
X115280800Y-89150000D01*
X114493300Y-90394100D02*
X115385000Y-91285800D01*
X114493300Y-89937500D02*
X114493300Y-90394100D01*
X113587500Y-81500000D02*
X115537500Y-83450000D01*
X115537500Y-83450000D02*
X127225000Y-83450000D01*
X131678300Y-73071700D02*
X131180000Y-73071700D01*
X132750000Y-72000000D02*
X131678300Y-73071700D01*
X117253600Y-72246400D02*
X116500000Y-73000000D01*
X130001900Y-72246400D02*
X117253600Y-72246400D01*
X130827200Y-73071700D02*
X130001900Y-72246400D01*
X131180000Y-73071700D02*
X130827200Y-73071700D01*
X168000000Y-79500000D02*
X168000000Y-76189500D01*
X163261500Y-74606400D02*
X163261500Y-72500000D01*
X164844600Y-76189500D02*
X163261500Y-74606400D01*
X168000000Y-76189500D02*
X164844600Y-76189500D01*
X168000000Y-72500000D02*
X163261500Y-72500000D01*
X163261500Y-72500000D02*
X150500000Y-72500000D01*
X148056700Y-107908000D02*
X145777000Y-107908000D01*
X149027500Y-106937200D02*
X148056700Y-107908000D01*
X149027500Y-106800000D02*
X149027500Y-106937200D01*
X166575000Y-99500000D02*
X166575000Y-96490000D01*
X166575000Y-94514700D02*
X166575000Y-96490000D01*
X160724700Y-94514700D02*
X159690000Y-93480000D01*
X166575000Y-94514700D02*
X160724700Y-94514700D01*
X165527700Y-91497700D02*
X164500000Y-90470000D01*
X169960500Y-91497700D02*
X165527700Y-91497700D01*
X171385000Y-92922200D02*
X169960500Y-91497700D01*
X171385000Y-93480000D02*
X171385000Y-92922200D01*
X151000600Y-92000600D02*
X150000000Y-91000000D01*
X162969400Y-92000600D02*
X151000600Y-92000600D01*
X164500000Y-90470000D02*
X162969400Y-92000600D01*
X171310300Y-93480000D02*
X170275600Y-94514700D01*
X171385000Y-93480000D02*
X171310300Y-93480000D01*
X169981800Y-106813300D02*
X165415500Y-106813300D01*
X169981800Y-107667500D02*
X169981800Y-106813300D01*
X165415500Y-107667500D02*
X165415500Y-106914100D01*
X165415500Y-106814800D02*
X165415500Y-106813300D01*
X165415500Y-106914100D02*
X165415500Y-106814800D01*
X163042100Y-102510000D02*
X163042100Y-102330600D01*
X164500000Y-102510000D02*
X163042100Y-102510000D01*
X163042100Y-102510000D02*
X161765000Y-102510000D01*
X149027500Y-99800000D02*
X149027500Y-98925000D01*
X149027500Y-98925000D02*
X149027500Y-98050000D01*
X149027500Y-98925000D02*
X150000000Y-98925000D01*
X126225000Y-91800000D02*
X135370000Y-91800000D01*
X114203700Y-104998300D02*
X116066000Y-103136000D01*
X114027500Y-104998300D02*
X114203700Y-104998300D01*
X114027500Y-106150000D02*
X114027500Y-104998300D01*
X150050500Y-106800000D02*
X149027500Y-106800000D01*
X150482900Y-106367600D02*
X150050500Y-106800000D01*
X164161200Y-106367600D02*
X163000000Y-106367600D01*
X164330200Y-106536600D02*
X164161200Y-106367600D01*
X130645000Y-77680000D02*
X129500000Y-78825000D01*
X132200000Y-77680000D02*
X130645000Y-77680000D01*
X112505300Y-80417800D02*
X113587500Y-81500000D01*
X112505300Y-79533700D02*
X112505300Y-80417800D01*
X113317300Y-78721700D02*
X112505300Y-79533700D01*
X129396700Y-78721700D02*
X113317300Y-78721700D01*
X129500000Y-78825000D02*
X129396700Y-78721700D01*
X165138800Y-106536600D02*
X164330200Y-106536600D01*
X165415500Y-106813300D02*
X165138800Y-106536600D01*
D48*
%TO.N,/Battery*%
X158730000Y-103470000D02*
X159690000Y-102510000D01*
D47*
X169310000Y-92752600D02*
X169310000Y-93480000D01*
D48*
X169821000Y-92241600D02*
X169310000Y-92752600D01*
D47*
X159900300Y-107667500D02*
X159900300Y-108521700D01*
D48*
X161799300Y-107667500D02*
X161799300Y-106813300D01*
X159900300Y-107667500D02*
X159900300Y-106813300D01*
X159690000Y-99476600D02*
X158730000Y-98516600D01*
D47*
X159690000Y-99500000D02*
X159690000Y-99476600D01*
D48*
X161799300Y-106813300D02*
X159900300Y-106813300D01*
X159690000Y-90470000D02*
X157794900Y-90470000D01*
X158730000Y-97328700D02*
X158730000Y-98516600D01*
D47*
X158851300Y-97328700D02*
X158730000Y-97328700D01*
D48*
X159690000Y-96490000D02*
X158851300Y-97328700D01*
D47*
X159069000Y-108212200D02*
X159069000Y-107939000D01*
X159378500Y-108521700D02*
X159069000Y-108212200D01*
X159900300Y-108521700D02*
X159378500Y-108521700D01*
D48*
X128921900Y-99450000D02*
X126725000Y-99450000D01*
X129749000Y-98622900D02*
X128921900Y-99450000D01*
X134084600Y-98622900D02*
X129749000Y-98622900D01*
X134486300Y-98221200D02*
X134084600Y-98622900D01*
X135230800Y-98221200D02*
X134486300Y-98221200D01*
X136764700Y-96687300D02*
X135230800Y-98221200D01*
X151204600Y-96687300D02*
X136764700Y-96687300D01*
X151846000Y-97328700D02*
X151204600Y-96687300D01*
X158730000Y-97328700D02*
X151846000Y-97328700D01*
X161035700Y-89006500D02*
X169821000Y-89006500D01*
D47*
X160996400Y-89045800D02*
X161035700Y-89006500D01*
X160996400Y-89045900D02*
X160996400Y-89045800D01*
D48*
X159690000Y-90352300D02*
X160996400Y-89045900D01*
D47*
X159690000Y-90470000D02*
X159690000Y-90352300D01*
X125492300Y-92450000D02*
X126225000Y-92450000D01*
D48*
X125098700Y-92843600D02*
X125492300Y-92450000D01*
X125098700Y-93475300D02*
X125098700Y-92843600D01*
X123108900Y-95465100D02*
X125098700Y-93475300D01*
X122549600Y-94905800D02*
X123108900Y-95465100D01*
X118156300Y-94905800D02*
X122549600Y-94905800D01*
X117328300Y-94077800D02*
X118156300Y-94905800D01*
X114597200Y-94077800D02*
X117328300Y-94077800D01*
X113175000Y-95500000D02*
X114597200Y-94077800D01*
X162589200Y-103537700D02*
X162987100Y-103139800D01*
X158797700Y-103537700D02*
X162589200Y-103537700D01*
D47*
X158730000Y-103470000D02*
X158797700Y-103537700D01*
D48*
X125581800Y-99450000D02*
X126725000Y-99450000D01*
X124794000Y-98662200D02*
X125581800Y-99450000D01*
X124794000Y-97150200D02*
X124794000Y-98662200D01*
X123108900Y-95465100D02*
X124794000Y-97150200D01*
%TD*%
M02*
