%TF.GenerationSoftware,KiCad,Pcbnew,9.0.0*%
%TF.CreationDate,2025-03-28T15:52:13+02:00*%
%TF.ProjectId,EEE3088F_2025_Project,45454533-3038-4384-965f-323032355f50,rev?*%
%TF.SameCoordinates,Original*%
%TF.FileFunction,Legend,Top*%
%TF.FilePolarity,Positive*%
%FSLAX46Y46*%
G04 Gerber Fmt 4.6, Leading zero omitted, Abs format (unit mm)*
G04 Created by KiCad (PCBNEW 9.0.0) date 2025-03-28 15:52:13*
%MOMM*%
%LPD*%
G01*
G04 APERTURE LIST*
G04 Aperture macros list*
%AMRoundRect*
0 Rectangle with rounded corners*
0 $1 Rounding radius*
0 $2 $3 $4 $5 $6 $7 $8 $9 X,Y pos of 4 corners*
0 Add a 4 corners polygon primitive as box body*
4,1,4,$2,$3,$4,$5,$6,$7,$8,$9,$2,$3,0*
0 Add four circle primitives for the rounded corners*
1,1,$1+$1,$2,$3*
1,1,$1+$1,$4,$5*
1,1,$1+$1,$6,$7*
1,1,$1+$1,$8,$9*
0 Add four rect primitives between the rounded corners*
20,1,$1+$1,$2,$3,$4,$5,0*
20,1,$1+$1,$4,$5,$6,$7,0*
20,1,$1+$1,$6,$7,$8,$9,0*
20,1,$1+$1,$8,$9,$2,$3,0*%
%AMFreePoly0*
4,1,9,3.862500,-0.866500,0.737500,-0.866500,0.737500,-0.450000,-0.737500,-0.450000,-0.737500,0.450000,0.737500,0.450000,0.737500,0.866500,3.862500,0.866500,3.862500,-0.866500,3.862500,-0.866500,$1*%
G04 Aperture macros list end*
%ADD10C,0.100000*%
%ADD11C,0.150000*%
%ADD12C,0.120000*%
%ADD13C,0.249000*%
%ADD14C,0.254000*%
%ADD15C,0.152500*%
%ADD16RoundRect,0.100000X-0.217500X-0.100000X0.217500X-0.100000X0.217500X0.100000X-0.217500X0.100000X0*%
%ADD17RoundRect,0.150000X-0.512500X-0.150000X0.512500X-0.150000X0.512500X0.150000X-0.512500X0.150000X0*%
%ADD18RoundRect,0.237500X-0.250000X-0.237500X0.250000X-0.237500X0.250000X0.237500X-0.250000X0.237500X0*%
%ADD19R,0.622500X1.105000*%
%ADD20RoundRect,0.100000X-0.680000X-0.100000X0.680000X-0.100000X0.680000X0.100000X-0.680000X0.100000X0*%
%ADD21RoundRect,0.225000X-0.425000X-0.225000X0.425000X-0.225000X0.425000X0.225000X-0.425000X0.225000X0*%
%ADD22FreePoly0,0.000000*%
%ADD23RoundRect,0.150000X-0.825000X-0.150000X0.825000X-0.150000X0.825000X0.150000X-0.825000X0.150000X0*%
%ADD24R,2.410000X3.300000*%
%ADD25RoundRect,0.075000X-0.247500X-0.075000X0.247500X-0.075000X0.247500X0.075000X-0.247500X0.075000X0*%
%ADD26R,1.010000X1.700000*%
%ADD27RoundRect,0.100000X-0.637500X-0.100000X0.637500X-0.100000X0.637500X0.100000X-0.637500X0.100000X0*%
%ADD28C,2.000000*%
%ADD29O,2.200000X3.500000*%
%ADD30R,1.500000X2.500000*%
%ADD31O,1.500000X2.500000*%
%ADD32R,1.207500X1.701000*%
%ADD33RoundRect,0.250000X-0.350000X-0.450000X0.350000X-0.450000X0.350000X0.450000X-0.350000X0.450000X0*%
%ADD34R,1.282500X3.456000*%
%ADD35RoundRect,0.250001X-0.462499X-0.849999X0.462499X-0.849999X0.462499X0.849999X-0.462499X0.849999X0*%
%ADD36R,1.000000X1.500000*%
%ADD37RoundRect,0.250000X0.350000X0.625000X-0.350000X0.625000X-0.350000X-0.625000X0.350000X-0.625000X0*%
%ADD38O,1.200000X1.750000*%
%ADD39RoundRect,0.175000X0.175000X0.425000X-0.175000X0.425000X-0.175000X-0.425000X0.175000X-0.425000X0*%
%ADD40RoundRect,0.190000X-0.190000X-0.410000X0.190000X-0.410000X0.190000X0.410000X-0.190000X0.410000X0*%
%ADD41RoundRect,0.200000X-0.200000X-0.400000X0.200000X-0.400000X0.200000X0.400000X-0.200000X0.400000X0*%
%ADD42RoundRect,0.175000X-0.175000X-0.425000X0.175000X-0.425000X0.175000X0.425000X-0.175000X0.425000X0*%
%ADD43RoundRect,0.190000X0.190000X0.410000X-0.190000X0.410000X-0.190000X-0.410000X0.190000X-0.410000X0*%
%ADD44RoundRect,0.200000X0.200000X0.400000X-0.200000X0.400000X-0.200000X-0.400000X0.200000X-0.400000X0*%
%ADD45O,1.100000X1.700000*%
%ADD46R,1.700000X1.700000*%
%ADD47O,1.700000X1.700000*%
%ADD48C,5.600000*%
%ADD49RoundRect,0.250000X-1.000000X-0.650000X1.000000X-0.650000X1.000000X0.650000X-1.000000X0.650000X0*%
%ADD50RoundRect,0.250000X-0.337500X-0.475000X0.337500X-0.475000X0.337500X0.475000X-0.337500X0.475000X0*%
G04 APERTURE END LIST*
D10*
X179256265Y-110604912D02*
X179399122Y-110652531D01*
X179399122Y-110652531D02*
X179637217Y-110652531D01*
X179637217Y-110652531D02*
X179732455Y-110604912D01*
X179732455Y-110604912D02*
X179780074Y-110557292D01*
X179780074Y-110557292D02*
X179827693Y-110462054D01*
X179827693Y-110462054D02*
X179827693Y-110366816D01*
X179827693Y-110366816D02*
X179780074Y-110271578D01*
X179780074Y-110271578D02*
X179732455Y-110223959D01*
X179732455Y-110223959D02*
X179637217Y-110176340D01*
X179637217Y-110176340D02*
X179446741Y-110128721D01*
X179446741Y-110128721D02*
X179351503Y-110081102D01*
X179351503Y-110081102D02*
X179303884Y-110033483D01*
X179303884Y-110033483D02*
X179256265Y-109938245D01*
X179256265Y-109938245D02*
X179256265Y-109843007D01*
X179256265Y-109843007D02*
X179303884Y-109747769D01*
X179303884Y-109747769D02*
X179351503Y-109700150D01*
X179351503Y-109700150D02*
X179446741Y-109652531D01*
X179446741Y-109652531D02*
X179684836Y-109652531D01*
X179684836Y-109652531D02*
X179827693Y-109700150D01*
X180256265Y-110652531D02*
X180256265Y-109652531D01*
X180256265Y-109652531D02*
X180827693Y-110652531D01*
X180827693Y-110652531D02*
X180827693Y-109652531D01*
X181827693Y-109700150D02*
X181732455Y-109652531D01*
X181732455Y-109652531D02*
X181589598Y-109652531D01*
X181589598Y-109652531D02*
X181446741Y-109700150D01*
X181446741Y-109700150D02*
X181351503Y-109795388D01*
X181351503Y-109795388D02*
X181303884Y-109890626D01*
X181303884Y-109890626D02*
X181256265Y-110081102D01*
X181256265Y-110081102D02*
X181256265Y-110223959D01*
X181256265Y-110223959D02*
X181303884Y-110414435D01*
X181303884Y-110414435D02*
X181351503Y-110509673D01*
X181351503Y-110509673D02*
X181446741Y-110604912D01*
X181446741Y-110604912D02*
X181589598Y-110652531D01*
X181589598Y-110652531D02*
X181684836Y-110652531D01*
X181684836Y-110652531D02*
X181827693Y-110604912D01*
X181827693Y-110604912D02*
X181875312Y-110557292D01*
X181875312Y-110557292D02*
X181875312Y-110223959D01*
X181875312Y-110223959D02*
X181684836Y-110223959D01*
X182303884Y-110652531D02*
X182303884Y-109652531D01*
X182875312Y-110652531D02*
X182446741Y-110081102D01*
X182875312Y-109652531D02*
X182303884Y-110223959D01*
X183303884Y-110652531D02*
X183303884Y-109652531D01*
X183303884Y-110128721D02*
X183875312Y-110128721D01*
X183875312Y-110652531D02*
X183875312Y-109652531D01*
X184303884Y-110366816D02*
X184780074Y-110366816D01*
X184208646Y-110652531D02*
X184541979Y-109652531D01*
X184541979Y-109652531D02*
X184875312Y-110652531D01*
X185399122Y-109652531D02*
X185494360Y-109652531D01*
X185494360Y-109652531D02*
X185589598Y-109700150D01*
X185589598Y-109700150D02*
X185637217Y-109747769D01*
X185637217Y-109747769D02*
X185684836Y-109843007D01*
X185684836Y-109843007D02*
X185732455Y-110033483D01*
X185732455Y-110033483D02*
X185732455Y-110271578D01*
X185732455Y-110271578D02*
X185684836Y-110462054D01*
X185684836Y-110462054D02*
X185637217Y-110557292D01*
X185637217Y-110557292D02*
X185589598Y-110604912D01*
X185589598Y-110604912D02*
X185494360Y-110652531D01*
X185494360Y-110652531D02*
X185399122Y-110652531D01*
X185399122Y-110652531D02*
X185303884Y-110604912D01*
X185303884Y-110604912D02*
X185256265Y-110557292D01*
X185256265Y-110557292D02*
X185208646Y-110462054D01*
X185208646Y-110462054D02*
X185161027Y-110271578D01*
X185161027Y-110271578D02*
X185161027Y-110033483D01*
X185161027Y-110033483D02*
X185208646Y-109843007D01*
X185208646Y-109843007D02*
X185256265Y-109747769D01*
X185256265Y-109747769D02*
X185303884Y-109700150D01*
X185303884Y-109700150D02*
X185399122Y-109652531D01*
X186351503Y-109652531D02*
X186446741Y-109652531D01*
X186446741Y-109652531D02*
X186541979Y-109700150D01*
X186541979Y-109700150D02*
X186589598Y-109747769D01*
X186589598Y-109747769D02*
X186637217Y-109843007D01*
X186637217Y-109843007D02*
X186684836Y-110033483D01*
X186684836Y-110033483D02*
X186684836Y-110271578D01*
X186684836Y-110271578D02*
X186637217Y-110462054D01*
X186637217Y-110462054D02*
X186589598Y-110557292D01*
X186589598Y-110557292D02*
X186541979Y-110604912D01*
X186541979Y-110604912D02*
X186446741Y-110652531D01*
X186446741Y-110652531D02*
X186351503Y-110652531D01*
X186351503Y-110652531D02*
X186256265Y-110604912D01*
X186256265Y-110604912D02*
X186208646Y-110557292D01*
X186208646Y-110557292D02*
X186161027Y-110462054D01*
X186161027Y-110462054D02*
X186113408Y-110271578D01*
X186113408Y-110271578D02*
X186113408Y-110033483D01*
X186113408Y-110033483D02*
X186161027Y-109843007D01*
X186161027Y-109843007D02*
X186208646Y-109747769D01*
X186208646Y-109747769D02*
X186256265Y-109700150D01*
X186256265Y-109700150D02*
X186351503Y-109652531D01*
X187256265Y-110081102D02*
X187161027Y-110033483D01*
X187161027Y-110033483D02*
X187113408Y-109985864D01*
X187113408Y-109985864D02*
X187065789Y-109890626D01*
X187065789Y-109890626D02*
X187065789Y-109843007D01*
X187065789Y-109843007D02*
X187113408Y-109747769D01*
X187113408Y-109747769D02*
X187161027Y-109700150D01*
X187161027Y-109700150D02*
X187256265Y-109652531D01*
X187256265Y-109652531D02*
X187446741Y-109652531D01*
X187446741Y-109652531D02*
X187541979Y-109700150D01*
X187541979Y-109700150D02*
X187589598Y-109747769D01*
X187589598Y-109747769D02*
X187637217Y-109843007D01*
X187637217Y-109843007D02*
X187637217Y-109890626D01*
X187637217Y-109890626D02*
X187589598Y-109985864D01*
X187589598Y-109985864D02*
X187541979Y-110033483D01*
X187541979Y-110033483D02*
X187446741Y-110081102D01*
X187446741Y-110081102D02*
X187256265Y-110081102D01*
X187256265Y-110081102D02*
X187161027Y-110128721D01*
X187161027Y-110128721D02*
X187113408Y-110176340D01*
X187113408Y-110176340D02*
X187065789Y-110271578D01*
X187065789Y-110271578D02*
X187065789Y-110462054D01*
X187065789Y-110462054D02*
X187113408Y-110557292D01*
X187113408Y-110557292D02*
X187161027Y-110604912D01*
X187161027Y-110604912D02*
X187256265Y-110652531D01*
X187256265Y-110652531D02*
X187446741Y-110652531D01*
X187446741Y-110652531D02*
X187541979Y-110604912D01*
X187541979Y-110604912D02*
X187589598Y-110557292D01*
X187589598Y-110557292D02*
X187637217Y-110462054D01*
X187637217Y-110462054D02*
X187637217Y-110271578D01*
X187637217Y-110271578D02*
X187589598Y-110176340D01*
X187589598Y-110176340D02*
X187541979Y-110128721D01*
X187541979Y-110128721D02*
X187446741Y-110081102D01*
X179303884Y-112262475D02*
X179303884Y-111262475D01*
X179303884Y-111262475D02*
X179541979Y-111262475D01*
X179541979Y-111262475D02*
X179684836Y-111310094D01*
X179684836Y-111310094D02*
X179780074Y-111405332D01*
X179780074Y-111405332D02*
X179827693Y-111500570D01*
X179827693Y-111500570D02*
X179875312Y-111691046D01*
X179875312Y-111691046D02*
X179875312Y-111833903D01*
X179875312Y-111833903D02*
X179827693Y-112024379D01*
X179827693Y-112024379D02*
X179780074Y-112119617D01*
X179780074Y-112119617D02*
X179684836Y-112214856D01*
X179684836Y-112214856D02*
X179541979Y-112262475D01*
X179541979Y-112262475D02*
X179303884Y-112262475D01*
X180780074Y-112262475D02*
X180303884Y-112262475D01*
X180303884Y-112262475D02*
X180303884Y-111262475D01*
X181018170Y-111262475D02*
X181684836Y-112262475D01*
X181684836Y-111262475D02*
X181018170Y-112262475D01*
X182256265Y-111262475D02*
X182446741Y-111262475D01*
X182446741Y-111262475D02*
X182541979Y-111310094D01*
X182541979Y-111310094D02*
X182637217Y-111405332D01*
X182637217Y-111405332D02*
X182684836Y-111595808D01*
X182684836Y-111595808D02*
X182684836Y-111929141D01*
X182684836Y-111929141D02*
X182637217Y-112119617D01*
X182637217Y-112119617D02*
X182541979Y-112214856D01*
X182541979Y-112214856D02*
X182446741Y-112262475D01*
X182446741Y-112262475D02*
X182256265Y-112262475D01*
X182256265Y-112262475D02*
X182161027Y-112214856D01*
X182161027Y-112214856D02*
X182065789Y-112119617D01*
X182065789Y-112119617D02*
X182018170Y-111929141D01*
X182018170Y-111929141D02*
X182018170Y-111595808D01*
X182018170Y-111595808D02*
X182065789Y-111405332D01*
X182065789Y-111405332D02*
X182161027Y-111310094D01*
X182161027Y-111310094D02*
X182256265Y-111262475D01*
X182970551Y-111262475D02*
X183541979Y-111262475D01*
X183256265Y-112262475D02*
X183256265Y-111262475D01*
X183827694Y-112214856D02*
X183970551Y-112262475D01*
X183970551Y-112262475D02*
X184208646Y-112262475D01*
X184208646Y-112262475D02*
X184303884Y-112214856D01*
X184303884Y-112214856D02*
X184351503Y-112167236D01*
X184351503Y-112167236D02*
X184399122Y-112071998D01*
X184399122Y-112071998D02*
X184399122Y-111976760D01*
X184399122Y-111976760D02*
X184351503Y-111881522D01*
X184351503Y-111881522D02*
X184303884Y-111833903D01*
X184303884Y-111833903D02*
X184208646Y-111786284D01*
X184208646Y-111786284D02*
X184018170Y-111738665D01*
X184018170Y-111738665D02*
X183922932Y-111691046D01*
X183922932Y-111691046D02*
X183875313Y-111643427D01*
X183875313Y-111643427D02*
X183827694Y-111548189D01*
X183827694Y-111548189D02*
X183827694Y-111452951D01*
X183827694Y-111452951D02*
X183875313Y-111357713D01*
X183875313Y-111357713D02*
X183922932Y-111310094D01*
X183922932Y-111310094D02*
X184018170Y-111262475D01*
X184018170Y-111262475D02*
X184256265Y-111262475D01*
X184256265Y-111262475D02*
X184399122Y-111310094D01*
X185018170Y-111262475D02*
X185113408Y-111262475D01*
X185113408Y-111262475D02*
X185208646Y-111310094D01*
X185208646Y-111310094D02*
X185256265Y-111357713D01*
X185256265Y-111357713D02*
X185303884Y-111452951D01*
X185303884Y-111452951D02*
X185351503Y-111643427D01*
X185351503Y-111643427D02*
X185351503Y-111881522D01*
X185351503Y-111881522D02*
X185303884Y-112071998D01*
X185303884Y-112071998D02*
X185256265Y-112167236D01*
X185256265Y-112167236D02*
X185208646Y-112214856D01*
X185208646Y-112214856D02*
X185113408Y-112262475D01*
X185113408Y-112262475D02*
X185018170Y-112262475D01*
X185018170Y-112262475D02*
X184922932Y-112214856D01*
X184922932Y-112214856D02*
X184875313Y-112167236D01*
X184875313Y-112167236D02*
X184827694Y-112071998D01*
X184827694Y-112071998D02*
X184780075Y-111881522D01*
X184780075Y-111881522D02*
X184780075Y-111643427D01*
X184780075Y-111643427D02*
X184827694Y-111452951D01*
X184827694Y-111452951D02*
X184875313Y-111357713D01*
X184875313Y-111357713D02*
X184922932Y-111310094D01*
X184922932Y-111310094D02*
X185018170Y-111262475D01*
X185970551Y-111262475D02*
X186065789Y-111262475D01*
X186065789Y-111262475D02*
X186161027Y-111310094D01*
X186161027Y-111310094D02*
X186208646Y-111357713D01*
X186208646Y-111357713D02*
X186256265Y-111452951D01*
X186256265Y-111452951D02*
X186303884Y-111643427D01*
X186303884Y-111643427D02*
X186303884Y-111881522D01*
X186303884Y-111881522D02*
X186256265Y-112071998D01*
X186256265Y-112071998D02*
X186208646Y-112167236D01*
X186208646Y-112167236D02*
X186161027Y-112214856D01*
X186161027Y-112214856D02*
X186065789Y-112262475D01*
X186065789Y-112262475D02*
X185970551Y-112262475D01*
X185970551Y-112262475D02*
X185875313Y-112214856D01*
X185875313Y-112214856D02*
X185827694Y-112167236D01*
X185827694Y-112167236D02*
X185780075Y-112071998D01*
X185780075Y-112071998D02*
X185732456Y-111881522D01*
X185732456Y-111881522D02*
X185732456Y-111643427D01*
X185732456Y-111643427D02*
X185780075Y-111452951D01*
X185780075Y-111452951D02*
X185827694Y-111357713D01*
X185827694Y-111357713D02*
X185875313Y-111310094D01*
X185875313Y-111310094D02*
X185970551Y-111262475D01*
X187256265Y-112262475D02*
X186684837Y-112262475D01*
X186970551Y-112262475D02*
X186970551Y-111262475D01*
X186970551Y-111262475D02*
X186875313Y-111405332D01*
X186875313Y-111405332D02*
X186780075Y-111500570D01*
X186780075Y-111500570D02*
X186684837Y-111548189D01*
X179827693Y-112920038D02*
X179732455Y-112872419D01*
X179732455Y-112872419D02*
X179589598Y-112872419D01*
X179589598Y-112872419D02*
X179446741Y-112920038D01*
X179446741Y-112920038D02*
X179351503Y-113015276D01*
X179351503Y-113015276D02*
X179303884Y-113110514D01*
X179303884Y-113110514D02*
X179256265Y-113300990D01*
X179256265Y-113300990D02*
X179256265Y-113443847D01*
X179256265Y-113443847D02*
X179303884Y-113634323D01*
X179303884Y-113634323D02*
X179351503Y-113729561D01*
X179351503Y-113729561D02*
X179446741Y-113824800D01*
X179446741Y-113824800D02*
X179589598Y-113872419D01*
X179589598Y-113872419D02*
X179684836Y-113872419D01*
X179684836Y-113872419D02*
X179827693Y-113824800D01*
X179827693Y-113824800D02*
X179875312Y-113777180D01*
X179875312Y-113777180D02*
X179875312Y-113443847D01*
X179875312Y-113443847D02*
X179684836Y-113443847D01*
X180303884Y-113872419D02*
X180303884Y-113205752D01*
X180303884Y-113396228D02*
X180351503Y-113300990D01*
X180351503Y-113300990D02*
X180399122Y-113253371D01*
X180399122Y-113253371D02*
X180494360Y-113205752D01*
X180494360Y-113205752D02*
X180589598Y-113205752D01*
X181065789Y-113872419D02*
X180970551Y-113824800D01*
X180970551Y-113824800D02*
X180922932Y-113777180D01*
X180922932Y-113777180D02*
X180875313Y-113681942D01*
X180875313Y-113681942D02*
X180875313Y-113396228D01*
X180875313Y-113396228D02*
X180922932Y-113300990D01*
X180922932Y-113300990D02*
X180970551Y-113253371D01*
X180970551Y-113253371D02*
X181065789Y-113205752D01*
X181065789Y-113205752D02*
X181208646Y-113205752D01*
X181208646Y-113205752D02*
X181303884Y-113253371D01*
X181303884Y-113253371D02*
X181351503Y-113300990D01*
X181351503Y-113300990D02*
X181399122Y-113396228D01*
X181399122Y-113396228D02*
X181399122Y-113681942D01*
X181399122Y-113681942D02*
X181351503Y-113777180D01*
X181351503Y-113777180D02*
X181303884Y-113824800D01*
X181303884Y-113824800D02*
X181208646Y-113872419D01*
X181208646Y-113872419D02*
X181065789Y-113872419D01*
X182256265Y-113205752D02*
X182256265Y-113872419D01*
X181827694Y-113205752D02*
X181827694Y-113729561D01*
X181827694Y-113729561D02*
X181875313Y-113824800D01*
X181875313Y-113824800D02*
X181970551Y-113872419D01*
X181970551Y-113872419D02*
X182113408Y-113872419D01*
X182113408Y-113872419D02*
X182208646Y-113824800D01*
X182208646Y-113824800D02*
X182256265Y-113777180D01*
X182732456Y-113205752D02*
X182732456Y-114205752D01*
X182732456Y-113253371D02*
X182827694Y-113205752D01*
X182827694Y-113205752D02*
X183018170Y-113205752D01*
X183018170Y-113205752D02*
X183113408Y-113253371D01*
X183113408Y-113253371D02*
X183161027Y-113300990D01*
X183161027Y-113300990D02*
X183208646Y-113396228D01*
X183208646Y-113396228D02*
X183208646Y-113681942D01*
X183208646Y-113681942D02*
X183161027Y-113777180D01*
X183161027Y-113777180D02*
X183113408Y-113824800D01*
X183113408Y-113824800D02*
X183018170Y-113872419D01*
X183018170Y-113872419D02*
X182827694Y-113872419D01*
X182827694Y-113872419D02*
X182732456Y-113824800D01*
X184875313Y-112872419D02*
X184399123Y-112872419D01*
X184399123Y-112872419D02*
X184351504Y-113348609D01*
X184351504Y-113348609D02*
X184399123Y-113300990D01*
X184399123Y-113300990D02*
X184494361Y-113253371D01*
X184494361Y-113253371D02*
X184732456Y-113253371D01*
X184732456Y-113253371D02*
X184827694Y-113300990D01*
X184827694Y-113300990D02*
X184875313Y-113348609D01*
X184875313Y-113348609D02*
X184922932Y-113443847D01*
X184922932Y-113443847D02*
X184922932Y-113681942D01*
X184922932Y-113681942D02*
X184875313Y-113777180D01*
X184875313Y-113777180D02*
X184827694Y-113824800D01*
X184827694Y-113824800D02*
X184732456Y-113872419D01*
X184732456Y-113872419D02*
X184494361Y-113872419D01*
X184494361Y-113872419D02*
X184399123Y-113824800D01*
X184399123Y-113824800D02*
X184351504Y-113777180D01*
X185399123Y-113872419D02*
X185589599Y-113872419D01*
X185589599Y-113872419D02*
X185684837Y-113824800D01*
X185684837Y-113824800D02*
X185732456Y-113777180D01*
X185732456Y-113777180D02*
X185827694Y-113634323D01*
X185827694Y-113634323D02*
X185875313Y-113443847D01*
X185875313Y-113443847D02*
X185875313Y-113062895D01*
X185875313Y-113062895D02*
X185827694Y-112967657D01*
X185827694Y-112967657D02*
X185780075Y-112920038D01*
X185780075Y-112920038D02*
X185684837Y-112872419D01*
X185684837Y-112872419D02*
X185494361Y-112872419D01*
X185494361Y-112872419D02*
X185399123Y-112920038D01*
X185399123Y-112920038D02*
X185351504Y-112967657D01*
X185351504Y-112967657D02*
X185303885Y-113062895D01*
X185303885Y-113062895D02*
X185303885Y-113300990D01*
X185303885Y-113300990D02*
X185351504Y-113396228D01*
X185351504Y-113396228D02*
X185399123Y-113443847D01*
X185399123Y-113443847D02*
X185494361Y-113491466D01*
X185494361Y-113491466D02*
X185684837Y-113491466D01*
X185684837Y-113491466D02*
X185780075Y-113443847D01*
X185780075Y-113443847D02*
X185827694Y-113396228D01*
X185827694Y-113396228D02*
X185875313Y-113300990D01*
D11*
X131834405Y-79214819D02*
X131834405Y-78214819D01*
X131834405Y-78214819D02*
X132072500Y-78214819D01*
X132072500Y-78214819D02*
X132215357Y-78262438D01*
X132215357Y-78262438D02*
X132310595Y-78357676D01*
X132310595Y-78357676D02*
X132358214Y-78452914D01*
X132358214Y-78452914D02*
X132405833Y-78643390D01*
X132405833Y-78643390D02*
X132405833Y-78786247D01*
X132405833Y-78786247D02*
X132358214Y-78976723D01*
X132358214Y-78976723D02*
X132310595Y-79071961D01*
X132310595Y-79071961D02*
X132215357Y-79167200D01*
X132215357Y-79167200D02*
X132072500Y-79214819D01*
X132072500Y-79214819D02*
X131834405Y-79214819D01*
X133358214Y-79214819D02*
X132786786Y-79214819D01*
X133072500Y-79214819D02*
X133072500Y-78214819D01*
X133072500Y-78214819D02*
X132977262Y-78357676D01*
X132977262Y-78357676D02*
X132882024Y-78452914D01*
X132882024Y-78452914D02*
X132786786Y-78500533D01*
X131834405Y-80964819D02*
X131834405Y-79964819D01*
X131834405Y-79964819D02*
X132072500Y-79964819D01*
X132072500Y-79964819D02*
X132215357Y-80012438D01*
X132215357Y-80012438D02*
X132310595Y-80107676D01*
X132310595Y-80107676D02*
X132358214Y-80202914D01*
X132358214Y-80202914D02*
X132405833Y-80393390D01*
X132405833Y-80393390D02*
X132405833Y-80536247D01*
X132405833Y-80536247D02*
X132358214Y-80726723D01*
X132358214Y-80726723D02*
X132310595Y-80821961D01*
X132310595Y-80821961D02*
X132215357Y-80917200D01*
X132215357Y-80917200D02*
X132072500Y-80964819D01*
X132072500Y-80964819D02*
X131834405Y-80964819D01*
X132739167Y-79964819D02*
X133358214Y-79964819D01*
X133358214Y-79964819D02*
X133024881Y-80345771D01*
X133024881Y-80345771D02*
X133167738Y-80345771D01*
X133167738Y-80345771D02*
X133262976Y-80393390D01*
X133262976Y-80393390D02*
X133310595Y-80441009D01*
X133310595Y-80441009D02*
X133358214Y-80536247D01*
X133358214Y-80536247D02*
X133358214Y-80774342D01*
X133358214Y-80774342D02*
X133310595Y-80869580D01*
X133310595Y-80869580D02*
X133262976Y-80917200D01*
X133262976Y-80917200D02*
X133167738Y-80964819D01*
X133167738Y-80964819D02*
X132882024Y-80964819D01*
X132882024Y-80964819D02*
X132786786Y-80917200D01*
X132786786Y-80917200D02*
X132739167Y-80869580D01*
X128267261Y-76975057D02*
X128172023Y-76927438D01*
X128172023Y-76927438D02*
X128076785Y-76832200D01*
X128076785Y-76832200D02*
X127933928Y-76689342D01*
X127933928Y-76689342D02*
X127838690Y-76641723D01*
X127838690Y-76641723D02*
X127743452Y-76641723D01*
X127791071Y-76879819D02*
X127695833Y-76832200D01*
X127695833Y-76832200D02*
X127600595Y-76736961D01*
X127600595Y-76736961D02*
X127552976Y-76546485D01*
X127552976Y-76546485D02*
X127552976Y-76213152D01*
X127552976Y-76213152D02*
X127600595Y-76022676D01*
X127600595Y-76022676D02*
X127695833Y-75927438D01*
X127695833Y-75927438D02*
X127791071Y-75879819D01*
X127791071Y-75879819D02*
X127981547Y-75879819D01*
X127981547Y-75879819D02*
X128076785Y-75927438D01*
X128076785Y-75927438D02*
X128172023Y-76022676D01*
X128172023Y-76022676D02*
X128219642Y-76213152D01*
X128219642Y-76213152D02*
X128219642Y-76546485D01*
X128219642Y-76546485D02*
X128172023Y-76736961D01*
X128172023Y-76736961D02*
X128076785Y-76832200D01*
X128076785Y-76832200D02*
X127981547Y-76879819D01*
X127981547Y-76879819D02*
X127791071Y-76879819D01*
X128600595Y-75975057D02*
X128648214Y-75927438D01*
X128648214Y-75927438D02*
X128743452Y-75879819D01*
X128743452Y-75879819D02*
X128981547Y-75879819D01*
X128981547Y-75879819D02*
X129076785Y-75927438D01*
X129076785Y-75927438D02*
X129124404Y-75975057D01*
X129124404Y-75975057D02*
X129172023Y-76070295D01*
X129172023Y-76070295D02*
X129172023Y-76165533D01*
X129172023Y-76165533D02*
X129124404Y-76308390D01*
X129124404Y-76308390D02*
X128552976Y-76879819D01*
X128552976Y-76879819D02*
X129172023Y-76879819D01*
X132945833Y-76704819D02*
X132612500Y-76228628D01*
X132374405Y-76704819D02*
X132374405Y-75704819D01*
X132374405Y-75704819D02*
X132755357Y-75704819D01*
X132755357Y-75704819D02*
X132850595Y-75752438D01*
X132850595Y-75752438D02*
X132898214Y-75800057D01*
X132898214Y-75800057D02*
X132945833Y-75895295D01*
X132945833Y-75895295D02*
X132945833Y-76038152D01*
X132945833Y-76038152D02*
X132898214Y-76133390D01*
X132898214Y-76133390D02*
X132850595Y-76181009D01*
X132850595Y-76181009D02*
X132755357Y-76228628D01*
X132755357Y-76228628D02*
X132374405Y-76228628D01*
X133279167Y-75704819D02*
X133945833Y-75704819D01*
X133945833Y-75704819D02*
X133517262Y-76704819D01*
X127600595Y-80504819D02*
X127600595Y-81314342D01*
X127600595Y-81314342D02*
X127648214Y-81409580D01*
X127648214Y-81409580D02*
X127695833Y-81457200D01*
X127695833Y-81457200D02*
X127791071Y-81504819D01*
X127791071Y-81504819D02*
X127981547Y-81504819D01*
X127981547Y-81504819D02*
X128076785Y-81457200D01*
X128076785Y-81457200D02*
X128124404Y-81409580D01*
X128124404Y-81409580D02*
X128172023Y-81314342D01*
X128172023Y-81314342D02*
X128172023Y-80504819D01*
X129124404Y-80504819D02*
X128648214Y-80504819D01*
X128648214Y-80504819D02*
X128600595Y-80981009D01*
X128600595Y-80981009D02*
X128648214Y-80933390D01*
X128648214Y-80933390D02*
X128743452Y-80885771D01*
X128743452Y-80885771D02*
X128981547Y-80885771D01*
X128981547Y-80885771D02*
X129076785Y-80933390D01*
X129076785Y-80933390D02*
X129124404Y-80981009D01*
X129124404Y-80981009D02*
X129172023Y-81076247D01*
X129172023Y-81076247D02*
X129172023Y-81314342D01*
X129172023Y-81314342D02*
X129124404Y-81409580D01*
X129124404Y-81409580D02*
X129076785Y-81457200D01*
X129076785Y-81457200D02*
X128981547Y-81504819D01*
X128981547Y-81504819D02*
X128743452Y-81504819D01*
X128743452Y-81504819D02*
X128648214Y-81457200D01*
X128648214Y-81457200D02*
X128600595Y-81409580D01*
X168514653Y-103269819D02*
X168514653Y-104079342D01*
X168514653Y-104079342D02*
X168562272Y-104174580D01*
X168562272Y-104174580D02*
X168609891Y-104222200D01*
X168609891Y-104222200D02*
X168705129Y-104269819D01*
X168705129Y-104269819D02*
X168895605Y-104269819D01*
X168895605Y-104269819D02*
X168990843Y-104222200D01*
X168990843Y-104222200D02*
X169038462Y-104174580D01*
X169038462Y-104174580D02*
X169086081Y-104079342D01*
X169086081Y-104079342D02*
X169086081Y-103269819D01*
X170086081Y-104269819D02*
X169514653Y-104269819D01*
X169800367Y-104269819D02*
X169800367Y-103269819D01*
X169800367Y-103269819D02*
X169705129Y-103412676D01*
X169705129Y-103412676D02*
X169609891Y-103507914D01*
X169609891Y-103507914D02*
X169514653Y-103555533D01*
X171038462Y-104269819D02*
X170467034Y-104269819D01*
X170752748Y-104269819D02*
X170752748Y-103269819D01*
X170752748Y-103269819D02*
X170657510Y-103412676D01*
X170657510Y-103412676D02*
X170562272Y-103507914D01*
X170562272Y-103507914D02*
X170467034Y-103555533D01*
X113411905Y-86434819D02*
X113411905Y-87244342D01*
X113411905Y-87244342D02*
X113459524Y-87339580D01*
X113459524Y-87339580D02*
X113507143Y-87387200D01*
X113507143Y-87387200D02*
X113602381Y-87434819D01*
X113602381Y-87434819D02*
X113792857Y-87434819D01*
X113792857Y-87434819D02*
X113888095Y-87387200D01*
X113888095Y-87387200D02*
X113935714Y-87339580D01*
X113935714Y-87339580D02*
X113983333Y-87244342D01*
X113983333Y-87244342D02*
X113983333Y-86434819D01*
X114983333Y-87434819D02*
X114411905Y-87434819D01*
X114697619Y-87434819D02*
X114697619Y-86434819D01*
X114697619Y-86434819D02*
X114602381Y-86577676D01*
X114602381Y-86577676D02*
X114507143Y-86672914D01*
X114507143Y-86672914D02*
X114411905Y-86720533D01*
X115602381Y-86434819D02*
X115697619Y-86434819D01*
X115697619Y-86434819D02*
X115792857Y-86482438D01*
X115792857Y-86482438D02*
X115840476Y-86530057D01*
X115840476Y-86530057D02*
X115888095Y-86625295D01*
X115888095Y-86625295D02*
X115935714Y-86815771D01*
X115935714Y-86815771D02*
X115935714Y-87053866D01*
X115935714Y-87053866D02*
X115888095Y-87244342D01*
X115888095Y-87244342D02*
X115840476Y-87339580D01*
X115840476Y-87339580D02*
X115792857Y-87387200D01*
X115792857Y-87387200D02*
X115697619Y-87434819D01*
X115697619Y-87434819D02*
X115602381Y-87434819D01*
X115602381Y-87434819D02*
X115507143Y-87387200D01*
X115507143Y-87387200D02*
X115459524Y-87339580D01*
X115459524Y-87339580D02*
X115411905Y-87244342D01*
X115411905Y-87244342D02*
X115364286Y-87053866D01*
X115364286Y-87053866D02*
X115364286Y-86815771D01*
X115364286Y-86815771D02*
X115411905Y-86625295D01*
X115411905Y-86625295D02*
X115459524Y-86530057D01*
X115459524Y-86530057D02*
X115507143Y-86482438D01*
X115507143Y-86482438D02*
X115602381Y-86434819D01*
X114688095Y-77454819D02*
X114688095Y-78264342D01*
X114688095Y-78264342D02*
X114735714Y-78359580D01*
X114735714Y-78359580D02*
X114783333Y-78407200D01*
X114783333Y-78407200D02*
X114878571Y-78454819D01*
X114878571Y-78454819D02*
X115069047Y-78454819D01*
X115069047Y-78454819D02*
X115164285Y-78407200D01*
X115164285Y-78407200D02*
X115211904Y-78359580D01*
X115211904Y-78359580D02*
X115259523Y-78264342D01*
X115259523Y-78264342D02*
X115259523Y-77454819D01*
X115783333Y-78454819D02*
X115973809Y-78454819D01*
X115973809Y-78454819D02*
X116069047Y-78407200D01*
X116069047Y-78407200D02*
X116116666Y-78359580D01*
X116116666Y-78359580D02*
X116211904Y-78216723D01*
X116211904Y-78216723D02*
X116259523Y-78026247D01*
X116259523Y-78026247D02*
X116259523Y-77645295D01*
X116259523Y-77645295D02*
X116211904Y-77550057D01*
X116211904Y-77550057D02*
X116164285Y-77502438D01*
X116164285Y-77502438D02*
X116069047Y-77454819D01*
X116069047Y-77454819D02*
X115878571Y-77454819D01*
X115878571Y-77454819D02*
X115783333Y-77502438D01*
X115783333Y-77502438D02*
X115735714Y-77550057D01*
X115735714Y-77550057D02*
X115688095Y-77645295D01*
X115688095Y-77645295D02*
X115688095Y-77883390D01*
X115688095Y-77883390D02*
X115735714Y-77978628D01*
X115735714Y-77978628D02*
X115783333Y-78026247D01*
X115783333Y-78026247D02*
X115878571Y-78073866D01*
X115878571Y-78073866D02*
X116069047Y-78073866D01*
X116069047Y-78073866D02*
X116164285Y-78026247D01*
X116164285Y-78026247D02*
X116211904Y-77978628D01*
X116211904Y-77978628D02*
X116259523Y-77883390D01*
X123038095Y-102254819D02*
X123038095Y-103064342D01*
X123038095Y-103064342D02*
X123085714Y-103159580D01*
X123085714Y-103159580D02*
X123133333Y-103207200D01*
X123133333Y-103207200D02*
X123228571Y-103254819D01*
X123228571Y-103254819D02*
X123419047Y-103254819D01*
X123419047Y-103254819D02*
X123514285Y-103207200D01*
X123514285Y-103207200D02*
X123561904Y-103159580D01*
X123561904Y-103159580D02*
X123609523Y-103064342D01*
X123609523Y-103064342D02*
X123609523Y-102254819D01*
X124228571Y-102683390D02*
X124133333Y-102635771D01*
X124133333Y-102635771D02*
X124085714Y-102588152D01*
X124085714Y-102588152D02*
X124038095Y-102492914D01*
X124038095Y-102492914D02*
X124038095Y-102445295D01*
X124038095Y-102445295D02*
X124085714Y-102350057D01*
X124085714Y-102350057D02*
X124133333Y-102302438D01*
X124133333Y-102302438D02*
X124228571Y-102254819D01*
X124228571Y-102254819D02*
X124419047Y-102254819D01*
X124419047Y-102254819D02*
X124514285Y-102302438D01*
X124514285Y-102302438D02*
X124561904Y-102350057D01*
X124561904Y-102350057D02*
X124609523Y-102445295D01*
X124609523Y-102445295D02*
X124609523Y-102492914D01*
X124609523Y-102492914D02*
X124561904Y-102588152D01*
X124561904Y-102588152D02*
X124514285Y-102635771D01*
X124514285Y-102635771D02*
X124419047Y-102683390D01*
X124419047Y-102683390D02*
X124228571Y-102683390D01*
X124228571Y-102683390D02*
X124133333Y-102731009D01*
X124133333Y-102731009D02*
X124085714Y-102778628D01*
X124085714Y-102778628D02*
X124038095Y-102873866D01*
X124038095Y-102873866D02*
X124038095Y-103064342D01*
X124038095Y-103064342D02*
X124085714Y-103159580D01*
X124085714Y-103159580D02*
X124133333Y-103207200D01*
X124133333Y-103207200D02*
X124228571Y-103254819D01*
X124228571Y-103254819D02*
X124419047Y-103254819D01*
X124419047Y-103254819D02*
X124514285Y-103207200D01*
X124514285Y-103207200D02*
X124561904Y-103159580D01*
X124561904Y-103159580D02*
X124609523Y-103064342D01*
X124609523Y-103064342D02*
X124609523Y-102873866D01*
X124609523Y-102873866D02*
X124561904Y-102778628D01*
X124561904Y-102778628D02*
X124514285Y-102731009D01*
X124514285Y-102731009D02*
X124419047Y-102683390D01*
X164409843Y-103269819D02*
X164409843Y-104079342D01*
X164409843Y-104079342D02*
X164457462Y-104174580D01*
X164457462Y-104174580D02*
X164505081Y-104222200D01*
X164505081Y-104222200D02*
X164600319Y-104269819D01*
X164600319Y-104269819D02*
X164790795Y-104269819D01*
X164790795Y-104269819D02*
X164886033Y-104222200D01*
X164886033Y-104222200D02*
X164933652Y-104174580D01*
X164933652Y-104174580D02*
X164981271Y-104079342D01*
X164981271Y-104079342D02*
X164981271Y-103269819D01*
X165362224Y-103269819D02*
X166028890Y-103269819D01*
X166028890Y-103269819D02*
X165600319Y-104269819D01*
X113265595Y-103654819D02*
X113265595Y-104464342D01*
X113265595Y-104464342D02*
X113313214Y-104559580D01*
X113313214Y-104559580D02*
X113360833Y-104607200D01*
X113360833Y-104607200D02*
X113456071Y-104654819D01*
X113456071Y-104654819D02*
X113646547Y-104654819D01*
X113646547Y-104654819D02*
X113741785Y-104607200D01*
X113741785Y-104607200D02*
X113789404Y-104559580D01*
X113789404Y-104559580D02*
X113837023Y-104464342D01*
X113837023Y-104464342D02*
X113837023Y-103654819D01*
X114741785Y-103654819D02*
X114551309Y-103654819D01*
X114551309Y-103654819D02*
X114456071Y-103702438D01*
X114456071Y-103702438D02*
X114408452Y-103750057D01*
X114408452Y-103750057D02*
X114313214Y-103892914D01*
X114313214Y-103892914D02*
X114265595Y-104083390D01*
X114265595Y-104083390D02*
X114265595Y-104464342D01*
X114265595Y-104464342D02*
X114313214Y-104559580D01*
X114313214Y-104559580D02*
X114360833Y-104607200D01*
X114360833Y-104607200D02*
X114456071Y-104654819D01*
X114456071Y-104654819D02*
X114646547Y-104654819D01*
X114646547Y-104654819D02*
X114741785Y-104607200D01*
X114741785Y-104607200D02*
X114789404Y-104559580D01*
X114789404Y-104559580D02*
X114837023Y-104464342D01*
X114837023Y-104464342D02*
X114837023Y-104226247D01*
X114837023Y-104226247D02*
X114789404Y-104131009D01*
X114789404Y-104131009D02*
X114741785Y-104083390D01*
X114741785Y-104083390D02*
X114646547Y-104035771D01*
X114646547Y-104035771D02*
X114456071Y-104035771D01*
X114456071Y-104035771D02*
X114360833Y-104083390D01*
X114360833Y-104083390D02*
X114313214Y-104131009D01*
X114313214Y-104131009D02*
X114265595Y-104226247D01*
X159843643Y-103269819D02*
X159843643Y-104079342D01*
X159843643Y-104079342D02*
X159891262Y-104174580D01*
X159891262Y-104174580D02*
X159938881Y-104222200D01*
X159938881Y-104222200D02*
X160034119Y-104269819D01*
X160034119Y-104269819D02*
X160224595Y-104269819D01*
X160224595Y-104269819D02*
X160319833Y-104222200D01*
X160319833Y-104222200D02*
X160367452Y-104174580D01*
X160367452Y-104174580D02*
X160415071Y-104079342D01*
X160415071Y-104079342D02*
X160415071Y-103269819D01*
X161319833Y-103603152D02*
X161319833Y-104269819D01*
X161081738Y-103222200D02*
X160843643Y-103936485D01*
X160843643Y-103936485D02*
X161462690Y-103936485D01*
X123100595Y-95129819D02*
X123100595Y-95939342D01*
X123100595Y-95939342D02*
X123148214Y-96034580D01*
X123148214Y-96034580D02*
X123195833Y-96082200D01*
X123195833Y-96082200D02*
X123291071Y-96129819D01*
X123291071Y-96129819D02*
X123481547Y-96129819D01*
X123481547Y-96129819D02*
X123576785Y-96082200D01*
X123576785Y-96082200D02*
X123624404Y-96034580D01*
X123624404Y-96034580D02*
X123672023Y-95939342D01*
X123672023Y-95939342D02*
X123672023Y-95129819D01*
X124100595Y-95225057D02*
X124148214Y-95177438D01*
X124148214Y-95177438D02*
X124243452Y-95129819D01*
X124243452Y-95129819D02*
X124481547Y-95129819D01*
X124481547Y-95129819D02*
X124576785Y-95177438D01*
X124576785Y-95177438D02*
X124624404Y-95225057D01*
X124624404Y-95225057D02*
X124672023Y-95320295D01*
X124672023Y-95320295D02*
X124672023Y-95415533D01*
X124672023Y-95415533D02*
X124624404Y-95558390D01*
X124624404Y-95558390D02*
X124052976Y-96129819D01*
X124052976Y-96129819D02*
X124672023Y-96129819D01*
X122600595Y-88129819D02*
X122600595Y-88939342D01*
X122600595Y-88939342D02*
X122648214Y-89034580D01*
X122648214Y-89034580D02*
X122695833Y-89082200D01*
X122695833Y-89082200D02*
X122791071Y-89129819D01*
X122791071Y-89129819D02*
X122981547Y-89129819D01*
X122981547Y-89129819D02*
X123076785Y-89082200D01*
X123076785Y-89082200D02*
X123124404Y-89034580D01*
X123124404Y-89034580D02*
X123172023Y-88939342D01*
X123172023Y-88939342D02*
X123172023Y-88129819D01*
X124172023Y-89129819D02*
X123600595Y-89129819D01*
X123886309Y-89129819D02*
X123886309Y-88129819D01*
X123886309Y-88129819D02*
X123791071Y-88272676D01*
X123791071Y-88272676D02*
X123695833Y-88367914D01*
X123695833Y-88367914D02*
X123600595Y-88415533D01*
X162828705Y-83595019D02*
X163400133Y-83595019D01*
X163114419Y-84595019D02*
X163114419Y-83595019D01*
X163733467Y-84595019D02*
X163733467Y-83595019D01*
X163733467Y-83595019D02*
X164114419Y-83595019D01*
X164114419Y-83595019D02*
X164209657Y-83642638D01*
X164209657Y-83642638D02*
X164257276Y-83690257D01*
X164257276Y-83690257D02*
X164304895Y-83785495D01*
X164304895Y-83785495D02*
X164304895Y-83928352D01*
X164304895Y-83928352D02*
X164257276Y-84023590D01*
X164257276Y-84023590D02*
X164209657Y-84071209D01*
X164209657Y-84071209D02*
X164114419Y-84118828D01*
X164114419Y-84118828D02*
X163733467Y-84118828D01*
X165257276Y-84595019D02*
X164685848Y-84595019D01*
X164971562Y-84595019D02*
X164971562Y-83595019D01*
X164971562Y-83595019D02*
X164876324Y-83737876D01*
X164876324Y-83737876D02*
X164781086Y-83833114D01*
X164781086Y-83833114D02*
X164685848Y-83880733D01*
X165638229Y-83690257D02*
X165685848Y-83642638D01*
X165685848Y-83642638D02*
X165781086Y-83595019D01*
X165781086Y-83595019D02*
X166019181Y-83595019D01*
X166019181Y-83595019D02*
X166114419Y-83642638D01*
X166114419Y-83642638D02*
X166162038Y-83690257D01*
X166162038Y-83690257D02*
X166209657Y-83785495D01*
X166209657Y-83785495D02*
X166209657Y-83880733D01*
X166209657Y-83880733D02*
X166162038Y-84023590D01*
X166162038Y-84023590D02*
X165590610Y-84595019D01*
X165590610Y-84595019D02*
X166209657Y-84595019D01*
X162828705Y-79545019D02*
X163400133Y-79545019D01*
X163114419Y-80545019D02*
X163114419Y-79545019D01*
X163733467Y-80545019D02*
X163733467Y-79545019D01*
X163733467Y-79545019D02*
X164114419Y-79545019D01*
X164114419Y-79545019D02*
X164209657Y-79592638D01*
X164209657Y-79592638D02*
X164257276Y-79640257D01*
X164257276Y-79640257D02*
X164304895Y-79735495D01*
X164304895Y-79735495D02*
X164304895Y-79878352D01*
X164304895Y-79878352D02*
X164257276Y-79973590D01*
X164257276Y-79973590D02*
X164209657Y-80021209D01*
X164209657Y-80021209D02*
X164114419Y-80068828D01*
X164114419Y-80068828D02*
X163733467Y-80068828D01*
X165257276Y-80545019D02*
X164685848Y-80545019D01*
X164971562Y-80545019D02*
X164971562Y-79545019D01*
X164971562Y-79545019D02*
X164876324Y-79687876D01*
X164876324Y-79687876D02*
X164781086Y-79783114D01*
X164781086Y-79783114D02*
X164685848Y-79830733D01*
X165876324Y-79545019D02*
X165971562Y-79545019D01*
X165971562Y-79545019D02*
X166066800Y-79592638D01*
X166066800Y-79592638D02*
X166114419Y-79640257D01*
X166114419Y-79640257D02*
X166162038Y-79735495D01*
X166162038Y-79735495D02*
X166209657Y-79925971D01*
X166209657Y-79925971D02*
X166209657Y-80164066D01*
X166209657Y-80164066D02*
X166162038Y-80354542D01*
X166162038Y-80354542D02*
X166114419Y-80449780D01*
X166114419Y-80449780D02*
X166066800Y-80497400D01*
X166066800Y-80497400D02*
X165971562Y-80545019D01*
X165971562Y-80545019D02*
X165876324Y-80545019D01*
X165876324Y-80545019D02*
X165781086Y-80497400D01*
X165781086Y-80497400D02*
X165733467Y-80449780D01*
X165733467Y-80449780D02*
X165685848Y-80354542D01*
X165685848Y-80354542D02*
X165638229Y-80164066D01*
X165638229Y-80164066D02*
X165638229Y-79925971D01*
X165638229Y-79925971D02*
X165685848Y-79735495D01*
X165685848Y-79735495D02*
X165733467Y-79640257D01*
X165733467Y-79640257D02*
X165781086Y-79592638D01*
X165781086Y-79592638D02*
X165876324Y-79545019D01*
X163304895Y-75495019D02*
X163876323Y-75495019D01*
X163590609Y-76495019D02*
X163590609Y-75495019D01*
X164209657Y-76495019D02*
X164209657Y-75495019D01*
X164209657Y-75495019D02*
X164590609Y-75495019D01*
X164590609Y-75495019D02*
X164685847Y-75542638D01*
X164685847Y-75542638D02*
X164733466Y-75590257D01*
X164733466Y-75590257D02*
X164781085Y-75685495D01*
X164781085Y-75685495D02*
X164781085Y-75828352D01*
X164781085Y-75828352D02*
X164733466Y-75923590D01*
X164733466Y-75923590D02*
X164685847Y-75971209D01*
X164685847Y-75971209D02*
X164590609Y-76018828D01*
X164590609Y-76018828D02*
X164209657Y-76018828D01*
X165257276Y-76495019D02*
X165447752Y-76495019D01*
X165447752Y-76495019D02*
X165542990Y-76447400D01*
X165542990Y-76447400D02*
X165590609Y-76399780D01*
X165590609Y-76399780D02*
X165685847Y-76256923D01*
X165685847Y-76256923D02*
X165733466Y-76066447D01*
X165733466Y-76066447D02*
X165733466Y-75685495D01*
X165733466Y-75685495D02*
X165685847Y-75590257D01*
X165685847Y-75590257D02*
X165638228Y-75542638D01*
X165638228Y-75542638D02*
X165542990Y-75495019D01*
X165542990Y-75495019D02*
X165352514Y-75495019D01*
X165352514Y-75495019D02*
X165257276Y-75542638D01*
X165257276Y-75542638D02*
X165209657Y-75590257D01*
X165209657Y-75590257D02*
X165162038Y-75685495D01*
X165162038Y-75685495D02*
X165162038Y-75923590D01*
X165162038Y-75923590D02*
X165209657Y-76018828D01*
X165209657Y-76018828D02*
X165257276Y-76066447D01*
X165257276Y-76066447D02*
X165352514Y-76114066D01*
X165352514Y-76114066D02*
X165542990Y-76114066D01*
X165542990Y-76114066D02*
X165638228Y-76066447D01*
X165638228Y-76066447D02*
X165685847Y-76018828D01*
X165685847Y-76018828D02*
X165733466Y-75923590D01*
X163304895Y-71445019D02*
X163876323Y-71445019D01*
X163590609Y-72445019D02*
X163590609Y-71445019D01*
X164209657Y-72445019D02*
X164209657Y-71445019D01*
X164209657Y-71445019D02*
X164590609Y-71445019D01*
X164590609Y-71445019D02*
X164685847Y-71492638D01*
X164685847Y-71492638D02*
X164733466Y-71540257D01*
X164733466Y-71540257D02*
X164781085Y-71635495D01*
X164781085Y-71635495D02*
X164781085Y-71778352D01*
X164781085Y-71778352D02*
X164733466Y-71873590D01*
X164733466Y-71873590D02*
X164685847Y-71921209D01*
X164685847Y-71921209D02*
X164590609Y-71968828D01*
X164590609Y-71968828D02*
X164209657Y-71968828D01*
X165352514Y-71873590D02*
X165257276Y-71825971D01*
X165257276Y-71825971D02*
X165209657Y-71778352D01*
X165209657Y-71778352D02*
X165162038Y-71683114D01*
X165162038Y-71683114D02*
X165162038Y-71635495D01*
X165162038Y-71635495D02*
X165209657Y-71540257D01*
X165209657Y-71540257D02*
X165257276Y-71492638D01*
X165257276Y-71492638D02*
X165352514Y-71445019D01*
X165352514Y-71445019D02*
X165542990Y-71445019D01*
X165542990Y-71445019D02*
X165638228Y-71492638D01*
X165638228Y-71492638D02*
X165685847Y-71540257D01*
X165685847Y-71540257D02*
X165733466Y-71635495D01*
X165733466Y-71635495D02*
X165733466Y-71683114D01*
X165733466Y-71683114D02*
X165685847Y-71778352D01*
X165685847Y-71778352D02*
X165638228Y-71825971D01*
X165638228Y-71825971D02*
X165542990Y-71873590D01*
X165542990Y-71873590D02*
X165352514Y-71873590D01*
X165352514Y-71873590D02*
X165257276Y-71921209D01*
X165257276Y-71921209D02*
X165209657Y-71968828D01*
X165209657Y-71968828D02*
X165162038Y-72064066D01*
X165162038Y-72064066D02*
X165162038Y-72254542D01*
X165162038Y-72254542D02*
X165209657Y-72349780D01*
X165209657Y-72349780D02*
X165257276Y-72397400D01*
X165257276Y-72397400D02*
X165352514Y-72445019D01*
X165352514Y-72445019D02*
X165542990Y-72445019D01*
X165542990Y-72445019D02*
X165638228Y-72397400D01*
X165638228Y-72397400D02*
X165685847Y-72349780D01*
X165685847Y-72349780D02*
X165733466Y-72254542D01*
X165733466Y-72254542D02*
X165733466Y-72064066D01*
X165733466Y-72064066D02*
X165685847Y-71968828D01*
X165685847Y-71968828D02*
X165638228Y-71921209D01*
X165638228Y-71921209D02*
X165542990Y-71873590D01*
X163304895Y-67395019D02*
X163876323Y-67395019D01*
X163590609Y-68395019D02*
X163590609Y-67395019D01*
X164209657Y-68395019D02*
X164209657Y-67395019D01*
X164209657Y-67395019D02*
X164590609Y-67395019D01*
X164590609Y-67395019D02*
X164685847Y-67442638D01*
X164685847Y-67442638D02*
X164733466Y-67490257D01*
X164733466Y-67490257D02*
X164781085Y-67585495D01*
X164781085Y-67585495D02*
X164781085Y-67728352D01*
X164781085Y-67728352D02*
X164733466Y-67823590D01*
X164733466Y-67823590D02*
X164685847Y-67871209D01*
X164685847Y-67871209D02*
X164590609Y-67918828D01*
X164590609Y-67918828D02*
X164209657Y-67918828D01*
X165114419Y-67395019D02*
X165781085Y-67395019D01*
X165781085Y-67395019D02*
X165352514Y-68395019D01*
X159254895Y-83595019D02*
X159826323Y-83595019D01*
X159540609Y-84595019D02*
X159540609Y-83595019D01*
X160159657Y-84595019D02*
X160159657Y-83595019D01*
X160159657Y-83595019D02*
X160540609Y-83595019D01*
X160540609Y-83595019D02*
X160635847Y-83642638D01*
X160635847Y-83642638D02*
X160683466Y-83690257D01*
X160683466Y-83690257D02*
X160731085Y-83785495D01*
X160731085Y-83785495D02*
X160731085Y-83928352D01*
X160731085Y-83928352D02*
X160683466Y-84023590D01*
X160683466Y-84023590D02*
X160635847Y-84071209D01*
X160635847Y-84071209D02*
X160540609Y-84118828D01*
X160540609Y-84118828D02*
X160159657Y-84118828D01*
X161588228Y-83595019D02*
X161397752Y-83595019D01*
X161397752Y-83595019D02*
X161302514Y-83642638D01*
X161302514Y-83642638D02*
X161254895Y-83690257D01*
X161254895Y-83690257D02*
X161159657Y-83833114D01*
X161159657Y-83833114D02*
X161112038Y-84023590D01*
X161112038Y-84023590D02*
X161112038Y-84404542D01*
X161112038Y-84404542D02*
X161159657Y-84499780D01*
X161159657Y-84499780D02*
X161207276Y-84547400D01*
X161207276Y-84547400D02*
X161302514Y-84595019D01*
X161302514Y-84595019D02*
X161492990Y-84595019D01*
X161492990Y-84595019D02*
X161588228Y-84547400D01*
X161588228Y-84547400D02*
X161635847Y-84499780D01*
X161635847Y-84499780D02*
X161683466Y-84404542D01*
X161683466Y-84404542D02*
X161683466Y-84166447D01*
X161683466Y-84166447D02*
X161635847Y-84071209D01*
X161635847Y-84071209D02*
X161588228Y-84023590D01*
X161588228Y-84023590D02*
X161492990Y-83975971D01*
X161492990Y-83975971D02*
X161302514Y-83975971D01*
X161302514Y-83975971D02*
X161207276Y-84023590D01*
X161207276Y-84023590D02*
X161159657Y-84071209D01*
X161159657Y-84071209D02*
X161112038Y-84166447D01*
X159254895Y-79545019D02*
X159826323Y-79545019D01*
X159540609Y-80545019D02*
X159540609Y-79545019D01*
X160159657Y-80545019D02*
X160159657Y-79545019D01*
X160159657Y-79545019D02*
X160540609Y-79545019D01*
X160540609Y-79545019D02*
X160635847Y-79592638D01*
X160635847Y-79592638D02*
X160683466Y-79640257D01*
X160683466Y-79640257D02*
X160731085Y-79735495D01*
X160731085Y-79735495D02*
X160731085Y-79878352D01*
X160731085Y-79878352D02*
X160683466Y-79973590D01*
X160683466Y-79973590D02*
X160635847Y-80021209D01*
X160635847Y-80021209D02*
X160540609Y-80068828D01*
X160540609Y-80068828D02*
X160159657Y-80068828D01*
X161588228Y-79878352D02*
X161588228Y-80545019D01*
X161350133Y-79497400D02*
X161112038Y-80211685D01*
X161112038Y-80211685D02*
X161731085Y-80211685D01*
X159254895Y-75495019D02*
X159826323Y-75495019D01*
X159540609Y-76495019D02*
X159540609Y-75495019D01*
X160159657Y-76495019D02*
X160159657Y-75495019D01*
X160159657Y-75495019D02*
X160540609Y-75495019D01*
X160540609Y-75495019D02*
X160635847Y-75542638D01*
X160635847Y-75542638D02*
X160683466Y-75590257D01*
X160683466Y-75590257D02*
X160731085Y-75685495D01*
X160731085Y-75685495D02*
X160731085Y-75828352D01*
X160731085Y-75828352D02*
X160683466Y-75923590D01*
X160683466Y-75923590D02*
X160635847Y-75971209D01*
X160635847Y-75971209D02*
X160540609Y-76018828D01*
X160540609Y-76018828D02*
X160159657Y-76018828D01*
X161064419Y-75495019D02*
X161683466Y-75495019D01*
X161683466Y-75495019D02*
X161350133Y-75875971D01*
X161350133Y-75875971D02*
X161492990Y-75875971D01*
X161492990Y-75875971D02*
X161588228Y-75923590D01*
X161588228Y-75923590D02*
X161635847Y-75971209D01*
X161635847Y-75971209D02*
X161683466Y-76066447D01*
X161683466Y-76066447D02*
X161683466Y-76304542D01*
X161683466Y-76304542D02*
X161635847Y-76399780D01*
X161635847Y-76399780D02*
X161588228Y-76447400D01*
X161588228Y-76447400D02*
X161492990Y-76495019D01*
X161492990Y-76495019D02*
X161207276Y-76495019D01*
X161207276Y-76495019D02*
X161112038Y-76447400D01*
X161112038Y-76447400D02*
X161064419Y-76399780D01*
X159254895Y-71445019D02*
X159826323Y-71445019D01*
X159540609Y-72445019D02*
X159540609Y-71445019D01*
X160159657Y-72445019D02*
X160159657Y-71445019D01*
X160159657Y-71445019D02*
X160540609Y-71445019D01*
X160540609Y-71445019D02*
X160635847Y-71492638D01*
X160635847Y-71492638D02*
X160683466Y-71540257D01*
X160683466Y-71540257D02*
X160731085Y-71635495D01*
X160731085Y-71635495D02*
X160731085Y-71778352D01*
X160731085Y-71778352D02*
X160683466Y-71873590D01*
X160683466Y-71873590D02*
X160635847Y-71921209D01*
X160635847Y-71921209D02*
X160540609Y-71968828D01*
X160540609Y-71968828D02*
X160159657Y-71968828D01*
X161112038Y-71540257D02*
X161159657Y-71492638D01*
X161159657Y-71492638D02*
X161254895Y-71445019D01*
X161254895Y-71445019D02*
X161492990Y-71445019D01*
X161492990Y-71445019D02*
X161588228Y-71492638D01*
X161588228Y-71492638D02*
X161635847Y-71540257D01*
X161635847Y-71540257D02*
X161683466Y-71635495D01*
X161683466Y-71635495D02*
X161683466Y-71730733D01*
X161683466Y-71730733D02*
X161635847Y-71873590D01*
X161635847Y-71873590D02*
X161064419Y-72445019D01*
X161064419Y-72445019D02*
X161683466Y-72445019D01*
X159254895Y-67395019D02*
X159826323Y-67395019D01*
X159540609Y-68395019D02*
X159540609Y-67395019D01*
X160159657Y-68395019D02*
X160159657Y-67395019D01*
X160159657Y-67395019D02*
X160540609Y-67395019D01*
X160540609Y-67395019D02*
X160635847Y-67442638D01*
X160635847Y-67442638D02*
X160683466Y-67490257D01*
X160683466Y-67490257D02*
X160731085Y-67585495D01*
X160731085Y-67585495D02*
X160731085Y-67728352D01*
X160731085Y-67728352D02*
X160683466Y-67823590D01*
X160683466Y-67823590D02*
X160635847Y-67871209D01*
X160635847Y-67871209D02*
X160540609Y-67918828D01*
X160540609Y-67918828D02*
X160159657Y-67918828D01*
X161683466Y-68395019D02*
X161112038Y-68395019D01*
X161397752Y-68395019D02*
X161397752Y-67395019D01*
X161397752Y-67395019D02*
X161302514Y-67537876D01*
X161302514Y-67537876D02*
X161207276Y-67633114D01*
X161207276Y-67633114D02*
X161112038Y-67680733D01*
X178166667Y-71507200D02*
X178309524Y-71554819D01*
X178309524Y-71554819D02*
X178547619Y-71554819D01*
X178547619Y-71554819D02*
X178642857Y-71507200D01*
X178642857Y-71507200D02*
X178690476Y-71459580D01*
X178690476Y-71459580D02*
X178738095Y-71364342D01*
X178738095Y-71364342D02*
X178738095Y-71269104D01*
X178738095Y-71269104D02*
X178690476Y-71173866D01*
X178690476Y-71173866D02*
X178642857Y-71126247D01*
X178642857Y-71126247D02*
X178547619Y-71078628D01*
X178547619Y-71078628D02*
X178357143Y-71031009D01*
X178357143Y-71031009D02*
X178261905Y-70983390D01*
X178261905Y-70983390D02*
X178214286Y-70935771D01*
X178214286Y-70935771D02*
X178166667Y-70840533D01*
X178166667Y-70840533D02*
X178166667Y-70745295D01*
X178166667Y-70745295D02*
X178214286Y-70650057D01*
X178214286Y-70650057D02*
X178261905Y-70602438D01*
X178261905Y-70602438D02*
X178357143Y-70554819D01*
X178357143Y-70554819D02*
X178595238Y-70554819D01*
X178595238Y-70554819D02*
X178738095Y-70602438D01*
X179071429Y-70554819D02*
X179309524Y-71554819D01*
X179309524Y-71554819D02*
X179500000Y-70840533D01*
X179500000Y-70840533D02*
X179690476Y-71554819D01*
X179690476Y-71554819D02*
X179928572Y-70554819D01*
X180833333Y-71554819D02*
X180261905Y-71554819D01*
X180547619Y-71554819D02*
X180547619Y-70554819D01*
X180547619Y-70554819D02*
X180452381Y-70697676D01*
X180452381Y-70697676D02*
X180357143Y-70792914D01*
X180357143Y-70792914D02*
X180261905Y-70840533D01*
X168836142Y-84720569D02*
X168502809Y-84244378D01*
X168264714Y-84720569D02*
X168264714Y-83720569D01*
X168264714Y-83720569D02*
X168645666Y-83720569D01*
X168645666Y-83720569D02*
X168740904Y-83768188D01*
X168740904Y-83768188D02*
X168788523Y-83815807D01*
X168788523Y-83815807D02*
X168836142Y-83911045D01*
X168836142Y-83911045D02*
X168836142Y-84053902D01*
X168836142Y-84053902D02*
X168788523Y-84149140D01*
X168788523Y-84149140D02*
X168740904Y-84196759D01*
X168740904Y-84196759D02*
X168645666Y-84244378D01*
X168645666Y-84244378D02*
X168264714Y-84244378D01*
X169788523Y-84720569D02*
X169217095Y-84720569D01*
X169502809Y-84720569D02*
X169502809Y-83720569D01*
X169502809Y-83720569D02*
X169407571Y-83863426D01*
X169407571Y-83863426D02*
X169312333Y-83958664D01*
X169312333Y-83958664D02*
X169217095Y-84006283D01*
X170645666Y-83720569D02*
X170455190Y-83720569D01*
X170455190Y-83720569D02*
X170359952Y-83768188D01*
X170359952Y-83768188D02*
X170312333Y-83815807D01*
X170312333Y-83815807D02*
X170217095Y-83958664D01*
X170217095Y-83958664D02*
X170169476Y-84149140D01*
X170169476Y-84149140D02*
X170169476Y-84530092D01*
X170169476Y-84530092D02*
X170217095Y-84625330D01*
X170217095Y-84625330D02*
X170264714Y-84672950D01*
X170264714Y-84672950D02*
X170359952Y-84720569D01*
X170359952Y-84720569D02*
X170550428Y-84720569D01*
X170550428Y-84720569D02*
X170645666Y-84672950D01*
X170645666Y-84672950D02*
X170693285Y-84625330D01*
X170693285Y-84625330D02*
X170740904Y-84530092D01*
X170740904Y-84530092D02*
X170740904Y-84291997D01*
X170740904Y-84291997D02*
X170693285Y-84196759D01*
X170693285Y-84196759D02*
X170645666Y-84149140D01*
X170645666Y-84149140D02*
X170550428Y-84101521D01*
X170550428Y-84101521D02*
X170359952Y-84101521D01*
X170359952Y-84101521D02*
X170264714Y-84149140D01*
X170264714Y-84149140D02*
X170217095Y-84196759D01*
X170217095Y-84196759D02*
X170169476Y-84291997D01*
X168836142Y-81410069D02*
X168502809Y-80933878D01*
X168264714Y-81410069D02*
X168264714Y-80410069D01*
X168264714Y-80410069D02*
X168645666Y-80410069D01*
X168645666Y-80410069D02*
X168740904Y-80457688D01*
X168740904Y-80457688D02*
X168788523Y-80505307D01*
X168788523Y-80505307D02*
X168836142Y-80600545D01*
X168836142Y-80600545D02*
X168836142Y-80743402D01*
X168836142Y-80743402D02*
X168788523Y-80838640D01*
X168788523Y-80838640D02*
X168740904Y-80886259D01*
X168740904Y-80886259D02*
X168645666Y-80933878D01*
X168645666Y-80933878D02*
X168264714Y-80933878D01*
X169788523Y-81410069D02*
X169217095Y-81410069D01*
X169502809Y-81410069D02*
X169502809Y-80410069D01*
X169502809Y-80410069D02*
X169407571Y-80552926D01*
X169407571Y-80552926D02*
X169312333Y-80648164D01*
X169312333Y-80648164D02*
X169217095Y-80695783D01*
X170693285Y-80410069D02*
X170217095Y-80410069D01*
X170217095Y-80410069D02*
X170169476Y-80886259D01*
X170169476Y-80886259D02*
X170217095Y-80838640D01*
X170217095Y-80838640D02*
X170312333Y-80791021D01*
X170312333Y-80791021D02*
X170550428Y-80791021D01*
X170550428Y-80791021D02*
X170645666Y-80838640D01*
X170645666Y-80838640D02*
X170693285Y-80886259D01*
X170693285Y-80886259D02*
X170740904Y-80981497D01*
X170740904Y-80981497D02*
X170740904Y-81219592D01*
X170740904Y-81219592D02*
X170693285Y-81314830D01*
X170693285Y-81314830D02*
X170645666Y-81362450D01*
X170645666Y-81362450D02*
X170550428Y-81410069D01*
X170550428Y-81410069D02*
X170312333Y-81410069D01*
X170312333Y-81410069D02*
X170217095Y-81362450D01*
X170217095Y-81362450D02*
X170169476Y-81314830D01*
X147977142Y-106204819D02*
X147643809Y-105728628D01*
X147405714Y-106204819D02*
X147405714Y-105204819D01*
X147405714Y-105204819D02*
X147786666Y-105204819D01*
X147786666Y-105204819D02*
X147881904Y-105252438D01*
X147881904Y-105252438D02*
X147929523Y-105300057D01*
X147929523Y-105300057D02*
X147977142Y-105395295D01*
X147977142Y-105395295D02*
X147977142Y-105538152D01*
X147977142Y-105538152D02*
X147929523Y-105633390D01*
X147929523Y-105633390D02*
X147881904Y-105681009D01*
X147881904Y-105681009D02*
X147786666Y-105728628D01*
X147786666Y-105728628D02*
X147405714Y-105728628D01*
X148929523Y-106204819D02*
X148358095Y-106204819D01*
X148643809Y-106204819D02*
X148643809Y-105204819D01*
X148643809Y-105204819D02*
X148548571Y-105347676D01*
X148548571Y-105347676D02*
X148453333Y-105442914D01*
X148453333Y-105442914D02*
X148358095Y-105490533D01*
X149310476Y-105300057D02*
X149358095Y-105252438D01*
X149358095Y-105252438D02*
X149453333Y-105204819D01*
X149453333Y-105204819D02*
X149691428Y-105204819D01*
X149691428Y-105204819D02*
X149786666Y-105252438D01*
X149786666Y-105252438D02*
X149834285Y-105300057D01*
X149834285Y-105300057D02*
X149881904Y-105395295D01*
X149881904Y-105395295D02*
X149881904Y-105490533D01*
X149881904Y-105490533D02*
X149834285Y-105633390D01*
X149834285Y-105633390D02*
X149262857Y-106204819D01*
X149262857Y-106204819D02*
X149881904Y-106204819D01*
X113357142Y-100304819D02*
X113023809Y-99828628D01*
X112785714Y-100304819D02*
X112785714Y-99304819D01*
X112785714Y-99304819D02*
X113166666Y-99304819D01*
X113166666Y-99304819D02*
X113261904Y-99352438D01*
X113261904Y-99352438D02*
X113309523Y-99400057D01*
X113309523Y-99400057D02*
X113357142Y-99495295D01*
X113357142Y-99495295D02*
X113357142Y-99638152D01*
X113357142Y-99638152D02*
X113309523Y-99733390D01*
X113309523Y-99733390D02*
X113261904Y-99781009D01*
X113261904Y-99781009D02*
X113166666Y-99828628D01*
X113166666Y-99828628D02*
X112785714Y-99828628D01*
X114309523Y-100304819D02*
X113738095Y-100304819D01*
X114023809Y-100304819D02*
X114023809Y-99304819D01*
X114023809Y-99304819D02*
X113928571Y-99447676D01*
X113928571Y-99447676D02*
X113833333Y-99542914D01*
X113833333Y-99542914D02*
X113738095Y-99590533D01*
X115261904Y-100304819D02*
X114690476Y-100304819D01*
X114976190Y-100304819D02*
X114976190Y-99304819D01*
X114976190Y-99304819D02*
X114880952Y-99447676D01*
X114880952Y-99447676D02*
X114785714Y-99542914D01*
X114785714Y-99542914D02*
X114690476Y-99590533D01*
X139770633Y-106729769D02*
X139437300Y-106253578D01*
X139199205Y-106729769D02*
X139199205Y-105729769D01*
X139199205Y-105729769D02*
X139580157Y-105729769D01*
X139580157Y-105729769D02*
X139675395Y-105777388D01*
X139675395Y-105777388D02*
X139723014Y-105825007D01*
X139723014Y-105825007D02*
X139770633Y-105920245D01*
X139770633Y-105920245D02*
X139770633Y-106063102D01*
X139770633Y-106063102D02*
X139723014Y-106158340D01*
X139723014Y-106158340D02*
X139675395Y-106205959D01*
X139675395Y-106205959D02*
X139580157Y-106253578D01*
X139580157Y-106253578D02*
X139199205Y-106253578D01*
X140246824Y-106729769D02*
X140437300Y-106729769D01*
X140437300Y-106729769D02*
X140532538Y-106682150D01*
X140532538Y-106682150D02*
X140580157Y-106634530D01*
X140580157Y-106634530D02*
X140675395Y-106491673D01*
X140675395Y-106491673D02*
X140723014Y-106301197D01*
X140723014Y-106301197D02*
X140723014Y-105920245D01*
X140723014Y-105920245D02*
X140675395Y-105825007D01*
X140675395Y-105825007D02*
X140627776Y-105777388D01*
X140627776Y-105777388D02*
X140532538Y-105729769D01*
X140532538Y-105729769D02*
X140342062Y-105729769D01*
X140342062Y-105729769D02*
X140246824Y-105777388D01*
X140246824Y-105777388D02*
X140199205Y-105825007D01*
X140199205Y-105825007D02*
X140151586Y-105920245D01*
X140151586Y-105920245D02*
X140151586Y-106158340D01*
X140151586Y-106158340D02*
X140199205Y-106253578D01*
X140199205Y-106253578D02*
X140246824Y-106301197D01*
X140246824Y-106301197D02*
X140342062Y-106348816D01*
X140342062Y-106348816D02*
X140532538Y-106348816D01*
X140532538Y-106348816D02*
X140627776Y-106301197D01*
X140627776Y-106301197D02*
X140675395Y-106253578D01*
X140675395Y-106253578D02*
X140723014Y-106158340D01*
X148453333Y-104454819D02*
X148120000Y-103978628D01*
X147881905Y-104454819D02*
X147881905Y-103454819D01*
X147881905Y-103454819D02*
X148262857Y-103454819D01*
X148262857Y-103454819D02*
X148358095Y-103502438D01*
X148358095Y-103502438D02*
X148405714Y-103550057D01*
X148405714Y-103550057D02*
X148453333Y-103645295D01*
X148453333Y-103645295D02*
X148453333Y-103788152D01*
X148453333Y-103788152D02*
X148405714Y-103883390D01*
X148405714Y-103883390D02*
X148358095Y-103931009D01*
X148358095Y-103931009D02*
X148262857Y-103978628D01*
X148262857Y-103978628D02*
X147881905Y-103978628D01*
X149024762Y-103883390D02*
X148929524Y-103835771D01*
X148929524Y-103835771D02*
X148881905Y-103788152D01*
X148881905Y-103788152D02*
X148834286Y-103692914D01*
X148834286Y-103692914D02*
X148834286Y-103645295D01*
X148834286Y-103645295D02*
X148881905Y-103550057D01*
X148881905Y-103550057D02*
X148929524Y-103502438D01*
X148929524Y-103502438D02*
X149024762Y-103454819D01*
X149024762Y-103454819D02*
X149215238Y-103454819D01*
X149215238Y-103454819D02*
X149310476Y-103502438D01*
X149310476Y-103502438D02*
X149358095Y-103550057D01*
X149358095Y-103550057D02*
X149405714Y-103645295D01*
X149405714Y-103645295D02*
X149405714Y-103692914D01*
X149405714Y-103692914D02*
X149358095Y-103788152D01*
X149358095Y-103788152D02*
X149310476Y-103835771D01*
X149310476Y-103835771D02*
X149215238Y-103883390D01*
X149215238Y-103883390D02*
X149024762Y-103883390D01*
X149024762Y-103883390D02*
X148929524Y-103931009D01*
X148929524Y-103931009D02*
X148881905Y-103978628D01*
X148881905Y-103978628D02*
X148834286Y-104073866D01*
X148834286Y-104073866D02*
X148834286Y-104264342D01*
X148834286Y-104264342D02*
X148881905Y-104359580D01*
X148881905Y-104359580D02*
X148929524Y-104407200D01*
X148929524Y-104407200D02*
X149024762Y-104454819D01*
X149024762Y-104454819D02*
X149215238Y-104454819D01*
X149215238Y-104454819D02*
X149310476Y-104407200D01*
X149310476Y-104407200D02*
X149358095Y-104359580D01*
X149358095Y-104359580D02*
X149405714Y-104264342D01*
X149405714Y-104264342D02*
X149405714Y-104073866D01*
X149405714Y-104073866D02*
X149358095Y-103978628D01*
X149358095Y-103978628D02*
X149310476Y-103931009D01*
X149310476Y-103931009D02*
X149215238Y-103883390D01*
X148453333Y-102704819D02*
X148120000Y-102228628D01*
X147881905Y-102704819D02*
X147881905Y-101704819D01*
X147881905Y-101704819D02*
X148262857Y-101704819D01*
X148262857Y-101704819D02*
X148358095Y-101752438D01*
X148358095Y-101752438D02*
X148405714Y-101800057D01*
X148405714Y-101800057D02*
X148453333Y-101895295D01*
X148453333Y-101895295D02*
X148453333Y-102038152D01*
X148453333Y-102038152D02*
X148405714Y-102133390D01*
X148405714Y-102133390D02*
X148358095Y-102181009D01*
X148358095Y-102181009D02*
X148262857Y-102228628D01*
X148262857Y-102228628D02*
X147881905Y-102228628D01*
X149310476Y-101704819D02*
X149120000Y-101704819D01*
X149120000Y-101704819D02*
X149024762Y-101752438D01*
X149024762Y-101752438D02*
X148977143Y-101800057D01*
X148977143Y-101800057D02*
X148881905Y-101942914D01*
X148881905Y-101942914D02*
X148834286Y-102133390D01*
X148834286Y-102133390D02*
X148834286Y-102514342D01*
X148834286Y-102514342D02*
X148881905Y-102609580D01*
X148881905Y-102609580D02*
X148929524Y-102657200D01*
X148929524Y-102657200D02*
X149024762Y-102704819D01*
X149024762Y-102704819D02*
X149215238Y-102704819D01*
X149215238Y-102704819D02*
X149310476Y-102657200D01*
X149310476Y-102657200D02*
X149358095Y-102609580D01*
X149358095Y-102609580D02*
X149405714Y-102514342D01*
X149405714Y-102514342D02*
X149405714Y-102276247D01*
X149405714Y-102276247D02*
X149358095Y-102181009D01*
X149358095Y-102181009D02*
X149310476Y-102133390D01*
X149310476Y-102133390D02*
X149215238Y-102085771D01*
X149215238Y-102085771D02*
X149024762Y-102085771D01*
X149024762Y-102085771D02*
X148929524Y-102133390D01*
X148929524Y-102133390D02*
X148881905Y-102181009D01*
X148881905Y-102181009D02*
X148834286Y-102276247D01*
X148453333Y-100954819D02*
X148120000Y-100478628D01*
X147881905Y-100954819D02*
X147881905Y-99954819D01*
X147881905Y-99954819D02*
X148262857Y-99954819D01*
X148262857Y-99954819D02*
X148358095Y-100002438D01*
X148358095Y-100002438D02*
X148405714Y-100050057D01*
X148405714Y-100050057D02*
X148453333Y-100145295D01*
X148453333Y-100145295D02*
X148453333Y-100288152D01*
X148453333Y-100288152D02*
X148405714Y-100383390D01*
X148405714Y-100383390D02*
X148358095Y-100431009D01*
X148358095Y-100431009D02*
X148262857Y-100478628D01*
X148262857Y-100478628D02*
X147881905Y-100478628D01*
X149358095Y-99954819D02*
X148881905Y-99954819D01*
X148881905Y-99954819D02*
X148834286Y-100431009D01*
X148834286Y-100431009D02*
X148881905Y-100383390D01*
X148881905Y-100383390D02*
X148977143Y-100335771D01*
X148977143Y-100335771D02*
X149215238Y-100335771D01*
X149215238Y-100335771D02*
X149310476Y-100383390D01*
X149310476Y-100383390D02*
X149358095Y-100431009D01*
X149358095Y-100431009D02*
X149405714Y-100526247D01*
X149405714Y-100526247D02*
X149405714Y-100764342D01*
X149405714Y-100764342D02*
X149358095Y-100859580D01*
X149358095Y-100859580D02*
X149310476Y-100907200D01*
X149310476Y-100907200D02*
X149215238Y-100954819D01*
X149215238Y-100954819D02*
X148977143Y-100954819D01*
X148977143Y-100954819D02*
X148881905Y-100907200D01*
X148881905Y-100907200D02*
X148834286Y-100859580D01*
X169312333Y-78099569D02*
X168979000Y-77623378D01*
X168740905Y-78099569D02*
X168740905Y-77099569D01*
X168740905Y-77099569D02*
X169121857Y-77099569D01*
X169121857Y-77099569D02*
X169217095Y-77147188D01*
X169217095Y-77147188D02*
X169264714Y-77194807D01*
X169264714Y-77194807D02*
X169312333Y-77290045D01*
X169312333Y-77290045D02*
X169312333Y-77432902D01*
X169312333Y-77432902D02*
X169264714Y-77528140D01*
X169264714Y-77528140D02*
X169217095Y-77575759D01*
X169217095Y-77575759D02*
X169121857Y-77623378D01*
X169121857Y-77623378D02*
X168740905Y-77623378D01*
X170169476Y-77432902D02*
X170169476Y-78099569D01*
X169931381Y-77051950D02*
X169693286Y-77766235D01*
X169693286Y-77766235D02*
X170312333Y-77766235D01*
X169312333Y-74789069D02*
X168979000Y-74312878D01*
X168740905Y-74789069D02*
X168740905Y-73789069D01*
X168740905Y-73789069D02*
X169121857Y-73789069D01*
X169121857Y-73789069D02*
X169217095Y-73836688D01*
X169217095Y-73836688D02*
X169264714Y-73884307D01*
X169264714Y-73884307D02*
X169312333Y-73979545D01*
X169312333Y-73979545D02*
X169312333Y-74122402D01*
X169312333Y-74122402D02*
X169264714Y-74217640D01*
X169264714Y-74217640D02*
X169217095Y-74265259D01*
X169217095Y-74265259D02*
X169121857Y-74312878D01*
X169121857Y-74312878D02*
X168740905Y-74312878D01*
X169645667Y-73789069D02*
X170264714Y-73789069D01*
X170264714Y-73789069D02*
X169931381Y-74170021D01*
X169931381Y-74170021D02*
X170074238Y-74170021D01*
X170074238Y-74170021D02*
X170169476Y-74217640D01*
X170169476Y-74217640D02*
X170217095Y-74265259D01*
X170217095Y-74265259D02*
X170264714Y-74360497D01*
X170264714Y-74360497D02*
X170264714Y-74598592D01*
X170264714Y-74598592D02*
X170217095Y-74693830D01*
X170217095Y-74693830D02*
X170169476Y-74741450D01*
X170169476Y-74741450D02*
X170074238Y-74789069D01*
X170074238Y-74789069D02*
X169788524Y-74789069D01*
X169788524Y-74789069D02*
X169693286Y-74741450D01*
X169693286Y-74741450D02*
X169645667Y-74693830D01*
X169312333Y-71478569D02*
X168979000Y-71002378D01*
X168740905Y-71478569D02*
X168740905Y-70478569D01*
X168740905Y-70478569D02*
X169121857Y-70478569D01*
X169121857Y-70478569D02*
X169217095Y-70526188D01*
X169217095Y-70526188D02*
X169264714Y-70573807D01*
X169264714Y-70573807D02*
X169312333Y-70669045D01*
X169312333Y-70669045D02*
X169312333Y-70811902D01*
X169312333Y-70811902D02*
X169264714Y-70907140D01*
X169264714Y-70907140D02*
X169217095Y-70954759D01*
X169217095Y-70954759D02*
X169121857Y-71002378D01*
X169121857Y-71002378D02*
X168740905Y-71002378D01*
X169693286Y-70573807D02*
X169740905Y-70526188D01*
X169740905Y-70526188D02*
X169836143Y-70478569D01*
X169836143Y-70478569D02*
X170074238Y-70478569D01*
X170074238Y-70478569D02*
X170169476Y-70526188D01*
X170169476Y-70526188D02*
X170217095Y-70573807D01*
X170217095Y-70573807D02*
X170264714Y-70669045D01*
X170264714Y-70669045D02*
X170264714Y-70764283D01*
X170264714Y-70764283D02*
X170217095Y-70907140D01*
X170217095Y-70907140D02*
X169645667Y-71478569D01*
X169645667Y-71478569D02*
X170264714Y-71478569D01*
X169312333Y-68168069D02*
X168979000Y-67691878D01*
X168740905Y-68168069D02*
X168740905Y-67168069D01*
X168740905Y-67168069D02*
X169121857Y-67168069D01*
X169121857Y-67168069D02*
X169217095Y-67215688D01*
X169217095Y-67215688D02*
X169264714Y-67263307D01*
X169264714Y-67263307D02*
X169312333Y-67358545D01*
X169312333Y-67358545D02*
X169312333Y-67501402D01*
X169312333Y-67501402D02*
X169264714Y-67596640D01*
X169264714Y-67596640D02*
X169217095Y-67644259D01*
X169217095Y-67644259D02*
X169121857Y-67691878D01*
X169121857Y-67691878D02*
X168740905Y-67691878D01*
X170264714Y-68168069D02*
X169693286Y-68168069D01*
X169979000Y-68168069D02*
X169979000Y-67168069D01*
X169979000Y-67168069D02*
X169883762Y-67310926D01*
X169883762Y-67310926D02*
X169788524Y-67406164D01*
X169788524Y-67406164D02*
X169693286Y-67453783D01*
X114170833Y-93904819D02*
X113694643Y-93904819D01*
X113694643Y-93904819D02*
X113694643Y-92904819D01*
X115027976Y-93904819D02*
X114456548Y-93904819D01*
X114742262Y-93904819D02*
X114742262Y-92904819D01*
X114742262Y-92904819D02*
X114647024Y-93047676D01*
X114647024Y-93047676D02*
X114551786Y-93142914D01*
X114551786Y-93142914D02*
X114456548Y-93190533D01*
X174094166Y-99044819D02*
X174094166Y-99759104D01*
X174094166Y-99759104D02*
X174046547Y-99901961D01*
X174046547Y-99901961D02*
X173951309Y-99997200D01*
X173951309Y-99997200D02*
X173808452Y-100044819D01*
X173808452Y-100044819D02*
X173713214Y-100044819D01*
X174570357Y-100044819D02*
X174570357Y-99044819D01*
X174570357Y-99044819D02*
X174951309Y-99044819D01*
X174951309Y-99044819D02*
X175046547Y-99092438D01*
X175046547Y-99092438D02*
X175094166Y-99140057D01*
X175094166Y-99140057D02*
X175141785Y-99235295D01*
X175141785Y-99235295D02*
X175141785Y-99378152D01*
X175141785Y-99378152D02*
X175094166Y-99473390D01*
X175094166Y-99473390D02*
X175046547Y-99521009D01*
X175046547Y-99521009D02*
X174951309Y-99568628D01*
X174951309Y-99568628D02*
X174570357Y-99568628D01*
X175998928Y-99378152D02*
X175998928Y-100044819D01*
X175760833Y-98997200D02*
X175522738Y-99711485D01*
X175522738Y-99711485D02*
X176141785Y-99711485D01*
X174094166Y-95494819D02*
X174094166Y-96209104D01*
X174094166Y-96209104D02*
X174046547Y-96351961D01*
X174046547Y-96351961D02*
X173951309Y-96447200D01*
X173951309Y-96447200D02*
X173808452Y-96494819D01*
X173808452Y-96494819D02*
X173713214Y-96494819D01*
X174570357Y-96494819D02*
X174570357Y-95494819D01*
X174570357Y-95494819D02*
X174951309Y-95494819D01*
X174951309Y-95494819D02*
X175046547Y-95542438D01*
X175046547Y-95542438D02*
X175094166Y-95590057D01*
X175094166Y-95590057D02*
X175141785Y-95685295D01*
X175141785Y-95685295D02*
X175141785Y-95828152D01*
X175141785Y-95828152D02*
X175094166Y-95923390D01*
X175094166Y-95923390D02*
X175046547Y-95971009D01*
X175046547Y-95971009D02*
X174951309Y-96018628D01*
X174951309Y-96018628D02*
X174570357Y-96018628D01*
X175475119Y-95494819D02*
X176094166Y-95494819D01*
X176094166Y-95494819D02*
X175760833Y-95875771D01*
X175760833Y-95875771D02*
X175903690Y-95875771D01*
X175903690Y-95875771D02*
X175998928Y-95923390D01*
X175998928Y-95923390D02*
X176046547Y-95971009D01*
X176046547Y-95971009D02*
X176094166Y-96066247D01*
X176094166Y-96066247D02*
X176094166Y-96304342D01*
X176094166Y-96304342D02*
X176046547Y-96399580D01*
X176046547Y-96399580D02*
X175998928Y-96447200D01*
X175998928Y-96447200D02*
X175903690Y-96494819D01*
X175903690Y-96494819D02*
X175617976Y-96494819D01*
X175617976Y-96494819D02*
X175522738Y-96447200D01*
X175522738Y-96447200D02*
X175475119Y-96399580D01*
X174094166Y-91944819D02*
X174094166Y-92659104D01*
X174094166Y-92659104D02*
X174046547Y-92801961D01*
X174046547Y-92801961D02*
X173951309Y-92897200D01*
X173951309Y-92897200D02*
X173808452Y-92944819D01*
X173808452Y-92944819D02*
X173713214Y-92944819D01*
X174570357Y-92944819D02*
X174570357Y-91944819D01*
X174570357Y-91944819D02*
X174951309Y-91944819D01*
X174951309Y-91944819D02*
X175046547Y-91992438D01*
X175046547Y-91992438D02*
X175094166Y-92040057D01*
X175094166Y-92040057D02*
X175141785Y-92135295D01*
X175141785Y-92135295D02*
X175141785Y-92278152D01*
X175141785Y-92278152D02*
X175094166Y-92373390D01*
X175094166Y-92373390D02*
X175046547Y-92421009D01*
X175046547Y-92421009D02*
X174951309Y-92468628D01*
X174951309Y-92468628D02*
X174570357Y-92468628D01*
X175522738Y-92040057D02*
X175570357Y-91992438D01*
X175570357Y-91992438D02*
X175665595Y-91944819D01*
X175665595Y-91944819D02*
X175903690Y-91944819D01*
X175903690Y-91944819D02*
X175998928Y-91992438D01*
X175998928Y-91992438D02*
X176046547Y-92040057D01*
X176046547Y-92040057D02*
X176094166Y-92135295D01*
X176094166Y-92135295D02*
X176094166Y-92230533D01*
X176094166Y-92230533D02*
X176046547Y-92373390D01*
X176046547Y-92373390D02*
X175475119Y-92944819D01*
X175475119Y-92944819D02*
X176094166Y-92944819D01*
X174094166Y-88394819D02*
X174094166Y-89109104D01*
X174094166Y-89109104D02*
X174046547Y-89251961D01*
X174046547Y-89251961D02*
X173951309Y-89347200D01*
X173951309Y-89347200D02*
X173808452Y-89394819D01*
X173808452Y-89394819D02*
X173713214Y-89394819D01*
X174570357Y-89394819D02*
X174570357Y-88394819D01*
X174570357Y-88394819D02*
X174951309Y-88394819D01*
X174951309Y-88394819D02*
X175046547Y-88442438D01*
X175046547Y-88442438D02*
X175094166Y-88490057D01*
X175094166Y-88490057D02*
X175141785Y-88585295D01*
X175141785Y-88585295D02*
X175141785Y-88728152D01*
X175141785Y-88728152D02*
X175094166Y-88823390D01*
X175094166Y-88823390D02*
X175046547Y-88871009D01*
X175046547Y-88871009D02*
X174951309Y-88918628D01*
X174951309Y-88918628D02*
X174570357Y-88918628D01*
X176094166Y-89394819D02*
X175522738Y-89394819D01*
X175808452Y-89394819D02*
X175808452Y-88394819D01*
X175808452Y-88394819D02*
X175713214Y-88537676D01*
X175713214Y-88537676D02*
X175617976Y-88632914D01*
X175617976Y-88632914D02*
X175522738Y-88680533D01*
X115166666Y-75004819D02*
X115166666Y-75719104D01*
X115166666Y-75719104D02*
X115119047Y-75861961D01*
X115119047Y-75861961D02*
X115023809Y-75957200D01*
X115023809Y-75957200D02*
X114880952Y-76004819D01*
X114880952Y-76004819D02*
X114785714Y-76004819D01*
X115547619Y-75004819D02*
X116166666Y-75004819D01*
X116166666Y-75004819D02*
X115833333Y-75385771D01*
X115833333Y-75385771D02*
X115976190Y-75385771D01*
X115976190Y-75385771D02*
X116071428Y-75433390D01*
X116071428Y-75433390D02*
X116119047Y-75481009D01*
X116119047Y-75481009D02*
X116166666Y-75576247D01*
X116166666Y-75576247D02*
X116166666Y-75814342D01*
X116166666Y-75814342D02*
X116119047Y-75909580D01*
X116119047Y-75909580D02*
X116071428Y-75957200D01*
X116071428Y-75957200D02*
X115976190Y-76004819D01*
X115976190Y-76004819D02*
X115690476Y-76004819D01*
X115690476Y-76004819D02*
X115595238Y-75957200D01*
X115595238Y-75957200D02*
X115547619Y-75909580D01*
X135833333Y-74565180D02*
X135833333Y-73850895D01*
X135833333Y-73850895D02*
X135880952Y-73708038D01*
X135880952Y-73708038D02*
X135976190Y-73612800D01*
X135976190Y-73612800D02*
X136119047Y-73565180D01*
X136119047Y-73565180D02*
X136214285Y-73565180D01*
X135404761Y-74469942D02*
X135357142Y-74517561D01*
X135357142Y-74517561D02*
X135261904Y-74565180D01*
X135261904Y-74565180D02*
X135023809Y-74565180D01*
X135023809Y-74565180D02*
X134928571Y-74517561D01*
X134928571Y-74517561D02*
X134880952Y-74469942D01*
X134880952Y-74469942D02*
X134833333Y-74374704D01*
X134833333Y-74374704D02*
X134833333Y-74279466D01*
X134833333Y-74279466D02*
X134880952Y-74136609D01*
X134880952Y-74136609D02*
X135452380Y-73565180D01*
X135452380Y-73565180D02*
X134833333Y-73565180D01*
X172064819Y-115603333D02*
X172779104Y-115603333D01*
X172779104Y-115603333D02*
X172921961Y-115650952D01*
X172921961Y-115650952D02*
X173017200Y-115746190D01*
X173017200Y-115746190D02*
X173064819Y-115889047D01*
X173064819Y-115889047D02*
X173064819Y-115984285D01*
X173064819Y-114603333D02*
X173064819Y-115174761D01*
X173064819Y-114889047D02*
X172064819Y-114889047D01*
X172064819Y-114889047D02*
X172207676Y-114984285D01*
X172207676Y-114984285D02*
X172302914Y-115079523D01*
X172302914Y-115079523D02*
X172350533Y-115174761D01*
X149238095Y-87654819D02*
X149238095Y-86654819D01*
X149238095Y-87131009D02*
X149809523Y-87131009D01*
X149809523Y-87654819D02*
X149809523Y-86654819D01*
X150190476Y-86654819D02*
X150809523Y-86654819D01*
X150809523Y-86654819D02*
X150476190Y-87035771D01*
X150476190Y-87035771D02*
X150619047Y-87035771D01*
X150619047Y-87035771D02*
X150714285Y-87083390D01*
X150714285Y-87083390D02*
X150761904Y-87131009D01*
X150761904Y-87131009D02*
X150809523Y-87226247D01*
X150809523Y-87226247D02*
X150809523Y-87464342D01*
X150809523Y-87464342D02*
X150761904Y-87559580D01*
X150761904Y-87559580D02*
X150714285Y-87607200D01*
X150714285Y-87607200D02*
X150619047Y-87654819D01*
X150619047Y-87654819D02*
X150333333Y-87654819D01*
X150333333Y-87654819D02*
X150238095Y-87607200D01*
X150238095Y-87607200D02*
X150190476Y-87559580D01*
X149738095Y-78154819D02*
X149738095Y-77154819D01*
X149738095Y-77631009D02*
X150309523Y-77631009D01*
X150309523Y-78154819D02*
X150309523Y-77154819D01*
X150738095Y-77250057D02*
X150785714Y-77202438D01*
X150785714Y-77202438D02*
X150880952Y-77154819D01*
X150880952Y-77154819D02*
X151119047Y-77154819D01*
X151119047Y-77154819D02*
X151214285Y-77202438D01*
X151214285Y-77202438D02*
X151261904Y-77250057D01*
X151261904Y-77250057D02*
X151309523Y-77345295D01*
X151309523Y-77345295D02*
X151309523Y-77440533D01*
X151309523Y-77440533D02*
X151261904Y-77583390D01*
X151261904Y-77583390D02*
X150690476Y-78154819D01*
X150690476Y-78154819D02*
X151309523Y-78154819D01*
X149738095Y-69154819D02*
X149738095Y-68154819D01*
X149738095Y-68631009D02*
X150309523Y-68631009D01*
X150309523Y-69154819D02*
X150309523Y-68154819D01*
X151309523Y-69154819D02*
X150738095Y-69154819D01*
X151023809Y-69154819D02*
X151023809Y-68154819D01*
X151023809Y-68154819D02*
X150928571Y-68297676D01*
X150928571Y-68297676D02*
X150833333Y-68392914D01*
X150833333Y-68392914D02*
X150738095Y-68440533D01*
X113761905Y-109954819D02*
X113761905Y-108954819D01*
X113761905Y-108954819D02*
X114000000Y-108954819D01*
X114000000Y-108954819D02*
X114142857Y-109002438D01*
X114142857Y-109002438D02*
X114238095Y-109097676D01*
X114238095Y-109097676D02*
X114285714Y-109192914D01*
X114285714Y-109192914D02*
X114333333Y-109383390D01*
X114333333Y-109383390D02*
X114333333Y-109526247D01*
X114333333Y-109526247D02*
X114285714Y-109716723D01*
X114285714Y-109716723D02*
X114238095Y-109811961D01*
X114238095Y-109811961D02*
X114142857Y-109907200D01*
X114142857Y-109907200D02*
X114000000Y-109954819D01*
X114000000Y-109954819D02*
X113761905Y-109954819D01*
X114714286Y-109050057D02*
X114761905Y-109002438D01*
X114761905Y-109002438D02*
X114857143Y-108954819D01*
X114857143Y-108954819D02*
X115095238Y-108954819D01*
X115095238Y-108954819D02*
X115190476Y-109002438D01*
X115190476Y-109002438D02*
X115238095Y-109050057D01*
X115238095Y-109050057D02*
X115285714Y-109145295D01*
X115285714Y-109145295D02*
X115285714Y-109240533D01*
X115285714Y-109240533D02*
X115238095Y-109383390D01*
X115238095Y-109383390D02*
X114666667Y-109954819D01*
X114666667Y-109954819D02*
X115285714Y-109954819D01*
X169704642Y-95169580D02*
X169657023Y-95217200D01*
X169657023Y-95217200D02*
X169514166Y-95264819D01*
X169514166Y-95264819D02*
X169418928Y-95264819D01*
X169418928Y-95264819D02*
X169276071Y-95217200D01*
X169276071Y-95217200D02*
X169180833Y-95121961D01*
X169180833Y-95121961D02*
X169133214Y-95026723D01*
X169133214Y-95026723D02*
X169085595Y-94836247D01*
X169085595Y-94836247D02*
X169085595Y-94693390D01*
X169085595Y-94693390D02*
X169133214Y-94502914D01*
X169133214Y-94502914D02*
X169180833Y-94407676D01*
X169180833Y-94407676D02*
X169276071Y-94312438D01*
X169276071Y-94312438D02*
X169418928Y-94264819D01*
X169418928Y-94264819D02*
X169514166Y-94264819D01*
X169514166Y-94264819D02*
X169657023Y-94312438D01*
X169657023Y-94312438D02*
X169704642Y-94360057D01*
X170657023Y-95264819D02*
X170085595Y-95264819D01*
X170371309Y-95264819D02*
X170371309Y-94264819D01*
X170371309Y-94264819D02*
X170276071Y-94407676D01*
X170276071Y-94407676D02*
X170180833Y-94502914D01*
X170180833Y-94502914D02*
X170085595Y-94550533D01*
X170990357Y-94264819D02*
X171657023Y-94264819D01*
X171657023Y-94264819D02*
X171228452Y-95264819D01*
X147977142Y-99109580D02*
X147929523Y-99157200D01*
X147929523Y-99157200D02*
X147786666Y-99204819D01*
X147786666Y-99204819D02*
X147691428Y-99204819D01*
X147691428Y-99204819D02*
X147548571Y-99157200D01*
X147548571Y-99157200D02*
X147453333Y-99061961D01*
X147453333Y-99061961D02*
X147405714Y-98966723D01*
X147405714Y-98966723D02*
X147358095Y-98776247D01*
X147358095Y-98776247D02*
X147358095Y-98633390D01*
X147358095Y-98633390D02*
X147405714Y-98442914D01*
X147405714Y-98442914D02*
X147453333Y-98347676D01*
X147453333Y-98347676D02*
X147548571Y-98252438D01*
X147548571Y-98252438D02*
X147691428Y-98204819D01*
X147691428Y-98204819D02*
X147786666Y-98204819D01*
X147786666Y-98204819D02*
X147929523Y-98252438D01*
X147929523Y-98252438D02*
X147977142Y-98300057D01*
X148929523Y-99204819D02*
X148358095Y-99204819D01*
X148643809Y-99204819D02*
X148643809Y-98204819D01*
X148643809Y-98204819D02*
X148548571Y-98347676D01*
X148548571Y-98347676D02*
X148453333Y-98442914D01*
X148453333Y-98442914D02*
X148358095Y-98490533D01*
X149786666Y-98204819D02*
X149596190Y-98204819D01*
X149596190Y-98204819D02*
X149500952Y-98252438D01*
X149500952Y-98252438D02*
X149453333Y-98300057D01*
X149453333Y-98300057D02*
X149358095Y-98442914D01*
X149358095Y-98442914D02*
X149310476Y-98633390D01*
X149310476Y-98633390D02*
X149310476Y-99014342D01*
X149310476Y-99014342D02*
X149358095Y-99109580D01*
X149358095Y-99109580D02*
X149405714Y-99157200D01*
X149405714Y-99157200D02*
X149500952Y-99204819D01*
X149500952Y-99204819D02*
X149691428Y-99204819D01*
X149691428Y-99204819D02*
X149786666Y-99157200D01*
X149786666Y-99157200D02*
X149834285Y-99109580D01*
X149834285Y-99109580D02*
X149881904Y-99014342D01*
X149881904Y-99014342D02*
X149881904Y-98776247D01*
X149881904Y-98776247D02*
X149834285Y-98681009D01*
X149834285Y-98681009D02*
X149786666Y-98633390D01*
X149786666Y-98633390D02*
X149691428Y-98585771D01*
X149691428Y-98585771D02*
X149500952Y-98585771D01*
X149500952Y-98585771D02*
X149405714Y-98633390D01*
X149405714Y-98633390D02*
X149358095Y-98681009D01*
X149358095Y-98681009D02*
X149310476Y-98776247D01*
X147977142Y-97359580D02*
X147929523Y-97407200D01*
X147929523Y-97407200D02*
X147786666Y-97454819D01*
X147786666Y-97454819D02*
X147691428Y-97454819D01*
X147691428Y-97454819D02*
X147548571Y-97407200D01*
X147548571Y-97407200D02*
X147453333Y-97311961D01*
X147453333Y-97311961D02*
X147405714Y-97216723D01*
X147405714Y-97216723D02*
X147358095Y-97026247D01*
X147358095Y-97026247D02*
X147358095Y-96883390D01*
X147358095Y-96883390D02*
X147405714Y-96692914D01*
X147405714Y-96692914D02*
X147453333Y-96597676D01*
X147453333Y-96597676D02*
X147548571Y-96502438D01*
X147548571Y-96502438D02*
X147691428Y-96454819D01*
X147691428Y-96454819D02*
X147786666Y-96454819D01*
X147786666Y-96454819D02*
X147929523Y-96502438D01*
X147929523Y-96502438D02*
X147977142Y-96550057D01*
X148929523Y-97454819D02*
X148358095Y-97454819D01*
X148643809Y-97454819D02*
X148643809Y-96454819D01*
X148643809Y-96454819D02*
X148548571Y-96597676D01*
X148548571Y-96597676D02*
X148453333Y-96692914D01*
X148453333Y-96692914D02*
X148358095Y-96740533D01*
X149834285Y-96454819D02*
X149358095Y-96454819D01*
X149358095Y-96454819D02*
X149310476Y-96931009D01*
X149310476Y-96931009D02*
X149358095Y-96883390D01*
X149358095Y-96883390D02*
X149453333Y-96835771D01*
X149453333Y-96835771D02*
X149691428Y-96835771D01*
X149691428Y-96835771D02*
X149786666Y-96883390D01*
X149786666Y-96883390D02*
X149834285Y-96931009D01*
X149834285Y-96931009D02*
X149881904Y-97026247D01*
X149881904Y-97026247D02*
X149881904Y-97264342D01*
X149881904Y-97264342D02*
X149834285Y-97359580D01*
X149834285Y-97359580D02*
X149786666Y-97407200D01*
X149786666Y-97407200D02*
X149691428Y-97454819D01*
X149691428Y-97454819D02*
X149453333Y-97454819D01*
X149453333Y-97454819D02*
X149358095Y-97407200D01*
X149358095Y-97407200D02*
X149310476Y-97359580D01*
X169704642Y-92159580D02*
X169657023Y-92207200D01*
X169657023Y-92207200D02*
X169514166Y-92254819D01*
X169514166Y-92254819D02*
X169418928Y-92254819D01*
X169418928Y-92254819D02*
X169276071Y-92207200D01*
X169276071Y-92207200D02*
X169180833Y-92111961D01*
X169180833Y-92111961D02*
X169133214Y-92016723D01*
X169133214Y-92016723D02*
X169085595Y-91826247D01*
X169085595Y-91826247D02*
X169085595Y-91683390D01*
X169085595Y-91683390D02*
X169133214Y-91492914D01*
X169133214Y-91492914D02*
X169180833Y-91397676D01*
X169180833Y-91397676D02*
X169276071Y-91302438D01*
X169276071Y-91302438D02*
X169418928Y-91254819D01*
X169418928Y-91254819D02*
X169514166Y-91254819D01*
X169514166Y-91254819D02*
X169657023Y-91302438D01*
X169657023Y-91302438D02*
X169704642Y-91350057D01*
X170657023Y-92254819D02*
X170085595Y-92254819D01*
X170371309Y-92254819D02*
X170371309Y-91254819D01*
X170371309Y-91254819D02*
X170276071Y-91397676D01*
X170276071Y-91397676D02*
X170180833Y-91492914D01*
X170180833Y-91492914D02*
X170085595Y-91540533D01*
X171514166Y-91588152D02*
X171514166Y-92254819D01*
X171276071Y-91207200D02*
X171037976Y-91921485D01*
X171037976Y-91921485D02*
X171657023Y-91921485D01*
X169704642Y-89149580D02*
X169657023Y-89197200D01*
X169657023Y-89197200D02*
X169514166Y-89244819D01*
X169514166Y-89244819D02*
X169418928Y-89244819D01*
X169418928Y-89244819D02*
X169276071Y-89197200D01*
X169276071Y-89197200D02*
X169180833Y-89101961D01*
X169180833Y-89101961D02*
X169133214Y-89006723D01*
X169133214Y-89006723D02*
X169085595Y-88816247D01*
X169085595Y-88816247D02*
X169085595Y-88673390D01*
X169085595Y-88673390D02*
X169133214Y-88482914D01*
X169133214Y-88482914D02*
X169180833Y-88387676D01*
X169180833Y-88387676D02*
X169276071Y-88292438D01*
X169276071Y-88292438D02*
X169418928Y-88244819D01*
X169418928Y-88244819D02*
X169514166Y-88244819D01*
X169514166Y-88244819D02*
X169657023Y-88292438D01*
X169657023Y-88292438D02*
X169704642Y-88340057D01*
X170657023Y-89244819D02*
X170085595Y-89244819D01*
X170371309Y-89244819D02*
X170371309Y-88244819D01*
X170371309Y-88244819D02*
X170276071Y-88387676D01*
X170276071Y-88387676D02*
X170180833Y-88482914D01*
X170180833Y-88482914D02*
X170085595Y-88530533D01*
X170990357Y-88244819D02*
X171609404Y-88244819D01*
X171609404Y-88244819D02*
X171276071Y-88625771D01*
X171276071Y-88625771D02*
X171418928Y-88625771D01*
X171418928Y-88625771D02*
X171514166Y-88673390D01*
X171514166Y-88673390D02*
X171561785Y-88721009D01*
X171561785Y-88721009D02*
X171609404Y-88816247D01*
X171609404Y-88816247D02*
X171609404Y-89054342D01*
X171609404Y-89054342D02*
X171561785Y-89149580D01*
X171561785Y-89149580D02*
X171514166Y-89197200D01*
X171514166Y-89197200D02*
X171418928Y-89244819D01*
X171418928Y-89244819D02*
X171133214Y-89244819D01*
X171133214Y-89244819D02*
X171037976Y-89197200D01*
X171037976Y-89197200D02*
X170990357Y-89149580D01*
X164894642Y-101189580D02*
X164847023Y-101237200D01*
X164847023Y-101237200D02*
X164704166Y-101284819D01*
X164704166Y-101284819D02*
X164608928Y-101284819D01*
X164608928Y-101284819D02*
X164466071Y-101237200D01*
X164466071Y-101237200D02*
X164370833Y-101141961D01*
X164370833Y-101141961D02*
X164323214Y-101046723D01*
X164323214Y-101046723D02*
X164275595Y-100856247D01*
X164275595Y-100856247D02*
X164275595Y-100713390D01*
X164275595Y-100713390D02*
X164323214Y-100522914D01*
X164323214Y-100522914D02*
X164370833Y-100427676D01*
X164370833Y-100427676D02*
X164466071Y-100332438D01*
X164466071Y-100332438D02*
X164608928Y-100284819D01*
X164608928Y-100284819D02*
X164704166Y-100284819D01*
X164704166Y-100284819D02*
X164847023Y-100332438D01*
X164847023Y-100332438D02*
X164894642Y-100380057D01*
X165847023Y-101284819D02*
X165275595Y-101284819D01*
X165561309Y-101284819D02*
X165561309Y-100284819D01*
X165561309Y-100284819D02*
X165466071Y-100427676D01*
X165466071Y-100427676D02*
X165370833Y-100522914D01*
X165370833Y-100522914D02*
X165275595Y-100570533D01*
X166227976Y-100380057D02*
X166275595Y-100332438D01*
X166275595Y-100332438D02*
X166370833Y-100284819D01*
X166370833Y-100284819D02*
X166608928Y-100284819D01*
X166608928Y-100284819D02*
X166704166Y-100332438D01*
X166704166Y-100332438D02*
X166751785Y-100380057D01*
X166751785Y-100380057D02*
X166799404Y-100475295D01*
X166799404Y-100475295D02*
X166799404Y-100570533D01*
X166799404Y-100570533D02*
X166751785Y-100713390D01*
X166751785Y-100713390D02*
X166180357Y-101284819D01*
X166180357Y-101284819D02*
X166799404Y-101284819D01*
X164894642Y-98179580D02*
X164847023Y-98227200D01*
X164847023Y-98227200D02*
X164704166Y-98274819D01*
X164704166Y-98274819D02*
X164608928Y-98274819D01*
X164608928Y-98274819D02*
X164466071Y-98227200D01*
X164466071Y-98227200D02*
X164370833Y-98131961D01*
X164370833Y-98131961D02*
X164323214Y-98036723D01*
X164323214Y-98036723D02*
X164275595Y-97846247D01*
X164275595Y-97846247D02*
X164275595Y-97703390D01*
X164275595Y-97703390D02*
X164323214Y-97512914D01*
X164323214Y-97512914D02*
X164370833Y-97417676D01*
X164370833Y-97417676D02*
X164466071Y-97322438D01*
X164466071Y-97322438D02*
X164608928Y-97274819D01*
X164608928Y-97274819D02*
X164704166Y-97274819D01*
X164704166Y-97274819D02*
X164847023Y-97322438D01*
X164847023Y-97322438D02*
X164894642Y-97370057D01*
X165847023Y-98274819D02*
X165275595Y-98274819D01*
X165561309Y-98274819D02*
X165561309Y-97274819D01*
X165561309Y-97274819D02*
X165466071Y-97417676D01*
X165466071Y-97417676D02*
X165370833Y-97512914D01*
X165370833Y-97512914D02*
X165275595Y-97560533D01*
X166799404Y-98274819D02*
X166227976Y-98274819D01*
X166513690Y-98274819D02*
X166513690Y-97274819D01*
X166513690Y-97274819D02*
X166418452Y-97417676D01*
X166418452Y-97417676D02*
X166323214Y-97512914D01*
X166323214Y-97512914D02*
X166227976Y-97560533D01*
X165370833Y-95169580D02*
X165323214Y-95217200D01*
X165323214Y-95217200D02*
X165180357Y-95264819D01*
X165180357Y-95264819D02*
X165085119Y-95264819D01*
X165085119Y-95264819D02*
X164942262Y-95217200D01*
X164942262Y-95217200D02*
X164847024Y-95121961D01*
X164847024Y-95121961D02*
X164799405Y-95026723D01*
X164799405Y-95026723D02*
X164751786Y-94836247D01*
X164751786Y-94836247D02*
X164751786Y-94693390D01*
X164751786Y-94693390D02*
X164799405Y-94502914D01*
X164799405Y-94502914D02*
X164847024Y-94407676D01*
X164847024Y-94407676D02*
X164942262Y-94312438D01*
X164942262Y-94312438D02*
X165085119Y-94264819D01*
X165085119Y-94264819D02*
X165180357Y-94264819D01*
X165180357Y-94264819D02*
X165323214Y-94312438D01*
X165323214Y-94312438D02*
X165370833Y-94360057D01*
X165942262Y-94693390D02*
X165847024Y-94645771D01*
X165847024Y-94645771D02*
X165799405Y-94598152D01*
X165799405Y-94598152D02*
X165751786Y-94502914D01*
X165751786Y-94502914D02*
X165751786Y-94455295D01*
X165751786Y-94455295D02*
X165799405Y-94360057D01*
X165799405Y-94360057D02*
X165847024Y-94312438D01*
X165847024Y-94312438D02*
X165942262Y-94264819D01*
X165942262Y-94264819D02*
X166132738Y-94264819D01*
X166132738Y-94264819D02*
X166227976Y-94312438D01*
X166227976Y-94312438D02*
X166275595Y-94360057D01*
X166275595Y-94360057D02*
X166323214Y-94455295D01*
X166323214Y-94455295D02*
X166323214Y-94502914D01*
X166323214Y-94502914D02*
X166275595Y-94598152D01*
X166275595Y-94598152D02*
X166227976Y-94645771D01*
X166227976Y-94645771D02*
X166132738Y-94693390D01*
X166132738Y-94693390D02*
X165942262Y-94693390D01*
X165942262Y-94693390D02*
X165847024Y-94741009D01*
X165847024Y-94741009D02*
X165799405Y-94788628D01*
X165799405Y-94788628D02*
X165751786Y-94883866D01*
X165751786Y-94883866D02*
X165751786Y-95074342D01*
X165751786Y-95074342D02*
X165799405Y-95169580D01*
X165799405Y-95169580D02*
X165847024Y-95217200D01*
X165847024Y-95217200D02*
X165942262Y-95264819D01*
X165942262Y-95264819D02*
X166132738Y-95264819D01*
X166132738Y-95264819D02*
X166227976Y-95217200D01*
X166227976Y-95217200D02*
X166275595Y-95169580D01*
X166275595Y-95169580D02*
X166323214Y-95074342D01*
X166323214Y-95074342D02*
X166323214Y-94883866D01*
X166323214Y-94883866D02*
X166275595Y-94788628D01*
X166275595Y-94788628D02*
X166227976Y-94741009D01*
X166227976Y-94741009D02*
X166132738Y-94693390D01*
X165370833Y-92159580D02*
X165323214Y-92207200D01*
X165323214Y-92207200D02*
X165180357Y-92254819D01*
X165180357Y-92254819D02*
X165085119Y-92254819D01*
X165085119Y-92254819D02*
X164942262Y-92207200D01*
X164942262Y-92207200D02*
X164847024Y-92111961D01*
X164847024Y-92111961D02*
X164799405Y-92016723D01*
X164799405Y-92016723D02*
X164751786Y-91826247D01*
X164751786Y-91826247D02*
X164751786Y-91683390D01*
X164751786Y-91683390D02*
X164799405Y-91492914D01*
X164799405Y-91492914D02*
X164847024Y-91397676D01*
X164847024Y-91397676D02*
X164942262Y-91302438D01*
X164942262Y-91302438D02*
X165085119Y-91254819D01*
X165085119Y-91254819D02*
X165180357Y-91254819D01*
X165180357Y-91254819D02*
X165323214Y-91302438D01*
X165323214Y-91302438D02*
X165370833Y-91350057D01*
X165704167Y-91254819D02*
X166370833Y-91254819D01*
X166370833Y-91254819D02*
X165942262Y-92254819D01*
X165370833Y-89149580D02*
X165323214Y-89197200D01*
X165323214Y-89197200D02*
X165180357Y-89244819D01*
X165180357Y-89244819D02*
X165085119Y-89244819D01*
X165085119Y-89244819D02*
X164942262Y-89197200D01*
X164942262Y-89197200D02*
X164847024Y-89101961D01*
X164847024Y-89101961D02*
X164799405Y-89006723D01*
X164799405Y-89006723D02*
X164751786Y-88816247D01*
X164751786Y-88816247D02*
X164751786Y-88673390D01*
X164751786Y-88673390D02*
X164799405Y-88482914D01*
X164799405Y-88482914D02*
X164847024Y-88387676D01*
X164847024Y-88387676D02*
X164942262Y-88292438D01*
X164942262Y-88292438D02*
X165085119Y-88244819D01*
X165085119Y-88244819D02*
X165180357Y-88244819D01*
X165180357Y-88244819D02*
X165323214Y-88292438D01*
X165323214Y-88292438D02*
X165370833Y-88340057D01*
X166227976Y-88244819D02*
X166037500Y-88244819D01*
X166037500Y-88244819D02*
X165942262Y-88292438D01*
X165942262Y-88292438D02*
X165894643Y-88340057D01*
X165894643Y-88340057D02*
X165799405Y-88482914D01*
X165799405Y-88482914D02*
X165751786Y-88673390D01*
X165751786Y-88673390D02*
X165751786Y-89054342D01*
X165751786Y-89054342D02*
X165799405Y-89149580D01*
X165799405Y-89149580D02*
X165847024Y-89197200D01*
X165847024Y-89197200D02*
X165942262Y-89244819D01*
X165942262Y-89244819D02*
X166132738Y-89244819D01*
X166132738Y-89244819D02*
X166227976Y-89197200D01*
X166227976Y-89197200D02*
X166275595Y-89149580D01*
X166275595Y-89149580D02*
X166323214Y-89054342D01*
X166323214Y-89054342D02*
X166323214Y-88816247D01*
X166323214Y-88816247D02*
X166275595Y-88721009D01*
X166275595Y-88721009D02*
X166227976Y-88673390D01*
X166227976Y-88673390D02*
X166132738Y-88625771D01*
X166132738Y-88625771D02*
X165942262Y-88625771D01*
X165942262Y-88625771D02*
X165847024Y-88673390D01*
X165847024Y-88673390D02*
X165799405Y-88721009D01*
X165799405Y-88721009D02*
X165751786Y-88816247D01*
X160560833Y-101189580D02*
X160513214Y-101237200D01*
X160513214Y-101237200D02*
X160370357Y-101284819D01*
X160370357Y-101284819D02*
X160275119Y-101284819D01*
X160275119Y-101284819D02*
X160132262Y-101237200D01*
X160132262Y-101237200D02*
X160037024Y-101141961D01*
X160037024Y-101141961D02*
X159989405Y-101046723D01*
X159989405Y-101046723D02*
X159941786Y-100856247D01*
X159941786Y-100856247D02*
X159941786Y-100713390D01*
X159941786Y-100713390D02*
X159989405Y-100522914D01*
X159989405Y-100522914D02*
X160037024Y-100427676D01*
X160037024Y-100427676D02*
X160132262Y-100332438D01*
X160132262Y-100332438D02*
X160275119Y-100284819D01*
X160275119Y-100284819D02*
X160370357Y-100284819D01*
X160370357Y-100284819D02*
X160513214Y-100332438D01*
X160513214Y-100332438D02*
X160560833Y-100380057D01*
X161465595Y-100284819D02*
X160989405Y-100284819D01*
X160989405Y-100284819D02*
X160941786Y-100761009D01*
X160941786Y-100761009D02*
X160989405Y-100713390D01*
X160989405Y-100713390D02*
X161084643Y-100665771D01*
X161084643Y-100665771D02*
X161322738Y-100665771D01*
X161322738Y-100665771D02*
X161417976Y-100713390D01*
X161417976Y-100713390D02*
X161465595Y-100761009D01*
X161465595Y-100761009D02*
X161513214Y-100856247D01*
X161513214Y-100856247D02*
X161513214Y-101094342D01*
X161513214Y-101094342D02*
X161465595Y-101189580D01*
X161465595Y-101189580D02*
X161417976Y-101237200D01*
X161417976Y-101237200D02*
X161322738Y-101284819D01*
X161322738Y-101284819D02*
X161084643Y-101284819D01*
X161084643Y-101284819D02*
X160989405Y-101237200D01*
X160989405Y-101237200D02*
X160941786Y-101189580D01*
X160560833Y-98179580D02*
X160513214Y-98227200D01*
X160513214Y-98227200D02*
X160370357Y-98274819D01*
X160370357Y-98274819D02*
X160275119Y-98274819D01*
X160275119Y-98274819D02*
X160132262Y-98227200D01*
X160132262Y-98227200D02*
X160037024Y-98131961D01*
X160037024Y-98131961D02*
X159989405Y-98036723D01*
X159989405Y-98036723D02*
X159941786Y-97846247D01*
X159941786Y-97846247D02*
X159941786Y-97703390D01*
X159941786Y-97703390D02*
X159989405Y-97512914D01*
X159989405Y-97512914D02*
X160037024Y-97417676D01*
X160037024Y-97417676D02*
X160132262Y-97322438D01*
X160132262Y-97322438D02*
X160275119Y-97274819D01*
X160275119Y-97274819D02*
X160370357Y-97274819D01*
X160370357Y-97274819D02*
X160513214Y-97322438D01*
X160513214Y-97322438D02*
X160560833Y-97370057D01*
X161417976Y-97608152D02*
X161417976Y-98274819D01*
X161179881Y-97227200D02*
X160941786Y-97941485D01*
X160941786Y-97941485D02*
X161560833Y-97941485D01*
X160560833Y-95169580D02*
X160513214Y-95217200D01*
X160513214Y-95217200D02*
X160370357Y-95264819D01*
X160370357Y-95264819D02*
X160275119Y-95264819D01*
X160275119Y-95264819D02*
X160132262Y-95217200D01*
X160132262Y-95217200D02*
X160037024Y-95121961D01*
X160037024Y-95121961D02*
X159989405Y-95026723D01*
X159989405Y-95026723D02*
X159941786Y-94836247D01*
X159941786Y-94836247D02*
X159941786Y-94693390D01*
X159941786Y-94693390D02*
X159989405Y-94502914D01*
X159989405Y-94502914D02*
X160037024Y-94407676D01*
X160037024Y-94407676D02*
X160132262Y-94312438D01*
X160132262Y-94312438D02*
X160275119Y-94264819D01*
X160275119Y-94264819D02*
X160370357Y-94264819D01*
X160370357Y-94264819D02*
X160513214Y-94312438D01*
X160513214Y-94312438D02*
X160560833Y-94360057D01*
X160894167Y-94264819D02*
X161513214Y-94264819D01*
X161513214Y-94264819D02*
X161179881Y-94645771D01*
X161179881Y-94645771D02*
X161322738Y-94645771D01*
X161322738Y-94645771D02*
X161417976Y-94693390D01*
X161417976Y-94693390D02*
X161465595Y-94741009D01*
X161465595Y-94741009D02*
X161513214Y-94836247D01*
X161513214Y-94836247D02*
X161513214Y-95074342D01*
X161513214Y-95074342D02*
X161465595Y-95169580D01*
X161465595Y-95169580D02*
X161417976Y-95217200D01*
X161417976Y-95217200D02*
X161322738Y-95264819D01*
X161322738Y-95264819D02*
X161037024Y-95264819D01*
X161037024Y-95264819D02*
X160941786Y-95217200D01*
X160941786Y-95217200D02*
X160894167Y-95169580D01*
X160560833Y-92159580D02*
X160513214Y-92207200D01*
X160513214Y-92207200D02*
X160370357Y-92254819D01*
X160370357Y-92254819D02*
X160275119Y-92254819D01*
X160275119Y-92254819D02*
X160132262Y-92207200D01*
X160132262Y-92207200D02*
X160037024Y-92111961D01*
X160037024Y-92111961D02*
X159989405Y-92016723D01*
X159989405Y-92016723D02*
X159941786Y-91826247D01*
X159941786Y-91826247D02*
X159941786Y-91683390D01*
X159941786Y-91683390D02*
X159989405Y-91492914D01*
X159989405Y-91492914D02*
X160037024Y-91397676D01*
X160037024Y-91397676D02*
X160132262Y-91302438D01*
X160132262Y-91302438D02*
X160275119Y-91254819D01*
X160275119Y-91254819D02*
X160370357Y-91254819D01*
X160370357Y-91254819D02*
X160513214Y-91302438D01*
X160513214Y-91302438D02*
X160560833Y-91350057D01*
X160941786Y-91350057D02*
X160989405Y-91302438D01*
X160989405Y-91302438D02*
X161084643Y-91254819D01*
X161084643Y-91254819D02*
X161322738Y-91254819D01*
X161322738Y-91254819D02*
X161417976Y-91302438D01*
X161417976Y-91302438D02*
X161465595Y-91350057D01*
X161465595Y-91350057D02*
X161513214Y-91445295D01*
X161513214Y-91445295D02*
X161513214Y-91540533D01*
X161513214Y-91540533D02*
X161465595Y-91683390D01*
X161465595Y-91683390D02*
X160894167Y-92254819D01*
X160894167Y-92254819D02*
X161513214Y-92254819D01*
X160560833Y-89149580D02*
X160513214Y-89197200D01*
X160513214Y-89197200D02*
X160370357Y-89244819D01*
X160370357Y-89244819D02*
X160275119Y-89244819D01*
X160275119Y-89244819D02*
X160132262Y-89197200D01*
X160132262Y-89197200D02*
X160037024Y-89101961D01*
X160037024Y-89101961D02*
X159989405Y-89006723D01*
X159989405Y-89006723D02*
X159941786Y-88816247D01*
X159941786Y-88816247D02*
X159941786Y-88673390D01*
X159941786Y-88673390D02*
X159989405Y-88482914D01*
X159989405Y-88482914D02*
X160037024Y-88387676D01*
X160037024Y-88387676D02*
X160132262Y-88292438D01*
X160132262Y-88292438D02*
X160275119Y-88244819D01*
X160275119Y-88244819D02*
X160370357Y-88244819D01*
X160370357Y-88244819D02*
X160513214Y-88292438D01*
X160513214Y-88292438D02*
X160560833Y-88340057D01*
X161513214Y-89244819D02*
X160941786Y-89244819D01*
X161227500Y-89244819D02*
X161227500Y-88244819D01*
X161227500Y-88244819D02*
X161132262Y-88387676D01*
X161132262Y-88387676D02*
X161037024Y-88482914D01*
X161037024Y-88482914D02*
X160941786Y-88530533D01*
D10*
%TO.C,D1*%
X131587500Y-79810000D02*
G75*
G02*
X131487500Y-79810000I-50000J0D01*
G01*
X131487500Y-79810000D02*
G75*
G02*
X131587500Y-79810000I50000J0D01*
G01*
%TO.C,D3*%
X131587500Y-81560000D02*
G75*
G02*
X131487500Y-81560000I-50000J0D01*
G01*
X131487500Y-81560000D02*
G75*
G02*
X131587500Y-81560000I50000J0D01*
G01*
D12*
%TO.C,Q2*%
X127062500Y-77315000D02*
X126822500Y-76985000D01*
X127302500Y-76985000D01*
X127062500Y-77315000D01*
G36*
X127062500Y-77315000D02*
G01*
X126822500Y-76985000D01*
X127302500Y-76985000D01*
X127062500Y-77315000D01*
G37*
X128362500Y-80385000D02*
X129162500Y-80385000D01*
X128362500Y-80385000D02*
X127562500Y-80385000D01*
X128362500Y-77265000D02*
X129162500Y-77265000D01*
X128362500Y-77265000D02*
X127562500Y-77265000D01*
%TO.C,R7*%
X132857776Y-78202500D02*
X133367224Y-78202500D01*
X132857776Y-77157500D02*
X133367224Y-77157500D01*
%TO.C,U5*%
X127062500Y-81940000D02*
X126822500Y-81610000D01*
X127302500Y-81610000D01*
X127062500Y-81940000D01*
G36*
X127062500Y-81940000D02*
G01*
X126822500Y-81610000D01*
X127302500Y-81610000D01*
X127062500Y-81940000D01*
G37*
X128362500Y-85010000D02*
X129162500Y-85010000D01*
X128362500Y-85010000D02*
X127562500Y-85010000D01*
X128362500Y-81890000D02*
X129162500Y-81890000D01*
X128362500Y-81890000D02*
X127562500Y-81890000D01*
D13*
%TO.C,U11*%
X168202800Y-107889000D02*
G75*
G02*
X168205300Y-107889000I1250J124499D01*
G01*
D14*
X171394300Y-106868000D02*
X168595300Y-106868000D01*
X171394300Y-105867000D02*
X171394300Y-106868000D01*
X168595300Y-106868000D02*
X168595300Y-105867000D01*
X168595300Y-105867000D02*
X171394300Y-105867000D01*
D12*
%TO.C,U10*%
X113750000Y-91090000D02*
X115550000Y-91090000D01*
X114750000Y-87870000D02*
X113950000Y-87870000D01*
X114750000Y-87870000D02*
X115550000Y-87870000D01*
X113450000Y-87945000D02*
X113210000Y-87615000D01*
X113690000Y-87615000D01*
X113450000Y-87945000D01*
G36*
X113450000Y-87945000D02*
G01*
X113210000Y-87615000D01*
X113690000Y-87615000D01*
X113450000Y-87945000D01*
G37*
%TO.C,U9*%
X114230000Y-79140000D02*
X116810000Y-79140000D01*
X116810000Y-80120000D02*
X116810000Y-79140000D01*
X116810000Y-82880000D02*
X116810000Y-83860000D01*
X116810000Y-83860000D02*
X114090000Y-83860000D01*
X113680000Y-79290000D02*
X113440000Y-78960000D01*
X113920000Y-78960000D01*
X113680000Y-79290000D01*
G36*
X113680000Y-79290000D02*
G01*
X113440000Y-78960000D01*
X113920000Y-78960000D01*
X113680000Y-79290000D01*
G37*
%TO.C,U8*%
X123800000Y-103640000D02*
X121850000Y-103640000D01*
X123800000Y-103640000D02*
X125750000Y-103640000D01*
X123800000Y-108760000D02*
X121850000Y-108760000D01*
X123800000Y-108760000D02*
X125750000Y-108760000D01*
X121100000Y-103735000D02*
X120860000Y-103405000D01*
X121340000Y-103405000D01*
X121100000Y-103735000D01*
G36*
X121100000Y-103735000D02*
G01*
X120860000Y-103405000D01*
X121340000Y-103405000D01*
X121100000Y-103735000D01*
G37*
D14*
%TO.C,U7*%
X164029000Y-105867000D02*
X166828000Y-105867000D01*
X164029000Y-106868000D02*
X164029000Y-105867000D01*
X166828000Y-105867000D02*
X166828000Y-106868000D01*
X166828000Y-106868000D02*
X164029000Y-106868000D01*
D13*
X163636500Y-107889000D02*
G75*
G02*
X163639000Y-107889000I1250J124499D01*
G01*
D12*
%TO.C,U6*%
X113027500Y-105040000D02*
X115027500Y-105040000D01*
X113027500Y-107260000D02*
X115027500Y-107260000D01*
X112507500Y-105180000D02*
X112227500Y-105180000D01*
X112507500Y-104900000D01*
X112507500Y-105180000D01*
G36*
X112507500Y-105180000D02*
G01*
X112227500Y-105180000D01*
X112507500Y-104900000D01*
X112507500Y-105180000D01*
G37*
D14*
%TO.C,U4*%
X159462800Y-105867000D02*
X162261800Y-105867000D01*
X159462800Y-106868000D02*
X159462800Y-105867000D01*
X162261800Y-105867000D02*
X162261800Y-106868000D01*
X162261800Y-106868000D02*
X159462800Y-106868000D01*
D13*
X159070300Y-107889000D02*
G75*
G02*
X159072800Y-107889000I1250J124499D01*
G01*
D12*
%TO.C,U2*%
X123862500Y-96390000D02*
X121662500Y-96390000D01*
X123862500Y-96390000D02*
X126062500Y-96390000D01*
X123862500Y-101860000D02*
X121662500Y-101860000D01*
X123862500Y-101860000D02*
X126062500Y-101860000D01*
X120002500Y-96850000D02*
X119672500Y-97090000D01*
X119672500Y-96610000D01*
X120002500Y-96850000D01*
G36*
X120002500Y-96850000D02*
G01*
X119672500Y-97090000D01*
X119672500Y-96610000D01*
X120002500Y-96850000D01*
G37*
%TO.C,U1*%
X123362500Y-89390000D02*
X121162500Y-89390000D01*
X123362500Y-89390000D02*
X125562500Y-89390000D01*
X123362500Y-94860000D02*
X121162500Y-94860000D01*
X123362500Y-94860000D02*
X125562500Y-94860000D01*
X119502500Y-89850000D02*
X119172500Y-90090000D01*
X119172500Y-89610000D01*
X119502500Y-89850000D01*
G36*
X119502500Y-89850000D02*
G01*
X119172500Y-90090000D01*
X119172500Y-89610000D01*
X119502500Y-89850000D01*
G37*
%TO.C,TP12*%
X165766800Y-86138200D02*
G75*
G02*
X163366800Y-86138200I-1200000J0D01*
G01*
X163366800Y-86138200D02*
G75*
G02*
X165766800Y-86138200I1200000J0D01*
G01*
%TO.C,TP10*%
X165766800Y-82088200D02*
G75*
G02*
X163366800Y-82088200I-1200000J0D01*
G01*
X163366800Y-82088200D02*
G75*
G02*
X165766800Y-82088200I1200000J0D01*
G01*
%TO.C,TP9*%
X165766800Y-78038200D02*
G75*
G02*
X163366800Y-78038200I-1200000J0D01*
G01*
X163366800Y-78038200D02*
G75*
G02*
X165766800Y-78038200I1200000J0D01*
G01*
%TO.C,TP8*%
X165766800Y-73988200D02*
G75*
G02*
X163366800Y-73988200I-1200000J0D01*
G01*
X163366800Y-73988200D02*
G75*
G02*
X165766800Y-73988200I1200000J0D01*
G01*
%TO.C,TP7*%
X165766800Y-69938200D02*
G75*
G02*
X163366800Y-69938200I-1200000J0D01*
G01*
X163366800Y-69938200D02*
G75*
G02*
X165766800Y-69938200I1200000J0D01*
G01*
%TO.C,TP6*%
X161716800Y-86138200D02*
G75*
G02*
X159316800Y-86138200I-1200000J0D01*
G01*
X159316800Y-86138200D02*
G75*
G02*
X161716800Y-86138200I1200000J0D01*
G01*
%TO.C,TP4*%
X161716800Y-82088200D02*
G75*
G02*
X159316800Y-82088200I-1200000J0D01*
G01*
X159316800Y-82088200D02*
G75*
G02*
X161716800Y-82088200I1200000J0D01*
G01*
%TO.C,TP3*%
X161716800Y-78038200D02*
G75*
G02*
X159316800Y-78038200I-1200000J0D01*
G01*
X159316800Y-78038200D02*
G75*
G02*
X161716800Y-78038200I1200000J0D01*
G01*
%TO.C,TP2*%
X161716800Y-73988200D02*
G75*
G02*
X159316800Y-73988200I-1200000J0D01*
G01*
X159316800Y-73988200D02*
G75*
G02*
X161716800Y-73988200I1200000J0D01*
G01*
%TO.C,TP1*%
X161716800Y-69938200D02*
G75*
G02*
X159316800Y-69938200I-1200000J0D01*
G01*
X159316800Y-69938200D02*
G75*
G02*
X161716800Y-69938200I1200000J0D01*
G01*
%TO.C,SW1*%
X183200000Y-69800000D02*
X174600000Y-69800000D01*
X183200000Y-65200000D02*
X181000000Y-65200000D01*
X176900000Y-65200000D02*
X174600000Y-65200000D01*
D15*
%TO.C,R16*%
X167168000Y-85042000D02*
X168528000Y-85042000D01*
X167168000Y-87200000D02*
X167168000Y-85042000D01*
X168528000Y-87200000D02*
X167168000Y-87200000D01*
X170430000Y-87200000D02*
X171790000Y-87200000D01*
X171790000Y-85042000D02*
X170430000Y-85042000D01*
X171790000Y-87200000D02*
X171790000Y-85042000D01*
%TO.C,R15*%
X167168000Y-81731500D02*
X168528000Y-81731500D01*
X167168000Y-83889500D02*
X167168000Y-81731500D01*
X168528000Y-83889500D02*
X167168000Y-83889500D01*
X170430000Y-83889500D02*
X171790000Y-83889500D01*
X171790000Y-81731500D02*
X170430000Y-81731500D01*
X171790000Y-83889500D02*
X171790000Y-81731500D01*
D12*
%TO.C,R11*%
X113772936Y-100765000D02*
X114227064Y-100765000D01*
X113772936Y-102235000D02*
X114227064Y-102235000D01*
D15*
%TO.C,R9*%
X136001300Y-107051200D02*
X137436300Y-107051200D01*
X136001300Y-110964200D02*
X136001300Y-107051200D01*
X137436300Y-110964200D02*
X136001300Y-110964200D01*
X142438300Y-110964200D02*
X143873300Y-110964200D01*
X143873300Y-107051200D02*
X142438300Y-107051200D01*
X143873300Y-110964200D02*
X143873300Y-107051200D01*
%TO.C,R4*%
X167168000Y-78421000D02*
X168528000Y-78421000D01*
X167168000Y-80579000D02*
X167168000Y-78421000D01*
X168528000Y-80579000D02*
X167168000Y-80579000D01*
X170430000Y-80579000D02*
X171790000Y-80579000D01*
X171790000Y-78421000D02*
X170430000Y-78421000D01*
X171790000Y-80579000D02*
X171790000Y-78421000D01*
%TO.C,R3*%
X167168000Y-75110500D02*
X168528000Y-75110500D01*
X167168000Y-77268500D02*
X167168000Y-75110500D01*
X168528000Y-77268500D02*
X167168000Y-77268500D01*
X170430000Y-77268500D02*
X171790000Y-77268500D01*
X171790000Y-75110500D02*
X170430000Y-75110500D01*
X171790000Y-77268500D02*
X171790000Y-75110500D01*
%TO.C,R2*%
X167168000Y-71800000D02*
X168528000Y-71800000D01*
X167168000Y-73958000D02*
X167168000Y-71800000D01*
X168528000Y-73958000D02*
X167168000Y-73958000D01*
X170430000Y-73958000D02*
X171790000Y-73958000D01*
X171790000Y-71800000D02*
X170430000Y-71800000D01*
X171790000Y-73958000D02*
X171790000Y-71800000D01*
%TO.C,R1*%
X167168000Y-68489500D02*
X168528000Y-68489500D01*
X167168000Y-70647500D02*
X167168000Y-68489500D01*
X168528000Y-70647500D02*
X167168000Y-70647500D01*
X170430000Y-70647500D02*
X171790000Y-70647500D01*
X171790000Y-68489500D02*
X170430000Y-68489500D01*
X171790000Y-70647500D02*
X171790000Y-68489500D01*
D12*
%TO.C,L1*%
X114076248Y-94390000D02*
X114598752Y-94390000D01*
X114076248Y-96610000D02*
X114598752Y-96610000D01*
%TO.C,JP4*%
X173527500Y-100390000D02*
X176327500Y-100390000D01*
X173527500Y-102390000D02*
X173527500Y-100390000D01*
X176327500Y-100390000D02*
X176327500Y-102390000D01*
X176327500Y-102390000D02*
X173527500Y-102390000D01*
%TO.C,JP3*%
X173527500Y-96840000D02*
X176327500Y-96840000D01*
X173527500Y-98840000D02*
X173527500Y-96840000D01*
X176327500Y-96840000D02*
X176327500Y-98840000D01*
X176327500Y-98840000D02*
X173527500Y-98840000D01*
%TO.C,JP2*%
X173527500Y-93290000D02*
X176327500Y-93290000D01*
X173527500Y-95290000D02*
X173527500Y-93290000D01*
X176327500Y-93290000D02*
X176327500Y-95290000D01*
X176327500Y-95290000D02*
X173527500Y-95290000D01*
%TO.C,JP1*%
X173527500Y-89740000D02*
X176327500Y-89740000D01*
X173527500Y-91740000D02*
X173527500Y-89740000D01*
X176327500Y-89740000D02*
X176327500Y-91740000D01*
X176327500Y-91740000D02*
X173527500Y-91740000D01*
%TO.C,J3*%
X118560000Y-74460000D02*
X118560000Y-66640000D01*
X118560000Y-72860000D02*
X117640000Y-72860000D01*
X118560000Y-66640000D02*
X112440000Y-66640000D01*
X117800000Y-70500000D02*
X117800000Y-68900000D01*
X117800000Y-68900000D02*
X116800000Y-68900000D01*
X117640000Y-74460000D02*
X118560000Y-74460000D01*
X117640000Y-72860000D02*
X117640000Y-74460000D01*
X117360000Y-72860000D02*
X117640000Y-72860000D01*
X117360000Y-72860000D02*
X117360000Y-74075000D01*
X117300000Y-68900000D02*
X117300000Y-66640000D01*
X116800000Y-70500000D02*
X117800000Y-70500000D01*
X116800000Y-68900000D02*
X116800000Y-70500000D01*
X116800000Y-68900000D02*
X116800000Y-66640000D01*
X116000000Y-71000000D02*
X115000000Y-71000000D01*
X116000000Y-66640000D02*
X116000000Y-71000000D01*
X115000000Y-71000000D02*
X115000000Y-66640000D01*
X114200000Y-70500000D02*
X113200000Y-70500000D01*
X114200000Y-68900000D02*
X114200000Y-70500000D01*
X113360000Y-74460000D02*
X113360000Y-72860000D01*
X113360000Y-72860000D02*
X113640000Y-72860000D01*
X113200000Y-70500000D02*
X113200000Y-68900000D01*
X113200000Y-68900000D02*
X114200000Y-68900000D01*
X112440000Y-74460000D02*
X113360000Y-74460000D01*
X112440000Y-72860000D02*
X113360000Y-72860000D01*
X112440000Y-66640000D02*
X112440000Y-74460000D01*
%TO.C,J2*%
X140170000Y-69170000D02*
X140170000Y-70870000D01*
X130830000Y-69170000D02*
X130830000Y-70870000D01*
%TO.C,J1*%
X171610000Y-112670000D02*
X171610000Y-114000000D01*
X170280000Y-112670000D02*
X171610000Y-112670000D01*
X169010000Y-112670000D02*
X130850000Y-112670000D01*
X169010000Y-112670000D02*
X169010000Y-115270000D01*
X130850000Y-112670000D02*
X130850000Y-117870000D01*
X171610000Y-115270000D02*
X171610000Y-117870000D01*
X169010000Y-115270000D02*
X171610000Y-115270000D01*
X171610000Y-117870000D02*
X130850000Y-117870000D01*
%TO.C,D2*%
X110990000Y-110350000D02*
X110990000Y-113650000D01*
X110990000Y-110350000D02*
X116500000Y-110350000D01*
X110990000Y-113650000D02*
X116500000Y-113650000D01*
%TO.C,C17*%
X170086248Y-95755000D02*
X170608752Y-95755000D01*
X170086248Y-97225000D02*
X170608752Y-97225000D01*
%TO.C,C14*%
X170086248Y-92745000D02*
X170608752Y-92745000D01*
X170086248Y-94215000D02*
X170608752Y-94215000D01*
%TO.C,C13*%
X170086248Y-89735000D02*
X170608752Y-89735000D01*
X170086248Y-91205000D02*
X170608752Y-91205000D01*
%TO.C,C12*%
X165276248Y-101775000D02*
X165798752Y-101775000D01*
X165276248Y-103245000D02*
X165798752Y-103245000D01*
%TO.C,C11*%
X165276248Y-98765000D02*
X165798752Y-98765000D01*
X165276248Y-100235000D02*
X165798752Y-100235000D01*
%TO.C,C8*%
X165276248Y-95755000D02*
X165798752Y-95755000D01*
X165276248Y-97225000D02*
X165798752Y-97225000D01*
%TO.C,C7*%
X165276248Y-92745000D02*
X165798752Y-92745000D01*
X165276248Y-94215000D02*
X165798752Y-94215000D01*
%TO.C,C6*%
X165276248Y-89735000D02*
X165798752Y-89735000D01*
X165276248Y-91205000D02*
X165798752Y-91205000D01*
%TO.C,C5*%
X160466248Y-101775000D02*
X160988752Y-101775000D01*
X160466248Y-103245000D02*
X160988752Y-103245000D01*
%TO.C,C4*%
X160466248Y-98765000D02*
X160988752Y-98765000D01*
X160466248Y-100235000D02*
X160988752Y-100235000D01*
%TO.C,C3*%
X160466248Y-95755000D02*
X160988752Y-95755000D01*
X160466248Y-97225000D02*
X160988752Y-97225000D01*
%TO.C,C2*%
X160466248Y-92745000D02*
X160988752Y-92745000D01*
X160466248Y-94215000D02*
X160988752Y-94215000D01*
%TO.C,C1*%
X160466248Y-89735000D02*
X160988752Y-89735000D01*
X160466248Y-91205000D02*
X160988752Y-91205000D01*
%TD*%
%LPC*%
%TO.C,JP4*%
G36*
X174777500Y-100640000D02*
G01*
X175077500Y-100640000D01*
X175077500Y-102140000D01*
X174777500Y-102140000D01*
X174777500Y-100640000D01*
G37*
%TO.C,JP3*%
G36*
X174777500Y-97090000D02*
G01*
X175077500Y-97090000D01*
X175077500Y-98590000D01*
X174777500Y-98590000D01*
X174777500Y-97090000D01*
G37*
%TO.C,JP2*%
G36*
X174777500Y-93540000D02*
G01*
X175077500Y-93540000D01*
X175077500Y-95040000D01*
X174777500Y-95040000D01*
X174777500Y-93540000D01*
G37*
%TO.C,JP1*%
G36*
X174777500Y-89990000D02*
G01*
X175077500Y-89990000D01*
X175077500Y-91490000D01*
X174777500Y-91490000D01*
X174777500Y-89990000D01*
G37*
%TD*%
D16*
%TO.C,D1*%
X132980000Y-79810000D03*
X132165000Y-79810000D03*
%TD*%
%TO.C,D3*%
X132980000Y-81560000D03*
X132165000Y-81560000D03*
%TD*%
D17*
%TO.C,Q2*%
X129500000Y-78825000D03*
X127225000Y-79775000D03*
X127225000Y-77875000D03*
%TD*%
D18*
%TO.C,R7*%
X134025000Y-77680000D03*
X132200000Y-77680000D03*
%TD*%
D17*
%TO.C,U5*%
X129500000Y-82500000D03*
X129500000Y-84400000D03*
X127225000Y-84400000D03*
X127225000Y-83450000D03*
X127225000Y-82500000D03*
%TD*%
D19*
%TO.C,U11*%
X169032800Y-105067500D03*
X170931800Y-105067500D03*
X170931800Y-107667500D03*
X169981800Y-107667500D03*
X169032800Y-107667500D03*
%TD*%
D20*
%TO.C,U10*%
X113300000Y-88500000D03*
X113300000Y-89150000D03*
X113300000Y-89810000D03*
X113300000Y-90460000D03*
X116000000Y-90460000D03*
X116000000Y-89810000D03*
X116000000Y-89150000D03*
X116000000Y-88500000D03*
%TD*%
D21*
%TO.C,U9*%
X113500000Y-80000000D03*
D22*
X113587500Y-81500000D03*
D21*
X113500000Y-83000000D03*
%TD*%
D23*
%TO.C,U8*%
X121325000Y-104295000D03*
X121325000Y-105565000D03*
X121325000Y-106835000D03*
X121325000Y-108105000D03*
X126275000Y-108105000D03*
X126275000Y-106835000D03*
X126275000Y-105565000D03*
X126275000Y-104295000D03*
D24*
X123800000Y-106200000D03*
%TD*%
D19*
%TO.C,U7*%
X164466500Y-107667500D03*
X165415500Y-107667500D03*
X166365500Y-107667500D03*
X166365500Y-105067500D03*
X164466500Y-105067500D03*
%TD*%
D25*
%TO.C,U6*%
X113000000Y-105500000D03*
X113000000Y-106150000D03*
X113000000Y-106800000D03*
X115055000Y-106800000D03*
X115055000Y-106150000D03*
X115055000Y-105500000D03*
D26*
X114027500Y-106150000D03*
%TD*%
D19*
%TO.C,U4*%
X159900300Y-107667500D03*
X160849300Y-107667500D03*
X161799300Y-107667500D03*
X161799300Y-105067500D03*
X159900300Y-105067500D03*
%TD*%
D27*
%TO.C,U2*%
X121000000Y-96850000D03*
X121000000Y-97500000D03*
X121000000Y-98150000D03*
X121000000Y-98800000D03*
X121000000Y-99450000D03*
X121000000Y-100100000D03*
X121000000Y-100750000D03*
X121000000Y-101400000D03*
X126725000Y-101400000D03*
X126725000Y-100750000D03*
X126725000Y-100100000D03*
X126725000Y-99450000D03*
X126725000Y-98800000D03*
X126725000Y-98150000D03*
X126725000Y-97500000D03*
X126725000Y-96850000D03*
%TD*%
%TO.C,U1*%
X120500000Y-89850000D03*
X120500000Y-90500000D03*
X120500000Y-91150000D03*
X120500000Y-91800000D03*
X120500000Y-92450000D03*
X120500000Y-93100000D03*
X120500000Y-93750000D03*
X120500000Y-94400000D03*
X126225000Y-94400000D03*
X126225000Y-93750000D03*
X126225000Y-93100000D03*
X126225000Y-92450000D03*
X126225000Y-91800000D03*
X126225000Y-91150000D03*
X126225000Y-90500000D03*
X126225000Y-89850000D03*
%TD*%
D28*
%TO.C,TP12*%
X164566800Y-86138200D03*
%TD*%
%TO.C,TP10*%
X164566800Y-82088200D03*
%TD*%
%TO.C,TP9*%
X164566800Y-78038200D03*
%TD*%
%TO.C,TP8*%
X164566800Y-73988200D03*
%TD*%
%TO.C,TP7*%
X164566800Y-69938200D03*
%TD*%
%TO.C,TP6*%
X160516800Y-86138200D03*
%TD*%
%TO.C,TP4*%
X160516800Y-82088200D03*
%TD*%
%TO.C,TP3*%
X160516800Y-78038200D03*
%TD*%
%TO.C,TP2*%
X160516800Y-73988200D03*
%TD*%
%TO.C,TP1*%
X160516800Y-69938200D03*
%TD*%
D29*
%TO.C,SW1*%
X183000000Y-67500000D03*
X174800000Y-67500000D03*
D30*
X180900000Y-67500000D03*
D31*
X178900000Y-67500000D03*
X176900000Y-67500000D03*
%TD*%
D32*
%TO.C,R16*%
X168000000Y-86121000D03*
X170958000Y-86121000D03*
%TD*%
%TO.C,R15*%
X168000000Y-82810500D03*
X170958000Y-82810500D03*
%TD*%
D16*
%TO.C,R12*%
X148212500Y-106800000D03*
X149027500Y-106800000D03*
%TD*%
D33*
%TO.C,R11*%
X113000000Y-101500000D03*
X115000000Y-101500000D03*
%TD*%
D34*
%TO.C,R9*%
X136870800Y-109007700D03*
X143003800Y-109007700D03*
%TD*%
D16*
%TO.C,R8*%
X148212500Y-105050000D03*
X149027500Y-105050000D03*
%TD*%
%TO.C,R6*%
X148212500Y-103300000D03*
X149027500Y-103300000D03*
%TD*%
%TO.C,R5*%
X148212500Y-101550000D03*
X149027500Y-101550000D03*
%TD*%
D32*
%TO.C,R4*%
X168000000Y-79500000D03*
X170958000Y-79500000D03*
%TD*%
%TO.C,R3*%
X168000000Y-76189500D03*
X170958000Y-76189500D03*
%TD*%
%TO.C,R2*%
X168000000Y-72879000D03*
X170958000Y-72879000D03*
%TD*%
%TO.C,R1*%
X168000000Y-69568500D03*
X170958000Y-69568500D03*
%TD*%
D35*
%TO.C,L1*%
X113175000Y-95500000D03*
X115500000Y-95500000D03*
%TD*%
D36*
%TO.C,JP4*%
X174277500Y-101390000D03*
X175577500Y-101390000D03*
%TD*%
%TO.C,JP3*%
X174277500Y-97840000D03*
X175577500Y-97840000D03*
%TD*%
%TO.C,JP2*%
X174277500Y-94290000D03*
X175577500Y-94290000D03*
%TD*%
%TO.C,JP1*%
X174277500Y-90740000D03*
X175577500Y-90740000D03*
%TD*%
D37*
%TO.C,J3*%
X116500000Y-73000000D03*
D38*
X114500000Y-73000000D03*
%TD*%
D39*
%TO.C,J2*%
X136000000Y-72000000D03*
D40*
X133980000Y-72000000D03*
D41*
X132750000Y-72000000D03*
D42*
X135000000Y-72000000D03*
D43*
X137020000Y-72000000D03*
D44*
X138250000Y-72000000D03*
D45*
X139820000Y-71920000D03*
X139820000Y-68120000D03*
X131180000Y-71920000D03*
X131180000Y-68120000D03*
%TD*%
D46*
%TO.C,J1*%
X170280000Y-114000000D03*
D47*
X170280000Y-116540000D03*
X167740000Y-114000000D03*
X167740000Y-116540000D03*
X165200000Y-114000000D03*
X165200000Y-116540000D03*
X162660000Y-114000000D03*
X162660000Y-116540000D03*
X160120000Y-114000000D03*
X160120000Y-116540000D03*
X157580000Y-114000000D03*
X157580000Y-116540000D03*
X155040000Y-114000000D03*
X155040000Y-116540000D03*
X152500000Y-114000000D03*
X152500000Y-116540000D03*
X149960000Y-114000000D03*
X149960000Y-116540000D03*
X147420000Y-114000000D03*
X147420000Y-116540000D03*
X144880000Y-114000000D03*
X144880000Y-116540000D03*
X142340000Y-114000000D03*
X142340000Y-116540000D03*
X139800000Y-114000000D03*
X139800000Y-116540000D03*
X137260000Y-114000000D03*
X137260000Y-116540000D03*
X134720000Y-114000000D03*
X134720000Y-116540000D03*
X132180000Y-114000000D03*
X132180000Y-116540000D03*
%TD*%
D48*
%TO.C,H3*%
X150000000Y-91000000D03*
%TD*%
%TO.C,H2*%
X150500000Y-81500000D03*
%TD*%
%TO.C,H1*%
X150500000Y-72500000D03*
%TD*%
D49*
%TO.C,D2*%
X112500000Y-112000000D03*
X116500000Y-112000000D03*
%TD*%
D50*
%TO.C,C17*%
X169310000Y-96490000D03*
X171385000Y-96490000D03*
%TD*%
D16*
%TO.C,C16*%
X148212500Y-99800000D03*
X149027500Y-99800000D03*
%TD*%
%TO.C,C15*%
X148212500Y-98050000D03*
X149027500Y-98050000D03*
%TD*%
D50*
%TO.C,C14*%
X169310000Y-93480000D03*
X171385000Y-93480000D03*
%TD*%
%TO.C,C13*%
X169310000Y-90470000D03*
X171385000Y-90470000D03*
%TD*%
%TO.C,C12*%
X164500000Y-102510000D03*
X166575000Y-102510000D03*
%TD*%
%TO.C,C11*%
X164500000Y-99500000D03*
X166575000Y-99500000D03*
%TD*%
%TO.C,C8*%
X164500000Y-96490000D03*
X166575000Y-96490000D03*
%TD*%
%TO.C,C7*%
X164500000Y-93480000D03*
X166575000Y-93480000D03*
%TD*%
%TO.C,C6*%
X164500000Y-90470000D03*
X166575000Y-90470000D03*
%TD*%
%TO.C,C5*%
X159690000Y-102510000D03*
X161765000Y-102510000D03*
%TD*%
%TO.C,C4*%
X159690000Y-99500000D03*
X161765000Y-99500000D03*
%TD*%
%TO.C,C3*%
X159690000Y-96490000D03*
X161765000Y-96490000D03*
%TD*%
%TO.C,C2*%
X159690000Y-93480000D03*
X161765000Y-93480000D03*
%TD*%
%TO.C,C1*%
X159690000Y-90470000D03*
X161765000Y-90470000D03*
%TD*%
%LPD*%
M02*
