%TF.GenerationSoftware,KiCad,Pcbnew,9.0.0*%
%TF.CreationDate,2025-03-28T02:53:08+02:00*%
%TF.ProjectId,EEE3088F_2025_Project,45454533-3038-4384-965f-323032355f50,rev?*%
%TF.SameCoordinates,Original*%
%TF.FileFunction,Copper,L2,Bot*%
%TF.FilePolarity,Positive*%
%FSLAX46Y46*%
G04 Gerber Fmt 4.6, Leading zero omitted, Abs format (unit mm)*
G04 Created by KiCad (PCBNEW 9.0.0) date 2025-03-28 02:53:08*
%MOMM*%
%LPD*%
G01*
G04 APERTURE LIST*
G04 Aperture macros list*
%AMRoundRect*
0 Rectangle with rounded corners*
0 $1 Rounding radius*
0 $2 $3 $4 $5 $6 $7 $8 $9 X,Y pos of 4 corners*
0 Add a 4 corners polygon primitive as box body*
4,1,4,$2,$3,$4,$5,$6,$7,$8,$9,$2,$3,0*
0 Add four circle primitives for the rounded corners*
1,1,$1+$1,$2,$3*
1,1,$1+$1,$4,$5*
1,1,$1+$1,$6,$7*
1,1,$1+$1,$8,$9*
0 Add four rect primitives between the rounded corners*
20,1,$1+$1,$2,$3,$4,$5,0*
20,1,$1+$1,$4,$5,$6,$7,0*
20,1,$1+$1,$6,$7,$8,$9,0*
20,1,$1+$1,$8,$9,$2,$3,0*%
G04 Aperture macros list end*
%TA.AperFunction,ComponentPad*%
%ADD10C,2.000000*%
%TD*%
%TA.AperFunction,ComponentPad*%
%ADD11O,3.500000X2.200000*%
%TD*%
%TA.AperFunction,ComponentPad*%
%ADD12R,2.500000X1.500000*%
%TD*%
%TA.AperFunction,ComponentPad*%
%ADD13O,2.500000X1.500000*%
%TD*%
%TA.AperFunction,HeatsinkPad*%
%ADD14O,1.100000X1.700000*%
%TD*%
%TA.AperFunction,ComponentPad*%
%ADD15R,1.700000X1.700000*%
%TD*%
%TA.AperFunction,ComponentPad*%
%ADD16O,1.700000X1.700000*%
%TD*%
%TA.AperFunction,ComponentPad*%
%ADD17RoundRect,0.250000X0.350000X0.625000X-0.350000X0.625000X-0.350000X-0.625000X0.350000X-0.625000X0*%
%TD*%
%TA.AperFunction,ComponentPad*%
%ADD18O,1.200000X1.750000*%
%TD*%
%TA.AperFunction,HeatsinkPad*%
%ADD19C,0.500000*%
%TD*%
%TA.AperFunction,HeatsinkPad*%
%ADD20R,1.900000X2.900000*%
%TD*%
%TA.AperFunction,ViaPad*%
%ADD21C,0.600000*%
%TD*%
G04 APERTURE END LIST*
D10*
%TO.P,TP6,1,1*%
%TO.N,/5V*%
X110500000Y-107500000D03*
%TD*%
D11*
%TO.P,SW1,*%
%TO.N,*%
X46500000Y-99000000D03*
X46500000Y-107200000D03*
D12*
%TO.P,SW1,1,A*%
%TO.N,/Battery*%
X46500000Y-101100000D03*
D13*
%TO.P,SW1,2,B*%
%TO.N,Net-(SW1-B)*%
X46500000Y-103100000D03*
%TO.P,SW1,3,C*%
%TO.N,unconnected-(SW1-C-Pad3)*%
X46500000Y-105100000D03*
%TD*%
D10*
%TO.P,TP10,1,1*%
%TO.N,/EXT_LOAD2_OUT*%
X114550000Y-107500000D03*
%TD*%
%TO.P,TP12,1,1*%
%TO.N,/3V3 Out*%
X6335000Y-6225000D03*
%TD*%
D14*
%TO.P,J2,S1,Shield*%
%TO.N,GND*%
X53500000Y-82800000D03*
X53500000Y-79000000D03*
X44860000Y-82800000D03*
X44860000Y-79000000D03*
%TD*%
D10*
%TO.P,TP4,1,1*%
%TO.N,/5V*%
X106450000Y-115600000D03*
%TD*%
%TO.P,TP3,1,1*%
%TO.N,Net-(Q2-D)*%
X106450000Y-111550000D03*
%TD*%
D15*
%TO.P,J1,1,Pin_1*%
%TO.N,/Motor2_B_OUT*%
X103660000Y-124500000D03*
D16*
%TO.P,J1,2,Pin_2*%
%TO.N,/Motor2_A_OUT*%
X103660000Y-127040000D03*
%TO.P,J1,3,Pin_3*%
%TO.N,/Motor4_A_OUT*%
X101120000Y-124500000D03*
%TO.P,J1,4,Pin_4*%
%TO.N,/MOTOR2_CTRL1*%
X101120000Y-127040000D03*
%TO.P,J1,5,Pin_5*%
%TO.N,/Motor4_B_OUT*%
X98580000Y-124500000D03*
%TO.P,J1,6,Pin_6*%
%TO.N,/MOTOR2_CTRL2*%
X98580000Y-127040000D03*
%TO.P,J1,7,Pin_7*%
%TO.N,/CTRL_EXT_LOAD2*%
X96040000Y-124500000D03*
%TO.P,J1,8,Pin_8*%
%TO.N,/MOTOR4_CTRL1*%
X96040000Y-127040000D03*
%TO.P,J1,9,Pin_9*%
%TO.N,/USART2_RX*%
X93500000Y-124500000D03*
%TO.P,J1,10,Pin_10*%
%TO.N,/MOTOR4_CTRL2*%
X93500000Y-127040000D03*
%TO.P,J1,11,Pin_11*%
%TO.N,/EXT_LOAD2_OUT*%
X90960000Y-124500000D03*
%TO.P,J1,12,Pin_12*%
%TO.N,/USART2_TX*%
X90960000Y-127040000D03*
%TO.P,J1,13,Pin_13*%
%TO.N,/FAST_CHARGE_CTRL*%
X88420000Y-124500000D03*
%TO.P,J1,14,Pin_14*%
%TO.N,/Battery*%
X88420000Y-127040000D03*
%TO.P,J1,15,Pin_15*%
%TO.N,unconnected-(J1-Pin_15-Pad15)*%
X85880000Y-124500000D03*
%TO.P,J1,16,Pin_16*%
%TO.N,/I2C1_SCL*%
X85880000Y-127040000D03*
%TO.P,J1,17,Pin_17*%
%TO.N,/I2C1_SDA*%
X83340000Y-124500000D03*
%TO.P,J1,18,Pin_18*%
%TO.N,/3V3 Out*%
X83340000Y-127040000D03*
%TO.P,J1,19,Pin_19*%
%TO.N,GND*%
X80800000Y-124500000D03*
%TO.P,J1,20,Pin_20*%
%TO.N,/5V Out*%
X80800000Y-127040000D03*
%TO.P,J1,21,Pin_21*%
%TO.N,/EXT_LOAD1_OUT*%
X78260000Y-124500000D03*
%TO.P,J1,22,Pin_22*%
%TO.N,/HV*%
X78260000Y-127040000D03*
%TO.P,J1,23,Pin_23*%
%TO.N,GND*%
X75720000Y-124500000D03*
%TO.P,J1,24,Pin_24*%
%TO.N,/MOTOR3_CTRL1*%
X75720000Y-127040000D03*
%TO.P,J1,25,Pin_25*%
%TO.N,/CTRL_EXT_LOAD1*%
X73180000Y-124500000D03*
%TO.P,J1,26,Pin_26*%
%TO.N,/MOTOR3_CTRL2*%
X73180000Y-127040000D03*
%TO.P,J1,27,Pin_27*%
%TO.N,/MOTOR3_A_OUT*%
X70640000Y-124500000D03*
%TO.P,J1,28,Pin_28*%
%TO.N,/MOTOR1_CTRL1*%
X70640000Y-127040000D03*
%TO.P,J1,29,Pin_29*%
%TO.N,/MOTOR3_B_OUT*%
X68100000Y-124500000D03*
%TO.P,J1,30,Pin_30*%
%TO.N,/MOTOR1_CTRL2*%
X68100000Y-127040000D03*
%TO.P,J1,31,Pin_31*%
%TO.N,/MOTOR1_B_OUT*%
X65560000Y-124500000D03*
%TO.P,J1,32,Pin_32*%
%TO.N,/MOTOR1_A_OUT*%
X65560000Y-127040000D03*
%TD*%
D10*
%TO.P,TP2,1,1*%
%TO.N,/EXT_LOAD1_OUT*%
X106450000Y-107500000D03*
%TD*%
D17*
%TO.P,J3,1,Pin_1*%
%TO.N,GND*%
X97700000Y-82450000D03*
D18*
%TO.P,J3,2,Pin_2*%
%TO.N,/Vbat*%
X95700000Y-82450000D03*
%TD*%
D10*
%TO.P,TP7,1,1*%
%TO.N,/5V Out*%
X110500000Y-111550000D03*
%TD*%
%TO.P,TP8,1,1*%
%TO.N,Net-(U2-AISEN)*%
X110500000Y-115600000D03*
%TD*%
%TO.P,TP9,1,1*%
%TO.N,Net-(U1-AISEN)*%
X114550000Y-103450000D03*
%TD*%
%TO.P,TP11,1,1*%
%TO.N,/EXT_LOAD2_OUT*%
X114550000Y-111550000D03*
%TD*%
D19*
%TO.P,U8,9,EPAD*%
%TO.N,GND*%
X106100000Y-86600000D03*
X106100000Y-87800000D03*
X106100000Y-89000000D03*
D20*
X106800000Y-87800000D03*
D19*
X107500000Y-86600000D03*
X107500000Y-87800000D03*
X107500000Y-89000000D03*
%TD*%
D10*
%TO.P,TP12,1,1*%
%TO.N,/3V3 Out*%
X98000000Y-100500000D03*
%TD*%
%TO.P,TP5,1,1*%
%TO.N,/3V3 Out*%
X110500000Y-103450000D03*
%TD*%
%TO.P,TP1,1,1*%
%TO.N,Net-(SW1-B)*%
X106450000Y-103450000D03*
%TD*%
D21*
%TO.N,GND*%
X73898800Y-97899100D03*
X61651300Y-98090500D03*
X70246300Y-86346600D03*
X66419300Y-107258400D03*
X66409200Y-97769900D03*
X79418300Y-97986600D03*
X59916300Y-105765900D03*
X88329400Y-98033100D03*
X57316600Y-100756100D03*
X73999000Y-99547000D03*
X81338400Y-114294300D03*
X57484900Y-112609900D03*
X97450000Y-95990000D03*
X95108400Y-97916700D03*
X68967200Y-79037200D03*
X61033300Y-112100200D03*
X79325100Y-78928600D03*
X72833600Y-99957900D03*
X60027500Y-88502400D03*
%TO.N,/Battery*%
X79026500Y-80289400D03*
X69061000Y-80189600D03*
X84319800Y-112762100D03*
%TO.N,Net-(U1-VINT)*%
X72959800Y-97126900D03*
X74462300Y-80509900D03*
%TO.N,Net-(U1-VCP)*%
X76601600Y-83177900D03*
X80180500Y-92330300D03*
%TO.N,Net-(U2-VCP)*%
X64689300Y-79567200D03*
X61889900Y-107043700D03*
%TO.N,Net-(U2-VINT)*%
X64857000Y-78652800D03*
%TO.N,/5V*%
X99971800Y-85825100D03*
%TO.N,/Vbat*%
X58678900Y-103021600D03*
X74012000Y-91556000D03*
%TO.N,/3V3 Out*%
X76830900Y-103798600D03*
X60572300Y-89254200D03*
X71297800Y-87214800D03*
X82799800Y-104645300D03*
%TO.N,/5V Out*%
X66274300Y-100545700D03*
X76752600Y-112930200D03*
%TO.N,/HV*%
X62878600Y-95853300D03*
X105447100Y-79434500D03*
X53589000Y-85910400D03*
X74635200Y-114726200D03*
X101828900Y-88000000D03*
X66401100Y-104241800D03*
X52850000Y-84131500D03*
X61667700Y-91767200D03*
X62341900Y-102530700D03*
X113823500Y-89168500D03*
%TO.N,Net-(C13-Pad1)*%
X66787600Y-98636100D03*
X66531800Y-108343100D03*
%TO.N,Net-(D2-A)*%
X62141500Y-113582600D03*
X66428000Y-109971600D03*
X61644200Y-109936200D03*
%TO.N,/FAST_CHARGE_CTRL*%
X88616900Y-100470200D03*
%TO.N,Net-(U1-AISEN)*%
X74971300Y-96135500D03*
X73072600Y-78217300D03*
%TO.N,Net-(U1-BISEN)*%
X75820100Y-100516800D03*
X73453200Y-77166400D03*
%TO.N,Net-(U2-AISEN)*%
X71560900Y-104763300D03*
X66123700Y-76997700D03*
X98901100Y-104746200D03*
X69042100Y-107167800D03*
X70320600Y-101770600D03*
%TO.N,Net-(U2-BISEN)*%
X63617400Y-80946400D03*
X63997200Y-96431600D03*
%TO.N,Net-(U8-~{CHRG})*%
X52547800Y-87739600D03*
X52517900Y-92109800D03*
%TO.N,Net-(U6-VSET)*%
X78781500Y-108011000D03*
X76360300Y-92007400D03*
%TO.N,Net-(U8-PROG)*%
X81495400Y-91011600D03*
X80362500Y-114182000D03*
%TO.N,Net-(SW1-B)*%
X71188200Y-94366000D03*
X71583200Y-96372900D03*
X71659400Y-90579300D03*
%TO.N,/IN-*%
X71460400Y-84195200D03*
%TO.N,/I2C1_SDA*%
X74294200Y-102842400D03*
X79785000Y-101770200D03*
X58678300Y-91343300D03*
X76751400Y-86738900D03*
X81717100Y-100270000D03*
%TO.N,/I2C1_SCL*%
X80289700Y-103798600D03*
X77763300Y-91104700D03*
%TO.N,/Motor2_A_OUT*%
X87929700Y-116140600D03*
X77814500Y-76499900D03*
%TO.N,/MOTOR1_CTRL2*%
X66507100Y-84187500D03*
%TO.N,/MOTOR1_B_OUT*%
X68170900Y-83020000D03*
%TO.N,/MOTOR2_CTRL2*%
X90913000Y-79501100D03*
%TO.N,/MOTOR1_CTRL1*%
X78722900Y-76633300D03*
X89265200Y-121608900D03*
%TO.N,/MOTOR2_CTRL1*%
X88362200Y-82802400D03*
%TO.N,/Motor2_B_OUT*%
X72629500Y-79246500D03*
X78876100Y-117876700D03*
X78471400Y-109714700D03*
%TO.N,/MOTOR3_A_OUT*%
X64480100Y-76997700D03*
%TO.N,/MOTOR4_CTRL2*%
X66941800Y-95834600D03*
X65720200Y-83587300D03*
X89589300Y-95593300D03*
%TO.N,/MOTOR3_B_OUT*%
X66162500Y-82119500D03*
%TO.N,/MOTOR3_CTRL2*%
X68968700Y-78235400D03*
%TO.N,/MOTOR4_CTRL1*%
X67729400Y-118642500D03*
X65198000Y-80289900D03*
%TO.N,/MOTOR3_CTRL1*%
X69369600Y-77031900D03*
%TO.N,/CTRL_EXT_LOAD2*%
X102851300Y-82816000D03*
%TO.N,/EXT_LOAD1_OUT*%
X97495500Y-125556500D03*
X109029100Y-79957000D03*
%TO.N,/CTRL_EXT_LOAD1*%
X70001400Y-85073400D03*
%TO.N,/EXT_LOAD2_OUT*%
X90971700Y-109714700D03*
X105776600Y-82838900D03*
%TD*%
%TA.AperFunction,Conductor*%
%TO.N,GND*%
G36*
X64239396Y-76020185D02*
G01*
X64285151Y-76072989D01*
X64295095Y-76142147D01*
X64266070Y-76205703D01*
X64219809Y-76239061D01*
X64100927Y-76288302D01*
X64100914Y-76288309D01*
X63969811Y-76375910D01*
X63969807Y-76375913D01*
X63858313Y-76487407D01*
X63858310Y-76487411D01*
X63770709Y-76618514D01*
X63770702Y-76618527D01*
X63710364Y-76764198D01*
X63710361Y-76764210D01*
X63679600Y-76918853D01*
X63679600Y-77076546D01*
X63710361Y-77231189D01*
X63710364Y-77231201D01*
X63770702Y-77376872D01*
X63770709Y-77376885D01*
X63858310Y-77507988D01*
X63858313Y-77507992D01*
X63969807Y-77619486D01*
X63969811Y-77619489D01*
X64100914Y-77707090D01*
X64100927Y-77707097D01*
X64144418Y-77725111D01*
X64246603Y-77767437D01*
X64334112Y-77784843D01*
X64396020Y-77817227D01*
X64430594Y-77877943D01*
X64426855Y-77947712D01*
X64385989Y-78004385D01*
X64378812Y-78009560D01*
X64346712Y-78031009D01*
X64346707Y-78031013D01*
X64235213Y-78142507D01*
X64235210Y-78142511D01*
X64147609Y-78273614D01*
X64147602Y-78273627D01*
X64087264Y-78419298D01*
X64087261Y-78419310D01*
X64056500Y-78573953D01*
X64056500Y-78731646D01*
X64087261Y-78886289D01*
X64087263Y-78886296D01*
X64099743Y-78916427D01*
X64107210Y-78985896D01*
X64075935Y-79048375D01*
X64072867Y-79051555D01*
X64067508Y-79056914D01*
X63979909Y-79188014D01*
X63979902Y-79188027D01*
X63919564Y-79333698D01*
X63919561Y-79333710D01*
X63888800Y-79488353D01*
X63888800Y-79646046D01*
X63919561Y-79800689D01*
X63919564Y-79800701D01*
X63979902Y-79946372D01*
X63979909Y-79946384D01*
X64014927Y-79998792D01*
X64035805Y-80065469D01*
X64017321Y-80132849D01*
X63965342Y-80179540D01*
X63896372Y-80190716D01*
X63864376Y-80182246D01*
X63860934Y-80180820D01*
X63850897Y-80176663D01*
X63850893Y-80176662D01*
X63850889Y-80176661D01*
X63696245Y-80145900D01*
X63696242Y-80145900D01*
X63538558Y-80145900D01*
X63538555Y-80145900D01*
X63383910Y-80176661D01*
X63383898Y-80176664D01*
X63238227Y-80237002D01*
X63238214Y-80237009D01*
X63107111Y-80324610D01*
X63107107Y-80324613D01*
X62995613Y-80436107D01*
X62995610Y-80436111D01*
X62908009Y-80567214D01*
X62908002Y-80567227D01*
X62847664Y-80712898D01*
X62847661Y-80712910D01*
X62816900Y-80867553D01*
X62816900Y-81025246D01*
X62847661Y-81179889D01*
X62847664Y-81179901D01*
X62908002Y-81325572D01*
X62908009Y-81325585D01*
X62995610Y-81456688D01*
X62995613Y-81456692D01*
X63107107Y-81568186D01*
X63107111Y-81568189D01*
X63238214Y-81655790D01*
X63238227Y-81655797D01*
X63353312Y-81703466D01*
X63383903Y-81716137D01*
X63505514Y-81740327D01*
X63538553Y-81746899D01*
X63538556Y-81746900D01*
X63538558Y-81746900D01*
X63696244Y-81746900D01*
X63696245Y-81746899D01*
X63850897Y-81716137D01*
X63972200Y-81665892D01*
X63996572Y-81655797D01*
X63996572Y-81655796D01*
X63996579Y-81655794D01*
X64127689Y-81568189D01*
X64239189Y-81456689D01*
X64326794Y-81325579D01*
X64387137Y-81179897D01*
X64417900Y-81025242D01*
X64417900Y-80941241D01*
X64437585Y-80874202D01*
X64490389Y-80828447D01*
X64559547Y-80818503D01*
X64623103Y-80847528D01*
X64629581Y-80853560D01*
X64687707Y-80911686D01*
X64687711Y-80911689D01*
X64818814Y-80999290D01*
X64818827Y-80999297D01*
X64963291Y-81059135D01*
X64964503Y-81059637D01*
X65094489Y-81085493D01*
X65119153Y-81090399D01*
X65119156Y-81090400D01*
X65119158Y-81090400D01*
X65276844Y-81090400D01*
X65276845Y-81090399D01*
X65431497Y-81059637D01*
X65577179Y-80999294D01*
X65708289Y-80911689D01*
X65819789Y-80800189D01*
X65907394Y-80669079D01*
X65967737Y-80523397D01*
X65998500Y-80368742D01*
X65998500Y-80211058D01*
X65998500Y-80211055D01*
X65998499Y-80211053D01*
X65982150Y-80128857D01*
X65978549Y-80110753D01*
X68260500Y-80110753D01*
X68260500Y-80268446D01*
X68291261Y-80423089D01*
X68291264Y-80423101D01*
X68351602Y-80568772D01*
X68351609Y-80568785D01*
X68439210Y-80699888D01*
X68439213Y-80699892D01*
X68550707Y-80811386D01*
X68550711Y-80811389D01*
X68681814Y-80898990D01*
X68681827Y-80898997D01*
X68783815Y-80941241D01*
X68827503Y-80959337D01*
X68982153Y-80990099D01*
X68982156Y-80990100D01*
X68982158Y-80990100D01*
X69139844Y-80990100D01*
X69139845Y-80990099D01*
X69294497Y-80959337D01*
X69440179Y-80898994D01*
X69571289Y-80811389D01*
X69682789Y-80699889D01*
X69770394Y-80568779D01*
X69827442Y-80431053D01*
X73661800Y-80431053D01*
X73661800Y-80588746D01*
X73692561Y-80743389D01*
X73692564Y-80743401D01*
X73752902Y-80889072D01*
X73752909Y-80889085D01*
X73840510Y-81020188D01*
X73840513Y-81020192D01*
X73952007Y-81131686D01*
X73952011Y-81131689D01*
X74083114Y-81219290D01*
X74083127Y-81219297D01*
X74228798Y-81279635D01*
X74228803Y-81279637D01*
X74383453Y-81310399D01*
X74383456Y-81310400D01*
X74383458Y-81310400D01*
X74541144Y-81310400D01*
X74541145Y-81310399D01*
X74695797Y-81279637D01*
X74841479Y-81219294D01*
X74972589Y-81131689D01*
X75084089Y-81020189D01*
X75171694Y-80889079D01*
X75232037Y-80743397D01*
X75262800Y-80588742D01*
X75262800Y-80431058D01*
X75262800Y-80431055D01*
X75262799Y-80431053D01*
X75261215Y-80423089D01*
X75232037Y-80276403D01*
X75204761Y-80210553D01*
X78226000Y-80210553D01*
X78226000Y-80368246D01*
X78256761Y-80522889D01*
X78256764Y-80522901D01*
X78317102Y-80668572D01*
X78317109Y-80668585D01*
X78404710Y-80799688D01*
X78404713Y-80799692D01*
X78516207Y-80911186D01*
X78516211Y-80911189D01*
X78647314Y-80998790D01*
X78647327Y-80998797D01*
X78792998Y-81059135D01*
X78793003Y-81059137D01*
X78925503Y-81085493D01*
X78947653Y-81089899D01*
X78947656Y-81089900D01*
X78947658Y-81089900D01*
X79105344Y-81089900D01*
X79105345Y-81089899D01*
X79259997Y-81059137D01*
X79405679Y-80998794D01*
X79536789Y-80911189D01*
X79648289Y-80799689D01*
X79735894Y-80668579D01*
X79796237Y-80522897D01*
X79827000Y-80368242D01*
X79827000Y-80210558D01*
X79827000Y-80210555D01*
X79826999Y-80210553D01*
X79815645Y-80153474D01*
X79796237Y-80055903D01*
X79787928Y-80035842D01*
X79735897Y-79910227D01*
X79735890Y-79910214D01*
X79648289Y-79779111D01*
X79648286Y-79779107D01*
X79536792Y-79667613D01*
X79536788Y-79667610D01*
X79405685Y-79580009D01*
X79405672Y-79580002D01*
X79286709Y-79530727D01*
X79260001Y-79519664D01*
X79259989Y-79519661D01*
X79105345Y-79488900D01*
X79105342Y-79488900D01*
X78947658Y-79488900D01*
X78947655Y-79488900D01*
X78793010Y-79519661D01*
X78792998Y-79519664D01*
X78647327Y-79580002D01*
X78647314Y-79580009D01*
X78516211Y-79667610D01*
X78516207Y-79667613D01*
X78404713Y-79779107D01*
X78404710Y-79779111D01*
X78317109Y-79910214D01*
X78317102Y-79910227D01*
X78256764Y-80055898D01*
X78256761Y-80055910D01*
X78226000Y-80210553D01*
X75204761Y-80210553D01*
X75181119Y-80153474D01*
X75171697Y-80130727D01*
X75171690Y-80130714D01*
X75084089Y-79999611D01*
X75084086Y-79999607D01*
X74972592Y-79888113D01*
X74972588Y-79888110D01*
X74841485Y-79800509D01*
X74841472Y-79800502D01*
X74695801Y-79740164D01*
X74695789Y-79740161D01*
X74541145Y-79709400D01*
X74541142Y-79709400D01*
X74383458Y-79709400D01*
X74383455Y-79709400D01*
X74228810Y-79740161D01*
X74228798Y-79740164D01*
X74083127Y-79800502D01*
X74083114Y-79800509D01*
X73952011Y-79888110D01*
X73952007Y-79888113D01*
X73840513Y-79999607D01*
X73840510Y-79999611D01*
X73752909Y-80130714D01*
X73752902Y-80130727D01*
X73692564Y-80276398D01*
X73692561Y-80276410D01*
X73661800Y-80431053D01*
X69827442Y-80431053D01*
X69830737Y-80423097D01*
X69861500Y-80268442D01*
X69861500Y-80110758D01*
X69861500Y-80110755D01*
X69861499Y-80110753D01*
X69830737Y-79956103D01*
X69830652Y-79955897D01*
X69770397Y-79810427D01*
X69770390Y-79810414D01*
X69682789Y-79679311D01*
X69682786Y-79679307D01*
X69571292Y-79567813D01*
X69571288Y-79567810D01*
X69440185Y-79480209D01*
X69440172Y-79480202D01*
X69294501Y-79419864D01*
X69294489Y-79419861D01*
X69139845Y-79389100D01*
X69139842Y-79389100D01*
X68982158Y-79389100D01*
X68982155Y-79389100D01*
X68827510Y-79419861D01*
X68827498Y-79419864D01*
X68681827Y-79480202D01*
X68681814Y-79480209D01*
X68550711Y-79567810D01*
X68550707Y-79567813D01*
X68439213Y-79679307D01*
X68439210Y-79679311D01*
X68351609Y-79810414D01*
X68351602Y-79810427D01*
X68291264Y-79956098D01*
X68291261Y-79956110D01*
X68260500Y-80110753D01*
X65978549Y-80110753D01*
X65967738Y-80056408D01*
X65967737Y-80056407D01*
X65967737Y-80056403D01*
X65959221Y-80035844D01*
X65907397Y-79910727D01*
X65907390Y-79910714D01*
X65819789Y-79779611D01*
X65819786Y-79779607D01*
X65708292Y-79668113D01*
X65708288Y-79668110D01*
X65577185Y-79580509D01*
X65577179Y-79580506D01*
X65575817Y-79579942D01*
X65563161Y-79574699D01*
X65559020Y-79571362D01*
X65553798Y-79570356D01*
X65532101Y-79549669D01*
X65508759Y-79530858D01*
X65506048Y-79524828D01*
X65503230Y-79522141D01*
X65494941Y-79500119D01*
X65490112Y-79489375D01*
X65489502Y-79486864D01*
X65459037Y-79333703D01*
X65442879Y-79294696D01*
X65440614Y-79285357D01*
X65441836Y-79259672D01*
X65439088Y-79234104D01*
X65443471Y-79225347D01*
X65443937Y-79215567D01*
X65458851Y-79194622D01*
X65470363Y-79171625D01*
X65473388Y-79168489D01*
X65474224Y-79167653D01*
X71829000Y-79167653D01*
X71829000Y-79325346D01*
X71859761Y-79479989D01*
X71859764Y-79480001D01*
X71920102Y-79625672D01*
X71920109Y-79625685D01*
X72007710Y-79756788D01*
X72007713Y-79756792D01*
X72119207Y-79868286D01*
X72119211Y-79868289D01*
X72250314Y-79955890D01*
X72250327Y-79955897D01*
X72355854Y-79999607D01*
X72396003Y-80016237D01*
X72550653Y-80046999D01*
X72550656Y-80047000D01*
X72550658Y-80047000D01*
X72708344Y-80047000D01*
X72708345Y-80046999D01*
X72862997Y-80016237D01*
X73008158Y-79956110D01*
X73008672Y-79955897D01*
X73008672Y-79955896D01*
X73008679Y-79955894D01*
X73139789Y-79868289D01*
X73251289Y-79756789D01*
X73338894Y-79625679D01*
X73399237Y-79479997D01*
X73410723Y-79422253D01*
X90112500Y-79422253D01*
X90112500Y-79579946D01*
X90143261Y-79734589D01*
X90143264Y-79734601D01*
X90203602Y-79880272D01*
X90203609Y-79880285D01*
X90291210Y-80011388D01*
X90291213Y-80011392D01*
X90402707Y-80122886D01*
X90402711Y-80122889D01*
X90533814Y-80210490D01*
X90533827Y-80210497D01*
X90679498Y-80270835D01*
X90679503Y-80270837D01*
X90789330Y-80292683D01*
X90834153Y-80301599D01*
X90834156Y-80301600D01*
X90834158Y-80301600D01*
X90991844Y-80301600D01*
X90991845Y-80301599D01*
X91146497Y-80270837D01*
X91267991Y-80220513D01*
X91292172Y-80210497D01*
X91292172Y-80210496D01*
X91292179Y-80210494D01*
X91423289Y-80122889D01*
X91534789Y-80011389D01*
X91622394Y-79880279D01*
X91682737Y-79734597D01*
X91713500Y-79579942D01*
X91713500Y-79422258D01*
X91713500Y-79422255D01*
X91703853Y-79373758D01*
X91703853Y-79373757D01*
X91700252Y-79355653D01*
X104646600Y-79355653D01*
X104646600Y-79513346D01*
X104677361Y-79667989D01*
X104677364Y-79668001D01*
X104737702Y-79813672D01*
X104737709Y-79813685D01*
X104825310Y-79944788D01*
X104825313Y-79944792D01*
X104936807Y-80056286D01*
X104936811Y-80056289D01*
X105067914Y-80143890D01*
X105067927Y-80143897D01*
X105213598Y-80204235D01*
X105213603Y-80204237D01*
X105345605Y-80230494D01*
X105368253Y-80234999D01*
X105368256Y-80235000D01*
X105368258Y-80235000D01*
X105525944Y-80235000D01*
X105525945Y-80234999D01*
X105680597Y-80204237D01*
X105826279Y-80143894D01*
X105957389Y-80056289D01*
X106068889Y-79944789D01*
X106113414Y-79878153D01*
X108228600Y-79878153D01*
X108228600Y-80035846D01*
X108259361Y-80190489D01*
X108259364Y-80190501D01*
X108319702Y-80336172D01*
X108319709Y-80336185D01*
X108407310Y-80467288D01*
X108407313Y-80467292D01*
X108518807Y-80578786D01*
X108518811Y-80578789D01*
X108649914Y-80666390D01*
X108649927Y-80666397D01*
X108762221Y-80712910D01*
X108795603Y-80726737D01*
X108950253Y-80757499D01*
X108950256Y-80757500D01*
X108950258Y-80757500D01*
X109107944Y-80757500D01*
X109107945Y-80757499D01*
X109262597Y-80726737D01*
X109401814Y-80669072D01*
X109408272Y-80666397D01*
X109408272Y-80666396D01*
X109408279Y-80666394D01*
X109539389Y-80578789D01*
X109650889Y-80467289D01*
X109738494Y-80336179D01*
X109798837Y-80190497D01*
X109829600Y-80035842D01*
X109829600Y-79878158D01*
X109829600Y-79878155D01*
X109829599Y-79878153D01*
X109816775Y-79813685D01*
X109798837Y-79723503D01*
X109798835Y-79723498D01*
X109738497Y-79577827D01*
X109738490Y-79577814D01*
X109650889Y-79446711D01*
X109650886Y-79446707D01*
X109539392Y-79335213D01*
X109539388Y-79335210D01*
X109408285Y-79247609D01*
X109408272Y-79247602D01*
X109262601Y-79187264D01*
X109262589Y-79187261D01*
X109107945Y-79156500D01*
X109107942Y-79156500D01*
X108950258Y-79156500D01*
X108950255Y-79156500D01*
X108795610Y-79187261D01*
X108795598Y-79187264D01*
X108649927Y-79247602D01*
X108649914Y-79247609D01*
X108518811Y-79335210D01*
X108518807Y-79335213D01*
X108407313Y-79446707D01*
X108407310Y-79446711D01*
X108319709Y-79577814D01*
X108319702Y-79577827D01*
X108259364Y-79723498D01*
X108259361Y-79723510D01*
X108228600Y-79878153D01*
X106113414Y-79878153D01*
X106156494Y-79813679D01*
X106216837Y-79667997D01*
X106247600Y-79513342D01*
X106247600Y-79355658D01*
X106247600Y-79355655D01*
X106247599Y-79355653D01*
X106243232Y-79333698D01*
X106216837Y-79201003D01*
X106201130Y-79163083D01*
X106156497Y-79055327D01*
X106156490Y-79055314D01*
X106068889Y-78924211D01*
X106068886Y-78924207D01*
X105957392Y-78812713D01*
X105957388Y-78812710D01*
X105826285Y-78725109D01*
X105826272Y-78725102D01*
X105680601Y-78664764D01*
X105680589Y-78664761D01*
X105525945Y-78634000D01*
X105525942Y-78634000D01*
X105368258Y-78634000D01*
X105368255Y-78634000D01*
X105213610Y-78664761D01*
X105213598Y-78664764D01*
X105067927Y-78725102D01*
X105067914Y-78725109D01*
X104936811Y-78812710D01*
X104936807Y-78812713D01*
X104825313Y-78924207D01*
X104825310Y-78924211D01*
X104737709Y-79055314D01*
X104737702Y-79055327D01*
X104677364Y-79200998D01*
X104677361Y-79201010D01*
X104646600Y-79355653D01*
X91700252Y-79355653D01*
X91691880Y-79313567D01*
X91682737Y-79267603D01*
X91674454Y-79247606D01*
X91622397Y-79121927D01*
X91622390Y-79121914D01*
X91534789Y-78990811D01*
X91534786Y-78990807D01*
X91423292Y-78879313D01*
X91423288Y-78879310D01*
X91292185Y-78791709D01*
X91292172Y-78791702D01*
X91146501Y-78731364D01*
X91146489Y-78731361D01*
X90991845Y-78700600D01*
X90991842Y-78700600D01*
X90834158Y-78700600D01*
X90834155Y-78700600D01*
X90679510Y-78731361D01*
X90679498Y-78731364D01*
X90533827Y-78791702D01*
X90533814Y-78791709D01*
X90402711Y-78879310D01*
X90402707Y-78879313D01*
X90291213Y-78990807D01*
X90291210Y-78990811D01*
X90203609Y-79121914D01*
X90203602Y-79121927D01*
X90143264Y-79267598D01*
X90143261Y-79267610D01*
X90112500Y-79422253D01*
X73410723Y-79422253D01*
X73430000Y-79325342D01*
X73430000Y-79167658D01*
X73430000Y-79167655D01*
X73407971Y-79056911D01*
X73406411Y-79049069D01*
X73412638Y-78979480D01*
X73455500Y-78924302D01*
X73459104Y-78921799D01*
X73582889Y-78839089D01*
X73694389Y-78727589D01*
X73781994Y-78596479D01*
X73842337Y-78450797D01*
X73873100Y-78296142D01*
X73873100Y-78138458D01*
X73873100Y-78138455D01*
X73873099Y-78138453D01*
X73842337Y-77983803D01*
X73842332Y-77983792D01*
X73840569Y-77977976D01*
X73842925Y-77977260D01*
X73836611Y-77918549D01*
X73867884Y-77856068D01*
X73889749Y-77837460D01*
X73963489Y-77788189D01*
X74074989Y-77676689D01*
X74162594Y-77545579D01*
X74222937Y-77399897D01*
X74253700Y-77245242D01*
X74253700Y-77087558D01*
X74253700Y-77087555D01*
X74253699Y-77087553D01*
X74226946Y-76953058D01*
X74222937Y-76932903D01*
X74222935Y-76932898D01*
X74162597Y-76787227D01*
X74162590Y-76787214D01*
X74074989Y-76656111D01*
X74074986Y-76656107D01*
X73963492Y-76544613D01*
X73963488Y-76544610D01*
X73832385Y-76457009D01*
X73832372Y-76457002D01*
X73686701Y-76396664D01*
X73686689Y-76396661D01*
X73532045Y-76365900D01*
X73532042Y-76365900D01*
X73374358Y-76365900D01*
X73374355Y-76365900D01*
X73219710Y-76396661D01*
X73219698Y-76396664D01*
X73074027Y-76457002D01*
X73074014Y-76457009D01*
X72942911Y-76544610D01*
X72942907Y-76544613D01*
X72831413Y-76656107D01*
X72831410Y-76656111D01*
X72743809Y-76787214D01*
X72743802Y-76787227D01*
X72683464Y-76932898D01*
X72683461Y-76932910D01*
X72652700Y-77087553D01*
X72652700Y-77245246D01*
X72683461Y-77399889D01*
X72685231Y-77405724D01*
X72682881Y-77406436D01*
X72689180Y-77465193D01*
X72657885Y-77527663D01*
X72636049Y-77546240D01*
X72562307Y-77595513D01*
X72450813Y-77707007D01*
X72450810Y-77707011D01*
X72363209Y-77838114D01*
X72363202Y-77838127D01*
X72302864Y-77983798D01*
X72302861Y-77983810D01*
X72272100Y-78138453D01*
X72272100Y-78296146D01*
X72295688Y-78414729D01*
X72289461Y-78484320D01*
X72246598Y-78539498D01*
X72242962Y-78542022D01*
X72119211Y-78624710D01*
X72119207Y-78624713D01*
X72007713Y-78736207D01*
X72007710Y-78736211D01*
X71920109Y-78867314D01*
X71920102Y-78867327D01*
X71859764Y-79012998D01*
X71859761Y-79013010D01*
X71829000Y-79167653D01*
X65474224Y-79167653D01*
X65478789Y-79163089D01*
X65506297Y-79121921D01*
X65525839Y-79092675D01*
X65566390Y-79031985D01*
X65566390Y-79031984D01*
X65566394Y-79031979D01*
X65626737Y-78886297D01*
X65657500Y-78731642D01*
X65657500Y-78573958D01*
X65657500Y-78573955D01*
X65657499Y-78573953D01*
X65650170Y-78537106D01*
X65626737Y-78419303D01*
X65624842Y-78414729D01*
X65566397Y-78273627D01*
X65566390Y-78273614D01*
X65478789Y-78142511D01*
X65478786Y-78142507D01*
X65367292Y-78031013D01*
X65367288Y-78031010D01*
X65236185Y-77943409D01*
X65236172Y-77943402D01*
X65090501Y-77883064D01*
X65090491Y-77883061D01*
X65002989Y-77865656D01*
X64941078Y-77833271D01*
X64906504Y-77772555D01*
X64910244Y-77702786D01*
X64951111Y-77646114D01*
X64958291Y-77640937D01*
X64980605Y-77626026D01*
X64990389Y-77619489D01*
X65101889Y-77507989D01*
X65189494Y-77376879D01*
X65189496Y-77376872D01*
X65192364Y-77371509D01*
X65194809Y-77372815D01*
X65231172Y-77327685D01*
X65297464Y-77305614D01*
X65365165Y-77322888D01*
X65410770Y-77371864D01*
X65411436Y-77371509D01*
X65414309Y-77376885D01*
X65501910Y-77507988D01*
X65501913Y-77507992D01*
X65613407Y-77619486D01*
X65613411Y-77619489D01*
X65744514Y-77707090D01*
X65744527Y-77707097D01*
X65884182Y-77764943D01*
X65890203Y-77767437D01*
X65994520Y-77788187D01*
X66044853Y-77798199D01*
X66044856Y-77798200D01*
X66044858Y-77798200D01*
X66202544Y-77798200D01*
X66202545Y-77798199D01*
X66357197Y-77767437D01*
X66502879Y-77707094D01*
X66633989Y-77619489D01*
X66745489Y-77507989D01*
X66833094Y-77376879D01*
X66893437Y-77231197D01*
X66924200Y-77076542D01*
X66924200Y-76918858D01*
X66924200Y-76918855D01*
X66924199Y-76918853D01*
X66900239Y-76798398D01*
X66893437Y-76764203D01*
X66893435Y-76764198D01*
X66833097Y-76618527D01*
X66833090Y-76618514D01*
X66745489Y-76487411D01*
X66745486Y-76487407D01*
X66633992Y-76375913D01*
X66633988Y-76375910D01*
X66502885Y-76288309D01*
X66502872Y-76288302D01*
X66383991Y-76239061D01*
X66329587Y-76195220D01*
X66307522Y-76128926D01*
X66324801Y-76061227D01*
X66375938Y-76013616D01*
X66431443Y-76000500D01*
X69192577Y-76000500D01*
X69259616Y-76020185D01*
X69305371Y-76072989D01*
X69315315Y-76142147D01*
X69286290Y-76205703D01*
X69227512Y-76243477D01*
X69216769Y-76246117D01*
X69136108Y-76262161D01*
X69136098Y-76262164D01*
X68990427Y-76322502D01*
X68990414Y-76322509D01*
X68859311Y-76410110D01*
X68859307Y-76410113D01*
X68747813Y-76521607D01*
X68747810Y-76521611D01*
X68660209Y-76652714D01*
X68660202Y-76652727D01*
X68599864Y-76798398D01*
X68599861Y-76798410D01*
X68569100Y-76953053D01*
X68569100Y-77110746D01*
X68599861Y-77265389D01*
X68599864Y-77265401D01*
X68643359Y-77370408D01*
X68650828Y-77439877D01*
X68619552Y-77502356D01*
X68594124Y-77521929D01*
X68594586Y-77522621D01*
X68458411Y-77613610D01*
X68458407Y-77613613D01*
X68346913Y-77725107D01*
X68346910Y-77725111D01*
X68259309Y-77856214D01*
X68259302Y-77856227D01*
X68198964Y-78001898D01*
X68198961Y-78001910D01*
X68168200Y-78156553D01*
X68168200Y-78314246D01*
X68198961Y-78468889D01*
X68198964Y-78468901D01*
X68259302Y-78614572D01*
X68259309Y-78614585D01*
X68346910Y-78745688D01*
X68346913Y-78745692D01*
X68458407Y-78857186D01*
X68458411Y-78857189D01*
X68589514Y-78944790D01*
X68589527Y-78944797D01*
X68735198Y-79005135D01*
X68735203Y-79005137D01*
X68870111Y-79031972D01*
X68889853Y-79035899D01*
X68889856Y-79035900D01*
X68889858Y-79035900D01*
X69047544Y-79035900D01*
X69047545Y-79035899D01*
X69202197Y-79005137D01*
X69347879Y-78944794D01*
X69478989Y-78857189D01*
X69590489Y-78745689D01*
X69678094Y-78614579D01*
X69738437Y-78468897D01*
X69769200Y-78314242D01*
X69769200Y-78156558D01*
X69769200Y-78156555D01*
X69769199Y-78156553D01*
X69744227Y-78031011D01*
X69738437Y-78001903D01*
X69694939Y-77896890D01*
X69687471Y-77827422D01*
X69718746Y-77764943D01*
X69744176Y-77745372D01*
X69743713Y-77744679D01*
X69879889Y-77653689D01*
X69991386Y-77542192D01*
X69991389Y-77542189D01*
X70078994Y-77411079D01*
X70139337Y-77265397D01*
X70170100Y-77110742D01*
X70170100Y-76953058D01*
X70170100Y-76953055D01*
X70170099Y-76953053D01*
X70163297Y-76918858D01*
X70139337Y-76798403D01*
X70134705Y-76787221D01*
X70078997Y-76652727D01*
X70078990Y-76652714D01*
X69991389Y-76521611D01*
X69991386Y-76521607D01*
X69879892Y-76410113D01*
X69879888Y-76410110D01*
X69748785Y-76322509D01*
X69748772Y-76322502D01*
X69603101Y-76262164D01*
X69603091Y-76262161D01*
X69522431Y-76246117D01*
X69460521Y-76213732D01*
X69425946Y-76153016D01*
X69429686Y-76083247D01*
X69470553Y-76026575D01*
X69535571Y-76000994D01*
X69546623Y-76000500D01*
X76969324Y-76000500D01*
X77036363Y-76020185D01*
X77082118Y-76072989D01*
X77092062Y-76142147D01*
X77083885Y-76171952D01*
X77044764Y-76266398D01*
X77044761Y-76266410D01*
X77014000Y-76421053D01*
X77014000Y-76578746D01*
X77044761Y-76733389D01*
X77044764Y-76733401D01*
X77105102Y-76879072D01*
X77105109Y-76879085D01*
X77192710Y-77010188D01*
X77192713Y-77010192D01*
X77304207Y-77121686D01*
X77304211Y-77121689D01*
X77435314Y-77209290D01*
X77435327Y-77209297D01*
X77570776Y-77265401D01*
X77581003Y-77269637D01*
X77735653Y-77300399D01*
X77735656Y-77300400D01*
X77735658Y-77300400D01*
X77893344Y-77300400D01*
X77893345Y-77300399D01*
X78047997Y-77269637D01*
X78101821Y-77247341D01*
X78171289Y-77239872D01*
X78218165Y-77258800D01*
X78343714Y-77342690D01*
X78343727Y-77342697D01*
X78481803Y-77399889D01*
X78489403Y-77403037D01*
X78644053Y-77433799D01*
X78644056Y-77433800D01*
X78644058Y-77433800D01*
X78801744Y-77433800D01*
X78801745Y-77433799D01*
X78956397Y-77403037D01*
X79102079Y-77342694D01*
X79233189Y-77255089D01*
X79344689Y-77143589D01*
X79432294Y-77012479D01*
X79492637Y-76866797D01*
X79523400Y-76712142D01*
X79523400Y-76554458D01*
X79523400Y-76554455D01*
X79523399Y-76554453D01*
X79510063Y-76487411D01*
X79492637Y-76399803D01*
X79446454Y-76288306D01*
X79432297Y-76254127D01*
X79432290Y-76254114D01*
X79391716Y-76193391D01*
X79370838Y-76126714D01*
X79389322Y-76059333D01*
X79441301Y-76012643D01*
X79494818Y-76000500D01*
X123875500Y-76000500D01*
X123942539Y-76020185D01*
X123988294Y-76072989D01*
X123999500Y-76124500D01*
X123999500Y-109726533D01*
X123979815Y-109793572D01*
X123963181Y-109814214D01*
X105314214Y-128463181D01*
X105252891Y-128496666D01*
X105226533Y-128499500D01*
X104286799Y-128499500D01*
X104219760Y-128479815D01*
X104174005Y-128427011D01*
X104164061Y-128357853D01*
X104193086Y-128294297D01*
X104230504Y-128265015D01*
X104243681Y-128258300D01*
X104367816Y-128195051D01*
X104464371Y-128124899D01*
X104539786Y-128070109D01*
X104539788Y-128070106D01*
X104539792Y-128070104D01*
X104690104Y-127919792D01*
X104690106Y-127919788D01*
X104690109Y-127919786D01*
X104815048Y-127747820D01*
X104815047Y-127747820D01*
X104815051Y-127747816D01*
X104911557Y-127558412D01*
X104977246Y-127356243D01*
X105010500Y-127146287D01*
X105010500Y-126933713D01*
X104977246Y-126723757D01*
X104911557Y-126521588D01*
X104815051Y-126332184D01*
X104815049Y-126332181D01*
X104815048Y-126332179D01*
X104690109Y-126160213D01*
X104576569Y-126046673D01*
X104543084Y-125985350D01*
X104548068Y-125915658D01*
X104589940Y-125859725D01*
X104620915Y-125842810D01*
X104752331Y-125793796D01*
X104867546Y-125707546D01*
X104953796Y-125592331D01*
X105004091Y-125457483D01*
X105010500Y-125397873D01*
X105010499Y-123602128D01*
X105004091Y-123542517D01*
X105002810Y-123539083D01*
X104953797Y-123407671D01*
X104953793Y-123407664D01*
X104867547Y-123292455D01*
X104867544Y-123292452D01*
X104752335Y-123206206D01*
X104752328Y-123206202D01*
X104617482Y-123155908D01*
X104617483Y-123155908D01*
X104557883Y-123149501D01*
X104557881Y-123149500D01*
X104557873Y-123149500D01*
X104557864Y-123149500D01*
X102762129Y-123149500D01*
X102762123Y-123149501D01*
X102702516Y-123155908D01*
X102567671Y-123206202D01*
X102567664Y-123206206D01*
X102452455Y-123292452D01*
X102452452Y-123292455D01*
X102366206Y-123407664D01*
X102366203Y-123407669D01*
X102317189Y-123539083D01*
X102275317Y-123595016D01*
X102209853Y-123619433D01*
X102141580Y-123604581D01*
X102113326Y-123583430D01*
X101999786Y-123469890D01*
X101827820Y-123344951D01*
X101638414Y-123248444D01*
X101638413Y-123248443D01*
X101638412Y-123248443D01*
X101436243Y-123182754D01*
X101436241Y-123182753D01*
X101436240Y-123182753D01*
X101274957Y-123157208D01*
X101226287Y-123149500D01*
X101013713Y-123149500D01*
X100965042Y-123157208D01*
X100803760Y-123182753D01*
X100601585Y-123248444D01*
X100412179Y-123344951D01*
X100240213Y-123469890D01*
X100089890Y-123620213D01*
X99964949Y-123792182D01*
X99960484Y-123800946D01*
X99912509Y-123851742D01*
X99844688Y-123868536D01*
X99778553Y-123845998D01*
X99739516Y-123800946D01*
X99735050Y-123792182D01*
X99610109Y-123620213D01*
X99459786Y-123469890D01*
X99287820Y-123344951D01*
X99098414Y-123248444D01*
X99098413Y-123248443D01*
X99098412Y-123248443D01*
X98896243Y-123182754D01*
X98896241Y-123182753D01*
X98896240Y-123182753D01*
X98734957Y-123157208D01*
X98686287Y-123149500D01*
X98473713Y-123149500D01*
X98425042Y-123157208D01*
X98263760Y-123182753D01*
X98061585Y-123248444D01*
X97872179Y-123344951D01*
X97700213Y-123469890D01*
X97549890Y-123620213D01*
X97424949Y-123792182D01*
X97420484Y-123800946D01*
X97372509Y-123851742D01*
X97304688Y-123868536D01*
X97238553Y-123845998D01*
X97199516Y-123800946D01*
X97195050Y-123792182D01*
X97070109Y-123620213D01*
X96919786Y-123469890D01*
X96747820Y-123344951D01*
X96558414Y-123248444D01*
X96558413Y-123248443D01*
X96558412Y-123248443D01*
X96356243Y-123182754D01*
X96356241Y-123182753D01*
X96356240Y-123182753D01*
X96194957Y-123157208D01*
X96146287Y-123149500D01*
X95933713Y-123149500D01*
X95885042Y-123157208D01*
X95723760Y-123182753D01*
X95521585Y-123248444D01*
X95332179Y-123344951D01*
X95160213Y-123469890D01*
X95009890Y-123620213D01*
X94884949Y-123792182D01*
X94880484Y-123800946D01*
X94832509Y-123851742D01*
X94764688Y-123868536D01*
X94698553Y-123845998D01*
X94659516Y-123800946D01*
X94655050Y-123792182D01*
X94530109Y-123620213D01*
X94379786Y-123469890D01*
X94207820Y-123344951D01*
X94018414Y-123248444D01*
X94018413Y-123248443D01*
X94018412Y-123248443D01*
X93816243Y-123182754D01*
X93816241Y-123182753D01*
X93816240Y-123182753D01*
X93654957Y-123157208D01*
X93606287Y-123149500D01*
X93393713Y-123149500D01*
X93345042Y-123157208D01*
X93183760Y-123182753D01*
X92981585Y-123248444D01*
X92792179Y-123344951D01*
X92620213Y-123469890D01*
X92469890Y-123620213D01*
X92344949Y-123792182D01*
X92340484Y-123800946D01*
X92292509Y-123851742D01*
X92224688Y-123868536D01*
X92158553Y-123845998D01*
X92119516Y-123800946D01*
X92115050Y-123792182D01*
X91990109Y-123620213D01*
X91839786Y-123469890D01*
X91667820Y-123344951D01*
X91478414Y-123248444D01*
X91478413Y-123248443D01*
X91478412Y-123248443D01*
X91276243Y-123182754D01*
X91276241Y-123182753D01*
X91276240Y-123182753D01*
X91114957Y-123157208D01*
X91066287Y-123149500D01*
X90853713Y-123149500D01*
X90805042Y-123157208D01*
X90643760Y-123182753D01*
X90441585Y-123248444D01*
X90252179Y-123344951D01*
X90080213Y-123469890D01*
X89929890Y-123620213D01*
X89804949Y-123792182D01*
X89800484Y-123800946D01*
X89752509Y-123851742D01*
X89684688Y-123868536D01*
X89618553Y-123845998D01*
X89579516Y-123800946D01*
X89575050Y-123792182D01*
X89450109Y-123620213D01*
X89299786Y-123469890D01*
X89127820Y-123344951D01*
X88938414Y-123248444D01*
X88938413Y-123248443D01*
X88938412Y-123248443D01*
X88736243Y-123182754D01*
X88736241Y-123182753D01*
X88736240Y-123182753D01*
X88574957Y-123157208D01*
X88526287Y-123149500D01*
X88313713Y-123149500D01*
X88265042Y-123157208D01*
X88103760Y-123182753D01*
X87901585Y-123248444D01*
X87712179Y-123344951D01*
X87540213Y-123469890D01*
X87389890Y-123620213D01*
X87264949Y-123792182D01*
X87260484Y-123800946D01*
X87212509Y-123851742D01*
X87144688Y-123868536D01*
X87078553Y-123845998D01*
X87039516Y-123800946D01*
X87035050Y-123792182D01*
X86910109Y-123620213D01*
X86759786Y-123469890D01*
X86587820Y-123344951D01*
X86398414Y-123248444D01*
X86398413Y-123248443D01*
X86398412Y-123248443D01*
X86196243Y-123182754D01*
X86196241Y-123182753D01*
X86196240Y-123182753D01*
X86034957Y-123157208D01*
X85986287Y-123149500D01*
X85773713Y-123149500D01*
X85725042Y-123157208D01*
X85563760Y-123182753D01*
X85361585Y-123248444D01*
X85172179Y-123344951D01*
X85000213Y-123469890D01*
X84849890Y-123620213D01*
X84724949Y-123792182D01*
X84720484Y-123800946D01*
X84672509Y-123851742D01*
X84604688Y-123868536D01*
X84538553Y-123845998D01*
X84499516Y-123800946D01*
X84495050Y-123792182D01*
X84370109Y-123620213D01*
X84219786Y-123469890D01*
X84047820Y-123344951D01*
X83858414Y-123248444D01*
X83858413Y-123248443D01*
X83858412Y-123248443D01*
X83656243Y-123182754D01*
X83656241Y-123182753D01*
X83656240Y-123182753D01*
X83494957Y-123157208D01*
X83446287Y-123149500D01*
X83233713Y-123149500D01*
X83185042Y-123157208D01*
X83023760Y-123182753D01*
X82821585Y-123248444D01*
X82632179Y-123344951D01*
X82460213Y-123469890D01*
X82309890Y-123620213D01*
X82184949Y-123792182D01*
X82180202Y-123801499D01*
X82132227Y-123852293D01*
X82064405Y-123869087D01*
X81998271Y-123846548D01*
X81959234Y-123801495D01*
X81954622Y-123792444D01*
X81829727Y-123620540D01*
X81829723Y-123620535D01*
X81679464Y-123470276D01*
X81679459Y-123470272D01*
X81507557Y-123345379D01*
X81318215Y-123248903D01*
X81116124Y-123183241D01*
X81050000Y-123172768D01*
X81050000Y-124066988D01*
X80992993Y-124034075D01*
X80865826Y-124000000D01*
X80734174Y-124000000D01*
X80607007Y-124034075D01*
X80550000Y-124066988D01*
X80550000Y-123172768D01*
X80549999Y-123172768D01*
X80483875Y-123183241D01*
X80281784Y-123248903D01*
X80092442Y-123345379D01*
X79920540Y-123470272D01*
X79920535Y-123470276D01*
X79770276Y-123620535D01*
X79770272Y-123620540D01*
X79645378Y-123792443D01*
X79640762Y-123801502D01*
X79592784Y-123852295D01*
X79524963Y-123869087D01*
X79458829Y-123846546D01*
X79419794Y-123801493D01*
X79415051Y-123792184D01*
X79415049Y-123792181D01*
X79415048Y-123792179D01*
X79290109Y-123620213D01*
X79139786Y-123469890D01*
X78967820Y-123344951D01*
X78778414Y-123248444D01*
X78778413Y-123248443D01*
X78778412Y-123248443D01*
X78576243Y-123182754D01*
X78576241Y-123182753D01*
X78576240Y-123182753D01*
X78414957Y-123157208D01*
X78366287Y-123149500D01*
X78153713Y-123149500D01*
X78105042Y-123157208D01*
X77943760Y-123182753D01*
X77741585Y-123248444D01*
X77552179Y-123344951D01*
X77380213Y-123469890D01*
X77229890Y-123620213D01*
X77104949Y-123792182D01*
X77100202Y-123801499D01*
X77052227Y-123852293D01*
X76984405Y-123869087D01*
X76918271Y-123846548D01*
X76879234Y-123801495D01*
X76874622Y-123792444D01*
X76749727Y-123620540D01*
X76749723Y-123620535D01*
X76599464Y-123470276D01*
X76599459Y-123470272D01*
X76427557Y-123345379D01*
X76238215Y-123248903D01*
X76036124Y-123183241D01*
X75970000Y-123172768D01*
X75970000Y-124066988D01*
X75912993Y-124034075D01*
X75785826Y-124000000D01*
X75654174Y-124000000D01*
X75527007Y-124034075D01*
X75470000Y-124066988D01*
X75470000Y-123172768D01*
X75469999Y-123172768D01*
X75403875Y-123183241D01*
X75201784Y-123248903D01*
X75012442Y-123345379D01*
X74840540Y-123470272D01*
X74840535Y-123470276D01*
X74690276Y-123620535D01*
X74690272Y-123620540D01*
X74565378Y-123792443D01*
X74560762Y-123801502D01*
X74512784Y-123852295D01*
X74444963Y-123869087D01*
X74378829Y-123846546D01*
X74339794Y-123801493D01*
X74335051Y-123792184D01*
X74335049Y-123792181D01*
X74335048Y-123792179D01*
X74210109Y-123620213D01*
X74059786Y-123469890D01*
X73887820Y-123344951D01*
X73698414Y-123248444D01*
X73698413Y-123248443D01*
X73698412Y-123248443D01*
X73496243Y-123182754D01*
X73496241Y-123182753D01*
X73496240Y-123182753D01*
X73334957Y-123157208D01*
X73286287Y-123149500D01*
X73073713Y-123149500D01*
X73025042Y-123157208D01*
X72863760Y-123182753D01*
X72661585Y-123248444D01*
X72472179Y-123344951D01*
X72300213Y-123469890D01*
X72149890Y-123620213D01*
X72024949Y-123792182D01*
X72020484Y-123800946D01*
X71972509Y-123851742D01*
X71904688Y-123868536D01*
X71838553Y-123845998D01*
X71799516Y-123800946D01*
X71795050Y-123792182D01*
X71670109Y-123620213D01*
X71519786Y-123469890D01*
X71347820Y-123344951D01*
X71158414Y-123248444D01*
X71158413Y-123248443D01*
X71158412Y-123248443D01*
X70956243Y-123182754D01*
X70956241Y-123182753D01*
X70956240Y-123182753D01*
X70794957Y-123157208D01*
X70746287Y-123149500D01*
X70533713Y-123149500D01*
X70485042Y-123157208D01*
X70323760Y-123182753D01*
X70121585Y-123248444D01*
X69932179Y-123344951D01*
X69760213Y-123469890D01*
X69609890Y-123620213D01*
X69484949Y-123792182D01*
X69480484Y-123800946D01*
X69432509Y-123851742D01*
X69364688Y-123868536D01*
X69298553Y-123845998D01*
X69259516Y-123800946D01*
X69255050Y-123792182D01*
X69130109Y-123620213D01*
X68979786Y-123469890D01*
X68807820Y-123344951D01*
X68618414Y-123248444D01*
X68618413Y-123248443D01*
X68618412Y-123248443D01*
X68416243Y-123182754D01*
X68416241Y-123182753D01*
X68416240Y-123182753D01*
X68254957Y-123157208D01*
X68206287Y-123149500D01*
X67993713Y-123149500D01*
X67945042Y-123157208D01*
X67783760Y-123182753D01*
X67581585Y-123248444D01*
X67392179Y-123344951D01*
X67220213Y-123469890D01*
X67069890Y-123620213D01*
X66944949Y-123792182D01*
X66940484Y-123800946D01*
X66892509Y-123851742D01*
X66824688Y-123868536D01*
X66758553Y-123845998D01*
X66719516Y-123800946D01*
X66715050Y-123792182D01*
X66590109Y-123620213D01*
X66439786Y-123469890D01*
X66267820Y-123344951D01*
X66078414Y-123248444D01*
X66078413Y-123248443D01*
X66078412Y-123248443D01*
X65876243Y-123182754D01*
X65876241Y-123182753D01*
X65876240Y-123182753D01*
X65714957Y-123157208D01*
X65666287Y-123149500D01*
X65453713Y-123149500D01*
X65405042Y-123157208D01*
X65243760Y-123182753D01*
X65041585Y-123248444D01*
X64852179Y-123344951D01*
X64680213Y-123469890D01*
X64529890Y-123620213D01*
X64404951Y-123792179D01*
X64308444Y-123981585D01*
X64242753Y-124183760D01*
X64209500Y-124393713D01*
X64209500Y-124606286D01*
X64242753Y-124816239D01*
X64308444Y-125018414D01*
X64404951Y-125207820D01*
X64529890Y-125379786D01*
X64680213Y-125530109D01*
X64852182Y-125655050D01*
X64860946Y-125659516D01*
X64911742Y-125707491D01*
X64928536Y-125775312D01*
X64905998Y-125841447D01*
X64860946Y-125880484D01*
X64852182Y-125884949D01*
X64680213Y-126009890D01*
X64529890Y-126160213D01*
X64404951Y-126332179D01*
X64308444Y-126521585D01*
X64242753Y-126723760D01*
X64209500Y-126933713D01*
X64209500Y-127146286D01*
X64242753Y-127356239D01*
X64308444Y-127558414D01*
X64404951Y-127747820D01*
X64529890Y-127919786D01*
X64680213Y-128070109D01*
X64841134Y-128187023D01*
X64852184Y-128195051D01*
X64970313Y-128255240D01*
X64989496Y-128265015D01*
X65040292Y-128312990D01*
X65057087Y-128380811D01*
X65034550Y-128446946D01*
X64979834Y-128490397D01*
X64933201Y-128499500D01*
X63758676Y-128499500D01*
X63691637Y-128479815D01*
X63670995Y-128463181D01*
X56737867Y-121530053D01*
X88464700Y-121530053D01*
X88464700Y-121687746D01*
X88495461Y-121842389D01*
X88495464Y-121842401D01*
X88555802Y-121988072D01*
X88555809Y-121988085D01*
X88643410Y-122119188D01*
X88643413Y-122119192D01*
X88754907Y-122230686D01*
X88754911Y-122230689D01*
X88886014Y-122318290D01*
X88886027Y-122318297D01*
X89031698Y-122378635D01*
X89031703Y-122378637D01*
X89186353Y-122409399D01*
X89186356Y-122409400D01*
X89186358Y-122409400D01*
X89344044Y-122409400D01*
X89344045Y-122409399D01*
X89498697Y-122378637D01*
X89644379Y-122318294D01*
X89775489Y-122230689D01*
X89886989Y-122119189D01*
X89974594Y-121988079D01*
X90034937Y-121842397D01*
X90065700Y-121687742D01*
X90065700Y-121530058D01*
X90065700Y-121530055D01*
X90065699Y-121530053D01*
X90034938Y-121375410D01*
X90034937Y-121375403D01*
X90034935Y-121375398D01*
X89974597Y-121229727D01*
X89974590Y-121229714D01*
X89886989Y-121098611D01*
X89886986Y-121098607D01*
X89775492Y-120987113D01*
X89775488Y-120987110D01*
X89644385Y-120899509D01*
X89644372Y-120899502D01*
X89498701Y-120839164D01*
X89498689Y-120839161D01*
X89344045Y-120808400D01*
X89344042Y-120808400D01*
X89186358Y-120808400D01*
X89186355Y-120808400D01*
X89031710Y-120839161D01*
X89031698Y-120839164D01*
X88886027Y-120899502D01*
X88886014Y-120899509D01*
X88754911Y-120987110D01*
X88754907Y-120987113D01*
X88643413Y-121098607D01*
X88643410Y-121098611D01*
X88555809Y-121229714D01*
X88555802Y-121229727D01*
X88495464Y-121375398D01*
X88495461Y-121375410D01*
X88464700Y-121530053D01*
X56737867Y-121530053D01*
X53771467Y-118563653D01*
X66928900Y-118563653D01*
X66928900Y-118721346D01*
X66959661Y-118875989D01*
X66959664Y-118876001D01*
X67020002Y-119021672D01*
X67020009Y-119021685D01*
X67107610Y-119152788D01*
X67107613Y-119152792D01*
X67219107Y-119264286D01*
X67219111Y-119264289D01*
X67350214Y-119351890D01*
X67350227Y-119351897D01*
X67495898Y-119412235D01*
X67495903Y-119412237D01*
X67650553Y-119442999D01*
X67650556Y-119443000D01*
X67650558Y-119443000D01*
X67808244Y-119443000D01*
X67808245Y-119442999D01*
X67962897Y-119412237D01*
X68108579Y-119351894D01*
X68239689Y-119264289D01*
X68351189Y-119152789D01*
X68438794Y-119021679D01*
X68499137Y-118875997D01*
X68529900Y-118721342D01*
X68529900Y-118563658D01*
X68529900Y-118563655D01*
X68529899Y-118563653D01*
X68499138Y-118409010D01*
X68499137Y-118409003D01*
X68490018Y-118386988D01*
X68438797Y-118263327D01*
X68438790Y-118263314D01*
X68351189Y-118132211D01*
X68351186Y-118132207D01*
X68239692Y-118020713D01*
X68239688Y-118020710D01*
X68108585Y-117933109D01*
X68108572Y-117933102D01*
X68043929Y-117906327D01*
X67962901Y-117872764D01*
X67962889Y-117872761D01*
X67808245Y-117842000D01*
X67808242Y-117842000D01*
X67650558Y-117842000D01*
X67650555Y-117842000D01*
X67495910Y-117872761D01*
X67495898Y-117872764D01*
X67350227Y-117933102D01*
X67350214Y-117933109D01*
X67219111Y-118020710D01*
X67219107Y-118020713D01*
X67107613Y-118132207D01*
X67107610Y-118132211D01*
X67020009Y-118263314D01*
X67020002Y-118263327D01*
X66959664Y-118408998D01*
X66959661Y-118409010D01*
X66928900Y-118563653D01*
X53771467Y-118563653D01*
X53005667Y-117797853D01*
X78075600Y-117797853D01*
X78075600Y-117955546D01*
X78106361Y-118110189D01*
X78106364Y-118110201D01*
X78166702Y-118255872D01*
X78166709Y-118255885D01*
X78254310Y-118386988D01*
X78254313Y-118386992D01*
X78365807Y-118498486D01*
X78365811Y-118498489D01*
X78496914Y-118586090D01*
X78496927Y-118586097D01*
X78642598Y-118646435D01*
X78642603Y-118646437D01*
X78797253Y-118677199D01*
X78797256Y-118677200D01*
X78797258Y-118677200D01*
X78954944Y-118677200D01*
X78954945Y-118677199D01*
X79109597Y-118646437D01*
X79255279Y-118586094D01*
X79386389Y-118498489D01*
X79497889Y-118386989D01*
X79585494Y-118255879D01*
X79645837Y-118110197D01*
X79676600Y-117955542D01*
X79676600Y-117797858D01*
X79676600Y-117797855D01*
X79676599Y-117797853D01*
X79645838Y-117643210D01*
X79645837Y-117643203D01*
X79645835Y-117643198D01*
X79585497Y-117497527D01*
X79585490Y-117497514D01*
X79497889Y-117366411D01*
X79497886Y-117366407D01*
X79386392Y-117254913D01*
X79386388Y-117254910D01*
X79255285Y-117167309D01*
X79255272Y-117167302D01*
X79109601Y-117106964D01*
X79109589Y-117106961D01*
X78954945Y-117076200D01*
X78954942Y-117076200D01*
X78797258Y-117076200D01*
X78797255Y-117076200D01*
X78642610Y-117106961D01*
X78642598Y-117106964D01*
X78496927Y-117167302D01*
X78496914Y-117167309D01*
X78365811Y-117254910D01*
X78365807Y-117254913D01*
X78254313Y-117366407D01*
X78254310Y-117366411D01*
X78166709Y-117497514D01*
X78166702Y-117497527D01*
X78106364Y-117643198D01*
X78106361Y-117643210D01*
X78075600Y-117797853D01*
X53005667Y-117797853D01*
X51269567Y-116061753D01*
X87129200Y-116061753D01*
X87129200Y-116219446D01*
X87159961Y-116374089D01*
X87159964Y-116374101D01*
X87220302Y-116519772D01*
X87220309Y-116519785D01*
X87307910Y-116650888D01*
X87307913Y-116650892D01*
X87419407Y-116762386D01*
X87419411Y-116762389D01*
X87550514Y-116849990D01*
X87550527Y-116849997D01*
X87631033Y-116883343D01*
X87696203Y-116910337D01*
X87850853Y-116941099D01*
X87850856Y-116941100D01*
X87850858Y-116941100D01*
X88008544Y-116941100D01*
X88008545Y-116941099D01*
X88163197Y-116910337D01*
X88308879Y-116849994D01*
X88439989Y-116762389D01*
X88551489Y-116650889D01*
X88639094Y-116519779D01*
X88699437Y-116374097D01*
X88730200Y-116219442D01*
X88730200Y-116061758D01*
X88730200Y-116061755D01*
X88730199Y-116061753D01*
X88699438Y-115907110D01*
X88699437Y-115907103D01*
X88699435Y-115907098D01*
X88639097Y-115761427D01*
X88639090Y-115761414D01*
X88551489Y-115630311D01*
X88551486Y-115630307D01*
X88439992Y-115518813D01*
X88439988Y-115518810D01*
X88384752Y-115481902D01*
X104949500Y-115481902D01*
X104949500Y-115718097D01*
X104986446Y-115951368D01*
X105059433Y-116175996D01*
X105166657Y-116386433D01*
X105305483Y-116577510D01*
X105472490Y-116744517D01*
X105663567Y-116883343D01*
X105716542Y-116910335D01*
X105874003Y-116990566D01*
X105874005Y-116990566D01*
X105874008Y-116990568D01*
X105994412Y-117029689D01*
X106098631Y-117063553D01*
X106331903Y-117100500D01*
X106331908Y-117100500D01*
X106568097Y-117100500D01*
X106801368Y-117063553D01*
X107025992Y-116990568D01*
X107236433Y-116883343D01*
X107427510Y-116744517D01*
X107594517Y-116577510D01*
X107733343Y-116386433D01*
X107840568Y-116175992D01*
X107913553Y-115951368D01*
X107920565Y-115907098D01*
X107950500Y-115718097D01*
X107950500Y-115481902D01*
X108999500Y-115481902D01*
X108999500Y-115718097D01*
X109036446Y-115951368D01*
X109109433Y-116175996D01*
X109216657Y-116386433D01*
X109355483Y-116577510D01*
X109522490Y-116744517D01*
X109713567Y-116883343D01*
X109766542Y-116910335D01*
X109924003Y-116990566D01*
X109924005Y-116990566D01*
X109924008Y-116990568D01*
X110044412Y-117029689D01*
X110148631Y-117063553D01*
X110381903Y-117100500D01*
X110381908Y-117100500D01*
X110618097Y-117100500D01*
X110851368Y-117063553D01*
X111075992Y-116990568D01*
X111286433Y-116883343D01*
X111477510Y-116744517D01*
X111644517Y-116577510D01*
X111783343Y-116386433D01*
X111890568Y-116175992D01*
X111963553Y-115951368D01*
X111970565Y-115907098D01*
X112000500Y-115718097D01*
X112000500Y-115481902D01*
X111963553Y-115248631D01*
X111890566Y-115024003D01*
X111783342Y-114813566D01*
X111777152Y-114805046D01*
X111644517Y-114622490D01*
X111477510Y-114455483D01*
X111286433Y-114316657D01*
X111238035Y-114291997D01*
X111075996Y-114209433D01*
X110851368Y-114136446D01*
X110618097Y-114099500D01*
X110618092Y-114099500D01*
X110381908Y-114099500D01*
X110381903Y-114099500D01*
X110148631Y-114136446D01*
X109924003Y-114209433D01*
X109713566Y-114316657D01*
X109664456Y-114352338D01*
X109522490Y-114455483D01*
X109522488Y-114455485D01*
X109522487Y-114455485D01*
X109355485Y-114622487D01*
X109355485Y-114622488D01*
X109355483Y-114622490D01*
X109304772Y-114692288D01*
X109216657Y-114813566D01*
X109109433Y-115024003D01*
X109036446Y-115248631D01*
X108999500Y-115481902D01*
X107950500Y-115481902D01*
X107913553Y-115248631D01*
X107840566Y-115024003D01*
X107733342Y-114813566D01*
X107727152Y-114805046D01*
X107594517Y-114622490D01*
X107427510Y-114455483D01*
X107236433Y-114316657D01*
X107188035Y-114291997D01*
X107025996Y-114209433D01*
X106801368Y-114136446D01*
X106568097Y-114099500D01*
X106568092Y-114099500D01*
X106331908Y-114099500D01*
X106331903Y-114099500D01*
X106098631Y-114136446D01*
X105874003Y-114209433D01*
X105663566Y-114316657D01*
X105614456Y-114352338D01*
X105472490Y-114455483D01*
X105472488Y-114455485D01*
X105472487Y-114455485D01*
X105305485Y-114622487D01*
X105305485Y-114622488D01*
X105305483Y-114622490D01*
X105254772Y-114692288D01*
X105166657Y-114813566D01*
X105059433Y-115024003D01*
X104986446Y-115248631D01*
X104949500Y-115481902D01*
X88384752Y-115481902D01*
X88308885Y-115431209D01*
X88308872Y-115431202D01*
X88163201Y-115370864D01*
X88163189Y-115370861D01*
X88008545Y-115340100D01*
X88008542Y-115340100D01*
X87850858Y-115340100D01*
X87850855Y-115340100D01*
X87696210Y-115370861D01*
X87696198Y-115370864D01*
X87550527Y-115431202D01*
X87550514Y-115431209D01*
X87419411Y-115518810D01*
X87419407Y-115518813D01*
X87307913Y-115630307D01*
X87307910Y-115630311D01*
X87220309Y-115761414D01*
X87220302Y-115761427D01*
X87159964Y-115907098D01*
X87159961Y-115907110D01*
X87129200Y-116061753D01*
X51269567Y-116061753D01*
X49855167Y-114647353D01*
X73834700Y-114647353D01*
X73834700Y-114805046D01*
X73865461Y-114959689D01*
X73865464Y-114959701D01*
X73925802Y-115105372D01*
X73925809Y-115105385D01*
X74013410Y-115236488D01*
X74013413Y-115236492D01*
X74124907Y-115347986D01*
X74124911Y-115347989D01*
X74256014Y-115435590D01*
X74256027Y-115435597D01*
X74401698Y-115495935D01*
X74401703Y-115495937D01*
X74516693Y-115518810D01*
X74556353Y-115526699D01*
X74556356Y-115526700D01*
X74556358Y-115526700D01*
X74714044Y-115526700D01*
X74714045Y-115526699D01*
X74868697Y-115495937D01*
X75014379Y-115435594D01*
X75145489Y-115347989D01*
X75256989Y-115236489D01*
X75344594Y-115105379D01*
X75404937Y-114959697D01*
X75435700Y-114805042D01*
X75435700Y-114647358D01*
X75435700Y-114647355D01*
X75435699Y-114647353D01*
X75404938Y-114492710D01*
X75404937Y-114492703D01*
X75372959Y-114415501D01*
X75344597Y-114347027D01*
X75344590Y-114347014D01*
X75256989Y-114215911D01*
X75256986Y-114215907D01*
X75145492Y-114104413D01*
X75145488Y-114104410D01*
X75143607Y-114103153D01*
X79562000Y-114103153D01*
X79562000Y-114260846D01*
X79592761Y-114415489D01*
X79592764Y-114415501D01*
X79653102Y-114561172D01*
X79653109Y-114561185D01*
X79740710Y-114692288D01*
X79740713Y-114692292D01*
X79852207Y-114803786D01*
X79852211Y-114803789D01*
X79983314Y-114891390D01*
X79983327Y-114891397D01*
X80128998Y-114951735D01*
X80129003Y-114951737D01*
X80283653Y-114982499D01*
X80283656Y-114982500D01*
X80283658Y-114982500D01*
X80441344Y-114982500D01*
X80441345Y-114982499D01*
X80595997Y-114951737D01*
X80741679Y-114891394D01*
X80872789Y-114803789D01*
X80984289Y-114692289D01*
X81071894Y-114561179D01*
X81132237Y-114415497D01*
X81163000Y-114260842D01*
X81163000Y-114103158D01*
X81163000Y-114103155D01*
X81162999Y-114103153D01*
X81145823Y-114016806D01*
X81132237Y-113948503D01*
X81077395Y-113816101D01*
X81071897Y-113802827D01*
X81071890Y-113802814D01*
X80984289Y-113671711D01*
X80984286Y-113671707D01*
X80872792Y-113560213D01*
X80872788Y-113560210D01*
X80741685Y-113472609D01*
X80741672Y-113472602D01*
X80596001Y-113412264D01*
X80595989Y-113412261D01*
X80441345Y-113381500D01*
X80441342Y-113381500D01*
X80283658Y-113381500D01*
X80283655Y-113381500D01*
X80129010Y-113412261D01*
X80128998Y-113412264D01*
X79983327Y-113472602D01*
X79983314Y-113472609D01*
X79852211Y-113560210D01*
X79852207Y-113560213D01*
X79740713Y-113671707D01*
X79740710Y-113671711D01*
X79653109Y-113802814D01*
X79653102Y-113802827D01*
X79592764Y-113948498D01*
X79592761Y-113948510D01*
X79562000Y-114103153D01*
X75143607Y-114103153D01*
X75014385Y-114016809D01*
X75014372Y-114016802D01*
X74868701Y-113956464D01*
X74868689Y-113956461D01*
X74714045Y-113925700D01*
X74714042Y-113925700D01*
X74556358Y-113925700D01*
X74556355Y-113925700D01*
X74401710Y-113956461D01*
X74401698Y-113956464D01*
X74256027Y-114016802D01*
X74256014Y-114016809D01*
X74124911Y-114104410D01*
X74124907Y-114104413D01*
X74013413Y-114215907D01*
X74013410Y-114215911D01*
X73925809Y-114347014D01*
X73925802Y-114347027D01*
X73865464Y-114492698D01*
X73865461Y-114492710D01*
X73834700Y-114647353D01*
X49855167Y-114647353D01*
X48711567Y-113503753D01*
X61341000Y-113503753D01*
X61341000Y-113661446D01*
X61371761Y-113816089D01*
X61371764Y-113816101D01*
X61432102Y-113961772D01*
X61432109Y-113961785D01*
X61519710Y-114092888D01*
X61519713Y-114092892D01*
X61631207Y-114204386D01*
X61631211Y-114204389D01*
X61762314Y-114291990D01*
X61762327Y-114291997D01*
X61895152Y-114347014D01*
X61908003Y-114352337D01*
X62062653Y-114383099D01*
X62062656Y-114383100D01*
X62062658Y-114383100D01*
X62220344Y-114383100D01*
X62220345Y-114383099D01*
X62374997Y-114352337D01*
X62520679Y-114291994D01*
X62651789Y-114204389D01*
X62763289Y-114092889D01*
X62850894Y-113961779D01*
X62911237Y-113816097D01*
X62942000Y-113661442D01*
X62942000Y-113503758D01*
X62942000Y-113503755D01*
X62941999Y-113503753D01*
X62935581Y-113471490D01*
X62911237Y-113349103D01*
X62911235Y-113349098D01*
X62850897Y-113203427D01*
X62850890Y-113203414D01*
X62763289Y-113072311D01*
X62763286Y-113072307D01*
X62651791Y-112960812D01*
X62633168Y-112948369D01*
X62633167Y-112948368D01*
X62520685Y-112873209D01*
X62520672Y-112873202D01*
X62467923Y-112851353D01*
X75952100Y-112851353D01*
X75952100Y-113009046D01*
X75982861Y-113163689D01*
X75982864Y-113163701D01*
X76043202Y-113309372D01*
X76043209Y-113309385D01*
X76130810Y-113440488D01*
X76130813Y-113440492D01*
X76242307Y-113551986D01*
X76242311Y-113551989D01*
X76373414Y-113639590D01*
X76373427Y-113639597D01*
X76519098Y-113699935D01*
X76519103Y-113699937D01*
X76673753Y-113730699D01*
X76673756Y-113730700D01*
X76673758Y-113730700D01*
X76831444Y-113730700D01*
X76831445Y-113730699D01*
X76986097Y-113699937D01*
X77131779Y-113639594D01*
X77262889Y-113551989D01*
X77374389Y-113440489D01*
X77461994Y-113309379D01*
X77522337Y-113163697D01*
X77553100Y-113009042D01*
X77553100Y-112851358D01*
X77553100Y-112851355D01*
X77523263Y-112701358D01*
X77523262Y-112701355D01*
X77522337Y-112696703D01*
X77516766Y-112683253D01*
X83519300Y-112683253D01*
X83519300Y-112840946D01*
X83550061Y-112995589D01*
X83550064Y-112995601D01*
X83610402Y-113141272D01*
X83610409Y-113141285D01*
X83698010Y-113272388D01*
X83698013Y-113272392D01*
X83809507Y-113383886D01*
X83809511Y-113383889D01*
X83940614Y-113471490D01*
X83940627Y-113471497D01*
X84086298Y-113531835D01*
X84086303Y-113531837D01*
X84228943Y-113560210D01*
X84240953Y-113562599D01*
X84240956Y-113562600D01*
X84240958Y-113562600D01*
X84398644Y-113562600D01*
X84398645Y-113562599D01*
X84553297Y-113531837D01*
X84696287Y-113472609D01*
X84698972Y-113471497D01*
X84698972Y-113471496D01*
X84698979Y-113471494D01*
X84830089Y-113383889D01*
X84941589Y-113272389D01*
X85029194Y-113141279D01*
X85089537Y-112995597D01*
X85120300Y-112840942D01*
X85120300Y-112683258D01*
X85120300Y-112683255D01*
X85120299Y-112683253D01*
X85089538Y-112528610D01*
X85089537Y-112528603D01*
X85044514Y-112419907D01*
X85029197Y-112382927D01*
X85029190Y-112382914D01*
X84941589Y-112251811D01*
X84941586Y-112251807D01*
X84830092Y-112140313D01*
X84830088Y-112140310D01*
X84698985Y-112052709D01*
X84698972Y-112052702D01*
X84553301Y-111992364D01*
X84553289Y-111992361D01*
X84398645Y-111961600D01*
X84398642Y-111961600D01*
X84240958Y-111961600D01*
X84240955Y-111961600D01*
X84086310Y-111992361D01*
X84086298Y-111992364D01*
X83940627Y-112052702D01*
X83940614Y-112052709D01*
X83809511Y-112140310D01*
X83809507Y-112140313D01*
X83698013Y-112251807D01*
X83698010Y-112251811D01*
X83610409Y-112382914D01*
X83610402Y-112382927D01*
X83550064Y-112528598D01*
X83550061Y-112528610D01*
X83519300Y-112683253D01*
X77516766Y-112683253D01*
X77461997Y-112551027D01*
X77461990Y-112551014D01*
X77374389Y-112419911D01*
X77374386Y-112419907D01*
X77262892Y-112308413D01*
X77262888Y-112308410D01*
X77131785Y-112220809D01*
X77131772Y-112220802D01*
X76986101Y-112160464D01*
X76986089Y-112160461D01*
X76831445Y-112129700D01*
X76831442Y-112129700D01*
X76673758Y-112129700D01*
X76673755Y-112129700D01*
X76519110Y-112160461D01*
X76519098Y-112160464D01*
X76373427Y-112220802D01*
X76373414Y-112220809D01*
X76242311Y-112308410D01*
X76242307Y-112308413D01*
X76130813Y-112419907D01*
X76130810Y-112419911D01*
X76043209Y-112551014D01*
X76043202Y-112551027D01*
X75982864Y-112696698D01*
X75982861Y-112696710D01*
X75952100Y-112851353D01*
X62467923Y-112851353D01*
X62375001Y-112812864D01*
X62374989Y-112812861D01*
X62220345Y-112782100D01*
X62220342Y-112782100D01*
X62062658Y-112782100D01*
X62062655Y-112782100D01*
X61908010Y-112812861D01*
X61907998Y-112812864D01*
X61762327Y-112873202D01*
X61762314Y-112873209D01*
X61631211Y-112960810D01*
X61631207Y-112960813D01*
X61519713Y-113072307D01*
X61519710Y-113072311D01*
X61432109Y-113203414D01*
X61432102Y-113203427D01*
X61371764Y-113349098D01*
X61371761Y-113349110D01*
X61341000Y-113503753D01*
X48711567Y-113503753D01*
X46639716Y-111431902D01*
X104949500Y-111431902D01*
X104949500Y-111668097D01*
X104986446Y-111901368D01*
X105059433Y-112125996D01*
X105152379Y-112308411D01*
X105166657Y-112336433D01*
X105305483Y-112527510D01*
X105472490Y-112694517D01*
X105663567Y-112833343D01*
X105762991Y-112884002D01*
X105874003Y-112940566D01*
X105874005Y-112940566D01*
X105874008Y-112940568D01*
X105994412Y-112979689D01*
X106098631Y-113013553D01*
X106331903Y-113050500D01*
X106331908Y-113050500D01*
X106568097Y-113050500D01*
X106801368Y-113013553D01*
X106856618Y-112995601D01*
X107025992Y-112940568D01*
X107236433Y-112833343D01*
X107427510Y-112694517D01*
X107594517Y-112527510D01*
X107733343Y-112336433D01*
X107840568Y-112125992D01*
X107913553Y-111901368D01*
X107950500Y-111668097D01*
X107950500Y-111431902D01*
X108999500Y-111431902D01*
X108999500Y-111668097D01*
X109036446Y-111901368D01*
X109109433Y-112125996D01*
X109202379Y-112308411D01*
X109216657Y-112336433D01*
X109355483Y-112527510D01*
X109522490Y-112694517D01*
X109713567Y-112833343D01*
X109812991Y-112884002D01*
X109924003Y-112940566D01*
X109924005Y-112940566D01*
X109924008Y-112940568D01*
X110044412Y-112979689D01*
X110148631Y-113013553D01*
X110381903Y-113050500D01*
X110381908Y-113050500D01*
X110618097Y-113050500D01*
X110851368Y-113013553D01*
X110906618Y-112995601D01*
X111075992Y-112940568D01*
X111286433Y-112833343D01*
X111477510Y-112694517D01*
X111644517Y-112527510D01*
X111783343Y-112336433D01*
X111890568Y-112125992D01*
X111963553Y-111901368D01*
X112000500Y-111668097D01*
X112000500Y-111431902D01*
X113049500Y-111431902D01*
X113049500Y-111668097D01*
X113086446Y-111901368D01*
X113159433Y-112125996D01*
X113252379Y-112308411D01*
X113266657Y-112336433D01*
X113405483Y-112527510D01*
X113572490Y-112694517D01*
X113763567Y-112833343D01*
X113862991Y-112884002D01*
X113974003Y-112940566D01*
X113974005Y-112940566D01*
X113974008Y-112940568D01*
X114094412Y-112979689D01*
X114198631Y-113013553D01*
X114431903Y-113050500D01*
X114431908Y-113050500D01*
X114668097Y-113050500D01*
X114901368Y-113013553D01*
X114956618Y-112995601D01*
X115125992Y-112940568D01*
X115336433Y-112833343D01*
X115527510Y-112694517D01*
X115694517Y-112527510D01*
X115833343Y-112336433D01*
X115940568Y-112125992D01*
X116013553Y-111901368D01*
X116050500Y-111668097D01*
X116050500Y-111431902D01*
X116013553Y-111198631D01*
X115940566Y-110974003D01*
X115884002Y-110862991D01*
X115833343Y-110763567D01*
X115694517Y-110572490D01*
X115527510Y-110405483D01*
X115336433Y-110266657D01*
X115125996Y-110159433D01*
X114901368Y-110086446D01*
X114668097Y-110049500D01*
X114668092Y-110049500D01*
X114431908Y-110049500D01*
X114431903Y-110049500D01*
X114198631Y-110086446D01*
X113974003Y-110159433D01*
X113763566Y-110266657D01*
X113667456Y-110336486D01*
X113572490Y-110405483D01*
X113572488Y-110405485D01*
X113572487Y-110405485D01*
X113405485Y-110572487D01*
X113405485Y-110572488D01*
X113405483Y-110572490D01*
X113345862Y-110654550D01*
X113266657Y-110763566D01*
X113159433Y-110974003D01*
X113086446Y-111198631D01*
X113049500Y-111431902D01*
X112000500Y-111431902D01*
X111963553Y-111198631D01*
X111890566Y-110974003D01*
X111834002Y-110862991D01*
X111783343Y-110763567D01*
X111644517Y-110572490D01*
X111477510Y-110405483D01*
X111286433Y-110266657D01*
X111075996Y-110159433D01*
X110851368Y-110086446D01*
X110618097Y-110049500D01*
X110618092Y-110049500D01*
X110381908Y-110049500D01*
X110381903Y-110049500D01*
X110148631Y-110086446D01*
X109924003Y-110159433D01*
X109713566Y-110266657D01*
X109617456Y-110336486D01*
X109522490Y-110405483D01*
X109522488Y-110405485D01*
X109522487Y-110405485D01*
X109355485Y-110572487D01*
X109355485Y-110572488D01*
X109355483Y-110572490D01*
X109295862Y-110654550D01*
X109216657Y-110763566D01*
X109109433Y-110974003D01*
X109036446Y-111198631D01*
X108999500Y-111431902D01*
X107950500Y-111431902D01*
X107913553Y-111198631D01*
X107840566Y-110974003D01*
X107784002Y-110862991D01*
X107733343Y-110763567D01*
X107594517Y-110572490D01*
X107427510Y-110405483D01*
X107236433Y-110266657D01*
X107025996Y-110159433D01*
X106801368Y-110086446D01*
X106568097Y-110049500D01*
X106568092Y-110049500D01*
X106331908Y-110049500D01*
X106331903Y-110049500D01*
X106098631Y-110086446D01*
X105874003Y-110159433D01*
X105663566Y-110266657D01*
X105567456Y-110336486D01*
X105472490Y-110405483D01*
X105472488Y-110405485D01*
X105472487Y-110405485D01*
X105305485Y-110572487D01*
X105305485Y-110572488D01*
X105305483Y-110572490D01*
X105245862Y-110654550D01*
X105166657Y-110763566D01*
X105059433Y-110974003D01*
X104986446Y-111198631D01*
X104949500Y-111431902D01*
X46639716Y-111431902D01*
X45065167Y-109857353D01*
X60843700Y-109857353D01*
X60843700Y-110015046D01*
X60874461Y-110169689D01*
X60874464Y-110169701D01*
X60934802Y-110315372D01*
X60934809Y-110315385D01*
X61022410Y-110446488D01*
X61022413Y-110446492D01*
X61133907Y-110557986D01*
X61133911Y-110557989D01*
X61265014Y-110645590D01*
X61265027Y-110645597D01*
X61410698Y-110705935D01*
X61410703Y-110705937D01*
X61565353Y-110736699D01*
X61565356Y-110736700D01*
X61565358Y-110736700D01*
X61723044Y-110736700D01*
X61723045Y-110736699D01*
X61877697Y-110705937D01*
X62023379Y-110645594D01*
X62154489Y-110557989D01*
X62265989Y-110446489D01*
X62353594Y-110315379D01*
X62413937Y-110169697D01*
X62444700Y-110015042D01*
X62444700Y-109892753D01*
X65627500Y-109892753D01*
X65627500Y-110050446D01*
X65658261Y-110205089D01*
X65658264Y-110205101D01*
X65718602Y-110350772D01*
X65718609Y-110350785D01*
X65806210Y-110481888D01*
X65806213Y-110481892D01*
X65917707Y-110593386D01*
X65917711Y-110593389D01*
X66048814Y-110680990D01*
X66048827Y-110680997D01*
X66183306Y-110736699D01*
X66194503Y-110741337D01*
X66349153Y-110772099D01*
X66349156Y-110772100D01*
X66349158Y-110772100D01*
X66506844Y-110772100D01*
X66506845Y-110772099D01*
X66661497Y-110741337D01*
X66807179Y-110680994D01*
X66938289Y-110593389D01*
X67049789Y-110481889D01*
X67137394Y-110350779D01*
X67197737Y-110205097D01*
X67228500Y-110050442D01*
X67228500Y-109892758D01*
X67228500Y-109892755D01*
X67228499Y-109892753D01*
X67219860Y-109849324D01*
X67197737Y-109738103D01*
X67155384Y-109635853D01*
X77670900Y-109635853D01*
X77670900Y-109793546D01*
X77701661Y-109948189D01*
X77701664Y-109948201D01*
X77762002Y-110093872D01*
X77762009Y-110093885D01*
X77849610Y-110224988D01*
X77849613Y-110224992D01*
X77961107Y-110336486D01*
X77961111Y-110336489D01*
X78092214Y-110424090D01*
X78092227Y-110424097D01*
X78231759Y-110481892D01*
X78237903Y-110484437D01*
X78392553Y-110515199D01*
X78392556Y-110515200D01*
X78392558Y-110515200D01*
X78550244Y-110515200D01*
X78550245Y-110515199D01*
X78704897Y-110484437D01*
X78850579Y-110424094D01*
X78981689Y-110336489D01*
X79093189Y-110224989D01*
X79180794Y-110093879D01*
X79241137Y-109948197D01*
X79271900Y-109793542D01*
X79271900Y-109635858D01*
X79271900Y-109635855D01*
X79271899Y-109635853D01*
X90171200Y-109635853D01*
X90171200Y-109793546D01*
X90201961Y-109948189D01*
X90201964Y-109948201D01*
X90262302Y-110093872D01*
X90262309Y-110093885D01*
X90349910Y-110224988D01*
X90349913Y-110224992D01*
X90461407Y-110336486D01*
X90461411Y-110336489D01*
X90592514Y-110424090D01*
X90592527Y-110424097D01*
X90732059Y-110481892D01*
X90738203Y-110484437D01*
X90892853Y-110515199D01*
X90892856Y-110515200D01*
X90892858Y-110515200D01*
X91050544Y-110515200D01*
X91050545Y-110515199D01*
X91205197Y-110484437D01*
X91350879Y-110424094D01*
X91481989Y-110336489D01*
X91593489Y-110224989D01*
X91681094Y-110093879D01*
X91741437Y-109948197D01*
X91772200Y-109793542D01*
X91772200Y-109635858D01*
X91772200Y-109635855D01*
X91772199Y-109635853D01*
X91741438Y-109481210D01*
X91741437Y-109481203D01*
X91733196Y-109461307D01*
X91681097Y-109335527D01*
X91681090Y-109335514D01*
X91593489Y-109204411D01*
X91593486Y-109204407D01*
X91481992Y-109092913D01*
X91481988Y-109092910D01*
X91350885Y-109005309D01*
X91350872Y-109005302D01*
X91205201Y-108944964D01*
X91205189Y-108944961D01*
X91050545Y-108914200D01*
X91050542Y-108914200D01*
X90892858Y-108914200D01*
X90892855Y-108914200D01*
X90738210Y-108944961D01*
X90738198Y-108944964D01*
X90592527Y-109005302D01*
X90592514Y-109005309D01*
X90461411Y-109092910D01*
X90461407Y-109092913D01*
X90349913Y-109204407D01*
X90349910Y-109204411D01*
X90262309Y-109335514D01*
X90262302Y-109335527D01*
X90201964Y-109481198D01*
X90201961Y-109481210D01*
X90171200Y-109635853D01*
X79271899Y-109635853D01*
X79241138Y-109481210D01*
X79241137Y-109481203D01*
X79232896Y-109461307D01*
X79180797Y-109335527D01*
X79180790Y-109335514D01*
X79093189Y-109204411D01*
X79093186Y-109204407D01*
X78981692Y-109092913D01*
X78981688Y-109092910D01*
X78878217Y-109023772D01*
X78833412Y-108970159D01*
X78824705Y-108900834D01*
X78854860Y-108837807D01*
X78914303Y-108801088D01*
X78922917Y-108799053D01*
X78926719Y-108798296D01*
X79014997Y-108780737D01*
X79160679Y-108720394D01*
X79291789Y-108632789D01*
X79403289Y-108521289D01*
X79490894Y-108390179D01*
X79551237Y-108244497D01*
X79582000Y-108089842D01*
X79582000Y-107932158D01*
X79582000Y-107932155D01*
X79581999Y-107932153D01*
X79551237Y-107777503D01*
X79527962Y-107721311D01*
X79490897Y-107631827D01*
X79490890Y-107631814D01*
X79403289Y-107500711D01*
X79403286Y-107500707D01*
X79291792Y-107389213D01*
X79291788Y-107389210D01*
X79280851Y-107381902D01*
X104949500Y-107381902D01*
X104949500Y-107618097D01*
X104986446Y-107851368D01*
X105059433Y-108075996D01*
X105155356Y-108264253D01*
X105166657Y-108286433D01*
X105305483Y-108477510D01*
X105472490Y-108644517D01*
X105663567Y-108783343D01*
X105745057Y-108824864D01*
X105874003Y-108890566D01*
X105874005Y-108890566D01*
X105874008Y-108890568D01*
X105946740Y-108914200D01*
X106098631Y-108963553D01*
X106331903Y-109000500D01*
X106331908Y-109000500D01*
X106568097Y-109000500D01*
X106801368Y-108963553D01*
X107025992Y-108890568D01*
X107236433Y-108783343D01*
X107427510Y-108644517D01*
X107594517Y-108477510D01*
X107733343Y-108286433D01*
X107840568Y-108075992D01*
X107913553Y-107851368D01*
X107919411Y-107814383D01*
X107950500Y-107618097D01*
X107950500Y-107381902D01*
X108999500Y-107381902D01*
X108999500Y-107618097D01*
X109036446Y-107851368D01*
X109109433Y-108075996D01*
X109205356Y-108264253D01*
X109216657Y-108286433D01*
X109355483Y-108477510D01*
X109522490Y-108644517D01*
X109713567Y-108783343D01*
X109795057Y-108824864D01*
X109924003Y-108890566D01*
X109924005Y-108890566D01*
X109924008Y-108890568D01*
X109996740Y-108914200D01*
X110148631Y-108963553D01*
X110381903Y-109000500D01*
X110381908Y-109000500D01*
X110618097Y-109000500D01*
X110851368Y-108963553D01*
X111075992Y-108890568D01*
X111286433Y-108783343D01*
X111477510Y-108644517D01*
X111644517Y-108477510D01*
X111783343Y-108286433D01*
X111890568Y-108075992D01*
X111963553Y-107851368D01*
X111969411Y-107814383D01*
X112000500Y-107618097D01*
X112000500Y-107381902D01*
X113049500Y-107381902D01*
X113049500Y-107618097D01*
X113086446Y-107851368D01*
X113159433Y-108075996D01*
X113255356Y-108264253D01*
X113266657Y-108286433D01*
X113405483Y-108477510D01*
X113572490Y-108644517D01*
X113763567Y-108783343D01*
X113845057Y-108824864D01*
X113974003Y-108890566D01*
X113974005Y-108890566D01*
X113974008Y-108890568D01*
X114046740Y-108914200D01*
X114198631Y-108963553D01*
X114431903Y-109000500D01*
X114431908Y-109000500D01*
X114668097Y-109000500D01*
X114901368Y-108963553D01*
X115125992Y-108890568D01*
X115336433Y-108783343D01*
X115527510Y-108644517D01*
X115694517Y-108477510D01*
X115833343Y-108286433D01*
X115940568Y-108075992D01*
X116013553Y-107851368D01*
X116019411Y-107814383D01*
X116050500Y-107618097D01*
X116050500Y-107381902D01*
X116013553Y-107148631D01*
X115940566Y-106924003D01*
X115833342Y-106713566D01*
X115797713Y-106664527D01*
X115694517Y-106522490D01*
X115527510Y-106355483D01*
X115336433Y-106216657D01*
X115125996Y-106109433D01*
X114901368Y-106036446D01*
X114668097Y-105999500D01*
X114668092Y-105999500D01*
X114431908Y-105999500D01*
X114431903Y-105999500D01*
X114198631Y-106036446D01*
X113974003Y-106109433D01*
X113763566Y-106216657D01*
X113684695Y-106273961D01*
X113572490Y-106355483D01*
X113572488Y-106355485D01*
X113572487Y-106355485D01*
X113405485Y-106522487D01*
X113405485Y-106522488D01*
X113405483Y-106522490D01*
X113359619Y-106585616D01*
X113266657Y-106713566D01*
X113159433Y-106924003D01*
X113086446Y-107148631D01*
X113049500Y-107381902D01*
X112000500Y-107381902D01*
X111963553Y-107148631D01*
X111890566Y-106924003D01*
X111783342Y-106713566D01*
X111747713Y-106664527D01*
X111644517Y-106522490D01*
X111477510Y-106355483D01*
X111286433Y-106216657D01*
X111075996Y-106109433D01*
X110851368Y-106036446D01*
X110618097Y-105999500D01*
X110618092Y-105999500D01*
X110381908Y-105999500D01*
X110381903Y-105999500D01*
X110148631Y-106036446D01*
X109924003Y-106109433D01*
X109713566Y-106216657D01*
X109634695Y-106273961D01*
X109522490Y-106355483D01*
X109522488Y-106355485D01*
X109522487Y-106355485D01*
X109355485Y-106522487D01*
X109355485Y-106522488D01*
X109355483Y-106522490D01*
X109309619Y-106585616D01*
X109216657Y-106713566D01*
X109109433Y-106924003D01*
X109036446Y-107148631D01*
X108999500Y-107381902D01*
X107950500Y-107381902D01*
X107913553Y-107148631D01*
X107840566Y-106924003D01*
X107733342Y-106713566D01*
X107697713Y-106664527D01*
X107594517Y-106522490D01*
X107427510Y-106355483D01*
X107236433Y-106216657D01*
X107025996Y-106109433D01*
X106801368Y-106036446D01*
X106568097Y-105999500D01*
X106568092Y-105999500D01*
X106331908Y-105999500D01*
X106331903Y-105999500D01*
X106098631Y-106036446D01*
X105874003Y-106109433D01*
X105663566Y-106216657D01*
X105584695Y-106273961D01*
X105472490Y-106355483D01*
X105472488Y-106355485D01*
X105472487Y-106355485D01*
X105305485Y-106522487D01*
X105305485Y-106522488D01*
X105305483Y-106522490D01*
X105259619Y-106585616D01*
X105166657Y-106713566D01*
X105059433Y-106924003D01*
X104986446Y-107148631D01*
X104949500Y-107381902D01*
X79280851Y-107381902D01*
X79160685Y-107301609D01*
X79160672Y-107301602D01*
X79015001Y-107241264D01*
X79014989Y-107241261D01*
X78860345Y-107210500D01*
X78860342Y-107210500D01*
X78702658Y-107210500D01*
X78702655Y-107210500D01*
X78548010Y-107241261D01*
X78547998Y-107241264D01*
X78402327Y-107301602D01*
X78402314Y-107301609D01*
X78271211Y-107389210D01*
X78271207Y-107389213D01*
X78159713Y-107500707D01*
X78159710Y-107500711D01*
X78072109Y-107631814D01*
X78072102Y-107631827D01*
X78011764Y-107777498D01*
X78011761Y-107777510D01*
X77981000Y-107932153D01*
X77981000Y-108089846D01*
X78011761Y-108244489D01*
X78011764Y-108244501D01*
X78072102Y-108390172D01*
X78072109Y-108390185D01*
X78159710Y-108521288D01*
X78159713Y-108521292D01*
X78271207Y-108632786D01*
X78271211Y-108632789D01*
X78374682Y-108701927D01*
X78419487Y-108755539D01*
X78428194Y-108824864D01*
X78398039Y-108887892D01*
X78338596Y-108924611D01*
X78329983Y-108926646D01*
X78237908Y-108944961D01*
X78237898Y-108944964D01*
X78092227Y-109005302D01*
X78092214Y-109005309D01*
X77961111Y-109092910D01*
X77961107Y-109092913D01*
X77849613Y-109204407D01*
X77849610Y-109204411D01*
X77762009Y-109335514D01*
X77762002Y-109335527D01*
X77701664Y-109481198D01*
X77701661Y-109481210D01*
X77670900Y-109635853D01*
X67155384Y-109635853D01*
X67137397Y-109592427D01*
X67137390Y-109592414D01*
X67049789Y-109461311D01*
X67049786Y-109461307D01*
X66938289Y-109349810D01*
X66846043Y-109288174D01*
X66801238Y-109234562D01*
X66792531Y-109165237D01*
X66822685Y-109102210D01*
X66867481Y-109070511D01*
X66910979Y-109052494D01*
X67042089Y-108964889D01*
X67153589Y-108853389D01*
X67241194Y-108722279D01*
X67241977Y-108720390D01*
X67301535Y-108576601D01*
X67301537Y-108576597D01*
X67332300Y-108421942D01*
X67332300Y-108264258D01*
X67332300Y-108264255D01*
X67332299Y-108264253D01*
X67301538Y-108109610D01*
X67301537Y-108109603D01*
X67301535Y-108109598D01*
X67241197Y-107963927D01*
X67241190Y-107963914D01*
X67153589Y-107832811D01*
X67153586Y-107832807D01*
X67042092Y-107721313D01*
X67042088Y-107721310D01*
X66910985Y-107633709D01*
X66910972Y-107633702D01*
X66765301Y-107573364D01*
X66765289Y-107573361D01*
X66610645Y-107542600D01*
X66610642Y-107542600D01*
X66452958Y-107542600D01*
X66452955Y-107542600D01*
X66298310Y-107573361D01*
X66298298Y-107573364D01*
X66152627Y-107633702D01*
X66152614Y-107633709D01*
X66021511Y-107721310D01*
X66021507Y-107721313D01*
X65910013Y-107832807D01*
X65910010Y-107832811D01*
X65822409Y-107963914D01*
X65822402Y-107963927D01*
X65762064Y-108109598D01*
X65762061Y-108109610D01*
X65731300Y-108264253D01*
X65731300Y-108421946D01*
X65762061Y-108576589D01*
X65762064Y-108576601D01*
X65822402Y-108722272D01*
X65822409Y-108722285D01*
X65910010Y-108853388D01*
X65910013Y-108853392D01*
X66021507Y-108964886D01*
X66021515Y-108964892D01*
X66113755Y-109026525D01*
X66158561Y-109080137D01*
X66167268Y-109149462D01*
X66137114Y-109212489D01*
X66092319Y-109244187D01*
X66048829Y-109262201D01*
X66048814Y-109262209D01*
X65917711Y-109349810D01*
X65917707Y-109349813D01*
X65806213Y-109461307D01*
X65806210Y-109461311D01*
X65718609Y-109592414D01*
X65718602Y-109592427D01*
X65658264Y-109738098D01*
X65658261Y-109738110D01*
X65627500Y-109892753D01*
X62444700Y-109892753D01*
X62444700Y-109857358D01*
X62444700Y-109857355D01*
X62444699Y-109857353D01*
X62432007Y-109793546D01*
X62413937Y-109702703D01*
X62368257Y-109592421D01*
X62353597Y-109557027D01*
X62353590Y-109557014D01*
X62265989Y-109425911D01*
X62265986Y-109425907D01*
X62154492Y-109314413D01*
X62154488Y-109314410D01*
X62023385Y-109226809D01*
X62023372Y-109226802D01*
X61877701Y-109166464D01*
X61877689Y-109166461D01*
X61723045Y-109135700D01*
X61723042Y-109135700D01*
X61565358Y-109135700D01*
X61565355Y-109135700D01*
X61410710Y-109166461D01*
X61410698Y-109166464D01*
X61265027Y-109226802D01*
X61265014Y-109226809D01*
X61133911Y-109314410D01*
X61133907Y-109314413D01*
X61022413Y-109425907D01*
X61022410Y-109425911D01*
X60934809Y-109557014D01*
X60934802Y-109557027D01*
X60874464Y-109702698D01*
X60874461Y-109702710D01*
X60843700Y-109857353D01*
X45065167Y-109857353D01*
X44036819Y-108829005D01*
X44003334Y-108767682D01*
X44000500Y-108741324D01*
X44000500Y-98874038D01*
X44249500Y-98874038D01*
X44249500Y-99125961D01*
X44288910Y-99374785D01*
X44366760Y-99614383D01*
X44434364Y-99747061D01*
X44479836Y-99836306D01*
X44481132Y-99838848D01*
X44629201Y-100042649D01*
X44629205Y-100042654D01*
X44721061Y-100134510D01*
X44754546Y-100195833D01*
X44756669Y-100235446D01*
X44749501Y-100302116D01*
X44749500Y-100302135D01*
X44749500Y-101897870D01*
X44749501Y-101897876D01*
X44755908Y-101957483D01*
X44806202Y-102092328D01*
X44806206Y-102092335D01*
X44892451Y-102207543D01*
X44892452Y-102207544D01*
X44892454Y-102207546D01*
X44930777Y-102236234D01*
X44972647Y-102292167D01*
X44977631Y-102361859D01*
X44956784Y-102408385D01*
X44930475Y-102444595D01*
X44841117Y-102619970D01*
X44780290Y-102807173D01*
X44749500Y-103001577D01*
X44749500Y-103198422D01*
X44780290Y-103392826D01*
X44841117Y-103580029D01*
X44918299Y-103731507D01*
X44930476Y-103755405D01*
X45046172Y-103914646D01*
X45046174Y-103914648D01*
X45143845Y-104012319D01*
X45177330Y-104073642D01*
X45172346Y-104143334D01*
X45143845Y-104187681D01*
X45046174Y-104285351D01*
X45046174Y-104285352D01*
X45046172Y-104285354D01*
X45020534Y-104320642D01*
X44930476Y-104444594D01*
X44841117Y-104619970D01*
X44780290Y-104807173D01*
X44749500Y-105001577D01*
X44749500Y-105198422D01*
X44780290Y-105392826D01*
X44841117Y-105580029D01*
X44932352Y-105759087D01*
X44945248Y-105827757D01*
X44918971Y-105892497D01*
X44894753Y-105915699D01*
X44807350Y-105979202D01*
X44807341Y-105979209D01*
X44629205Y-106157345D01*
X44629201Y-106157350D01*
X44481132Y-106361151D01*
X44366760Y-106585616D01*
X44288910Y-106825214D01*
X44249500Y-107074038D01*
X44249500Y-107325961D01*
X44288910Y-107574785D01*
X44366760Y-107814383D01*
X44481132Y-108038848D01*
X44629201Y-108242649D01*
X44629205Y-108242654D01*
X44807345Y-108420794D01*
X44807350Y-108420798D01*
X44885411Y-108477512D01*
X45011155Y-108568870D01*
X45136603Y-108632789D01*
X45235616Y-108683239D01*
X45235618Y-108683239D01*
X45235621Y-108683241D01*
X45475215Y-108761090D01*
X45724038Y-108800500D01*
X45724039Y-108800500D01*
X47275961Y-108800500D01*
X47275962Y-108800500D01*
X47524785Y-108761090D01*
X47764379Y-108683241D01*
X47988845Y-108568870D01*
X48192656Y-108420793D01*
X48370793Y-108242656D01*
X48518870Y-108038845D01*
X48633241Y-107814379D01*
X48711090Y-107574785D01*
X48750500Y-107325962D01*
X48750500Y-107074038D01*
X48735315Y-106978164D01*
X48733207Y-106964853D01*
X61089400Y-106964853D01*
X61089400Y-107122546D01*
X61120161Y-107277189D01*
X61120164Y-107277201D01*
X61180502Y-107422872D01*
X61180509Y-107422885D01*
X61268110Y-107553988D01*
X61268113Y-107553992D01*
X61379607Y-107665486D01*
X61379611Y-107665489D01*
X61510714Y-107753090D01*
X61510727Y-107753097D01*
X61598821Y-107789586D01*
X61656403Y-107813437D01*
X61811053Y-107844199D01*
X61811056Y-107844200D01*
X61811058Y-107844200D01*
X61968744Y-107844200D01*
X61968745Y-107844199D01*
X62123397Y-107813437D01*
X62269079Y-107753094D01*
X62400189Y-107665489D01*
X62511689Y-107553989D01*
X62599294Y-107422879D01*
X62608234Y-107401297D01*
X62649525Y-107301609D01*
X62659637Y-107277197D01*
X62690400Y-107122542D01*
X62690400Y-107088953D01*
X68241600Y-107088953D01*
X68241600Y-107246646D01*
X68272361Y-107401289D01*
X68272364Y-107401301D01*
X68332702Y-107546972D01*
X68332709Y-107546985D01*
X68420310Y-107678088D01*
X68420313Y-107678092D01*
X68531807Y-107789586D01*
X68531811Y-107789589D01*
X68662914Y-107877190D01*
X68662927Y-107877197D01*
X68795617Y-107932158D01*
X68808603Y-107937537D01*
X68941274Y-107963927D01*
X68963253Y-107968299D01*
X68963256Y-107968300D01*
X68963258Y-107968300D01*
X69120944Y-107968300D01*
X69120945Y-107968299D01*
X69275597Y-107937537D01*
X69421279Y-107877194D01*
X69552389Y-107789589D01*
X69663889Y-107678089D01*
X69751494Y-107546979D01*
X69811837Y-107401297D01*
X69842600Y-107246642D01*
X69842600Y-107088958D01*
X69842600Y-107088955D01*
X69842599Y-107088953D01*
X69839632Y-107074038D01*
X69811837Y-106934303D01*
X69766652Y-106825215D01*
X69751497Y-106788627D01*
X69751490Y-106788614D01*
X69663889Y-106657511D01*
X69663886Y-106657507D01*
X69552392Y-106546013D01*
X69552388Y-106546010D01*
X69421285Y-106458409D01*
X69421272Y-106458402D01*
X69275601Y-106398064D01*
X69275589Y-106398061D01*
X69120945Y-106367300D01*
X69120942Y-106367300D01*
X68963258Y-106367300D01*
X68963255Y-106367300D01*
X68808610Y-106398061D01*
X68808598Y-106398064D01*
X68662927Y-106458402D01*
X68662914Y-106458409D01*
X68531811Y-106546010D01*
X68531807Y-106546013D01*
X68420313Y-106657507D01*
X68420310Y-106657511D01*
X68332709Y-106788614D01*
X68332702Y-106788627D01*
X68272364Y-106934298D01*
X68272361Y-106934310D01*
X68241600Y-107088953D01*
X62690400Y-107088953D01*
X62690400Y-106964858D01*
X62690400Y-106964855D01*
X62690399Y-106964853D01*
X62659638Y-106810210D01*
X62659637Y-106810203D01*
X62650695Y-106788614D01*
X62599297Y-106664527D01*
X62599290Y-106664514D01*
X62511689Y-106533411D01*
X62511686Y-106533407D01*
X62400192Y-106421913D01*
X62400188Y-106421910D01*
X62269085Y-106334309D01*
X62269072Y-106334302D01*
X62123401Y-106273964D01*
X62123389Y-106273961D01*
X61968745Y-106243200D01*
X61968742Y-106243200D01*
X61811058Y-106243200D01*
X61811055Y-106243200D01*
X61656410Y-106273961D01*
X61656398Y-106273964D01*
X61510727Y-106334302D01*
X61510714Y-106334309D01*
X61379611Y-106421910D01*
X61379607Y-106421913D01*
X61268113Y-106533407D01*
X61268110Y-106533411D01*
X61180509Y-106664514D01*
X61180502Y-106664527D01*
X61120164Y-106810198D01*
X61120161Y-106810210D01*
X61089400Y-106964853D01*
X48733207Y-106964853D01*
X48711090Y-106825214D01*
X48658875Y-106664514D01*
X48633241Y-106585621D01*
X48633239Y-106585618D01*
X48633239Y-106585616D01*
X48568423Y-106458409D01*
X48518870Y-106361155D01*
X48474619Y-106300249D01*
X48370798Y-106157350D01*
X48370794Y-106157345D01*
X48192658Y-105979209D01*
X48192656Y-105979207D01*
X48105245Y-105915699D01*
X48062581Y-105860370D01*
X48056602Y-105790756D01*
X48067647Y-105759087D01*
X48069520Y-105755409D01*
X48069524Y-105755405D01*
X48158884Y-105580025D01*
X48219709Y-105392826D01*
X48225748Y-105354697D01*
X48250500Y-105198422D01*
X48250500Y-105001577D01*
X48219709Y-104807173D01*
X48180881Y-104687674D01*
X48158884Y-104619975D01*
X48158882Y-104619972D01*
X48158882Y-104619970D01*
X48104230Y-104512710D01*
X48069524Y-104444595D01*
X47953828Y-104285354D01*
X47856155Y-104187681D01*
X47842652Y-104162953D01*
X65600600Y-104162953D01*
X65600600Y-104320646D01*
X65631361Y-104475289D01*
X65631364Y-104475301D01*
X65691702Y-104620972D01*
X65691709Y-104620985D01*
X65779310Y-104752088D01*
X65779313Y-104752092D01*
X65890807Y-104863586D01*
X65890811Y-104863589D01*
X66021914Y-104951190D01*
X66021927Y-104951197D01*
X66167598Y-105011535D01*
X66167603Y-105011537D01*
X66322253Y-105042299D01*
X66322256Y-105042300D01*
X66322258Y-105042300D01*
X66479944Y-105042300D01*
X66479945Y-105042299D01*
X66634597Y-105011537D01*
X66780279Y-104951194D01*
X66911389Y-104863589D01*
X67022889Y-104752089D01*
X67068082Y-104684453D01*
X70760400Y-104684453D01*
X70760400Y-104842146D01*
X70791161Y-104996789D01*
X70791164Y-104996801D01*
X70851502Y-105142472D01*
X70851509Y-105142485D01*
X70939110Y-105273588D01*
X70939113Y-105273592D01*
X71050607Y-105385086D01*
X71050611Y-105385089D01*
X71181714Y-105472690D01*
X71181727Y-105472697D01*
X71286122Y-105515938D01*
X71327403Y-105533037D01*
X71469872Y-105561376D01*
X71482053Y-105563799D01*
X71482056Y-105563800D01*
X71482058Y-105563800D01*
X71639744Y-105563800D01*
X71639745Y-105563799D01*
X71794397Y-105533037D01*
X71907066Y-105486367D01*
X71940072Y-105472697D01*
X71940072Y-105472696D01*
X71940079Y-105472694D01*
X72071189Y-105385089D01*
X72182689Y-105273589D01*
X72270294Y-105142479D01*
X72277747Y-105124487D01*
X72311789Y-105042300D01*
X72330637Y-104996797D01*
X72361400Y-104842142D01*
X72361400Y-104684458D01*
X72361400Y-104684455D01*
X72361399Y-104684453D01*
X72344421Y-104599099D01*
X72330637Y-104529803D01*
X72321605Y-104507997D01*
X72270297Y-104384127D01*
X72270290Y-104384114D01*
X72182689Y-104253011D01*
X72182686Y-104253007D01*
X72071192Y-104141513D01*
X72071188Y-104141510D01*
X71940085Y-104053909D01*
X71940072Y-104053902D01*
X71794401Y-103993564D01*
X71794389Y-103993561D01*
X71639745Y-103962800D01*
X71639742Y-103962800D01*
X71482058Y-103962800D01*
X71482055Y-103962800D01*
X71327410Y-103993561D01*
X71327398Y-103993564D01*
X71181727Y-104053902D01*
X71181714Y-104053909D01*
X71050611Y-104141510D01*
X71050607Y-104141513D01*
X70939113Y-104253007D01*
X70939110Y-104253011D01*
X70851509Y-104384114D01*
X70851502Y-104384127D01*
X70791164Y-104529798D01*
X70791161Y-104529810D01*
X70760400Y-104684453D01*
X67068082Y-104684453D01*
X67110494Y-104620979D01*
X67170837Y-104475297D01*
X67201600Y-104320642D01*
X67201600Y-104162958D01*
X67201600Y-104162955D01*
X67201599Y-104162953D01*
X67198261Y-104146172D01*
X67170837Y-104008303D01*
X67157255Y-103975513D01*
X67110497Y-103862627D01*
X67110490Y-103862614D01*
X67022889Y-103731511D01*
X67022886Y-103731507D01*
X67011132Y-103719753D01*
X76030400Y-103719753D01*
X76030400Y-103877446D01*
X76061161Y-104032089D01*
X76061164Y-104032101D01*
X76121502Y-104177772D01*
X76121509Y-104177785D01*
X76209110Y-104308888D01*
X76209113Y-104308892D01*
X76320607Y-104420386D01*
X76320611Y-104420389D01*
X76451714Y-104507990D01*
X76451727Y-104507997D01*
X76597398Y-104568335D01*
X76597403Y-104568337D01*
X76729003Y-104594514D01*
X76752053Y-104599099D01*
X76752056Y-104599100D01*
X76752058Y-104599100D01*
X76909744Y-104599100D01*
X76909745Y-104599099D01*
X77064397Y-104568337D01*
X77177066Y-104521667D01*
X77210072Y-104507997D01*
X77210072Y-104507996D01*
X77210079Y-104507994D01*
X77341189Y-104420389D01*
X77452689Y-104308889D01*
X77540294Y-104177779D01*
X77600637Y-104032097D01*
X77631400Y-103877442D01*
X77631400Y-103719758D01*
X77631400Y-103719755D01*
X77631399Y-103719753D01*
X79489200Y-103719753D01*
X79489200Y-103877446D01*
X79519961Y-104032089D01*
X79519964Y-104032101D01*
X79580302Y-104177772D01*
X79580309Y-104177785D01*
X79667910Y-104308888D01*
X79667913Y-104308892D01*
X79779407Y-104420386D01*
X79779411Y-104420389D01*
X79910514Y-104507990D01*
X79910527Y-104507997D01*
X80056198Y-104568335D01*
X80056203Y-104568337D01*
X80187803Y-104594514D01*
X80210853Y-104599099D01*
X80210856Y-104599100D01*
X80210858Y-104599100D01*
X80368544Y-104599100D01*
X80368545Y-104599099D01*
X80523197Y-104568337D01*
X80527745Y-104566453D01*
X81999300Y-104566453D01*
X81999300Y-104724146D01*
X82030061Y-104878789D01*
X82030064Y-104878801D01*
X82090402Y-105024472D01*
X82090409Y-105024485D01*
X82178010Y-105155588D01*
X82178013Y-105155592D01*
X82289507Y-105267086D01*
X82289511Y-105267089D01*
X82420614Y-105354690D01*
X82420627Y-105354697D01*
X82452718Y-105367989D01*
X82566303Y-105415037D01*
X82632848Y-105428273D01*
X82694756Y-105460657D01*
X82716042Y-105487889D01*
X82732235Y-105515935D01*
X82849751Y-105719479D01*
X82849754Y-105719483D01*
X82849756Y-105719486D01*
X83017370Y-105937926D01*
X83017376Y-105937933D01*
X83212066Y-106132623D01*
X83212073Y-106132629D01*
X83244284Y-106157345D01*
X83430521Y-106300249D01*
X83546657Y-106367300D01*
X83668971Y-106437919D01*
X83668976Y-106437921D01*
X83668979Y-106437923D01*
X83923368Y-106543295D01*
X84189334Y-106614560D01*
X84462326Y-106650500D01*
X84462333Y-106650500D01*
X84737667Y-106650500D01*
X84737674Y-106650500D01*
X85010666Y-106614560D01*
X85276632Y-106543295D01*
X85531021Y-106437923D01*
X85769479Y-106300249D01*
X85987928Y-106132628D01*
X86182628Y-105937928D01*
X86350249Y-105719479D01*
X86487923Y-105481021D01*
X86593295Y-105226632D01*
X86664560Y-104960666D01*
X86700500Y-104687674D01*
X86700500Y-104667353D01*
X98100600Y-104667353D01*
X98100600Y-104825046D01*
X98131361Y-104979689D01*
X98131364Y-104979701D01*
X98191702Y-105125372D01*
X98191709Y-105125385D01*
X98279310Y-105256488D01*
X98279313Y-105256492D01*
X98390807Y-105367986D01*
X98390811Y-105367989D01*
X98521914Y-105455590D01*
X98521927Y-105455597D01*
X98609591Y-105491908D01*
X98667603Y-105515937D01*
X98822253Y-105546699D01*
X98822256Y-105546700D01*
X98822258Y-105546700D01*
X98979944Y-105546700D01*
X98979945Y-105546699D01*
X99134597Y-105515937D01*
X99280279Y-105455594D01*
X99411389Y-105367989D01*
X99522889Y-105256489D01*
X99610494Y-105125379D01*
X99610864Y-105124487D01*
X99644906Y-105042300D01*
X99670837Y-104979697D01*
X99701600Y-104825042D01*
X99701600Y-104667358D01*
X99701600Y-104667355D01*
X99701599Y-104667353D01*
X99695415Y-104636266D01*
X99670837Y-104512703D01*
X99668888Y-104507997D01*
X99610497Y-104367027D01*
X99610490Y-104367014D01*
X99522889Y-104235911D01*
X99522886Y-104235907D01*
X99411392Y-104124413D01*
X99411388Y-104124410D01*
X99280285Y-104036809D01*
X99280272Y-104036802D01*
X99134601Y-103976464D01*
X99134589Y-103976461D01*
X98979945Y-103945700D01*
X98979942Y-103945700D01*
X98822258Y-103945700D01*
X98822255Y-103945700D01*
X98667610Y-103976461D01*
X98667598Y-103976464D01*
X98521927Y-104036802D01*
X98521914Y-104036809D01*
X98390811Y-104124410D01*
X98390807Y-104124413D01*
X98279313Y-104235907D01*
X98279310Y-104235911D01*
X98191709Y-104367014D01*
X98191702Y-104367027D01*
X98131364Y-104512698D01*
X98131361Y-104512710D01*
X98100600Y-104667353D01*
X86700500Y-104667353D01*
X86700500Y-104412326D01*
X86664560Y-104139334D01*
X86593295Y-103873368D01*
X86487923Y-103618979D01*
X86487920Y-103618974D01*
X86487919Y-103618971D01*
X86355165Y-103389036D01*
X86350249Y-103380521D01*
X86312942Y-103331902D01*
X104949500Y-103331902D01*
X104949500Y-103568097D01*
X104986446Y-103801368D01*
X105059433Y-104025996D01*
X105166389Y-104235907D01*
X105166657Y-104236433D01*
X105305483Y-104427510D01*
X105472490Y-104594517D01*
X105663567Y-104733343D01*
X105762991Y-104784002D01*
X105874003Y-104840566D01*
X105874005Y-104840566D01*
X105874008Y-104840568D01*
X105983432Y-104876122D01*
X106098631Y-104913553D01*
X106331903Y-104950500D01*
X106331908Y-104950500D01*
X106568097Y-104950500D01*
X106801368Y-104913553D01*
X107025992Y-104840568D01*
X107236433Y-104733343D01*
X107427510Y-104594517D01*
X107594517Y-104427510D01*
X107733343Y-104236433D01*
X107840568Y-104025992D01*
X107913553Y-103801368D01*
X107926479Y-103719755D01*
X107950500Y-103568097D01*
X107950500Y-103331902D01*
X108999500Y-103331902D01*
X108999500Y-103568097D01*
X109036446Y-103801368D01*
X109109433Y-104025996D01*
X109216389Y-104235907D01*
X109216657Y-104236433D01*
X109355483Y-104427510D01*
X109522490Y-104594517D01*
X109713567Y-104733343D01*
X109812991Y-104784002D01*
X109924003Y-104840566D01*
X109924005Y-104840566D01*
X109924008Y-104840568D01*
X110033432Y-104876122D01*
X110148631Y-104913553D01*
X110381903Y-104950500D01*
X110381908Y-104950500D01*
X110618097Y-104950500D01*
X110851368Y-104913553D01*
X111075992Y-104840568D01*
X111286433Y-104733343D01*
X111477510Y-104594517D01*
X111644517Y-104427510D01*
X111783343Y-104236433D01*
X111890568Y-104025992D01*
X111963553Y-103801368D01*
X111976479Y-103719755D01*
X112000500Y-103568097D01*
X112000500Y-103331902D01*
X113049500Y-103331902D01*
X113049500Y-103568097D01*
X113086446Y-103801368D01*
X113159433Y-104025996D01*
X113266389Y-104235907D01*
X113266657Y-104236433D01*
X113405483Y-104427510D01*
X113572490Y-104594517D01*
X113763567Y-104733343D01*
X113862991Y-104784002D01*
X113974003Y-104840566D01*
X113974005Y-104840566D01*
X113974008Y-104840568D01*
X114083432Y-104876122D01*
X114198631Y-104913553D01*
X114431903Y-104950500D01*
X114431908Y-104950500D01*
X114668097Y-104950500D01*
X114901368Y-104913553D01*
X115125992Y-104840568D01*
X115336433Y-104733343D01*
X115527510Y-104594517D01*
X115694517Y-104427510D01*
X115833343Y-104236433D01*
X115940568Y-104025992D01*
X116013553Y-103801368D01*
X116026479Y-103719755D01*
X116050500Y-103568097D01*
X116050500Y-103331902D01*
X116013553Y-103098631D01*
X115962905Y-102942753D01*
X115940568Y-102874008D01*
X115940566Y-102874005D01*
X115940566Y-102874003D01*
X115833342Y-102663566D01*
X115694517Y-102472490D01*
X115527510Y-102305483D01*
X115336433Y-102166657D01*
X115303308Y-102149779D01*
X115125996Y-102059433D01*
X114901368Y-101986446D01*
X114668097Y-101949500D01*
X114668092Y-101949500D01*
X114431908Y-101949500D01*
X114431903Y-101949500D01*
X114198631Y-101986446D01*
X113974003Y-102059433D01*
X113763566Y-102166657D01*
X113667804Y-102236233D01*
X113572490Y-102305483D01*
X113572488Y-102305485D01*
X113572487Y-102305485D01*
X113405485Y-102472487D01*
X113405485Y-102472488D01*
X113405483Y-102472490D01*
X113396074Y-102485441D01*
X113266657Y-102663566D01*
X113159433Y-102874003D01*
X113086446Y-103098631D01*
X113049500Y-103331902D01*
X112000500Y-103331902D01*
X111963553Y-103098631D01*
X111912905Y-102942753D01*
X111890568Y-102874008D01*
X111890566Y-102874005D01*
X111890566Y-102874003D01*
X111783342Y-102663566D01*
X111644517Y-102472490D01*
X111477510Y-102305483D01*
X111286433Y-102166657D01*
X111253308Y-102149779D01*
X111075996Y-102059433D01*
X110851368Y-101986446D01*
X110618097Y-101949500D01*
X110618092Y-101949500D01*
X110381908Y-101949500D01*
X110381903Y-101949500D01*
X110148631Y-101986446D01*
X109924003Y-102059433D01*
X109713566Y-102166657D01*
X109617804Y-102236233D01*
X109522490Y-102305483D01*
X109522488Y-102305485D01*
X109522487Y-102305485D01*
X109355485Y-102472487D01*
X109355485Y-102472488D01*
X109355483Y-102472490D01*
X109346074Y-102485441D01*
X109216657Y-102663566D01*
X109109433Y-102874003D01*
X109036446Y-103098631D01*
X108999500Y-103331902D01*
X107950500Y-103331902D01*
X107913553Y-103098631D01*
X107862905Y-102942753D01*
X107840568Y-102874008D01*
X107840566Y-102874005D01*
X107840566Y-102874003D01*
X107733342Y-102663566D01*
X107594517Y-102472490D01*
X107427510Y-102305483D01*
X107236433Y-102166657D01*
X107203308Y-102149779D01*
X107025996Y-102059433D01*
X106801368Y-101986446D01*
X106568097Y-101949500D01*
X106568092Y-101949500D01*
X106331908Y-101949500D01*
X106331903Y-101949500D01*
X106098631Y-101986446D01*
X105874003Y-102059433D01*
X105663566Y-102166657D01*
X105567804Y-102236233D01*
X105472490Y-102305483D01*
X105472488Y-102305485D01*
X105472487Y-102305485D01*
X105305485Y-102472487D01*
X105305485Y-102472488D01*
X105305483Y-102472490D01*
X105296074Y-102485441D01*
X105166657Y-102663566D01*
X105059433Y-102874003D01*
X104986446Y-103098631D01*
X104949500Y-103331902D01*
X86312942Y-103331902D01*
X86288799Y-103300438D01*
X86182629Y-103162073D01*
X86182623Y-103162066D01*
X85987933Y-102967376D01*
X85987926Y-102967370D01*
X85769483Y-102799754D01*
X85769482Y-102799753D01*
X85769479Y-102799751D01*
X85654338Y-102733274D01*
X85531028Y-102662080D01*
X85531017Y-102662075D01*
X85276630Y-102556704D01*
X85107203Y-102511307D01*
X85010666Y-102485440D01*
X85010660Y-102485439D01*
X85010655Y-102485438D01*
X84737684Y-102449501D01*
X84737679Y-102449500D01*
X84737674Y-102449500D01*
X84462326Y-102449500D01*
X84462320Y-102449500D01*
X84462315Y-102449501D01*
X84189344Y-102485438D01*
X84189337Y-102485439D01*
X84189334Y-102485440D01*
X84133125Y-102500500D01*
X83923369Y-102556704D01*
X83668982Y-102662075D01*
X83668971Y-102662080D01*
X83430516Y-102799754D01*
X83212073Y-102967370D01*
X83212066Y-102967376D01*
X83017376Y-103162066D01*
X83017370Y-103162073D01*
X82849754Y-103380516D01*
X82712082Y-103618968D01*
X82712079Y-103618974D01*
X82633629Y-103808365D01*
X82589787Y-103862768D01*
X82566521Y-103875472D01*
X82420623Y-103935904D01*
X82420614Y-103935909D01*
X82289511Y-104023510D01*
X82289507Y-104023513D01*
X82178013Y-104135007D01*
X82178010Y-104135011D01*
X82090409Y-104266114D01*
X82090402Y-104266127D01*
X82030064Y-104411798D01*
X82030061Y-104411810D01*
X81999300Y-104566453D01*
X80527745Y-104566453D01*
X80635866Y-104521667D01*
X80668872Y-104507997D01*
X80668872Y-104507996D01*
X80668879Y-104507994D01*
X80668885Y-104507990D01*
X80744802Y-104457264D01*
X80799989Y-104420389D01*
X80911486Y-104308892D01*
X80911489Y-104308889D01*
X80999094Y-104177779D01*
X81059437Y-104032097D01*
X81090200Y-103877442D01*
X81090200Y-103719758D01*
X81090200Y-103719755D01*
X81090199Y-103719753D01*
X81075009Y-103643389D01*
X81059437Y-103565103D01*
X81045681Y-103531892D01*
X80999097Y-103419427D01*
X80999090Y-103419414D01*
X80911489Y-103288311D01*
X80911486Y-103288307D01*
X80799992Y-103176813D01*
X80799988Y-103176810D01*
X80668885Y-103089209D01*
X80668872Y-103089202D01*
X80523201Y-103028864D01*
X80523189Y-103028861D01*
X80368545Y-102998100D01*
X80368542Y-102998100D01*
X80210858Y-102998100D01*
X80210855Y-102998100D01*
X80056210Y-103028861D01*
X80056198Y-103028864D01*
X79910527Y-103089202D01*
X79910514Y-103089209D01*
X79779411Y-103176810D01*
X79779407Y-103176813D01*
X79667913Y-103288307D01*
X79667910Y-103288311D01*
X79580309Y-103419414D01*
X79580302Y-103419427D01*
X79519964Y-103565098D01*
X79519961Y-103565110D01*
X79489200Y-103719753D01*
X77631399Y-103719753D01*
X77616209Y-103643389D01*
X77600637Y-103565103D01*
X77586881Y-103531892D01*
X77540297Y-103419427D01*
X77540290Y-103419414D01*
X77452689Y-103288311D01*
X77452686Y-103288307D01*
X77341192Y-103176813D01*
X77341188Y-103176810D01*
X77210085Y-103089209D01*
X77210072Y-103089202D01*
X77064401Y-103028864D01*
X77064389Y-103028861D01*
X76909745Y-102998100D01*
X76909742Y-102998100D01*
X76752058Y-102998100D01*
X76752055Y-102998100D01*
X76597410Y-103028861D01*
X76597398Y-103028864D01*
X76451727Y-103089202D01*
X76451714Y-103089209D01*
X76320611Y-103176810D01*
X76320607Y-103176813D01*
X76209113Y-103288307D01*
X76209110Y-103288311D01*
X76121509Y-103419414D01*
X76121502Y-103419427D01*
X76061164Y-103565098D01*
X76061161Y-103565110D01*
X76030400Y-103719753D01*
X67011132Y-103719753D01*
X66911392Y-103620013D01*
X66911388Y-103620010D01*
X66780285Y-103532409D01*
X66780272Y-103532402D01*
X66634601Y-103472064D01*
X66634589Y-103472061D01*
X66479945Y-103441300D01*
X66479942Y-103441300D01*
X66322258Y-103441300D01*
X66322255Y-103441300D01*
X66167610Y-103472061D01*
X66167598Y-103472064D01*
X66021927Y-103532402D01*
X66021914Y-103532409D01*
X65890811Y-103620010D01*
X65890807Y-103620013D01*
X65779313Y-103731507D01*
X65779310Y-103731511D01*
X65691709Y-103862614D01*
X65691702Y-103862627D01*
X65631364Y-104008298D01*
X65631361Y-104008310D01*
X65600600Y-104162953D01*
X47842652Y-104162953D01*
X47822670Y-104126358D01*
X47827654Y-104056666D01*
X47856155Y-104012319D01*
X47900857Y-103967617D01*
X47953828Y-103914646D01*
X48069524Y-103755405D01*
X48158884Y-103580025D01*
X48219709Y-103392826D01*
X48226066Y-103352688D01*
X48250500Y-103198422D01*
X48250500Y-103001578D01*
X48243291Y-102956065D01*
X48243291Y-102956064D01*
X48241183Y-102942753D01*
X57878400Y-102942753D01*
X57878400Y-103100446D01*
X57909161Y-103255089D01*
X57909164Y-103255101D01*
X57969502Y-103400772D01*
X57969509Y-103400785D01*
X58057110Y-103531888D01*
X58057113Y-103531892D01*
X58168607Y-103643386D01*
X58168611Y-103643389D01*
X58299714Y-103730990D01*
X58299727Y-103730997D01*
X58445398Y-103791335D01*
X58445403Y-103791337D01*
X58600053Y-103822099D01*
X58600056Y-103822100D01*
X58600058Y-103822100D01*
X58757744Y-103822100D01*
X58757745Y-103822099D01*
X58912397Y-103791337D01*
X59056831Y-103731511D01*
X59058072Y-103730997D01*
X59058072Y-103730996D01*
X59058079Y-103730994D01*
X59189189Y-103643389D01*
X59300689Y-103531889D01*
X59388294Y-103400779D01*
X59393159Y-103389035D01*
X59416821Y-103331908D01*
X59448637Y-103255097D01*
X59479400Y-103100442D01*
X59479400Y-102942758D01*
X59479400Y-102942755D01*
X59479399Y-102942753D01*
X59472860Y-102909879D01*
X59448637Y-102788103D01*
X59397053Y-102663567D01*
X59388297Y-102642427D01*
X59388290Y-102642414D01*
X59302925Y-102514657D01*
X59302924Y-102514656D01*
X59300687Y-102511308D01*
X59241232Y-102451853D01*
X61541400Y-102451853D01*
X61541400Y-102609546D01*
X61572161Y-102764189D01*
X61572164Y-102764201D01*
X61632502Y-102909872D01*
X61632509Y-102909885D01*
X61720110Y-103040988D01*
X61720113Y-103040992D01*
X61831607Y-103152486D01*
X61831611Y-103152489D01*
X61962714Y-103240090D01*
X61962727Y-103240097D01*
X62079118Y-103288307D01*
X62108403Y-103300437D01*
X62263053Y-103331199D01*
X62263056Y-103331200D01*
X62263058Y-103331200D01*
X62420744Y-103331200D01*
X62420745Y-103331199D01*
X62575397Y-103300437D01*
X62721079Y-103240094D01*
X62852189Y-103152489D01*
X62963689Y-103040989D01*
X63051294Y-102909879D01*
X63111637Y-102764197D01*
X63111765Y-102763553D01*
X73493700Y-102763553D01*
X73493700Y-102921246D01*
X73524461Y-103075889D01*
X73524464Y-103075901D01*
X73584802Y-103221572D01*
X73584809Y-103221585D01*
X73672410Y-103352688D01*
X73672413Y-103352692D01*
X73783907Y-103464186D01*
X73783911Y-103464189D01*
X73915014Y-103551790D01*
X73915027Y-103551797D01*
X74050935Y-103608091D01*
X74060703Y-103612137D01*
X74215353Y-103642899D01*
X74215356Y-103642900D01*
X74215358Y-103642900D01*
X74373044Y-103642900D01*
X74373045Y-103642899D01*
X74527697Y-103612137D01*
X74544435Y-103605203D01*
X74559160Y-103599105D01*
X74673372Y-103551797D01*
X74673372Y-103551796D01*
X74673379Y-103551794D01*
X74804489Y-103464189D01*
X74915989Y-103352689D01*
X75003594Y-103221579D01*
X75063937Y-103075897D01*
X75094700Y-102921242D01*
X75094700Y-102763558D01*
X75094700Y-102763555D01*
X75094699Y-102763553D01*
X75074810Y-102663566D01*
X75063937Y-102608903D01*
X75035537Y-102540338D01*
X75003597Y-102463227D01*
X75003590Y-102463214D01*
X74915989Y-102332111D01*
X74915986Y-102332107D01*
X74804492Y-102220613D01*
X74804488Y-102220610D01*
X74673385Y-102133009D01*
X74673372Y-102133002D01*
X74527701Y-102072664D01*
X74527689Y-102072661D01*
X74373045Y-102041900D01*
X74373042Y-102041900D01*
X74215358Y-102041900D01*
X74215355Y-102041900D01*
X74060710Y-102072661D01*
X74060698Y-102072664D01*
X73915027Y-102133002D01*
X73915014Y-102133009D01*
X73783911Y-102220610D01*
X73783907Y-102220613D01*
X73672413Y-102332107D01*
X73672410Y-102332111D01*
X73584809Y-102463214D01*
X73584802Y-102463227D01*
X73524464Y-102608898D01*
X73524461Y-102608910D01*
X73493700Y-102763553D01*
X63111765Y-102763553D01*
X63140326Y-102619970D01*
X63142400Y-102609544D01*
X63142400Y-102451855D01*
X63142399Y-102451853D01*
X63133753Y-102408385D01*
X63111637Y-102297203D01*
X63104714Y-102280489D01*
X63051297Y-102151527D01*
X63051290Y-102151514D01*
X62963689Y-102020411D01*
X62963686Y-102020407D01*
X62852192Y-101908913D01*
X62852188Y-101908910D01*
X62721085Y-101821309D01*
X62721076Y-101821304D01*
X62670190Y-101800227D01*
X62670188Y-101800226D01*
X62575401Y-101760964D01*
X62575389Y-101760961D01*
X62420745Y-101730200D01*
X62420742Y-101730200D01*
X62263058Y-101730200D01*
X62263055Y-101730200D01*
X62108410Y-101760961D01*
X62108398Y-101760964D01*
X61962727Y-101821302D01*
X61962714Y-101821309D01*
X61831611Y-101908910D01*
X61831607Y-101908913D01*
X61720113Y-102020407D01*
X61720110Y-102020411D01*
X61632509Y-102151514D01*
X61632502Y-102151527D01*
X61572164Y-102297198D01*
X61572161Y-102297210D01*
X61541400Y-102451853D01*
X59241232Y-102451853D01*
X59189192Y-102399813D01*
X59189188Y-102399810D01*
X59058085Y-102312209D01*
X59058072Y-102312202D01*
X58912401Y-102251864D01*
X58912389Y-102251861D01*
X58757745Y-102221100D01*
X58757742Y-102221100D01*
X58600058Y-102221100D01*
X58600055Y-102221100D01*
X58445410Y-102251861D01*
X58445398Y-102251864D01*
X58299727Y-102312202D01*
X58299714Y-102312209D01*
X58168611Y-102399810D01*
X58168607Y-102399813D01*
X58057113Y-102511307D01*
X58057110Y-102511311D01*
X57969509Y-102642414D01*
X57969502Y-102642427D01*
X57909164Y-102788098D01*
X57909161Y-102788110D01*
X57878400Y-102942753D01*
X48241183Y-102942753D01*
X48219709Y-102807173D01*
X48173048Y-102663567D01*
X48158884Y-102619975D01*
X48158882Y-102619972D01*
X48158882Y-102619970D01*
X48087562Y-102479997D01*
X48069524Y-102444595D01*
X48069522Y-102444592D01*
X48069521Y-102444590D01*
X48043217Y-102408386D01*
X48019736Y-102342580D01*
X48035561Y-102274526D01*
X48069219Y-102236237D01*
X48107546Y-102207546D01*
X48193796Y-102092331D01*
X48244091Y-101957483D01*
X48250500Y-101897873D01*
X48250500Y-101691753D01*
X69520100Y-101691753D01*
X69520100Y-101849446D01*
X69550861Y-102004089D01*
X69550864Y-102004101D01*
X69611202Y-102149772D01*
X69611209Y-102149785D01*
X69698810Y-102280888D01*
X69698813Y-102280892D01*
X69810307Y-102392386D01*
X69810311Y-102392389D01*
X69941414Y-102479990D01*
X69941427Y-102479997D01*
X70086132Y-102539935D01*
X70087103Y-102540337D01*
X70239742Y-102570699D01*
X70241753Y-102571099D01*
X70241756Y-102571100D01*
X70241758Y-102571100D01*
X70399444Y-102571100D01*
X70399445Y-102571099D01*
X70554097Y-102540337D01*
X70699779Y-102479994D01*
X70830889Y-102392389D01*
X70942389Y-102280889D01*
X71029994Y-102149779D01*
X71090337Y-102004097D01*
X71121100Y-101849442D01*
X71121100Y-101691758D01*
X71121020Y-101691358D01*
X71121019Y-101691353D01*
X78984500Y-101691353D01*
X78984500Y-101849046D01*
X79015261Y-102003689D01*
X79015264Y-102003701D01*
X79075602Y-102149372D01*
X79075609Y-102149385D01*
X79163210Y-102280488D01*
X79163213Y-102280492D01*
X79274707Y-102391986D01*
X79274711Y-102391989D01*
X79405814Y-102479590D01*
X79405827Y-102479597D01*
X79490471Y-102514657D01*
X79551503Y-102539937D01*
X79706153Y-102570699D01*
X79706156Y-102570700D01*
X79706158Y-102570700D01*
X79863844Y-102570700D01*
X79863845Y-102570699D01*
X80018497Y-102539937D01*
X80150063Y-102485441D01*
X80164172Y-102479597D01*
X80164172Y-102479596D01*
X80164179Y-102479594D01*
X80295289Y-102391989D01*
X80406789Y-102280489D01*
X80494394Y-102149379D01*
X80554737Y-102003697D01*
X80585500Y-101849042D01*
X80585500Y-101691358D01*
X80585500Y-101691355D01*
X80585499Y-101691353D01*
X80554818Y-101537110D01*
X80554737Y-101536703D01*
X80554735Y-101536698D01*
X80494397Y-101391027D01*
X80494390Y-101391014D01*
X80406789Y-101259911D01*
X80406786Y-101259907D01*
X80295292Y-101148413D01*
X80295288Y-101148410D01*
X80164185Y-101060809D01*
X80164172Y-101060802D01*
X80018501Y-101000464D01*
X80018489Y-101000461D01*
X79863845Y-100969700D01*
X79863842Y-100969700D01*
X79706158Y-100969700D01*
X79706155Y-100969700D01*
X79551510Y-101000461D01*
X79551498Y-101000464D01*
X79405827Y-101060802D01*
X79405814Y-101060809D01*
X79274711Y-101148410D01*
X79274707Y-101148413D01*
X79163213Y-101259907D01*
X79163210Y-101259911D01*
X79075609Y-101391014D01*
X79075602Y-101391027D01*
X79015264Y-101536698D01*
X79015261Y-101536710D01*
X78984500Y-101691353D01*
X71121019Y-101691353D01*
X71090338Y-101537110D01*
X71090337Y-101537103D01*
X71090169Y-101536698D01*
X71029997Y-101391427D01*
X71029990Y-101391414D01*
X70942389Y-101260311D01*
X70942386Y-101260307D01*
X70830892Y-101148813D01*
X70830888Y-101148810D01*
X70699785Y-101061209D01*
X70699772Y-101061202D01*
X70554101Y-101000864D01*
X70554089Y-101000861D01*
X70399445Y-100970100D01*
X70399442Y-100970100D01*
X70241758Y-100970100D01*
X70241755Y-100970100D01*
X70087110Y-101000861D01*
X70087098Y-101000864D01*
X69941427Y-101061202D01*
X69941414Y-101061209D01*
X69810311Y-101148810D01*
X69810307Y-101148813D01*
X69698813Y-101260307D01*
X69698810Y-101260311D01*
X69611209Y-101391414D01*
X69611202Y-101391427D01*
X69550864Y-101537098D01*
X69550861Y-101537110D01*
X69520100Y-101691753D01*
X48250500Y-101691753D01*
X48250499Y-100466853D01*
X65473800Y-100466853D01*
X65473800Y-100624546D01*
X65504561Y-100779189D01*
X65504564Y-100779201D01*
X65564902Y-100924872D01*
X65564909Y-100924885D01*
X65652510Y-101055988D01*
X65652513Y-101055992D01*
X65764007Y-101167486D01*
X65764011Y-101167489D01*
X65895114Y-101255090D01*
X65895127Y-101255097D01*
X66040798Y-101315435D01*
X66040803Y-101315437D01*
X66195453Y-101346199D01*
X66195456Y-101346200D01*
X66195458Y-101346200D01*
X66353144Y-101346200D01*
X66353145Y-101346199D01*
X66507797Y-101315437D01*
X66653479Y-101255094D01*
X66784589Y-101167489D01*
X66896089Y-101055989D01*
X66983694Y-100924879D01*
X67044037Y-100779197D01*
X67074800Y-100624542D01*
X67074800Y-100466858D01*
X67069051Y-100437958D01*
X67069050Y-100437953D01*
X75019600Y-100437953D01*
X75019600Y-100595646D01*
X75050361Y-100750289D01*
X75050364Y-100750301D01*
X75110702Y-100895972D01*
X75110709Y-100895985D01*
X75198310Y-101027088D01*
X75198313Y-101027092D01*
X75309807Y-101138586D01*
X75309811Y-101138589D01*
X75440914Y-101226190D01*
X75440927Y-101226197D01*
X75586598Y-101286535D01*
X75586603Y-101286537D01*
X75731882Y-101315435D01*
X75741253Y-101317299D01*
X75741256Y-101317300D01*
X75741258Y-101317300D01*
X75898944Y-101317300D01*
X75898945Y-101317299D01*
X76053597Y-101286537D01*
X76199279Y-101226194D01*
X76330389Y-101138589D01*
X76441889Y-101027089D01*
X76529494Y-100895979D01*
X76589837Y-100750297D01*
X76620600Y-100595642D01*
X76620600Y-100437958D01*
X76620600Y-100437955D01*
X76620599Y-100437953D01*
X76589837Y-100283303D01*
X76551668Y-100191153D01*
X80916600Y-100191153D01*
X80916600Y-100348846D01*
X80947361Y-100503489D01*
X80947364Y-100503501D01*
X81007702Y-100649172D01*
X81007709Y-100649185D01*
X81095310Y-100780288D01*
X81095313Y-100780292D01*
X81206807Y-100891786D01*
X81206811Y-100891789D01*
X81337914Y-100979390D01*
X81337927Y-100979397D01*
X81453075Y-101027092D01*
X81483603Y-101039737D01*
X81638253Y-101070499D01*
X81638256Y-101070500D01*
X81638258Y-101070500D01*
X81795944Y-101070500D01*
X81795945Y-101070499D01*
X81950597Y-101039737D01*
X82093628Y-100980492D01*
X82096272Y-100979397D01*
X82096272Y-100979396D01*
X82096279Y-100979394D01*
X82227389Y-100891789D01*
X82338889Y-100780289D01*
X82426494Y-100649179D01*
X82486837Y-100503497D01*
X82509144Y-100391353D01*
X87816400Y-100391353D01*
X87816400Y-100549046D01*
X87847161Y-100703689D01*
X87847164Y-100703701D01*
X87907502Y-100849372D01*
X87907509Y-100849385D01*
X87995110Y-100980488D01*
X87995113Y-100980492D01*
X88106607Y-101091986D01*
X88106611Y-101091989D01*
X88237714Y-101179590D01*
X88237727Y-101179597D01*
X88350224Y-101226194D01*
X88383403Y-101239937D01*
X88538053Y-101270699D01*
X88538056Y-101270700D01*
X88538058Y-101270700D01*
X88695744Y-101270700D01*
X88695745Y-101270699D01*
X88850397Y-101239937D01*
X88996079Y-101179594D01*
X89127189Y-101091989D01*
X89238689Y-100980489D01*
X89326294Y-100849379D01*
X89386637Y-100703697D01*
X89417400Y-100549042D01*
X89417400Y-100391358D01*
X89417400Y-100391355D01*
X89417399Y-100391353D01*
X89399651Y-100302127D01*
X89386637Y-100236703D01*
X89382321Y-100226283D01*
X89326297Y-100091027D01*
X89326290Y-100091014D01*
X89238689Y-99959911D01*
X89238686Y-99959907D01*
X89127192Y-99848413D01*
X89127188Y-99848410D01*
X88996085Y-99760809D01*
X88996072Y-99760802D01*
X88850401Y-99700464D01*
X88850389Y-99700461D01*
X88695745Y-99669700D01*
X88695742Y-99669700D01*
X88538058Y-99669700D01*
X88538055Y-99669700D01*
X88383410Y-99700461D01*
X88383398Y-99700464D01*
X88237727Y-99760802D01*
X88237714Y-99760809D01*
X88106611Y-99848410D01*
X88106607Y-99848413D01*
X87995113Y-99959907D01*
X87995110Y-99959911D01*
X87907509Y-100091014D01*
X87907502Y-100091027D01*
X87847164Y-100236698D01*
X87847161Y-100236710D01*
X87816400Y-100391353D01*
X82509144Y-100391353D01*
X82517600Y-100348842D01*
X82517600Y-100191158D01*
X82517600Y-100191155D01*
X82517599Y-100191153D01*
X82512732Y-100166685D01*
X82486837Y-100036503D01*
X82474414Y-100006511D01*
X82426497Y-99890827D01*
X82426490Y-99890814D01*
X82338889Y-99759711D01*
X82338886Y-99759707D01*
X82227392Y-99648213D01*
X82227388Y-99648210D01*
X82096285Y-99560609D01*
X82096272Y-99560602D01*
X81950601Y-99500264D01*
X81950589Y-99500261D01*
X81795945Y-99469500D01*
X81795942Y-99469500D01*
X81638258Y-99469500D01*
X81638255Y-99469500D01*
X81483610Y-99500261D01*
X81483598Y-99500264D01*
X81337927Y-99560602D01*
X81337914Y-99560609D01*
X81206811Y-99648210D01*
X81206807Y-99648213D01*
X81095313Y-99759707D01*
X81095310Y-99759711D01*
X81007709Y-99890814D01*
X81007702Y-99890827D01*
X80947364Y-100036498D01*
X80947361Y-100036510D01*
X80916600Y-100191153D01*
X76551668Y-100191153D01*
X76536585Y-100154740D01*
X76529495Y-100137623D01*
X76529490Y-100137614D01*
X76441889Y-100006511D01*
X76441886Y-100006507D01*
X76330392Y-99895013D01*
X76330388Y-99895010D01*
X76199285Y-99807409D01*
X76199272Y-99807402D01*
X76053601Y-99747064D01*
X76053589Y-99747061D01*
X75898945Y-99716300D01*
X75898942Y-99716300D01*
X75741258Y-99716300D01*
X75741255Y-99716300D01*
X75586610Y-99747061D01*
X75586598Y-99747064D01*
X75440927Y-99807402D01*
X75440914Y-99807409D01*
X75309811Y-99895010D01*
X75309807Y-99895013D01*
X75198313Y-100006507D01*
X75198310Y-100006511D01*
X75110709Y-100137614D01*
X75110702Y-100137627D01*
X75050364Y-100283298D01*
X75050361Y-100283310D01*
X75019600Y-100437953D01*
X67069050Y-100437953D01*
X67044038Y-100312210D01*
X67044037Y-100312203D01*
X67039864Y-100302128D01*
X66983697Y-100166527D01*
X66983690Y-100166514D01*
X66896089Y-100035411D01*
X66896086Y-100035407D01*
X66784592Y-99923913D01*
X66784588Y-99923910D01*
X66653485Y-99836309D01*
X66653472Y-99836302D01*
X66507801Y-99775964D01*
X66507789Y-99775961D01*
X66353145Y-99745200D01*
X66353142Y-99745200D01*
X66195458Y-99745200D01*
X66195455Y-99745200D01*
X66040810Y-99775961D01*
X66040798Y-99775964D01*
X65895127Y-99836302D01*
X65895114Y-99836309D01*
X65764011Y-99923910D01*
X65764007Y-99923913D01*
X65652513Y-100035407D01*
X65652510Y-100035411D01*
X65564909Y-100166514D01*
X65564902Y-100166527D01*
X65504564Y-100312198D01*
X65504561Y-100312210D01*
X65473800Y-100466853D01*
X48250499Y-100466853D01*
X48250499Y-100302128D01*
X48244091Y-100242517D01*
X48243139Y-100239966D01*
X48242688Y-100226283D01*
X48250314Y-100196734D01*
X48255736Y-100166685D01*
X48259371Y-100161643D01*
X48260149Y-100158630D01*
X48264349Y-100154740D01*
X48278938Y-100134510D01*
X48370793Y-100042656D01*
X48518870Y-99838845D01*
X48633241Y-99614379D01*
X48711090Y-99374785D01*
X48750500Y-99125962D01*
X48750500Y-98874038D01*
X48711090Y-98625215D01*
X48711089Y-98625211D01*
X48711089Y-98625210D01*
X48699481Y-98589484D01*
X48689008Y-98557253D01*
X65987100Y-98557253D01*
X65987100Y-98714946D01*
X66017861Y-98869589D01*
X66017864Y-98869601D01*
X66078202Y-99015272D01*
X66078209Y-99015285D01*
X66165810Y-99146388D01*
X66165813Y-99146392D01*
X66277307Y-99257886D01*
X66277311Y-99257889D01*
X66408414Y-99345490D01*
X66408427Y-99345497D01*
X66479136Y-99374785D01*
X66554103Y-99405837D01*
X66708753Y-99436599D01*
X66708756Y-99436600D01*
X66708758Y-99436600D01*
X66866444Y-99436600D01*
X66866445Y-99436599D01*
X67021097Y-99405837D01*
X67166779Y-99345494D01*
X67297889Y-99257889D01*
X67409389Y-99146389D01*
X67496994Y-99015279D01*
X67557337Y-98869597D01*
X67588100Y-98714942D01*
X67588100Y-98557258D01*
X67588100Y-98557255D01*
X67588099Y-98557253D01*
X67562188Y-98426992D01*
X67557337Y-98402603D01*
X67550301Y-98385616D01*
X67496997Y-98256927D01*
X67496990Y-98256914D01*
X67409389Y-98125811D01*
X67409386Y-98125807D01*
X67297892Y-98014313D01*
X67297888Y-98014310D01*
X67166785Y-97926709D01*
X67166772Y-97926702D01*
X67021101Y-97866364D01*
X67021089Y-97866361D01*
X66866445Y-97835600D01*
X66866442Y-97835600D01*
X66708758Y-97835600D01*
X66708755Y-97835600D01*
X66554110Y-97866361D01*
X66554098Y-97866364D01*
X66408427Y-97926702D01*
X66408414Y-97926709D01*
X66277311Y-98014310D01*
X66277307Y-98014313D01*
X66165813Y-98125807D01*
X66165810Y-98125811D01*
X66078209Y-98256914D01*
X66078202Y-98256927D01*
X66017864Y-98402598D01*
X66017861Y-98402610D01*
X65987100Y-98557253D01*
X48689008Y-98557253D01*
X48633239Y-98385616D01*
X48567665Y-98256921D01*
X48518870Y-98161155D01*
X48493188Y-98125807D01*
X48370798Y-97957350D01*
X48370794Y-97957345D01*
X48192654Y-97779205D01*
X48192649Y-97779201D01*
X47988848Y-97631132D01*
X47988847Y-97631131D01*
X47988845Y-97631130D01*
X47918747Y-97595413D01*
X47764383Y-97516760D01*
X47524785Y-97438910D01*
X47275962Y-97399500D01*
X45724038Y-97399500D01*
X45599626Y-97419205D01*
X45475214Y-97438910D01*
X45235616Y-97516760D01*
X45011151Y-97631132D01*
X44807350Y-97779201D01*
X44807345Y-97779205D01*
X44629205Y-97957345D01*
X44629201Y-97957350D01*
X44481132Y-98161151D01*
X44366760Y-98385616D01*
X44288910Y-98625214D01*
X44249500Y-98874038D01*
X44000500Y-98874038D01*
X44000500Y-95774453D01*
X62078100Y-95774453D01*
X62078100Y-95932146D01*
X62108861Y-96086789D01*
X62108864Y-96086801D01*
X62169202Y-96232472D01*
X62169209Y-96232485D01*
X62256810Y-96363588D01*
X62256813Y-96363592D01*
X62368307Y-96475086D01*
X62368311Y-96475089D01*
X62499414Y-96562690D01*
X62499427Y-96562697D01*
X62624640Y-96614561D01*
X62645103Y-96623037D01*
X62783158Y-96650498D01*
X62799753Y-96653799D01*
X62799756Y-96653800D01*
X62799758Y-96653800D01*
X62957444Y-96653800D01*
X63102776Y-96624891D01*
X63172368Y-96631118D01*
X63227545Y-96673981D01*
X63241529Y-96699056D01*
X63287802Y-96810772D01*
X63287809Y-96810785D01*
X63375410Y-96941888D01*
X63375413Y-96941892D01*
X63486907Y-97053386D01*
X63486911Y-97053389D01*
X63618014Y-97140990D01*
X63618027Y-97140997D01*
X63718716Y-97182703D01*
X63763703Y-97201337D01*
X63918353Y-97232099D01*
X63918356Y-97232100D01*
X63918358Y-97232100D01*
X64076044Y-97232100D01*
X64076045Y-97232099D01*
X64230697Y-97201337D01*
X64361966Y-97146964D01*
X64376372Y-97140997D01*
X64376372Y-97140996D01*
X64376379Y-97140994D01*
X64507489Y-97053389D01*
X64618989Y-96941889D01*
X64706594Y-96810779D01*
X64766937Y-96665097D01*
X64797700Y-96510442D01*
X64797700Y-96352758D01*
X64797700Y-96352755D01*
X64797699Y-96352753D01*
X64787742Y-96302697D01*
X64766937Y-96198103D01*
X64742623Y-96139403D01*
X64706597Y-96052427D01*
X64706590Y-96052414D01*
X64618989Y-95921311D01*
X64618986Y-95921307D01*
X64507492Y-95809813D01*
X64507488Y-95809810D01*
X64426587Y-95755753D01*
X66141300Y-95755753D01*
X66141300Y-95913446D01*
X66172061Y-96068089D01*
X66172064Y-96068101D01*
X66232402Y-96213772D01*
X66232409Y-96213785D01*
X66320010Y-96344888D01*
X66320013Y-96344892D01*
X66431507Y-96456386D01*
X66431511Y-96456389D01*
X66562614Y-96543990D01*
X66562627Y-96543997D01*
X66699073Y-96600514D01*
X66708303Y-96604337D01*
X66862953Y-96635099D01*
X66862956Y-96635100D01*
X66862958Y-96635100D01*
X67020644Y-96635100D01*
X67020645Y-96635099D01*
X67175297Y-96604337D01*
X67320979Y-96543994D01*
X67452089Y-96456389D01*
X67563589Y-96344889D01*
X67597556Y-96294053D01*
X70782700Y-96294053D01*
X70782700Y-96451746D01*
X70813461Y-96606389D01*
X70813464Y-96606401D01*
X70873802Y-96752072D01*
X70873809Y-96752085D01*
X70961410Y-96883188D01*
X70961413Y-96883192D01*
X71072907Y-96994686D01*
X71072911Y-96994689D01*
X71204014Y-97082290D01*
X71204027Y-97082297D01*
X71349698Y-97142635D01*
X71349703Y-97142637D01*
X71504353Y-97173399D01*
X71504356Y-97173400D01*
X71504358Y-97173400D01*
X71662044Y-97173400D01*
X71662045Y-97173399D01*
X71816697Y-97142637D01*
X71962379Y-97082294D01*
X71966402Y-97079606D01*
X72033078Y-97058723D01*
X72100460Y-97077203D01*
X72147153Y-97129179D01*
X72159300Y-97182703D01*
X72159300Y-97205746D01*
X72190061Y-97360389D01*
X72190064Y-97360401D01*
X72250402Y-97506072D01*
X72250409Y-97506085D01*
X72338010Y-97637188D01*
X72338013Y-97637192D01*
X72449507Y-97748686D01*
X72449511Y-97748689D01*
X72580614Y-97836290D01*
X72580627Y-97836297D01*
X72726298Y-97896635D01*
X72726303Y-97896637D01*
X72877449Y-97926702D01*
X72880953Y-97927399D01*
X72880956Y-97927400D01*
X72880958Y-97927400D01*
X73038644Y-97927400D01*
X73038645Y-97927399D01*
X73193297Y-97896637D01*
X73335203Y-97837858D01*
X73335215Y-97837853D01*
X94307900Y-97837853D01*
X94307900Y-97995546D01*
X94338661Y-98150189D01*
X94338664Y-98150201D01*
X94399002Y-98295872D01*
X94399009Y-98295885D01*
X94486610Y-98426988D01*
X94486613Y-98426992D01*
X94598107Y-98538486D01*
X94598111Y-98538489D01*
X94729214Y-98626090D01*
X94729227Y-98626097D01*
X94874898Y-98686435D01*
X94874903Y-98686437D01*
X95029553Y-98717199D01*
X95029556Y-98717200D01*
X95029558Y-98717200D01*
X95187244Y-98717200D01*
X95187245Y-98717199D01*
X95341897Y-98686437D01*
X95487579Y-98626094D01*
X95618689Y-98538489D01*
X95730189Y-98426989D01*
X95817794Y-98295879D01*
X95878137Y-98150197D01*
X95908900Y-97995542D01*
X95908900Y-97837858D01*
X95908900Y-97837855D01*
X95908899Y-97837853D01*
X95908451Y-97835600D01*
X95878137Y-97683203D01*
X95856568Y-97631130D01*
X95817797Y-97537527D01*
X95817790Y-97537514D01*
X95730189Y-97406411D01*
X95730186Y-97406407D01*
X95618692Y-97294913D01*
X95618688Y-97294910D01*
X95487585Y-97207309D01*
X95487572Y-97207302D01*
X95341901Y-97146964D01*
X95341889Y-97146961D01*
X95187245Y-97116200D01*
X95187242Y-97116200D01*
X95029558Y-97116200D01*
X95029555Y-97116200D01*
X94874910Y-97146961D01*
X94874898Y-97146964D01*
X94729227Y-97207302D01*
X94729214Y-97207309D01*
X94598111Y-97294910D01*
X94598107Y-97294913D01*
X94486613Y-97406407D01*
X94486610Y-97406411D01*
X94399009Y-97537514D01*
X94399002Y-97537527D01*
X94338664Y-97683198D01*
X94338661Y-97683210D01*
X94307900Y-97837853D01*
X73335215Y-97837853D01*
X73338972Y-97836297D01*
X73338972Y-97836296D01*
X73338979Y-97836294D01*
X73470089Y-97748689D01*
X73470092Y-97748686D01*
X73474694Y-97744085D01*
X73581586Y-97637192D01*
X73581589Y-97637189D01*
X73669194Y-97506079D01*
X73729537Y-97360397D01*
X73760300Y-97205742D01*
X73760300Y-97048058D01*
X73760300Y-97048055D01*
X73760299Y-97048053D01*
X73749684Y-96994689D01*
X73729537Y-96893403D01*
X73729535Y-96893398D01*
X73669197Y-96747727D01*
X73669190Y-96747714D01*
X73581589Y-96616611D01*
X73581586Y-96616607D01*
X73470092Y-96505113D01*
X73470088Y-96505110D01*
X73338985Y-96417509D01*
X73338972Y-96417502D01*
X73193301Y-96357164D01*
X73193289Y-96357161D01*
X73038645Y-96326400D01*
X73038642Y-96326400D01*
X72880958Y-96326400D01*
X72880955Y-96326400D01*
X72726310Y-96357161D01*
X72726298Y-96357164D01*
X72580627Y-96417502D01*
X72580616Y-96417508D01*
X72576590Y-96420199D01*
X72509912Y-96441076D01*
X72442532Y-96422591D01*
X72395843Y-96370612D01*
X72383700Y-96317096D01*
X72383700Y-96294055D01*
X72383699Y-96294053D01*
X72367843Y-96214342D01*
X72352937Y-96139403D01*
X72318661Y-96056653D01*
X74170800Y-96056653D01*
X74170800Y-96214346D01*
X74201561Y-96368989D01*
X74201564Y-96369001D01*
X74261902Y-96514672D01*
X74261909Y-96514685D01*
X74349510Y-96645788D01*
X74349513Y-96645792D01*
X74461007Y-96757286D01*
X74461011Y-96757289D01*
X74592114Y-96844890D01*
X74592127Y-96844897D01*
X74723433Y-96899285D01*
X74737803Y-96905237D01*
X74892453Y-96935999D01*
X74892456Y-96936000D01*
X74892458Y-96936000D01*
X75050144Y-96936000D01*
X75050145Y-96935999D01*
X75204797Y-96905237D01*
X75350479Y-96844894D01*
X75481589Y-96757289D01*
X75593089Y-96645789D01*
X75680694Y-96514679D01*
X75686655Y-96500289D01*
X75704838Y-96456389D01*
X75741037Y-96368997D01*
X75771800Y-96214342D01*
X75771800Y-96056658D01*
X75771800Y-96056655D01*
X75771799Y-96056653D01*
X75759281Y-95993721D01*
X75741037Y-95902003D01*
X75741035Y-95901998D01*
X75680697Y-95756327D01*
X75680690Y-95756314D01*
X75593089Y-95625211D01*
X75593086Y-95625207D01*
X75481592Y-95513713D01*
X75481588Y-95513710D01*
X75350485Y-95426109D01*
X75350472Y-95426102D01*
X75204801Y-95365764D01*
X75204789Y-95365761D01*
X75050145Y-95335000D01*
X75050142Y-95335000D01*
X74892458Y-95335000D01*
X74892455Y-95335000D01*
X74737810Y-95365761D01*
X74737798Y-95365764D01*
X74592127Y-95426102D01*
X74592114Y-95426109D01*
X74461011Y-95513710D01*
X74461007Y-95513713D01*
X74349513Y-95625207D01*
X74349510Y-95625211D01*
X74261909Y-95756314D01*
X74261902Y-95756327D01*
X74201564Y-95901998D01*
X74201561Y-95902010D01*
X74170800Y-96056653D01*
X72318661Y-96056653D01*
X72314766Y-96047249D01*
X72292597Y-95993727D01*
X72292590Y-95993714D01*
X72204989Y-95862611D01*
X72204986Y-95862607D01*
X72093492Y-95751113D01*
X72093488Y-95751110D01*
X71962385Y-95663509D01*
X71962372Y-95663502D01*
X71816701Y-95603164D01*
X71816689Y-95603161D01*
X71662045Y-95572400D01*
X71662042Y-95572400D01*
X71504358Y-95572400D01*
X71504355Y-95572400D01*
X71349710Y-95603161D01*
X71349698Y-95603164D01*
X71204027Y-95663502D01*
X71204014Y-95663509D01*
X71072911Y-95751110D01*
X71072907Y-95751113D01*
X70961413Y-95862607D01*
X70961410Y-95862611D01*
X70873809Y-95993714D01*
X70873802Y-95993727D01*
X70813464Y-96139398D01*
X70813461Y-96139410D01*
X70782700Y-96294053D01*
X67597556Y-96294053D01*
X67605314Y-96282443D01*
X67647656Y-96219075D01*
X67651190Y-96213785D01*
X67651190Y-96213784D01*
X67651194Y-96213779D01*
X67711537Y-96068097D01*
X67742300Y-95913442D01*
X67742300Y-95755758D01*
X67742300Y-95755755D01*
X67742299Y-95755753D01*
X67725668Y-95672144D01*
X67711537Y-95601103D01*
X67675648Y-95514458D01*
X67651197Y-95455427D01*
X67651190Y-95455414D01*
X67563589Y-95324311D01*
X67563586Y-95324307D01*
X67452092Y-95212813D01*
X67452088Y-95212810D01*
X67320985Y-95125209D01*
X67320972Y-95125202D01*
X67175301Y-95064864D01*
X67175289Y-95064861D01*
X67020645Y-95034100D01*
X67020642Y-95034100D01*
X66862958Y-95034100D01*
X66862955Y-95034100D01*
X66708310Y-95064861D01*
X66708298Y-95064864D01*
X66562627Y-95125202D01*
X66562614Y-95125209D01*
X66431511Y-95212810D01*
X66431507Y-95212813D01*
X66320013Y-95324307D01*
X66320010Y-95324311D01*
X66232409Y-95455414D01*
X66232402Y-95455427D01*
X66172064Y-95601098D01*
X66172061Y-95601110D01*
X66141300Y-95755753D01*
X64426587Y-95755753D01*
X64376385Y-95722209D01*
X64376372Y-95722202D01*
X64230701Y-95661864D01*
X64230689Y-95661861D01*
X64076045Y-95631100D01*
X64076042Y-95631100D01*
X63918358Y-95631100D01*
X63918353Y-95631100D01*
X63773022Y-95660008D01*
X63703430Y-95653781D01*
X63648253Y-95610917D01*
X63634274Y-95585852D01*
X63587994Y-95474121D01*
X63587992Y-95474118D01*
X63587990Y-95474114D01*
X63500389Y-95343011D01*
X63500386Y-95343007D01*
X63388892Y-95231513D01*
X63388888Y-95231510D01*
X63257785Y-95143909D01*
X63257772Y-95143902D01*
X63112101Y-95083564D01*
X63112089Y-95083561D01*
X62957445Y-95052800D01*
X62957442Y-95052800D01*
X62799758Y-95052800D01*
X62799755Y-95052800D01*
X62645110Y-95083561D01*
X62645098Y-95083564D01*
X62499427Y-95143902D01*
X62499414Y-95143909D01*
X62368311Y-95231510D01*
X62368307Y-95231513D01*
X62256813Y-95343007D01*
X62256810Y-95343011D01*
X62169209Y-95474114D01*
X62169202Y-95474127D01*
X62108864Y-95619798D01*
X62108861Y-95619810D01*
X62078100Y-95774453D01*
X44000500Y-95774453D01*
X44000500Y-94287153D01*
X70387700Y-94287153D01*
X70387700Y-94444846D01*
X70418461Y-94599489D01*
X70418464Y-94599501D01*
X70478802Y-94745172D01*
X70478809Y-94745185D01*
X70566410Y-94876288D01*
X70566413Y-94876292D01*
X70677907Y-94987786D01*
X70677911Y-94987789D01*
X70809014Y-95075390D01*
X70809027Y-95075397D01*
X70929286Y-95125209D01*
X70954703Y-95135737D01*
X71109353Y-95166499D01*
X71109356Y-95166500D01*
X71109358Y-95166500D01*
X71267044Y-95166500D01*
X71267045Y-95166499D01*
X71421697Y-95135737D01*
X71548990Y-95083011D01*
X71567372Y-95075397D01*
X71567372Y-95075396D01*
X71567379Y-95075394D01*
X71698489Y-94987789D01*
X71809989Y-94876289D01*
X71897594Y-94745179D01*
X71957937Y-94599497D01*
X71988700Y-94444842D01*
X71988700Y-94412332D01*
X82499500Y-94412332D01*
X82499500Y-94687667D01*
X82499501Y-94687684D01*
X82535438Y-94960655D01*
X82535439Y-94960660D01*
X82535440Y-94960666D01*
X82560127Y-95052800D01*
X82606704Y-95226630D01*
X82712075Y-95481017D01*
X82712080Y-95481028D01*
X82782595Y-95603161D01*
X82849751Y-95719479D01*
X82849753Y-95719482D01*
X82849754Y-95719483D01*
X83017370Y-95937926D01*
X83017376Y-95937933D01*
X83212066Y-96132623D01*
X83212073Y-96132629D01*
X83297401Y-96198103D01*
X83430521Y-96300249D01*
X83583778Y-96388732D01*
X83668971Y-96437919D01*
X83668976Y-96437921D01*
X83668979Y-96437923D01*
X83923368Y-96543295D01*
X84189334Y-96614560D01*
X84462326Y-96650500D01*
X84462333Y-96650500D01*
X84737667Y-96650500D01*
X84737674Y-96650500D01*
X85010666Y-96614560D01*
X85276632Y-96543295D01*
X85531021Y-96437923D01*
X85769479Y-96300249D01*
X85987928Y-96132628D01*
X86182628Y-95937928D01*
X86350249Y-95719479D01*
X86468621Y-95514453D01*
X88788800Y-95514453D01*
X88788800Y-95672146D01*
X88819561Y-95826789D01*
X88819564Y-95826801D01*
X88879902Y-95972472D01*
X88879909Y-95972485D01*
X88967510Y-96103588D01*
X88967513Y-96103592D01*
X89079007Y-96215086D01*
X89079011Y-96215089D01*
X89210114Y-96302690D01*
X89210127Y-96302697D01*
X89330975Y-96352753D01*
X89355803Y-96363037D01*
X89510453Y-96393799D01*
X89510456Y-96393800D01*
X89510458Y-96393800D01*
X89668144Y-96393800D01*
X89668145Y-96393799D01*
X89822797Y-96363037D01*
X89968479Y-96302694D01*
X90099589Y-96215089D01*
X90211089Y-96103589D01*
X90298694Y-95972479D01*
X90324096Y-95911153D01*
X96649500Y-95911153D01*
X96649500Y-96068846D01*
X96680261Y-96223489D01*
X96680264Y-96223501D01*
X96740602Y-96369172D01*
X96740609Y-96369185D01*
X96828210Y-96500288D01*
X96828213Y-96500292D01*
X96939707Y-96611786D01*
X96939711Y-96611789D01*
X97070814Y-96699390D01*
X97070827Y-96699397D01*
X97187508Y-96747727D01*
X97216503Y-96759737D01*
X97371153Y-96790499D01*
X97371156Y-96790500D01*
X97371158Y-96790500D01*
X97528844Y-96790500D01*
X97528845Y-96790499D01*
X97683497Y-96759737D01*
X97829179Y-96699394D01*
X97960289Y-96611789D01*
X98071789Y-96500289D01*
X98158216Y-96370941D01*
X98159390Y-96369185D01*
X98159390Y-96369184D01*
X98159394Y-96369179D01*
X98161710Y-96363589D01*
X98173067Y-96336166D01*
X98219737Y-96223497D01*
X98250500Y-96068842D01*
X98250500Y-95911158D01*
X98250500Y-95911155D01*
X98250499Y-95911153D01*
X98240843Y-95862611D01*
X98219737Y-95756503D01*
X98204401Y-95719479D01*
X98159397Y-95610827D01*
X98159390Y-95610814D01*
X98071789Y-95479711D01*
X98071786Y-95479707D01*
X97960292Y-95368213D01*
X97960288Y-95368210D01*
X97829185Y-95280609D01*
X97829172Y-95280602D01*
X97683501Y-95220264D01*
X97683489Y-95220261D01*
X97528845Y-95189500D01*
X97528842Y-95189500D01*
X97371158Y-95189500D01*
X97371155Y-95189500D01*
X97216510Y-95220261D01*
X97216498Y-95220264D01*
X97070827Y-95280602D01*
X97070814Y-95280609D01*
X96939711Y-95368210D01*
X96939707Y-95368213D01*
X96828213Y-95479707D01*
X96828210Y-95479711D01*
X96740609Y-95610814D01*
X96740602Y-95610827D01*
X96680264Y-95756498D01*
X96680261Y-95756510D01*
X96649500Y-95911153D01*
X90324096Y-95911153D01*
X90327888Y-95901998D01*
X90346273Y-95857613D01*
X90348554Y-95852104D01*
X90359037Y-95826797D01*
X90389800Y-95672142D01*
X90389800Y-95514458D01*
X90389800Y-95514455D01*
X90389799Y-95514453D01*
X90383149Y-95481021D01*
X90359037Y-95359803D01*
X90305898Y-95231513D01*
X90298697Y-95214127D01*
X90298690Y-95214114D01*
X90211089Y-95083011D01*
X90211086Y-95083007D01*
X90099592Y-94971513D01*
X90099588Y-94971510D01*
X89968485Y-94883909D01*
X89968472Y-94883902D01*
X89822801Y-94823564D01*
X89822789Y-94823561D01*
X89668145Y-94792800D01*
X89668142Y-94792800D01*
X89510458Y-94792800D01*
X89510455Y-94792800D01*
X89355810Y-94823561D01*
X89355798Y-94823564D01*
X89210127Y-94883902D01*
X89210114Y-94883909D01*
X89079011Y-94971510D01*
X89079007Y-94971513D01*
X88967513Y-95083007D01*
X88967510Y-95083011D01*
X88879909Y-95214114D01*
X88879902Y-95214127D01*
X88819564Y-95359798D01*
X88819561Y-95359810D01*
X88788800Y-95514453D01*
X86468621Y-95514453D01*
X86487923Y-95481021D01*
X86593295Y-95226632D01*
X86664560Y-94960666D01*
X86700500Y-94687674D01*
X86700500Y-94412326D01*
X86664560Y-94139334D01*
X86593295Y-93873368D01*
X86487923Y-93618979D01*
X86487921Y-93618976D01*
X86487919Y-93618971D01*
X86437230Y-93531177D01*
X86350249Y-93380521D01*
X86182628Y-93162072D01*
X86182623Y-93162066D01*
X85987933Y-92967376D01*
X85987926Y-92967370D01*
X85769483Y-92799754D01*
X85769482Y-92799753D01*
X85769479Y-92799751D01*
X85625799Y-92716797D01*
X85531028Y-92662080D01*
X85531017Y-92662075D01*
X85276630Y-92556704D01*
X85131033Y-92517692D01*
X85010666Y-92485440D01*
X85010660Y-92485439D01*
X85010655Y-92485438D01*
X84737684Y-92449501D01*
X84737679Y-92449500D01*
X84737674Y-92449500D01*
X84462326Y-92449500D01*
X84462320Y-92449500D01*
X84462315Y-92449501D01*
X84189344Y-92485438D01*
X84189337Y-92485439D01*
X84189334Y-92485440D01*
X84176104Y-92488985D01*
X83923369Y-92556704D01*
X83668982Y-92662075D01*
X83668971Y-92662080D01*
X83430516Y-92799754D01*
X83212073Y-92967370D01*
X83212066Y-92967376D01*
X83017376Y-93162066D01*
X83017370Y-93162073D01*
X82849754Y-93380516D01*
X82712080Y-93618971D01*
X82712075Y-93618982D01*
X82606704Y-93873369D01*
X82576304Y-93986827D01*
X82537269Y-94132510D01*
X82535441Y-94139331D01*
X82535438Y-94139344D01*
X82499501Y-94412315D01*
X82499500Y-94412332D01*
X71988700Y-94412332D01*
X71988700Y-94287158D01*
X71988700Y-94287155D01*
X71988699Y-94287153D01*
X71988081Y-94284047D01*
X71957937Y-94132503D01*
X71957935Y-94132498D01*
X71897597Y-93986827D01*
X71897590Y-93986814D01*
X71809989Y-93855711D01*
X71809986Y-93855707D01*
X71698492Y-93744213D01*
X71698488Y-93744210D01*
X71567385Y-93656609D01*
X71567372Y-93656602D01*
X71421701Y-93596264D01*
X71421689Y-93596261D01*
X71267045Y-93565500D01*
X71267042Y-93565500D01*
X71109358Y-93565500D01*
X71109355Y-93565500D01*
X70954710Y-93596261D01*
X70954698Y-93596264D01*
X70809027Y-93656602D01*
X70809014Y-93656609D01*
X70677911Y-93744210D01*
X70677907Y-93744213D01*
X70566413Y-93855707D01*
X70566410Y-93855711D01*
X70478809Y-93986814D01*
X70478802Y-93986827D01*
X70418464Y-94132498D01*
X70418461Y-94132510D01*
X70387700Y-94287153D01*
X44000500Y-94287153D01*
X44000500Y-92030953D01*
X51717400Y-92030953D01*
X51717400Y-92188646D01*
X51748161Y-92343289D01*
X51748164Y-92343301D01*
X51808502Y-92488972D01*
X51808509Y-92488985D01*
X51896110Y-92620088D01*
X51896113Y-92620092D01*
X52007607Y-92731586D01*
X52007611Y-92731589D01*
X52138714Y-92819190D01*
X52138727Y-92819197D01*
X52284398Y-92879535D01*
X52284403Y-92879537D01*
X52439053Y-92910299D01*
X52439056Y-92910300D01*
X52439058Y-92910300D01*
X52596744Y-92910300D01*
X52596745Y-92910299D01*
X52751397Y-92879537D01*
X52897079Y-92819194D01*
X53028189Y-92731589D01*
X53139689Y-92620089D01*
X53227294Y-92488979D01*
X53228760Y-92485441D01*
X53268712Y-92388986D01*
X53287637Y-92343297D01*
X53318400Y-92188642D01*
X53318400Y-92030958D01*
X53318400Y-92030955D01*
X53318399Y-92030953D01*
X53305297Y-91965086D01*
X53287637Y-91876303D01*
X53287102Y-91875012D01*
X53227297Y-91730627D01*
X53227290Y-91730614D01*
X53139689Y-91599511D01*
X53139686Y-91599507D01*
X53028192Y-91488013D01*
X53028188Y-91488010D01*
X52897085Y-91400409D01*
X52897072Y-91400402D01*
X52830739Y-91372927D01*
X52751401Y-91340064D01*
X52751389Y-91340061D01*
X52596745Y-91309300D01*
X52596742Y-91309300D01*
X52439058Y-91309300D01*
X52439055Y-91309300D01*
X52284410Y-91340061D01*
X52284398Y-91340064D01*
X52138727Y-91400402D01*
X52138714Y-91400409D01*
X52007611Y-91488010D01*
X52007607Y-91488013D01*
X51896113Y-91599507D01*
X51896110Y-91599511D01*
X51808509Y-91730614D01*
X51808502Y-91730627D01*
X51748164Y-91876298D01*
X51748161Y-91876310D01*
X51717400Y-92030953D01*
X44000500Y-92030953D01*
X44000500Y-91264453D01*
X57877800Y-91264453D01*
X57877800Y-91422146D01*
X57908561Y-91576789D01*
X57908564Y-91576801D01*
X57968902Y-91722472D01*
X57968909Y-91722485D01*
X58056510Y-91853588D01*
X58056513Y-91853592D01*
X58168007Y-91965086D01*
X58168011Y-91965089D01*
X58299114Y-92052690D01*
X58299127Y-92052697D01*
X58380118Y-92086244D01*
X58444803Y-92113037D01*
X58599453Y-92143799D01*
X58599456Y-92143800D01*
X58599458Y-92143800D01*
X58757144Y-92143800D01*
X58757145Y-92143799D01*
X58911797Y-92113037D01*
X59057479Y-92052694D01*
X59188589Y-91965089D01*
X59300089Y-91853589D01*
X59387694Y-91722479D01*
X59401829Y-91688355D01*
X59401830Y-91688353D01*
X60867200Y-91688353D01*
X60867200Y-91846046D01*
X60897961Y-92000689D01*
X60897964Y-92000701D01*
X60958302Y-92146372D01*
X60958309Y-92146385D01*
X61045910Y-92277488D01*
X61045913Y-92277492D01*
X61157407Y-92388986D01*
X61157411Y-92388989D01*
X61288514Y-92476590D01*
X61288527Y-92476597D01*
X61387741Y-92517692D01*
X61434203Y-92536937D01*
X61569257Y-92563801D01*
X61588853Y-92567699D01*
X61588856Y-92567700D01*
X61588858Y-92567700D01*
X61746544Y-92567700D01*
X61746545Y-92567699D01*
X61901197Y-92536937D01*
X62046879Y-92476594D01*
X62177989Y-92388989D01*
X62289489Y-92277489D01*
X62377094Y-92146379D01*
X62437437Y-92000697D01*
X62468200Y-91846042D01*
X62468200Y-91688358D01*
X62468200Y-91688355D01*
X62468199Y-91688353D01*
X62456238Y-91628221D01*
X62437437Y-91533703D01*
X62418511Y-91488011D01*
X62414014Y-91477153D01*
X73211500Y-91477153D01*
X73211500Y-91634846D01*
X73242261Y-91789489D01*
X73242264Y-91789501D01*
X73302602Y-91935172D01*
X73302609Y-91935185D01*
X73390210Y-92066288D01*
X73390213Y-92066292D01*
X73501707Y-92177786D01*
X73501711Y-92177789D01*
X73632814Y-92265390D01*
X73632827Y-92265397D01*
X73778498Y-92325735D01*
X73778503Y-92325737D01*
X73866803Y-92343301D01*
X73933153Y-92356499D01*
X73933156Y-92356500D01*
X73933158Y-92356500D01*
X74090844Y-92356500D01*
X74090845Y-92356499D01*
X74245497Y-92325737D01*
X74391179Y-92265394D01*
X74522289Y-92177789D01*
X74633789Y-92066289D01*
X74721394Y-91935179D01*
X74724139Y-91928553D01*
X75559800Y-91928553D01*
X75559800Y-92086246D01*
X75590561Y-92240889D01*
X75590564Y-92240901D01*
X75650902Y-92386572D01*
X75650909Y-92386585D01*
X75738510Y-92517688D01*
X75738513Y-92517692D01*
X75850007Y-92629186D01*
X75850011Y-92629189D01*
X75981114Y-92716790D01*
X75981127Y-92716797D01*
X76126798Y-92777135D01*
X76126803Y-92777137D01*
X76240506Y-92799754D01*
X76281453Y-92807899D01*
X76281456Y-92807900D01*
X76281458Y-92807900D01*
X76439144Y-92807900D01*
X76439145Y-92807899D01*
X76593797Y-92777137D01*
X76739479Y-92716794D01*
X76870589Y-92629189D01*
X76982089Y-92517689D01*
X77069694Y-92386579D01*
X77125665Y-92251453D01*
X79380000Y-92251453D01*
X79380000Y-92409146D01*
X79410761Y-92563789D01*
X79410764Y-92563801D01*
X79471102Y-92709472D01*
X79471109Y-92709485D01*
X79558710Y-92840588D01*
X79558713Y-92840592D01*
X79670207Y-92952086D01*
X79670211Y-92952089D01*
X79801314Y-93039690D01*
X79801327Y-93039697D01*
X79946998Y-93100035D01*
X79947003Y-93100037D01*
X80101653Y-93130799D01*
X80101656Y-93130800D01*
X80101658Y-93130800D01*
X80259344Y-93130800D01*
X80259345Y-93130799D01*
X80413997Y-93100037D01*
X80559679Y-93039694D01*
X80690789Y-92952089D01*
X80802289Y-92840589D01*
X80889894Y-92709479D01*
X80950237Y-92563797D01*
X80981000Y-92409142D01*
X80981000Y-92251458D01*
X80981000Y-92251455D01*
X80980999Y-92251453D01*
X80966346Y-92177789D01*
X80950237Y-92096803D01*
X80937598Y-92066289D01*
X80889897Y-91951127D01*
X80889890Y-91951114D01*
X80802289Y-91820011D01*
X80802286Y-91820007D01*
X80690792Y-91708513D01*
X80690788Y-91708510D01*
X80559685Y-91620909D01*
X80559672Y-91620902D01*
X80414001Y-91560564D01*
X80413989Y-91560561D01*
X80259345Y-91529800D01*
X80259342Y-91529800D01*
X80101658Y-91529800D01*
X80101655Y-91529800D01*
X79947010Y-91560561D01*
X79946998Y-91560564D01*
X79801327Y-91620902D01*
X79801314Y-91620909D01*
X79670211Y-91708510D01*
X79670207Y-91708513D01*
X79558713Y-91820007D01*
X79558710Y-91820011D01*
X79471109Y-91951114D01*
X79471102Y-91951127D01*
X79410764Y-92096798D01*
X79410761Y-92096810D01*
X79380000Y-92251453D01*
X77125665Y-92251453D01*
X77130037Y-92240897D01*
X77160800Y-92086242D01*
X77160800Y-91928558D01*
X77160800Y-91928555D01*
X77158714Y-91918069D01*
X77164941Y-91848477D01*
X77207804Y-91793300D01*
X77273693Y-91770055D01*
X77341690Y-91786122D01*
X77349223Y-91790776D01*
X77384113Y-91814089D01*
X77384115Y-91814090D01*
X77384121Y-91814094D01*
X77384123Y-91814095D01*
X77384127Y-91814097D01*
X77479471Y-91853589D01*
X77529803Y-91874437D01*
X77684453Y-91905199D01*
X77684456Y-91905200D01*
X77684458Y-91905200D01*
X77842144Y-91905200D01*
X77842145Y-91905199D01*
X77996797Y-91874437D01*
X78142479Y-91814094D01*
X78273589Y-91726489D01*
X78385089Y-91614989D01*
X78472694Y-91483879D01*
X78533037Y-91338197D01*
X78563800Y-91183542D01*
X78563800Y-91025858D01*
X78563800Y-91025855D01*
X78563799Y-91025853D01*
X78548882Y-90950857D01*
X78545281Y-90932753D01*
X80694900Y-90932753D01*
X80694900Y-91090446D01*
X80725661Y-91245089D01*
X80725664Y-91245101D01*
X80786002Y-91390772D01*
X80786009Y-91390785D01*
X80873610Y-91521888D01*
X80873613Y-91521892D01*
X80985107Y-91633386D01*
X80985111Y-91633389D01*
X81116214Y-91720990D01*
X81116227Y-91720997D01*
X81243972Y-91773910D01*
X81261903Y-91781337D01*
X81416553Y-91812099D01*
X81416556Y-91812100D01*
X81416558Y-91812100D01*
X81574244Y-91812100D01*
X81574245Y-91812099D01*
X81728897Y-91781337D01*
X81861320Y-91726486D01*
X81874572Y-91720997D01*
X81874572Y-91720996D01*
X81874579Y-91720994D01*
X82005689Y-91633389D01*
X82117189Y-91521889D01*
X82204794Y-91390779D01*
X82212189Y-91372927D01*
X82243220Y-91298009D01*
X82265137Y-91245097D01*
X82295900Y-91090442D01*
X82295900Y-90932758D01*
X82295900Y-90932755D01*
X82295899Y-90932753D01*
X82272038Y-90812797D01*
X82265137Y-90778103D01*
X82255775Y-90755500D01*
X82204797Y-90632427D01*
X82204790Y-90632414D01*
X82117189Y-90501311D01*
X82117186Y-90501307D01*
X82005692Y-90389813D01*
X82005688Y-90389810D01*
X81874585Y-90302209D01*
X81874572Y-90302202D01*
X81728901Y-90241864D01*
X81728889Y-90241861D01*
X81574245Y-90211100D01*
X81574242Y-90211100D01*
X81416558Y-90211100D01*
X81416555Y-90211100D01*
X81261910Y-90241861D01*
X81261898Y-90241864D01*
X81116227Y-90302202D01*
X81116214Y-90302209D01*
X80985111Y-90389810D01*
X80985107Y-90389813D01*
X80873613Y-90501307D01*
X80873610Y-90501311D01*
X80786009Y-90632414D01*
X80786002Y-90632427D01*
X80725664Y-90778098D01*
X80725661Y-90778110D01*
X80694900Y-90932753D01*
X78545281Y-90932753D01*
X78533038Y-90871208D01*
X78533037Y-90871207D01*
X78533037Y-90871203D01*
X78522847Y-90846602D01*
X78472697Y-90725527D01*
X78472690Y-90725514D01*
X78385089Y-90594411D01*
X78385086Y-90594407D01*
X78273592Y-90482913D01*
X78273588Y-90482910D01*
X78142485Y-90395309D01*
X78142472Y-90395302D01*
X77996801Y-90334964D01*
X77996789Y-90334961D01*
X77842145Y-90304200D01*
X77842142Y-90304200D01*
X77684458Y-90304200D01*
X77684455Y-90304200D01*
X77529810Y-90334961D01*
X77529798Y-90334964D01*
X77384127Y-90395302D01*
X77384114Y-90395309D01*
X77253011Y-90482910D01*
X77253007Y-90482913D01*
X77141513Y-90594407D01*
X77141510Y-90594411D01*
X77053909Y-90725514D01*
X77053902Y-90725527D01*
X76993564Y-90871198D01*
X76993561Y-90871210D01*
X76962800Y-91025853D01*
X76962800Y-91183548D01*
X76964886Y-91194036D01*
X76958656Y-91263627D01*
X76915791Y-91318803D01*
X76849900Y-91342045D01*
X76781904Y-91325974D01*
X76774386Y-91321330D01*
X76739479Y-91298006D01*
X76739472Y-91298002D01*
X76593801Y-91237664D01*
X76593789Y-91237661D01*
X76439145Y-91206900D01*
X76439142Y-91206900D01*
X76281458Y-91206900D01*
X76281455Y-91206900D01*
X76126810Y-91237661D01*
X76126798Y-91237664D01*
X75981127Y-91298002D01*
X75981114Y-91298009D01*
X75850011Y-91385610D01*
X75850007Y-91385613D01*
X75738513Y-91497107D01*
X75738510Y-91497111D01*
X75650909Y-91628214D01*
X75650902Y-91628227D01*
X75590564Y-91773898D01*
X75590561Y-91773910D01*
X75559800Y-91928553D01*
X74724139Y-91928553D01*
X74781737Y-91789497D01*
X74812500Y-91634842D01*
X74812500Y-91477158D01*
X74812500Y-91477155D01*
X74812499Y-91477153D01*
X74801557Y-91422144D01*
X74781737Y-91322503D01*
X74781249Y-91321324D01*
X74721397Y-91176827D01*
X74721390Y-91176814D01*
X74633789Y-91045711D01*
X74633786Y-91045707D01*
X74522292Y-90934213D01*
X74522288Y-90934210D01*
X74391185Y-90846609D01*
X74391172Y-90846602D01*
X74245501Y-90786264D01*
X74245489Y-90786261D01*
X74090845Y-90755500D01*
X74090842Y-90755500D01*
X73933158Y-90755500D01*
X73933155Y-90755500D01*
X73778510Y-90786261D01*
X73778498Y-90786264D01*
X73632827Y-90846602D01*
X73632814Y-90846609D01*
X73501711Y-90934210D01*
X73501707Y-90934213D01*
X73390213Y-91045707D01*
X73390210Y-91045711D01*
X73302609Y-91176814D01*
X73302602Y-91176827D01*
X73242264Y-91322498D01*
X73242261Y-91322510D01*
X73211500Y-91477153D01*
X62414014Y-91477153D01*
X62377097Y-91388027D01*
X62377090Y-91388014D01*
X62289489Y-91256911D01*
X62289486Y-91256907D01*
X62177992Y-91145413D01*
X62177988Y-91145410D01*
X62046885Y-91057809D01*
X62046872Y-91057802D01*
X61901201Y-90997464D01*
X61901189Y-90997461D01*
X61746545Y-90966700D01*
X61746542Y-90966700D01*
X61588858Y-90966700D01*
X61588855Y-90966700D01*
X61434210Y-90997461D01*
X61434198Y-90997464D01*
X61288527Y-91057802D01*
X61288514Y-91057809D01*
X61157411Y-91145410D01*
X61157407Y-91145413D01*
X61045913Y-91256907D01*
X61045910Y-91256911D01*
X60958309Y-91388014D01*
X60958302Y-91388027D01*
X60897964Y-91533698D01*
X60897961Y-91533710D01*
X60867200Y-91688353D01*
X59401830Y-91688353D01*
X59424006Y-91634814D01*
X59448035Y-91576801D01*
X59448037Y-91576797D01*
X59478800Y-91422142D01*
X59478800Y-91264458D01*
X59478800Y-91264455D01*
X59478799Y-91264453D01*
X59462705Y-91183544D01*
X59448037Y-91109803D01*
X59440018Y-91090444D01*
X59387697Y-90964127D01*
X59387690Y-90964114D01*
X59300089Y-90833011D01*
X59300086Y-90833007D01*
X59188592Y-90721513D01*
X59188588Y-90721510D01*
X59057485Y-90633909D01*
X59057472Y-90633902D01*
X58997175Y-90608927D01*
X58911801Y-90573564D01*
X58911789Y-90573561D01*
X58757145Y-90542800D01*
X58757142Y-90542800D01*
X58599458Y-90542800D01*
X58599455Y-90542800D01*
X58444810Y-90573561D01*
X58444798Y-90573564D01*
X58299127Y-90633902D01*
X58299114Y-90633909D01*
X58168011Y-90721510D01*
X58168007Y-90721513D01*
X58056513Y-90833007D01*
X58056510Y-90833011D01*
X57968909Y-90964114D01*
X57968902Y-90964127D01*
X57908564Y-91109798D01*
X57908561Y-91109810D01*
X57877800Y-91264453D01*
X44000500Y-91264453D01*
X44000500Y-90500453D01*
X70858900Y-90500453D01*
X70858900Y-90658146D01*
X70889661Y-90812789D01*
X70889664Y-90812801D01*
X70950002Y-90958472D01*
X70950009Y-90958485D01*
X71037610Y-91089588D01*
X71037613Y-91089592D01*
X71149107Y-91201086D01*
X71149111Y-91201089D01*
X71280214Y-91288690D01*
X71280227Y-91288697D01*
X71425898Y-91349035D01*
X71425903Y-91349037D01*
X71580553Y-91379799D01*
X71580556Y-91379800D01*
X71580558Y-91379800D01*
X71738244Y-91379800D01*
X71890816Y-91349451D01*
X71890817Y-91349450D01*
X71892897Y-91349037D01*
X72005566Y-91302367D01*
X72038572Y-91288697D01*
X72038572Y-91288696D01*
X72038579Y-91288694D01*
X72169689Y-91201089D01*
X72281189Y-91089589D01*
X72368794Y-90958479D01*
X72429137Y-90812797D01*
X72459900Y-90658142D01*
X72459900Y-90500458D01*
X72459900Y-90500455D01*
X72459899Y-90500453D01*
X72437891Y-90389811D01*
X72429137Y-90345803D01*
X72411077Y-90302202D01*
X72368797Y-90200127D01*
X72368790Y-90200114D01*
X72281189Y-90069011D01*
X72281186Y-90069007D01*
X72169692Y-89957513D01*
X72169688Y-89957510D01*
X72038585Y-89869909D01*
X72038572Y-89869902D01*
X71892901Y-89809564D01*
X71892889Y-89809561D01*
X71738245Y-89778800D01*
X71738242Y-89778800D01*
X71580558Y-89778800D01*
X71580555Y-89778800D01*
X71425910Y-89809561D01*
X71425898Y-89809564D01*
X71280227Y-89869902D01*
X71280214Y-89869909D01*
X71149111Y-89957510D01*
X71149107Y-89957513D01*
X71037613Y-90069007D01*
X71037610Y-90069011D01*
X70950009Y-90200114D01*
X70950002Y-90200127D01*
X70889664Y-90345798D01*
X70889661Y-90345810D01*
X70858900Y-90500453D01*
X44000500Y-90500453D01*
X44000500Y-89175353D01*
X59771800Y-89175353D01*
X59771800Y-89333046D01*
X59802561Y-89487689D01*
X59802564Y-89487701D01*
X59862902Y-89633372D01*
X59862909Y-89633385D01*
X59950510Y-89764488D01*
X59950513Y-89764492D01*
X60062007Y-89875986D01*
X60062011Y-89875989D01*
X60193114Y-89963590D01*
X60193127Y-89963597D01*
X60338798Y-90023935D01*
X60338803Y-90023937D01*
X60493453Y-90054699D01*
X60493456Y-90054700D01*
X60493458Y-90054700D01*
X60651144Y-90054700D01*
X60651145Y-90054699D01*
X60805797Y-90023937D01*
X60951479Y-89963594D01*
X61082589Y-89875989D01*
X61194089Y-89764489D01*
X61252162Y-89677577D01*
X105775975Y-89677577D01*
X105881236Y-89721178D01*
X105881240Y-89721179D01*
X106026126Y-89749999D01*
X106026129Y-89750000D01*
X106173871Y-89750000D01*
X106173873Y-89749999D01*
X106318760Y-89721179D01*
X106318775Y-89721175D01*
X106424024Y-89677578D01*
X106424024Y-89677577D01*
X107175975Y-89677577D01*
X107281236Y-89721178D01*
X107281240Y-89721179D01*
X107426126Y-89749999D01*
X107426129Y-89750000D01*
X107573871Y-89750000D01*
X107573873Y-89749999D01*
X107718760Y-89721179D01*
X107718775Y-89721175D01*
X107824024Y-89677578D01*
X107824024Y-89677577D01*
X107500001Y-89353554D01*
X107500000Y-89353554D01*
X107175975Y-89677577D01*
X106424024Y-89677577D01*
X106100001Y-89353554D01*
X106100000Y-89353554D01*
X105775975Y-89677577D01*
X61252162Y-89677577D01*
X61281694Y-89633379D01*
X61281697Y-89633372D01*
X61299948Y-89589311D01*
X61342035Y-89487701D01*
X61342037Y-89487697D01*
X61372800Y-89333042D01*
X61372800Y-89175358D01*
X61372800Y-89175355D01*
X61372799Y-89175353D01*
X61342038Y-89020710D01*
X61342037Y-89020703D01*
X61306542Y-88935010D01*
X61302862Y-88926126D01*
X105350000Y-88926126D01*
X105350000Y-89073873D01*
X105378820Y-89218759D01*
X105378822Y-89218767D01*
X105422421Y-89324024D01*
X105746446Y-89000000D01*
X105746446Y-88999999D01*
X105726556Y-88980109D01*
X106000000Y-88980109D01*
X106000000Y-89019891D01*
X106015224Y-89056645D01*
X106043355Y-89084776D01*
X106080109Y-89100000D01*
X106119891Y-89100000D01*
X106156645Y-89084776D01*
X106184776Y-89056645D01*
X106200000Y-89019891D01*
X106200000Y-88999999D01*
X106453554Y-88999999D01*
X106453554Y-89000001D01*
X106777929Y-89324376D01*
X106822069Y-89324376D01*
X107146446Y-89000000D01*
X107126555Y-88980109D01*
X107400000Y-88980109D01*
X107400000Y-89019891D01*
X107415224Y-89056645D01*
X107443355Y-89084776D01*
X107480109Y-89100000D01*
X107519891Y-89100000D01*
X107556645Y-89084776D01*
X107584776Y-89056645D01*
X107600000Y-89019891D01*
X107600000Y-88999999D01*
X107853554Y-88999999D01*
X107853554Y-89000001D01*
X108177577Y-89324024D01*
X108177578Y-89324024D01*
X108221175Y-89218775D01*
X108221179Y-89218760D01*
X108246860Y-89089653D01*
X113023000Y-89089653D01*
X113023000Y-89247346D01*
X113053761Y-89401989D01*
X113053764Y-89402001D01*
X113114102Y-89547672D01*
X113114109Y-89547685D01*
X113201710Y-89678788D01*
X113201713Y-89678792D01*
X113313207Y-89790286D01*
X113313211Y-89790289D01*
X113444314Y-89877890D01*
X113444327Y-89877897D01*
X113589998Y-89938235D01*
X113590003Y-89938237D01*
X113744653Y-89968999D01*
X113744656Y-89969000D01*
X113744658Y-89969000D01*
X113902344Y-89969000D01*
X113902345Y-89968999D01*
X114056997Y-89938237D01*
X114202679Y-89877894D01*
X114333789Y-89790289D01*
X114445289Y-89678789D01*
X114532894Y-89547679D01*
X114593237Y-89401997D01*
X114624000Y-89247342D01*
X114624000Y-89089658D01*
X114624000Y-89089655D01*
X114623999Y-89089653D01*
X114606166Y-89000000D01*
X114593237Y-88935003D01*
X114585044Y-88915224D01*
X114532897Y-88789327D01*
X114532890Y-88789314D01*
X114445289Y-88658211D01*
X114445286Y-88658207D01*
X114333792Y-88546713D01*
X114333788Y-88546710D01*
X114202685Y-88459109D01*
X114202672Y-88459102D01*
X114057001Y-88398764D01*
X114056989Y-88398761D01*
X113902345Y-88368000D01*
X113902342Y-88368000D01*
X113744658Y-88368000D01*
X113744655Y-88368000D01*
X113590010Y-88398761D01*
X113589998Y-88398764D01*
X113444327Y-88459102D01*
X113444314Y-88459109D01*
X113313211Y-88546710D01*
X113313207Y-88546713D01*
X113201713Y-88658207D01*
X113201710Y-88658211D01*
X113114109Y-88789314D01*
X113114102Y-88789327D01*
X113053764Y-88934998D01*
X113053761Y-88935010D01*
X113023000Y-89089653D01*
X108246860Y-89089653D01*
X108249999Y-89073873D01*
X108250000Y-89073871D01*
X108250000Y-88926128D01*
X108249999Y-88926126D01*
X108221179Y-88781240D01*
X108221178Y-88781236D01*
X108177577Y-88675975D01*
X107853554Y-88999999D01*
X107600000Y-88999999D01*
X107600000Y-88980109D01*
X107584776Y-88943355D01*
X107556645Y-88915224D01*
X107519891Y-88900000D01*
X107480109Y-88900000D01*
X107443355Y-88915224D01*
X107415224Y-88943355D01*
X107400000Y-88980109D01*
X107126555Y-88980109D01*
X106822068Y-88675622D01*
X106777930Y-88675622D01*
X106453554Y-88999999D01*
X106200000Y-88999999D01*
X106200000Y-88980109D01*
X106184776Y-88943355D01*
X106156645Y-88915224D01*
X106119891Y-88900000D01*
X106080109Y-88900000D01*
X106043355Y-88915224D01*
X106015224Y-88943355D01*
X106000000Y-88980109D01*
X105726556Y-88980109D01*
X105422421Y-88675974D01*
X105422420Y-88675974D01*
X105378823Y-88781228D01*
X105378820Y-88781240D01*
X105350000Y-88926126D01*
X61302862Y-88926126D01*
X61281697Y-88875027D01*
X61281690Y-88875014D01*
X61194089Y-88743911D01*
X61194086Y-88743907D01*
X61082592Y-88632413D01*
X61082588Y-88632410D01*
X60951485Y-88544809D01*
X60951472Y-88544802D01*
X60805801Y-88484464D01*
X60805789Y-88484461D01*
X60651145Y-88453700D01*
X60651142Y-88453700D01*
X60493458Y-88453700D01*
X60493455Y-88453700D01*
X60338810Y-88484461D01*
X60338798Y-88484464D01*
X60193127Y-88544802D01*
X60193114Y-88544809D01*
X60062011Y-88632410D01*
X60062007Y-88632413D01*
X59950513Y-88743907D01*
X59950510Y-88743911D01*
X59862909Y-88875014D01*
X59862902Y-88875027D01*
X59802564Y-89020698D01*
X59802561Y-89020710D01*
X59771800Y-89175353D01*
X44000500Y-89175353D01*
X44000500Y-87660753D01*
X51747300Y-87660753D01*
X51747300Y-87818446D01*
X51778061Y-87973089D01*
X51778064Y-87973101D01*
X51838402Y-88118772D01*
X51838409Y-88118785D01*
X51926010Y-88249888D01*
X51926013Y-88249892D01*
X52037507Y-88361386D01*
X52037511Y-88361389D01*
X52168614Y-88448990D01*
X52168627Y-88448997D01*
X52314298Y-88509335D01*
X52314303Y-88509337D01*
X52468953Y-88540099D01*
X52468956Y-88540100D01*
X52468958Y-88540100D01*
X52626644Y-88540100D01*
X52626645Y-88540099D01*
X52781297Y-88509337D01*
X52926979Y-88448994D01*
X53058089Y-88361389D01*
X53169589Y-88249889D01*
X53257194Y-88118779D01*
X53317537Y-87973097D01*
X53348300Y-87818442D01*
X53348300Y-87660758D01*
X53348300Y-87660755D01*
X53348299Y-87660753D01*
X53340356Y-87620821D01*
X53317537Y-87506103D01*
X53305057Y-87475974D01*
X53257197Y-87360427D01*
X53257190Y-87360414D01*
X53169589Y-87229311D01*
X53169586Y-87229307D01*
X53076232Y-87135953D01*
X70497300Y-87135953D01*
X70497300Y-87293646D01*
X70528061Y-87448289D01*
X70528064Y-87448301D01*
X70588402Y-87593972D01*
X70588409Y-87593985D01*
X70676010Y-87725088D01*
X70676013Y-87725092D01*
X70787507Y-87836586D01*
X70787511Y-87836589D01*
X70918614Y-87924190D01*
X70918627Y-87924197D01*
X71064298Y-87984535D01*
X71064303Y-87984537D01*
X71218953Y-88015299D01*
X71218956Y-88015300D01*
X71218958Y-88015300D01*
X71376644Y-88015300D01*
X71376645Y-88015299D01*
X71531297Y-87984537D01*
X71676979Y-87924194D01*
X71681530Y-87921153D01*
X101028400Y-87921153D01*
X101028400Y-88078846D01*
X101059161Y-88233489D01*
X101059164Y-88233501D01*
X101119502Y-88379172D01*
X101119509Y-88379185D01*
X101207110Y-88510288D01*
X101207113Y-88510292D01*
X101318607Y-88621786D01*
X101318611Y-88621789D01*
X101449714Y-88709390D01*
X101449727Y-88709397D01*
X101595398Y-88769735D01*
X101595403Y-88769737D01*
X101739606Y-88798421D01*
X101750053Y-88800499D01*
X101750056Y-88800500D01*
X101750058Y-88800500D01*
X101907744Y-88800500D01*
X101918191Y-88798422D01*
X101918191Y-88798421D01*
X102062397Y-88769737D01*
X102208079Y-88709394D01*
X102339189Y-88621789D01*
X102450689Y-88510289D01*
X102524382Y-88400000D01*
X105853554Y-88400000D01*
X106100000Y-88646446D01*
X106346446Y-88400000D01*
X107253554Y-88400000D01*
X107500000Y-88646446D01*
X107746446Y-88400000D01*
X107500000Y-88153554D01*
X107253554Y-88400000D01*
X106346446Y-88400000D01*
X106100000Y-88153554D01*
X105853554Y-88400000D01*
X102524382Y-88400000D01*
X102538294Y-88379179D01*
X102538297Y-88379172D01*
X102570600Y-88301186D01*
X102598635Y-88233501D01*
X102598637Y-88233497D01*
X102629400Y-88078842D01*
X102629400Y-87921158D01*
X102629400Y-87921155D01*
X102629399Y-87921153D01*
X102610747Y-87827385D01*
X102598637Y-87766503D01*
X102581912Y-87726126D01*
X105350000Y-87726126D01*
X105350000Y-87873873D01*
X105378820Y-88018759D01*
X105378822Y-88018767D01*
X105422421Y-88124024D01*
X105746446Y-87800000D01*
X105746446Y-87799999D01*
X105726556Y-87780109D01*
X106000000Y-87780109D01*
X106000000Y-87819891D01*
X106015224Y-87856645D01*
X106043355Y-87884776D01*
X106080109Y-87900000D01*
X106119891Y-87900000D01*
X106156645Y-87884776D01*
X106184776Y-87856645D01*
X106200000Y-87819891D01*
X106200000Y-87799999D01*
X106453554Y-87799999D01*
X106453554Y-87800001D01*
X106777929Y-88124376D01*
X106822069Y-88124376D01*
X107146446Y-87800000D01*
X107126555Y-87780109D01*
X107400000Y-87780109D01*
X107400000Y-87819891D01*
X107415224Y-87856645D01*
X107443355Y-87884776D01*
X107480109Y-87900000D01*
X107519891Y-87900000D01*
X107556645Y-87884776D01*
X107584776Y-87856645D01*
X107600000Y-87819891D01*
X107600000Y-87799999D01*
X107853554Y-87799999D01*
X107853554Y-87800001D01*
X108177577Y-88124024D01*
X108177578Y-88124024D01*
X108221175Y-88018775D01*
X108221179Y-88018760D01*
X108249999Y-87873873D01*
X108250000Y-87873871D01*
X108250000Y-87726128D01*
X108249999Y-87726126D01*
X108221179Y-87581240D01*
X108221178Y-87581236D01*
X108177577Y-87475975D01*
X107853554Y-87799999D01*
X107600000Y-87799999D01*
X107600000Y-87780109D01*
X107584776Y-87743355D01*
X107556645Y-87715224D01*
X107519891Y-87700000D01*
X107480109Y-87700000D01*
X107443355Y-87715224D01*
X107415224Y-87743355D01*
X107400000Y-87780109D01*
X107126555Y-87780109D01*
X106822068Y-87475622D01*
X106777930Y-87475622D01*
X106453554Y-87799999D01*
X106200000Y-87799999D01*
X106200000Y-87780109D01*
X106184776Y-87743355D01*
X106156645Y-87715224D01*
X106119891Y-87700000D01*
X106080109Y-87700000D01*
X106043355Y-87715224D01*
X106015224Y-87743355D01*
X106000000Y-87780109D01*
X105726556Y-87780109D01*
X105422421Y-87475974D01*
X105422420Y-87475974D01*
X105378823Y-87581228D01*
X105378820Y-87581240D01*
X105350000Y-87726126D01*
X102581912Y-87726126D01*
X102566518Y-87688961D01*
X102538297Y-87620827D01*
X102538290Y-87620814D01*
X102450689Y-87489711D01*
X102450686Y-87489707D01*
X102339192Y-87378213D01*
X102339188Y-87378210D01*
X102208085Y-87290609D01*
X102208072Y-87290602D01*
X102141913Y-87263199D01*
X102062401Y-87230264D01*
X102062389Y-87230261D01*
X101910259Y-87200000D01*
X105853554Y-87200000D01*
X106100000Y-87446446D01*
X106346446Y-87200000D01*
X107253554Y-87200000D01*
X107500000Y-87446446D01*
X107746446Y-87200000D01*
X107500000Y-86953554D01*
X107253554Y-87200000D01*
X106346446Y-87200000D01*
X106100000Y-86953554D01*
X105853554Y-87200000D01*
X101910259Y-87200000D01*
X101907745Y-87199500D01*
X101907742Y-87199500D01*
X101750058Y-87199500D01*
X101750055Y-87199500D01*
X101595410Y-87230261D01*
X101595398Y-87230264D01*
X101449727Y-87290602D01*
X101449714Y-87290609D01*
X101318611Y-87378210D01*
X101318607Y-87378213D01*
X101207113Y-87489707D01*
X101207110Y-87489711D01*
X101119509Y-87620814D01*
X101119502Y-87620827D01*
X101059164Y-87766498D01*
X101059161Y-87766510D01*
X101028400Y-87921153D01*
X71681530Y-87921153D01*
X71808089Y-87836589D01*
X71808092Y-87836586D01*
X71817294Y-87827385D01*
X71919586Y-87725092D01*
X71919589Y-87725089D01*
X72007194Y-87593979D01*
X72067537Y-87448297D01*
X72098300Y-87293642D01*
X72098300Y-87135958D01*
X72098300Y-87135955D01*
X72098299Y-87135953D01*
X72077264Y-87030206D01*
X72067537Y-86981303D01*
X72062799Y-86969864D01*
X72007197Y-86835627D01*
X72007190Y-86835614D01*
X71931849Y-86722859D01*
X71931848Y-86722858D01*
X71919586Y-86704507D01*
X71875132Y-86660053D01*
X75950900Y-86660053D01*
X75950900Y-86817746D01*
X75981661Y-86972389D01*
X75981664Y-86972401D01*
X76042002Y-87118072D01*
X76042009Y-87118085D01*
X76129610Y-87249188D01*
X76129613Y-87249192D01*
X76241107Y-87360686D01*
X76241111Y-87360689D01*
X76372214Y-87448290D01*
X76372227Y-87448297D01*
X76472211Y-87489711D01*
X76517903Y-87508637D01*
X76672553Y-87539399D01*
X76672556Y-87539400D01*
X76672558Y-87539400D01*
X76830244Y-87539400D01*
X76830245Y-87539399D01*
X76984897Y-87508637D01*
X77130579Y-87448294D01*
X77261689Y-87360689D01*
X77373189Y-87249189D01*
X77460794Y-87118079D01*
X77460906Y-87117810D01*
X77497192Y-87030206D01*
X77521137Y-86972397D01*
X77551900Y-86817742D01*
X77551900Y-86660058D01*
X77551900Y-86660055D01*
X77551899Y-86660053D01*
X77543910Y-86619891D01*
X77521137Y-86505403D01*
X77486047Y-86420688D01*
X77460797Y-86359727D01*
X77460790Y-86359714D01*
X77373189Y-86228611D01*
X77373186Y-86228607D01*
X77261692Y-86117113D01*
X77261688Y-86117110D01*
X77130585Y-86029509D01*
X77130572Y-86029502D01*
X76984901Y-85969164D01*
X76984889Y-85969161D01*
X76830245Y-85938400D01*
X76830242Y-85938400D01*
X76672558Y-85938400D01*
X76672555Y-85938400D01*
X76517910Y-85969161D01*
X76517898Y-85969164D01*
X76372227Y-86029502D01*
X76372214Y-86029509D01*
X76241111Y-86117110D01*
X76241107Y-86117113D01*
X76129613Y-86228607D01*
X76129610Y-86228611D01*
X76042009Y-86359714D01*
X76042002Y-86359727D01*
X75981664Y-86505398D01*
X75981661Y-86505410D01*
X75950900Y-86660053D01*
X71875132Y-86660053D01*
X71808092Y-86593013D01*
X71808088Y-86593010D01*
X71676985Y-86505409D01*
X71676972Y-86505402D01*
X71531301Y-86445064D01*
X71531289Y-86445061D01*
X71376645Y-86414300D01*
X71376642Y-86414300D01*
X71218958Y-86414300D01*
X71218955Y-86414300D01*
X71064310Y-86445061D01*
X71064298Y-86445064D01*
X70918627Y-86505402D01*
X70918614Y-86505409D01*
X70787511Y-86593010D01*
X70787507Y-86593013D01*
X70676013Y-86704507D01*
X70676010Y-86704511D01*
X70588409Y-86835614D01*
X70588402Y-86835627D01*
X70528064Y-86981298D01*
X70528061Y-86981310D01*
X70497300Y-87135953D01*
X53076232Y-87135953D01*
X53058092Y-87117813D01*
X53058088Y-87117810D01*
X52926985Y-87030209D01*
X52926972Y-87030202D01*
X52781301Y-86969864D01*
X52781289Y-86969861D01*
X52626645Y-86939100D01*
X52626642Y-86939100D01*
X52468958Y-86939100D01*
X52468955Y-86939100D01*
X52314310Y-86969861D01*
X52314298Y-86969864D01*
X52168627Y-87030202D01*
X52168614Y-87030209D01*
X52037511Y-87117810D01*
X52037507Y-87117813D01*
X51926013Y-87229307D01*
X51926010Y-87229311D01*
X51838409Y-87360414D01*
X51838402Y-87360427D01*
X51778064Y-87506098D01*
X51778061Y-87506110D01*
X51747300Y-87660753D01*
X44000500Y-87660753D01*
X44000500Y-85831553D01*
X52788500Y-85831553D01*
X52788500Y-85989246D01*
X52819261Y-86143889D01*
X52819264Y-86143901D01*
X52879602Y-86289572D01*
X52879609Y-86289585D01*
X52967210Y-86420688D01*
X52967213Y-86420692D01*
X53078707Y-86532186D01*
X53078711Y-86532189D01*
X53209814Y-86619790D01*
X53209827Y-86619797D01*
X53340375Y-86673871D01*
X53355503Y-86680137D01*
X53478039Y-86704511D01*
X53510153Y-86710899D01*
X53510156Y-86710900D01*
X53510158Y-86710900D01*
X53667844Y-86710900D01*
X53667845Y-86710899D01*
X53822497Y-86680137D01*
X53954162Y-86625600D01*
X53968172Y-86619797D01*
X53968172Y-86619796D01*
X53968179Y-86619794D01*
X54099289Y-86532189D01*
X54210789Y-86420689D01*
X54298394Y-86289579D01*
X54358737Y-86143897D01*
X54389500Y-85989242D01*
X54389500Y-85831558D01*
X54389500Y-85831555D01*
X54389499Y-85831553D01*
X54379799Y-85782790D01*
X54358737Y-85676903D01*
X54320127Y-85583689D01*
X54298397Y-85531227D01*
X54298390Y-85531214D01*
X54210789Y-85400111D01*
X54210786Y-85400107D01*
X54099292Y-85288613D01*
X54099288Y-85288610D01*
X53968185Y-85201009D01*
X53968172Y-85201002D01*
X53822501Y-85140664D01*
X53822489Y-85140661D01*
X53667845Y-85109900D01*
X53667842Y-85109900D01*
X53510158Y-85109900D01*
X53510155Y-85109900D01*
X53355510Y-85140661D01*
X53355498Y-85140664D01*
X53209827Y-85201002D01*
X53209814Y-85201009D01*
X53078711Y-85288610D01*
X53078707Y-85288613D01*
X52967213Y-85400107D01*
X52967210Y-85400111D01*
X52879609Y-85531214D01*
X52879602Y-85531227D01*
X52819264Y-85676898D01*
X52819261Y-85676910D01*
X52788500Y-85831553D01*
X44000500Y-85831553D01*
X44000500Y-84994553D01*
X69200900Y-84994553D01*
X69200900Y-85152246D01*
X69231661Y-85306889D01*
X69231664Y-85306901D01*
X69292002Y-85452572D01*
X69292009Y-85452585D01*
X69379610Y-85583688D01*
X69379613Y-85583692D01*
X69491107Y-85695186D01*
X69491111Y-85695189D01*
X69622214Y-85782790D01*
X69622227Y-85782797D01*
X69767898Y-85843135D01*
X69767903Y-85843137D01*
X69922553Y-85873899D01*
X69922556Y-85873900D01*
X69922558Y-85873900D01*
X70080244Y-85873900D01*
X70080245Y-85873899D01*
X70234897Y-85843137D01*
X70380579Y-85782794D01*
X70511689Y-85695189D01*
X70623189Y-85583689D01*
X70710794Y-85452579D01*
X70771137Y-85306897D01*
X70801900Y-85152242D01*
X70801900Y-84994558D01*
X70796850Y-84969171D01*
X70803076Y-84899581D01*
X70845938Y-84844403D01*
X70911827Y-84821157D01*
X70979825Y-84837224D01*
X70987358Y-84841877D01*
X71081214Y-84904590D01*
X71081227Y-84904597D01*
X71208313Y-84957237D01*
X71226903Y-84964937D01*
X71342843Y-84987999D01*
X71381553Y-84995699D01*
X71381556Y-84995700D01*
X71381558Y-84995700D01*
X71539244Y-84995700D01*
X71539245Y-84995699D01*
X71693897Y-84964937D01*
X71839579Y-84904594D01*
X71970689Y-84816989D01*
X72082189Y-84705489D01*
X72169794Y-84574379D01*
X72230137Y-84428697D01*
X72239593Y-84381158D01*
X72243338Y-84362332D01*
X82499500Y-84362332D01*
X82499500Y-84637667D01*
X82499501Y-84637684D01*
X82535438Y-84910655D01*
X82535439Y-84910660D01*
X82535440Y-84910666D01*
X82558225Y-84995700D01*
X82606704Y-85176630D01*
X82712075Y-85431017D01*
X82712080Y-85431028D01*
X82769931Y-85531227D01*
X82849751Y-85669479D01*
X82849753Y-85669482D01*
X82849754Y-85669483D01*
X83017370Y-85887926D01*
X83017376Y-85887933D01*
X83212066Y-86082623D01*
X83212072Y-86082628D01*
X83430521Y-86250249D01*
X83577986Y-86335388D01*
X83668971Y-86387919D01*
X83668976Y-86387921D01*
X83668979Y-86387923D01*
X83923368Y-86493295D01*
X84189334Y-86564560D01*
X84462326Y-86600500D01*
X84462333Y-86600500D01*
X84737667Y-86600500D01*
X84737674Y-86600500D01*
X85010666Y-86564560D01*
X85276632Y-86493295D01*
X85531021Y-86387923D01*
X85769479Y-86250249D01*
X85987928Y-86082628D01*
X86182628Y-85887928D01*
X86291339Y-85746253D01*
X99171300Y-85746253D01*
X99171300Y-85903946D01*
X99202061Y-86058589D01*
X99202064Y-86058601D01*
X99262402Y-86204272D01*
X99262409Y-86204285D01*
X99350010Y-86335388D01*
X99350013Y-86335392D01*
X99461507Y-86446886D01*
X99461511Y-86446889D01*
X99592614Y-86534490D01*
X99592627Y-86534497D01*
X99733899Y-86593013D01*
X99738303Y-86594837D01*
X99892953Y-86625599D01*
X99892956Y-86625600D01*
X99892958Y-86625600D01*
X100050644Y-86625600D01*
X100050645Y-86625599D01*
X100205297Y-86594837D01*
X100317966Y-86548167D01*
X100350972Y-86534497D01*
X100350972Y-86534496D01*
X100350979Y-86534494D01*
X100363503Y-86526126D01*
X105350000Y-86526126D01*
X105350000Y-86673873D01*
X105378820Y-86818759D01*
X105378822Y-86818767D01*
X105422421Y-86924024D01*
X105746446Y-86600000D01*
X105746446Y-86599999D01*
X105726556Y-86580109D01*
X106000000Y-86580109D01*
X106000000Y-86619891D01*
X106015224Y-86656645D01*
X106043355Y-86684776D01*
X106080109Y-86700000D01*
X106119891Y-86700000D01*
X106156645Y-86684776D01*
X106184776Y-86656645D01*
X106200000Y-86619891D01*
X106200000Y-86599999D01*
X106453554Y-86599999D01*
X106453554Y-86600001D01*
X106777929Y-86924376D01*
X106822069Y-86924376D01*
X107146446Y-86600000D01*
X107126555Y-86580109D01*
X107400000Y-86580109D01*
X107400000Y-86619891D01*
X107415224Y-86656645D01*
X107443355Y-86684776D01*
X107480109Y-86700000D01*
X107519891Y-86700000D01*
X107556645Y-86684776D01*
X107584776Y-86656645D01*
X107600000Y-86619891D01*
X107600000Y-86599999D01*
X107853554Y-86599999D01*
X107853554Y-86600001D01*
X108177577Y-86924024D01*
X108177578Y-86924024D01*
X108221175Y-86818775D01*
X108221179Y-86818760D01*
X108249999Y-86673873D01*
X108250000Y-86673871D01*
X108250000Y-86526128D01*
X108249999Y-86526126D01*
X108221179Y-86381240D01*
X108221178Y-86381236D01*
X108177577Y-86275975D01*
X107853554Y-86599999D01*
X107600000Y-86599999D01*
X107600000Y-86580109D01*
X107584776Y-86543355D01*
X107556645Y-86515224D01*
X107519891Y-86500000D01*
X107480109Y-86500000D01*
X107443355Y-86515224D01*
X107415224Y-86543355D01*
X107400000Y-86580109D01*
X107126555Y-86580109D01*
X106822068Y-86275622D01*
X106777930Y-86275622D01*
X106453554Y-86599999D01*
X106200000Y-86599999D01*
X106200000Y-86580109D01*
X106184776Y-86543355D01*
X106156645Y-86515224D01*
X106119891Y-86500000D01*
X106080109Y-86500000D01*
X106043355Y-86515224D01*
X106015224Y-86543355D01*
X106000000Y-86580109D01*
X105726556Y-86580109D01*
X105422421Y-86275974D01*
X105422420Y-86275974D01*
X105378823Y-86381228D01*
X105378820Y-86381240D01*
X105350000Y-86526126D01*
X100363503Y-86526126D01*
X100482089Y-86446889D01*
X100483917Y-86445061D01*
X100496621Y-86432358D01*
X100593586Y-86335392D01*
X100593589Y-86335389D01*
X100681194Y-86204279D01*
X100741537Y-86058597D01*
X100755333Y-85989242D01*
X100765318Y-85939045D01*
X100765318Y-85939044D01*
X100768625Y-85922420D01*
X105775974Y-85922420D01*
X105775974Y-85922421D01*
X106100000Y-86246446D01*
X106100001Y-86246446D01*
X106424024Y-85922421D01*
X106424022Y-85922420D01*
X107175974Y-85922420D01*
X107175974Y-85922421D01*
X107500000Y-86246446D01*
X107500001Y-86246446D01*
X107824024Y-85922421D01*
X107718767Y-85878822D01*
X107718759Y-85878820D01*
X107573872Y-85850000D01*
X107426128Y-85850000D01*
X107281240Y-85878820D01*
X107281228Y-85878823D01*
X107175974Y-85922420D01*
X106424022Y-85922420D01*
X106318767Y-85878822D01*
X106318759Y-85878820D01*
X106173872Y-85850000D01*
X106026128Y-85850000D01*
X105881240Y-85878820D01*
X105881228Y-85878823D01*
X105775974Y-85922420D01*
X100768625Y-85922420D01*
X100772300Y-85903944D01*
X100772300Y-85746255D01*
X100772299Y-85746253D01*
X100757028Y-85669483D01*
X100741537Y-85591603D01*
X100732225Y-85569121D01*
X100681197Y-85445927D01*
X100681190Y-85445914D01*
X100593589Y-85314811D01*
X100593586Y-85314807D01*
X100482092Y-85203313D01*
X100482088Y-85203310D01*
X100350985Y-85115709D01*
X100350972Y-85115702D01*
X100205301Y-85055364D01*
X100205289Y-85055361D01*
X100050645Y-85024600D01*
X100050642Y-85024600D01*
X99892958Y-85024600D01*
X99892955Y-85024600D01*
X99738310Y-85055361D01*
X99738298Y-85055364D01*
X99592627Y-85115702D01*
X99592614Y-85115709D01*
X99461511Y-85203310D01*
X99461507Y-85203313D01*
X99350013Y-85314807D01*
X99350010Y-85314811D01*
X99262409Y-85445914D01*
X99262402Y-85445927D01*
X99202064Y-85591598D01*
X99202061Y-85591610D01*
X99171300Y-85746253D01*
X86291339Y-85746253D01*
X86350249Y-85669479D01*
X86487923Y-85431021D01*
X86593295Y-85176632D01*
X86664560Y-84910666D01*
X86700500Y-84637674D01*
X86700500Y-84362326D01*
X86664560Y-84089334D01*
X86593295Y-83823368D01*
X86487923Y-83568979D01*
X86487921Y-83568976D01*
X86487919Y-83568971D01*
X86430707Y-83469878D01*
X86350249Y-83330521D01*
X86256323Y-83208114D01*
X86182629Y-83112073D01*
X86182623Y-83112066D01*
X85987933Y-82917376D01*
X85987926Y-82917370D01*
X85855611Y-82815842D01*
X85769483Y-82749754D01*
X85769482Y-82749753D01*
X85769479Y-82749751D01*
X85724103Y-82723553D01*
X87561700Y-82723553D01*
X87561700Y-82881246D01*
X87592461Y-83035889D01*
X87592464Y-83035901D01*
X87652802Y-83181572D01*
X87652809Y-83181585D01*
X87740410Y-83312688D01*
X87740413Y-83312692D01*
X87851907Y-83424186D01*
X87851911Y-83424189D01*
X87983014Y-83511790D01*
X87983027Y-83511797D01*
X88121079Y-83568979D01*
X88128703Y-83572137D01*
X88255497Y-83597358D01*
X88283353Y-83602899D01*
X88283356Y-83602900D01*
X88283358Y-83602900D01*
X88441044Y-83602900D01*
X88441045Y-83602899D01*
X88595697Y-83572137D01*
X88741379Y-83511794D01*
X88872489Y-83424189D01*
X88983989Y-83312689D01*
X89071594Y-83181579D01*
X89131937Y-83035897D01*
X89162700Y-82881242D01*
X89162700Y-82723558D01*
X89162700Y-82723555D01*
X89162699Y-82723553D01*
X89151571Y-82667611D01*
X89131937Y-82568903D01*
X89126639Y-82556113D01*
X89071597Y-82423227D01*
X89071590Y-82423214D01*
X88983989Y-82292111D01*
X88983986Y-82292107D01*
X88872497Y-82180618D01*
X88872491Y-82180613D01*
X88872489Y-82180611D01*
X88871314Y-82179826D01*
X88741385Y-82093009D01*
X88741372Y-82093002D01*
X88730235Y-82088389D01*
X94599500Y-82088389D01*
X94599500Y-82811610D01*
X94623875Y-82965513D01*
X94626598Y-82982701D01*
X94677544Y-83139496D01*
X94680128Y-83147447D01*
X94716120Y-83218085D01*
X94758768Y-83301788D01*
X94860586Y-83441928D01*
X94983072Y-83564414D01*
X95123212Y-83666232D01*
X95277555Y-83744873D01*
X95442299Y-83798402D01*
X95613389Y-83825500D01*
X95613390Y-83825500D01*
X95786610Y-83825500D01*
X95786611Y-83825500D01*
X95957701Y-83798402D01*
X96122445Y-83744873D01*
X96276788Y-83666232D01*
X96416928Y-83564414D01*
X96524836Y-83456505D01*
X96586155Y-83423023D01*
X96655847Y-83428007D01*
X96711781Y-83469878D01*
X96718053Y-83479093D01*
X96757682Y-83543343D01*
X96881654Y-83667315D01*
X97030875Y-83759356D01*
X97030880Y-83759358D01*
X97197302Y-83814505D01*
X97197309Y-83814506D01*
X97300019Y-83824999D01*
X97449999Y-83824999D01*
X97450000Y-83824998D01*
X97450000Y-82730330D01*
X97469745Y-82750075D01*
X97555255Y-82799444D01*
X97650630Y-82825000D01*
X97749370Y-82825000D01*
X97844745Y-82799444D01*
X97930255Y-82750075D01*
X97950000Y-82730330D01*
X97950000Y-83824999D01*
X98099972Y-83824999D01*
X98099986Y-83824998D01*
X98202697Y-83814505D01*
X98369119Y-83759358D01*
X98369124Y-83759356D01*
X98518345Y-83667315D01*
X98642315Y-83543345D01*
X98734356Y-83394124D01*
X98734358Y-83394119D01*
X98789505Y-83227697D01*
X98789506Y-83227690D01*
X98799999Y-83124986D01*
X98800000Y-83124973D01*
X98800000Y-82737153D01*
X102050800Y-82737153D01*
X102050800Y-82894846D01*
X102081561Y-83049489D01*
X102081564Y-83049501D01*
X102141902Y-83195172D01*
X102141909Y-83195185D01*
X102229510Y-83326288D01*
X102229513Y-83326292D01*
X102341007Y-83437786D01*
X102341011Y-83437789D01*
X102472114Y-83525390D01*
X102472127Y-83525397D01*
X102588045Y-83573411D01*
X102617803Y-83585737D01*
X102772453Y-83616499D01*
X102772456Y-83616500D01*
X102772458Y-83616500D01*
X102930144Y-83616500D01*
X102930145Y-83616499D01*
X103084797Y-83585737D01*
X103230479Y-83525394D01*
X103361589Y-83437789D01*
X103473089Y-83326289D01*
X103560694Y-83195179D01*
X103621037Y-83049497D01*
X103651800Y-82894842D01*
X103651800Y-82760053D01*
X104976100Y-82760053D01*
X104976100Y-82917746D01*
X105006861Y-83072389D01*
X105006864Y-83072401D01*
X105067202Y-83218072D01*
X105067209Y-83218085D01*
X105154810Y-83349188D01*
X105154813Y-83349192D01*
X105266307Y-83460686D01*
X105266311Y-83460689D01*
X105397414Y-83548290D01*
X105397427Y-83548297D01*
X105543098Y-83608635D01*
X105543103Y-83608637D01*
X105697753Y-83639399D01*
X105697756Y-83639400D01*
X105697758Y-83639400D01*
X105855444Y-83639400D01*
X105855445Y-83639399D01*
X106010097Y-83608637D01*
X106132127Y-83558091D01*
X106155772Y-83548297D01*
X106155772Y-83548296D01*
X106155779Y-83548294D01*
X106286889Y-83460689D01*
X106398389Y-83349189D01*
X106485994Y-83218079D01*
X106546337Y-83072397D01*
X106577100Y-82917742D01*
X106577100Y-82760058D01*
X106577100Y-82760055D01*
X106577099Y-82760053D01*
X106565230Y-82700383D01*
X106546337Y-82605403D01*
X106541922Y-82594745D01*
X106485997Y-82459727D01*
X106485990Y-82459714D01*
X106398389Y-82328611D01*
X106398386Y-82328607D01*
X106286892Y-82217113D01*
X106286888Y-82217110D01*
X106155785Y-82129509D01*
X106155772Y-82129502D01*
X106010101Y-82069164D01*
X106010089Y-82069161D01*
X105855445Y-82038400D01*
X105855442Y-82038400D01*
X105697758Y-82038400D01*
X105697755Y-82038400D01*
X105543110Y-82069161D01*
X105543098Y-82069164D01*
X105397427Y-82129502D01*
X105397414Y-82129509D01*
X105266311Y-82217110D01*
X105266307Y-82217113D01*
X105154813Y-82328607D01*
X105154810Y-82328611D01*
X105067209Y-82459714D01*
X105067202Y-82459727D01*
X105006864Y-82605398D01*
X105006861Y-82605410D01*
X104976100Y-82760053D01*
X103651800Y-82760053D01*
X103651800Y-82737158D01*
X103651800Y-82737155D01*
X103651799Y-82737153D01*
X103630443Y-82629789D01*
X103621037Y-82582503D01*
X103589641Y-82506705D01*
X103560697Y-82436827D01*
X103560690Y-82436814D01*
X103473089Y-82305711D01*
X103473086Y-82305707D01*
X103361592Y-82194213D01*
X103361588Y-82194210D01*
X103230485Y-82106609D01*
X103230472Y-82106602D01*
X103084801Y-82046264D01*
X103084789Y-82046261D01*
X102930145Y-82015500D01*
X102930142Y-82015500D01*
X102772458Y-82015500D01*
X102772455Y-82015500D01*
X102617810Y-82046261D01*
X102617798Y-82046264D01*
X102472127Y-82106602D01*
X102472114Y-82106609D01*
X102341011Y-82194210D01*
X102341007Y-82194213D01*
X102229513Y-82305707D01*
X102229510Y-82305711D01*
X102141909Y-82436814D01*
X102141902Y-82436827D01*
X102081564Y-82582498D01*
X102081561Y-82582510D01*
X102050800Y-82737153D01*
X98800000Y-82737153D01*
X98800000Y-82700000D01*
X97980330Y-82700000D01*
X98000075Y-82680255D01*
X98049444Y-82594745D01*
X98075000Y-82499370D01*
X98075000Y-82400630D01*
X98049444Y-82305255D01*
X98000075Y-82219745D01*
X97980330Y-82200000D01*
X98799999Y-82200000D01*
X98799999Y-81775028D01*
X98799998Y-81775013D01*
X98789505Y-81672302D01*
X98734358Y-81505880D01*
X98734356Y-81505875D01*
X98642315Y-81356654D01*
X98518345Y-81232684D01*
X98369124Y-81140643D01*
X98369119Y-81140641D01*
X98202697Y-81085494D01*
X98202690Y-81085493D01*
X98099986Y-81075000D01*
X97950000Y-81075000D01*
X97950000Y-82169670D01*
X97930255Y-82149925D01*
X97844745Y-82100556D01*
X97749370Y-82075000D01*
X97650630Y-82075000D01*
X97555255Y-82100556D01*
X97469745Y-82149925D01*
X97450000Y-82169670D01*
X97450000Y-81075000D01*
X97300027Y-81075000D01*
X97300012Y-81075001D01*
X97197302Y-81085494D01*
X97030880Y-81140641D01*
X97030875Y-81140643D01*
X96881654Y-81232684D01*
X96757684Y-81356654D01*
X96718053Y-81420907D01*
X96666105Y-81467631D01*
X96597142Y-81478853D01*
X96533060Y-81451010D01*
X96524833Y-81443491D01*
X96416930Y-81335588D01*
X96416928Y-81335586D01*
X96276788Y-81233768D01*
X96122445Y-81155127D01*
X95957701Y-81101598D01*
X95957699Y-81101597D01*
X95957698Y-81101597D01*
X95826271Y-81080781D01*
X95786611Y-81074500D01*
X95613389Y-81074500D01*
X95573728Y-81080781D01*
X95442302Y-81101597D01*
X95277552Y-81155128D01*
X95123211Y-81233768D01*
X95043256Y-81291859D01*
X94983072Y-81335586D01*
X94983070Y-81335588D01*
X94983069Y-81335588D01*
X94860588Y-81458069D01*
X94860588Y-81458070D01*
X94860586Y-81458072D01*
X94831785Y-81497713D01*
X94758768Y-81598211D01*
X94680128Y-81752552D01*
X94626597Y-81917302D01*
X94599500Y-82088389D01*
X88730235Y-82088389D01*
X88595701Y-82032664D01*
X88595689Y-82032661D01*
X88441045Y-82001900D01*
X88441042Y-82001900D01*
X88283358Y-82001900D01*
X88283355Y-82001900D01*
X88128710Y-82032661D01*
X88128698Y-82032664D01*
X87983027Y-82093002D01*
X87983014Y-82093009D01*
X87851911Y-82180610D01*
X87851907Y-82180613D01*
X87740413Y-82292107D01*
X87740410Y-82292111D01*
X87652809Y-82423214D01*
X87652802Y-82423227D01*
X87592464Y-82568898D01*
X87592461Y-82568910D01*
X87561700Y-82723553D01*
X85724103Y-82723553D01*
X85627202Y-82667607D01*
X85531028Y-82612080D01*
X85531017Y-82612075D01*
X85276630Y-82506704D01*
X85134056Y-82468502D01*
X85010666Y-82435440D01*
X85010660Y-82435439D01*
X85010655Y-82435438D01*
X84737684Y-82399501D01*
X84737679Y-82399500D01*
X84737674Y-82399500D01*
X84462326Y-82399500D01*
X84462320Y-82399500D01*
X84462315Y-82399501D01*
X84189344Y-82435438D01*
X84189337Y-82435439D01*
X84189334Y-82435440D01*
X84184158Y-82436827D01*
X83923369Y-82506704D01*
X83668982Y-82612075D01*
X83668971Y-82612080D01*
X83430516Y-82749754D01*
X83212073Y-82917370D01*
X83212066Y-82917376D01*
X83017376Y-83112066D01*
X83017370Y-83112073D01*
X82849754Y-83330516D01*
X82849751Y-83330520D01*
X82849751Y-83330521D01*
X82844244Y-83340060D01*
X82712080Y-83568971D01*
X82712075Y-83568982D01*
X82606704Y-83823369D01*
X82535441Y-84089331D01*
X82535438Y-84089344D01*
X82499501Y-84362315D01*
X82499500Y-84362332D01*
X72243338Y-84362332D01*
X72248959Y-84334076D01*
X72248959Y-84334075D01*
X72260900Y-84274044D01*
X72260900Y-84116355D01*
X72260899Y-84116353D01*
X72257166Y-84097588D01*
X72230137Y-83961703D01*
X72230135Y-83961698D01*
X72169797Y-83816027D01*
X72169790Y-83816014D01*
X72082189Y-83684911D01*
X72082186Y-83684907D01*
X71970692Y-83573413D01*
X71970688Y-83573410D01*
X71839585Y-83485809D01*
X71839572Y-83485802D01*
X71693901Y-83425464D01*
X71693889Y-83425461D01*
X71539245Y-83394700D01*
X71539242Y-83394700D01*
X71381558Y-83394700D01*
X71381555Y-83394700D01*
X71226910Y-83425461D01*
X71226898Y-83425464D01*
X71081227Y-83485802D01*
X71081214Y-83485809D01*
X70950111Y-83573410D01*
X70950107Y-83573413D01*
X70838613Y-83684907D01*
X70838610Y-83684911D01*
X70751009Y-83816014D01*
X70751002Y-83816027D01*
X70690664Y-83961698D01*
X70690661Y-83961710D01*
X70659900Y-84116353D01*
X70659900Y-84274046D01*
X70664949Y-84299429D01*
X70658722Y-84369021D01*
X70615858Y-84424198D01*
X70549969Y-84447442D01*
X70481972Y-84431374D01*
X70474441Y-84426722D01*
X70380585Y-84364009D01*
X70380572Y-84364002D01*
X70234901Y-84303664D01*
X70234889Y-84303661D01*
X70080245Y-84272900D01*
X70080242Y-84272900D01*
X69922558Y-84272900D01*
X69922555Y-84272900D01*
X69767910Y-84303661D01*
X69767898Y-84303664D01*
X69622227Y-84364002D01*
X69622214Y-84364009D01*
X69491111Y-84451610D01*
X69491107Y-84451613D01*
X69379613Y-84563107D01*
X69379610Y-84563111D01*
X69292009Y-84694214D01*
X69292002Y-84694227D01*
X69231664Y-84839898D01*
X69231661Y-84839910D01*
X69200900Y-84994553D01*
X44000500Y-84994553D01*
X44000500Y-84020513D01*
X44020185Y-83953474D01*
X44072989Y-83907719D01*
X44142147Y-83897775D01*
X44193391Y-83917411D01*
X44362631Y-84030494D01*
X44362641Y-84030499D01*
X44553723Y-84109648D01*
X44553725Y-84109649D01*
X44610000Y-84120842D01*
X44610000Y-83266988D01*
X44619940Y-83284205D01*
X44675795Y-83340060D01*
X44744204Y-83379556D01*
X44820504Y-83400000D01*
X44899496Y-83400000D01*
X44975796Y-83379556D01*
X45044205Y-83340060D01*
X45100060Y-83284205D01*
X45110000Y-83266988D01*
X45110000Y-84120842D01*
X45166274Y-84109649D01*
X45166276Y-84109648D01*
X45303874Y-84052653D01*
X52049500Y-84052653D01*
X52049500Y-84210346D01*
X52080261Y-84364989D01*
X52080264Y-84365001D01*
X52140602Y-84510672D01*
X52140609Y-84510685D01*
X52228210Y-84641788D01*
X52228213Y-84641792D01*
X52339707Y-84753286D01*
X52339711Y-84753289D01*
X52470814Y-84840890D01*
X52470827Y-84840897D01*
X52606001Y-84896887D01*
X52616503Y-84901237D01*
X52771153Y-84931999D01*
X52771156Y-84932000D01*
X52771158Y-84932000D01*
X52928844Y-84932000D01*
X52928845Y-84931999D01*
X53083497Y-84901237D01*
X53196166Y-84854567D01*
X53229172Y-84840897D01*
X53229172Y-84840896D01*
X53229179Y-84840894D01*
X53360289Y-84753289D01*
X53471789Y-84641789D01*
X53559394Y-84510679D01*
X53619737Y-84364997D01*
X53648773Y-84219025D01*
X53681158Y-84157114D01*
X53741873Y-84122540D01*
X53746201Y-84121598D01*
X53806272Y-84109649D01*
X53806276Y-84109648D01*
X53997358Y-84030499D01*
X53997368Y-84030494D01*
X54169335Y-83915589D01*
X54169339Y-83915586D01*
X54315586Y-83769339D01*
X54315589Y-83769335D01*
X54430494Y-83597368D01*
X54430499Y-83597358D01*
X54467325Y-83508453D01*
X64919700Y-83508453D01*
X64919700Y-83666146D01*
X64950461Y-83820789D01*
X64950464Y-83820801D01*
X65010802Y-83966472D01*
X65010809Y-83966485D01*
X65098410Y-84097588D01*
X65098413Y-84097592D01*
X65209907Y-84209086D01*
X65209911Y-84209089D01*
X65341014Y-84296690D01*
X65341027Y-84296697D01*
X65486698Y-84357035D01*
X65486703Y-84357037D01*
X65641358Y-84387800D01*
X65641363Y-84387800D01*
X65647418Y-84388397D01*
X65647287Y-84389717D01*
X65707797Y-84407485D01*
X65753552Y-84460289D01*
X65755319Y-84464348D01*
X65797702Y-84566672D01*
X65797709Y-84566685D01*
X65885310Y-84697788D01*
X65885313Y-84697792D01*
X65996807Y-84809286D01*
X65996811Y-84809289D01*
X66127914Y-84896890D01*
X66127927Y-84896897D01*
X66273598Y-84957235D01*
X66273603Y-84957237D01*
X66428253Y-84987999D01*
X66428256Y-84988000D01*
X66428258Y-84988000D01*
X66585944Y-84988000D01*
X66585945Y-84987999D01*
X66740597Y-84957237D01*
X66867682Y-84904597D01*
X66886272Y-84896897D01*
X66886272Y-84896896D01*
X66886279Y-84896894D01*
X66886286Y-84896888D01*
X66886290Y-84896887D01*
X66903532Y-84885366D01*
X66903536Y-84885364D01*
X66999627Y-84821157D01*
X67017389Y-84809289D01*
X67128889Y-84697789D01*
X67216494Y-84566679D01*
X67276837Y-84420997D01*
X67307600Y-84266342D01*
X67307600Y-84108658D01*
X67307600Y-84108655D01*
X67307599Y-84108653D01*
X67281690Y-83978400D01*
X67276837Y-83954003D01*
X67249207Y-83887297D01*
X67216497Y-83808327D01*
X67216490Y-83808314D01*
X67128889Y-83677211D01*
X67128886Y-83677207D01*
X67017392Y-83565713D01*
X67017388Y-83565710D01*
X66886285Y-83478109D01*
X66886272Y-83478102D01*
X66740601Y-83417764D01*
X66740589Y-83417761D01*
X66585946Y-83387000D01*
X66579882Y-83386403D01*
X66580012Y-83385082D01*
X66519503Y-83367315D01*
X66473748Y-83314511D01*
X66471981Y-83310452D01*
X66429597Y-83208127D01*
X66429590Y-83208114D01*
X66339371Y-83073093D01*
X66333207Y-83053409D01*
X66322553Y-83035749D01*
X66322978Y-83020741D01*
X66318493Y-83006416D01*
X66323949Y-82986526D01*
X66324534Y-82965908D01*
X66333005Y-82953513D01*
X66336396Y-82941153D01*
X67370400Y-82941153D01*
X67370400Y-83098846D01*
X67401161Y-83253489D01*
X67401164Y-83253501D01*
X67461502Y-83399172D01*
X67461509Y-83399185D01*
X67549110Y-83530288D01*
X67549113Y-83530292D01*
X67660607Y-83641786D01*
X67660611Y-83641789D01*
X67791714Y-83729390D01*
X67791727Y-83729397D01*
X67888157Y-83769339D01*
X67937403Y-83789737D01*
X68069506Y-83816014D01*
X68092053Y-83820499D01*
X68092056Y-83820500D01*
X68092058Y-83820500D01*
X68249744Y-83820500D01*
X68249745Y-83820499D01*
X68404397Y-83789737D01*
X68550079Y-83729394D01*
X68681189Y-83641789D01*
X68792689Y-83530289D01*
X68880294Y-83399179D01*
X68940637Y-83253497D01*
X68971358Y-83099053D01*
X75801100Y-83099053D01*
X75801100Y-83256746D01*
X75831861Y-83411389D01*
X75831864Y-83411401D01*
X75892202Y-83557072D01*
X75892209Y-83557085D01*
X75979810Y-83688188D01*
X75979813Y-83688192D01*
X76091307Y-83799686D01*
X76091311Y-83799689D01*
X76222414Y-83887290D01*
X76222427Y-83887297D01*
X76335682Y-83934208D01*
X76368103Y-83947637D01*
X76462858Y-83966485D01*
X76522753Y-83978399D01*
X76522756Y-83978400D01*
X76522758Y-83978400D01*
X76680444Y-83978400D01*
X76680445Y-83978399D01*
X76835097Y-83947637D01*
X76980779Y-83887294D01*
X77111889Y-83799689D01*
X77223389Y-83688189D01*
X77310994Y-83557079D01*
X77314635Y-83548290D01*
X77329750Y-83511797D01*
X77371337Y-83411397D01*
X77402100Y-83256742D01*
X77402100Y-83099058D01*
X77402100Y-83099055D01*
X77402099Y-83099053D01*
X77402057Y-83098842D01*
X77371337Y-82944403D01*
X77361229Y-82920000D01*
X77310997Y-82798727D01*
X77310990Y-82798714D01*
X77223389Y-82667611D01*
X77223386Y-82667607D01*
X77111892Y-82556113D01*
X77111888Y-82556110D01*
X76980785Y-82468509D01*
X76980772Y-82468502D01*
X76835101Y-82408164D01*
X76835089Y-82408161D01*
X76680445Y-82377400D01*
X76680442Y-82377400D01*
X76522758Y-82377400D01*
X76522755Y-82377400D01*
X76368110Y-82408161D01*
X76368098Y-82408164D01*
X76222427Y-82468502D01*
X76222414Y-82468509D01*
X76091311Y-82556110D01*
X76091307Y-82556113D01*
X75979813Y-82667607D01*
X75979810Y-82667611D01*
X75892209Y-82798714D01*
X75892202Y-82798727D01*
X75831864Y-82944398D01*
X75831861Y-82944410D01*
X75801100Y-83099053D01*
X68971358Y-83099053D01*
X68971400Y-83098842D01*
X68971400Y-82941158D01*
X68971400Y-82941155D01*
X68971399Y-82941153D01*
X68962188Y-82894846D01*
X68940637Y-82786503D01*
X68914565Y-82723558D01*
X68880297Y-82640827D01*
X68880290Y-82640814D01*
X68792689Y-82509711D01*
X68792686Y-82509707D01*
X68681192Y-82398213D01*
X68681188Y-82398210D01*
X68550085Y-82310609D01*
X68550072Y-82310602D01*
X68404401Y-82250264D01*
X68404389Y-82250261D01*
X68249745Y-82219500D01*
X68249742Y-82219500D01*
X68092058Y-82219500D01*
X68092055Y-82219500D01*
X67937410Y-82250261D01*
X67937398Y-82250264D01*
X67791727Y-82310602D01*
X67791714Y-82310609D01*
X67660611Y-82398210D01*
X67660607Y-82398213D01*
X67549113Y-82509707D01*
X67549110Y-82509711D01*
X67461509Y-82640814D01*
X67461502Y-82640827D01*
X67401164Y-82786498D01*
X67401161Y-82786510D01*
X67370400Y-82941153D01*
X66336396Y-82941153D01*
X66336977Y-82939036D01*
X66352320Y-82925253D01*
X66363960Y-82908224D01*
X66385874Y-82895113D01*
X66388956Y-82892345D01*
X66394180Y-82889992D01*
X66395937Y-82889248D01*
X66395997Y-82889237D01*
X66541679Y-82828894D01*
X66672789Y-82741289D01*
X66784289Y-82629789D01*
X66871894Y-82498679D01*
X66932237Y-82352997D01*
X66963000Y-82198342D01*
X66963000Y-82040658D01*
X66963000Y-82040655D01*
X66962999Y-82040653D01*
X66955436Y-82002631D01*
X66932237Y-81886003D01*
X66909315Y-81830664D01*
X66871897Y-81740327D01*
X66871890Y-81740314D01*
X66784289Y-81609211D01*
X66784286Y-81609207D01*
X66672792Y-81497713D01*
X66672788Y-81497710D01*
X66541685Y-81410109D01*
X66541672Y-81410102D01*
X66396001Y-81349764D01*
X66395989Y-81349761D01*
X66241345Y-81319000D01*
X66241342Y-81319000D01*
X66083658Y-81319000D01*
X66083655Y-81319000D01*
X65929010Y-81349761D01*
X65928998Y-81349764D01*
X65783327Y-81410102D01*
X65783314Y-81410109D01*
X65652211Y-81497710D01*
X65652207Y-81497713D01*
X65540713Y-81609207D01*
X65540710Y-81609211D01*
X65453109Y-81740314D01*
X65453102Y-81740327D01*
X65392764Y-81885998D01*
X65392761Y-81886010D01*
X65362000Y-82040653D01*
X65362000Y-82198346D01*
X65392761Y-82352989D01*
X65392764Y-82353001D01*
X65453102Y-82498672D01*
X65453109Y-82498685D01*
X65543328Y-82633706D01*
X65564206Y-82700383D01*
X65545722Y-82767764D01*
X65493743Y-82814454D01*
X65487679Y-82817158D01*
X65341023Y-82877904D01*
X65341014Y-82877909D01*
X65209911Y-82965510D01*
X65209907Y-82965513D01*
X65098413Y-83077007D01*
X65098410Y-83077011D01*
X65010809Y-83208114D01*
X65010802Y-83208127D01*
X64950464Y-83353798D01*
X64950461Y-83353810D01*
X64919700Y-83508453D01*
X54467325Y-83508453D01*
X54489503Y-83454913D01*
X54509649Y-83406274D01*
X54509651Y-83406266D01*
X54549999Y-83203420D01*
X54550000Y-83203417D01*
X54550000Y-83050000D01*
X53800000Y-83050000D01*
X53800000Y-82550000D01*
X54550000Y-82550000D01*
X54550000Y-82396583D01*
X54549999Y-82396579D01*
X54509651Y-82193733D01*
X54509649Y-82193725D01*
X54430499Y-82002641D01*
X54430494Y-82002631D01*
X54315589Y-81830664D01*
X54315586Y-81830660D01*
X54169339Y-81684413D01*
X54169335Y-81684410D01*
X53997368Y-81569505D01*
X53997358Y-81569500D01*
X53806272Y-81490349D01*
X53806267Y-81490347D01*
X53750000Y-81479155D01*
X53750000Y-82333011D01*
X53740060Y-82315795D01*
X53684205Y-82259940D01*
X53615796Y-82220444D01*
X53539496Y-82200000D01*
X53460504Y-82200000D01*
X53384204Y-82220444D01*
X53315795Y-82259940D01*
X53259940Y-82315795D01*
X53250000Y-82333011D01*
X53250000Y-81479156D01*
X53249999Y-81479155D01*
X53193732Y-81490347D01*
X53193727Y-81490349D01*
X53002641Y-81569500D01*
X53002631Y-81569505D01*
X52830664Y-81684410D01*
X52830660Y-81684413D01*
X52684413Y-81830660D01*
X52684410Y-81830664D01*
X52569505Y-82002631D01*
X52569500Y-82002641D01*
X52490350Y-82193725D01*
X52490348Y-82193733D01*
X52450000Y-82396579D01*
X52450000Y-82550000D01*
X53200000Y-82550000D01*
X53200000Y-83050000D01*
X52450000Y-83050000D01*
X52450000Y-83203414D01*
X52474675Y-83327469D01*
X52468446Y-83397060D01*
X52425583Y-83452237D01*
X52421948Y-83454761D01*
X52339711Y-83509710D01*
X52339707Y-83509713D01*
X52228213Y-83621207D01*
X52228210Y-83621211D01*
X52140609Y-83752314D01*
X52140602Y-83752327D01*
X52080264Y-83897998D01*
X52080261Y-83898010D01*
X52049500Y-84052653D01*
X45303874Y-84052653D01*
X45357358Y-84030499D01*
X45357368Y-84030494D01*
X45487619Y-83943464D01*
X45529335Y-83915589D01*
X45529339Y-83915586D01*
X45675586Y-83769339D01*
X45675589Y-83769335D01*
X45790494Y-83597368D01*
X45790499Y-83597358D01*
X45869649Y-83406274D01*
X45869651Y-83406266D01*
X45909999Y-83203420D01*
X45910000Y-83203417D01*
X45910000Y-83050000D01*
X45160000Y-83050000D01*
X45160000Y-82550000D01*
X45910000Y-82550000D01*
X45910000Y-82396583D01*
X45909999Y-82396579D01*
X45869651Y-82193733D01*
X45869649Y-82193725D01*
X45790499Y-82002641D01*
X45790494Y-82002631D01*
X45675589Y-81830664D01*
X45675586Y-81830660D01*
X45529336Y-81684410D01*
X45446532Y-81629083D01*
X45357368Y-81569505D01*
X45357358Y-81569500D01*
X45271915Y-81534108D01*
X47359500Y-81534108D01*
X47359500Y-81665891D01*
X47393608Y-81793187D01*
X47415246Y-81830664D01*
X47459500Y-81907314D01*
X47552686Y-82000500D01*
X47666814Y-82066392D01*
X47794108Y-82100500D01*
X47794110Y-82100500D01*
X47925890Y-82100500D01*
X47925892Y-82100500D01*
X48053186Y-82066392D01*
X48167314Y-82000500D01*
X49260500Y-80907314D01*
X49326392Y-80793186D01*
X49360500Y-80665892D01*
X49360500Y-80534107D01*
X49326392Y-80406814D01*
X49265647Y-80301600D01*
X49260502Y-80292688D01*
X49260498Y-80292683D01*
X49167316Y-80199501D01*
X49167311Y-80199497D01*
X49053188Y-80133609D01*
X49053187Y-80133608D01*
X49053186Y-80133608D01*
X48925893Y-80099500D01*
X48794108Y-80099500D01*
X48666812Y-80133608D01*
X48552686Y-80199500D01*
X48552683Y-80199502D01*
X47459502Y-81292683D01*
X47459500Y-81292686D01*
X47393608Y-81406812D01*
X47359500Y-81534108D01*
X45271915Y-81534108D01*
X45166272Y-81490349D01*
X45166267Y-81490347D01*
X45110000Y-81479155D01*
X45110000Y-82333011D01*
X45100060Y-82315795D01*
X45044205Y-82259940D01*
X44975796Y-82220444D01*
X44899496Y-82200000D01*
X44820504Y-82200000D01*
X44744204Y-82220444D01*
X44675795Y-82259940D01*
X44619940Y-82315795D01*
X44610000Y-82333011D01*
X44610000Y-81479156D01*
X44609999Y-81479155D01*
X44553732Y-81490347D01*
X44553727Y-81490349D01*
X44362641Y-81569500D01*
X44362626Y-81569508D01*
X44193390Y-81682588D01*
X44126713Y-81703466D01*
X44059333Y-81684981D01*
X44012643Y-81633002D01*
X44000500Y-81579486D01*
X44000500Y-80220513D01*
X44020185Y-80153474D01*
X44072989Y-80107719D01*
X44142147Y-80097775D01*
X44193391Y-80117411D01*
X44362631Y-80230494D01*
X44362641Y-80230499D01*
X44553723Y-80309648D01*
X44553725Y-80309649D01*
X44610000Y-80320842D01*
X44610000Y-79466988D01*
X44619940Y-79484205D01*
X44675795Y-79540060D01*
X44744204Y-79579556D01*
X44820504Y-79600000D01*
X44899496Y-79600000D01*
X44975796Y-79579556D01*
X45044205Y-79540060D01*
X45100060Y-79484205D01*
X45110000Y-79466988D01*
X45110000Y-80320842D01*
X45166274Y-80309649D01*
X45166276Y-80309648D01*
X45357358Y-80230499D01*
X45357368Y-80230494D01*
X45529335Y-80115589D01*
X45529339Y-80115586D01*
X45675586Y-79969339D01*
X45675589Y-79969335D01*
X45790494Y-79797368D01*
X45790499Y-79797358D01*
X45869649Y-79606274D01*
X45869651Y-79606266D01*
X45909999Y-79403420D01*
X45910000Y-79403417D01*
X45910000Y-79250000D01*
X45160000Y-79250000D01*
X45160000Y-78750000D01*
X45910000Y-78750000D01*
X45910000Y-78596583D01*
X45909999Y-78596579D01*
X52450000Y-78596579D01*
X52450000Y-78750000D01*
X53200000Y-78750000D01*
X53200000Y-79250000D01*
X52450000Y-79250000D01*
X52450000Y-79403420D01*
X52490348Y-79606266D01*
X52490350Y-79606274D01*
X52569500Y-79797358D01*
X52569505Y-79797368D01*
X52684410Y-79969335D01*
X52684413Y-79969339D01*
X52830660Y-80115586D01*
X52830664Y-80115589D01*
X53002631Y-80230494D01*
X53002641Y-80230499D01*
X53193723Y-80309648D01*
X53193725Y-80309649D01*
X53250000Y-80320842D01*
X53250000Y-79466988D01*
X53259940Y-79484205D01*
X53315795Y-79540060D01*
X53384204Y-79579556D01*
X53460504Y-79600000D01*
X53539496Y-79600000D01*
X53615796Y-79579556D01*
X53684205Y-79540060D01*
X53740060Y-79484205D01*
X53750000Y-79466988D01*
X53750000Y-80320842D01*
X53806274Y-80309649D01*
X53806276Y-80309648D01*
X53997358Y-80230499D01*
X53997368Y-80230494D01*
X54169335Y-80115589D01*
X54169339Y-80115586D01*
X54315586Y-79969339D01*
X54315589Y-79969335D01*
X54430494Y-79797368D01*
X54430499Y-79797358D01*
X54509649Y-79606274D01*
X54509651Y-79606266D01*
X54549999Y-79403420D01*
X54550000Y-79403417D01*
X54550000Y-79250000D01*
X53800000Y-79250000D01*
X53800000Y-78750000D01*
X54550000Y-78750000D01*
X54550000Y-78596583D01*
X54549999Y-78596579D01*
X54509651Y-78393733D01*
X54509649Y-78393725D01*
X54430499Y-78202641D01*
X54430494Y-78202631D01*
X54315589Y-78030664D01*
X54315586Y-78030660D01*
X54169339Y-77884413D01*
X54169335Y-77884410D01*
X53997368Y-77769505D01*
X53997358Y-77769500D01*
X53806272Y-77690349D01*
X53806267Y-77690347D01*
X53750000Y-77679155D01*
X53750000Y-78533011D01*
X53740060Y-78515795D01*
X53684205Y-78459940D01*
X53615796Y-78420444D01*
X53539496Y-78400000D01*
X53460504Y-78400000D01*
X53384204Y-78420444D01*
X53315795Y-78459940D01*
X53259940Y-78515795D01*
X53250000Y-78533011D01*
X53250000Y-77679156D01*
X53249999Y-77679155D01*
X53193732Y-77690347D01*
X53193727Y-77690349D01*
X53002641Y-77769500D01*
X53002631Y-77769505D01*
X52830664Y-77884410D01*
X52830660Y-77884413D01*
X52684413Y-78030660D01*
X52684410Y-78030664D01*
X52569505Y-78202631D01*
X52569500Y-78202641D01*
X52490350Y-78393725D01*
X52490348Y-78393733D01*
X52450000Y-78596579D01*
X45909999Y-78596579D01*
X45869651Y-78393733D01*
X45869649Y-78393725D01*
X45790499Y-78202641D01*
X45790494Y-78202631D01*
X45675589Y-78030664D01*
X45675586Y-78030660D01*
X45529339Y-77884413D01*
X45529335Y-77884410D01*
X45357368Y-77769505D01*
X45357358Y-77769500D01*
X45166272Y-77690349D01*
X45166267Y-77690347D01*
X45110000Y-77679155D01*
X45110000Y-78533011D01*
X45100060Y-78515795D01*
X45044205Y-78459940D01*
X44975796Y-78420444D01*
X44899496Y-78400000D01*
X44820504Y-78400000D01*
X44744204Y-78420444D01*
X44675795Y-78459940D01*
X44619940Y-78515795D01*
X44610000Y-78533011D01*
X44610000Y-77679156D01*
X44609999Y-77679155D01*
X44553732Y-77690347D01*
X44553727Y-77690349D01*
X44362641Y-77769500D01*
X44362626Y-77769508D01*
X44193390Y-77882588D01*
X44126713Y-77903466D01*
X44059333Y-77884981D01*
X44012643Y-77833002D01*
X44000500Y-77779486D01*
X44000500Y-76124500D01*
X44020185Y-76057461D01*
X44072989Y-76011706D01*
X44124500Y-76000500D01*
X64172357Y-76000500D01*
X64239396Y-76020185D01*
G37*
%TD.AperFunction*%
%TD*%
M02*
