%TF.GenerationSoftware,KiCad,Pcbnew,9.0.0*%
%TF.CreationDate,2025-03-28T02:53:08+02:00*%
%TF.ProjectId,EEE3088F_2025_Project,45454533-3038-4384-965f-323032355f50,rev?*%
%TF.SameCoordinates,Original*%
%TF.FileFunction,Legend,Top*%
%TF.FilePolarity,Positive*%
%FSLAX46Y46*%
G04 Gerber Fmt 4.6, Leading zero omitted, Abs format (unit mm)*
G04 Created by KiCad (PCBNEW 9.0.0) date 2025-03-28 02:53:08*
%MOMM*%
%LPD*%
G01*
G04 APERTURE LIST*
G04 Aperture macros list*
%AMRoundRect*
0 Rectangle with rounded corners*
0 $1 Rounding radius*
0 $2 $3 $4 $5 $6 $7 $8 $9 X,Y pos of 4 corners*
0 Add a 4 corners polygon primitive as box body*
4,1,4,$2,$3,$4,$5,$6,$7,$8,$9,$2,$3,0*
0 Add four circle primitives for the rounded corners*
1,1,$1+$1,$2,$3*
1,1,$1+$1,$4,$5*
1,1,$1+$1,$6,$7*
1,1,$1+$1,$8,$9*
0 Add four rect primitives between the rounded corners*
20,1,$1+$1,$2,$3,$4,$5,0*
20,1,$1+$1,$4,$5,$6,$7,0*
20,1,$1+$1,$6,$7,$8,$9,0*
20,1,$1+$1,$8,$9,$2,$3,0*%
%AMFreePoly0*
4,1,9,3.862500,-0.866500,0.737500,-0.866500,0.737500,-0.450000,-0.737500,-0.450000,-0.737500,0.450000,0.737500,0.450000,0.737500,0.866500,3.862500,0.866500,3.862500,-0.866500,3.862500,-0.866500,$1*%
G04 Aperture macros list end*
%ADD10C,0.150000*%
%ADD11C,0.120000*%
%ADD12C,0.254000*%
%ADD13C,0.249000*%
%ADD14C,0.100000*%
%ADD15RoundRect,0.250000X-0.337500X-0.475000X0.337500X-0.475000X0.337500X0.475000X-0.337500X0.475000X0*%
%ADD16RoundRect,0.100000X-0.637500X-0.100000X0.637500X-0.100000X0.637500X0.100000X-0.637500X0.100000X0*%
%ADD17C,2.000000*%
%ADD18O,3.500000X2.200000*%
%ADD19R,2.500000X1.500000*%
%ADD20O,2.500000X1.500000*%
%ADD21RoundRect,0.250001X-0.462499X-0.849999X0.462499X-0.849999X0.462499X0.849999X-0.462499X0.849999X0*%
%ADD22RoundRect,0.100000X-0.217500X-0.100000X0.217500X-0.100000X0.217500X0.100000X-0.217500X0.100000X0*%
%ADD23RoundRect,0.250000X-0.400000X-0.625000X0.400000X-0.625000X0.400000X0.625000X-0.400000X0.625000X0*%
%ADD24RoundRect,0.175000X0.175000X0.425000X-0.175000X0.425000X-0.175000X-0.425000X0.175000X-0.425000X0*%
%ADD25RoundRect,0.190000X-0.190000X-0.410000X0.190000X-0.410000X0.190000X0.410000X-0.190000X0.410000X0*%
%ADD26RoundRect,0.200000X-0.200000X-0.400000X0.200000X-0.400000X0.200000X0.400000X-0.200000X0.400000X0*%
%ADD27RoundRect,0.175000X-0.175000X-0.425000X0.175000X-0.425000X0.175000X0.425000X-0.175000X0.425000X0*%
%ADD28RoundRect,0.190000X0.190000X0.410000X-0.190000X0.410000X-0.190000X-0.410000X0.190000X-0.410000X0*%
%ADD29RoundRect,0.200000X0.200000X0.400000X-0.200000X0.400000X-0.200000X-0.400000X0.200000X-0.400000X0*%
%ADD30O,1.100000X1.700000*%
%ADD31R,0.622500X1.105000*%
%ADD32RoundRect,0.250000X-0.350000X-0.450000X0.350000X-0.450000X0.350000X0.450000X-0.350000X0.450000X0*%
%ADD33R,1.700000X1.700000*%
%ADD34O,1.700000X1.700000*%
%ADD35RoundRect,0.237500X-0.250000X-0.237500X0.250000X-0.237500X0.250000X0.237500X-0.250000X0.237500X0*%
%ADD36RoundRect,0.243600X1.406400X0.771400X-1.406400X0.771400X-1.406400X-0.771400X1.406400X-0.771400X0*%
%ADD37RoundRect,0.190000X0.510000X0.190000X-0.510000X0.190000X-0.510000X-0.190000X0.510000X-0.190000X0*%
%ADD38RoundRect,0.100000X-0.680000X-0.100000X0.680000X-0.100000X0.680000X0.100000X-0.680000X0.100000X0*%
%ADD39RoundRect,0.250000X0.350000X0.625000X-0.350000X0.625000X-0.350000X-0.625000X0.350000X-0.625000X0*%
%ADD40O,1.200000X1.750000*%
%ADD41RoundRect,0.150000X-0.512500X-0.150000X0.512500X-0.150000X0.512500X0.150000X-0.512500X0.150000X0*%
%ADD42RoundRect,0.075000X-0.247500X-0.075000X0.247500X-0.075000X0.247500X0.075000X-0.247500X0.075000X0*%
%ADD43R,1.010000X1.700000*%
%ADD44RoundRect,0.225000X-0.425000X-0.225000X0.425000X-0.225000X0.425000X0.225000X-0.425000X0.225000X0*%
%ADD45FreePoly0,0.000000*%
%ADD46RoundRect,0.150000X-0.825000X-0.150000X0.825000X-0.150000X0.825000X0.150000X-0.825000X0.150000X0*%
%ADD47R,2.410000X3.300000*%
%ADD48RoundRect,0.250000X-1.000000X-0.650000X1.000000X-0.650000X1.000000X0.650000X-1.000000X0.650000X0*%
G04 APERTURE END LIST*
D10*
X92927142Y-96899580D02*
X92879523Y-96947200D01*
X92879523Y-96947200D02*
X92736666Y-96994819D01*
X92736666Y-96994819D02*
X92641428Y-96994819D01*
X92641428Y-96994819D02*
X92498571Y-96947200D01*
X92498571Y-96947200D02*
X92403333Y-96851961D01*
X92403333Y-96851961D02*
X92355714Y-96756723D01*
X92355714Y-96756723D02*
X92308095Y-96566247D01*
X92308095Y-96566247D02*
X92308095Y-96423390D01*
X92308095Y-96423390D02*
X92355714Y-96232914D01*
X92355714Y-96232914D02*
X92403333Y-96137676D01*
X92403333Y-96137676D02*
X92498571Y-96042438D01*
X92498571Y-96042438D02*
X92641428Y-95994819D01*
X92641428Y-95994819D02*
X92736666Y-95994819D01*
X92736666Y-95994819D02*
X92879523Y-96042438D01*
X92879523Y-96042438D02*
X92927142Y-96090057D01*
X93879523Y-96994819D02*
X93308095Y-96994819D01*
X93593809Y-96994819D02*
X93593809Y-95994819D01*
X93593809Y-95994819D02*
X93498571Y-96137676D01*
X93498571Y-96137676D02*
X93403333Y-96232914D01*
X93403333Y-96232914D02*
X93308095Y-96280533D01*
X94212857Y-95994819D02*
X94879523Y-95994819D01*
X94879523Y-95994819D02*
X94450952Y-96994819D01*
X58982542Y-109956280D02*
X58934923Y-110003900D01*
X58934923Y-110003900D02*
X58792066Y-110051519D01*
X58792066Y-110051519D02*
X58696828Y-110051519D01*
X58696828Y-110051519D02*
X58553971Y-110003900D01*
X58553971Y-110003900D02*
X58458733Y-109908661D01*
X58458733Y-109908661D02*
X58411114Y-109813423D01*
X58411114Y-109813423D02*
X58363495Y-109622947D01*
X58363495Y-109622947D02*
X58363495Y-109480090D01*
X58363495Y-109480090D02*
X58411114Y-109289614D01*
X58411114Y-109289614D02*
X58458733Y-109194376D01*
X58458733Y-109194376D02*
X58553971Y-109099138D01*
X58553971Y-109099138D02*
X58696828Y-109051519D01*
X58696828Y-109051519D02*
X58792066Y-109051519D01*
X58792066Y-109051519D02*
X58934923Y-109099138D01*
X58934923Y-109099138D02*
X58982542Y-109146757D01*
X59934923Y-110051519D02*
X59363495Y-110051519D01*
X59649209Y-110051519D02*
X59649209Y-109051519D01*
X59649209Y-109051519D02*
X59553971Y-109194376D01*
X59553971Y-109194376D02*
X59458733Y-109289614D01*
X59458733Y-109289614D02*
X59363495Y-109337233D01*
X60887304Y-110051519D02*
X60315876Y-110051519D01*
X60601590Y-110051519D02*
X60601590Y-109051519D01*
X60601590Y-109051519D02*
X60506352Y-109194376D01*
X60506352Y-109194376D02*
X60411114Y-109289614D01*
X60411114Y-109289614D02*
X60315876Y-109337233D01*
X64100595Y-75279819D02*
X64100595Y-76089342D01*
X64100595Y-76089342D02*
X64148214Y-76184580D01*
X64148214Y-76184580D02*
X64195833Y-76232200D01*
X64195833Y-76232200D02*
X64291071Y-76279819D01*
X64291071Y-76279819D02*
X64481547Y-76279819D01*
X64481547Y-76279819D02*
X64576785Y-76232200D01*
X64576785Y-76232200D02*
X64624404Y-76184580D01*
X64624404Y-76184580D02*
X64672023Y-76089342D01*
X64672023Y-76089342D02*
X64672023Y-75279819D01*
X65100595Y-75375057D02*
X65148214Y-75327438D01*
X65148214Y-75327438D02*
X65243452Y-75279819D01*
X65243452Y-75279819D02*
X65481547Y-75279819D01*
X65481547Y-75279819D02*
X65576785Y-75327438D01*
X65576785Y-75327438D02*
X65624404Y-75375057D01*
X65624404Y-75375057D02*
X65672023Y-75470295D01*
X65672023Y-75470295D02*
X65672023Y-75565533D01*
X65672023Y-75565533D02*
X65624404Y-75708390D01*
X65624404Y-75708390D02*
X65052976Y-76279819D01*
X65052976Y-76279819D02*
X65672023Y-76279819D01*
X109238095Y-104956819D02*
X109809523Y-104956819D01*
X109523809Y-105956819D02*
X109523809Y-104956819D01*
X110142857Y-105956819D02*
X110142857Y-104956819D01*
X110142857Y-104956819D02*
X110523809Y-104956819D01*
X110523809Y-104956819D02*
X110619047Y-105004438D01*
X110619047Y-105004438D02*
X110666666Y-105052057D01*
X110666666Y-105052057D02*
X110714285Y-105147295D01*
X110714285Y-105147295D02*
X110714285Y-105290152D01*
X110714285Y-105290152D02*
X110666666Y-105385390D01*
X110666666Y-105385390D02*
X110619047Y-105433009D01*
X110619047Y-105433009D02*
X110523809Y-105480628D01*
X110523809Y-105480628D02*
X110142857Y-105480628D01*
X111571428Y-104956819D02*
X111380952Y-104956819D01*
X111380952Y-104956819D02*
X111285714Y-105004438D01*
X111285714Y-105004438D02*
X111238095Y-105052057D01*
X111238095Y-105052057D02*
X111142857Y-105194914D01*
X111142857Y-105194914D02*
X111095238Y-105385390D01*
X111095238Y-105385390D02*
X111095238Y-105766342D01*
X111095238Y-105766342D02*
X111142857Y-105861580D01*
X111142857Y-105861580D02*
X111190476Y-105909200D01*
X111190476Y-105909200D02*
X111285714Y-105956819D01*
X111285714Y-105956819D02*
X111476190Y-105956819D01*
X111476190Y-105956819D02*
X111571428Y-105909200D01*
X111571428Y-105909200D02*
X111619047Y-105861580D01*
X111619047Y-105861580D02*
X111666666Y-105766342D01*
X111666666Y-105766342D02*
X111666666Y-105528247D01*
X111666666Y-105528247D02*
X111619047Y-105433009D01*
X111619047Y-105433009D02*
X111571428Y-105385390D01*
X111571428Y-105385390D02*
X111476190Y-105337771D01*
X111476190Y-105337771D02*
X111285714Y-105337771D01*
X111285714Y-105337771D02*
X111190476Y-105385390D01*
X111190476Y-105385390D02*
X111142857Y-105433009D01*
X111142857Y-105433009D02*
X111095238Y-105528247D01*
X50507200Y-103833332D02*
X50554819Y-103690475D01*
X50554819Y-103690475D02*
X50554819Y-103452380D01*
X50554819Y-103452380D02*
X50507200Y-103357142D01*
X50507200Y-103357142D02*
X50459580Y-103309523D01*
X50459580Y-103309523D02*
X50364342Y-103261904D01*
X50364342Y-103261904D02*
X50269104Y-103261904D01*
X50269104Y-103261904D02*
X50173866Y-103309523D01*
X50173866Y-103309523D02*
X50126247Y-103357142D01*
X50126247Y-103357142D02*
X50078628Y-103452380D01*
X50078628Y-103452380D02*
X50031009Y-103642856D01*
X50031009Y-103642856D02*
X49983390Y-103738094D01*
X49983390Y-103738094D02*
X49935771Y-103785713D01*
X49935771Y-103785713D02*
X49840533Y-103833332D01*
X49840533Y-103833332D02*
X49745295Y-103833332D01*
X49745295Y-103833332D02*
X49650057Y-103785713D01*
X49650057Y-103785713D02*
X49602438Y-103738094D01*
X49602438Y-103738094D02*
X49554819Y-103642856D01*
X49554819Y-103642856D02*
X49554819Y-103404761D01*
X49554819Y-103404761D02*
X49602438Y-103261904D01*
X49554819Y-102928570D02*
X50554819Y-102690475D01*
X50554819Y-102690475D02*
X49840533Y-102499999D01*
X49840533Y-102499999D02*
X50554819Y-102309523D01*
X50554819Y-102309523D02*
X49554819Y-102071428D01*
X50554819Y-101166666D02*
X50554819Y-101738094D01*
X50554819Y-101452380D02*
X49554819Y-101452380D01*
X49554819Y-101452380D02*
X49697676Y-101547618D01*
X49697676Y-101547618D02*
X49792914Y-101642856D01*
X49792914Y-101642856D02*
X49840533Y-101738094D01*
X54648733Y-97916280D02*
X54601114Y-97963900D01*
X54601114Y-97963900D02*
X54458257Y-98011519D01*
X54458257Y-98011519D02*
X54363019Y-98011519D01*
X54363019Y-98011519D02*
X54220162Y-97963900D01*
X54220162Y-97963900D02*
X54124924Y-97868661D01*
X54124924Y-97868661D02*
X54077305Y-97773423D01*
X54077305Y-97773423D02*
X54029686Y-97582947D01*
X54029686Y-97582947D02*
X54029686Y-97440090D01*
X54029686Y-97440090D02*
X54077305Y-97249614D01*
X54077305Y-97249614D02*
X54124924Y-97154376D01*
X54124924Y-97154376D02*
X54220162Y-97059138D01*
X54220162Y-97059138D02*
X54363019Y-97011519D01*
X54363019Y-97011519D02*
X54458257Y-97011519D01*
X54458257Y-97011519D02*
X54601114Y-97059138D01*
X54601114Y-97059138D02*
X54648733Y-97106757D01*
X55601114Y-98011519D02*
X55029686Y-98011519D01*
X55315400Y-98011519D02*
X55315400Y-97011519D01*
X55315400Y-97011519D02*
X55220162Y-97154376D01*
X55220162Y-97154376D02*
X55124924Y-97249614D01*
X55124924Y-97249614D02*
X55029686Y-97297233D01*
X65083733Y-108661519D02*
X64607543Y-108661519D01*
X64607543Y-108661519D02*
X64607543Y-107661519D01*
X65940876Y-108661519D02*
X65369448Y-108661519D01*
X65655162Y-108661519D02*
X65655162Y-107661519D01*
X65655162Y-107661519D02*
X65559924Y-107804376D01*
X65559924Y-107804376D02*
X65464686Y-107899614D01*
X65464686Y-107899614D02*
X65369448Y-107947233D01*
X54648733Y-103936280D02*
X54601114Y-103983900D01*
X54601114Y-103983900D02*
X54458257Y-104031519D01*
X54458257Y-104031519D02*
X54363019Y-104031519D01*
X54363019Y-104031519D02*
X54220162Y-103983900D01*
X54220162Y-103983900D02*
X54124924Y-103888661D01*
X54124924Y-103888661D02*
X54077305Y-103793423D01*
X54077305Y-103793423D02*
X54029686Y-103602947D01*
X54029686Y-103602947D02*
X54029686Y-103460090D01*
X54029686Y-103460090D02*
X54077305Y-103269614D01*
X54077305Y-103269614D02*
X54124924Y-103174376D01*
X54124924Y-103174376D02*
X54220162Y-103079138D01*
X54220162Y-103079138D02*
X54363019Y-103031519D01*
X54363019Y-103031519D02*
X54458257Y-103031519D01*
X54458257Y-103031519D02*
X54601114Y-103079138D01*
X54601114Y-103079138D02*
X54648733Y-103126757D01*
X54982067Y-103031519D02*
X55601114Y-103031519D01*
X55601114Y-103031519D02*
X55267781Y-103412471D01*
X55267781Y-103412471D02*
X55410638Y-103412471D01*
X55410638Y-103412471D02*
X55505876Y-103460090D01*
X55505876Y-103460090D02*
X55553495Y-103507709D01*
X55553495Y-103507709D02*
X55601114Y-103602947D01*
X55601114Y-103602947D02*
X55601114Y-103841042D01*
X55601114Y-103841042D02*
X55553495Y-103936280D01*
X55553495Y-103936280D02*
X55505876Y-103983900D01*
X55505876Y-103983900D02*
X55410638Y-104031519D01*
X55410638Y-104031519D02*
X55124924Y-104031519D01*
X55124924Y-104031519D02*
X55029686Y-103983900D01*
X55029686Y-103983900D02*
X54982067Y-103936280D01*
X63792542Y-101556280D02*
X63744923Y-101603900D01*
X63744923Y-101603900D02*
X63602066Y-101651519D01*
X63602066Y-101651519D02*
X63506828Y-101651519D01*
X63506828Y-101651519D02*
X63363971Y-101603900D01*
X63363971Y-101603900D02*
X63268733Y-101508661D01*
X63268733Y-101508661D02*
X63221114Y-101413423D01*
X63221114Y-101413423D02*
X63173495Y-101222947D01*
X63173495Y-101222947D02*
X63173495Y-101080090D01*
X63173495Y-101080090D02*
X63221114Y-100889614D01*
X63221114Y-100889614D02*
X63268733Y-100794376D01*
X63268733Y-100794376D02*
X63363971Y-100699138D01*
X63363971Y-100699138D02*
X63506828Y-100651519D01*
X63506828Y-100651519D02*
X63602066Y-100651519D01*
X63602066Y-100651519D02*
X63744923Y-100699138D01*
X63744923Y-100699138D02*
X63792542Y-100746757D01*
X64744923Y-101651519D02*
X64173495Y-101651519D01*
X64459209Y-101651519D02*
X64459209Y-100651519D01*
X64459209Y-100651519D02*
X64363971Y-100794376D01*
X64363971Y-100794376D02*
X64268733Y-100889614D01*
X64268733Y-100889614D02*
X64173495Y-100937233D01*
X65649685Y-100651519D02*
X65173495Y-100651519D01*
X65173495Y-100651519D02*
X65125876Y-101127709D01*
X65125876Y-101127709D02*
X65173495Y-101080090D01*
X65173495Y-101080090D02*
X65268733Y-101032471D01*
X65268733Y-101032471D02*
X65506828Y-101032471D01*
X65506828Y-101032471D02*
X65602066Y-101080090D01*
X65602066Y-101080090D02*
X65649685Y-101127709D01*
X65649685Y-101127709D02*
X65697304Y-101222947D01*
X65697304Y-101222947D02*
X65697304Y-101461042D01*
X65697304Y-101461042D02*
X65649685Y-101556280D01*
X65649685Y-101556280D02*
X65602066Y-101603900D01*
X65602066Y-101603900D02*
X65506828Y-101651519D01*
X65506828Y-101651519D02*
X65268733Y-101651519D01*
X65268733Y-101651519D02*
X65173495Y-101603900D01*
X65173495Y-101603900D02*
X65125876Y-101556280D01*
X63792542Y-104566280D02*
X63744923Y-104613900D01*
X63744923Y-104613900D02*
X63602066Y-104661519D01*
X63602066Y-104661519D02*
X63506828Y-104661519D01*
X63506828Y-104661519D02*
X63363971Y-104613900D01*
X63363971Y-104613900D02*
X63268733Y-104518661D01*
X63268733Y-104518661D02*
X63221114Y-104423423D01*
X63221114Y-104423423D02*
X63173495Y-104232947D01*
X63173495Y-104232947D02*
X63173495Y-104090090D01*
X63173495Y-104090090D02*
X63221114Y-103899614D01*
X63221114Y-103899614D02*
X63268733Y-103804376D01*
X63268733Y-103804376D02*
X63363971Y-103709138D01*
X63363971Y-103709138D02*
X63506828Y-103661519D01*
X63506828Y-103661519D02*
X63602066Y-103661519D01*
X63602066Y-103661519D02*
X63744923Y-103709138D01*
X63744923Y-103709138D02*
X63792542Y-103756757D01*
X64744923Y-104661519D02*
X64173495Y-104661519D01*
X64459209Y-104661519D02*
X64459209Y-103661519D01*
X64459209Y-103661519D02*
X64363971Y-103804376D01*
X64363971Y-103804376D02*
X64268733Y-103899614D01*
X64268733Y-103899614D02*
X64173495Y-103947233D01*
X65602066Y-103661519D02*
X65411590Y-103661519D01*
X65411590Y-103661519D02*
X65316352Y-103709138D01*
X65316352Y-103709138D02*
X65268733Y-103756757D01*
X65268733Y-103756757D02*
X65173495Y-103899614D01*
X65173495Y-103899614D02*
X65125876Y-104090090D01*
X65125876Y-104090090D02*
X65125876Y-104471042D01*
X65125876Y-104471042D02*
X65173495Y-104566280D01*
X65173495Y-104566280D02*
X65221114Y-104613900D01*
X65221114Y-104613900D02*
X65316352Y-104661519D01*
X65316352Y-104661519D02*
X65506828Y-104661519D01*
X65506828Y-104661519D02*
X65602066Y-104613900D01*
X65602066Y-104613900D02*
X65649685Y-104566280D01*
X65649685Y-104566280D02*
X65697304Y-104471042D01*
X65697304Y-104471042D02*
X65697304Y-104232947D01*
X65697304Y-104232947D02*
X65649685Y-104137709D01*
X65649685Y-104137709D02*
X65602066Y-104090090D01*
X65602066Y-104090090D02*
X65506828Y-104042471D01*
X65506828Y-104042471D02*
X65316352Y-104042471D01*
X65316352Y-104042471D02*
X65221114Y-104090090D01*
X65221114Y-104090090D02*
X65173495Y-104137709D01*
X65173495Y-104137709D02*
X65125876Y-104232947D01*
X73100595Y-75279819D02*
X73100595Y-76089342D01*
X73100595Y-76089342D02*
X73148214Y-76184580D01*
X73148214Y-76184580D02*
X73195833Y-76232200D01*
X73195833Y-76232200D02*
X73291071Y-76279819D01*
X73291071Y-76279819D02*
X73481547Y-76279819D01*
X73481547Y-76279819D02*
X73576785Y-76232200D01*
X73576785Y-76232200D02*
X73624404Y-76184580D01*
X73624404Y-76184580D02*
X73672023Y-76089342D01*
X73672023Y-76089342D02*
X73672023Y-75279819D01*
X74672023Y-76279819D02*
X74100595Y-76279819D01*
X74386309Y-76279819D02*
X74386309Y-75279819D01*
X74386309Y-75279819D02*
X74291071Y-75422676D01*
X74291071Y-75422676D02*
X74195833Y-75517914D01*
X74195833Y-75517914D02*
X74100595Y-75565533D01*
X59458733Y-100926280D02*
X59411114Y-100973900D01*
X59411114Y-100973900D02*
X59268257Y-101021519D01*
X59268257Y-101021519D02*
X59173019Y-101021519D01*
X59173019Y-101021519D02*
X59030162Y-100973900D01*
X59030162Y-100973900D02*
X58934924Y-100878661D01*
X58934924Y-100878661D02*
X58887305Y-100783423D01*
X58887305Y-100783423D02*
X58839686Y-100592947D01*
X58839686Y-100592947D02*
X58839686Y-100450090D01*
X58839686Y-100450090D02*
X58887305Y-100259614D01*
X58887305Y-100259614D02*
X58934924Y-100164376D01*
X58934924Y-100164376D02*
X59030162Y-100069138D01*
X59030162Y-100069138D02*
X59173019Y-100021519D01*
X59173019Y-100021519D02*
X59268257Y-100021519D01*
X59268257Y-100021519D02*
X59411114Y-100069138D01*
X59411114Y-100069138D02*
X59458733Y-100116757D01*
X60030162Y-100450090D02*
X59934924Y-100402471D01*
X59934924Y-100402471D02*
X59887305Y-100354852D01*
X59887305Y-100354852D02*
X59839686Y-100259614D01*
X59839686Y-100259614D02*
X59839686Y-100211995D01*
X59839686Y-100211995D02*
X59887305Y-100116757D01*
X59887305Y-100116757D02*
X59934924Y-100069138D01*
X59934924Y-100069138D02*
X60030162Y-100021519D01*
X60030162Y-100021519D02*
X60220638Y-100021519D01*
X60220638Y-100021519D02*
X60315876Y-100069138D01*
X60315876Y-100069138D02*
X60363495Y-100116757D01*
X60363495Y-100116757D02*
X60411114Y-100211995D01*
X60411114Y-100211995D02*
X60411114Y-100259614D01*
X60411114Y-100259614D02*
X60363495Y-100354852D01*
X60363495Y-100354852D02*
X60315876Y-100402471D01*
X60315876Y-100402471D02*
X60220638Y-100450090D01*
X60220638Y-100450090D02*
X60030162Y-100450090D01*
X60030162Y-100450090D02*
X59934924Y-100497709D01*
X59934924Y-100497709D02*
X59887305Y-100545328D01*
X59887305Y-100545328D02*
X59839686Y-100640566D01*
X59839686Y-100640566D02*
X59839686Y-100831042D01*
X59839686Y-100831042D02*
X59887305Y-100926280D01*
X59887305Y-100926280D02*
X59934924Y-100973900D01*
X59934924Y-100973900D02*
X60030162Y-101021519D01*
X60030162Y-101021519D02*
X60220638Y-101021519D01*
X60220638Y-101021519D02*
X60315876Y-100973900D01*
X60315876Y-100973900D02*
X60363495Y-100926280D01*
X60363495Y-100926280D02*
X60411114Y-100831042D01*
X60411114Y-100831042D02*
X60411114Y-100640566D01*
X60411114Y-100640566D02*
X60363495Y-100545328D01*
X60363495Y-100545328D02*
X60315876Y-100497709D01*
X60315876Y-100497709D02*
X60220638Y-100450090D01*
X54648733Y-109956280D02*
X54601114Y-110003900D01*
X54601114Y-110003900D02*
X54458257Y-110051519D01*
X54458257Y-110051519D02*
X54363019Y-110051519D01*
X54363019Y-110051519D02*
X54220162Y-110003900D01*
X54220162Y-110003900D02*
X54124924Y-109908661D01*
X54124924Y-109908661D02*
X54077305Y-109813423D01*
X54077305Y-109813423D02*
X54029686Y-109622947D01*
X54029686Y-109622947D02*
X54029686Y-109480090D01*
X54029686Y-109480090D02*
X54077305Y-109289614D01*
X54077305Y-109289614D02*
X54124924Y-109194376D01*
X54124924Y-109194376D02*
X54220162Y-109099138D01*
X54220162Y-109099138D02*
X54363019Y-109051519D01*
X54363019Y-109051519D02*
X54458257Y-109051519D01*
X54458257Y-109051519D02*
X54601114Y-109099138D01*
X54601114Y-109099138D02*
X54648733Y-109146757D01*
X55553495Y-109051519D02*
X55077305Y-109051519D01*
X55077305Y-109051519D02*
X55029686Y-109527709D01*
X55029686Y-109527709D02*
X55077305Y-109480090D01*
X55077305Y-109480090D02*
X55172543Y-109432471D01*
X55172543Y-109432471D02*
X55410638Y-109432471D01*
X55410638Y-109432471D02*
X55505876Y-109480090D01*
X55505876Y-109480090D02*
X55553495Y-109527709D01*
X55553495Y-109527709D02*
X55601114Y-109622947D01*
X55601114Y-109622947D02*
X55601114Y-109861042D01*
X55601114Y-109861042D02*
X55553495Y-109956280D01*
X55553495Y-109956280D02*
X55505876Y-110003900D01*
X55505876Y-110003900D02*
X55410638Y-110051519D01*
X55410638Y-110051519D02*
X55172543Y-110051519D01*
X55172543Y-110051519D02*
X55077305Y-110003900D01*
X55077305Y-110003900D02*
X55029686Y-109956280D01*
X1262142Y315419D02*
X1214523Y267800D01*
X1214523Y267800D02*
X1071666Y220180D01*
X1071666Y220180D02*
X976428Y220180D01*
X976428Y220180D02*
X833571Y267800D01*
X833571Y267800D02*
X738333Y363038D01*
X738333Y363038D02*
X690714Y458276D01*
X690714Y458276D02*
X643095Y648752D01*
X643095Y648752D02*
X643095Y791609D01*
X643095Y791609D02*
X690714Y982085D01*
X690714Y982085D02*
X738333Y1077323D01*
X738333Y1077323D02*
X833571Y1172561D01*
X833571Y1172561D02*
X976428Y1220180D01*
X976428Y1220180D02*
X1071666Y1220180D01*
X1071666Y1220180D02*
X1214523Y1172561D01*
X1214523Y1172561D02*
X1262142Y1124942D01*
X2214523Y220180D02*
X1643095Y220180D01*
X1928809Y220180D02*
X1928809Y1220180D01*
X1928809Y1220180D02*
X1833571Y1077323D01*
X1833571Y1077323D02*
X1738333Y982085D01*
X1738333Y982085D02*
X1643095Y934466D01*
X3071666Y886847D02*
X3071666Y220180D01*
X2833571Y1267800D02*
X2595476Y553514D01*
X2595476Y553514D02*
X3214523Y553514D01*
X112811905Y-104956819D02*
X113383333Y-104956819D01*
X113097619Y-105956819D02*
X113097619Y-104956819D01*
X113716667Y-105956819D02*
X113716667Y-104956819D01*
X113716667Y-104956819D02*
X114097619Y-104956819D01*
X114097619Y-104956819D02*
X114192857Y-105004438D01*
X114192857Y-105004438D02*
X114240476Y-105052057D01*
X114240476Y-105052057D02*
X114288095Y-105147295D01*
X114288095Y-105147295D02*
X114288095Y-105290152D01*
X114288095Y-105290152D02*
X114240476Y-105385390D01*
X114240476Y-105385390D02*
X114192857Y-105433009D01*
X114192857Y-105433009D02*
X114097619Y-105480628D01*
X114097619Y-105480628D02*
X113716667Y-105480628D01*
X115240476Y-105956819D02*
X114669048Y-105956819D01*
X114954762Y-105956819D02*
X114954762Y-104956819D01*
X114954762Y-104956819D02*
X114859524Y-105099676D01*
X114859524Y-105099676D02*
X114764286Y-105194914D01*
X114764286Y-105194914D02*
X114669048Y-105242533D01*
X115859524Y-104956819D02*
X115954762Y-104956819D01*
X115954762Y-104956819D02*
X116050000Y-105004438D01*
X116050000Y-105004438D02*
X116097619Y-105052057D01*
X116097619Y-105052057D02*
X116145238Y-105147295D01*
X116145238Y-105147295D02*
X116192857Y-105337771D01*
X116192857Y-105337771D02*
X116192857Y-105575866D01*
X116192857Y-105575866D02*
X116145238Y-105766342D01*
X116145238Y-105766342D02*
X116097619Y-105861580D01*
X116097619Y-105861580D02*
X116050000Y-105909200D01*
X116050000Y-105909200D02*
X115954762Y-105956819D01*
X115954762Y-105956819D02*
X115859524Y-105956819D01*
X115859524Y-105956819D02*
X115764286Y-105909200D01*
X115764286Y-105909200D02*
X115716667Y-105861580D01*
X115716667Y-105861580D02*
X115669048Y-105766342D01*
X115669048Y-105766342D02*
X115621429Y-105575866D01*
X115621429Y-105575866D02*
X115621429Y-105337771D01*
X115621429Y-105337771D02*
X115669048Y-105147295D01*
X115669048Y-105147295D02*
X115716667Y-105052057D01*
X115716667Y-105052057D02*
X115764286Y-105004438D01*
X115764286Y-105004438D02*
X115859524Y-104956819D01*
X4596905Y-3681819D02*
X5168333Y-3681819D01*
X4882619Y-4681819D02*
X4882619Y-3681819D01*
X5501667Y-4681819D02*
X5501667Y-3681819D01*
X5501667Y-3681819D02*
X5882619Y-3681819D01*
X5882619Y-3681819D02*
X5977857Y-3729438D01*
X5977857Y-3729438D02*
X6025476Y-3777057D01*
X6025476Y-3777057D02*
X6073095Y-3872295D01*
X6073095Y-3872295D02*
X6073095Y-4015152D01*
X6073095Y-4015152D02*
X6025476Y-4110390D01*
X6025476Y-4110390D02*
X5977857Y-4158009D01*
X5977857Y-4158009D02*
X5882619Y-4205628D01*
X5882619Y-4205628D02*
X5501667Y-4205628D01*
X7025476Y-4681819D02*
X6454048Y-4681819D01*
X6739762Y-4681819D02*
X6739762Y-3681819D01*
X6739762Y-3681819D02*
X6644524Y-3824676D01*
X6644524Y-3824676D02*
X6549286Y-3919914D01*
X6549286Y-3919914D02*
X6454048Y-3967533D01*
X7406429Y-3777057D02*
X7454048Y-3729438D01*
X7454048Y-3729438D02*
X7549286Y-3681819D01*
X7549286Y-3681819D02*
X7787381Y-3681819D01*
X7787381Y-3681819D02*
X7882619Y-3729438D01*
X7882619Y-3729438D02*
X7930238Y-3777057D01*
X7930238Y-3777057D02*
X7977857Y-3872295D01*
X7977857Y-3872295D02*
X7977857Y-3967533D01*
X7977857Y-3967533D02*
X7930238Y-4110390D01*
X7930238Y-4110390D02*
X7358810Y-4681819D01*
X7358810Y-4681819D02*
X7977857Y-4681819D01*
X69471233Y-97891519D02*
X69137900Y-97415328D01*
X68899805Y-97891519D02*
X68899805Y-96891519D01*
X68899805Y-96891519D02*
X69280757Y-96891519D01*
X69280757Y-96891519D02*
X69375995Y-96939138D01*
X69375995Y-96939138D02*
X69423614Y-96986757D01*
X69423614Y-96986757D02*
X69471233Y-97081995D01*
X69471233Y-97081995D02*
X69471233Y-97224852D01*
X69471233Y-97224852D02*
X69423614Y-97320090D01*
X69423614Y-97320090D02*
X69375995Y-97367709D01*
X69375995Y-97367709D02*
X69280757Y-97415328D01*
X69280757Y-97415328D02*
X68899805Y-97415328D01*
X70423614Y-97891519D02*
X69852186Y-97891519D01*
X70137900Y-97891519D02*
X70137900Y-96891519D01*
X70137900Y-96891519D02*
X70042662Y-97034376D01*
X70042662Y-97034376D02*
X69947424Y-97129614D01*
X69947424Y-97129614D02*
X69852186Y-97177233D01*
X1262142Y-2694580D02*
X1214523Y-2742200D01*
X1214523Y-2742200D02*
X1071666Y-2789819D01*
X1071666Y-2789819D02*
X976428Y-2789819D01*
X976428Y-2789819D02*
X833571Y-2742200D01*
X833571Y-2742200D02*
X738333Y-2646961D01*
X738333Y-2646961D02*
X690714Y-2551723D01*
X690714Y-2551723D02*
X643095Y-2361247D01*
X643095Y-2361247D02*
X643095Y-2218390D01*
X643095Y-2218390D02*
X690714Y-2027914D01*
X690714Y-2027914D02*
X738333Y-1932676D01*
X738333Y-1932676D02*
X833571Y-1837438D01*
X833571Y-1837438D02*
X976428Y-1789819D01*
X976428Y-1789819D02*
X1071666Y-1789819D01*
X1071666Y-1789819D02*
X1214523Y-1837438D01*
X1214523Y-1837438D02*
X1262142Y-1885057D01*
X2214523Y-2789819D02*
X1643095Y-2789819D01*
X1928809Y-2789819D02*
X1928809Y-1789819D01*
X1928809Y-1789819D02*
X1833571Y-1932676D01*
X1833571Y-1932676D02*
X1738333Y-2027914D01*
X1738333Y-2027914D02*
X1643095Y-2075533D01*
X2547857Y-1789819D02*
X3214523Y-1789819D01*
X3214523Y-1789819D02*
X2785952Y-2789819D01*
X49513333Y-85445180D02*
X49513333Y-84730895D01*
X49513333Y-84730895D02*
X49560952Y-84588038D01*
X49560952Y-84588038D02*
X49656190Y-84492800D01*
X49656190Y-84492800D02*
X49799047Y-84445180D01*
X49799047Y-84445180D02*
X49894285Y-84445180D01*
X49084761Y-85349942D02*
X49037142Y-85397561D01*
X49037142Y-85397561D02*
X48941904Y-85445180D01*
X48941904Y-85445180D02*
X48703809Y-85445180D01*
X48703809Y-85445180D02*
X48608571Y-85397561D01*
X48608571Y-85397561D02*
X48560952Y-85349942D01*
X48560952Y-85349942D02*
X48513333Y-85254704D01*
X48513333Y-85254704D02*
X48513333Y-85159466D01*
X48513333Y-85159466D02*
X48560952Y-85016609D01*
X48560952Y-85016609D02*
X49132380Y-84445180D01*
X49132380Y-84445180D02*
X48513333Y-84445180D01*
X105188095Y-113056819D02*
X105759523Y-113056819D01*
X105473809Y-114056819D02*
X105473809Y-113056819D01*
X106092857Y-114056819D02*
X106092857Y-113056819D01*
X106092857Y-113056819D02*
X106473809Y-113056819D01*
X106473809Y-113056819D02*
X106569047Y-113104438D01*
X106569047Y-113104438D02*
X106616666Y-113152057D01*
X106616666Y-113152057D02*
X106664285Y-113247295D01*
X106664285Y-113247295D02*
X106664285Y-113390152D01*
X106664285Y-113390152D02*
X106616666Y-113485390D01*
X106616666Y-113485390D02*
X106569047Y-113533009D01*
X106569047Y-113533009D02*
X106473809Y-113580628D01*
X106473809Y-113580628D02*
X106092857Y-113580628D01*
X107521428Y-113390152D02*
X107521428Y-114056819D01*
X107283333Y-113009200D02*
X107045238Y-113723485D01*
X107045238Y-113723485D02*
X107664285Y-113723485D01*
X54648733Y-106946280D02*
X54601114Y-106993900D01*
X54601114Y-106993900D02*
X54458257Y-107041519D01*
X54458257Y-107041519D02*
X54363019Y-107041519D01*
X54363019Y-107041519D02*
X54220162Y-106993900D01*
X54220162Y-106993900D02*
X54124924Y-106898661D01*
X54124924Y-106898661D02*
X54077305Y-106803423D01*
X54077305Y-106803423D02*
X54029686Y-106612947D01*
X54029686Y-106612947D02*
X54029686Y-106470090D01*
X54029686Y-106470090D02*
X54077305Y-106279614D01*
X54077305Y-106279614D02*
X54124924Y-106184376D01*
X54124924Y-106184376D02*
X54220162Y-106089138D01*
X54220162Y-106089138D02*
X54363019Y-106041519D01*
X54363019Y-106041519D02*
X54458257Y-106041519D01*
X54458257Y-106041519D02*
X54601114Y-106089138D01*
X54601114Y-106089138D02*
X54648733Y-106136757D01*
X55505876Y-106374852D02*
X55505876Y-107041519D01*
X55267781Y-105993900D02*
X55029686Y-106708185D01*
X55029686Y-106708185D02*
X55648733Y-106708185D01*
X58982542Y-112966280D02*
X58934923Y-113013900D01*
X58934923Y-113013900D02*
X58792066Y-113061519D01*
X58792066Y-113061519D02*
X58696828Y-113061519D01*
X58696828Y-113061519D02*
X58553971Y-113013900D01*
X58553971Y-113013900D02*
X58458733Y-112918661D01*
X58458733Y-112918661D02*
X58411114Y-112823423D01*
X58411114Y-112823423D02*
X58363495Y-112632947D01*
X58363495Y-112632947D02*
X58363495Y-112490090D01*
X58363495Y-112490090D02*
X58411114Y-112299614D01*
X58411114Y-112299614D02*
X58458733Y-112204376D01*
X58458733Y-112204376D02*
X58553971Y-112109138D01*
X58553971Y-112109138D02*
X58696828Y-112061519D01*
X58696828Y-112061519D02*
X58792066Y-112061519D01*
X58792066Y-112061519D02*
X58934923Y-112109138D01*
X58934923Y-112109138D02*
X58982542Y-112156757D01*
X59934923Y-113061519D02*
X59363495Y-113061519D01*
X59649209Y-113061519D02*
X59649209Y-112061519D01*
X59649209Y-112061519D02*
X59553971Y-112204376D01*
X59553971Y-112204376D02*
X59458733Y-112299614D01*
X59458733Y-112299614D02*
X59363495Y-112347233D01*
X60315876Y-112156757D02*
X60363495Y-112109138D01*
X60363495Y-112109138D02*
X60458733Y-112061519D01*
X60458733Y-112061519D02*
X60696828Y-112061519D01*
X60696828Y-112061519D02*
X60792066Y-112109138D01*
X60792066Y-112109138D02*
X60839685Y-112156757D01*
X60839685Y-112156757D02*
X60887304Y-112251995D01*
X60887304Y-112251995D02*
X60887304Y-112347233D01*
X60887304Y-112347233D02*
X60839685Y-112490090D01*
X60839685Y-112490090D02*
X60268257Y-113061519D01*
X60268257Y-113061519D02*
X60887304Y-113061519D01*
X51265833Y-86404819D02*
X50932500Y-85928628D01*
X50694405Y-86404819D02*
X50694405Y-85404819D01*
X50694405Y-85404819D02*
X51075357Y-85404819D01*
X51075357Y-85404819D02*
X51170595Y-85452438D01*
X51170595Y-85452438D02*
X51218214Y-85500057D01*
X51218214Y-85500057D02*
X51265833Y-85595295D01*
X51265833Y-85595295D02*
X51265833Y-85738152D01*
X51265833Y-85738152D02*
X51218214Y-85833390D01*
X51218214Y-85833390D02*
X51170595Y-85881009D01*
X51170595Y-85881009D02*
X51075357Y-85928628D01*
X51075357Y-85928628D02*
X50694405Y-85928628D01*
X52170595Y-85404819D02*
X51694405Y-85404819D01*
X51694405Y-85404819D02*
X51646786Y-85881009D01*
X51646786Y-85881009D02*
X51694405Y-85833390D01*
X51694405Y-85833390D02*
X51789643Y-85785771D01*
X51789643Y-85785771D02*
X52027738Y-85785771D01*
X52027738Y-85785771D02*
X52122976Y-85833390D01*
X52122976Y-85833390D02*
X52170595Y-85881009D01*
X52170595Y-85881009D02*
X52218214Y-85976247D01*
X52218214Y-85976247D02*
X52218214Y-86214342D01*
X52218214Y-86214342D02*
X52170595Y-86309580D01*
X52170595Y-86309580D02*
X52122976Y-86357200D01*
X52122976Y-86357200D02*
X52027738Y-86404819D01*
X52027738Y-86404819D02*
X51789643Y-86404819D01*
X51789643Y-86404819D02*
X51694405Y-86357200D01*
X51694405Y-86357200D02*
X51646786Y-86309580D01*
X101044343Y-92202319D02*
X101044343Y-93011842D01*
X101044343Y-93011842D02*
X101091962Y-93107080D01*
X101091962Y-93107080D02*
X101139581Y-93154700D01*
X101139581Y-93154700D02*
X101234819Y-93202319D01*
X101234819Y-93202319D02*
X101425295Y-93202319D01*
X101425295Y-93202319D02*
X101520533Y-93154700D01*
X101520533Y-93154700D02*
X101568152Y-93107080D01*
X101568152Y-93107080D02*
X101615771Y-93011842D01*
X101615771Y-93011842D02*
X101615771Y-92202319D01*
X102520533Y-92535652D02*
X102520533Y-93202319D01*
X102282438Y-92154700D02*
X102044343Y-92868985D01*
X102044343Y-92868985D02*
X102663390Y-92868985D01*
X92927142Y-93889580D02*
X92879523Y-93937200D01*
X92879523Y-93937200D02*
X92736666Y-93984819D01*
X92736666Y-93984819D02*
X92641428Y-93984819D01*
X92641428Y-93984819D02*
X92498571Y-93937200D01*
X92498571Y-93937200D02*
X92403333Y-93841961D01*
X92403333Y-93841961D02*
X92355714Y-93746723D01*
X92355714Y-93746723D02*
X92308095Y-93556247D01*
X92308095Y-93556247D02*
X92308095Y-93413390D01*
X92308095Y-93413390D02*
X92355714Y-93222914D01*
X92355714Y-93222914D02*
X92403333Y-93127676D01*
X92403333Y-93127676D02*
X92498571Y-93032438D01*
X92498571Y-93032438D02*
X92641428Y-92984819D01*
X92641428Y-92984819D02*
X92736666Y-92984819D01*
X92736666Y-92984819D02*
X92879523Y-93032438D01*
X92879523Y-93032438D02*
X92927142Y-93080057D01*
X93879523Y-93984819D02*
X93308095Y-93984819D01*
X93593809Y-93984819D02*
X93593809Y-92984819D01*
X93593809Y-92984819D02*
X93498571Y-93127676D01*
X93498571Y-93127676D02*
X93403333Y-93222914D01*
X93403333Y-93222914D02*
X93308095Y-93270533D01*
X94736666Y-93318152D02*
X94736666Y-93984819D01*
X94498571Y-92937200D02*
X94260476Y-93651485D01*
X94260476Y-93651485D02*
X94879523Y-93651485D01*
X70118733Y-115641519D02*
X69785400Y-115165328D01*
X69547305Y-115641519D02*
X69547305Y-114641519D01*
X69547305Y-114641519D02*
X69928257Y-114641519D01*
X69928257Y-114641519D02*
X70023495Y-114689138D01*
X70023495Y-114689138D02*
X70071114Y-114736757D01*
X70071114Y-114736757D02*
X70118733Y-114831995D01*
X70118733Y-114831995D02*
X70118733Y-114974852D01*
X70118733Y-114974852D02*
X70071114Y-115070090D01*
X70071114Y-115070090D02*
X70023495Y-115117709D01*
X70023495Y-115117709D02*
X69928257Y-115165328D01*
X69928257Y-115165328D02*
X69547305Y-115165328D01*
X70690162Y-115070090D02*
X70594924Y-115022471D01*
X70594924Y-115022471D02*
X70547305Y-114974852D01*
X70547305Y-114974852D02*
X70499686Y-114879614D01*
X70499686Y-114879614D02*
X70499686Y-114831995D01*
X70499686Y-114831995D02*
X70547305Y-114736757D01*
X70547305Y-114736757D02*
X70594924Y-114689138D01*
X70594924Y-114689138D02*
X70690162Y-114641519D01*
X70690162Y-114641519D02*
X70880638Y-114641519D01*
X70880638Y-114641519D02*
X70975876Y-114689138D01*
X70975876Y-114689138D02*
X71023495Y-114736757D01*
X71023495Y-114736757D02*
X71071114Y-114831995D01*
X71071114Y-114831995D02*
X71071114Y-114879614D01*
X71071114Y-114879614D02*
X71023495Y-114974852D01*
X71023495Y-114974852D02*
X70975876Y-115022471D01*
X70975876Y-115022471D02*
X70880638Y-115070090D01*
X70880638Y-115070090D02*
X70690162Y-115070090D01*
X70690162Y-115070090D02*
X70594924Y-115117709D01*
X70594924Y-115117709D02*
X70547305Y-115165328D01*
X70547305Y-115165328D02*
X70499686Y-115260566D01*
X70499686Y-115260566D02*
X70499686Y-115451042D01*
X70499686Y-115451042D02*
X70547305Y-115546280D01*
X70547305Y-115546280D02*
X70594924Y-115593900D01*
X70594924Y-115593900D02*
X70690162Y-115641519D01*
X70690162Y-115641519D02*
X70880638Y-115641519D01*
X70880638Y-115641519D02*
X70975876Y-115593900D01*
X70975876Y-115593900D02*
X71023495Y-115546280D01*
X71023495Y-115546280D02*
X71071114Y-115451042D01*
X71071114Y-115451042D02*
X71071114Y-115260566D01*
X71071114Y-115260566D02*
X71023495Y-115165328D01*
X71023495Y-115165328D02*
X70975876Y-115117709D01*
X70975876Y-115117709D02*
X70880638Y-115070090D01*
X63792542Y-97916280D02*
X63744923Y-97963900D01*
X63744923Y-97963900D02*
X63602066Y-98011519D01*
X63602066Y-98011519D02*
X63506828Y-98011519D01*
X63506828Y-98011519D02*
X63363971Y-97963900D01*
X63363971Y-97963900D02*
X63268733Y-97868661D01*
X63268733Y-97868661D02*
X63221114Y-97773423D01*
X63221114Y-97773423D02*
X63173495Y-97582947D01*
X63173495Y-97582947D02*
X63173495Y-97440090D01*
X63173495Y-97440090D02*
X63221114Y-97249614D01*
X63221114Y-97249614D02*
X63268733Y-97154376D01*
X63268733Y-97154376D02*
X63363971Y-97059138D01*
X63363971Y-97059138D02*
X63506828Y-97011519D01*
X63506828Y-97011519D02*
X63602066Y-97011519D01*
X63602066Y-97011519D02*
X63744923Y-97059138D01*
X63744923Y-97059138D02*
X63792542Y-97106757D01*
X64744923Y-98011519D02*
X64173495Y-98011519D01*
X64459209Y-98011519D02*
X64459209Y-97011519D01*
X64459209Y-97011519D02*
X64363971Y-97154376D01*
X64363971Y-97154376D02*
X64268733Y-97249614D01*
X64268733Y-97249614D02*
X64173495Y-97297233D01*
X65078257Y-97011519D02*
X65697304Y-97011519D01*
X65697304Y-97011519D02*
X65363971Y-97392471D01*
X65363971Y-97392471D02*
X65506828Y-97392471D01*
X65506828Y-97392471D02*
X65602066Y-97440090D01*
X65602066Y-97440090D02*
X65649685Y-97487709D01*
X65649685Y-97487709D02*
X65697304Y-97582947D01*
X65697304Y-97582947D02*
X65697304Y-97821042D01*
X65697304Y-97821042D02*
X65649685Y-97916280D01*
X65649685Y-97916280D02*
X65602066Y-97963900D01*
X65602066Y-97963900D02*
X65506828Y-98011519D01*
X65506828Y-98011519D02*
X65221114Y-98011519D01*
X65221114Y-98011519D02*
X65125876Y-97963900D01*
X65125876Y-97963900D02*
X65078257Y-97916280D01*
X69710042Y-109541519D02*
X69376709Y-109065328D01*
X69138614Y-109541519D02*
X69138614Y-108541519D01*
X69138614Y-108541519D02*
X69519566Y-108541519D01*
X69519566Y-108541519D02*
X69614804Y-108589138D01*
X69614804Y-108589138D02*
X69662423Y-108636757D01*
X69662423Y-108636757D02*
X69710042Y-108731995D01*
X69710042Y-108731995D02*
X69710042Y-108874852D01*
X69710042Y-108874852D02*
X69662423Y-108970090D01*
X69662423Y-108970090D02*
X69614804Y-109017709D01*
X69614804Y-109017709D02*
X69519566Y-109065328D01*
X69519566Y-109065328D02*
X69138614Y-109065328D01*
X70662423Y-109541519D02*
X70090995Y-109541519D01*
X70376709Y-109541519D02*
X70376709Y-108541519D01*
X70376709Y-108541519D02*
X70281471Y-108684376D01*
X70281471Y-108684376D02*
X70186233Y-108779614D01*
X70186233Y-108779614D02*
X70090995Y-108827233D01*
X71614804Y-109541519D02*
X71043376Y-109541519D01*
X71329090Y-109541519D02*
X71329090Y-108541519D01*
X71329090Y-108541519D02*
X71233852Y-108684376D01*
X71233852Y-108684376D02*
X71138614Y-108779614D01*
X71138614Y-108779614D02*
X71043376Y-108827233D01*
X45261905Y-86454819D02*
X45261905Y-85454819D01*
X45261905Y-85454819D02*
X45500000Y-85454819D01*
X45500000Y-85454819D02*
X45642857Y-85502438D01*
X45642857Y-85502438D02*
X45738095Y-85597676D01*
X45738095Y-85597676D02*
X45785714Y-85692914D01*
X45785714Y-85692914D02*
X45833333Y-85883390D01*
X45833333Y-85883390D02*
X45833333Y-86026247D01*
X45833333Y-86026247D02*
X45785714Y-86216723D01*
X45785714Y-86216723D02*
X45738095Y-86311961D01*
X45738095Y-86311961D02*
X45642857Y-86407200D01*
X45642857Y-86407200D02*
X45500000Y-86454819D01*
X45500000Y-86454819D02*
X45261905Y-86454819D01*
X46785714Y-86454819D02*
X46214286Y-86454819D01*
X46500000Y-86454819D02*
X46500000Y-85454819D01*
X46500000Y-85454819D02*
X46404762Y-85597676D01*
X46404762Y-85597676D02*
X46309524Y-85692914D01*
X46309524Y-85692914D02*
X46214286Y-85740533D01*
X105188095Y-109006819D02*
X105759523Y-109006819D01*
X105473809Y-110006819D02*
X105473809Y-109006819D01*
X106092857Y-110006819D02*
X106092857Y-109006819D01*
X106092857Y-109006819D02*
X106473809Y-109006819D01*
X106473809Y-109006819D02*
X106569047Y-109054438D01*
X106569047Y-109054438D02*
X106616666Y-109102057D01*
X106616666Y-109102057D02*
X106664285Y-109197295D01*
X106664285Y-109197295D02*
X106664285Y-109340152D01*
X106664285Y-109340152D02*
X106616666Y-109435390D01*
X106616666Y-109435390D02*
X106569047Y-109483009D01*
X106569047Y-109483009D02*
X106473809Y-109530628D01*
X106473809Y-109530628D02*
X106092857Y-109530628D01*
X106997619Y-109006819D02*
X107616666Y-109006819D01*
X107616666Y-109006819D02*
X107283333Y-109387771D01*
X107283333Y-109387771D02*
X107426190Y-109387771D01*
X107426190Y-109387771D02*
X107521428Y-109435390D01*
X107521428Y-109435390D02*
X107569047Y-109483009D01*
X107569047Y-109483009D02*
X107616666Y-109578247D01*
X107616666Y-109578247D02*
X107616666Y-109816342D01*
X107616666Y-109816342D02*
X107569047Y-109911580D01*
X107569047Y-109911580D02*
X107521428Y-109959200D01*
X107521428Y-109959200D02*
X107426190Y-110006819D01*
X107426190Y-110006819D02*
X107140476Y-110006819D01*
X107140476Y-110006819D02*
X107045238Y-109959200D01*
X107045238Y-109959200D02*
X106997619Y-109911580D01*
X105444819Y-126103333D02*
X106159104Y-126103333D01*
X106159104Y-126103333D02*
X106301961Y-126150952D01*
X106301961Y-126150952D02*
X106397200Y-126246190D01*
X106397200Y-126246190D02*
X106444819Y-126389047D01*
X106444819Y-126389047D02*
X106444819Y-126484285D01*
X106444819Y-125103333D02*
X106444819Y-125674761D01*
X106444819Y-125389047D02*
X105444819Y-125389047D01*
X105444819Y-125389047D02*
X105587676Y-125484285D01*
X105587676Y-125484285D02*
X105682914Y-125579523D01*
X105682914Y-125579523D02*
X105730533Y-125674761D01*
X75598733Y-109761519D02*
X75265400Y-109285328D01*
X75027305Y-109761519D02*
X75027305Y-108761519D01*
X75027305Y-108761519D02*
X75408257Y-108761519D01*
X75408257Y-108761519D02*
X75503495Y-108809138D01*
X75503495Y-108809138D02*
X75551114Y-108856757D01*
X75551114Y-108856757D02*
X75598733Y-108951995D01*
X75598733Y-108951995D02*
X75598733Y-109094852D01*
X75598733Y-109094852D02*
X75551114Y-109190090D01*
X75551114Y-109190090D02*
X75503495Y-109237709D01*
X75503495Y-109237709D02*
X75408257Y-109285328D01*
X75408257Y-109285328D02*
X75027305Y-109285328D01*
X75932067Y-108761519D02*
X76598733Y-108761519D01*
X76598733Y-108761519D02*
X76170162Y-109761519D01*
X59458733Y-97916280D02*
X59411114Y-97963900D01*
X59411114Y-97963900D02*
X59268257Y-98011519D01*
X59268257Y-98011519D02*
X59173019Y-98011519D01*
X59173019Y-98011519D02*
X59030162Y-97963900D01*
X59030162Y-97963900D02*
X58934924Y-97868661D01*
X58934924Y-97868661D02*
X58887305Y-97773423D01*
X58887305Y-97773423D02*
X58839686Y-97582947D01*
X58839686Y-97582947D02*
X58839686Y-97440090D01*
X58839686Y-97440090D02*
X58887305Y-97249614D01*
X58887305Y-97249614D02*
X58934924Y-97154376D01*
X58934924Y-97154376D02*
X59030162Y-97059138D01*
X59030162Y-97059138D02*
X59173019Y-97011519D01*
X59173019Y-97011519D02*
X59268257Y-97011519D01*
X59268257Y-97011519D02*
X59411114Y-97059138D01*
X59411114Y-97059138D02*
X59458733Y-97106757D01*
X59792067Y-97011519D02*
X60458733Y-97011519D01*
X60458733Y-97011519D02*
X60030162Y-98011519D01*
X45194405Y-90404819D02*
X45194405Y-89404819D01*
X45194405Y-89404819D02*
X45432500Y-89404819D01*
X45432500Y-89404819D02*
X45575357Y-89452438D01*
X45575357Y-89452438D02*
X45670595Y-89547676D01*
X45670595Y-89547676D02*
X45718214Y-89642914D01*
X45718214Y-89642914D02*
X45765833Y-89833390D01*
X45765833Y-89833390D02*
X45765833Y-89976247D01*
X45765833Y-89976247D02*
X45718214Y-90166723D01*
X45718214Y-90166723D02*
X45670595Y-90261961D01*
X45670595Y-90261961D02*
X45575357Y-90357200D01*
X45575357Y-90357200D02*
X45432500Y-90404819D01*
X45432500Y-90404819D02*
X45194405Y-90404819D01*
X46099167Y-89404819D02*
X46718214Y-89404819D01*
X46718214Y-89404819D02*
X46384881Y-89785771D01*
X46384881Y-89785771D02*
X46527738Y-89785771D01*
X46527738Y-89785771D02*
X46622976Y-89833390D01*
X46622976Y-89833390D02*
X46670595Y-89881009D01*
X46670595Y-89881009D02*
X46718214Y-89976247D01*
X46718214Y-89976247D02*
X46718214Y-90214342D01*
X46718214Y-90214342D02*
X46670595Y-90309580D01*
X46670595Y-90309580D02*
X46622976Y-90357200D01*
X46622976Y-90357200D02*
X46527738Y-90404819D01*
X46527738Y-90404819D02*
X46242024Y-90404819D01*
X46242024Y-90404819D02*
X46146786Y-90357200D01*
X46146786Y-90357200D02*
X46099167Y-90309580D01*
X105188095Y-104956819D02*
X105759523Y-104956819D01*
X105473809Y-105956819D02*
X105473809Y-104956819D01*
X106092857Y-105956819D02*
X106092857Y-104956819D01*
X106092857Y-104956819D02*
X106473809Y-104956819D01*
X106473809Y-104956819D02*
X106569047Y-105004438D01*
X106569047Y-105004438D02*
X106616666Y-105052057D01*
X106616666Y-105052057D02*
X106664285Y-105147295D01*
X106664285Y-105147295D02*
X106664285Y-105290152D01*
X106664285Y-105290152D02*
X106616666Y-105385390D01*
X106616666Y-105385390D02*
X106569047Y-105433009D01*
X106569047Y-105433009D02*
X106473809Y-105480628D01*
X106473809Y-105480628D02*
X106092857Y-105480628D01*
X107045238Y-105052057D02*
X107092857Y-105004438D01*
X107092857Y-105004438D02*
X107188095Y-104956819D01*
X107188095Y-104956819D02*
X107426190Y-104956819D01*
X107426190Y-104956819D02*
X107521428Y-105004438D01*
X107521428Y-105004438D02*
X107569047Y-105052057D01*
X107569047Y-105052057D02*
X107616666Y-105147295D01*
X107616666Y-105147295D02*
X107616666Y-105242533D01*
X107616666Y-105242533D02*
X107569047Y-105385390D01*
X107569047Y-105385390D02*
X106997619Y-105956819D01*
X106997619Y-105956819D02*
X107616666Y-105956819D01*
X87544343Y-109602319D02*
X87544343Y-110411842D01*
X87544343Y-110411842D02*
X87591962Y-110507080D01*
X87591962Y-110507080D02*
X87639581Y-110554700D01*
X87639581Y-110554700D02*
X87734819Y-110602319D01*
X87734819Y-110602319D02*
X87925295Y-110602319D01*
X87925295Y-110602319D02*
X88020533Y-110554700D01*
X88020533Y-110554700D02*
X88068152Y-110507080D01*
X88068152Y-110507080D02*
X88115771Y-110411842D01*
X88115771Y-110411842D02*
X88115771Y-109602319D01*
X88496724Y-109602319D02*
X89163390Y-109602319D01*
X89163390Y-109602319D02*
X88734819Y-110602319D01*
X63837142Y-94239819D02*
X63503809Y-93763628D01*
X63265714Y-94239819D02*
X63265714Y-93239819D01*
X63265714Y-93239819D02*
X63646666Y-93239819D01*
X63646666Y-93239819D02*
X63741904Y-93287438D01*
X63741904Y-93287438D02*
X63789523Y-93335057D01*
X63789523Y-93335057D02*
X63837142Y-93430295D01*
X63837142Y-93430295D02*
X63837142Y-93573152D01*
X63837142Y-93573152D02*
X63789523Y-93668390D01*
X63789523Y-93668390D02*
X63741904Y-93716009D01*
X63741904Y-93716009D02*
X63646666Y-93763628D01*
X63646666Y-93763628D02*
X63265714Y-93763628D01*
X64789523Y-94239819D02*
X64218095Y-94239819D01*
X64503809Y-94239819D02*
X64503809Y-93239819D01*
X64503809Y-93239819D02*
X64408571Y-93382676D01*
X64408571Y-93382676D02*
X64313333Y-93477914D01*
X64313333Y-93477914D02*
X64218095Y-93525533D01*
X65646666Y-93573152D02*
X65646666Y-94239819D01*
X65408571Y-93192200D02*
X65170476Y-93906485D01*
X65170476Y-93906485D02*
X65789523Y-93906485D01*
X54648733Y-112966280D02*
X54601114Y-113013900D01*
X54601114Y-113013900D02*
X54458257Y-113061519D01*
X54458257Y-113061519D02*
X54363019Y-113061519D01*
X54363019Y-113061519D02*
X54220162Y-113013900D01*
X54220162Y-113013900D02*
X54124924Y-112918661D01*
X54124924Y-112918661D02*
X54077305Y-112823423D01*
X54077305Y-112823423D02*
X54029686Y-112632947D01*
X54029686Y-112632947D02*
X54029686Y-112490090D01*
X54029686Y-112490090D02*
X54077305Y-112299614D01*
X54077305Y-112299614D02*
X54124924Y-112204376D01*
X54124924Y-112204376D02*
X54220162Y-112109138D01*
X54220162Y-112109138D02*
X54363019Y-112061519D01*
X54363019Y-112061519D02*
X54458257Y-112061519D01*
X54458257Y-112061519D02*
X54601114Y-112109138D01*
X54601114Y-112109138D02*
X54648733Y-112156757D01*
X55505876Y-112061519D02*
X55315400Y-112061519D01*
X55315400Y-112061519D02*
X55220162Y-112109138D01*
X55220162Y-112109138D02*
X55172543Y-112156757D01*
X55172543Y-112156757D02*
X55077305Y-112299614D01*
X55077305Y-112299614D02*
X55029686Y-112490090D01*
X55029686Y-112490090D02*
X55029686Y-112871042D01*
X55029686Y-112871042D02*
X55077305Y-112966280D01*
X55077305Y-112966280D02*
X55124924Y-113013900D01*
X55124924Y-113013900D02*
X55220162Y-113061519D01*
X55220162Y-113061519D02*
X55410638Y-113061519D01*
X55410638Y-113061519D02*
X55505876Y-113013900D01*
X55505876Y-113013900D02*
X55553495Y-112966280D01*
X55553495Y-112966280D02*
X55601114Y-112871042D01*
X55601114Y-112871042D02*
X55601114Y-112632947D01*
X55601114Y-112632947D02*
X55553495Y-112537709D01*
X55553495Y-112537709D02*
X55505876Y-112490090D01*
X55505876Y-112490090D02*
X55410638Y-112442471D01*
X55410638Y-112442471D02*
X55220162Y-112442471D01*
X55220162Y-112442471D02*
X55124924Y-112490090D01*
X55124924Y-112490090D02*
X55077305Y-112537709D01*
X55077305Y-112537709D02*
X55029686Y-112632947D01*
X55111905Y-87934819D02*
X55111905Y-88744342D01*
X55111905Y-88744342D02*
X55159524Y-88839580D01*
X55159524Y-88839580D02*
X55207143Y-88887200D01*
X55207143Y-88887200D02*
X55302381Y-88934819D01*
X55302381Y-88934819D02*
X55492857Y-88934819D01*
X55492857Y-88934819D02*
X55588095Y-88887200D01*
X55588095Y-88887200D02*
X55635714Y-88839580D01*
X55635714Y-88839580D02*
X55683333Y-88744342D01*
X55683333Y-88744342D02*
X55683333Y-87934819D01*
X56683333Y-88934819D02*
X56111905Y-88934819D01*
X56397619Y-88934819D02*
X56397619Y-87934819D01*
X56397619Y-87934819D02*
X56302381Y-88077676D01*
X56302381Y-88077676D02*
X56207143Y-88172914D01*
X56207143Y-88172914D02*
X56111905Y-88220533D01*
X57302381Y-87934819D02*
X57397619Y-87934819D01*
X57397619Y-87934819D02*
X57492857Y-87982438D01*
X57492857Y-87982438D02*
X57540476Y-88030057D01*
X57540476Y-88030057D02*
X57588095Y-88125295D01*
X57588095Y-88125295D02*
X57635714Y-88315771D01*
X57635714Y-88315771D02*
X57635714Y-88553866D01*
X57635714Y-88553866D02*
X57588095Y-88744342D01*
X57588095Y-88744342D02*
X57540476Y-88839580D01*
X57540476Y-88839580D02*
X57492857Y-88887200D01*
X57492857Y-88887200D02*
X57397619Y-88934819D01*
X57397619Y-88934819D02*
X57302381Y-88934819D01*
X57302381Y-88934819D02*
X57207143Y-88887200D01*
X57207143Y-88887200D02*
X57159524Y-88839580D01*
X57159524Y-88839580D02*
X57111905Y-88744342D01*
X57111905Y-88744342D02*
X57064286Y-88553866D01*
X57064286Y-88553866D02*
X57064286Y-88315771D01*
X57064286Y-88315771D02*
X57111905Y-88125295D01*
X57111905Y-88125295D02*
X57159524Y-88030057D01*
X57159524Y-88030057D02*
X57207143Y-87982438D01*
X57207143Y-87982438D02*
X57302381Y-87934819D01*
X95018153Y-108102319D02*
X95018153Y-108911842D01*
X95018153Y-108911842D02*
X95065772Y-109007080D01*
X95065772Y-109007080D02*
X95113391Y-109054700D01*
X95113391Y-109054700D02*
X95208629Y-109102319D01*
X95208629Y-109102319D02*
X95399105Y-109102319D01*
X95399105Y-109102319D02*
X95494343Y-109054700D01*
X95494343Y-109054700D02*
X95541962Y-109007080D01*
X95541962Y-109007080D02*
X95589581Y-108911842D01*
X95589581Y-108911842D02*
X95589581Y-108102319D01*
X96589581Y-109102319D02*
X96018153Y-109102319D01*
X96303867Y-109102319D02*
X96303867Y-108102319D01*
X96303867Y-108102319D02*
X96208629Y-108245176D01*
X96208629Y-108245176D02*
X96113391Y-108340414D01*
X96113391Y-108340414D02*
X96018153Y-108388033D01*
X97541962Y-109102319D02*
X96970534Y-109102319D01*
X97256248Y-109102319D02*
X97256248Y-108102319D01*
X97256248Y-108102319D02*
X97161010Y-108245176D01*
X97161010Y-108245176D02*
X97065772Y-108340414D01*
X97065772Y-108340414D02*
X96970534Y-108388033D01*
X117691666Y-83349819D02*
X117691666Y-84064104D01*
X117691666Y-84064104D02*
X117644047Y-84206961D01*
X117644047Y-84206961D02*
X117548809Y-84302200D01*
X117548809Y-84302200D02*
X117405952Y-84349819D01*
X117405952Y-84349819D02*
X117310714Y-84349819D01*
X118072619Y-83349819D02*
X118691666Y-83349819D01*
X118691666Y-83349819D02*
X118358333Y-83730771D01*
X118358333Y-83730771D02*
X118501190Y-83730771D01*
X118501190Y-83730771D02*
X118596428Y-83778390D01*
X118596428Y-83778390D02*
X118644047Y-83826009D01*
X118644047Y-83826009D02*
X118691666Y-83921247D01*
X118691666Y-83921247D02*
X118691666Y-84159342D01*
X118691666Y-84159342D02*
X118644047Y-84254580D01*
X118644047Y-84254580D02*
X118596428Y-84302200D01*
X118596428Y-84302200D02*
X118501190Y-84349819D01*
X118501190Y-84349819D02*
X118215476Y-84349819D01*
X118215476Y-84349819D02*
X118120238Y-84302200D01*
X118120238Y-84302200D02*
X118072619Y-84254580D01*
X75642542Y-115141519D02*
X75309209Y-114665328D01*
X75071114Y-115141519D02*
X75071114Y-114141519D01*
X75071114Y-114141519D02*
X75452066Y-114141519D01*
X75452066Y-114141519D02*
X75547304Y-114189138D01*
X75547304Y-114189138D02*
X75594923Y-114236757D01*
X75594923Y-114236757D02*
X75642542Y-114331995D01*
X75642542Y-114331995D02*
X75642542Y-114474852D01*
X75642542Y-114474852D02*
X75594923Y-114570090D01*
X75594923Y-114570090D02*
X75547304Y-114617709D01*
X75547304Y-114617709D02*
X75452066Y-114665328D01*
X75452066Y-114665328D02*
X75071114Y-114665328D01*
X76594923Y-115141519D02*
X76023495Y-115141519D01*
X76309209Y-115141519D02*
X76309209Y-114141519D01*
X76309209Y-114141519D02*
X76213971Y-114284376D01*
X76213971Y-114284376D02*
X76118733Y-114379614D01*
X76118733Y-114379614D02*
X76023495Y-114427233D01*
X76975876Y-114236757D02*
X77023495Y-114189138D01*
X77023495Y-114189138D02*
X77118733Y-114141519D01*
X77118733Y-114141519D02*
X77356828Y-114141519D01*
X77356828Y-114141519D02*
X77452066Y-114189138D01*
X77452066Y-114189138D02*
X77499685Y-114236757D01*
X77499685Y-114236757D02*
X77547304Y-114331995D01*
X77547304Y-114331995D02*
X77547304Y-114427233D01*
X77547304Y-114427233D02*
X77499685Y-114570090D01*
X77499685Y-114570090D02*
X76928257Y-115141519D01*
X76928257Y-115141519D02*
X77547304Y-115141519D01*
X109592261Y-95045057D02*
X109497023Y-94997438D01*
X109497023Y-94997438D02*
X109401785Y-94902200D01*
X109401785Y-94902200D02*
X109258928Y-94759342D01*
X109258928Y-94759342D02*
X109163690Y-94711723D01*
X109163690Y-94711723D02*
X109068452Y-94711723D01*
X109116071Y-94949819D02*
X109020833Y-94902200D01*
X109020833Y-94902200D02*
X108925595Y-94806961D01*
X108925595Y-94806961D02*
X108877976Y-94616485D01*
X108877976Y-94616485D02*
X108877976Y-94283152D01*
X108877976Y-94283152D02*
X108925595Y-94092676D01*
X108925595Y-94092676D02*
X109020833Y-93997438D01*
X109020833Y-93997438D02*
X109116071Y-93949819D01*
X109116071Y-93949819D02*
X109306547Y-93949819D01*
X109306547Y-93949819D02*
X109401785Y-93997438D01*
X109401785Y-93997438D02*
X109497023Y-94092676D01*
X109497023Y-94092676D02*
X109544642Y-94283152D01*
X109544642Y-94283152D02*
X109544642Y-94616485D01*
X109544642Y-94616485D02*
X109497023Y-94806961D01*
X109497023Y-94806961D02*
X109401785Y-94902200D01*
X109401785Y-94902200D02*
X109306547Y-94949819D01*
X109306547Y-94949819D02*
X109116071Y-94949819D01*
X109925595Y-94045057D02*
X109973214Y-93997438D01*
X109973214Y-93997438D02*
X110068452Y-93949819D01*
X110068452Y-93949819D02*
X110306547Y-93949819D01*
X110306547Y-93949819D02*
X110401785Y-93997438D01*
X110401785Y-93997438D02*
X110449404Y-94045057D01*
X110449404Y-94045057D02*
X110497023Y-94140295D01*
X110497023Y-94140295D02*
X110497023Y-94235533D01*
X110497023Y-94235533D02*
X110449404Y-94378390D01*
X110449404Y-94378390D02*
X109877976Y-94949819D01*
X109877976Y-94949819D02*
X110497023Y-94949819D01*
X51333333Y-90204819D02*
X51000000Y-89728628D01*
X50761905Y-90204819D02*
X50761905Y-89204819D01*
X50761905Y-89204819D02*
X51142857Y-89204819D01*
X51142857Y-89204819D02*
X51238095Y-89252438D01*
X51238095Y-89252438D02*
X51285714Y-89300057D01*
X51285714Y-89300057D02*
X51333333Y-89395295D01*
X51333333Y-89395295D02*
X51333333Y-89538152D01*
X51333333Y-89538152D02*
X51285714Y-89633390D01*
X51285714Y-89633390D02*
X51238095Y-89681009D01*
X51238095Y-89681009D02*
X51142857Y-89728628D01*
X51142857Y-89728628D02*
X50761905Y-89728628D01*
X52190476Y-89204819D02*
X52000000Y-89204819D01*
X52000000Y-89204819D02*
X51904762Y-89252438D01*
X51904762Y-89252438D02*
X51857143Y-89300057D01*
X51857143Y-89300057D02*
X51761905Y-89442914D01*
X51761905Y-89442914D02*
X51714286Y-89633390D01*
X51714286Y-89633390D02*
X51714286Y-90014342D01*
X51714286Y-90014342D02*
X51761905Y-90109580D01*
X51761905Y-90109580D02*
X51809524Y-90157200D01*
X51809524Y-90157200D02*
X51904762Y-90204819D01*
X51904762Y-90204819D02*
X52095238Y-90204819D01*
X52095238Y-90204819D02*
X52190476Y-90157200D01*
X52190476Y-90157200D02*
X52238095Y-90109580D01*
X52238095Y-90109580D02*
X52285714Y-90014342D01*
X52285714Y-90014342D02*
X52285714Y-89776247D01*
X52285714Y-89776247D02*
X52238095Y-89681009D01*
X52238095Y-89681009D02*
X52190476Y-89633390D01*
X52190476Y-89633390D02*
X52095238Y-89585771D01*
X52095238Y-89585771D02*
X51904762Y-89585771D01*
X51904762Y-89585771D02*
X51809524Y-89633390D01*
X51809524Y-89633390D02*
X51761905Y-89681009D01*
X51761905Y-89681009D02*
X51714286Y-89776247D01*
X109238095Y-109006819D02*
X109809523Y-109006819D01*
X109523809Y-110006819D02*
X109523809Y-109006819D01*
X110142857Y-110006819D02*
X110142857Y-109006819D01*
X110142857Y-109006819D02*
X110523809Y-109006819D01*
X110523809Y-109006819D02*
X110619047Y-109054438D01*
X110619047Y-109054438D02*
X110666666Y-109102057D01*
X110666666Y-109102057D02*
X110714285Y-109197295D01*
X110714285Y-109197295D02*
X110714285Y-109340152D01*
X110714285Y-109340152D02*
X110666666Y-109435390D01*
X110666666Y-109435390D02*
X110619047Y-109483009D01*
X110619047Y-109483009D02*
X110523809Y-109530628D01*
X110523809Y-109530628D02*
X110142857Y-109530628D01*
X111047619Y-109006819D02*
X111714285Y-109006819D01*
X111714285Y-109006819D02*
X111285714Y-110006819D01*
X57650595Y-85804819D02*
X57650595Y-86614342D01*
X57650595Y-86614342D02*
X57698214Y-86709580D01*
X57698214Y-86709580D02*
X57745833Y-86757200D01*
X57745833Y-86757200D02*
X57841071Y-86804819D01*
X57841071Y-86804819D02*
X58031547Y-86804819D01*
X58031547Y-86804819D02*
X58126785Y-86757200D01*
X58126785Y-86757200D02*
X58174404Y-86709580D01*
X58174404Y-86709580D02*
X58222023Y-86614342D01*
X58222023Y-86614342D02*
X58222023Y-85804819D01*
X59126785Y-85804819D02*
X58936309Y-85804819D01*
X58936309Y-85804819D02*
X58841071Y-85852438D01*
X58841071Y-85852438D02*
X58793452Y-85900057D01*
X58793452Y-85900057D02*
X58698214Y-86042914D01*
X58698214Y-86042914D02*
X58650595Y-86233390D01*
X58650595Y-86233390D02*
X58650595Y-86614342D01*
X58650595Y-86614342D02*
X58698214Y-86709580D01*
X58698214Y-86709580D02*
X58745833Y-86757200D01*
X58745833Y-86757200D02*
X58841071Y-86804819D01*
X58841071Y-86804819D02*
X59031547Y-86804819D01*
X59031547Y-86804819D02*
X59126785Y-86757200D01*
X59126785Y-86757200D02*
X59174404Y-86709580D01*
X59174404Y-86709580D02*
X59222023Y-86614342D01*
X59222023Y-86614342D02*
X59222023Y-86376247D01*
X59222023Y-86376247D02*
X59174404Y-86281009D01*
X59174404Y-86281009D02*
X59126785Y-86233390D01*
X59126785Y-86233390D02*
X59031547Y-86185771D01*
X59031547Y-86185771D02*
X58841071Y-86185771D01*
X58841071Y-86185771D02*
X58745833Y-86233390D01*
X58745833Y-86233390D02*
X58698214Y-86281009D01*
X58698214Y-86281009D02*
X58650595Y-86376247D01*
X58982542Y-106946280D02*
X58934923Y-106993900D01*
X58934923Y-106993900D02*
X58792066Y-107041519D01*
X58792066Y-107041519D02*
X58696828Y-107041519D01*
X58696828Y-107041519D02*
X58553971Y-106993900D01*
X58553971Y-106993900D02*
X58458733Y-106898661D01*
X58458733Y-106898661D02*
X58411114Y-106803423D01*
X58411114Y-106803423D02*
X58363495Y-106612947D01*
X58363495Y-106612947D02*
X58363495Y-106470090D01*
X58363495Y-106470090D02*
X58411114Y-106279614D01*
X58411114Y-106279614D02*
X58458733Y-106184376D01*
X58458733Y-106184376D02*
X58553971Y-106089138D01*
X58553971Y-106089138D02*
X58696828Y-106041519D01*
X58696828Y-106041519D02*
X58792066Y-106041519D01*
X58792066Y-106041519D02*
X58934923Y-106089138D01*
X58934923Y-106089138D02*
X58982542Y-106136757D01*
X59934923Y-107041519D02*
X59363495Y-107041519D01*
X59649209Y-107041519D02*
X59649209Y-106041519D01*
X59649209Y-106041519D02*
X59553971Y-106184376D01*
X59553971Y-106184376D02*
X59458733Y-106279614D01*
X59458733Y-106279614D02*
X59363495Y-106327233D01*
X60553971Y-106041519D02*
X60649209Y-106041519D01*
X60649209Y-106041519D02*
X60744447Y-106089138D01*
X60744447Y-106089138D02*
X60792066Y-106136757D01*
X60792066Y-106136757D02*
X60839685Y-106231995D01*
X60839685Y-106231995D02*
X60887304Y-106422471D01*
X60887304Y-106422471D02*
X60887304Y-106660566D01*
X60887304Y-106660566D02*
X60839685Y-106851042D01*
X60839685Y-106851042D02*
X60792066Y-106946280D01*
X60792066Y-106946280D02*
X60744447Y-106993900D01*
X60744447Y-106993900D02*
X60649209Y-107041519D01*
X60649209Y-107041519D02*
X60553971Y-107041519D01*
X60553971Y-107041519D02*
X60458733Y-106993900D01*
X60458733Y-106993900D02*
X60411114Y-106946280D01*
X60411114Y-106946280D02*
X60363495Y-106851042D01*
X60363495Y-106851042D02*
X60315876Y-106660566D01*
X60315876Y-106660566D02*
X60315876Y-106422471D01*
X60315876Y-106422471D02*
X60363495Y-106231995D01*
X60363495Y-106231995D02*
X60411114Y-106136757D01*
X60411114Y-106136757D02*
X60458733Y-106089138D01*
X60458733Y-106089138D02*
X60553971Y-106041519D01*
X5831098Y1245180D02*
X5831098Y435657D01*
X5831098Y435657D02*
X5878717Y340419D01*
X5878717Y340419D02*
X5926336Y292800D01*
X5926336Y292800D02*
X6021574Y245180D01*
X6021574Y245180D02*
X6212050Y245180D01*
X6212050Y245180D02*
X6307288Y292800D01*
X6307288Y292800D02*
X6354907Y340419D01*
X6354907Y340419D02*
X6402526Y435657D01*
X6402526Y435657D02*
X6402526Y1245180D01*
X7307288Y911847D02*
X7307288Y245180D01*
X7069193Y1292800D02*
X6831098Y578514D01*
X6831098Y578514D02*
X7450145Y578514D01*
X117375595Y-77054819D02*
X117375595Y-77864342D01*
X117375595Y-77864342D02*
X117423214Y-77959580D01*
X117423214Y-77959580D02*
X117470833Y-78007200D01*
X117470833Y-78007200D02*
X117566071Y-78054819D01*
X117566071Y-78054819D02*
X117756547Y-78054819D01*
X117756547Y-78054819D02*
X117851785Y-78007200D01*
X117851785Y-78007200D02*
X117899404Y-77959580D01*
X117899404Y-77959580D02*
X117947023Y-77864342D01*
X117947023Y-77864342D02*
X117947023Y-77054819D01*
X118899404Y-77054819D02*
X118423214Y-77054819D01*
X118423214Y-77054819D02*
X118375595Y-77531009D01*
X118375595Y-77531009D02*
X118423214Y-77483390D01*
X118423214Y-77483390D02*
X118518452Y-77435771D01*
X118518452Y-77435771D02*
X118756547Y-77435771D01*
X118756547Y-77435771D02*
X118851785Y-77483390D01*
X118851785Y-77483390D02*
X118899404Y-77531009D01*
X118899404Y-77531009D02*
X118947023Y-77626247D01*
X118947023Y-77626247D02*
X118947023Y-77864342D01*
X118947023Y-77864342D02*
X118899404Y-77959580D01*
X118899404Y-77959580D02*
X118851785Y-78007200D01*
X118851785Y-78007200D02*
X118756547Y-78054819D01*
X118756547Y-78054819D02*
X118518452Y-78054819D01*
X118518452Y-78054819D02*
X118423214Y-78007200D01*
X118423214Y-78007200D02*
X118375595Y-77959580D01*
X109238095Y-113056819D02*
X109809523Y-113056819D01*
X109523809Y-114056819D02*
X109523809Y-113056819D01*
X110142857Y-114056819D02*
X110142857Y-113056819D01*
X110142857Y-113056819D02*
X110523809Y-113056819D01*
X110523809Y-113056819D02*
X110619047Y-113104438D01*
X110619047Y-113104438D02*
X110666666Y-113152057D01*
X110666666Y-113152057D02*
X110714285Y-113247295D01*
X110714285Y-113247295D02*
X110714285Y-113390152D01*
X110714285Y-113390152D02*
X110666666Y-113485390D01*
X110666666Y-113485390D02*
X110619047Y-113533009D01*
X110619047Y-113533009D02*
X110523809Y-113580628D01*
X110523809Y-113580628D02*
X110142857Y-113580628D01*
X111285714Y-113485390D02*
X111190476Y-113437771D01*
X111190476Y-113437771D02*
X111142857Y-113390152D01*
X111142857Y-113390152D02*
X111095238Y-113294914D01*
X111095238Y-113294914D02*
X111095238Y-113247295D01*
X111095238Y-113247295D02*
X111142857Y-113152057D01*
X111142857Y-113152057D02*
X111190476Y-113104438D01*
X111190476Y-113104438D02*
X111285714Y-113056819D01*
X111285714Y-113056819D02*
X111476190Y-113056819D01*
X111476190Y-113056819D02*
X111571428Y-113104438D01*
X111571428Y-113104438D02*
X111619047Y-113152057D01*
X111619047Y-113152057D02*
X111666666Y-113247295D01*
X111666666Y-113247295D02*
X111666666Y-113294914D01*
X111666666Y-113294914D02*
X111619047Y-113390152D01*
X111619047Y-113390152D02*
X111571428Y-113437771D01*
X111571428Y-113437771D02*
X111476190Y-113485390D01*
X111476190Y-113485390D02*
X111285714Y-113485390D01*
X111285714Y-113485390D02*
X111190476Y-113533009D01*
X111190476Y-113533009D02*
X111142857Y-113580628D01*
X111142857Y-113580628D02*
X111095238Y-113675866D01*
X111095238Y-113675866D02*
X111095238Y-113866342D01*
X111095238Y-113866342D02*
X111142857Y-113961580D01*
X111142857Y-113961580D02*
X111190476Y-114009200D01*
X111190476Y-114009200D02*
X111285714Y-114056819D01*
X111285714Y-114056819D02*
X111476190Y-114056819D01*
X111476190Y-114056819D02*
X111571428Y-114009200D01*
X111571428Y-114009200D02*
X111619047Y-113961580D01*
X111619047Y-113961580D02*
X111666666Y-113866342D01*
X111666666Y-113866342D02*
X111666666Y-113675866D01*
X111666666Y-113675866D02*
X111619047Y-113580628D01*
X111619047Y-113580628D02*
X111571428Y-113533009D01*
X111571428Y-113533009D02*
X111476190Y-113485390D01*
X115600595Y-83954819D02*
X115600595Y-84764342D01*
X115600595Y-84764342D02*
X115648214Y-84859580D01*
X115648214Y-84859580D02*
X115695833Y-84907200D01*
X115695833Y-84907200D02*
X115791071Y-84954819D01*
X115791071Y-84954819D02*
X115981547Y-84954819D01*
X115981547Y-84954819D02*
X116076785Y-84907200D01*
X116076785Y-84907200D02*
X116124404Y-84859580D01*
X116124404Y-84859580D02*
X116172023Y-84764342D01*
X116172023Y-84764342D02*
X116172023Y-83954819D01*
X116695833Y-84954819D02*
X116886309Y-84954819D01*
X116886309Y-84954819D02*
X116981547Y-84907200D01*
X116981547Y-84907200D02*
X117029166Y-84859580D01*
X117029166Y-84859580D02*
X117124404Y-84716723D01*
X117124404Y-84716723D02*
X117172023Y-84526247D01*
X117172023Y-84526247D02*
X117172023Y-84145295D01*
X117172023Y-84145295D02*
X117124404Y-84050057D01*
X117124404Y-84050057D02*
X117076785Y-84002438D01*
X117076785Y-84002438D02*
X116981547Y-83954819D01*
X116981547Y-83954819D02*
X116791071Y-83954819D01*
X116791071Y-83954819D02*
X116695833Y-84002438D01*
X116695833Y-84002438D02*
X116648214Y-84050057D01*
X116648214Y-84050057D02*
X116600595Y-84145295D01*
X116600595Y-84145295D02*
X116600595Y-84383390D01*
X116600595Y-84383390D02*
X116648214Y-84478628D01*
X116648214Y-84478628D02*
X116695833Y-84526247D01*
X116695833Y-84526247D02*
X116791071Y-84573866D01*
X116791071Y-84573866D02*
X116981547Y-84573866D01*
X116981547Y-84573866D02*
X117076785Y-84526247D01*
X117076785Y-84526247D02*
X117124404Y-84478628D01*
X117124404Y-84478628D02*
X117172023Y-84383390D01*
X113288095Y-100906819D02*
X113859523Y-100906819D01*
X113573809Y-101906819D02*
X113573809Y-100906819D01*
X114192857Y-101906819D02*
X114192857Y-100906819D01*
X114192857Y-100906819D02*
X114573809Y-100906819D01*
X114573809Y-100906819D02*
X114669047Y-100954438D01*
X114669047Y-100954438D02*
X114716666Y-101002057D01*
X114716666Y-101002057D02*
X114764285Y-101097295D01*
X114764285Y-101097295D02*
X114764285Y-101240152D01*
X114764285Y-101240152D02*
X114716666Y-101335390D01*
X114716666Y-101335390D02*
X114669047Y-101383009D01*
X114669047Y-101383009D02*
X114573809Y-101430628D01*
X114573809Y-101430628D02*
X114192857Y-101430628D01*
X115240476Y-101906819D02*
X115430952Y-101906819D01*
X115430952Y-101906819D02*
X115526190Y-101859200D01*
X115526190Y-101859200D02*
X115573809Y-101811580D01*
X115573809Y-101811580D02*
X115669047Y-101668723D01*
X115669047Y-101668723D02*
X115716666Y-101478247D01*
X115716666Y-101478247D02*
X115716666Y-101097295D01*
X115716666Y-101097295D02*
X115669047Y-101002057D01*
X115669047Y-101002057D02*
X115621428Y-100954438D01*
X115621428Y-100954438D02*
X115526190Y-100906819D01*
X115526190Y-100906819D02*
X115335714Y-100906819D01*
X115335714Y-100906819D02*
X115240476Y-100954438D01*
X115240476Y-100954438D02*
X115192857Y-101002057D01*
X115192857Y-101002057D02*
X115145238Y-101097295D01*
X115145238Y-101097295D02*
X115145238Y-101335390D01*
X115145238Y-101335390D02*
X115192857Y-101430628D01*
X115192857Y-101430628D02*
X115240476Y-101478247D01*
X115240476Y-101478247D02*
X115335714Y-101525866D01*
X115335714Y-101525866D02*
X115526190Y-101525866D01*
X115526190Y-101525866D02*
X115621428Y-101478247D01*
X115621428Y-101478247D02*
X115669047Y-101430628D01*
X115669047Y-101430628D02*
X115716666Y-101335390D01*
X112811905Y-109006819D02*
X113383333Y-109006819D01*
X113097619Y-110006819D02*
X113097619Y-109006819D01*
X113716667Y-110006819D02*
X113716667Y-109006819D01*
X113716667Y-109006819D02*
X114097619Y-109006819D01*
X114097619Y-109006819D02*
X114192857Y-109054438D01*
X114192857Y-109054438D02*
X114240476Y-109102057D01*
X114240476Y-109102057D02*
X114288095Y-109197295D01*
X114288095Y-109197295D02*
X114288095Y-109340152D01*
X114288095Y-109340152D02*
X114240476Y-109435390D01*
X114240476Y-109435390D02*
X114192857Y-109483009D01*
X114192857Y-109483009D02*
X114097619Y-109530628D01*
X114097619Y-109530628D02*
X113716667Y-109530628D01*
X115240476Y-110006819D02*
X114669048Y-110006819D01*
X114954762Y-110006819D02*
X114954762Y-109006819D01*
X114954762Y-109006819D02*
X114859524Y-109149676D01*
X114859524Y-109149676D02*
X114764286Y-109244914D01*
X114764286Y-109244914D02*
X114669048Y-109292533D01*
X116192857Y-110006819D02*
X115621429Y-110006819D01*
X115907143Y-110006819D02*
X115907143Y-109006819D01*
X115907143Y-109006819D02*
X115811905Y-109149676D01*
X115811905Y-109149676D02*
X115716667Y-109244914D01*
X115716667Y-109244914D02*
X115621429Y-109292533D01*
X54648733Y-100926280D02*
X54601114Y-100973900D01*
X54601114Y-100973900D02*
X54458257Y-101021519D01*
X54458257Y-101021519D02*
X54363019Y-101021519D01*
X54363019Y-101021519D02*
X54220162Y-100973900D01*
X54220162Y-100973900D02*
X54124924Y-100878661D01*
X54124924Y-100878661D02*
X54077305Y-100783423D01*
X54077305Y-100783423D02*
X54029686Y-100592947D01*
X54029686Y-100592947D02*
X54029686Y-100450090D01*
X54029686Y-100450090D02*
X54077305Y-100259614D01*
X54077305Y-100259614D02*
X54124924Y-100164376D01*
X54124924Y-100164376D02*
X54220162Y-100069138D01*
X54220162Y-100069138D02*
X54363019Y-100021519D01*
X54363019Y-100021519D02*
X54458257Y-100021519D01*
X54458257Y-100021519D02*
X54601114Y-100069138D01*
X54601114Y-100069138D02*
X54648733Y-100116757D01*
X55029686Y-100116757D02*
X55077305Y-100069138D01*
X55077305Y-100069138D02*
X55172543Y-100021519D01*
X55172543Y-100021519D02*
X55410638Y-100021519D01*
X55410638Y-100021519D02*
X55505876Y-100069138D01*
X55505876Y-100069138D02*
X55553495Y-100116757D01*
X55553495Y-100116757D02*
X55601114Y-100211995D01*
X55601114Y-100211995D02*
X55601114Y-100307233D01*
X55601114Y-100307233D02*
X55553495Y-100450090D01*
X55553495Y-100450090D02*
X54982067Y-101021519D01*
X54982067Y-101021519D02*
X55601114Y-101021519D01*
X69471233Y-104391519D02*
X69137900Y-103915328D01*
X68899805Y-104391519D02*
X68899805Y-103391519D01*
X68899805Y-103391519D02*
X69280757Y-103391519D01*
X69280757Y-103391519D02*
X69375995Y-103439138D01*
X69375995Y-103439138D02*
X69423614Y-103486757D01*
X69423614Y-103486757D02*
X69471233Y-103581995D01*
X69471233Y-103581995D02*
X69471233Y-103724852D01*
X69471233Y-103724852D02*
X69423614Y-103820090D01*
X69423614Y-103820090D02*
X69375995Y-103867709D01*
X69375995Y-103867709D02*
X69280757Y-103915328D01*
X69280757Y-103915328D02*
X68899805Y-103915328D01*
X69804567Y-103391519D02*
X70423614Y-103391519D01*
X70423614Y-103391519D02*
X70090281Y-103772471D01*
X70090281Y-103772471D02*
X70233138Y-103772471D01*
X70233138Y-103772471D02*
X70328376Y-103820090D01*
X70328376Y-103820090D02*
X70375995Y-103867709D01*
X70375995Y-103867709D02*
X70423614Y-103962947D01*
X70423614Y-103962947D02*
X70423614Y-104201042D01*
X70423614Y-104201042D02*
X70375995Y-104296280D01*
X70375995Y-104296280D02*
X70328376Y-104343900D01*
X70328376Y-104343900D02*
X70233138Y-104391519D01*
X70233138Y-104391519D02*
X69947424Y-104391519D01*
X69947424Y-104391519D02*
X69852186Y-104343900D01*
X69852186Y-104343900D02*
X69804567Y-104296280D01*
X74495042Y-101391519D02*
X74161709Y-100915328D01*
X73923614Y-101391519D02*
X73923614Y-100391519D01*
X73923614Y-100391519D02*
X74304566Y-100391519D01*
X74304566Y-100391519D02*
X74399804Y-100439138D01*
X74399804Y-100439138D02*
X74447423Y-100486757D01*
X74447423Y-100486757D02*
X74495042Y-100581995D01*
X74495042Y-100581995D02*
X74495042Y-100724852D01*
X74495042Y-100724852D02*
X74447423Y-100820090D01*
X74447423Y-100820090D02*
X74399804Y-100867709D01*
X74399804Y-100867709D02*
X74304566Y-100915328D01*
X74304566Y-100915328D02*
X73923614Y-100915328D01*
X75447423Y-101391519D02*
X74875995Y-101391519D01*
X75161709Y-101391519D02*
X75161709Y-100391519D01*
X75161709Y-100391519D02*
X75066471Y-100534376D01*
X75066471Y-100534376D02*
X74971233Y-100629614D01*
X74971233Y-100629614D02*
X74875995Y-100677233D01*
X76352185Y-100391519D02*
X75875995Y-100391519D01*
X75875995Y-100391519D02*
X75828376Y-100867709D01*
X75828376Y-100867709D02*
X75875995Y-100820090D01*
X75875995Y-100820090D02*
X75971233Y-100772471D01*
X75971233Y-100772471D02*
X76209328Y-100772471D01*
X76209328Y-100772471D02*
X76304566Y-100820090D01*
X76304566Y-100820090D02*
X76352185Y-100867709D01*
X76352185Y-100867709D02*
X76399804Y-100962947D01*
X76399804Y-100962947D02*
X76399804Y-101201042D01*
X76399804Y-101201042D02*
X76352185Y-101296280D01*
X76352185Y-101296280D02*
X76304566Y-101343900D01*
X76304566Y-101343900D02*
X76209328Y-101391519D01*
X76209328Y-101391519D02*
X75971233Y-101391519D01*
X75971233Y-101391519D02*
X75875995Y-101343900D01*
X75875995Y-101343900D02*
X75828376Y-101296280D01*
X106038095Y-83854819D02*
X106038095Y-84664342D01*
X106038095Y-84664342D02*
X106085714Y-84759580D01*
X106085714Y-84759580D02*
X106133333Y-84807200D01*
X106133333Y-84807200D02*
X106228571Y-84854819D01*
X106228571Y-84854819D02*
X106419047Y-84854819D01*
X106419047Y-84854819D02*
X106514285Y-84807200D01*
X106514285Y-84807200D02*
X106561904Y-84759580D01*
X106561904Y-84759580D02*
X106609523Y-84664342D01*
X106609523Y-84664342D02*
X106609523Y-83854819D01*
X107228571Y-84283390D02*
X107133333Y-84235771D01*
X107133333Y-84235771D02*
X107085714Y-84188152D01*
X107085714Y-84188152D02*
X107038095Y-84092914D01*
X107038095Y-84092914D02*
X107038095Y-84045295D01*
X107038095Y-84045295D02*
X107085714Y-83950057D01*
X107085714Y-83950057D02*
X107133333Y-83902438D01*
X107133333Y-83902438D02*
X107228571Y-83854819D01*
X107228571Y-83854819D02*
X107419047Y-83854819D01*
X107419047Y-83854819D02*
X107514285Y-83902438D01*
X107514285Y-83902438D02*
X107561904Y-83950057D01*
X107561904Y-83950057D02*
X107609523Y-84045295D01*
X107609523Y-84045295D02*
X107609523Y-84092914D01*
X107609523Y-84092914D02*
X107561904Y-84188152D01*
X107561904Y-84188152D02*
X107514285Y-84235771D01*
X107514285Y-84235771D02*
X107419047Y-84283390D01*
X107419047Y-84283390D02*
X107228571Y-84283390D01*
X107228571Y-84283390D02*
X107133333Y-84331009D01*
X107133333Y-84331009D02*
X107085714Y-84378628D01*
X107085714Y-84378628D02*
X107038095Y-84473866D01*
X107038095Y-84473866D02*
X107038095Y-84664342D01*
X107038095Y-84664342D02*
X107085714Y-84759580D01*
X107085714Y-84759580D02*
X107133333Y-84807200D01*
X107133333Y-84807200D02*
X107228571Y-84854819D01*
X107228571Y-84854819D02*
X107419047Y-84854819D01*
X107419047Y-84854819D02*
X107514285Y-84807200D01*
X107514285Y-84807200D02*
X107561904Y-84759580D01*
X107561904Y-84759580D02*
X107609523Y-84664342D01*
X107609523Y-84664342D02*
X107609523Y-84473866D01*
X107609523Y-84473866D02*
X107561904Y-84378628D01*
X107561904Y-84378628D02*
X107514285Y-84331009D01*
X107514285Y-84331009D02*
X107419047Y-84283390D01*
X117261905Y-92954819D02*
X117261905Y-91954819D01*
X117261905Y-91954819D02*
X117500000Y-91954819D01*
X117500000Y-91954819D02*
X117642857Y-92002438D01*
X117642857Y-92002438D02*
X117738095Y-92097676D01*
X117738095Y-92097676D02*
X117785714Y-92192914D01*
X117785714Y-92192914D02*
X117833333Y-92383390D01*
X117833333Y-92383390D02*
X117833333Y-92526247D01*
X117833333Y-92526247D02*
X117785714Y-92716723D01*
X117785714Y-92716723D02*
X117738095Y-92811961D01*
X117738095Y-92811961D02*
X117642857Y-92907200D01*
X117642857Y-92907200D02*
X117500000Y-92954819D01*
X117500000Y-92954819D02*
X117261905Y-92954819D01*
X118214286Y-92050057D02*
X118261905Y-92002438D01*
X118261905Y-92002438D02*
X118357143Y-91954819D01*
X118357143Y-91954819D02*
X118595238Y-91954819D01*
X118595238Y-91954819D02*
X118690476Y-92002438D01*
X118690476Y-92002438D02*
X118738095Y-92050057D01*
X118738095Y-92050057D02*
X118785714Y-92145295D01*
X118785714Y-92145295D02*
X118785714Y-92240533D01*
X118785714Y-92240533D02*
X118738095Y-92383390D01*
X118738095Y-92383390D02*
X118166667Y-92954819D01*
X118166667Y-92954819D02*
X118785714Y-92954819D01*
X59458733Y-103936280D02*
X59411114Y-103983900D01*
X59411114Y-103983900D02*
X59268257Y-104031519D01*
X59268257Y-104031519D02*
X59173019Y-104031519D01*
X59173019Y-104031519D02*
X59030162Y-103983900D01*
X59030162Y-103983900D02*
X58934924Y-103888661D01*
X58934924Y-103888661D02*
X58887305Y-103793423D01*
X58887305Y-103793423D02*
X58839686Y-103602947D01*
X58839686Y-103602947D02*
X58839686Y-103460090D01*
X58839686Y-103460090D02*
X58887305Y-103269614D01*
X58887305Y-103269614D02*
X58934924Y-103174376D01*
X58934924Y-103174376D02*
X59030162Y-103079138D01*
X59030162Y-103079138D02*
X59173019Y-103031519D01*
X59173019Y-103031519D02*
X59268257Y-103031519D01*
X59268257Y-103031519D02*
X59411114Y-103079138D01*
X59411114Y-103079138D02*
X59458733Y-103126757D01*
X59934924Y-104031519D02*
X60125400Y-104031519D01*
X60125400Y-104031519D02*
X60220638Y-103983900D01*
X60220638Y-103983900D02*
X60268257Y-103936280D01*
X60268257Y-103936280D02*
X60363495Y-103793423D01*
X60363495Y-103793423D02*
X60411114Y-103602947D01*
X60411114Y-103602947D02*
X60411114Y-103221995D01*
X60411114Y-103221995D02*
X60363495Y-103126757D01*
X60363495Y-103126757D02*
X60315876Y-103079138D01*
X60315876Y-103079138D02*
X60220638Y-103031519D01*
X60220638Y-103031519D02*
X60030162Y-103031519D01*
X60030162Y-103031519D02*
X59934924Y-103079138D01*
X59934924Y-103079138D02*
X59887305Y-103126757D01*
X59887305Y-103126757D02*
X59839686Y-103221995D01*
X59839686Y-103221995D02*
X59839686Y-103460090D01*
X59839686Y-103460090D02*
X59887305Y-103555328D01*
X59887305Y-103555328D02*
X59934924Y-103602947D01*
X59934924Y-103602947D02*
X60030162Y-103650566D01*
X60030162Y-103650566D02*
X60220638Y-103650566D01*
X60220638Y-103650566D02*
X60315876Y-103602947D01*
X60315876Y-103602947D02*
X60363495Y-103555328D01*
X60363495Y-103555328D02*
X60411114Y-103460090D01*
X74971233Y-97891519D02*
X74637900Y-97415328D01*
X74399805Y-97891519D02*
X74399805Y-96891519D01*
X74399805Y-96891519D02*
X74780757Y-96891519D01*
X74780757Y-96891519D02*
X74875995Y-96939138D01*
X74875995Y-96939138D02*
X74923614Y-96986757D01*
X74923614Y-96986757D02*
X74971233Y-97081995D01*
X74971233Y-97081995D02*
X74971233Y-97224852D01*
X74971233Y-97224852D02*
X74923614Y-97320090D01*
X74923614Y-97320090D02*
X74875995Y-97367709D01*
X74875995Y-97367709D02*
X74780757Y-97415328D01*
X74780757Y-97415328D02*
X74399805Y-97415328D01*
X75828376Y-97224852D02*
X75828376Y-97891519D01*
X75590281Y-96843900D02*
X75352186Y-97558185D01*
X75352186Y-97558185D02*
X75971233Y-97558185D01*
X96261905Y-97956819D02*
X96833333Y-97956819D01*
X96547619Y-98956819D02*
X96547619Y-97956819D01*
X97166667Y-98956819D02*
X97166667Y-97956819D01*
X97166667Y-97956819D02*
X97547619Y-97956819D01*
X97547619Y-97956819D02*
X97642857Y-98004438D01*
X97642857Y-98004438D02*
X97690476Y-98052057D01*
X97690476Y-98052057D02*
X97738095Y-98147295D01*
X97738095Y-98147295D02*
X97738095Y-98290152D01*
X97738095Y-98290152D02*
X97690476Y-98385390D01*
X97690476Y-98385390D02*
X97642857Y-98433009D01*
X97642857Y-98433009D02*
X97547619Y-98480628D01*
X97547619Y-98480628D02*
X97166667Y-98480628D01*
X98690476Y-98956819D02*
X98119048Y-98956819D01*
X98404762Y-98956819D02*
X98404762Y-97956819D01*
X98404762Y-97956819D02*
X98309524Y-98099676D01*
X98309524Y-98099676D02*
X98214286Y-98194914D01*
X98214286Y-98194914D02*
X98119048Y-98242533D01*
X99071429Y-98052057D02*
X99119048Y-98004438D01*
X99119048Y-98004438D02*
X99214286Y-97956819D01*
X99214286Y-97956819D02*
X99452381Y-97956819D01*
X99452381Y-97956819D02*
X99547619Y-98004438D01*
X99547619Y-98004438D02*
X99595238Y-98052057D01*
X99595238Y-98052057D02*
X99642857Y-98147295D01*
X99642857Y-98147295D02*
X99642857Y-98242533D01*
X99642857Y-98242533D02*
X99595238Y-98385390D01*
X99595238Y-98385390D02*
X99023810Y-98956819D01*
X99023810Y-98956819D02*
X99642857Y-98956819D01*
X69471233Y-101391519D02*
X69137900Y-100915328D01*
X68899805Y-101391519D02*
X68899805Y-100391519D01*
X68899805Y-100391519D02*
X69280757Y-100391519D01*
X69280757Y-100391519D02*
X69375995Y-100439138D01*
X69375995Y-100439138D02*
X69423614Y-100486757D01*
X69423614Y-100486757D02*
X69471233Y-100581995D01*
X69471233Y-100581995D02*
X69471233Y-100724852D01*
X69471233Y-100724852D02*
X69423614Y-100820090D01*
X69423614Y-100820090D02*
X69375995Y-100867709D01*
X69375995Y-100867709D02*
X69280757Y-100915328D01*
X69280757Y-100915328D02*
X68899805Y-100915328D01*
X69852186Y-100486757D02*
X69899805Y-100439138D01*
X69899805Y-100439138D02*
X69995043Y-100391519D01*
X69995043Y-100391519D02*
X70233138Y-100391519D01*
X70233138Y-100391519D02*
X70328376Y-100439138D01*
X70328376Y-100439138D02*
X70375995Y-100486757D01*
X70375995Y-100486757D02*
X70423614Y-100581995D01*
X70423614Y-100581995D02*
X70423614Y-100677233D01*
X70423614Y-100677233D02*
X70375995Y-100820090D01*
X70375995Y-100820090D02*
X69804567Y-101391519D01*
X69804567Y-101391519D02*
X70423614Y-101391519D01*
X109238095Y-100906819D02*
X109809523Y-100906819D01*
X109523809Y-101906819D02*
X109523809Y-100906819D01*
X110142857Y-101906819D02*
X110142857Y-100906819D01*
X110142857Y-100906819D02*
X110523809Y-100906819D01*
X110523809Y-100906819D02*
X110619047Y-100954438D01*
X110619047Y-100954438D02*
X110666666Y-101002057D01*
X110666666Y-101002057D02*
X110714285Y-101097295D01*
X110714285Y-101097295D02*
X110714285Y-101240152D01*
X110714285Y-101240152D02*
X110666666Y-101335390D01*
X110666666Y-101335390D02*
X110619047Y-101383009D01*
X110619047Y-101383009D02*
X110523809Y-101430628D01*
X110523809Y-101430628D02*
X110142857Y-101430628D01*
X111619047Y-100906819D02*
X111142857Y-100906819D01*
X111142857Y-100906819D02*
X111095238Y-101383009D01*
X111095238Y-101383009D02*
X111142857Y-101335390D01*
X111142857Y-101335390D02*
X111238095Y-101287771D01*
X111238095Y-101287771D02*
X111476190Y-101287771D01*
X111476190Y-101287771D02*
X111571428Y-101335390D01*
X111571428Y-101335390D02*
X111619047Y-101383009D01*
X111619047Y-101383009D02*
X111666666Y-101478247D01*
X111666666Y-101478247D02*
X111666666Y-101716342D01*
X111666666Y-101716342D02*
X111619047Y-101811580D01*
X111619047Y-101811580D02*
X111571428Y-101859200D01*
X111571428Y-101859200D02*
X111476190Y-101906819D01*
X111476190Y-101906819D02*
X111238095Y-101906819D01*
X111238095Y-101906819D02*
X111142857Y-101859200D01*
X111142857Y-101859200D02*
X111095238Y-101811580D01*
X105188095Y-100906819D02*
X105759523Y-100906819D01*
X105473809Y-101906819D02*
X105473809Y-100906819D01*
X106092857Y-101906819D02*
X106092857Y-100906819D01*
X106092857Y-100906819D02*
X106473809Y-100906819D01*
X106473809Y-100906819D02*
X106569047Y-100954438D01*
X106569047Y-100954438D02*
X106616666Y-101002057D01*
X106616666Y-101002057D02*
X106664285Y-101097295D01*
X106664285Y-101097295D02*
X106664285Y-101240152D01*
X106664285Y-101240152D02*
X106616666Y-101335390D01*
X106616666Y-101335390D02*
X106569047Y-101383009D01*
X106569047Y-101383009D02*
X106473809Y-101430628D01*
X106473809Y-101430628D02*
X106092857Y-101430628D01*
X107616666Y-101906819D02*
X107045238Y-101906819D01*
X107330952Y-101906819D02*
X107330952Y-100906819D01*
X107330952Y-100906819D02*
X107235714Y-101049676D01*
X107235714Y-101049676D02*
X107140476Y-101144914D01*
X107140476Y-101144914D02*
X107045238Y-101192533D01*
X74495042Y-104391519D02*
X74161709Y-103915328D01*
X73923614Y-104391519D02*
X73923614Y-103391519D01*
X73923614Y-103391519D02*
X74304566Y-103391519D01*
X74304566Y-103391519D02*
X74399804Y-103439138D01*
X74399804Y-103439138D02*
X74447423Y-103486757D01*
X74447423Y-103486757D02*
X74495042Y-103581995D01*
X74495042Y-103581995D02*
X74495042Y-103724852D01*
X74495042Y-103724852D02*
X74447423Y-103820090D01*
X74447423Y-103820090D02*
X74399804Y-103867709D01*
X74399804Y-103867709D02*
X74304566Y-103915328D01*
X74304566Y-103915328D02*
X73923614Y-103915328D01*
X75447423Y-104391519D02*
X74875995Y-104391519D01*
X75161709Y-104391519D02*
X75161709Y-103391519D01*
X75161709Y-103391519D02*
X75066471Y-103534376D01*
X75066471Y-103534376D02*
X74971233Y-103629614D01*
X74971233Y-103629614D02*
X74875995Y-103677233D01*
X76304566Y-103391519D02*
X76114090Y-103391519D01*
X76114090Y-103391519D02*
X76018852Y-103439138D01*
X76018852Y-103439138D02*
X75971233Y-103486757D01*
X75971233Y-103486757D02*
X75875995Y-103629614D01*
X75875995Y-103629614D02*
X75828376Y-103820090D01*
X75828376Y-103820090D02*
X75828376Y-104201042D01*
X75828376Y-104201042D02*
X75875995Y-104296280D01*
X75875995Y-104296280D02*
X75923614Y-104343900D01*
X75923614Y-104343900D02*
X76018852Y-104391519D01*
X76018852Y-104391519D02*
X76209328Y-104391519D01*
X76209328Y-104391519D02*
X76304566Y-104343900D01*
X76304566Y-104343900D02*
X76352185Y-104296280D01*
X76352185Y-104296280D02*
X76399804Y-104201042D01*
X76399804Y-104201042D02*
X76399804Y-103962947D01*
X76399804Y-103962947D02*
X76352185Y-103867709D01*
X76352185Y-103867709D02*
X76304566Y-103820090D01*
X76304566Y-103820090D02*
X76209328Y-103772471D01*
X76209328Y-103772471D02*
X76018852Y-103772471D01*
X76018852Y-103772471D02*
X75923614Y-103820090D01*
X75923614Y-103820090D02*
X75875995Y-103867709D01*
X75875995Y-103867709D02*
X75828376Y-103962947D01*
D11*
%TO.C,C17*%
X93308748Y-97485000D02*
X93831252Y-97485000D01*
X93308748Y-98955000D02*
X93831252Y-98955000D01*
%TO.C,C11*%
X59364148Y-110541700D02*
X59886652Y-110541700D01*
X59364148Y-112011700D02*
X59886652Y-112011700D01*
%TO.C,U2*%
X64862500Y-76540000D02*
X62662500Y-76540000D01*
X64862500Y-76540000D02*
X67062500Y-76540000D01*
X64862500Y-82010000D02*
X62662500Y-82010000D01*
X64862500Y-82010000D02*
X67062500Y-82010000D01*
X61002500Y-77000000D02*
X60672500Y-77240000D01*
X60672500Y-76760000D01*
X61002500Y-77000000D01*
G36*
X61002500Y-77000000D02*
G01*
X60672500Y-77240000D01*
X60672500Y-76760000D01*
X61002500Y-77000000D01*
G37*
%TO.C,TP6*%
X111700000Y-107500000D02*
G75*
G02*
X109300000Y-107500000I-1200000J0D01*
G01*
X109300000Y-107500000D02*
G75*
G02*
X111700000Y-107500000I1200000J0D01*
G01*
%TO.C,SW1*%
X44200000Y-98800000D02*
X44200000Y-101000000D01*
X44200000Y-105100000D02*
X44200000Y-107400000D01*
X48800000Y-98800000D02*
X48800000Y-107400000D01*
%TO.C,C1*%
X54554148Y-98501700D02*
X55076652Y-98501700D01*
X54554148Y-99971700D02*
X55076652Y-99971700D01*
%TO.C,L1*%
X64989148Y-109146700D02*
X65511652Y-109146700D01*
X64989148Y-111366700D02*
X65511652Y-111366700D01*
%TO.C,C3*%
X54554148Y-104521700D02*
X55076652Y-104521700D01*
X54554148Y-105991700D02*
X55076652Y-105991700D01*
%TO.C,U1*%
X73862500Y-76540000D02*
X71662500Y-76540000D01*
X73862500Y-76540000D02*
X76062500Y-76540000D01*
X73862500Y-82010000D02*
X71662500Y-82010000D01*
X73862500Y-82010000D02*
X76062500Y-82010000D01*
X70002500Y-77000000D02*
X69672500Y-77240000D01*
X69672500Y-76760000D01*
X70002500Y-77000000D01*
G36*
X70002500Y-77000000D02*
G01*
X69672500Y-77240000D01*
X69672500Y-76760000D01*
X70002500Y-77000000D01*
G37*
%TO.C,C8*%
X59364148Y-101511700D02*
X59886652Y-101511700D01*
X59364148Y-102981700D02*
X59886652Y-102981700D01*
%TO.C,C5*%
X54554148Y-110541700D02*
X55076652Y-110541700D01*
X54554148Y-112011700D02*
X55076652Y-112011700D01*
%TO.C,C14*%
X1643748Y-270000D02*
X2166252Y-270000D01*
X1643748Y-1740000D02*
X2166252Y-1740000D01*
%TO.C,TP10*%
X115750000Y-107500000D02*
G75*
G02*
X113350000Y-107500000I-1200000J0D01*
G01*
X113350000Y-107500000D02*
G75*
G02*
X115750000Y-107500000I1200000J0D01*
G01*
%TO.C,TP12*%
X7535000Y-6225000D02*
G75*
G02*
X5135000Y-6225000I-1200000J0D01*
G01*
X5135000Y-6225000D02*
G75*
G02*
X7535000Y-6225000I1200000J0D01*
G01*
%TO.C,R1*%
X68910836Y-98346700D02*
X70364964Y-98346700D01*
X68910836Y-100166700D02*
X70364964Y-100166700D01*
%TO.C,C17*%
X1643748Y-3280000D02*
X2166252Y-3280000D01*
X1643748Y-4750000D02*
X2166252Y-4750000D01*
%TO.C,J2*%
X44510000Y-80050000D02*
X44510000Y-81750000D01*
X53850000Y-80050000D02*
X53850000Y-81750000D01*
%TO.C,TP4*%
X107650000Y-115600000D02*
G75*
G02*
X105250000Y-115600000I-1200000J0D01*
G01*
X105250000Y-115600000D02*
G75*
G02*
X107650000Y-115600000I1200000J0D01*
G01*
%TO.C,C4*%
X54554148Y-107531700D02*
X55076652Y-107531700D01*
X54554148Y-109001700D02*
X55076652Y-109001700D01*
%TO.C,C12*%
X59364148Y-113551700D02*
X59886652Y-113551700D01*
X59364148Y-115021700D02*
X59886652Y-115021700D01*
D12*
%TO.C,U4*%
X100663500Y-94799500D02*
X103462500Y-94799500D01*
X100663500Y-95800500D02*
X100663500Y-94799500D01*
X103462500Y-94799500D02*
X103462500Y-95800500D01*
X103462500Y-95800500D02*
X100663500Y-95800500D01*
D13*
X100271000Y-96821500D02*
G75*
G02*
X100273500Y-96821500I1250J124499D01*
G01*
D11*
%TO.C,C14*%
X93308748Y-94475000D02*
X93831252Y-94475000D01*
X93308748Y-95945000D02*
X93831252Y-95945000D01*
%TO.C,C13*%
X64174148Y-98501700D02*
X64696652Y-98501700D01*
X64174148Y-99971700D02*
X64696652Y-99971700D01*
%TO.C,R11*%
X70125836Y-110001700D02*
X70579964Y-110001700D01*
X70125836Y-111471700D02*
X70579964Y-111471700D01*
D14*
%TO.C,D1*%
X44947500Y-87000000D02*
G75*
G02*
X44847500Y-87000000I-50000J0D01*
G01*
X44847500Y-87000000D02*
G75*
G02*
X44947500Y-87000000I50000J0D01*
G01*
D11*
%TO.C,TP3*%
X107650000Y-111550000D02*
G75*
G02*
X105250000Y-111550000I-1200000J0D01*
G01*
X105250000Y-111550000D02*
G75*
G02*
X107650000Y-111550000I1200000J0D01*
G01*
%TO.C,J1*%
X64230000Y-123170000D02*
X64230000Y-128370000D01*
X102390000Y-123170000D02*
X64230000Y-123170000D01*
X102390000Y-123170000D02*
X102390000Y-125770000D01*
X102390000Y-125770000D02*
X104990000Y-125770000D01*
X103660000Y-123170000D02*
X104990000Y-123170000D01*
X104990000Y-123170000D02*
X104990000Y-124500000D01*
X104990000Y-125770000D02*
X104990000Y-128370000D01*
X104990000Y-128370000D02*
X64230000Y-128370000D01*
%TO.C,R7*%
X75510676Y-110214200D02*
X76020124Y-110214200D01*
X75510676Y-111259200D02*
X76020124Y-111259200D01*
%TO.C,C7*%
X59364148Y-98501700D02*
X59886652Y-98501700D01*
X59364148Y-99971700D02*
X59886652Y-99971700D01*
D14*
%TO.C,D3*%
X44947500Y-91000000D02*
G75*
G02*
X44847500Y-91000000I-50000J0D01*
G01*
X44847500Y-91000000D02*
G75*
G02*
X44947500Y-91000000I50000J0D01*
G01*
D11*
%TO.C,TP2*%
X107650000Y-107500000D02*
G75*
G02*
X105250000Y-107500000I-1200000J0D01*
G01*
X105250000Y-107500000D02*
G75*
G02*
X107650000Y-107500000I1200000J0D01*
G01*
D12*
%TO.C,U7*%
X87163500Y-112199500D02*
X89962500Y-112199500D01*
X87163500Y-113200500D02*
X87163500Y-112199500D01*
X89962500Y-112199500D02*
X89962500Y-113200500D01*
X89962500Y-113200500D02*
X87163500Y-113200500D01*
D13*
X86771000Y-114221500D02*
G75*
G02*
X86773500Y-114221500I1250J124499D01*
G01*
D11*
%TO.C,R14*%
X65140000Y-92835000D02*
X61940000Y-92835000D01*
X67020000Y-89435000D02*
X63820000Y-89435000D01*
%TO.C,C6*%
X54554148Y-113551700D02*
X55076652Y-113551700D01*
X54554148Y-115021700D02*
X55076652Y-115021700D01*
%TO.C,U10*%
X55450000Y-92590000D02*
X57250000Y-92590000D01*
X56450000Y-89370000D02*
X55650000Y-89370000D01*
X56450000Y-89370000D02*
X57250000Y-89370000D01*
X55150000Y-89445000D02*
X54910000Y-89115000D01*
X55390000Y-89115000D01*
X55150000Y-89445000D01*
G36*
X55150000Y-89445000D02*
G01*
X54910000Y-89115000D01*
X55390000Y-89115000D01*
X55150000Y-89445000D01*
G37*
D12*
%TO.C,U11*%
X95113500Y-110699500D02*
X97912500Y-110699500D01*
X95113500Y-111700500D02*
X95113500Y-110699500D01*
X97912500Y-110699500D02*
X97912500Y-111700500D01*
X97912500Y-111700500D02*
X95113500Y-111700500D01*
D13*
X94721000Y-112721500D02*
G75*
G02*
X94723500Y-112721500I1250J124499D01*
G01*
D11*
%TO.C,J3*%
X93640000Y-76090000D02*
X93640000Y-83910000D01*
X93640000Y-82310000D02*
X94560000Y-82310000D01*
X93640000Y-83910000D02*
X94560000Y-83910000D01*
X94400000Y-78350000D02*
X95400000Y-78350000D01*
X94400000Y-79950000D02*
X94400000Y-78350000D01*
X94560000Y-82310000D02*
X94840000Y-82310000D01*
X94560000Y-83910000D02*
X94560000Y-82310000D01*
X95400000Y-78350000D02*
X95400000Y-79950000D01*
X95400000Y-79950000D02*
X94400000Y-79950000D01*
X96200000Y-80450000D02*
X96200000Y-76090000D01*
X97200000Y-76090000D02*
X97200000Y-80450000D01*
X97200000Y-80450000D02*
X96200000Y-80450000D01*
X98000000Y-78350000D02*
X98000000Y-76090000D01*
X98000000Y-78350000D02*
X98000000Y-79950000D01*
X98000000Y-79950000D02*
X99000000Y-79950000D01*
X98500000Y-78350000D02*
X98500000Y-76090000D01*
X98560000Y-82310000D02*
X98560000Y-83525000D01*
X98560000Y-82310000D02*
X98840000Y-82310000D01*
X98840000Y-82310000D02*
X98840000Y-83910000D01*
X98840000Y-83910000D02*
X99760000Y-83910000D01*
X99000000Y-78350000D02*
X98000000Y-78350000D01*
X99000000Y-79950000D02*
X99000000Y-78350000D01*
X99760000Y-76090000D02*
X93640000Y-76090000D01*
X99760000Y-82310000D02*
X98840000Y-82310000D01*
X99760000Y-83910000D02*
X99760000Y-76090000D01*
%TO.C,Q2*%
X109687500Y-95335000D02*
X108887500Y-95335000D01*
X109687500Y-95335000D02*
X110487500Y-95335000D01*
X109687500Y-98455000D02*
X108887500Y-98455000D01*
X109687500Y-98455000D02*
X110487500Y-98455000D01*
X108387500Y-95385000D02*
X108147500Y-95055000D01*
X108627500Y-95055000D01*
X108387500Y-95385000D01*
G36*
X108387500Y-95385000D02*
G01*
X108147500Y-95055000D01*
X108627500Y-95055000D01*
X108387500Y-95385000D01*
G37*
%TO.C,TP7*%
X111700000Y-111550000D02*
G75*
G02*
X109300000Y-111550000I-1200000J0D01*
G01*
X109300000Y-111550000D02*
G75*
G02*
X111700000Y-111550000I1200000J0D01*
G01*
%TO.C,U6*%
X54500000Y-85315000D02*
X56500000Y-85315000D01*
X54500000Y-87535000D02*
X56500000Y-87535000D01*
X53980000Y-85455000D02*
X53700000Y-85455000D01*
X53980000Y-85175000D01*
X53980000Y-85455000D01*
G36*
X53980000Y-85455000D02*
G01*
X53700000Y-85455000D01*
X53980000Y-85175000D01*
X53980000Y-85455000D01*
G37*
%TO.C,C10*%
X59364148Y-107531700D02*
X59886652Y-107531700D01*
X59364148Y-109001700D02*
X59886652Y-109001700D01*
D12*
%TO.C,U4*%
X5450255Y-1352000D02*
X8249255Y-1352000D01*
X5450255Y-2353000D02*
X5450255Y-1352000D01*
X8249255Y-1352000D02*
X8249255Y-2353000D01*
X8249255Y-2353000D02*
X5450255Y-2353000D01*
D13*
X5057755Y-3374000D02*
G75*
G02*
X5060255Y-3374000I1250J124499D01*
G01*
D11*
%TO.C,U5*%
X118137500Y-78440000D02*
X117337500Y-78440000D01*
X118137500Y-78440000D02*
X118937500Y-78440000D01*
X118137500Y-81560000D02*
X117337500Y-81560000D01*
X118137500Y-81560000D02*
X118937500Y-81560000D01*
X116837500Y-78490000D02*
X116597500Y-78160000D01*
X117077500Y-78160000D01*
X116837500Y-78490000D01*
G36*
X116837500Y-78490000D02*
G01*
X116597500Y-78160000D01*
X117077500Y-78160000D01*
X116837500Y-78490000D01*
G37*
%TO.C,TP8*%
X111700000Y-115600000D02*
G75*
G02*
X109300000Y-115600000I-1200000J0D01*
G01*
X109300000Y-115600000D02*
G75*
G02*
X111700000Y-115600000I1200000J0D01*
G01*
%TO.C,U9*%
X115142500Y-85640000D02*
X117722500Y-85640000D01*
X117722500Y-86620000D02*
X117722500Y-85640000D01*
X117722500Y-89380000D02*
X117722500Y-90360000D01*
X117722500Y-90360000D02*
X115002500Y-90360000D01*
X114592500Y-85790000D02*
X114352500Y-85460000D01*
X114832500Y-85460000D01*
X114592500Y-85790000D01*
G36*
X114592500Y-85790000D02*
G01*
X114352500Y-85460000D01*
X114832500Y-85460000D01*
X114592500Y-85790000D01*
G37*
%TO.C,TP9*%
X115750000Y-103450000D02*
G75*
G02*
X113350000Y-103450000I-1200000J0D01*
G01*
X113350000Y-103450000D02*
G75*
G02*
X115750000Y-103450000I1200000J0D01*
G01*
%TO.C,TP11*%
X115750000Y-111550000D02*
G75*
G02*
X113350000Y-111550000I-1200000J0D01*
G01*
X113350000Y-111550000D02*
G75*
G02*
X115750000Y-111550000I1200000J0D01*
G01*
%TO.C,C2*%
X54554148Y-101511700D02*
X55076652Y-101511700D01*
X54554148Y-102981700D02*
X55076652Y-102981700D01*
%TO.C,R3*%
X68910836Y-104846700D02*
X70364964Y-104846700D01*
X68910836Y-106666700D02*
X70364964Y-106666700D01*
%TO.C,R15*%
X74410836Y-101846700D02*
X75864964Y-101846700D01*
X74410836Y-103666700D02*
X75864964Y-103666700D01*
%TO.C,U8*%
X106800000Y-85240000D02*
X104850000Y-85240000D01*
X106800000Y-85240000D02*
X108750000Y-85240000D01*
X106800000Y-90360000D02*
X104850000Y-90360000D01*
X106800000Y-90360000D02*
X108750000Y-90360000D01*
X104100000Y-85335000D02*
X103860000Y-85005000D01*
X104340000Y-85005000D01*
X104100000Y-85335000D01*
G36*
X104100000Y-85335000D02*
G01*
X103860000Y-85005000D01*
X104340000Y-85005000D01*
X104100000Y-85335000D01*
G37*
%TO.C,D2*%
X114490000Y-93350000D02*
X114490000Y-96650000D01*
X114490000Y-93350000D02*
X120000000Y-93350000D01*
X114490000Y-96650000D02*
X120000000Y-96650000D01*
%TO.C,C9*%
X59364148Y-104521700D02*
X59886652Y-104521700D01*
X59364148Y-105991700D02*
X59886652Y-105991700D01*
%TO.C,R4*%
X74410836Y-98346700D02*
X75864964Y-98346700D01*
X74410836Y-100166700D02*
X75864964Y-100166700D01*
%TO.C,TP12*%
X99200000Y-100500000D02*
G75*
G02*
X96800000Y-100500000I-1200000J0D01*
G01*
X96800000Y-100500000D02*
G75*
G02*
X99200000Y-100500000I1200000J0D01*
G01*
%TO.C,R2*%
X68910836Y-101846700D02*
X70364964Y-101846700D01*
X68910836Y-103666700D02*
X70364964Y-103666700D01*
%TO.C,TP5*%
X111700000Y-103450000D02*
G75*
G02*
X109300000Y-103450000I-1200000J0D01*
G01*
X109300000Y-103450000D02*
G75*
G02*
X111700000Y-103450000I1200000J0D01*
G01*
%TO.C,TP1*%
X107650000Y-103450000D02*
G75*
G02*
X105250000Y-103450000I-1200000J0D01*
G01*
X105250000Y-103450000D02*
G75*
G02*
X107650000Y-103450000I1200000J0D01*
G01*
%TO.C,R16*%
X74410836Y-104846700D02*
X75864964Y-104846700D01*
X74410836Y-106666700D02*
X75864964Y-106666700D01*
%TD*%
%LPC*%
D15*
%TO.C,C17*%
X92532500Y-98220000D03*
X94607500Y-98220000D03*
%TD*%
%TO.C,C11*%
X58587900Y-111276700D03*
X60662900Y-111276700D03*
%TD*%
D16*
%TO.C,U2*%
X62000000Y-77000000D03*
X62000000Y-77650000D03*
X62000000Y-78300000D03*
X62000000Y-78950000D03*
X62000000Y-79600000D03*
X62000000Y-80250000D03*
X62000000Y-80900000D03*
X62000000Y-81550000D03*
X67725000Y-81550000D03*
X67725000Y-80900000D03*
X67725000Y-80250000D03*
X67725000Y-79600000D03*
X67725000Y-78950000D03*
X67725000Y-78300000D03*
X67725000Y-77650000D03*
X67725000Y-77000000D03*
%TD*%
D17*
%TO.C,TP6*%
X110500000Y-107500000D03*
%TD*%
D18*
%TO.C,SW1*%
X46500000Y-99000000D03*
X46500000Y-107200000D03*
D19*
X46500000Y-101100000D03*
D20*
X46500000Y-103100000D03*
X46500000Y-105100000D03*
%TD*%
D15*
%TO.C,C1*%
X53777900Y-99236700D03*
X55852900Y-99236700D03*
%TD*%
D21*
%TO.C,L1*%
X64087900Y-110256700D03*
X66412900Y-110256700D03*
%TD*%
D15*
%TO.C,C3*%
X53777900Y-105256700D03*
X55852900Y-105256700D03*
%TD*%
D22*
%TO.C,C15*%
X64027900Y-102246700D03*
X64842900Y-102246700D03*
%TD*%
%TO.C,C16*%
X64027900Y-105256700D03*
X64842900Y-105256700D03*
%TD*%
D16*
%TO.C,U1*%
X71000000Y-77000000D03*
X71000000Y-77650000D03*
X71000000Y-78300000D03*
X71000000Y-78950000D03*
X71000000Y-79600000D03*
X71000000Y-80250000D03*
X71000000Y-80900000D03*
X71000000Y-81550000D03*
X76725000Y-81550000D03*
X76725000Y-80900000D03*
X76725000Y-80250000D03*
X76725000Y-79600000D03*
X76725000Y-78950000D03*
X76725000Y-78300000D03*
X76725000Y-77650000D03*
X76725000Y-77000000D03*
%TD*%
D15*
%TO.C,C8*%
X58587900Y-102246700D03*
X60662900Y-102246700D03*
%TD*%
%TO.C,C5*%
X53777900Y-111276700D03*
X55852900Y-111276700D03*
%TD*%
%TO.C,C14*%
X867500Y-1005000D03*
X2942500Y-1005000D03*
%TD*%
D17*
%TO.C,TP10*%
X114550000Y-107500000D03*
%TD*%
%TO.C,TP12*%
X6335000Y-6225000D03*
%TD*%
D23*
%TO.C,R1*%
X68087900Y-99256700D03*
X71187900Y-99256700D03*
%TD*%
D15*
%TO.C,C17*%
X867500Y-4015000D03*
X2942500Y-4015000D03*
%TD*%
D24*
%TO.C,J2*%
X49680000Y-82880000D03*
D25*
X47660000Y-82880000D03*
D26*
X46430000Y-82880000D03*
D27*
X48680000Y-82880000D03*
D28*
X50700000Y-82880000D03*
D29*
X51930000Y-82880000D03*
D30*
X53500000Y-82800000D03*
X53500000Y-79000000D03*
X44860000Y-82800000D03*
X44860000Y-79000000D03*
%TD*%
D17*
%TO.C,TP4*%
X106450000Y-115600000D03*
%TD*%
D15*
%TO.C,C4*%
X53777900Y-108266700D03*
X55852900Y-108266700D03*
%TD*%
%TO.C,C12*%
X58587900Y-114286700D03*
X60662900Y-114286700D03*
%TD*%
D22*
%TO.C,R5*%
X51025000Y-87000000D03*
X51840000Y-87000000D03*
%TD*%
D31*
%TO.C,U4*%
X101101000Y-96600000D03*
X102050000Y-96600000D03*
X103000000Y-96600000D03*
X103000000Y-94000000D03*
X101101000Y-94000000D03*
%TD*%
D15*
%TO.C,C14*%
X92532500Y-95210000D03*
X94607500Y-95210000D03*
%TD*%
D22*
%TO.C,R8*%
X69877900Y-116236700D03*
X70692900Y-116236700D03*
%TD*%
D15*
%TO.C,C13*%
X63397900Y-99236700D03*
X65472900Y-99236700D03*
%TD*%
D32*
%TO.C,R11*%
X69352900Y-110736700D03*
X71352900Y-110736700D03*
%TD*%
D22*
%TO.C,D1*%
X45525000Y-87000000D03*
X46340000Y-87000000D03*
%TD*%
D17*
%TO.C,TP3*%
X106450000Y-111550000D03*
%TD*%
D33*
%TO.C,J1*%
X103660000Y-124500000D03*
D34*
X103660000Y-127040000D03*
X101120000Y-124500000D03*
X101120000Y-127040000D03*
X98580000Y-124500000D03*
X98580000Y-127040000D03*
X96040000Y-124500000D03*
X96040000Y-127040000D03*
X93500000Y-124500000D03*
X93500000Y-127040000D03*
X90960000Y-124500000D03*
X90960000Y-127040000D03*
X88420000Y-124500000D03*
X88420000Y-127040000D03*
X85880000Y-124500000D03*
X85880000Y-127040000D03*
X83340000Y-124500000D03*
X83340000Y-127040000D03*
X80800000Y-124500000D03*
X80800000Y-127040000D03*
X78260000Y-124500000D03*
X78260000Y-127040000D03*
X75720000Y-124500000D03*
X75720000Y-127040000D03*
X73180000Y-124500000D03*
X73180000Y-127040000D03*
X70640000Y-124500000D03*
X70640000Y-127040000D03*
X68100000Y-124500000D03*
X68100000Y-127040000D03*
X65560000Y-124500000D03*
X65560000Y-127040000D03*
%TD*%
D35*
%TO.C,R7*%
X74852900Y-110736700D03*
X76677900Y-110736700D03*
%TD*%
D15*
%TO.C,C7*%
X58587900Y-99236700D03*
X60662900Y-99236700D03*
%TD*%
D22*
%TO.C,D3*%
X45525000Y-91000000D03*
X46340000Y-91000000D03*
%TD*%
D17*
%TO.C,TP2*%
X106450000Y-107500000D03*
%TD*%
D31*
%TO.C,U7*%
X87601000Y-114000000D03*
X88550000Y-114000000D03*
X89500000Y-114000000D03*
X89500000Y-111400000D03*
X87601000Y-111400000D03*
%TD*%
D36*
%TO.C,R14*%
X66960000Y-91770000D03*
D37*
X67910000Y-89865000D03*
X61050000Y-92405000D03*
D36*
X62000000Y-90500000D03*
%TD*%
D15*
%TO.C,C6*%
X53777900Y-114286700D03*
X55852900Y-114286700D03*
%TD*%
D38*
%TO.C,U10*%
X55000000Y-90000000D03*
X55000000Y-90650000D03*
X55000000Y-91310000D03*
X55000000Y-91960000D03*
X57700000Y-91960000D03*
X57700000Y-91310000D03*
X57700000Y-90650000D03*
X57700000Y-90000000D03*
%TD*%
D31*
%TO.C,U11*%
X95551000Y-112500000D03*
X96500000Y-112500000D03*
X97450000Y-112500000D03*
X97450000Y-109900000D03*
X95551000Y-109900000D03*
%TD*%
D39*
%TO.C,J3*%
X97700000Y-82450000D03*
D40*
X95700000Y-82450000D03*
%TD*%
D22*
%TO.C,R12*%
X75877900Y-115736700D03*
X76692900Y-115736700D03*
%TD*%
D41*
%TO.C,Q2*%
X108550000Y-95945000D03*
X108550000Y-97845000D03*
X110825000Y-96895000D03*
%TD*%
D22*
%TO.C,R6*%
X51025000Y-91000000D03*
X51840000Y-91000000D03*
%TD*%
D17*
%TO.C,TP7*%
X110500000Y-111550000D03*
%TD*%
D42*
%TO.C,U6*%
X54472500Y-85775000D03*
X54472500Y-86425000D03*
X54472500Y-87075000D03*
X56527500Y-87075000D03*
X56527500Y-86425000D03*
X56527500Y-85775000D03*
D43*
X55500000Y-86425000D03*
%TD*%
D15*
%TO.C,C10*%
X58587900Y-108266700D03*
X60662900Y-108266700D03*
%TD*%
D31*
%TO.C,U4*%
X5887755Y-3152500D03*
X6836755Y-3152500D03*
X7786755Y-3152500D03*
X7786755Y-552500D03*
X5887755Y-552500D03*
%TD*%
D41*
%TO.C,U5*%
X117000000Y-79050000D03*
X117000000Y-80000000D03*
X117000000Y-80950000D03*
X119275000Y-80950000D03*
X119275000Y-79050000D03*
%TD*%
D17*
%TO.C,TP8*%
X110500000Y-115600000D03*
%TD*%
D44*
%TO.C,U9*%
X114412500Y-86500000D03*
D45*
X114500000Y-88000000D03*
D44*
X114412500Y-89500000D03*
%TD*%
D17*
%TO.C,TP9*%
X114550000Y-103450000D03*
%TD*%
%TO.C,TP11*%
X114550000Y-111550000D03*
%TD*%
D15*
%TO.C,C2*%
X53777900Y-102246700D03*
X55852900Y-102246700D03*
%TD*%
D23*
%TO.C,R3*%
X68087900Y-105756700D03*
X71187900Y-105756700D03*
%TD*%
%TO.C,R15*%
X73587900Y-102756700D03*
X76687900Y-102756700D03*
%TD*%
D46*
%TO.C,U8*%
X104325000Y-85895000D03*
X104325000Y-87165000D03*
X104325000Y-88435000D03*
X104325000Y-89705000D03*
X109275000Y-89705000D03*
X109275000Y-88435000D03*
X109275000Y-87165000D03*
X109275000Y-85895000D03*
D47*
X106800000Y-87800000D03*
%TD*%
D48*
%TO.C,D2*%
X116000000Y-95000000D03*
X120000000Y-95000000D03*
%TD*%
D15*
%TO.C,C9*%
X58587900Y-105256700D03*
X60662900Y-105256700D03*
%TD*%
D23*
%TO.C,R4*%
X73587900Y-99256700D03*
X76687900Y-99256700D03*
%TD*%
D17*
%TO.C,TP12*%
X98000000Y-100500000D03*
%TD*%
D23*
%TO.C,R2*%
X68087900Y-102756700D03*
X71187900Y-102756700D03*
%TD*%
D17*
%TO.C,TP5*%
X110500000Y-103450000D03*
%TD*%
%TO.C,TP1*%
X106450000Y-103450000D03*
%TD*%
D23*
%TO.C,R16*%
X73587900Y-105756700D03*
X76687900Y-105756700D03*
%TD*%
%LPD*%
M02*
