M48
; DRILL file {KiCad 9.0.0} date 2025-03-28T12:19:08+0200
; FORMAT={-:-/ absolute / inch / decimal}
; #@! TF.CreationDate,2025-03-28T12:19:08+02:00
; #@! TF.GenerationSoftware,Kicad,Pcbnew,9.0.0
; #@! TF.FileFunction,Plated,1,2,PTH
FMAT,2
INCH
; #@! TA.AperFunction,Plated,PTH,ComponentDrill
T1C0.0079
; #@! TA.AperFunction,Plated,PTH,ViaDrill
T2C0.0118
; #@! TA.AperFunction,Plated,PTH,ComponentDrill
T3C0.0236
; #@! TA.AperFunction,Plated,PTH,ComponentDrill
T4C0.0295
; #@! TA.AperFunction,Plated,PTH,ComponentDrill
T5C0.0354
; #@! TA.AperFunction,Plated,PTH,ComponentDrill
T6C0.0394
; #@! TA.AperFunction,Plated,PTH,ComponentDrill
T7C0.0591
; #@! TA.AperFunction,Plated,PTH,ComponentDrill
T8C0.1260
%
G90
G05
T1
X2.8061Y-3.1183
X2.8061Y-3.1656
X2.8061Y-3.2128
X2.8612Y-3.1183
X2.8612Y-3.1656
X2.8612Y-3.2128
T2
X1.7496Y-4.7063
X1.789Y-4.6719
X1.8127Y-3.0189
X1.8127Y-3.2582
X1.8127Y-3.3885
X1.8127Y-3.5192
X1.8567Y-3.8276
X1.9159Y-4.0415
X1.9159Y-4.6002
X1.9198Y-3.3994
X1.9306Y-3.8794
X1.9403Y-4.6482
X1.9643Y-4.0635
X1.9738Y-3.7059
X1.9839Y-3.7983
X1.9912Y-4.3195
X1.9933Y-3.1605
X2.0077Y-4.7898
X2.0095Y-4.0682
X2.0205Y-3.4819
X2.0311Y-3.6317
X2.0429Y-4.0029
X2.0676Y-3.6264
X2.0682Y-3.1438
X2.0688Y-3.4543
X2.0737Y-4.3195
X2.0738Y-4.0255
X2.0743Y-4.512
X2.0771Y-3.8807
X2.0807Y-3.3123
X2.0954Y-3.9071
X2.1076Y-3.5009
X2.1098Y-3.3823
X2.1129Y-3.8492
X2.1146Y-3.5949
X2.1172Y-3.188
X2.1243Y-3.4306
X2.1244Y-4.1193
X2.1303Y-4.1687
X2.1352Y-4.7308
X2.1384Y-3.1317
X2.1398Y-3.4907
X2.1403Y-4.0619
X2.1545Y-4.0156
X2.185Y-3.3484
X2.1877Y-3.515
X2.1913Y-3.4063
X2.1914Y-2.9974
X2.1957Y-3.6709
X2.1989Y-3.8582
X2.2086Y-4.2135
X2.2201Y-3.563
X2.2203Y-4.5723
X2.2226Y-3.6174
X2.2281Y-3.2907
X2.2337Y-3.4899
X2.2366Y-4.3433
X2.2447Y-4.2117
X2.2493Y-4.1202
X2.2566Y-3.9668
X2.2632Y-4.4335
X2.2644Y-4.467
X2.2722Y-3.6905
X2.2959Y-3.5145
X2.3045Y-3.6784
X2.3045Y-4.6871
X2.3102Y-3.5962
X2.3102Y-4.056
X2.3132Y-4.1638
X2.3237Y-3.348
X2.3361Y-3.1096
X2.3362Y-3.0285
X2.3561Y-3.5373
X2.3589Y-4.164
X2.3633Y-3.4843
X2.3656Y-4.6393
X2.3663Y-3.9917
X2.3789Y-4.0928
X2.3795Y-3.727
X2.3831Y-3.0411
X2.3843Y-3.4193
X2.3847Y-3.5139
X2.3976Y-4.0662
X2.4029Y-4.4134
X2.4269Y-4.3282
X2.4272Y-3.8618
X2.4279Y-3.6129
X2.4306Y-3.6529
X2.4319Y-4.2806
X2.4336Y-3.5166
X2.4366Y-4.2143
X2.4404Y-3.8301
X2.4441Y-3.7575
X2.4453Y-3.4095
X2.4464Y-3.3741
X2.4465Y-4.4718
X2.4544Y-4.0367
X2.4634Y-3.1886
X2.466Y-3.4587
X2.4689Y-3.6129
X2.4749Y-3.4949
X2.4755Y-3.7738
X2.4783Y-3.9799
X2.4794Y-3.3765
X2.4862Y-4.0346
X2.4864Y-3.1069
X2.4907Y-3.8816
X2.5046Y-3.1869
X2.5054Y-3.0646
X2.5082Y-3.6343
X2.5196Y-3.7965
X2.5328Y-3.3034
X2.535Y-3.5263
X2.5365Y-3.9628
X2.5386Y-3.0314
X2.5399Y-3.6622
X2.543Y-3.4169
X2.5468Y-3.1326
X2.5473Y-4.464
X2.5534Y-3.0966
X2.5552Y-4.6696
X2.5602Y-4.5554
X2.5661Y-3.232
X2.5669Y-3.161
X2.5787Y-4.4866
X2.5874Y-3.2908
X2.5941Y-4.144
X2.5944Y-4.0277
X2.5995Y-3.176
X2.6033Y-3.0314
X2.6048Y-3.2331
X2.6066Y-3.5249
X2.6092Y-3.9585
X2.6122Y-3.6144
X2.6142Y-4.104
X2.6145Y-3.8492
X2.6149Y-4.2228
X2.6153Y-4.3296
X2.6184Y-3.3145
X2.6194Y-4.2655
X2.6294Y-3.8833
X2.6344Y-4.0589
X2.6355Y-3.773
X2.6368Y-3.3991
X2.647Y-3.2763
X2.6564Y-4.3625
X2.6593Y-4.4276
X2.6665Y-4.6709
X2.6794Y-3.3506
X2.6806Y-3.8528
X2.6821Y-3.7774
X2.6839Y-3.2685
X2.6915Y-4.6349
X2.7042Y-4.1211
X2.7085Y-4.0092
X2.7086Y-3.9766
X2.7152Y-3.1117
X2.7153Y-3.0801
X2.7161Y-3.3889
X2.7164Y-3.5847
X2.7182Y-4.2192
X2.7189Y-3.1571
X2.7244Y-3.7419
X2.7275Y-4.1753
X2.7311Y-3.0328
X2.7328Y-4.8167
X2.7371Y-4.0332
X2.7465Y-4.5559
X2.7556Y-3.5371
X2.756Y-3.3493
X2.7597Y-4.1263
X2.76Y-4.7051
X2.7633Y-3.8531
X2.7645Y-3.9308
X2.7656Y-3.3995
X2.7685Y-4.0067
X2.7707Y-3.7883
X2.7785Y-4.5388
X2.7786Y-3.4802
X2.7841Y-4.6426
X2.7993Y-3.2654
X2.8029Y-3.5013
X2.807Y-3.4337
X2.8074Y-3.0258
X2.8134Y-3.3148
X2.8174Y-4.1245
X2.8182Y-3.7942
X2.8186Y-3.8438
X2.8212Y-3.5661
X2.8366Y-4.544
X2.8396Y-4.3419
X2.8445Y-3.1827
X2.8547Y-4.1744
X2.8594Y-3.1199
X2.8669Y-3.0146
X2.8675Y-3.9354
X2.8724Y-3.8239
X2.8769Y-3.0794
X2.8783Y-4.1018
X2.8794Y-4.4337
X2.8919Y-3.038
X2.8963Y-4.8444
X2.9076Y-4.3624
X2.9079Y-3.8064
X2.9082Y-3.71
X2.9094Y-3.8543
X2.9133Y-3.9192
X2.9139Y-3.6046
X2.915Y-3.4353
X2.9162Y-3.5457
X2.9176Y-3.9527
X2.918Y-3.0193
X2.925Y-4.0489
X2.9316Y-3.1697
X2.9337Y-4.1811
X2.9384Y-4.5168
X2.9427Y-4.4578
X2.9468Y-3.0587
X2.9516Y-3.7849
X2.9715Y-4.0278
X2.98Y-3.315
X2.9815Y-3.4998
X2.985Y-3.9574
X2.9899Y-4.8325
X2.9901Y-3.1687
X2.9917Y-4.1001
X3.0063Y-3.6223
X3.0122Y-4.5289
X3.0123Y-3.7011
X3.0158Y-3.2747
X3.0194Y-3.3728
X3.0212Y-4.3499
X3.0217Y-3.4149
X3.0218Y-4.4461
X3.0248Y-4.0866
X3.0255Y-4.1653
X3.0281Y-3.449
X3.0353Y-3.8318
X3.0414Y-3.1103
X3.0532Y-4.5554
X3.0537Y-3.6295
X3.0615Y-3.5868
X3.0636Y-3.0118
X3.0894Y-4.3195
X3.0993Y-3.0171
X3.1016Y-4.2524
X3.1054Y-4.6408
X3.1113Y-3.161
X3.1113Y-3.3427
X3.1229Y-3.6461
X3.123Y-3.1074
X3.1267Y-3.8577
X3.1346Y-4.5833
X3.1411Y-4.0067
X3.1468Y-3.7932
X3.1567Y-3.6351
X3.161Y-4.0866
X3.1628Y-4.1289
X3.1639Y-4.4954
X3.1704Y-4.0241
X3.1731Y-3.3664
X3.2023Y-4.4998
X3.2066Y-4.0613
X3.2085Y-3.5831
X3.2172Y-3.9476
X3.2318Y-4.0937
X3.232Y-3.4458
X3.2546Y-4.4263
X3.2547Y-3.6628
X3.2598Y-4.1199
X3.2795Y-4.3827
X3.2953Y-3.8441
X3.2962Y-4.6067
X3.3197Y-4.4394
X3.3311Y-4.6559
X3.3415Y-4.4791
X3.3616Y-4.5655
X3.3774Y-4.4236
X3.4353Y-4.7495
X3.4436Y-4.8434
X3.4517Y-4.1307
X3.4618Y-4.5725
X3.4655Y-4.4099
X3.4753Y-4.4449
X3.4775Y-3.8596
X3.4788Y-3.2599
X3.4815Y-3.3946
X3.4815Y-3.6512
X3.4856Y-4.0904
X3.4889Y-3.9555
X3.5149Y-3.3542
X3.5271Y-3.7635
X3.569Y-3.8581
X3.575Y-3.7334
X3.5787Y-4.587
X3.5793Y-3.13
X3.5816Y-4.3195
X3.5816Y-4.4641
X3.6165Y-4.8622
X3.6272Y-4.138
X3.6479Y-4.369
X3.6553Y-4.4332
X3.6741Y-3.8976
X3.6843Y-4.2229
X3.6996Y-3.1361
X3.7074Y-3.5817
X3.7274Y-4.5075
X3.7344Y-4.1684
X3.7444Y-3.855
X3.7461Y-4.7175
X3.7493Y-4.5565
X3.7679Y-3.7203
X3.7864Y-4.6872
X3.7993Y-4.4709
X3.8043Y-4.7821
X3.8112Y-3.9
X3.8167Y-4.1236
X3.8216Y-3.4965
X3.8366Y-3.7791
X3.8384Y-4.9431
X3.847Y-3.6877
X3.851Y-3.5883
X3.8536Y-4.1218
X3.8937Y-4.1239
X3.917Y-4.582
X3.9174Y-3.5899
X3.9359Y-3.3789
X3.9359Y-3.5119
X3.9359Y-4.2549
X3.9785Y-4.4371
X4.009Y-3.4646
X4.0177Y-3.7613
X4.0192Y-4.1367
X4.0211Y-4.1897
X4.0287Y-4.7018
X4.0386Y-3.7948
X4.0493Y-3.2605
X4.0493Y-4.3008
X4.0548Y-4.5748
X4.0637Y-4.5064
X4.0685Y-3.4707
X4.0703Y-4.8077
X4.0916Y-4.5771
X4.127Y-4.3149
X4.1326Y-3.2287
X4.1335Y-3.9782
X4.1515Y-3.1273
X4.1576Y-4.9326
X4.1578Y-4.709
X4.1636Y-3.7734
X4.1636Y-4.0987
X4.1644Y-3.2614
X4.1921Y-4.655
X4.2061Y-4.1652
X4.2323Y-3.4128
X4.2354Y-4.2029
X4.2376Y-3.8048
X4.2625Y-4.7875
X4.2925Y-3.1479
X4.2925Y-3.4777
X4.3034Y-4.3173
X4.3161Y-3.8099
X4.3258Y-3.8496
X4.3726Y-3.57
X4.3726Y-3.6326
X4.4158Y-3.0042
X4.424Y-4.3238
X4.4314Y-3.5595
X4.457Y-3.4646
X4.4709Y-3.3957
X4.4813Y-3.5106
X4.4839Y-3.7316
X4.4891Y-3.7668
X4.4891Y-3.942
X4.4896Y-3.6555
X4.5257Y-3.3531
X4.5326Y-3.6385
X4.5326Y-3.9258
X4.5597Y-3.1438
X4.5689Y-3.1111
X4.6135Y-3.7638
X4.6219Y-4.2971
X4.6457Y-3.7316
X4.6491Y-4.1043
X4.6491Y-5.0588
X4.6602Y-4.0538
X4.6629Y-3.2654
X4.6711Y-3.1483
X4.6731Y-4.4219
X4.7067Y-3.5264
X4.7095Y-4.1983
X4.7095Y-4.9791
X4.7116Y-4.002
X4.7175Y-4.0502
X4.7332Y-4.1672
X4.7342Y-4.0866
X4.7342Y-3.752
X4.7495Y-4.437
X4.7592Y-4.2244
X4.7717Y-4.3431
X4.7736Y-3.1378
X4.7973Y-4.7346
X4.8243Y-4.7584
T4
X3.7205Y-3.2559
X3.7992Y-3.2559
T5
X1.8307Y-3.9764
X1.8307Y-4.0551
X1.8307Y-4.1339
T6
X2.4016Y-4.4882
X2.5787Y-4.9016
X2.5787Y-5.0016
X2.6787Y-4.9016
X2.6787Y-5.0016
X2.7787Y-4.9016
X2.7787Y-5.0016
X2.8787Y-4.9016
X2.8787Y-5.0016
X2.9787Y-4.9016
X2.9787Y-5.0016
X3.0118Y-4.2717
X3.0787Y-4.9016
X3.0787Y-5.0016
X3.1787Y-4.9016
X3.1787Y-5.0016
X3.2787Y-4.9016
X3.2787Y-5.0016
X3.3787Y-4.9016
X3.3787Y-5.0016
X3.4787Y-4.9016
X3.4787Y-5.0016
X3.5787Y-4.9016
X3.5787Y-5.0016
X3.6787Y-4.9016
X3.6787Y-5.0016
X3.7787Y-4.9016
X3.7787Y-5.0016
X3.7795Y-3.5039
X3.7795Y-4.2071
X3.8189Y-4.5866
X3.8787Y-4.9016
X3.8787Y-5.0016
X3.9787Y-4.9016
X3.9787Y-5.0016
X4.0157Y-4.5866
X4.0551Y-3.6417
X4.0787Y-4.9016
X4.0787Y-5.0016
X4.1535Y-3.1102
X4.252Y-4.5866
X4.4488Y-3.1102
T7
X1.8307Y-3.8937
X1.8307Y-4.2165
T8
X3.3268Y-3.189
X3.3268Y-3.5827
X3.3287Y-3.9764
T3
G00X2.0811Y-3.1024
M15
G01X2.0811Y-3.0787
M16
G05
G00X2.0811Y-3.252
M15
G01X2.0811Y-3.2283
M16
G05
G00X2.4213Y-3.1024
M15
G01X2.4213Y-3.0787
M16
G05
G00X2.4213Y-3.252
M15
G01X2.4213Y-3.2283
M16
G05
M30
