%TF.GenerationSoftware,KiCad,Pcbnew,9.0.0*%
%TF.CreationDate,2025-03-28T12:19:08+02:00*%
%TF.ProjectId,EEE3088F_2025_Project,45454533-3038-4384-965f-323032355f50,rev?*%
%TF.SameCoordinates,Original*%
%TF.FileFunction,Soldermask,Bot*%
%TF.FilePolarity,Negative*%
%FSLAX46Y46*%
G04 Gerber Fmt 4.6, Leading zero omitted, Abs format (unit mm)*
G04 Created by KiCad (PCBNEW 9.0.0) date 2025-03-28 12:19:08*
%MOMM*%
%LPD*%
G01*
G04 APERTURE LIST*
G04 Aperture macros list*
%AMRoundRect*
0 Rectangle with rounded corners*
0 $1 Rounding radius*
0 $2 $3 $4 $5 $6 $7 $8 $9 X,Y pos of 4 corners*
0 Add a 4 corners polygon primitive as box body*
4,1,4,$2,$3,$4,$5,$6,$7,$8,$9,$2,$3,0*
0 Add four circle primitives for the rounded corners*
1,1,$1+$1,$2,$3*
1,1,$1+$1,$4,$5*
1,1,$1+$1,$6,$7*
1,1,$1+$1,$8,$9*
0 Add four rect primitives between the rounded corners*
20,1,$1+$1,$2,$3,$4,$5,0*
20,1,$1+$1,$4,$5,$6,$7,0*
20,1,$1+$1,$6,$7,$8,$9,0*
20,1,$1+$1,$8,$9,$2,$3,0*%
G04 Aperture macros list end*
%ADD10C,2.000000*%
%ADD11C,5.600000*%
%ADD12RoundRect,0.250000X0.350000X0.625000X-0.350000X0.625000X-0.350000X-0.625000X0.350000X-0.625000X0*%
%ADD13O,1.200000X1.750000*%
%ADD14R,1.700000X1.700000*%
%ADD15O,1.700000X1.700000*%
%ADD16O,1.100000X1.700000*%
%ADD17O,3.500000X2.200000*%
%ADD18R,2.500000X1.500000*%
%ADD19O,2.500000X1.500000*%
G04 APERTURE END LIST*
D10*
%TO.C,TP6*%
X103000000Y-92500000D03*
%TD*%
D11*
%TO.C,H2*%
X84500000Y-91000000D03*
%TD*%
D10*
%TO.C,TP1*%
X97000000Y-116500000D03*
%TD*%
D12*
%TO.C,J3*%
X96500000Y-82700000D03*
D13*
X94500000Y-82700000D03*
%TD*%
D10*
%TO.C,TP8*%
X113000000Y-79000000D03*
%TD*%
D14*
%TO.C,J1*%
X103600000Y-124500000D03*
D15*
X103600000Y-127040000D03*
X101060000Y-124500000D03*
X101060000Y-127040000D03*
X98520000Y-124500000D03*
X98520000Y-127040000D03*
X95980000Y-124500000D03*
X95980000Y-127040000D03*
X93440000Y-124500000D03*
X93440000Y-127040000D03*
X90900000Y-124500000D03*
X90900000Y-127040000D03*
X88360000Y-124500000D03*
X88360000Y-127040000D03*
X85820000Y-124500000D03*
X85820000Y-127040000D03*
X83280000Y-124500000D03*
X83280000Y-127040000D03*
X80740000Y-124500000D03*
X80740000Y-127040000D03*
X78200000Y-124500000D03*
X78200000Y-127040000D03*
X75660000Y-124500000D03*
X75660000Y-127040000D03*
X73120000Y-124500000D03*
X73120000Y-127040000D03*
X70580000Y-124500000D03*
X70580000Y-127040000D03*
X68040000Y-124500000D03*
X68040000Y-127040000D03*
X65500000Y-124500000D03*
X65500000Y-127040000D03*
%TD*%
D16*
%TO.C,J2*%
X61500000Y-82300000D03*
X61500000Y-78500000D03*
X52860000Y-82300000D03*
X52860000Y-78500000D03*
%TD*%
D11*
%TO.C,H1*%
X84500000Y-81000000D03*
%TD*%
D10*
%TO.C,TP12*%
X96000000Y-106860000D03*
%TD*%
%TO.C,TP7*%
X108000000Y-116500000D03*
%TD*%
%TO.C,TP10*%
X76500000Y-108500000D03*
%TD*%
%TO.C,TP4*%
X96000000Y-89000000D03*
%TD*%
%TO.C,TP2*%
X102000000Y-116500000D03*
%TD*%
D11*
%TO.C,H3*%
X84550000Y-101000000D03*
%TD*%
D10*
%TO.C,TP3*%
X105500000Y-79000000D03*
%TD*%
%TO.C,TP9*%
X61000000Y-114000000D03*
%TD*%
D17*
%TO.C,SW1*%
X46500000Y-98900000D03*
X46500000Y-107100000D03*
D18*
X46500000Y-101000000D03*
D19*
X46500000Y-103000000D03*
X46500000Y-105000000D03*
%TD*%
M02*
