M48
; DRILL file {KiCad 9.0.0} date 2025-03-28T02:53:08+0200
; FORMAT={-:-/ absolute / inch / decimal}
; #@! TF.CreationDate,2025-03-28T02:53:08+02:00
; #@! TF.GenerationSoftware,Kicad,Pcbnew,9.0.0
; #@! TF.FileFunction,Plated,1,2,PTH
FMAT,2
INCH
; #@! TA.AperFunction,Plated,PTH,ComponentDrill
T1C0.0079
; #@! TA.AperFunction,Plated,PTH,ViaDrill
T2C0.0118
; #@! TA.AperFunction,Plated,PTH,ComponentDrill
T3C0.0236
; #@! TA.AperFunction,Plated,PTH,ComponentDrill
T4C0.0295
; #@! TA.AperFunction,Plated,PTH,ComponentDrill
T5C0.0354
; #@! TA.AperFunction,Plated,PTH,ComponentDrill
T6C0.0394
; #@! TA.AperFunction,Plated,PTH,ComponentDrill
T7C0.0591
%
G90
G05
T1
X4.1772Y-3.4094
X4.1772Y-3.4567
X4.1772Y-3.5039
X4.2323Y-3.4094
X4.2323Y-3.4567
X4.2323Y-3.5039
T2
X2.0676Y-3.6264
X2.0688Y-3.4543
X2.0807Y-3.3123
X2.1098Y-3.3823
X2.2566Y-3.9668
X2.2632Y-4.4335
X2.3102Y-3.5962
X2.3102Y-4.056
X2.3589Y-4.164
X2.3633Y-3.4843
X2.3847Y-3.5139
X2.4029Y-4.4134
X2.4269Y-4.3282
X2.4272Y-3.8618
X2.4279Y-3.6129
X2.4366Y-4.2143
X2.4465Y-4.4718
X2.4544Y-4.0366
X2.4755Y-3.7738
X2.5046Y-3.1869
X2.5196Y-3.7965
X2.5386Y-3.0314
X2.5468Y-3.1326
X2.5534Y-3.0966
X2.5669Y-3.161
X2.5874Y-3.2908
X2.6033Y-3.0314
X2.6048Y-3.2331
X2.6092Y-3.9585
X2.6142Y-4.104
X2.6145Y-3.8492
X2.6149Y-4.2228
X2.6153Y-4.3296
X2.6184Y-3.3145
X2.6194Y-4.2655
X2.6294Y-3.8833
X2.6355Y-3.773
X2.6665Y-4.671
X2.6839Y-3.2685
X2.7152Y-3.1117
X2.7153Y-3.0801
X2.7182Y-4.2192
X2.7189Y-3.1571
X2.7311Y-3.0328
X2.756Y-3.3493
X2.7656Y-3.3995
X2.7685Y-4.0067
X2.8027Y-3.7152
X2.807Y-3.4337
X2.8134Y-3.3148
X2.8174Y-4.1245
X2.8182Y-3.7942
X2.8212Y-3.5661
X2.8594Y-3.1199
X2.8675Y-3.9354
X2.8724Y-3.8239
X2.8769Y-3.0794
X2.8919Y-3.038
X2.9094Y-3.8543
X2.9133Y-3.9192
X2.9139Y-3.6046
X2.925Y-4.0489
X2.9316Y-3.1697
X2.9384Y-4.5168
X2.9516Y-3.7849
X2.985Y-3.9574
X3.0063Y-3.6223
X3.0158Y-3.2747
X3.0217Y-3.4149
X3.0218Y-4.4461
X3.0248Y-4.0866
X3.0615Y-3.5868
X3.0636Y-3.0118
X3.0894Y-4.3195
X3.0993Y-3.0171
X3.1016Y-4.2524
X3.1054Y-4.6408
X3.1113Y-3.161
X3.123Y-3.1074
X3.1267Y-3.8577
X3.1411Y-4.0067
X3.1567Y-3.6351
X3.161Y-4.0866
X3.1639Y-4.4954
X3.2023Y-4.4998
X3.2085Y-3.5831
X3.2172Y-3.9476
X3.2598Y-4.1199
X3.3197Y-4.4395
X3.4618Y-4.5725
X3.4775Y-3.8596
X3.4788Y-3.2599
X3.4889Y-3.9555
X3.5144Y-4.7878
X3.5271Y-3.7635
X3.5793Y-3.13
X3.5816Y-4.3195
X3.7444Y-3.855
X3.8366Y-3.7791
X3.8384Y-4.9432
X3.8937Y-4.1239
X3.9359Y-3.3789
X4.009Y-3.4646
X4.0493Y-3.2605
X4.1515Y-3.1273
X4.1644Y-3.2614
X4.2925Y-3.1479
X4.4812Y-3.5106
T4
X3.7677Y-3.2461
X3.8465Y-3.2461
T5
X1.8307Y-3.9803
X1.8307Y-4.0591
X1.8307Y-4.1378
T6
X0.2494Y-0.2451
X2.5811Y-4.9016
X2.5811Y-5.0016
X2.6811Y-4.9016
X2.6811Y-5.0016
X2.7811Y-4.9016
X2.7811Y-5.0016
X2.8811Y-4.9016
X2.8811Y-5.0016
X2.9811Y-4.9016
X2.9811Y-5.0016
X3.0811Y-4.9016
X3.0811Y-5.0016
X3.1811Y-4.9016
X3.1811Y-5.0016
X3.2811Y-4.9016
X3.2811Y-5.0016
X3.3811Y-4.9016
X3.3811Y-5.0016
X3.4811Y-4.9016
X3.4811Y-5.0016
X3.5811Y-4.9016
X3.5811Y-5.0016
X3.6811Y-4.9016
X3.6811Y-5.0016
X3.7811Y-4.9016
X3.7811Y-5.0016
X3.8583Y-3.9567
X3.8811Y-4.9016
X3.8811Y-5.0016
X3.9811Y-4.9016
X3.9811Y-5.0016
X4.0811Y-4.9016
X4.0811Y-5.0016
X4.1909Y-4.0728
X4.1909Y-4.2323
X4.1909Y-4.3917
X4.1909Y-4.5512
X4.3504Y-4.0728
X4.3504Y-4.2323
X4.3504Y-4.3917
X4.3504Y-4.5512
X4.5098Y-4.0728
X4.5098Y-4.2323
X4.5098Y-4.3917
T7
X1.8307Y-3.8976
X1.8307Y-4.2205
T3
G00X1.7661Y-3.122
M15
G01X1.7661Y-3.0984
M16
G05
G00X1.7661Y-3.2717
M15
G01X1.7661Y-3.248
M16
G05
G00X2.1063Y-3.122
M15
G01X2.1063Y-3.0984
M16
G05
G00X2.1063Y-3.2717
M15
G01X2.1063Y-3.248
M16
G05
M30
