%TF.GenerationSoftware,KiCad,Pcbnew,9.0.0*%
%TF.CreationDate,2025-03-28T15:52:13+02:00*%
%TF.ProjectId,EEE3088F_2025_Project,45454533-3038-4384-965f-323032355f50,rev?*%
%TF.SameCoordinates,Original*%
%TF.FileFunction,Soldermask,Bot*%
%TF.FilePolarity,Negative*%
%FSLAX46Y46*%
G04 Gerber Fmt 4.6, Leading zero omitted, Abs format (unit mm)*
G04 Created by KiCad (PCBNEW 9.0.0) date 2025-03-28 15:52:13*
%MOMM*%
%LPD*%
G01*
G04 APERTURE LIST*
G04 Aperture macros list*
%AMRoundRect*
0 Rectangle with rounded corners*
0 $1 Rounding radius*
0 $2 $3 $4 $5 $6 $7 $8 $9 X,Y pos of 4 corners*
0 Add a 4 corners polygon primitive as box body*
4,1,4,$2,$3,$4,$5,$6,$7,$8,$9,$2,$3,0*
0 Add four circle primitives for the rounded corners*
1,1,$1+$1,$2,$3*
1,1,$1+$1,$4,$5*
1,1,$1+$1,$6,$7*
1,1,$1+$1,$8,$9*
0 Add four rect primitives between the rounded corners*
20,1,$1+$1,$2,$3,$4,$5,0*
20,1,$1+$1,$4,$5,$6,$7,0*
20,1,$1+$1,$6,$7,$8,$9,0*
20,1,$1+$1,$8,$9,$2,$3,0*%
G04 Aperture macros list end*
%ADD10C,2.000000*%
%ADD11O,2.200000X3.500000*%
%ADD12R,1.500000X2.500000*%
%ADD13O,1.500000X2.500000*%
%ADD14RoundRect,0.250000X0.350000X0.625000X-0.350000X0.625000X-0.350000X-0.625000X0.350000X-0.625000X0*%
%ADD15O,1.200000X1.750000*%
%ADD16O,1.100000X1.700000*%
%ADD17R,1.700000X1.700000*%
%ADD18O,1.700000X1.700000*%
%ADD19C,5.600000*%
G04 APERTURE END LIST*
D10*
%TO.C,TP12*%
X164566800Y-86138200D03*
%TD*%
%TO.C,TP10*%
X164566800Y-82088200D03*
%TD*%
%TO.C,TP9*%
X164566800Y-78038200D03*
%TD*%
%TO.C,TP8*%
X164566800Y-73988200D03*
%TD*%
%TO.C,TP7*%
X164566800Y-69938200D03*
%TD*%
%TO.C,TP6*%
X160516800Y-86138200D03*
%TD*%
%TO.C,TP4*%
X160516800Y-82088200D03*
%TD*%
%TO.C,TP3*%
X160516800Y-78038200D03*
%TD*%
%TO.C,TP2*%
X160516800Y-73988200D03*
%TD*%
%TO.C,TP1*%
X160516800Y-69938200D03*
%TD*%
D11*
%TO.C,SW1*%
X183000000Y-67500000D03*
X174800000Y-67500000D03*
D12*
X180900000Y-67500000D03*
D13*
X178900000Y-67500000D03*
X176900000Y-67500000D03*
%TD*%
D14*
%TO.C,J3*%
X116500000Y-73000000D03*
D15*
X114500000Y-73000000D03*
%TD*%
D16*
%TO.C,J2*%
X139820000Y-71920000D03*
X139820000Y-68120000D03*
X131180000Y-71920000D03*
X131180000Y-68120000D03*
%TD*%
D17*
%TO.C,J1*%
X170280000Y-114000000D03*
D18*
X170280000Y-116540000D03*
X167740000Y-114000000D03*
X167740000Y-116540000D03*
X165200000Y-114000000D03*
X165200000Y-116540000D03*
X162660000Y-114000000D03*
X162660000Y-116540000D03*
X160120000Y-114000000D03*
X160120000Y-116540000D03*
X157580000Y-114000000D03*
X157580000Y-116540000D03*
X155040000Y-114000000D03*
X155040000Y-116540000D03*
X152500000Y-114000000D03*
X152500000Y-116540000D03*
X149960000Y-114000000D03*
X149960000Y-116540000D03*
X147420000Y-114000000D03*
X147420000Y-116540000D03*
X144880000Y-114000000D03*
X144880000Y-116540000D03*
X142340000Y-114000000D03*
X142340000Y-116540000D03*
X139800000Y-114000000D03*
X139800000Y-116540000D03*
X137260000Y-114000000D03*
X137260000Y-116540000D03*
X134720000Y-114000000D03*
X134720000Y-116540000D03*
X132180000Y-114000000D03*
X132180000Y-116540000D03*
%TD*%
D19*
%TO.C,H3*%
X150000000Y-91000000D03*
%TD*%
%TO.C,H2*%
X150500000Y-81500000D03*
%TD*%
%TO.C,H1*%
X150500000Y-72500000D03*
%TD*%
M02*
