%TF.GenerationSoftware,KiCad,Pcbnew,9.0.0*%
%TF.CreationDate,2025-03-28T12:19:08+02:00*%
%TF.ProjectId,EEE3088F_2025_Project,45454533-3038-4384-965f-323032355f50,rev?*%
%TF.SameCoordinates,Original*%
%TF.FileFunction,Copper,L2,Bot*%
%TF.FilePolarity,Positive*%
%FSLAX46Y46*%
G04 Gerber Fmt 4.6, Leading zero omitted, Abs format (unit mm)*
G04 Created by KiCad (PCBNEW 9.0.0) date 2025-03-28 12:19:08*
%MOMM*%
%LPD*%
G01*
G04 APERTURE LIST*
G04 Aperture macros list*
%AMRoundRect*
0 Rectangle with rounded corners*
0 $1 Rounding radius*
0 $2 $3 $4 $5 $6 $7 $8 $9 X,Y pos of 4 corners*
0 Add a 4 corners polygon primitive as box body*
4,1,4,$2,$3,$4,$5,$6,$7,$8,$9,$2,$3,0*
0 Add four circle primitives for the rounded corners*
1,1,$1+$1,$2,$3*
1,1,$1+$1,$4,$5*
1,1,$1+$1,$6,$7*
1,1,$1+$1,$8,$9*
0 Add four rect primitives between the rounded corners*
20,1,$1+$1,$2,$3,$4,$5,0*
20,1,$1+$1,$4,$5,$6,$7,0*
20,1,$1+$1,$6,$7,$8,$9,0*
20,1,$1+$1,$8,$9,$2,$3,0*%
G04 Aperture macros list end*
%TA.AperFunction,ComponentPad*%
%ADD10C,2.000000*%
%TD*%
%TA.AperFunction,ComponentPad*%
%ADD11C,5.600000*%
%TD*%
%TA.AperFunction,HeatsinkPad*%
%ADD12C,0.500000*%
%TD*%
%TA.AperFunction,HeatsinkPad*%
%ADD13R,1.900000X2.900000*%
%TD*%
%TA.AperFunction,ComponentPad*%
%ADD14RoundRect,0.250000X0.350000X0.625000X-0.350000X0.625000X-0.350000X-0.625000X0.350000X-0.625000X0*%
%TD*%
%TA.AperFunction,ComponentPad*%
%ADD15O,1.200000X1.750000*%
%TD*%
%TA.AperFunction,ComponentPad*%
%ADD16R,1.700000X1.700000*%
%TD*%
%TA.AperFunction,ComponentPad*%
%ADD17O,1.700000X1.700000*%
%TD*%
%TA.AperFunction,HeatsinkPad*%
%ADD18O,1.100000X1.700000*%
%TD*%
%TA.AperFunction,ComponentPad*%
%ADD19O,3.500000X2.200000*%
%TD*%
%TA.AperFunction,ComponentPad*%
%ADD20R,2.500000X1.500000*%
%TD*%
%TA.AperFunction,ComponentPad*%
%ADD21O,2.500000X1.500000*%
%TD*%
%TA.AperFunction,ViaPad*%
%ADD22C,0.600000*%
%TD*%
%TA.AperFunction,Conductor*%
%ADD23C,0.200000*%
%TD*%
G04 APERTURE END LIST*
D10*
%TO.P,TP6,1,1*%
%TO.N,Net-(JP3-B)*%
X103000000Y-92500000D03*
%TD*%
D11*
%TO.P,H2,1*%
%TO.N,GND*%
X84500000Y-91000000D03*
%TD*%
D10*
%TO.P,TP1,1,1*%
%TO.N,/IN-*%
X97000000Y-116500000D03*
%TD*%
D12*
%TO.P,U8,9,EPAD*%
%TO.N,GND*%
X71275000Y-79205000D03*
X71275000Y-80405000D03*
X71275000Y-81605000D03*
D13*
X71975000Y-80405000D03*
D12*
X72675000Y-79205000D03*
X72675000Y-80405000D03*
X72675000Y-81605000D03*
%TD*%
D14*
%TO.P,J3,1,Pin_1*%
%TO.N,GND*%
X96500000Y-82700000D03*
D15*
%TO.P,J3,2,Pin_2*%
%TO.N,/IN+*%
X94500000Y-82700000D03*
%TD*%
D10*
%TO.P,TP8,1,1*%
%TO.N,Net-(U2-AISEN)*%
X113000000Y-79000000D03*
%TD*%
D16*
%TO.P,J1,1,Pin_1*%
%TO.N,/Motor2_B_OUT*%
X103600000Y-124500000D03*
D17*
%TO.P,J1,2,Pin_2*%
%TO.N,/Motor2_A_OUT*%
X103600000Y-127040000D03*
%TO.P,J1,3,Pin_3*%
%TO.N,/Motor4_A_OUT*%
X101060000Y-124500000D03*
%TO.P,J1,4,Pin_4*%
%TO.N,/MOTOR2_CTRL1*%
X101060000Y-127040000D03*
%TO.P,J1,5,Pin_5*%
%TO.N,/Motor4_B_OUT*%
X98520000Y-124500000D03*
%TO.P,J1,6,Pin_6*%
%TO.N,/MOTOR2_CTRL2*%
X98520000Y-127040000D03*
%TO.P,J1,7,Pin_7*%
%TO.N,/CTRL_EXT_LOAD2*%
X95980000Y-124500000D03*
%TO.P,J1,8,Pin_8*%
%TO.N,/MOTOR4_CTRL1*%
X95980000Y-127040000D03*
%TO.P,J1,9,Pin_9*%
%TO.N,/USART2_RX*%
X93440000Y-124500000D03*
%TO.P,J1,10,Pin_10*%
%TO.N,/MOTOR4_CTRL2*%
X93440000Y-127040000D03*
%TO.P,J1,11,Pin_11*%
%TO.N,/EXT_LOAD2_OUT*%
X90900000Y-124500000D03*
%TO.P,J1,12,Pin_12*%
%TO.N,/USART2_TX*%
X90900000Y-127040000D03*
%TO.P,J1,13,Pin_13*%
%TO.N,/FAST_CHARGE_CTRL*%
X88360000Y-124500000D03*
%TO.P,J1,14,Pin_14*%
%TO.N,/Battery*%
X88360000Y-127040000D03*
%TO.P,J1,15,Pin_15*%
%TO.N,unconnected-(J1-Pin_15-Pad15)*%
X85820000Y-124500000D03*
%TO.P,J1,16,Pin_16*%
%TO.N,/I2C1_SCL*%
X85820000Y-127040000D03*
%TO.P,J1,17,Pin_17*%
%TO.N,/I2C1_SDA*%
X83280000Y-124500000D03*
%TO.P,J1,18,Pin_18*%
%TO.N,/3V3 Out*%
X83280000Y-127040000D03*
%TO.P,J1,19,Pin_19*%
%TO.N,GND*%
X80740000Y-124500000D03*
%TO.P,J1,20,Pin_20*%
%TO.N,/5V Out*%
X80740000Y-127040000D03*
%TO.P,J1,21,Pin_21*%
%TO.N,/EXT_LOAD1_OUT*%
X78200000Y-124500000D03*
%TO.P,J1,22,Pin_22*%
%TO.N,/HV*%
X78200000Y-127040000D03*
%TO.P,J1,23,Pin_23*%
%TO.N,GND*%
X75660000Y-124500000D03*
%TO.P,J1,24,Pin_24*%
%TO.N,/MOTOR3_CTRL1*%
X75660000Y-127040000D03*
%TO.P,J1,25,Pin_25*%
%TO.N,/CTRL_EXT_LOAD1*%
X73120000Y-124500000D03*
%TO.P,J1,26,Pin_26*%
%TO.N,/MOTOR3_CTRL2*%
X73120000Y-127040000D03*
%TO.P,J1,27,Pin_27*%
%TO.N,/MOTOR3_A_OUT*%
X70580000Y-124500000D03*
%TO.P,J1,28,Pin_28*%
%TO.N,/MOTOR1_CTRL1*%
X70580000Y-127040000D03*
%TO.P,J1,29,Pin_29*%
%TO.N,/MOTOR3_B_OUT*%
X68040000Y-124500000D03*
%TO.P,J1,30,Pin_30*%
%TO.N,/MOTOR1_CTRL2*%
X68040000Y-127040000D03*
%TO.P,J1,31,Pin_31*%
%TO.N,/MOTOR1_B_OUT*%
X65500000Y-124500000D03*
%TO.P,J1,32,Pin_32*%
%TO.N,/MOTOR1_A_OUT*%
X65500000Y-127040000D03*
%TD*%
D18*
%TO.P,J2,S1,Shield*%
%TO.N,GND*%
X61500000Y-82300000D03*
X61500000Y-78500000D03*
X52860000Y-82300000D03*
X52860000Y-78500000D03*
%TD*%
D11*
%TO.P,H1,1*%
%TO.N,GND*%
X84500000Y-81000000D03*
%TD*%
D10*
%TO.P,TP12,1,1*%
%TO.N,Net-(JP4-B)*%
X96000000Y-106860000D03*
%TD*%
%TO.P,TP7,1,1*%
%TO.N,/5V Out*%
X108000000Y-116500000D03*
%TD*%
%TO.P,TP10,1,1*%
%TO.N,/EXT_LOAD2_OUT*%
X76500000Y-108500000D03*
%TD*%
%TO.P,TP4,1,1*%
%TO.N,/5V*%
X96000000Y-89000000D03*
%TD*%
%TO.P,TP2,1,1*%
%TO.N,/EXT_LOAD1_OUT*%
X102000000Y-116500000D03*
%TD*%
D11*
%TO.P,H3,1*%
%TO.N,GND*%
X84550000Y-101000000D03*
%TD*%
D10*
%TO.P,TP3,1,1*%
%TO.N,Net-(Q2-D)*%
X105500000Y-79000000D03*
%TD*%
%TO.P,TP9,1,1*%
%TO.N,Net-(U1-AISEN)*%
X61000000Y-114000000D03*
%TD*%
D19*
%TO.P,SW1,*%
%TO.N,*%
X46500000Y-98900000D03*
X46500000Y-107100000D03*
D20*
%TO.P,SW1,1,A*%
%TO.N,/Battery*%
X46500000Y-101000000D03*
D21*
%TO.P,SW1,2,B*%
%TO.N,/IN-*%
X46500000Y-103000000D03*
%TO.P,SW1,3,C*%
%TO.N,unconnected-(SW1-C-Pad3)*%
X46500000Y-105000000D03*
%TD*%
D22*
%TO.N,GND*%
X109874400Y-97780100D03*
X120248800Y-95300000D03*
X46042000Y-86067100D03*
X62109400Y-86601700D03*
X114952000Y-85168200D03*
X61651300Y-98090500D03*
X76693000Y-85669500D03*
X99491100Y-116384000D03*
X68968700Y-78235400D03*
X74012000Y-91556000D03*
X66274300Y-100546000D03*
X103219000Y-114462000D03*
X118000000Y-94783700D03*
X74040100Y-87257700D03*
X60531500Y-77243900D03*
X60438600Y-94665900D03*
X61033300Y-112100000D03*
X51589000Y-92245500D03*
X57484900Y-112610000D03*
X56391500Y-90500100D03*
X81717100Y-100270000D03*
X58535000Y-119052000D03*
X76360300Y-92007400D03*
X59916300Y-105766000D03*
X81495400Y-91011600D03*
X56099000Y-107024000D03*
X83724300Y-117011000D03*
X52547800Y-87739600D03*
X53775900Y-80975300D03*
X57714800Y-93739900D03*
X112369900Y-109824300D03*
X67547200Y-112460000D03*
X113891000Y-94783700D03*
X59339300Y-76923500D03*
X118645000Y-79966900D03*
X90652100Y-97996500D03*
X95150600Y-119825000D03*
X102050000Y-95535900D03*
X70246300Y-86346600D03*
X68987800Y-86077500D03*
X115816000Y-79852700D03*
X66409200Y-97769900D03*
X71592100Y-97633400D03*
X68967200Y-79037200D03*
X84873600Y-113770000D03*
X79322900Y-92609700D03*
X66162500Y-82119500D03*
X69042100Y-107168000D03*
X60561600Y-86849300D03*
X46042000Y-76679300D03*
X62949900Y-101090000D03*
X99971800Y-89202200D03*
X52687400Y-114605000D03*
X72820200Y-76571500D03*
X72249100Y-80841500D03*
X119550000Y-89570200D03*
X56736000Y-88644200D03*
X104826200Y-109597500D03*
X59023200Y-85038100D03*
X73136200Y-112617000D03*
X121201700Y-110314500D03*
X80334100Y-104873000D03*
X82666300Y-112428000D03*
X80527800Y-102213000D03*
X60423500Y-103956000D03*
X64700800Y-113386000D03*
X50391900Y-96477100D03*
X52673400Y-102247000D03*
X96501600Y-113561000D03*
X53533100Y-88923900D03*
X120247700Y-103800000D03*
X77564000Y-92189200D03*
X95705100Y-94494400D03*
X68996100Y-91052600D03*
X109630000Y-96771300D03*
X79026500Y-84903600D03*
X66207200Y-89533600D03*
X90913000Y-79501100D03*
X69278700Y-106052000D03*
X46042000Y-89388500D03*
X104967000Y-82008300D03*
X57516100Y-113463000D03*
X84610000Y-118260000D03*
X80362500Y-114182000D03*
X53666800Y-97769900D03*
X60898100Y-103280600D03*
X113208000Y-88000000D03*
X68125700Y-95946200D03*
X46042000Y-82758200D03*
X99971800Y-85825100D03*
X58315400Y-89268400D03*
X62863400Y-88771400D03*
X55567300Y-89282200D03*
X68057600Y-85105100D03*
X57316600Y-100756000D03*
X96944300Y-104740000D03*
X72833600Y-99957900D03*
X97815700Y-91143700D03*
X54351200Y-88662600D03*
X69760300Y-115719200D03*
X55772000Y-93240500D03*
X67232600Y-83216800D03*
X79418300Y-97986600D03*
X65898200Y-102304000D03*
X60086200Y-117838000D03*
X88362200Y-82802400D03*
X107500000Y-86685200D03*
X68087900Y-97860800D03*
X90971700Y-113387000D03*
X88329400Y-98033100D03*
X64427900Y-100654000D03*
X62079000Y-95440300D03*
X79325100Y-78928600D03*
X56809400Y-110320000D03*
X93321900Y-99000000D03*
X105777000Y-82838900D03*
X63709100Y-92310000D03*
X81338400Y-114294000D03*
X66027800Y-80671000D03*
X61769800Y-108727000D03*
X50631000Y-80275500D03*
X77096700Y-97328700D03*
X55500000Y-85050300D03*
X58534900Y-93432600D03*
X82668600Y-93035000D03*
X56396700Y-116136000D03*
X95232100Y-115735000D03*
X88273300Y-112901000D03*
X65890100Y-105257000D03*
X66913700Y-103096000D03*
X97450000Y-95990000D03*
X70103200Y-119509900D03*
X73852400Y-110804000D03*
X60027500Y-88502400D03*
X72629500Y-79246500D03*
X72050000Y-115416500D03*
X107634000Y-96640900D03*
X75475400Y-102305000D03*
%TO.N,/Battery*%
X70377000Y-96222900D03*
X63997200Y-96431600D03*
X65030300Y-115706800D03*
X71583200Y-96372900D03*
X58678900Y-103022000D03*
X114023400Y-100125900D03*
X69199300Y-95045200D03*
X114023400Y-95677000D03*
X62878600Y-95853300D03*
X117397000Y-109147000D03*
X84319800Y-112762000D03*
%TO.N,Net-(U1-VINT)*%
X119824000Y-102874600D03*
X120882600Y-107300800D03*
%TO.N,Net-(U1-VCP)*%
X102580000Y-96387400D03*
X102851000Y-109240000D03*
X80180500Y-92330300D03*
X79928700Y-96347100D03*
%TO.N,Net-(U2-VCP)*%
X62569200Y-80991300D03*
X61812300Y-89322500D03*
X71192900Y-88933000D03*
X64689300Y-79567200D03*
X92657400Y-110973100D03*
X90805200Y-94828100D03*
X72959800Y-97126900D03*
%TO.N,/5V*%
X65178800Y-82091900D03*
X74848700Y-77691900D03*
X73898800Y-97899100D03*
X73999000Y-99547000D03*
X78876100Y-117877000D03*
X71101700Y-82942300D03*
X82092700Y-87523200D03*
X97069400Y-88811300D03*
X76752600Y-112930000D03*
X75730500Y-88894000D03*
%TO.N,Net-(JP3-B)*%
X74971300Y-96135500D03*
X71659400Y-90579300D03*
X73869000Y-94233700D03*
X58678300Y-91343300D03*
X61986300Y-97284300D03*
X74072100Y-90061200D03*
X66123700Y-76997700D03*
%TO.N,/3V3 Out*%
X115129200Y-99715100D03*
X66349000Y-91805500D03*
X64513400Y-93019600D03*
X115129200Y-92418800D03*
X76509600Y-115033000D03*
%TO.N,/5V Out*%
X97713500Y-93668300D03*
X66531800Y-108343000D03*
X105755200Y-95845300D03*
X79619400Y-116414700D03*
X105755200Y-104107300D03*
X66419300Y-107258000D03*
X113559600Y-86250100D03*
X76738400Y-110486900D03*
X96804300Y-99061100D03*
%TO.N,/HV*%
X66401100Y-104242000D03*
X62341900Y-102531000D03*
X74743800Y-113228900D03*
X53961000Y-104630700D03*
X109305100Y-109658800D03*
X53589000Y-85910400D03*
X54363200Y-103172000D03*
X99502400Y-91183200D03*
X52850000Y-84131500D03*
X69522300Y-102442300D03*
X74635200Y-114726000D03*
X113824000Y-89168500D03*
X101829000Y-88000000D03*
X70187800Y-97868200D03*
%TO.N,Net-(C13-Pad1)*%
X102087000Y-105073000D03*
%TO.N,Net-(D1-K)*%
X53223800Y-99239100D03*
X52670800Y-109716300D03*
%TO.N,Net-(D2-A)*%
X94854800Y-105877600D03*
X95108400Y-97916700D03*
%TO.N,Net-(D3-K)*%
X50577400Y-109716300D03*
X51890700Y-101674600D03*
%TO.N,Net-(J2-CC1)*%
X53956900Y-87136700D03*
X51041600Y-103331700D03*
%TO.N,Net-(J2-CC2)*%
X56594900Y-83582900D03*
X57133100Y-104653000D03*
%TO.N,/FAST_CHARGE_CTRL*%
X91857900Y-123499400D03*
X75942800Y-122746600D03*
X61667700Y-91767200D03*
X103340900Y-88156200D03*
%TO.N,Net-(Q2-D)*%
X88429600Y-92739600D03*
X74106200Y-100399100D03*
X105447000Y-79434500D03*
X76511200Y-94008400D03*
X88429600Y-86223000D03*
%TO.N,Net-(U1-AISEN)*%
X57014300Y-106977500D03*
X75820100Y-100517000D03*
X56454300Y-91880800D03*
X58754500Y-105760700D03*
X62141500Y-113583000D03*
%TO.N,Net-(U1-BISEN)*%
X81448300Y-103156500D03*
X76830900Y-103799000D03*
X83300300Y-111320200D03*
X73453200Y-77166400D03*
X55660500Y-76133300D03*
%TO.N,Net-(U2-AISEN)*%
X48762100Y-86344700D03*
X79026500Y-80289400D03*
X70320600Y-101771000D03*
X114034900Y-92849300D03*
X49038400Y-98537200D03*
X70217100Y-99841800D03*
X83699500Y-97639800D03*
%TO.N,Net-(U2-BISEN)*%
X116050100Y-79022000D03*
X77814500Y-76499900D03*
X117182300Y-95600100D03*
%TO.N,Net-(U8-~{CHRG})*%
X52517900Y-92109800D03*
X52759400Y-98569500D03*
X70097000Y-104808500D03*
X68795800Y-101834100D03*
X63264500Y-98593000D03*
X63149700Y-102479900D03*
X92129800Y-105104700D03*
X77252700Y-79000600D03*
%TO.N,Net-(U8-~{STDBY})*%
X87256100Y-120637300D03*
X60102900Y-101389200D03*
X74462300Y-80509900D03*
X54234800Y-120162000D03*
X88534800Y-103897000D03*
X97882500Y-104694900D03*
X93969800Y-79657000D03*
%TO.N,Net-(U6-VSET)*%
X55852900Y-97997400D03*
X78781500Y-108011000D03*
X54109200Y-105885300D03*
X76847000Y-105798800D03*
%TO.N,Net-(JP1-A)*%
X62977000Y-85762900D03*
X69061000Y-80189600D03*
X62637400Y-87851800D03*
X68797500Y-101006100D03*
%TO.N,Net-(JP4-B)*%
X70574200Y-115284700D03*
X89279600Y-85197500D03*
X77550300Y-115707000D03*
X80598000Y-85507000D03*
X71460400Y-84195200D03*
X75691400Y-84201000D03*
X67729400Y-118642000D03*
%TO.N,/IN-*%
X71297800Y-87214800D03*
X59846200Y-89847600D03*
X60572300Y-89254200D03*
X73860100Y-96682100D03*
X88616900Y-100470000D03*
X50135500Y-94130500D03*
X49893300Y-103212000D03*
%TO.N,/IN+*%
X69993000Y-89842100D03*
X64857000Y-78652800D03*
X53711600Y-91310000D03*
X64592800Y-86790500D03*
X71560900Y-104763000D03*
%TO.N,/I2C1_SDA*%
X76751400Y-86738900D03*
X74294200Y-102842000D03*
X79785000Y-101770000D03*
%TO.N,/I2C1_SCL*%
X77763300Y-91104700D03*
X80289700Y-103799000D03*
X82087800Y-103981000D03*
%TO.N,unconnected-(SW1-C-Pad3)*%
X73072600Y-78217300D03*
X47159300Y-97222200D03*
X52533300Y-79853700D03*
%TO.N,/Motor2_A_OUT*%
X48663000Y-102654100D03*
X63637500Y-77840300D03*
X107578900Y-106753900D03*
X48663000Y-116845200D03*
X87929700Y-116141000D03*
X59338200Y-78983500D03*
X54723900Y-101997200D03*
X64480100Y-76997700D03*
X106479700Y-118237900D03*
%TO.N,/MOTOR1_CTRL2*%
X118088400Y-104250300D03*
X118088400Y-128493100D03*
%TO.N,/MOTOR1_B_OUT*%
X85785400Y-112358300D03*
X87672900Y-104919200D03*
X68170900Y-83020000D03*
X88023900Y-112010600D03*
X94677200Y-114491500D03*
X70717100Y-117922900D03*
X101052800Y-112702500D03*
X92844200Y-112603800D03*
X68364700Y-117727100D03*
X64902900Y-118606600D03*
X73108600Y-104186400D03*
X102135400Y-106417500D03*
X85385500Y-115964200D03*
%TO.N,/MOTOR1_A_OUT*%
X103384400Y-122116400D03*
X104990300Y-101047100D03*
%TO.N,/MOTOR2_CTRL2*%
X103925900Y-116259100D03*
X120636200Y-112700900D03*
X87468300Y-123022400D03*
X120223000Y-105846600D03*
X82799800Y-104645000D03*
%TO.N,/MOTOR1_CTRL1*%
X121851900Y-120259900D03*
X112160800Y-76305900D03*
X69412500Y-122344900D03*
X78722900Y-76633300D03*
X119674400Y-101651400D03*
X118369700Y-102965500D03*
%TO.N,/MOTOR2_CTRL1*%
X119621300Y-126469700D03*
X64333100Y-83905100D03*
X119621300Y-106635800D03*
X55658000Y-86519100D03*
X45441300Y-118666900D03*
X102330000Y-119424600D03*
X65720200Y-83587300D03*
%TO.N,/Motor2_B_OUT*%
X63617400Y-80946400D03*
X54315100Y-79546300D03*
X63155100Y-78915200D03*
X44440700Y-119540200D03*
X106835900Y-105795000D03*
X105608600Y-119609600D03*
%TO.N,/MOTOR3_A_OUT*%
X111062900Y-92268600D03*
X50995600Y-121660000D03*
X111062900Y-90679100D03*
X108266900Y-121603200D03*
%TO.N,/MOTOR4_CTRL2*%
X89589300Y-95593300D03*
%TO.N,/MOTOR3_B_OUT*%
X78471400Y-109715000D03*
X94167000Y-90974900D03*
X68687000Y-104674800D03*
X93580600Y-107261600D03*
X65498900Y-113959600D03*
X75990300Y-104142400D03*
X66941800Y-95834600D03*
%TO.N,/MOTOR3_CTRL2*%
X105603600Y-125287400D03*
X112557100Y-90411800D03*
%TO.N,unconnected-(U2-~{FAULT}-Pad8)*%
X66787600Y-98636100D03*
%TO.N,/MOTOR4_CTRL1*%
X65198000Y-80289900D03*
X62138200Y-85702100D03*
X51321900Y-88441100D03*
X96175200Y-119055600D03*
X49284100Y-118065200D03*
X99971800Y-108074500D03*
%TO.N,/MOTOR3_CTRL1*%
X72509100Y-106030600D03*
X72125700Y-110283700D03*
X74517100Y-106200500D03*
X76913700Y-87604200D03*
X75948100Y-80484400D03*
X66428000Y-109972000D03*
X74117100Y-76690600D03*
X69369600Y-77031900D03*
X71306800Y-76854400D03*
%TO.N,/CTRL_EXT_LOAD2*%
X96628300Y-121464300D03*
X121250600Y-79700000D03*
X122536700Y-120864000D03*
%TO.N,/EXT_LOAD1_OUT*%
X61889900Y-107044000D03*
X109029000Y-88334200D03*
X73567200Y-123047400D03*
X102992000Y-116200000D03*
X97495500Y-125556000D03*
X109029000Y-79957000D03*
X76601600Y-83177900D03*
X67473800Y-110807700D03*
%TO.N,/CTRL_EXT_LOAD1*%
X61644200Y-109936000D03*
X62709900Y-91767300D03*
X70001400Y-85073400D03*
X64390200Y-89569200D03*
X70577200Y-88397400D03*
X61737200Y-92782800D03*
%TO.N,/EXT_LOAD2_OUT*%
X90971700Y-109715000D03*
X118437800Y-82942200D03*
X90900000Y-116510600D03*
X118697500Y-112317200D03*
%TO.N,unconnected-(U5-NC-Pad5)*%
X98901100Y-104746000D03*
%TO.N,Net-(JP2-A)*%
X102851000Y-82816000D03*
X66507100Y-84187500D03*
X66973800Y-86336700D03*
%TD*%
D23*
%TO.N,/Battery*%
X86250900Y-117680400D02*
X86250900Y-123080900D01*
X87088500Y-124885300D02*
X88091500Y-125888300D01*
X86250900Y-123080900D02*
X87088500Y-123918500D01*
X61538500Y-102694100D02*
X61538500Y-105997300D01*
X88091500Y-125888300D02*
X88360000Y-125888300D01*
X61002700Y-110237800D02*
X63564200Y-112799300D01*
X114023400Y-100125900D02*
X117397000Y-103499500D01*
X117397000Y-103499500D02*
X117397000Y-109147000D01*
X87088500Y-123918500D02*
X87088500Y-124885300D01*
X84783800Y-115778300D02*
X84783800Y-116213300D01*
X61488000Y-102643600D02*
X61538500Y-102694100D01*
X63564200Y-114240700D02*
X65030300Y-115706800D01*
X84783800Y-116213300D02*
X86250900Y-117680400D01*
X62878600Y-97740200D02*
X61488000Y-99130800D01*
X62878600Y-95853300D02*
X62878600Y-97740200D01*
X84234900Y-112846900D02*
X84234900Y-115229400D01*
X59057300Y-102643600D02*
X58678900Y-103022000D01*
X63564200Y-112799300D02*
X63564200Y-114240700D01*
X88360000Y-127040000D02*
X88360000Y-125888300D01*
X84319800Y-112762000D02*
X84234900Y-112846900D01*
X61488000Y-102643600D02*
X59057300Y-102643600D01*
X114023400Y-100125900D02*
X114023400Y-95677000D01*
X61538500Y-105997300D02*
X61002700Y-106533100D01*
X61488000Y-99130800D02*
X61488000Y-102643600D01*
X70377000Y-96222900D02*
X69199300Y-95045200D01*
X61002700Y-106533100D02*
X61002700Y-110237800D01*
X84234900Y-115229400D02*
X84783800Y-115778300D01*
%TO.N,Net-(U1-VINT)*%
X119824000Y-102874600D02*
X119645900Y-103052700D01*
X119645900Y-103052700D02*
X119645900Y-104416500D01*
X120882600Y-105653200D02*
X120882600Y-107300800D01*
X119645900Y-104416500D02*
X120882600Y-105653200D01*
%TO.N,Net-(U1-VCP)*%
X102580000Y-96387400D02*
X102851000Y-96658400D01*
X102851000Y-96658400D02*
X102851000Y-109240000D01*
X80180500Y-96095300D02*
X79928700Y-96347100D01*
X80180500Y-92330300D02*
X80180500Y-96095300D01*
%TO.N,Net-(U2-VCP)*%
X92657400Y-110973100D02*
X92731500Y-110899000D01*
X92658800Y-96681700D02*
X90805200Y-94828100D01*
X92658800Y-102534100D02*
X92658800Y-96681700D01*
X72787600Y-90245600D02*
X71475000Y-88933000D01*
X60581600Y-83617700D02*
X60581600Y-81644000D01*
X92731500Y-110899000D02*
X92731500Y-102606800D01*
X61234300Y-80991300D02*
X62569200Y-80991300D01*
X92731500Y-102606800D02*
X92658800Y-102534100D01*
X60581600Y-81644000D02*
X61234300Y-80991300D01*
X72959800Y-97126900D02*
X72787600Y-96954700D01*
X72787600Y-96954700D02*
X72787600Y-90245600D01*
X61175000Y-84211100D02*
X60581600Y-83617700D01*
X61175000Y-88685200D02*
X61175000Y-84211100D01*
X71475000Y-88933000D02*
X71192900Y-88933000D01*
X61812300Y-89322500D02*
X61175000Y-88685200D01*
%TO.N,/5V*%
X65178800Y-82091900D02*
X65829300Y-82742400D01*
X75730500Y-88894000D02*
X75730500Y-96237700D01*
X76752600Y-112930000D02*
X78876100Y-115053500D01*
X65829300Y-82742400D02*
X66423100Y-82742400D01*
X76752600Y-112283200D02*
X73710300Y-109240900D01*
X82092700Y-84935900D02*
X74848700Y-77691900D01*
X76752600Y-112930000D02*
X76752600Y-112283200D01*
X73999000Y-99547000D02*
X73898800Y-99446800D01*
X73710300Y-109240900D02*
X73710300Y-103937200D01*
X75730500Y-96237700D02*
X74069100Y-97899100D01*
X73710300Y-103937200D02*
X73504500Y-103731400D01*
X75730500Y-88894000D02*
X75730500Y-87571100D01*
X74069100Y-97899100D02*
X73898800Y-97899100D01*
X78876100Y-115053500D02*
X78876100Y-117877000D01*
X82092700Y-87523200D02*
X82092700Y-84935900D01*
X75730500Y-87571100D02*
X71101700Y-82942300D01*
X73504500Y-103731400D02*
X73504500Y-100041500D01*
X70541200Y-82381800D02*
X71101700Y-82942300D01*
X66423100Y-82742400D02*
X66783700Y-82381800D01*
X66783700Y-82381800D02*
X70541200Y-82381800D01*
X73898800Y-99446800D02*
X73898800Y-97899100D01*
X73504500Y-100041500D02*
X73999000Y-99547000D01*
%TO.N,Net-(JP3-B)*%
X62504200Y-79000300D02*
X59655200Y-81849300D01*
X61051900Y-93399200D02*
X61051900Y-96349900D01*
X74069500Y-94426000D02*
X74061300Y-94426000D01*
X74657500Y-93838000D02*
X74657500Y-90646600D01*
X74061300Y-94426000D02*
X73869000Y-94233700D01*
X74069500Y-94426000D02*
X74657500Y-93838000D01*
X74069500Y-95233700D02*
X74069500Y-94426000D01*
X58996000Y-91343300D02*
X61051900Y-93399200D01*
X74657500Y-90646600D02*
X74072100Y-90061200D01*
X61051900Y-96349900D02*
X61986300Y-97284300D01*
X66123700Y-76997700D02*
X65520100Y-76394100D01*
X65520100Y-76394100D02*
X64187100Y-76394100D01*
X64187100Y-76394100D02*
X62504200Y-78077000D01*
X59655200Y-81849300D02*
X59655200Y-85975800D01*
X62504200Y-78077000D02*
X62504200Y-79000300D01*
X58678300Y-91343300D02*
X58996000Y-91343300D01*
X74971300Y-96135500D02*
X74069500Y-95233700D01*
X59655200Y-85975800D02*
X58996000Y-86635000D01*
X58996000Y-86635000D02*
X58996000Y-91343300D01*
%TO.N,/3V3 Out*%
X115129200Y-99715100D02*
X115129200Y-94158000D01*
X113017000Y-119273400D02*
X113017000Y-94801400D01*
X113660400Y-94158000D02*
X115129200Y-94158000D01*
X76509600Y-115033000D02*
X76509600Y-115532200D01*
X82704200Y-127040000D02*
X82128300Y-127040000D01*
X79470000Y-123608900D02*
X79470000Y-127404200D01*
X65744600Y-93019600D02*
X65744600Y-99090300D01*
X77721500Y-116744100D02*
X77721500Y-121860400D01*
X76509600Y-115532200D02*
X77721500Y-116744100D01*
X64513400Y-93019600D02*
X65744600Y-93019600D01*
X82128300Y-127308500D02*
X82128300Y-127040000D01*
X84143800Y-128205000D02*
X104085400Y-128205000D01*
X65744600Y-93019600D02*
X65744600Y-92409900D01*
X77721500Y-121860400D02*
X79470000Y-123608900D01*
X83280000Y-127040000D02*
X82978800Y-127040000D01*
X82978800Y-127040000D02*
X84143800Y-128205000D01*
X81214600Y-128222200D02*
X82128300Y-127308500D01*
X79470000Y-127404200D02*
X80288000Y-128222200D01*
X67617900Y-100963600D02*
X67617900Y-107959200D01*
X73713800Y-114055100D02*
X75531700Y-114055100D01*
X67617900Y-107959200D02*
X73713800Y-114055100D01*
X82704200Y-127040000D02*
X82978800Y-127040000D01*
X65744600Y-99090300D02*
X67617900Y-100963600D01*
X65744600Y-92409900D02*
X66349000Y-91805500D01*
X115129200Y-94158000D02*
X115129200Y-92418800D01*
X80288000Y-128222200D02*
X81214600Y-128222200D01*
X113017000Y-94801400D02*
X113660400Y-94158000D01*
X75531700Y-114055100D02*
X76509600Y-115033000D01*
X104085400Y-128205000D02*
X113017000Y-119273400D01*
%TO.N,/5V Out*%
X96804300Y-94577500D02*
X96804300Y-99061100D01*
X66531800Y-107370500D02*
X66531800Y-108343000D01*
X80740000Y-125888300D02*
X81027900Y-125888300D01*
X97713500Y-93668300D02*
X96804300Y-94577500D01*
X81027900Y-125888300D02*
X81910000Y-125006200D01*
X108182200Y-116317800D02*
X108000000Y-116500000D01*
X79619400Y-113367900D02*
X76738400Y-110486900D01*
X81910000Y-118705300D02*
X79619400Y-116414700D01*
X79619400Y-116414700D02*
X79619400Y-113367900D01*
X105755200Y-95845300D02*
X105755200Y-94054500D01*
X105755200Y-94054500D02*
X113559600Y-86250100D01*
X108182200Y-106289300D02*
X108182200Y-116317800D01*
X106000200Y-104107300D02*
X108182200Y-106289300D01*
X80740000Y-127040000D02*
X80740000Y-125888300D01*
X105755200Y-104107300D02*
X105755200Y-95845300D01*
X81910000Y-125006200D02*
X81910000Y-118705300D01*
X66419300Y-107258000D02*
X66531800Y-107370500D01*
X105755200Y-104107300D02*
X106000200Y-104107300D01*
%TO.N,/HV*%
X69522300Y-98533700D02*
X69522300Y-102442300D01*
X54363200Y-101507100D02*
X54122200Y-101748100D01*
X74743800Y-113228900D02*
X73127500Y-111612600D01*
X72788200Y-105400500D02*
X71317500Y-105400500D01*
X54363200Y-89501600D02*
X54363200Y-101507100D01*
X73127500Y-111612600D02*
X73127500Y-105739800D01*
X71317500Y-105400500D02*
X70698700Y-104781700D01*
X70698700Y-104559300D02*
X69522300Y-103382900D01*
X78200000Y-125888300D02*
X77931500Y-125888300D01*
X101829000Y-88856600D02*
X99502400Y-91183200D01*
X54122200Y-102931000D02*
X54363200Y-103172000D01*
X69522300Y-103382900D02*
X69522300Y-102442300D01*
X111955400Y-107008500D02*
X109305100Y-109658800D01*
X70698700Y-104781700D02*
X70698700Y-104559300D01*
X53589000Y-85910400D02*
X54967100Y-87288500D01*
X52850000Y-84131500D02*
X53589000Y-84870500D01*
X70187800Y-97868200D02*
X69522300Y-98533700D01*
X53589000Y-84870500D02*
X53589000Y-85910400D01*
X54363200Y-103172000D02*
X53961000Y-103574200D01*
X111955400Y-90162700D02*
X111955400Y-107008500D01*
X54967100Y-87288500D02*
X54967100Y-88897700D01*
X73127500Y-105739800D02*
X72788200Y-105400500D01*
X54122200Y-101748100D02*
X54122200Y-102931000D01*
X112949600Y-89168500D02*
X111955400Y-90162700D01*
X77007700Y-117098500D02*
X74635200Y-114726000D01*
X113824000Y-89168500D02*
X112949600Y-89168500D01*
X78200000Y-127040000D02*
X78200000Y-125888300D01*
X101829000Y-88000000D02*
X101829000Y-88856600D01*
X77007700Y-124964500D02*
X77007700Y-117098500D01*
X54967100Y-88897700D02*
X54363200Y-89501600D01*
X77931500Y-125888300D02*
X77007700Y-124964500D01*
X53961000Y-103574200D02*
X53961000Y-104630700D01*
%TO.N,Net-(D1-K)*%
X52670800Y-103100500D02*
X52670800Y-109716300D01*
X53307700Y-99323000D02*
X53307700Y-102463700D01*
X53223800Y-99239100D02*
X53307700Y-99323000D01*
X53307700Y-102463700D02*
X52670900Y-103100500D01*
X52670900Y-103100500D02*
X52670800Y-103100500D01*
%TO.N,Net-(D2-A)*%
X94854800Y-98170300D02*
X94854800Y-105877600D01*
X95108400Y-97916700D02*
X94854800Y-98170300D01*
%TO.N,Net-(D3-K)*%
X51890700Y-101674600D02*
X51890700Y-108403000D01*
X51890700Y-108403000D02*
X50577400Y-109716300D01*
%TO.N,Net-(J2-CC1)*%
X51041600Y-93962600D02*
X50978500Y-93899500D01*
X50978500Y-90193500D02*
X53956900Y-87215100D01*
X50978500Y-93899500D02*
X50978500Y-90193500D01*
X53956900Y-87215100D02*
X53956900Y-87136700D01*
X51041600Y-103331700D02*
X51041600Y-93962600D01*
%TO.N,Net-(J2-CC2)*%
X57348000Y-84336000D02*
X56594900Y-83582900D01*
X57923600Y-96427200D02*
X57091100Y-95594700D01*
X57133100Y-104653000D02*
X57133100Y-101849600D01*
X57923600Y-101059100D02*
X57923600Y-96427200D01*
X57348000Y-89431600D02*
X57348000Y-84336000D01*
X57133100Y-101849600D02*
X57923600Y-101059100D01*
X57091100Y-89688500D02*
X57348000Y-89431600D01*
X57091100Y-95594700D02*
X57091100Y-89688500D01*
%TO.N,/FAST_CHARGE_CTRL*%
X100178300Y-106791800D02*
X98320000Y-108650100D01*
X95607600Y-118453900D02*
X91857900Y-122203600D01*
X66633100Y-106592900D02*
X66308000Y-106592900D01*
X96928200Y-118453900D02*
X95607600Y-118453900D01*
X67174800Y-107134600D02*
X66633100Y-106592900D01*
X75942800Y-117563000D02*
X67174800Y-108795000D01*
X98320000Y-117062100D02*
X96928200Y-118453900D01*
X91857900Y-122203600D02*
X91857900Y-123499400D01*
X67174800Y-108795000D02*
X67174800Y-107134600D01*
X75942800Y-122746600D02*
X75942800Y-117563000D01*
X65249500Y-105534400D02*
X65249500Y-95349000D01*
X98320000Y-108650100D02*
X98320000Y-117062100D01*
X65249500Y-95349000D02*
X61667700Y-91767200D01*
X103340900Y-88156200D02*
X100178300Y-91318800D01*
X66308000Y-106592900D02*
X65249500Y-105534400D01*
X100178300Y-91318800D02*
X100178300Y-106791800D01*
%TO.N,Net-(Q2-D)*%
X76495000Y-98010300D02*
X74106200Y-100399100D01*
X105447000Y-79434500D02*
X105447000Y-79053000D01*
X88429600Y-86223000D02*
X88429600Y-92739600D01*
X76511200Y-94008400D02*
X76495000Y-94024600D01*
X76495000Y-94024600D02*
X76495000Y-98010300D01*
X105447000Y-79053000D02*
X105500000Y-79000000D01*
%TO.N,Net-(U1-AISEN)*%
X56500800Y-106464000D02*
X56500800Y-91927300D01*
X61000000Y-114000000D02*
X58754500Y-111754500D01*
X57014300Y-106977500D02*
X56500800Y-106464000D01*
X56500800Y-91927300D02*
X56454300Y-91880800D01*
X58754500Y-111754500D02*
X58754500Y-105760700D01*
%TO.N,Net-(U1-BISEN)*%
X81486100Y-103194300D02*
X81486100Y-109506000D01*
X76197300Y-79882700D02*
X76169500Y-79882700D01*
X81448300Y-100852100D02*
X80855200Y-100259000D01*
X81199800Y-84885200D02*
X76197300Y-79882700D01*
X80855200Y-86100900D02*
X81199800Y-85756300D01*
X55660500Y-76133300D02*
X55822500Y-75971300D01*
X81486100Y-109506000D02*
X83300300Y-111320200D01*
X76169500Y-79882700D02*
X73453200Y-77166400D01*
X73163500Y-77456100D02*
X73453200Y-77166400D01*
X55822500Y-75971300D02*
X69572900Y-75971300D01*
X69572900Y-75971300D02*
X71057700Y-77456100D01*
X81448300Y-103156500D02*
X81448300Y-100852100D01*
X80855200Y-100259000D02*
X80855200Y-86100900D01*
X81448300Y-103156500D02*
X81486100Y-103194300D01*
X71057700Y-77456100D02*
X73163500Y-77456100D01*
X81199800Y-85756300D02*
X81199800Y-84885200D01*
%TO.N,Net-(U2-AISEN)*%
X48762100Y-98260900D02*
X49038400Y-98537200D01*
X113000000Y-79000000D02*
X113000000Y-84655700D01*
X87644400Y-93694900D02*
X87644400Y-88907300D01*
X114425700Y-92458500D02*
X114034900Y-92849300D01*
X87644400Y-88907300D02*
X79026500Y-80289400D01*
X70217100Y-101667500D02*
X70217100Y-99841800D01*
X70320600Y-101771000D02*
X70217100Y-101667500D01*
X114425700Y-86081400D02*
X114425700Y-92458500D01*
X83699500Y-97639800D02*
X87644400Y-93694900D01*
X48762100Y-86344700D02*
X48762100Y-98260900D01*
X113000000Y-84655700D02*
X114425700Y-86081400D01*
%TO.N,Net-(U2-BISEN)*%
X116050100Y-79022000D02*
X117182300Y-80154200D01*
X117182300Y-80154200D02*
X117182300Y-95600100D01*
%TO.N,Net-(U8-~{CHRG})*%
X62311500Y-101641700D02*
X62311500Y-99546000D01*
X52759400Y-92351300D02*
X52759400Y-98569500D01*
X63149700Y-102479900D02*
X62311500Y-101641700D01*
X70097000Y-104808500D02*
X68795800Y-103507300D01*
X87629900Y-84398900D02*
X87629900Y-79678800D01*
X85842500Y-77891400D02*
X78361900Y-77891400D01*
X92129800Y-97055700D02*
X89896800Y-94822700D01*
X89896800Y-94822700D02*
X89896800Y-86665800D01*
X68795800Y-103507300D02*
X68795800Y-101834100D01*
X78361900Y-77891400D02*
X77252700Y-79000600D01*
X52517900Y-92109800D02*
X52759400Y-92351300D01*
X92129800Y-105104700D02*
X92129800Y-97055700D01*
X62311500Y-99546000D02*
X63264500Y-98593000D01*
X89896800Y-86665800D02*
X87629900Y-84398900D01*
X87629900Y-79678800D02*
X85842500Y-77891400D01*
%TO.N,Net-(U8-~{STDBY})*%
X97691100Y-87859700D02*
X95431700Y-85600300D01*
X97691100Y-90417400D02*
X97691100Y-87859700D01*
X97214000Y-90894500D02*
X97691100Y-90417400D01*
X97214000Y-91392900D02*
X97214000Y-90894500D01*
X88921300Y-118972100D02*
X87256100Y-120637300D01*
X98349300Y-92528200D02*
X97214000Y-91392900D01*
X88921300Y-104283500D02*
X88921300Y-118972100D01*
X54234800Y-111792800D02*
X58050800Y-107976800D01*
X95431700Y-85600300D02*
X95431700Y-81118900D01*
X95431700Y-81118900D02*
X93969800Y-79657000D01*
X54234800Y-120162000D02*
X54234800Y-111792800D01*
X88534800Y-103897000D02*
X88921300Y-104283500D01*
X98349300Y-104228100D02*
X98349300Y-92528200D01*
X97882500Y-104694900D02*
X98349300Y-104228100D01*
X58050800Y-102721900D02*
X59383500Y-101389200D01*
X59383500Y-101389200D02*
X60102900Y-101389200D01*
X58050800Y-107976800D02*
X58050800Y-102721900D01*
%TO.N,Net-(U6-VSET)*%
X55852900Y-97997400D02*
X55852900Y-104141600D01*
X78781500Y-108011000D02*
X76847000Y-106076500D01*
X76847000Y-106076500D02*
X76847000Y-105798800D01*
X55852900Y-104141600D02*
X54109200Y-105885300D01*
%TO.N,Net-(JP1-A)*%
X68797500Y-95630600D02*
X68489600Y-95322700D01*
X68489600Y-95322700D02*
X68489600Y-92817700D01*
X62977000Y-87512200D02*
X62977000Y-85762900D01*
X65084000Y-81335800D02*
X67914800Y-81335800D01*
X62977000Y-83442800D02*
X65084000Y-81335800D01*
X68489600Y-92817700D02*
X63184100Y-87512200D01*
X63184100Y-87512200D02*
X62977000Y-87512200D01*
X67914800Y-81335800D02*
X69061000Y-80189600D01*
X62977000Y-85762900D02*
X62977000Y-83442800D01*
X62977000Y-87512200D02*
X62637400Y-87851800D01*
X68797500Y-101006100D02*
X68797500Y-95630600D01*
%TO.N,Net-(JP4-B)*%
X96000000Y-106860000D02*
X96000000Y-95873800D01*
X96000000Y-95873800D02*
X94849900Y-94723700D01*
X94849900Y-94723700D02*
X94849900Y-90767800D01*
X70406900Y-115117400D02*
X70574200Y-115284700D01*
X80598000Y-85507000D02*
X79292000Y-84201000D01*
X67729400Y-116886800D02*
X69498800Y-115117400D01*
X94849900Y-90767800D02*
X89279600Y-85197500D01*
X79292000Y-84201000D02*
X75691400Y-84201000D01*
X67729400Y-118642000D02*
X67729400Y-116886800D01*
X69498800Y-115117400D02*
X70406900Y-115117400D01*
%TO.N,/IN-*%
X91602200Y-110792000D02*
X91602200Y-105427900D01*
X91602200Y-105427900D02*
X91528100Y-105353800D01*
X59846200Y-89847600D02*
X59978900Y-89847600D01*
X73265700Y-89182700D02*
X71297800Y-87214800D01*
X50132100Y-102973200D02*
X50132100Y-97814600D01*
X49893300Y-103212000D02*
X50132100Y-102973200D01*
X91528100Y-103381200D02*
X88616900Y-100470000D01*
X97000000Y-115908700D02*
X93093400Y-112002100D01*
X73860100Y-96682100D02*
X73265700Y-96087700D01*
X59978900Y-89847600D02*
X60572300Y-89254200D01*
X91528100Y-105353800D02*
X91528100Y-103381200D01*
X73265700Y-96087700D02*
X73265700Y-89182700D01*
X49781700Y-97464200D02*
X49781700Y-94484300D01*
X92812300Y-112002100D02*
X91602200Y-110792000D01*
X93093400Y-112002100D02*
X92812300Y-112002100D01*
X50132100Y-97814600D02*
X49781700Y-97464200D01*
X49781700Y-94484300D02*
X50135500Y-94130500D01*
X97000000Y-116500000D02*
X97000000Y-115908700D01*
%TO.N,/IN+*%
X67644400Y-89842100D02*
X64592800Y-86790500D01*
X71560900Y-104763000D02*
X70979000Y-104181100D01*
X70979000Y-90828100D02*
X69993000Y-89842100D01*
X69993000Y-89842100D02*
X67644400Y-89842100D01*
X70979000Y-104181100D02*
X70979000Y-90828100D01*
%TO.N,/I2C1_SDA*%
X82804100Y-114428900D02*
X81049000Y-112673800D01*
X81049000Y-103687500D02*
X79785000Y-102423500D01*
X82804100Y-122872400D02*
X82804100Y-114428900D01*
X83280000Y-124500000D02*
X83280000Y-123348300D01*
X78684700Y-100669700D02*
X78684700Y-88493600D01*
X79785000Y-101770000D02*
X78684700Y-100669700D01*
X81049000Y-112673800D02*
X81049000Y-103687500D01*
X79785000Y-102423500D02*
X79785000Y-101770000D01*
X78684700Y-88493600D02*
X76930000Y-86738900D01*
X76930000Y-86738900D02*
X76751400Y-86738900D01*
X83280000Y-123348300D02*
X82804100Y-122872400D01*
%TO.N,/I2C1_SCL*%
X82087800Y-103981000D02*
X82087800Y-108821400D01*
X83703900Y-111767500D02*
X83703900Y-115552200D01*
X84367300Y-117491800D02*
X83995300Y-117863800D01*
X84550000Y-124886800D02*
X85551500Y-125888300D01*
X83703900Y-115552200D02*
X84367300Y-116215600D01*
X83902200Y-110635800D02*
X83902200Y-111569200D01*
X77763300Y-91104700D02*
X78247600Y-91589000D01*
X78247600Y-101756900D02*
X80289700Y-103799000D01*
X83995300Y-120921500D02*
X84550000Y-121476200D01*
X78247600Y-91589000D02*
X78247600Y-101756900D01*
X85820000Y-127040000D02*
X85820000Y-125888300D01*
X82087800Y-108821400D02*
X83902200Y-110635800D01*
X84550000Y-121476200D02*
X84550000Y-124886800D01*
X85551500Y-125888300D02*
X85820000Y-125888300D01*
X84367300Y-116215600D02*
X84367300Y-117491800D01*
X83995300Y-117863800D02*
X83995300Y-120921500D01*
X83902200Y-111569200D02*
X83703900Y-111767500D01*
%TO.N,unconnected-(SW1-C-Pad3)*%
X47159300Y-97222200D02*
X47159300Y-85227700D01*
X47159300Y-85227700D02*
X52533300Y-79853700D01*
%TO.N,/Motor2_A_OUT*%
X48663000Y-102654100D02*
X48663000Y-116845200D01*
X55945500Y-82376200D02*
X59338200Y-78983500D01*
X56121400Y-88880500D02*
X56121400Y-88200300D01*
X105001900Y-125278200D02*
X104391800Y-125888300D01*
X104391800Y-125888300D02*
X103600000Y-125888300D01*
X55945500Y-84028400D02*
X55945500Y-82376200D01*
X56188400Y-88947500D02*
X56121400Y-88880500D01*
X54963400Y-101757700D02*
X54963400Y-90744500D01*
X106479700Y-123560500D02*
X105001900Y-125038300D01*
X56121400Y-88200300D02*
X56259700Y-88062000D01*
X56188400Y-89519500D02*
X56188400Y-88947500D01*
X54723900Y-101997200D02*
X54963400Y-101757700D01*
X106479700Y-107853100D02*
X106479700Y-118237900D01*
X107578900Y-106753900D02*
X106479700Y-107853100D01*
X54963400Y-90744500D02*
X56188400Y-89519500D01*
X103600000Y-127040000D02*
X103600000Y-125888300D01*
X64480100Y-76997700D02*
X63637500Y-77840300D01*
X106479700Y-118237900D02*
X106479700Y-123560500D01*
X56259700Y-88062000D02*
X56259700Y-84342600D01*
X105001900Y-125038300D02*
X105001900Y-125278200D01*
X56259700Y-84342600D02*
X55945500Y-84028400D01*
%TO.N,/MOTOR1_CTRL2*%
X118088400Y-104250300D02*
X118088400Y-128493100D01*
%TO.N,/MOTOR1_B_OUT*%
X65500000Y-124500000D02*
X65500000Y-119203700D01*
X68386100Y-87099700D02*
X71246600Y-89960200D01*
X65500000Y-119203700D02*
X64902900Y-118606600D01*
X87672900Y-104919200D02*
X88023900Y-105270200D01*
X71906000Y-89960200D02*
X72309500Y-90363700D01*
X94677200Y-114436800D02*
X94677200Y-114491500D01*
X92844200Y-112603800D02*
X94677200Y-114436800D01*
X68738600Y-83587700D02*
X68738600Y-85475800D01*
X68364700Y-117727100D02*
X68560500Y-117922900D01*
X68738600Y-85475800D02*
X68386100Y-85828300D01*
X68560500Y-117922900D02*
X70717100Y-117922900D01*
X85785400Y-112358300D02*
X85785400Y-115564300D01*
X72197300Y-103275100D02*
X73108600Y-104186400D01*
X71246600Y-89960200D02*
X71906000Y-89960200D01*
X72309500Y-90363700D02*
X72309500Y-97764800D01*
X88023900Y-105270200D02*
X88023900Y-112010600D01*
X72309500Y-97764800D02*
X72197300Y-97877000D01*
X85785400Y-115564300D02*
X85385500Y-115964200D01*
X72197300Y-97877000D02*
X72197300Y-103275100D01*
X102135400Y-111619900D02*
X102135400Y-106417500D01*
X101052800Y-112702500D02*
X102135400Y-111619900D01*
X68386100Y-85828300D02*
X68386100Y-87099700D01*
X68170900Y-83020000D02*
X68738600Y-83587700D01*
%TO.N,/MOTOR1_A_OUT*%
X105433900Y-105014100D02*
X105433900Y-117799900D01*
X103384400Y-119849400D02*
X103384400Y-122116400D01*
X104990300Y-104570500D02*
X105433900Y-105014100D01*
X104990300Y-101047100D02*
X104990300Y-104570500D01*
X105433900Y-117799900D02*
X103384400Y-119849400D01*
%TO.N,/MOTOR2_CTRL2*%
X120223000Y-112287700D02*
X120223000Y-105846600D01*
X98808000Y-125888300D02*
X98520000Y-125888300D01*
X86654100Y-108499300D02*
X86654100Y-122208200D01*
X99671700Y-120688800D02*
X99671700Y-125024600D01*
X98520000Y-127040000D02*
X98520000Y-125888300D01*
X103925900Y-116434600D02*
X99671700Y-120688800D01*
X82799800Y-104645000D02*
X86654100Y-108499300D01*
X99671700Y-125024600D02*
X98808000Y-125888300D01*
X120636200Y-112700900D02*
X120223000Y-112287700D01*
X103925900Y-116259100D02*
X103925900Y-116434600D01*
X86654100Y-122208200D02*
X87468300Y-123022400D01*
%TO.N,/MOTOR1_CTRL1*%
X115091300Y-80000900D02*
X115091300Y-79236400D01*
X116117900Y-100713700D02*
X116117900Y-81027500D01*
X118369700Y-102965500D02*
X116117900Y-100713700D01*
X70311500Y-125888300D02*
X70580000Y-125888300D01*
X115091300Y-79236400D02*
X112160800Y-76305900D01*
X69412500Y-122344900D02*
X69412500Y-124989300D01*
X116117900Y-81027500D02*
X115091300Y-80000900D01*
X70580000Y-127040000D02*
X70580000Y-125888300D01*
X119674400Y-101651400D02*
X121851900Y-103828900D01*
X69412500Y-124989300D02*
X70311500Y-125888300D01*
X121851900Y-103828900D02*
X121851900Y-120259900D01*
%TO.N,/MOTOR2_CTRL1*%
X54958700Y-80456400D02*
X54958700Y-78433400D01*
X44743200Y-120156000D02*
X45441300Y-119457900D01*
X54857100Y-80558000D02*
X54958700Y-80456400D01*
X102330000Y-124886800D02*
X101328500Y-125888300D01*
X64650900Y-83587300D02*
X64333100Y-83905100D01*
X101328500Y-125888300D02*
X101060000Y-125888300D01*
X54958700Y-78433400D02*
X53462800Y-76937500D01*
X54857100Y-85718200D02*
X54857100Y-80558000D01*
X101060000Y-127040000D02*
X101060000Y-125888300D01*
X119621300Y-106635800D02*
X119621300Y-126469700D01*
X53462800Y-76937500D02*
X50996300Y-76937500D01*
X65720200Y-83587300D02*
X64650900Y-83587300D01*
X45441300Y-119457900D02*
X45441300Y-118666900D01*
X102330000Y-119424600D02*
X102330000Y-124886800D01*
X55658000Y-86519100D02*
X54857100Y-85718200D01*
X43812900Y-84120900D02*
X43812900Y-119768800D01*
X43812900Y-119768800D02*
X44200100Y-120156000D01*
X44200100Y-120156000D02*
X44743200Y-120156000D01*
X50996300Y-76937500D02*
X43812900Y-84120900D01*
%TO.N,/Motor2_B_OUT*%
X44440700Y-119540200D02*
X44440700Y-85369400D01*
X103600000Y-124500000D02*
X103600000Y-123976900D01*
X63617400Y-80946400D02*
X63617400Y-79377500D01*
X106077900Y-117772200D02*
X105608600Y-118241500D01*
X63617400Y-79377500D02*
X63155100Y-78915200D01*
X103600000Y-123976900D02*
X103600000Y-123965400D01*
X105608600Y-119609600D02*
X105608600Y-121339700D01*
X53295300Y-77339200D02*
X54315100Y-78359000D01*
X54315100Y-78359000D02*
X54315100Y-79546300D01*
X52470900Y-77339200D02*
X53295300Y-77339200D01*
X105608600Y-118241500D02*
X105608600Y-119609600D01*
X105608600Y-121339700D02*
X103600000Y-123348300D01*
X44440700Y-85369400D02*
X52470900Y-77339200D01*
X103600000Y-123965400D02*
X103600000Y-123348300D01*
X106835900Y-105795000D02*
X106077900Y-106553000D01*
X106077900Y-106553000D02*
X106077900Y-117772200D01*
%TO.N,/MOTOR3_A_OUT*%
X109316400Y-114087800D02*
X108642900Y-113414300D01*
X108642900Y-113414300D02*
X108642900Y-94688600D01*
X109316400Y-120553700D02*
X109316400Y-114087800D01*
X111062900Y-90679100D02*
X111062900Y-92268600D01*
X108642900Y-94688600D02*
X111062900Y-92268600D01*
X108266900Y-121603200D02*
X109316400Y-120553700D01*
%TO.N,/MOTOR4_CTRL2*%
X89545700Y-103469800D02*
X88010800Y-101934900D01*
X92288300Y-126752000D02*
X91424600Y-125888300D01*
X91424600Y-125888300D02*
X90604300Y-125888300D01*
X90604300Y-125888300D02*
X89545700Y-124829700D01*
X92288300Y-127040000D02*
X92288300Y-126752000D01*
X89589300Y-98210600D02*
X89589300Y-95593300D01*
X89545700Y-124829700D02*
X89545700Y-103469800D01*
X93440000Y-127040000D02*
X92288300Y-127040000D01*
X88010800Y-101934900D02*
X88010800Y-99789100D01*
X88010800Y-99789100D02*
X89589300Y-98210600D01*
%TO.N,/MOTOR3_B_OUT*%
X66214000Y-121522300D02*
X68040000Y-123348300D01*
X66941800Y-95834600D02*
X67294100Y-96186900D01*
X94167000Y-106675200D02*
X94167000Y-90974900D01*
X68087600Y-99085100D02*
X68087600Y-104075400D01*
X93580600Y-107261600D02*
X94167000Y-106675200D01*
X78471400Y-108630400D02*
X75990300Y-106149300D01*
X68087600Y-104075400D02*
X68687000Y-104674800D01*
X66214000Y-114674700D02*
X66214000Y-121522300D01*
X68040000Y-124500000D02*
X68040000Y-123348300D01*
X65498900Y-113959600D02*
X66214000Y-114674700D01*
X78471400Y-109715000D02*
X78471400Y-108630400D01*
X67294100Y-98291600D02*
X68087600Y-99085100D01*
X67294100Y-96186900D02*
X67294100Y-98291600D01*
X75990300Y-106149300D02*
X75990300Y-104142400D01*
%TO.N,/MOTOR3_CTRL2*%
X109975700Y-111202800D02*
X112557100Y-108621400D01*
X112557100Y-108621400D02*
X112557100Y-90411800D01*
X109975700Y-120915300D02*
X109975700Y-111202800D01*
X105603600Y-125287400D02*
X109975700Y-120915300D01*
%TO.N,/MOTOR4_CTRL1*%
X94782500Y-124959300D02*
X95711500Y-125888300D01*
X51321900Y-88441100D02*
X49376700Y-90386300D01*
X49284100Y-101283900D02*
X49284100Y-118065200D01*
X65198000Y-80289900D02*
X62138200Y-83349700D01*
X95711500Y-125888300D02*
X95980000Y-125888300D01*
X95980000Y-127040000D02*
X95980000Y-125888300D01*
X98738500Y-117270100D02*
X98738500Y-109307800D01*
X96845100Y-119163500D02*
X98738500Y-117270100D01*
X49376700Y-97824200D02*
X49672900Y-98120400D01*
X98738500Y-109307800D02*
X99971800Y-108074500D01*
X96240000Y-119163500D02*
X96240000Y-119622100D01*
X96240000Y-119163500D02*
X96175200Y-119098700D01*
X96175200Y-119098700D02*
X96175200Y-119055600D01*
X49672900Y-100895100D02*
X49284100Y-101283900D01*
X62138200Y-83349700D02*
X62138200Y-85702100D01*
X49376700Y-90386300D02*
X49376700Y-97824200D01*
X49672900Y-98120400D02*
X49672900Y-100895100D01*
X96240000Y-119622100D02*
X94782500Y-121079600D01*
X94782500Y-121079600D02*
X94782500Y-124959300D01*
X96240000Y-119163500D02*
X96845100Y-119163500D01*
%TO.N,/MOTOR3_CTRL1*%
X75089600Y-81342900D02*
X75948100Y-80484400D01*
X76913700Y-87604200D02*
X76631200Y-87604200D01*
X74294000Y-116760400D02*
X67505600Y-109972000D01*
X74117100Y-76690600D02*
X73368500Y-75942000D01*
X74517100Y-104764800D02*
X74517100Y-106200500D01*
X76631200Y-87604200D02*
X75089600Y-86062600D01*
X67505600Y-109972000D02*
X66428000Y-109972000D01*
X75660000Y-127040000D02*
X75660000Y-125888300D01*
X75089600Y-86062600D02*
X75089600Y-81342900D01*
X72125700Y-110283700D02*
X72509100Y-109900300D01*
X72509100Y-109900300D02*
X72509100Y-106030600D01*
X77719200Y-94202800D02*
X77719200Y-101562700D01*
X77719200Y-101562700D02*
X74517100Y-104764800D01*
X73368500Y-75942000D02*
X72219200Y-75942000D01*
X72219200Y-75942000D02*
X71306800Y-76854400D01*
X76913700Y-87604200D02*
X76962000Y-87652500D01*
X75660000Y-125888300D02*
X75391500Y-125888300D01*
X76962000Y-93445600D02*
X77719200Y-94202800D01*
X75391500Y-125888300D02*
X74294000Y-124790800D01*
X74294000Y-124790800D02*
X74294000Y-116760400D01*
X76962000Y-87652500D02*
X76962000Y-93445600D01*
%TO.N,/CTRL_EXT_LOAD2*%
X95980000Y-124500000D02*
X95980000Y-123348300D01*
X95980000Y-122112600D02*
X96628300Y-121464300D01*
X122536700Y-80986100D02*
X122536700Y-120864000D01*
X121250600Y-79700000D02*
X122536700Y-80986100D01*
X95980000Y-123348300D02*
X95980000Y-122112600D01*
%TO.N,/EXT_LOAD1_OUT*%
X109029000Y-88334200D02*
X109029000Y-79957000D01*
X104161300Y-93201900D02*
X109029000Y-88334200D01*
X71408600Y-114742500D02*
X67473800Y-110807700D01*
X97495500Y-125556000D02*
X97311400Y-125371900D01*
X104161300Y-115030700D02*
X104161300Y-93201900D01*
X73567200Y-123047400D02*
X71408600Y-120888800D01*
X97311400Y-125371900D02*
X97311400Y-121188600D01*
X71408600Y-120888800D02*
X71408600Y-114742500D01*
X102992000Y-116200000D02*
X104161300Y-115030700D01*
X97311400Y-121188600D02*
X102000000Y-116500000D01*
%TO.N,/CTRL_EXT_LOAD1*%
X63781100Y-108516500D02*
X63781100Y-100393900D01*
X62361600Y-109936000D02*
X66621300Y-114195700D01*
X64598900Y-95644500D02*
X61737200Y-92782800D01*
X71968300Y-123778100D02*
X71968300Y-124500000D01*
X64598900Y-99576100D02*
X64598900Y-95644500D01*
X61644200Y-109936000D02*
X62361600Y-109936000D01*
X73120000Y-124500000D02*
X71968300Y-124500000D01*
X64390200Y-89569200D02*
X62709900Y-91249500D01*
X66621300Y-114195700D02*
X66621300Y-118431100D01*
X66621300Y-118431100D02*
X71968300Y-123778100D01*
X70577200Y-86866700D02*
X70913400Y-86530500D01*
X70577200Y-88397400D02*
X70577200Y-86866700D01*
X62361600Y-109936000D02*
X63781100Y-108516500D01*
X70913400Y-85985400D02*
X70001400Y-85073400D01*
X63781100Y-100393900D02*
X64598900Y-99576100D01*
X70913400Y-86530500D02*
X70913400Y-85985400D01*
X62709900Y-91249500D02*
X62709900Y-91767300D01*
%TO.N,/EXT_LOAD2_OUT*%
X118697500Y-102391600D02*
X119019600Y-102713700D01*
X90900000Y-116510600D02*
X90900000Y-123348300D01*
X90324400Y-110362300D02*
X90324400Y-115935000D01*
X118697500Y-83201900D02*
X118697500Y-102391600D01*
X119019600Y-111995100D02*
X118697500Y-112317200D01*
X90971700Y-109715000D02*
X90324400Y-110362300D01*
X118437800Y-82942200D02*
X118697500Y-83201900D01*
X90900000Y-124500000D02*
X90900000Y-123348300D01*
X90324400Y-115935000D02*
X90900000Y-116510600D01*
X119019600Y-102713700D02*
X119019600Y-111995100D01*
%TO.N,Net-(JP2-A)*%
X66973800Y-84654200D02*
X66507100Y-84187500D01*
X66973800Y-86336700D02*
X66973800Y-84654200D01*
%TD*%
%TA.AperFunction,Conductor*%
%TO.N,GND*%
G36*
X112335834Y-109794415D02*
G01*
X112391767Y-109836287D01*
X112416184Y-109901751D01*
X112416500Y-109910597D01*
X112416500Y-118973303D01*
X112396815Y-119040342D01*
X112380181Y-119060984D01*
X110787881Y-120653284D01*
X110726558Y-120686769D01*
X110656866Y-120681785D01*
X110600933Y-120639913D01*
X110576516Y-120574449D01*
X110576200Y-120565603D01*
X110576200Y-111502897D01*
X110595885Y-111435858D01*
X110612519Y-111415216D01*
X112204819Y-109822916D01*
X112266142Y-109789431D01*
X112335834Y-109794415D01*
G37*
%TD.AperFunction*%
%TA.AperFunction,Conductor*%
G36*
X121172800Y-108079328D02*
G01*
X121227977Y-108122191D01*
X121251222Y-108188081D01*
X121251400Y-108194718D01*
X121251400Y-111917222D01*
X121250914Y-111918874D01*
X121251356Y-111920540D01*
X121241104Y-111952284D01*
X121231715Y-111984261D01*
X121230413Y-111985388D01*
X121229884Y-111987029D01*
X121204094Y-112008194D01*
X121178911Y-112030016D01*
X121177206Y-112030261D01*
X121175875Y-112031354D01*
X121142752Y-112035215D01*
X121109753Y-112039960D01*
X121107955Y-112039271D01*
X121106475Y-112039444D01*
X121072889Y-112028598D01*
X121065420Y-112024942D01*
X121015379Y-111991506D01*
X120896469Y-111942252D01*
X120892989Y-111940549D01*
X120869950Y-111919480D01*
X120845644Y-111899893D01*
X120844380Y-111896097D01*
X120841428Y-111893397D01*
X120830748Y-111855140D01*
X120823579Y-111833599D01*
X120824131Y-111831434D01*
X120823500Y-111829173D01*
X120823500Y-108225300D01*
X120843185Y-108158261D01*
X120895989Y-108112506D01*
X120947500Y-108101300D01*
X120961444Y-108101300D01*
X121103208Y-108073101D01*
X121172800Y-108079328D01*
G37*
%TD.AperFunction*%
%TD*%
M02*
